<?xml version="1.0" encoding="utf-8"?>
<!-- Generator: Adobe Illustrator 17.0.0, SVG Export Plug-In . SVG Version: 6.00 Build 0)  -->
<!DOCTYPE svg PUBLIC "-//W3C//DTD SVG 1.1//EN" "http://www.w3.org/Graphics/SVG/1.1/DTD/svg11.dtd">
<svg version="1.1" id="Layer_1" xmlns="http://www.w3.org/2000/svg" xmlns:xlink="http://www.w3.org/1999/xlink" x="0px" y="0px"
	 width="2003.21px" height="448.199px" viewBox="0 0 2003.21 448.199" enable-background="new 0 0 2003.21 448.199"
	 xml:space="preserve">
<g>
	<path fill="#C9E3F6" d="M2088.349,269.418V150.235h-85.139v148.98h-16.061v52.719h-40.162v-29.797h-47.941v-17.98h55.969v-9.886
		h-55.969v-23.703h-6.929v23.703h-10.995v4.945h-12.851V271.71h-27.311v27.505h-44.979v27.505h-49.799v-43.552h-8.031v-32.086
		h-7.782v-50.065h70.429v-9.886h-70.429v-6.513h-6.928v6.513h-25.45v9.886h25.45v50.065h-33.483v64.177h-96.386v-48.133h-9.387
		v-15.684h39.91v-9.886h-39.91v-4.349h-6.929v4.349h-6.175v9.886h6.175v15.684h-28.663v52.718h-21.436v-15.687h21.436v-9.886h-49.8
		v9.886h21.436v15.687h-31.073v22.921h-14.458v-11.462h-14.46V150.235h-9.638v-27.505h-30.521v213.157h-57.831V122.729h-24.098
		v18.336h-12.85v144.396h-20.885v38.967h-9.637v-38.967h-40.16v-25.209h-17.671v-29.798h-16.065v-66.469h-25.704v25.209h-64.257
		v96.266h-33.735v-32.087h-40.159v-64.18h-99.599v75.638h-15.497v20.628h-10.205V154.816h-11.244v-32.086h-19.278v27.505h-20.885
		v110.017h-9.637v25.209h-11.244v-77.926h-78.715v64.176h-25.704v27.505h-14.458v16.044h-14.458v-18.336l-8.834-12.604v-28.652
		H677.91v66.469h-14.458v-16.044h-16.064V122.729h-12.851V72.304H620.08V47.091h-19.278V26.224h-28.915v36.91h-16.064v38.968h-9.64
		v135.109h-17.671v-25.092h-22.488v36.671h-25.704V143.358l-9.637-13.755V81.47h-53.011v34.383H390.36v68.761h-12.851v-13.751
		h-16.065l-9.639,13.751l-4.173,5.954v159.07h-18.315V191.491h-16.065v-16.047h-24.095v25.213h-22.491v40.899h-12.598v-17.979
		h-6.929v17.979h-30.272v9.886h30.272V303.8h-2.964v43.545h-53.011V303.8h-17.671v-50.426l-7.23-10.312v-26.359h-29.719v71.05
		h-40.16v45.84H41.766l-6.427-9.166H0v123.771h2097.989V269.418H2088.349z M266.666,264.833h-11.244V303.8h-1.354v-52.359h12.598
		V264.833z M1892.117,322.136h-10.995v-17.98h10.995V322.136z"/>
</g>
</svg>
