<?xml version="1.0" standalone="no"?>
<!DOCTYPE svg PUBLIC "-//W3C//DTD SVG 1.1//EN" "http://www.w3.org/Graphics/SVG/1.1/DTD/svg11.dtd" >
<svg xmlns="http://www.w3.org/2000/svg" xmlns:xlink="http://www.w3.org/1999/xlink" version="1.1">
<metadata>
Created by FontForge 20150318 at Thu Jul  2 14:37:24 2015
 By uniteet7
Copyright (c) 2013 Monotype GmbH.
</metadata>
<defs>
<font id="LinotypeMetroNovaProCond" horiz-adv-x="472" >
  <font-face 
    font-family="LinotypeMetroNovaProCond"
    font-weight="400"
    font-stretch="condensed"
    units-per-em="1000"
    panose-1="2 12 5 6 2 2 3 2 2 3"
    ascent="770"
    descent="-230"
    x-height="485"
    cap-height="772"
    bbox="-173 -237 882 1003"
    underline-thickness="50"
    underline-position="-50"
    unicode-range="U+000D-FB02"
  />
<missing-glyph horiz-adv-x="523" 
d="M187 79q21 0 33.5 -13t12.5 -33t-12.5 -32.5t-33.5 -12.5q-20 0 -32 12.5t-12 32.5t12 33t32 13zM218 164l-66 -14v151q86 4 135.5 38t49.5 88q0 48 -34 75.5t-91 27.5q-38 0 -78 -17l12 73q30 10 74 10q85 0 138 -43.5t53 -121.5q0 -70 -52.5 -119.5t-140.5 -63.5v-84z
M0 -138v870h523v-870h-523zM62 671v-748h399v748h-399z" />
    <glyph glyph-name=".notdef" horiz-adv-x="523" 
d="M187 79q21 0 33.5 -13t12.5 -33t-12.5 -32.5t-33.5 -12.5q-20 0 -32 12.5t-12 32.5t12 33t32 13zM218 164l-66 -14v151q86 4 135.5 38t49.5 88q0 48 -34 75.5t-91 27.5q-38 0 -78 -17l12 73q30 10 74 10q85 0 138 -43.5t53 -121.5q0 -70 -52.5 -119.5t-140.5 -63.5v-84z
M0 -138v870h523v-870h-523zM62 671v-748h399v748h-399z" />
    <glyph glyph-name=".null" horiz-adv-x="0" 
 />
    <glyph glyph-name="nonmarkingreturn" horiz-adv-x="333" 
 />
    <glyph glyph-name="CR" unicode="&#xd;" horiz-adv-x="176" 
 />
    <glyph glyph-name="space" unicode=" " horiz-adv-x="176" 
 />
    <glyph glyph-name="exclam" unicode="!" horiz-adv-x="229" 
d="M70 761l93 19q-9 -296 -41 -562l-21 4q-25 219 -31 539zM63 38q0 21 14 35t35 14q22 0 36 -14t14 -35t-14 -35.5t-36 -14.5q-21 0 -35 14.5t-14 35.5z" />
    <glyph glyph-name="quotedbl" unicode="&#x22;" horiz-adv-x="285" 
d="M224 530l-36 -7q-17 111 -17 226h70q0 -106 -17 -219zM96 530l-36 -7q-17 111 -17 226h70q0 -106 -17 -219z" />
    <glyph glyph-name="numbersign" unicode="#" horiz-adv-x="471" 
d="M72 476l8 60h61l46 216h55l-46 -216h128l46 216h55l-46 -216h66l-8 -60h-70l-41 -197h73l-8 -60h-78l-45 -219h-55l45 219h-128l-45 -219h-55l45 219h-49l8 60h54l41 197h-57zM184 476l-41 -197h128l41 197h-128z" />
    <glyph glyph-name="dollar" unicode="$" 
d="M256 839v-70q72 -5 128 -41v-91q-62 56 -128 65v-293q92 -47 130.5 -101.5t38.5 -132.5q0 -81 -46 -131.5t-123 -62.5v-131h-48v128q-95 3 -155 63l-6 101q72 -88 161 -97v308q-88 45 -122.5 95t-34.5 130q0 75 43 128t114 62v71h48zM356 170q0 51 -22.5 89t-77.5 70
v-283q47 7 73.5 40t26.5 84zM119 579q0 -52 19 -84t70 -61v268q-44 -7 -66.5 -40.5t-22.5 -82.5z" />
    <glyph glyph-name="percent" unicode="%" horiz-adv-x="632" 
d="M530 752l-367 -752h-56l366 752h57zM153 384q-50 0 -79 38.5t-29 108.5q0 76 41.5 136.5t99.5 60.5q49 0 78 -38.5t29 -108.5q0 -76 -41.5 -136.5t-98.5 -60.5zM184 677q-37 0 -61.5 -45.5t-24.5 -107.5q0 -43 15 -66t42 -23q36 0 60.5 45.5t24.5 107.5q0 42 -15 65.5
t-41 23.5zM447 24q-49 0 -78.5 38.5t-29.5 108.5q0 76 42 136.5t100 60.5q49 0 77.5 -38.5t28.5 -108.5q0 -76 -41 -136.5t-99 -60.5zM478 314q-36 0 -61 -44.5t-25 -105.5q0 -41 15 -63.5t42 -22.5q37 0 61.5 44.5t24.5 105.5q0 41 -15 63.5t-42 22.5z" />
    <glyph glyph-name="ampersand" unicode="&#x26;" horiz-adv-x="644" 
d="M334 344l-2 85q32 13 134.5 31.5t152.5 41.5l4 -80q-43 -16 -106 -28q11 -46 11 -98q0 -143 -68 -228t-185 -85q-102 0 -163.5 71t-61.5 178q0 156 120 223q-57 57 -57 138t55 133t139 52q63 0 112 -16l-7 -89q-44 25 -104 25q-55 0 -88.5 -37.5t-33.5 -91.5
q0 -37 12 -65.5t45 -61.5v-3q-117 -66 -117 -196q0 -79 42 -131t112 -52q85 0 132.5 63.5t47.5 174.5q0 47 -9 83q-84 -16 -117 -37z" />
    <glyph glyph-name="quotesingle" unicode="'" horiz-adv-x="156" 
d="M96 530l-36 -7q-17 111 -17 226h70q0 -106 -17 -219z" />
    <glyph glyph-name="parenleft" unicode="(" horiz-adv-x="281" 
d="M58 349q0 145 30.5 252t95.5 201h54q-63 -106 -90 -211t-27 -242t27 -242t90 -211h-54q-65 94 -95.5 201t-30.5 252z" />
    <glyph glyph-name="parenright" unicode=")" horiz-adv-x="281" 
d="M223 349q0 -145 -31 -252t-96 -201h-53q62 106 89 210.5t27 242.5t-27 242.5t-89 210.5h53q65 -94 96 -201t31 -252z" />
    <glyph glyph-name="asterisk" unicode="*" horiz-adv-x="364" 
d="M182 755q29 0 29 -24q0 -36 -22 -119h-14q-22 83 -22 119q0 24 29 24zM182 374q-29 0 -29 24q0 36 22 119h14q22 -83 22 -119q0 -24 -29 -24zM43 637q0 13 10 26.5t22 13.5q4 0 9 -4q26 -18 71 -80l-8 -14q-69 22 -95 40q-9 6 -9 18zM75 452q-12 0 -22 13.5t-10 25.5
q0 13 9 19q26 18 95 40l8 -14q-45 -62 -71 -80q-5 -4 -9 -4zM320 492q0 -11 -9.5 -25.5t-21.5 -14.5q-5 0 -9 4q-26 18 -71 80l8 14q69 -22 95 -40q8 -6 8 -18zM289 677q11 0 21 -13.5t10 -26.5q0 -12 -8 -18q-26 -18 -95 -40l-8 14q45 62 71 80q4 4 9 4z" />
    <glyph glyph-name="plus" unicode="+" horiz-adv-x="464" 
d="M199 493h65v-200h157v-69h-157v-201h-65v201h-157v69h157v200z" />
    <glyph glyph-name="comma" unicode="," horiz-adv-x="200" 
d="M112 103q36 -36 36 -106q0 -95 -92 -143l-11 18q45 39 45 96q0 54 -39 88z" />
    <glyph glyph-name="hyphen" unicode="-" horiz-adv-x="259" 
d="M231 304v-71h-203v71h203z" />
    <glyph glyph-name="period" unicode="." horiz-adv-x="198" 
d="M50 40q0 22 14 36t35 14q22 0 36 -14t14 -36q0 -21 -14 -35t-36 -14q-21 0 -35 14t-14 35z" />
    <glyph glyph-name="slash" unicode="/" horiz-adv-x="350" 
d="M331 780l-246 -810h-68l246 810h68z" />
    <glyph glyph-name="zero" unicode="0" 
d="M235 -16q-96 0 -151.5 102.5t-55.5 291.5t57 289.5t151 100.5q98 0 152.5 -99.5t54.5 -292.5q0 -187 -56 -289.5t-152 -102.5zM235 56q63 0 96.5 81.5t33.5 241.5q0 156 -34 236.5t-95 80.5t-95.5 -80.5t-34.5 -235.5q0 -158 34.5 -241t94.5 -83z" />
    <glyph glyph-name="one" unicode="1" 
d="M284 0h-76v681l-97 -9l13 80h160v-752z" />
    <glyph glyph-name="two" unicode="2" 
d="M74 715q70 50 154 50q85 0 133.5 -56.5t48.5 -144.5q0 -65 -20 -119t-65 -123q-89 -135 -190 -250h296l-7 -72h-392v45q146 172 237 316q35 54 49.5 95.5t14.5 90.5q0 62 -30.5 101.5t-88.5 39.5q-86 0 -157 -70z" />
    <glyph glyph-name="three" unicode="3" 
d="M287 394q116 -49 116 -187q0 -101 -60.5 -160.5t-164.5 -59.5q-71 0 -125 28l-4 84q54 -37 122 -37q72 0 113 40.5t41 108.5q0 65 -37 103t-104 38q-57 0 -103 -11l17 84q30 -3 67 -3q69 0 108.5 38t39.5 109q0 53 -30 88.5t-84 35.5q-72 0 -120 -39l15 87q48 24 113 24
q85 0 134 -52.5t49 -133.5q0 -64 -27 -112t-76 -73z" />
    <glyph glyph-name="four" unicode="4" 
d="M304 0v244h-293v50l284 458h82v-439h72v-69h-72v-244h-73zM85 313h219v352z" />
    <glyph glyph-name="five" unicode="5" 
d="M413 752l-9 -71h-248l-21 -204q16 2 33 2q114 0 178.5 -66.5t64.5 -175.5q0 -132 -84 -205.5t-239 -73.5q-14 0 -36 2l7 79q27 -5 52 -5q107 0 166 53t59 145q0 81 -47.5 130t-140.5 49q-47 0 -89 -9l36 350h318z" />
    <glyph glyph-name="six" unicode="6" 
d="M401 701q-125 -10 -200.5 -95t-96.5 -218q59 67 146 67q88 0 141.5 -63.5t53.5 -170.5q0 -100 -57.5 -167.5t-146.5 -67.5q-102 0 -157.5 82t-55.5 219q0 132 41.5 238t130.5 176t214 79zM235 393q-83 0 -139 -73v-34q0 -105 39 -166t107 -61q55 0 91 46t36 118
q0 76 -37.5 123t-96.5 47z" />
    <glyph glyph-name="seven" unicode="7" 
d="M52 752h373q-120 -395 -178 -752h-86q68 348 174 676l-308 -7z" />
    <glyph glyph-name="eight" unicode="8" 
d="M430 189q0 -84 -54 -143t-139 -59q-89 0 -142 54.5t-53 143.5q0 146 134 202q-63 36 -88.5 83t-25.5 109q0 79 50 136t128 57q82 0 129 -53.5t47 -133.5q0 -133 -115 -194q129 -71 129 -202zM353 195q0 55 -29.5 91t-95.5 68q-114 -48 -114 -161q0 -58 33.5 -96.5
t85.5 -38.5q55 0 87.5 39.5t32.5 97.5zM138 579q0 -57 25.5 -92t85.5 -66q96 54 96 155q0 56 -28.5 91.5t-74.5 35.5t-75 -36.5t-29 -87.5z" />
    <glyph glyph-name="nine" unicode="9" 
d="M157 -23l-54 68q200 105 246 291q-44 -35 -109 -35q-96 0 -155.5 64t-59.5 172q0 99 55.5 167t141.5 68q102 0 159 -82t57 -222q0 -168 -68.5 -288t-212.5 -203zM254 358q63 0 106 37q5 38 5 74q0 107 -38.5 168.5t-106.5 61.5q-53 0 -86 -45.5t-33 -117.5
q0 -79 41.5 -128.5t111.5 -49.5z" />
    <glyph glyph-name="colon" unicode=":" horiz-adv-x="198" 
d="M50 442q0 22 14 36t35 14q22 0 36 -14t14 -36q0 -21 -14 -35t-36 -14q-21 0 -35 14t-14 35zM50 40q0 22 14 36t35 14q22 0 36 -14t14 -36q0 -21 -14 -35t-36 -14q-21 0 -35 14t-14 35z" />
    <glyph glyph-name="semicolon" unicode=";" horiz-adv-x="198" 
d="M112 103q36 -36 36 -106q0 -95 -92 -143l-11 18q45 39 45 96q0 54 -39 88zM50 442q0 22 14 36t35 14q22 0 36 -14t14 -36q0 -21 -14 -35t-36 -14q-21 0 -35 14t-14 35z" />
    <glyph glyph-name="less" unicode="&#x3c;" horiz-adv-x="464" 
d="M420 423l-327 -166l327 -165v-67l-376 194v77l376 194v-67z" />
    <glyph glyph-name="equal" unicode="=" horiz-adv-x="464" 
d="M428 380v-64h-392v64h392zM428 201v-64h-392v64h392z" />
    <glyph glyph-name="greater" unicode="&#x3e;" horiz-adv-x="464" 
d="M44 25v67l326 165l-326 166v67l376 -194v-77z" />
    <glyph glyph-name="question" unicode="?" horiz-adv-x="370" 
d="M135 222l-67 -16v186q90 6 141.5 53.5t51.5 124.5q0 68 -36 108t-97 40q-45 0 -78 -17l12 75q31 12 76 12q89 0 144 -56t55 -158q0 -92 -55 -156t-147 -82v-114zM54 38q0 21 14.5 35t35.5 14t35 -14t14 -35t-14 -35.5t-35 -14.5t-35.5 14.5t-14.5 35.5z" />
    <glyph glyph-name="at" unicode="@" horiz-adv-x="726" 
d="M528 443l-43 -274q-4 -34 -4 -49q0 -42 33 -42q49 0 81.5 55t32.5 152q0 137 -72 224.5t-185 87.5q-120 0 -196.5 -107.5t-76.5 -264.5q0 -161 77.5 -255t196.5 -94q109 0 180 68l24 -55q-82 -69 -204 -69q-146 0 -239 110t-93 296q0 116 41 213.5t117.5 155.5t172.5 58
q136 0 226 -101t90 -265q0 -127 -53.5 -199t-131.5 -72q-41 0 -61 19t-23 59q-21 -33 -52.5 -54t-66.5 -21q-53 0 -82 43.5t-29 122.5q0 117 53 198.5t125 81.5q34 0 59 -22.5t35 -54.5l8 55h60zM450 329q-9 34 -30 55t-49 21q-51 0 -85.5 -62t-34.5 -150q0 -117 71 -117
q60 0 103 90z" />
    <glyph glyph-name="A" unicode="A" horiz-adv-x="611" 
d="M5 0l278 768l60 11l263 -779h-81l-89 272h-257l-93 -272h-81zM311 658l-111 -321h215z" />
    <glyph glyph-name="B" unicode="B" horiz-adv-x="506" 
d="M437 589q0 -53 -23 -98.5t-68 -71.5q116 -47 116 -190q0 -103 -63 -166t-165 -63h-154v772h159q96 0 147 -50.5t51 -132.5zM157 372v-304h76q71 0 110 45.5t39 116.5q0 63 -36 102.5t-98 39.5h-91zM157 705v-268h83q58 0 89.5 41t31.5 100q0 56 -31.5 91.5t-93.5 35.5
h-79z" />
    <glyph glyph-name="C" unicode="C" horiz-adv-x="595" 
d="M548 719l-10 -94h-2q-65 82 -176 82q-102 0 -169 -93.5t-67 -227.5q0 -144 65 -232.5t168 -88.5q116 0 196 102h2l-10 -108q-81 -72 -194 -72q-136 0 -221.5 109.5t-85.5 290.5q0 166 88.5 282t223.5 116q114 0 192 -66z" />
    <glyph glyph-name="D" unicode="D" horiz-adv-x="611" 
d="M226 0h-146v772h147q160 0 250 -103t90 -273q0 -190 -88 -293t-253 -103zM157 698v-624h71q126 0 192 83t66 239q0 132 -68 217t-188 85h-73z" />
    <glyph glyph-name="E" unicode="E" horiz-adv-x="460" 
d="M157 700v-262h225v-70h-225v-296h262v-72h-339v772h334v-72h-257z" />
    <glyph glyph-name="F" unicode="F" horiz-adv-x="445" 
d="M419 772v-73h-262v-252h241v-73h-241v-374h-77v772h339z" />
    <glyph glyph-name="G" unicode="G" horiz-adv-x="621" 
d="M569 355v-264q-98 -104 -222 -104q-134 0 -218.5 109.5t-84.5 287.5q0 173 85 287t226 114q111 0 192 -68l-9 -94h-3q-70 85 -179 85q-105 0 -168.5 -91t-63.5 -233q0 -145 63.5 -232.5t164.5 -87.5q86 0 140 66v225h77z" />
    <glyph glyph-name="H" unicode="H" horiz-adv-x="630" 
d="M157 0h-77v772h77v-334h317v334h76v-772h-76v364h-317v-364z" />
    <glyph glyph-name="I" unicode="I" horiz-adv-x="237" 
d="M157 0h-77v772h77v-772z" />
    <glyph glyph-name="J" unicode="J" horiz-adv-x="236" 
d="M81 772h76v-640q0 -131 -15 -207.5t-50 -125.5l-114 -36l-3 8q60 53 83 126.5t23 223.5v651z" />
    <glyph glyph-name="K" unicode="K" horiz-adv-x="567" 
d="M157 0h-77v772h77v-365l287 365h94l-302 -378l326 -394h-97l-308 379v-379z" />
    <glyph glyph-name="L" unicode="L" horiz-adv-x="483" 
d="M80 0v772h77v-698h311v-74h-388z" />
    <glyph glyph-name="M" unicode="M" horiz-adv-x="825" 
d="M80 0v772h103l227 -639l234 639h101v-772h-75v639l-234 -639h-52l-229 643v-643h-75z" />
    <glyph glyph-name="N" unicode="N" horiz-adv-x="701" 
d="M546 772h75v-772h-67l-399 630v-630h-75v772h68l398 -628v628z" />
    <glyph glyph-name="O" unicode="O" horiz-adv-x="682" 
d="M558 386q0 141 -61.5 232.5t-155.5 91.5q-95 0 -156 -91.5t-61 -232.5t61.5 -232.5t155.5 -91.5q95 0 156 91.5t61 232.5zM638 386q0 -175 -83.5 -288t-213.5 -113t-213.5 113t-83.5 288t83.5 288t213.5 113t213.5 -113t83.5 -288z" />
    <glyph glyph-name="P" unicode="P" horiz-adv-x="473" 
d="M157 0h-77v772h141q106 0 166 -60t60 -167q0 -121 -62 -182.5t-181 -61.5h-47v-301zM157 701v-329h51q158 0 158 170q0 77 -39.5 118t-113.5 41h-56z" />
    <glyph glyph-name="Q" unicode="Q" horiz-adv-x="686" 
d="M341 0q-39 0 -76 14v-1q3 -2 75.5 -46t113.5 -60q50 -19 113 -22l-23 -80q-72 8 -126 34q-48 23 -116 69t-88 57q-30 18 -76 34l36 73q-59 56 -94.5 142t-35.5 186q0 169 83.5 278t213.5 109q132 0 216.5 -111t84.5 -283q0 -171 -85 -282t-216 -111zM562 393
q0 138 -62.5 227.5t-158.5 89.5q-95 0 -156 -87.5t-61 -222.5q0 -139 64 -234t153 -95q97 0 159 91t62 231z" />
    <glyph glyph-name="R" unicode="R" horiz-adv-x="534" 
d="M78 0v772h161q101 0 157.5 -55t56.5 -155q0 -166 -153 -216l228 -346h-91l-214 331q-16 -2 -49 -2h-20v-329h-76zM154 701v-312h16q101 0 151.5 40.5t50.5 126.5q0 70 -36.5 107.5t-105.5 37.5h-76z" />
    <glyph glyph-name="S" unicode="S" horiz-adv-x="449" 
d="M53 136q73 -77 156 -77q55 0 87 34.5t32 91.5q0 58 -27.5 100.5t-98.5 88.5q-83 55 -115.5 103t-32.5 127q0 78 48 130.5t124 52.5q70 0 137 -38v-98q-70 63 -133 63q-47 0 -72.5 -30t-25.5 -79q0 -54 25.5 -89.5t99.5 -82.5q81 -53 116 -108t35 -132q0 -96 -56.5 -152.5
t-149.5 -56.5q-87 0 -143 47l-8 105h2z" />
    <glyph glyph-name="T" unicode="T" horiz-adv-x="526" 
d="M301 0h-76v698h-214v74h505v-74h-215v-698z" />
    <glyph glyph-name="U" unicode="U" horiz-adv-x="610" 
d="M75 772h77v-487q0 -110 43 -166t110 -56t110 56t43 166v487h77v-488q0 -149 -63.5 -223.5t-166.5 -74.5t-166.5 73.5t-63.5 221.5v491z" />
    <glyph glyph-name="V" unicode="V" horiz-adv-x="606" 
d="M5 772h85l207 -652l220 652h84l-272 -772h-66z" />
    <glyph glyph-name="W" unicode="W" horiz-adv-x="887" 
d="M567 0l-127 404l-130 -404h-59l-246 772h84l194 -644l124 382l-82 262h84l188 -641l201 641h84l-256 -772h-59z" />
    <glyph glyph-name="X" unicode="X" horiz-adv-x="609" 
d="M10 0l244 401l-228 371h92l183 -307l186 307h88l-230 -368l247 -404h-91l-203 341l-199 -341h-89z" />
    <glyph glyph-name="Y" unicode="Y" horiz-adv-x="561" 
d="M313 0h-77v353l-235 419h89l185 -344l195 344h90l-247 -417v-355z" />
    <glyph glyph-name="Z" unicode="Z" horiz-adv-x="577" 
d="M528 0h-528l424 698h-363l8 74h488l-425 -698h410z" />
    <glyph glyph-name="bracketleft" unicode="[" horiz-adv-x="281" 
d="M66 -104v906h175v-46h-112v-814h112v-46h-175z" />
    <glyph glyph-name="backslash" unicode="\" horiz-adv-x="360" 
d="M269 -30l-246 810h68l246 -810h-68z" />
    <glyph glyph-name="bracketright" unicode="]" horiz-adv-x="281" 
d="M215 802v-906h-175v46h112v814h-112v46h175z" />
    <glyph glyph-name="asciicircum" unicode="^" horiz-adv-x="368" 
d="M279 410l-95 246l-95 -246h-65l121 313h78l121 -313h-65z" />
    <glyph glyph-name="underscore" unicode="_" horiz-adv-x="400" 
d="M400 -72v-54h-400v54h400z" />
    <glyph glyph-name="grave" unicode="`" horiz-adv-x="157" 
d="M115 571l-111 161h84l63 -161h-36z" />
    <glyph glyph-name="a" unicode="a" horiz-adv-x="403" 
d="M74 374v73q53 50 128 50q69 0 104.5 -43t35.5 -123v-324l-71 -18v70q-65 -70 -135 -70q-49 0 -77.5 30t-28.5 84q0 95 84 142q66 37 157 51v35q0 48 -20.5 74t-58.5 26q-68 0 -116 -57h-2zM271 133v112q-69 -10 -115 -37q-51 -29 -51 -87q0 -31 15 -49.5t44 -18.5
q58 0 107 80z" />
    <glyph glyph-name="b" unicode="b" horiz-adv-x="478" 
d="M219 -17q-59 0 -96 27l-55 -23v776l74 17v-321q49 43 111 43q81 0 134.5 -66.5t53.5 -178.5q0 -125 -60 -199.5t-162 -74.5zM235 436q-59 0 -93 -49v-317q27 -24 74 -24q68 0 108 54.5t40 149.5q0 84 -35.5 135t-93.5 51z" />
    <glyph glyph-name="c" unicode="c" horiz-adv-x="406" 
d="M375 123l-12 -94q-52 -46 -126 -46q-92 0 -145.5 67.5t-53.5 184.5t57 192t157 75q71 0 116 -39l-12 -79q-41 46 -101 46q-67 0 -104 -53t-37 -142q0 -80 34.5 -130t97.5 -50q75 0 126 68h3z" />
    <glyph glyph-name="d" unicode="d" horiz-adv-x="479" 
d="M342 -15l1 48q-53 -50 -123 -50q-84 0 -133 71t-49 177q0 119 59 195t145 76q52 0 95 -27v289l74 16v-773zM239 51q63 0 98 44v309q-31 31 -85 31q-60 0 -99 -56t-39 -146q0 -81 33.5 -131.5t91.5 -50.5z" />
    <glyph glyph-name="e" unicode="e" horiz-adv-x="411" 
d="M240 217q-54 -19 -135 -34q9 -60 40 -95.5t83 -35.5q80 0 132 76h2l-5 -88q-54 -57 -133 -57q-90 0 -138.5 67t-48.5 165q0 113 61.5 201t152.5 88q57 0 89.5 -36t32.5 -92q0 -114 -133 -159zM233 441q-53 0 -91 -64.5t-40 -144.5q68 14 118 34q78 31 78 100q0 35 -17 55
t-48 20z" />
    <glyph glyph-name="f" unicode="f" horiz-adv-x="285" 
d="M165 546v-61h109v-64h-109v-421h-74v421h-77v64h77v78q0 148 80 192l109 25v-43q-67 -20 -91 -63t-24 -128z" />
    <glyph glyph-name="g" unicode="g" horiz-adv-x="427" 
d="M203 496q51 0 91 -29q42 66 103 66v-69q-39 0 -66 -33q33 -46 33 -100q0 -115 -118 -151q-19 -6 -50.5 -13t-40.5 -10q-36 -12 -36 -33t46 -34q18 -5 68 -14t65 -13q92 -24 92 -119q0 -76 -59 -128.5t-143 -52.5q-70 0 -111.5 43t-41.5 103q0 82 71 128q-64 27 -64 74
q0 49 85 85q-78 45 -78 133q0 70 44.5 118.5t109.5 48.5zM267 1q-14 4 -54 11t-62 12q-59 -38 -59 -100q0 -40 27.5 -68t73.5 -28q54 0 89 32t35 76q0 51 -50 65zM114 326q0 -68 58 -101q8 -5 17 -5t26 4q79 24 79 103q0 44 -25.5 75t-66.5 31q-39 0 -63.5 -29.5
t-24.5 -77.5z" />
    <glyph glyph-name="h" unicode="h" horiz-adv-x="469" 
d="M68 0v764l74 16v-375q57 91 139 91q60 0 93.5 -42t33.5 -122v-332h-74v306q0 118 -78 118q-54 0 -93 -67q-21 -35 -21 -90v-267h-74z" />
    <glyph glyph-name="i" unicode="i" horiz-adv-x="209" 
d="M68 477l73 17v-494h-73v477zM55 667q0 21 14 35.5t36 14.5q21 0 35 -14.5t14 -35.5t-14 -35t-35 -14q-22 0 -36 14t-14 35z" />
    <glyph glyph-name="j" unicode="j" horiz-adv-x="209" 
d="M68 477l74 17v-512q0 -131 -41 -187l-103 -32l-5 11q40 33 57.5 80t17.5 128v495zM55 667q0 21 14 35.5t35 14.5t35 -14.5t14 -35.5t-14 -35t-35 -14t-35 14t-14 35z" />
    <glyph glyph-name="k" unicode="k" horiz-adv-x="437" 
d="M142 780v-507l173 212h92l-189 -219l238 -266h-98l-216 253v-253h-74v763z" />
    <glyph glyph-name="l" unicode="l" horiz-adv-x="210" 
d="M142 780v-780h-74v763z" />
    <glyph glyph-name="m" unicode="m" horiz-adv-x="685" 
d="M551 0v311q0 53 -19 83t-52 30q-52 0 -85 -67q-13 -28 -13 -66v-291h-73v311q0 53 -18.5 83t-51.5 30q-54 0 -86 -69q-11 -25 -11 -65v-290h-74v485h74v-65q39 76 117 76q41 0 69.5 -25t42.5 -67q46 92 129 92q60 0 92 -45.5t32 -122.5v-328h-73z" />
    <glyph glyph-name="n" unicode="n" horiz-adv-x="469" 
d="M68 0v485h74v-80q58 91 139 91q60 0 93.5 -42t33.5 -122v-332h-74v306q0 118 -78 118q-55 0 -93 -67q-21 -37 -21 -90v-267h-74z" />
    <glyph glyph-name="o" unicode="o" horiz-adv-x="467" 
d="M234 51q55 0 87.5 51.5t32.5 142.5q0 87 -33 139t-87 52q-55 0 -87.5 -53t-32.5 -138q0 -87 32 -140.5t88 -53.5zM234 -17q-87 0 -141.5 70t-54.5 192q0 119 55 188.5t141 69.5t140.5 -67t54.5 -191q0 -126 -56 -194t-139 -68z" />
    <glyph glyph-name="p" unicode="p" horiz-adv-x="475" 
d="M68 485h74v-14q44 27 98 27q86 0 142 -68t56 -183q0 -120 -56 -192t-152 -72q-51 0 -88 27v-228l-74 -19v722zM225 433q-53 0 -83 -29v-328q31 -31 80 -31q64 0 101.5 53.5t37.5 144.5q0 86 -37 138t-99 52z" />
    <glyph glyph-name="q" unicode="q" horiz-adv-x="480" 
d="M412 490v-707l-73 -20v262q-48 -41 -113 -41q-86 0 -137 68.5t-51 184.5q0 121 57.5 193t153.5 72q54 0 95 -22zM244 52q59 0 95 39v324q-33 22 -82 22q-67 0 -105 -53t-38 -144q0 -87 35 -137.5t95 -50.5z" />
    <glyph glyph-name="r" unicode="r" horiz-adv-x="302" 
d="M292 490v-80h-10q-64 0 -108 -42q-17 -17 -24.5 -36t-7.5 -57v-275h-74v485h74v-83q51 89 132 89q12 0 18 -1z" />
    <glyph glyph-name="s" unicode="s" horiz-adv-x="354" 
d="M40 31l5 85q51 -67 128 -67q36 0 54.5 19t18.5 53q0 41 -33 63q-17 12 -53 29t-49 25q-38 23 -53.5 53t-15.5 77q0 58 35 96t94 38q71 0 129 -45l-18 -79q-21 28 -51 43t-57 15q-30 0 -45.5 -18t-15.5 -45q0 -45 35 -67q13 -8 48 -25t48 -24q73 -44 73 -134
q0 -64 -38.5 -102t-105.5 -38q-80 0 -133 48z" />
    <glyph glyph-name="t" unicode="t" horiz-adv-x="289" 
d="M14 485h74v151l74 17v-168h115v-64h-115v-257q0 -68 12.5 -97.5t52.5 -57.5v-7l-82 -11q-30 18 -43.5 54.5t-13.5 111.5v264h-74v64z" />
    <glyph glyph-name="u" unicode="u" horiz-adv-x="466" 
d="M61 485h74v-312q0 -110 78 -110q29 0 56 22.5t45 60.5q10 20 10 55v284h74v-478l-74 -18v90q-55 -90 -137 -90q-126 0 -126 169v327z" />
    <glyph glyph-name="v" unicode="v" horiz-adv-x="398" 
d="M6 485h78l105 -382l125 382h78l-169 -485h-72z" />
    <glyph glyph-name="w" unicode="w" horiz-adv-x="625" 
d="M280 485h66l80 -383l119 383h74l-164 -485h-69l-77 347l-94 -347h-69l-140 485h73l101 -385z" />
    <glyph glyph-name="x" unicode="x" horiz-adv-x="437" 
d="M416 485l-157 -232l159 -253h-87l-117 198l-127 -198h-84l167 246l-148 239h90l105 -182l115 182h84z" />
    <glyph glyph-name="y" unicode="y" horiz-adv-x="398" 
d="M41 -234q69 97 119 237l-154 482h78l109 -383l124 383h75l-169 -498q-50 -147 -95 -224h-87v3z" />
    <glyph glyph-name="z" unicode="z" horiz-adv-x="417" 
d="M377 0h-364l265 415h-232l7 70h345l-266 -414h257z" />
    <glyph glyph-name="braceleft" unicode="{" horiz-adv-x="281" 
d="M18 326v48q80 8 80 115v167q0 77 35.5 111.5t108.5 34.5v-45q-43 0 -62 -25.5t-19 -88.5v-168q0 -104 -79 -125q79 -21 79 -125v-168q0 -63 19 -88.5t62 -25.5v-45q-73 0 -108.5 34.5t-35.5 111.5v167q0 107 -80 115z" />
    <glyph glyph-name="bar" unicode="|" horiz-adv-x="214" 
d="M137 -110h-60v902h60v-902z" />
    <glyph glyph-name="braceright" unicode="}" horiz-adv-x="281" 
d="M262 374v-48q-80 -8 -80 -115v-167q0 -77 -35 -111.5t-108 -34.5v45q43 0 62 25.5t19 88.5v168q0 104 78 125q-78 21 -78 125v168q0 63 -19 88.5t-62 25.5v45q73 0 108 -34.5t35 -111.5v-167q0 -107 80 -115z" />
    <glyph glyph-name="asciitilde" unicode="~" horiz-adv-x="462" 
d="M441 276q-42 -97 -113 -97q-36 0 -95.5 47.5t-93.5 47.5q-51 0 -85 -85l-33 72q40 97 116 97q30 0 63 -24t65.5 -47.5t59.5 -23.5q51 0 85 85z" />
    <glyph glyph-name="uni00A0" unicode="&#xa0;" horiz-adv-x="176" 
 />
    <glyph glyph-name="exclamdown" unicode="&#xa1;" horiz-adv-x="229" 
d="M158 -218l-92 -19q8 276 41 514l21 -4q28 -234 30 -491zM66 444q0 21 14.5 35t35.5 14t35 -14t14 -35t-14 -35.5t-35 -14.5t-35.5 14.5t-14.5 35.5z" />
    <glyph glyph-name="cent" unicode="&#xa2;" 
d="M379 666l-35 -173q35 -12 64 -33l-11 -79q-33 33 -66 45l-74 -376h14q81 0 138 78h2l-12 -93q-23 -22 -60.5 -37t-76.5 -15q-13 0 -19 1l-30 -154h-47l32 163q-66 20 -102.5 83.5t-36.5 158.5q0 119 58.5 193t163.5 74q13 0 19 -1l33 165h46zM129 235q0 -61 21.5 -107
t61.5 -66l75 373h-8q-72 0 -111 -53.5t-39 -146.5z" />
    <glyph glyph-name="sterling" unicode="&#xa3;" 
d="M361 418l-15 -63q-56 4 -144 4h-14q15 -84 15 -133q0 -61 -15 -103q11 -6 41 -25.5t53.5 -29.5t49.5 -10q57 0 101 63h3l-2 -86q-44 -51 -103 -51q-33 0 -64 15t-61.5 37t-44.5 28q-48 -72 -88 -72q-22 0 -34 15t-12 39q0 37 31 64.5t80 27.5h2q10 31 10 80q0 61 -19 139
q-42 -3 -90 -11l17 69q18 2 56 4q-29 108 -29 166q0 83 43.5 135t116.5 52q80 0 157 -64l-22 -74q-63 67 -129 67q-45 0 -69 -33.5t-24 -91.5q0 -60 18 -154h29q70 0 156 -4z" />
    <glyph glyph-name="currency" unicode="&#xa4;" 
d="M36 115l60 75q-32 54 -32 123q0 67 32 123l-60 75l44 43l55 -69q45 40 101 40t100 -41l56 70l43 -43l-60 -75q33 -55 33 -123q0 -69 -33 -124l60 -74l-44 -43l-55 69q-45 -40 -100 -40q-56 0 -101 40l-55 -69zM124 313q0 -63 33 -108t79 -45t78.5 45t32.5 108
q0 62 -32.5 107.5t-78.5 45.5t-79 -45t-33 -108z" />
    <glyph glyph-name="yen" unicode="&#xa5;" 
d="M429 316v-53h-154v-263h-76v263h-155v53h155l-41 97h-114v53h92l-118 286h77l141 -370l140 370h78l-118 -286h93v-53h-114l-40 -97h154z" />
    <glyph glyph-name="brokenbar" unicode="&#xa6;" horiz-adv-x="214" 
d="M137 -110h-60v322h60v-322zM137 470h-60v322h60v-322z" />
    <glyph glyph-name="section" unicode="&#xa7;" horiz-adv-x="391" 
d="M25 350q0 44 24 77t69 37q-66 55 -66 136q0 57 40 96.5t106 39.5q80 0 140 -48l-8 -75h-2q-64 64 -132 64q-37 0 -58 -22t-21 -57q0 -50 43 -86q22 -19 66.5 -46t65.5 -44q40 -33 57 -65.5t17 -81.5q0 -45 -24.5 -78t-69.5 -37q68 -56 68 -132q0 -57 -41 -98t-105 -41
q-88 0 -136 51l-7 87h2q63 -79 143 -79q36 0 57.5 22.5t21.5 56.5q0 51 -49 90q-21 17 -64 43t-64 43q-73 58 -73 147zM81 359q0 -65 73 -119q58 -45 97 -45q28 0 43 21.5t15 49.5q0 68 -72 119q-62 45 -96 45q-30 0 -45 -21.5t-15 -49.5z" />
    <glyph glyph-name="dieresis" unicode="&#xa8;" horiz-adv-x="250" 
d="M5 647q0 19 13 32.5t32 13.5q18 0 31.5 -13.5t13.5 -32.5q0 -18 -13.5 -31.5t-31.5 -13.5q-19 0 -32 13.5t-13 31.5zM155 647q0 19 13 32.5t32 13.5q18 0 31.5 -13.5t13.5 -32.5q0 -18 -13.5 -31.5t-31.5 -13.5q-19 0 -32 13.5t-13 31.5z" />
    <glyph glyph-name="copyright" unicode="&#xa9;" horiz-adv-x="714" 
d="M504 270l-10 -84q-50 -50 -119 -50q-92 0 -146 66t-54 180q0 116 53 188.5t147 72.5q72 0 123 -43l-11 -69q-48 53 -111 53q-69 0 -106 -54t-37 -148q0 -82 37.5 -134.5t107.5 -52.5q74 0 124 75h2zM36 385q0 172 92 287t229 115t229 -115t92 -287q0 -171 -92 -285.5
t-229 -114.5t-229 114.5t-92 285.5zM87 385q0 -149 77.5 -249.5t192.5 -100.5t192.5 100.5t77.5 249.5q0 150 -77.5 251t-192.5 101t-192.5 -101t-77.5 -251z" />
    <glyph glyph-name="ordfeminine" unicode="&#xaa;" horiz-adv-x="283" 
d="M51 610v53q38 35 90 35q100 0 100 -118v-224l-54 -14v46q-41 -46 -89 -46q-36 0 -57 22.5t-21 62.5q0 63 61 96q47 25 106 35v22q0 66 -53 66q-47 0 -80 -36h-3zM187 441v77q-46 -7 -76 -24q-33 -19 -33 -58q0 -46 39 -46t70 51z" />
    <glyph glyph-name="guillemotleft" unicode="&#xab;" horiz-adv-x="368" 
d="M138 82l-104 165l104 165h54l-80 -165l80 -165h-54zM272 82l-104 165l104 165h54l-80 -165l80 -165h-54z" />
    <glyph glyph-name="logicalnot" unicode="&#xac;" horiz-adv-x="464" 
d="M45 385h360v-294h-68v229h-292v65z" />
    <glyph glyph-name="uni00AD" unicode="&#xad;" horiz-adv-x="259" 
d="M231 304v-71h-203v71h203z" />
    <glyph glyph-name="registered" unicode="&#xae;" horiz-adv-x="478" 
d="M30 525q0 112 60 187t150 75q89 0 149 -75t60 -187t-60 -187t-149 -75q-90 0 -150 75t-60 187zM71 525q0 -95 48.5 -158.5t120.5 -63.5q71 0 119 63.5t48 158.5t-48 158.5t-119 63.5q-72 0 -120.5 -63.5t-48.5 -158.5zM158 374v312h65q97 0 97 -101q0 -68 -55 -94
l76 -117h-48l-66 106q-10 -2 -31 -2v-104h-38zM196 645v-126q83 0 83 65q0 61 -58 61h-25z" />
    <glyph glyph-name="macron" unicode="&#xaf;" horiz-adv-x="232" 
d="M224 679v-63h-216v63h216z" />
    <glyph glyph-name="degree" unicode="&#xb0;" horiz-adv-x="331" 
d="M36 646q0 54 38 91.5t92 37.5q53 0 91 -37.5t38 -91.5t-38 -92t-91 -38q-54 0 -92 38t-38 92zM88 646q0 -32 23 -55t55 -23q31 0 54 23t23 55t-22.5 54.5t-54.5 22.5t-55 -22.5t-23 -54.5z" />
    <glyph glyph-name="plusminus" unicode="&#xb1;" horiz-adv-x="464" 
d="M428 350v-58h-165v-150h-60v150h-167v58h167v153h60v-153h165zM428 93v-57h-392v57h392z" />
    <glyph glyph-name="twosuperior" unicode="&#xb2;" horiz-adv-x="281" 
d="M179 599q-39 -49 -80 -90h153l-6 -51h-217v48q54 49 103 114q49 67 49 121q0 28 -14.5 46.5t-40.5 18.5q-46 0 -88 -43l9 67q33 30 86 30q50 0 77.5 -31t27.5 -79q0 -77 -59 -151z" />
    <glyph glyph-name="threesuperior" unicode="&#xb3;" horiz-adv-x="278" 
d="M229 759q0 -63 -50 -90q64 -25 64 -100q0 -56 -34 -88.5t-89 -32.5q-57 0 -88 21l-2 61q35 -28 87 -28q33 0 51.5 19t18.5 49q0 31 -18 50t-50 19q-37 0 -68 -7l11 57q22 -2 39 -2q33 0 52.5 16.5t19.5 48.5q0 24 -15 39.5t-42 15.5q-41 0 -71 -23l12 61q27 15 72 15
q47 0 73.5 -28.5t26.5 -72.5z" />
    <glyph glyph-name="acute" unicode="&#xb4;" horiz-adv-x="157" 
d="M153 732l-110 -161h-37l63 161h84z" />
    <glyph glyph-name="mu" unicode="&#xb5;" horiz-adv-x="452" 
d="M202 -11q-46 0 -69 33v-240l-73 -19v722h73v-305q0 -118 74 -118q61 0 100 79q13 26 13 67v277h73v-478l-73 -18v80q-44 -80 -118 -80z" />
    <glyph glyph-name="paragraph" unicode="&#xb6;" horiz-adv-x="478" 
d="M155 772h281v-56h-72v-848h-57v848h-94v-848h-58v558q-64 0 -101.5 47t-37.5 126t37.5 126t101.5 47z" />
    <glyph glyph-name="periodcentered" unicode="&#xb7;" horiz-adv-x="198" 
d="M50 264q0 22 14 36t35 14q22 0 36 -14t14 -36q0 -21 -14 -35t-36 -14q-21 0 -35 14t-14 35z" />
    <glyph glyph-name="cedilla" unicode="&#xb8;" horiz-adv-x="173" 
d="M71 9h35l-28 -68q8 3 18 3q31 0 50 -20.5t19 -54.5q0 -39 -25.5 -64.5t-65.5 -25.5q-44 0 -66 24l4 50q19 -29 57 -29q21 0 31.5 12t10.5 30q0 40 -44 40q-21 0 -35 -6l-2 2z" />
    <glyph glyph-name="onesuperior" unicode="&#xb9;" horiz-adv-x="213" 
d="M140 458h-56v343l-72 -4l7 53h121v-392z" />
    <glyph glyph-name="ordmasculine" unicode="&#xba;" horiz-adv-x="328" 
d="M164 390q37 0 58.5 34.5t21.5 97.5q0 58 -21.5 92.5t-58.5 34.5t-59 -35t-22 -92q0 -60 21.5 -96t59.5 -36zM164 338q-61 0 -100 49.5t-39 134.5q0 82 39 130.5t100 48.5q60 0 99.5 -47t39.5 -132q0 -89 -40 -136.5t-99 -47.5z" />
    <glyph glyph-name="guillemotright" unicode="&#xbb;" horiz-adv-x="368" 
d="M96 412l104 -165l-104 -165h-54l79 165l-79 165h54zM230 412l104 -165l-104 -165h-54l79 165l-79 165h54z" />
    <glyph glyph-name="onequarter" unicode="&#xbc;" horiz-adv-x="660" 
d="M544 780l-416 -810h-56l414 810h58zM170 360h-56v343l-72 -4l7 53h121v-392zM524 0v105h-162v32l155 255h59v-239h57v-48h-57v-105h-52zM413 153h111v181z" />
    <glyph glyph-name="onehalf" unicode="&#xbd;" horiz-adv-x="660" 
d="M529 780l-416 -810h-56l414 810h58zM163 360h-56v343l-72 -4l7 53h121v-392zM539 141q-39 -49 -80 -90h153l-6 -51h-217v48q54 49 103 114q49 67 49 121q0 28 -14.5 46.5t-40.5 18.5q-46 0 -88 -43l9 67q33 30 86 30q50 0 77.5 -31t27.5 -79q0 -77 -59 -151z" />
    <glyph glyph-name="threequarters" unicode="&#xbe;" horiz-adv-x="660" 
d="M573 780l-416 -810h-56l414 810h58zM533 0v105h-162v32l155 255h59v-239h57v-48h-57v-105h-52zM422 153h111v181zM233 661q0 -63 -50 -90q64 -25 64 -100q0 -56 -34 -88.5t-89 -32.5q-57 0 -88 21l-2 61q35 -28 87 -28q33 0 51.5 19t18.5 49q0 31 -18 50t-50 19
q-37 0 -68 -7l11 57q22 -2 39 -2q33 0 52.5 16.5t19.5 48.5q0 24 -15 39.5t-42 15.5q-41 0 -71 -23l12 61q27 15 72 15q47 0 73.5 -28.5t26.5 -72.5z" />
    <glyph glyph-name="questiondown" unicode="&#xbf;" horiz-adv-x="351" 
d="M216 274l67 16v-154q-81 -7 -128 -54.5t-47 -119.5q0 -60 31.5 -94.5t85.5 -34.5q41 0 73 16l-9 -74q-31 -12 -77 -12q-80 0 -130 50.5t-50 144.5q0 90 50 153t134 81v82zM198 444q0 21 14 35t35 14t35 -14t14 -35t-14 -35.5t-35 -14.5t-35 14.5t-14 35.5z" />
    <glyph glyph-name="Agrave" unicode="&#xc0;" horiz-adv-x="611" 
d="M5 0l278 768l60 11l263 -779h-81l-89 272h-257l-93 -272h-81zM311 658l-111 -321h215zM318 824l-106 131h88l62 -131h-44z" />
    <glyph glyph-name="Aacute" unicode="&#xc1;" horiz-adv-x="611" 
d="M5 0l278 768l60 11l263 -779h-81l-89 272h-257l-93 -272h-81zM311 658l-111 -321h215zM417 955l-106 -131h-44l62 131h88z" />
    <glyph glyph-name="Acircumflex" unicode="&#xc2;" horiz-adv-x="611" 
d="M5 0l278 768l60 11l263 -779h-81l-89 272h-257l-93 -272h-81zM311 658l-111 -321h215zM386 824l-72 75l-69 -75h-44l81 131h67l81 -131h-44z" />
    <glyph glyph-name="Atilde" unicode="&#xc3;" horiz-adv-x="611" 
d="M5 0l278 768l60 11l263 -779h-81l-89 272h-257l-93 -272h-81zM311 658l-111 -321h215zM266 867q-17 0 -28.5 -15.5t-13.5 -38.5l-29 8q4 54 24 84.5t48 30.5q19 0 54.5 -17t49.5 -17q17 0 28 15t13 39l30 -8q-4 -54 -24 -84.5t-48 -30.5q-20 0 -55.5 17t-48.5 17z" />
    <glyph glyph-name="Adieresis" unicode="&#xc4;" horiz-adv-x="611" 
d="M5 0l278 768l60 11l263 -779h-81l-89 272h-257l-93 -272h-81zM311 658l-111 -321h215zM186 889q0 19 13.5 33t32.5 14t33 -14t14 -33t-14 -32.5t-33 -13.5t-32.5 13.5t-13.5 32.5zM351 889q0 19 13.5 33t32.5 14t33 -14t14 -33t-14 -32.5t-33 -13.5t-32.5 13.5
t-13.5 32.5z" />
    <glyph glyph-name="Aring" unicode="&#xc5;" horiz-adv-x="611" 
d="M5 0l278 768l60 11l263 -779h-81l-89 272h-257l-93 -272h-81zM311 658l-111 -321h215zM216 904q0 40 29 69t69 29q41 0 70 -29t29 -69t-29.5 -69t-69.5 -29t-69 29t-29 69zM254 904q0 -25 17.5 -42.5t42.5 -17.5t43 17.5t18 42.5t-18 43t-43 18t-42.5 -18t-17.5 -43z" />
    <glyph glyph-name="AE" unicode="&#xc6;" horiz-adv-x="727" 
d="M432 700v-262h216v-69h-216v-297h253v-72h-330v298h-169l-123 -298h-82l323 772h376v-72h-248zM352 699l-139 -334h142v334h-3z" />
    <glyph glyph-name="Ccedilla" unicode="&#xc7;" horiz-adv-x="595" 
d="M548 719l-10 -94h-2q-65 82 -176 82q-102 0 -169 -93.5t-67 -227.5q0 -144 65 -232.5t168 -88.5q116 0 196 102h2l-10 -108q-78 -69 -186 -72l-19 -46q8 3 18 3q31 0 50 -20.5t19 -54.5q0 -39 -25.5 -64.5t-65.5 -25.5q-44 0 -66 24l4 50q19 -29 57 -29q21 0 31.5 12
t10.5 30q0 40 -44 40q-21 0 -35 -6l-2 2l33 86q-126 11 -203.5 119t-77.5 280q0 166 88.5 282t223.5 116q114 0 192 -66z" />
    <glyph glyph-name="Egrave" unicode="&#xc8;" horiz-adv-x="460" 
d="M157 700v-262h225v-70h-225v-296h262v-72h-339v772h334v-72h-257zM249 824l-106 131h88l62 -131h-44z" />
    <glyph glyph-name="Eacute" unicode="&#xc9;" horiz-adv-x="460" 
d="M157 700v-262h225v-70h-225v-296h262v-72h-339v772h334v-72h-257zM349 955l-106 -131h-44l62 131h88z" />
    <glyph glyph-name="Ecircumflex" unicode="&#xca;" horiz-adv-x="460" 
d="M157 700v-262h225v-70h-225v-296h262v-72h-339v772h334v-72h-257zM317 824l-72 75l-69 -75h-44l81 131h67l81 -131h-44z" />
    <glyph glyph-name="Edieresis" unicode="&#xcb;" horiz-adv-x="460" 
d="M157 700v-262h225v-70h-225v-296h262v-72h-339v772h334v-72h-257zM117 889q0 19 13.5 33t32.5 14t33 -14t14 -33t-14 -32.5t-33 -13.5t-32.5 13.5t-13.5 32.5zM282 889q0 19 13.5 33t32.5 14t33 -14t14 -33t-14 -32.5t-33 -13.5t-32.5 13.5t-13.5 32.5z" />
    <glyph glyph-name="Igrave" unicode="&#xcc;" horiz-adv-x="237" 
d="M157 0h-77v772h77v-772zM121 824l-106 131h88l62 -131h-44z" />
    <glyph glyph-name="Iacute" unicode="&#xcd;" horiz-adv-x="237" 
d="M157 0h-77v772h77v-772zM221 955l-106 -131h-44l62 131h88z" />
    <glyph glyph-name="Icircumflex" unicode="&#xce;" horiz-adv-x="237" 
d="M157 0h-77v772h77v-772zM189 824l-72 75l-69 -75h-44l81 131h67l81 -131h-44z" />
    <glyph glyph-name="Idieresis" unicode="&#xcf;" horiz-adv-x="237" 
d="M157 0h-77v772h77v-772zM-11 889q0 19 13.5 33t32.5 14t33 -14t14 -33t-14 -32.5t-33 -13.5t-32.5 13.5t-13.5 32.5zM154 889q0 19 13.5 33t32.5 14t33 -14t14 -33t-14 -32.5t-33 -13.5t-32.5 13.5t-13.5 32.5z" />
    <glyph glyph-name="Eth" unicode="&#xd0;" horiz-adv-x="611" 
d="M226 0h-146v361h-53v66h53v345h147q160 0 250 -103t90 -273q0 -190 -88 -293t-253 -103zM157 698v-271h126v-66h-126v-287h71q126 0 192 83t66 239q0 132 -68 217t-188 85h-73z" />
    <glyph glyph-name="Ntilde" unicode="&#xd1;" horiz-adv-x="701" 
d="M546 772h75v-772h-67l-399 630v-630h-75v772h68l398 -628v628zM301 867q-17 0 -28.5 -15.5t-13.5 -38.5l-29 8q4 54 24 84.5t48 30.5q19 0 54.5 -17t49.5 -17q17 0 28 15t13 39l30 -8q-4 -54 -24 -84.5t-48 -30.5q-20 0 -55.5 17t-48.5 17z" />
    <glyph glyph-name="Ograve" unicode="&#xd2;" horiz-adv-x="682" 
d="M558 386q0 141 -61.5 232.5t-155.5 91.5q-95 0 -156 -91.5t-61 -232.5t61.5 -232.5t155.5 -91.5q95 0 156 91.5t61 232.5zM638 386q0 -175 -83.5 -288t-213.5 -113t-213.5 113t-83.5 288t83.5 288t213.5 113t213.5 -113t83.5 -288zM344 824l-106 131h88l62 -131h-44z" />
    <glyph glyph-name="Oacute" unicode="&#xd3;" horiz-adv-x="682" 
d="M558 386q0 141 -61.5 232.5t-155.5 91.5q-95 0 -156 -91.5t-61 -232.5t61.5 -232.5t155.5 -91.5q95 0 156 91.5t61 232.5zM638 386q0 -175 -83.5 -288t-213.5 -113t-213.5 113t-83.5 288t83.5 288t213.5 113t213.5 -113t83.5 -288zM444 955l-106 -131h-44l62 131h88z" />
    <glyph glyph-name="Ocircumflex" unicode="&#xd4;" horiz-adv-x="682" 
d="M558 386q0 141 -61.5 232.5t-155.5 91.5q-95 0 -156 -91.5t-61 -232.5t61.5 -232.5t155.5 -91.5q95 0 156 91.5t61 232.5zM638 386q0 -175 -83.5 -288t-213.5 -113t-213.5 113t-83.5 288t83.5 288t213.5 113t213.5 -113t83.5 -288zM412 824l-72 75l-69 -75h-44l81 131h67
l81 -131h-44z" />
    <glyph glyph-name="Otilde" unicode="&#xd5;" horiz-adv-x="682" 
d="M558 386q0 141 -61.5 232.5t-155.5 91.5q-95 0 -156 -91.5t-61 -232.5t61.5 -232.5t155.5 -91.5q95 0 156 91.5t61 232.5zM638 386q0 -175 -83.5 -288t-213.5 -113t-213.5 113t-83.5 288t83.5 288t213.5 113t213.5 -113t83.5 -288zM292 867q-17 0 -28.5 -15.5
t-13.5 -38.5l-29 8q4 54 24 84.5t48 30.5q19 0 54.5 -17t49.5 -17q17 0 28 15t13 39l30 -8q-4 -54 -24 -84.5t-48 -30.5q-20 0 -55.5 17t-48.5 17z" />
    <glyph glyph-name="Odieresis" unicode="&#xd6;" horiz-adv-x="682" 
d="M558 386q0 141 -61.5 232.5t-155.5 91.5q-95 0 -156 -91.5t-61 -232.5t61.5 -232.5t155.5 -91.5q95 0 156 91.5t61 232.5zM638 386q0 -175 -83.5 -288t-213.5 -113t-213.5 113t-83.5 288t83.5 288t213.5 113t213.5 -113t83.5 -288zM212 889q0 19 13.5 33t32.5 14t33 -14
t14 -33t-14 -32.5t-33 -13.5t-32.5 13.5t-13.5 32.5zM377 889q0 19 13.5 33t32.5 14t33 -14t14 -33t-14 -32.5t-33 -13.5t-32.5 13.5t-13.5 32.5z" />
    <glyph glyph-name="multiply" unicode="&#xd7;" horiz-adv-x="464" 
d="M53 81l141 178l-149 188l43 46l146 -184l147 184l43 -46l-150 -188l142 -178l-43 -46l-139 174l-138 -174z" />
    <glyph glyph-name="Oslash" unicode="&#xd8;" horiz-adv-x="682" 
d="M638 386q0 -175 -83.5 -288t-213.5 -113q-97 0 -172 66l-36 -59l-53 20l50 82q-86 115 -86 292q0 175 83.5 288t213.5 113q96 0 170 -66l36 59l54 -19l-50 -82q87 -114 87 -293zM558 386q0 128 -53 218l-294 -484q56 -58 130 -58q95 0 156 91.5t61 232.5zM124 386
q0 -128 51 -217l294 483q-55 58 -128 58q-95 0 -156 -91.5t-61 -232.5z" />
    <glyph glyph-name="Ugrave" unicode="&#xd9;" horiz-adv-x="610" 
d="M75 772h77v-487q0 -110 43 -166t110 -56t110 56t43 166v487h77v-488q0 -149 -63.5 -223.5t-166.5 -74.5t-166.5 73.5t-63.5 221.5v491zM308 824l-106 131h88l62 -131h-44z" />
    <glyph glyph-name="Uacute" unicode="&#xda;" horiz-adv-x="610" 
d="M75 772h77v-487q0 -110 43 -166t110 -56t110 56t43 166v487h77v-488q0 -149 -63.5 -223.5t-166.5 -74.5t-166.5 73.5t-63.5 221.5v491zM408 955l-106 -131h-44l62 131h88z" />
    <glyph glyph-name="Ucircumflex" unicode="&#xdb;" horiz-adv-x="610" 
d="M75 772h77v-487q0 -110 43 -166t110 -56t110 56t43 166v487h77v-488q0 -149 -63.5 -223.5t-166.5 -74.5t-166.5 73.5t-63.5 221.5v491zM376 824l-72 75l-69 -75h-44l81 131h67l81 -131h-44z" />
    <glyph glyph-name="Udieresis" unicode="&#xdc;" horiz-adv-x="610" 
d="M75 772h77v-487q0 -110 43 -166t110 -56t110 56t43 166v487h77v-488q0 -149 -63.5 -223.5t-166.5 -74.5t-166.5 73.5t-63.5 221.5v491zM176 889q0 19 13.5 33t32.5 14t33 -14t14 -33t-14 -32.5t-33 -13.5t-32.5 13.5t-13.5 32.5zM341 889q0 19 13.5 33t32.5 14t33 -14
t14 -33t-14 -32.5t-33 -13.5t-32.5 13.5t-13.5 32.5z" />
    <glyph glyph-name="Yacute" unicode="&#xdd;" horiz-adv-x="561" 
d="M313 0h-77v353l-235 419h89l185 -344l195 344h90l-247 -417v-355zM383 955l-106 -131h-44l62 131h88z" />
    <glyph glyph-name="Thorn" unicode="&#xde;" horiz-adv-x="470" 
d="M157 0h-77v772h77v-132h61q107 0 168 -59.5t61 -166.5q0 -120 -60.5 -181t-177.5 -61h-52v-172zM157 569v-327h51q80 0 119 41.5t39 127.5q0 77 -39.5 117.5t-113.5 40.5h-56z" />
    <glyph glyph-name="germandbls" unicode="&#xdf;" horiz-adv-x="486" 
d="M409 615q0 -133 -130 -200q81 -31 126.5 -91.5t45.5 -142.5q0 -85 -45 -138t-123 -53q-62 0 -95 25l-8 86h2q33 -41 94 -41q49 0 74 32.5t25 88.5q0 70 -43.5 121t-127.5 73v67q130 59 130 168q0 102 -83 102q-51 0 -81 -49.5t-30 -130.5v-532h-73v533q0 108 51.5 177.5
t135.5 69.5q72 0 113.5 -45.5t41.5 -119.5z" />
    <glyph glyph-name="agrave" unicode="&#xe0;" horiz-adv-x="403" 
d="M74 374v73q53 50 128 50q69 0 104.5 -43t35.5 -123v-324l-71 -18v70q-65 -70 -135 -70q-49 0 -77.5 30t-28.5 84q0 95 84 142q66 37 157 51v35q0 48 -20.5 74t-58.5 26q-68 0 -116 -57h-2zM271 133v112q-69 -10 -115 -37q-51 -29 -51 -87q0 -31 15 -49.5t44 -18.5
q58 0 107 80zM208 577l-111 161h84l63 -161h-36z" />
    <glyph glyph-name="aacute" unicode="&#xe1;" horiz-adv-x="403" 
d="M74 374v73q53 50 128 50q69 0 104.5 -43t35.5 -123v-324l-71 -18v70q-65 -70 -135 -70q-49 0 -77.5 30t-28.5 84q0 95 84 142q66 37 157 51v35q0 48 -20.5 74t-58.5 26q-68 0 -116 -57h-2zM271 133v112q-69 -10 -115 -37q-51 -29 -51 -87q0 -31 15 -49.5t44 -18.5
q58 0 107 80zM306 738l-110 -161h-37l63 161h84z" />
    <glyph glyph-name="acircumflex" unicode="&#xe2;" horiz-adv-x="403" 
d="M74 374v73q53 50 128 50q69 0 104.5 -43t35.5 -123v-324l-71 -18v70q-65 -70 -135 -70q-49 0 -77.5 30t-28.5 84q0 95 84 142q66 37 157 51v35q0 48 -20.5 74t-58.5 26q-68 0 -116 -57h-2zM271 133v112q-69 -10 -115 -37q-51 -29 -51 -87q0 -31 15 -49.5t44 -18.5
q58 0 107 80zM268 577l-67 93l-67 -93h-41l84 161h48l84 -161h-41z" />
    <glyph glyph-name="atilde" unicode="&#xe3;" horiz-adv-x="403" 
d="M74 374v73q53 50 128 50q69 0 104.5 -43t35.5 -123v-324l-71 -18v70q-65 -70 -135 -70q-49 0 -77.5 30t-28.5 84q0 95 84 142q66 37 157 51v35q0 48 -20.5 74t-58.5 26q-68 0 -116 -57h-2zM271 133v112q-69 -10 -115 -37q-51 -29 -51 -87q0 -31 15 -49.5t44 -18.5
q58 0 107 80zM156 642q-17 0 -28 -16t-14 -41l-29 8q4 54 25 85t50 31q18 0 51.5 -18.5t45.5 -18.5q35 0 42 57l29 -8q-4 -54 -24.5 -85t-50.5 -31q-18 0 -51.5 18.5t-45.5 18.5z" />
    <glyph glyph-name="adieresis" unicode="&#xe4;" horiz-adv-x="403" 
d="M74 374v73q53 50 128 50q69 0 104.5 -43t35.5 -123v-324l-71 -18v70q-65 -70 -135 -70q-49 0 -77.5 30t-28.5 84q0 95 84 142q66 37 157 51v35q0 48 -20.5 74t-58.5 26q-68 0 -116 -57h-2zM271 133v112q-69 -10 -115 -37q-51 -29 -51 -87q0 -31 15 -49.5t44 -18.5
q58 0 107 80zM82 653q0 19 13 32.5t32 13.5q18 0 31.5 -13.5t13.5 -32.5q0 -18 -13.5 -31.5t-31.5 -13.5q-19 0 -32 13.5t-13 31.5zM232 653q0 19 13 32.5t32 13.5q18 0 31.5 -13.5t13.5 -32.5q0 -18 -13.5 -31.5t-31.5 -13.5q-19 0 -32 13.5t-13 31.5z" />
    <glyph glyph-name="aring" unicode="&#xe5;" horiz-adv-x="403" 
d="M74 374v73q53 50 128 50q69 0 104.5 -43t35.5 -123v-324l-71 -18v70q-65 -70 -135 -70q-49 0 -77.5 30t-28.5 84q0 95 84 142q66 37 157 51v35q0 48 -20.5 74t-58.5 26q-68 0 -116 -57h-2zM271 133v112q-69 -10 -115 -37q-51 -29 -51 -87q0 -31 15 -49.5t44 -18.5
q58 0 107 80zM102 663q0 41 29.5 70.5t70.5 29.5t70 -29.5t29 -70.5t-29.5 -70t-69.5 -29q-41 0 -70.5 29.5t-29.5 69.5zM144 663q0 -24 17 -41t41 -17t41 17t17 41t-17 41t-41 17t-41 -17t-17 -41z" />
    <glyph glyph-name="ae" unicode="&#xe6;" horiz-adv-x="631" 
d="M74 447q54 50 127 50q97 0 121 -91q57 90 155 90q54 0 84.5 -34t30.5 -87q0 -51 -33 -89t-105 -52q-65 -12 -121 -15q4 -168 125 -168q35 0 67.5 21.5t53.5 58.5h3l-4 -92q-47 -57 -123 -57q-111 0 -156 92q-72 -92 -155 -92q-52 0 -83 33.5t-31 90.5q0 108 110 144
q55 18 131 22v58q0 49 -21 75t-58 26q-67 0 -116 -57h-2v73zM163 46q67 0 117 81q-9 41 -9 90v8q-63 -5 -108 -20q-58 -21 -58 -81q0 -35 15 -56.5t43 -21.5zM459 434q-49 0 -83 -47.5t-42 -120.5q62 6 110 18q37 9 55.5 32t18.5 52q0 30 -16 48t-43 18z" />
    <glyph glyph-name="ccedilla" unicode="&#xe7;" horiz-adv-x="406" 
d="M375 123l-12 -94q-48 -43 -118 -46l-17 -42q8 3 18 3q31 0 50 -20.5t19 -54.5q0 -39 -25.5 -64.5t-65.5 -25.5q-44 0 -66 24l4 50q19 -29 57 -29q21 0 31.5 12t10.5 30q0 40 -44 40q-21 0 -35 -6l-2 2l31 83q-81 9 -127 75.5t-46 174.5q0 117 57 192t157 75q71 0 116 -39
l-12 -79q-41 46 -101 46q-67 0 -104 -53t-37 -142q0 -80 34.5 -130t97.5 -50q75 0 126 68h3z" />
    <glyph glyph-name="egrave" unicode="&#xe8;" horiz-adv-x="411" 
d="M240 217q-54 -19 -135 -34q9 -60 40 -95.5t83 -35.5q80 0 132 76h2l-5 -88q-54 -57 -133 -57q-90 0 -138.5 67t-48.5 165q0 113 61.5 201t152.5 88q57 0 89.5 -36t32.5 -92q0 -114 -133 -159zM233 441q-53 0 -91 -64.5t-40 -144.5q68 14 118 34q78 31 78 100q0 35 -17 55
t-48 20zM232 577l-111 161h84l63 -161h-36z" />
    <glyph glyph-name="eacute" unicode="&#xe9;" horiz-adv-x="411" 
d="M240 217q-54 -19 -135 -34q9 -60 40 -95.5t83 -35.5q80 0 132 76h2l-5 -88q-54 -57 -133 -57q-90 0 -138.5 67t-48.5 165q0 113 61.5 201t152.5 88q57 0 89.5 -36t32.5 -92q0 -114 -133 -159zM233 441q-53 0 -91 -64.5t-40 -144.5q68 14 118 34q78 31 78 100q0 35 -17 55
t-48 20zM331 738l-110 -161h-37l63 161h84z" />
    <glyph glyph-name="ecircumflex" unicode="&#xea;" horiz-adv-x="411" 
d="M240 217q-54 -19 -135 -34q9 -60 40 -95.5t83 -35.5q80 0 132 76h2l-5 -88q-54 -57 -133 -57q-90 0 -138.5 67t-48.5 165q0 113 61.5 201t152.5 88q57 0 89.5 -36t32.5 -92q0 -114 -133 -159zM233 441q-53 0 -91 -64.5t-40 -144.5q68 14 118 34q78 31 78 100q0 35 -17 55
t-48 20zM294 577l-67 93l-67 -93h-41l84 161h48l84 -161h-41z" />
    <glyph glyph-name="edieresis" unicode="&#xeb;" horiz-adv-x="411" 
d="M240 217q-54 -19 -135 -34q9 -60 40 -95.5t83 -35.5q80 0 132 76h2l-5 -88q-54 -57 -133 -57q-90 0 -138.5 67t-48.5 165q0 113 61.5 201t152.5 88q57 0 89.5 -36t32.5 -92q0 -114 -133 -159zM233 441q-53 0 -91 -64.5t-40 -144.5q68 14 118 34q78 31 78 100q0 35 -17 55
t-48 20zM106 653q0 19 13 32.5t32 13.5q18 0 31.5 -13.5t13.5 -32.5q0 -18 -13.5 -31.5t-31.5 -13.5q-19 0 -32 13.5t-13 31.5zM256 653q0 19 13 32.5t32 13.5q18 0 31.5 -13.5t13.5 -32.5q0 -18 -13.5 -31.5t-31.5 -13.5q-19 0 -32 13.5t-13 31.5z" />
    <glyph glyph-name="igrave" unicode="&#xec;" horiz-adv-x="210" 
d="M68 477l74 17v-494h-74v477zM111 577l-111 161h84l63 -161h-36z" />
    <glyph glyph-name="iacute" unicode="&#xed;" horiz-adv-x="210" 
d="M68 477l74 17v-494h-74v477zM209 738l-110 -161h-37l63 161h84z" />
    <glyph glyph-name="icircumflex" unicode="&#xee;" horiz-adv-x="210" 
d="M68 477l74 17v-494h-74v477zM171 577l-67 93l-67 -93h-41l84 161h48l84 -161h-41z" />
    <glyph glyph-name="idieresis" unicode="&#xef;" horiz-adv-x="210" 
d="M36 696q19 0 30.5 -13.5t11.5 -35.5q0 -21 -11.5 -34.5t-30.5 -13.5t-30.5 13t-11.5 35t11.5 35.5t30.5 13.5zM170 696q19 0 30.5 -13.5t11.5 -35.5q0 -21 -11.5 -34.5t-30.5 -13.5t-30.5 13t-11.5 35t11.5 35.5t30.5 13.5zM68 477l74 17v-494h-74v477z" />
    <glyph glyph-name="eth" unicode="&#xf0;" horiz-adv-x="464" 
d="M98 589l-4 52l117 45q-41 41 -88 62v2l75 33q47 -26 86 -68l94 36l3 -52l-64 -25q110 -152 110 -386q0 -142 -53.5 -223.5t-150.5 -81.5q-82 0 -133.5 72t-51.5 179q0 122 52.5 194.5t137.5 72.5q58 0 103 -39q-28 109 -85 184zM353 280q0 52 -6 98q-45 59 -107 59
q-57 0 -91.5 -56.5t-34.5 -146.5q0 -80 30.5 -132.5t80.5 -52.5q60 0 94 61.5t34 169.5z" />
    <glyph glyph-name="ntilde" unicode="&#xf1;" horiz-adv-x="469" 
d="M68 0v485h74v-80q58 91 139 91q60 0 93.5 -42t33.5 -122v-332h-74v306q0 118 -78 118q-55 0 -93 -67q-21 -37 -21 -90v-267h-74zM190 642q-17 0 -28 -16t-14 -41l-29 8q4 54 25 85t50 31q18 0 51.5 -18.5t45.5 -18.5q35 0 42 57l29 -8q-4 -54 -24.5 -85t-50.5 -31
q-18 0 -51.5 18.5t-45.5 18.5z" />
    <glyph glyph-name="ograve" unicode="&#xf2;" horiz-adv-x="467" 
d="M234 51q55 0 87.5 51.5t32.5 142.5q0 87 -33 139t-87 52q-55 0 -87.5 -53t-32.5 -138q0 -87 32 -140.5t88 -53.5zM234 -17q-87 0 -141.5 70t-54.5 192q0 119 55 188.5t141 69.5t140.5 -67t54.5 -191q0 -126 -56 -194t-139 -68zM241 577l-111 161h84l63 -161h-36z" />
    <glyph glyph-name="oacute" unicode="&#xf3;" horiz-adv-x="467" 
d="M234 51q55 0 87.5 51.5t32.5 142.5q0 87 -33 139t-87 52q-55 0 -87.5 -53t-32.5 -138q0 -87 32 -140.5t88 -53.5zM234 -17q-87 0 -141.5 70t-54.5 192q0 119 55 188.5t141 69.5t140.5 -67t54.5 -191q0 -126 -56 -194t-139 -68zM339 738l-110 -161h-37l63 161h84z" />
    <glyph glyph-name="ocircumflex" unicode="&#xf4;" horiz-adv-x="467" 
d="M234 51q55 0 87.5 51.5t32.5 142.5q0 87 -33 139t-87 52q-55 0 -87.5 -53t-32.5 -138q0 -87 32 -140.5t88 -53.5zM234 -17q-87 0 -141.5 70t-54.5 192q0 119 55 188.5t141 69.5t140.5 -67t54.5 -191q0 -126 -56 -194t-139 -68zM301 577l-67 93l-67 -93h-41l84 161h48
l84 -161h-41z" />
    <glyph glyph-name="otilde" unicode="&#xf5;" horiz-adv-x="467" 
d="M234 51q55 0 87.5 51.5t32.5 142.5q0 87 -33 139t-87 52q-55 0 -87.5 -53t-32.5 -138q0 -87 32 -140.5t88 -53.5zM234 -17q-87 0 -141.5 70t-54.5 192q0 119 55 188.5t141 69.5t140.5 -67t54.5 -191q0 -126 -56 -194t-139 -68zM189 642q-17 0 -28 -16t-14 -41l-29 8
q4 54 25 85t50 31q18 0 51.5 -18.5t45.5 -18.5q35 0 42 57l29 -8q-4 -54 -24.5 -85t-50.5 -31q-18 0 -51.5 18.5t-45.5 18.5z" />
    <glyph glyph-name="odieresis" unicode="&#xf6;" horiz-adv-x="467" 
d="M234 51q55 0 87.5 51.5t32.5 142.5q0 87 -33 139t-87 52q-55 0 -87.5 -53t-32.5 -138q0 -87 32 -140.5t88 -53.5zM234 -17q-87 0 -141.5 70t-54.5 192q0 119 55 188.5t141 69.5t140.5 -67t54.5 -191q0 -126 -56 -194t-139 -68zM114 653q0 19 13 32.5t32 13.5
q18 0 31.5 -13.5t13.5 -32.5q0 -18 -13.5 -31.5t-31.5 -13.5q-19 0 -32 13.5t-13 31.5zM264 653q0 19 13 32.5t32 13.5q18 0 31.5 -13.5t13.5 -32.5q0 -18 -13.5 -31.5t-31.5 -13.5q-19 0 -32 13.5t-13 31.5z" />
    <glyph glyph-name="divide" unicode="&#xf7;" horiz-adv-x="464" 
d="M428 291v-65h-392v65h392zM232 145q21 0 34 -13t13 -34t-12.5 -33t-33.5 -12q-22 0 -34 12t-12 33t12 34t33 13zM232 464q21 0 34 -12.5t13 -33.5t-13 -33.5t-33 -12.5q-22 0 -34 12.5t-12 33.5t12 33.5t33 12.5z" />
    <glyph glyph-name="oslash" unicode="&#xf8;" horiz-adv-x="467" 
d="M234 -17q-52 0 -95 26l-21 -36l-43 15l30 50q-67 70 -67 207q0 119 55 188.5t141 69.5q53 0 95 -27l22 37l43 -15l-29 -52q64 -71 64 -201q0 -126 -56 -194t-139 -68zM114 245q0 -89 32 -141l150 309q-26 23 -62 23q-55 0 -87.5 -53t-32.5 -138zM234 51q55 0 87.5 51.5
t32.5 142.5q0 81 -30 133l-150 -307q26 -20 60 -20z" />
    <glyph glyph-name="ugrave" unicode="&#xf9;" horiz-adv-x="466" 
d="M61 485h74v-312q0 -110 78 -110q29 0 56 22.5t45 60.5q10 20 10 55v284h74v-478l-74 -18v90q-55 -90 -137 -90q-126 0 -126 169v327zM236 577l-111 161h84l63 -161h-36z" />
    <glyph glyph-name="uacute" unicode="&#xfa;" horiz-adv-x="466" 
d="M61 485h74v-312q0 -110 78 -110q29 0 56 22.5t45 60.5q10 20 10 55v284h74v-478l-74 -18v90q-55 -90 -137 -90q-126 0 -126 169v327zM335 738l-110 -161h-37l63 161h84z" />
    <glyph glyph-name="ucircumflex" unicode="&#xfb;" horiz-adv-x="466" 
d="M61 485h74v-312q0 -110 78 -110q29 0 56 22.5t45 60.5q10 20 10 55v284h74v-478l-74 -18v90q-55 -90 -137 -90q-126 0 -126 169v327zM297 577l-67 93l-67 -93h-41l84 161h48l84 -161h-41z" />
    <glyph glyph-name="udieresis" unicode="&#xfc;" horiz-adv-x="466" 
d="M61 485h74v-312q0 -110 78 -110q29 0 56 22.5t45 60.5q10 20 10 55v284h74v-478l-74 -18v90q-55 -90 -137 -90q-126 0 -126 169v327zM110 653q0 19 13 32.5t32 13.5q18 0 31.5 -13.5t13.5 -32.5q0 -18 -13.5 -31.5t-31.5 -13.5q-19 0 -32 13.5t-13 31.5zM260 653
q0 19 13 32.5t32 13.5q18 0 31.5 -13.5t13.5 -32.5q0 -18 -13.5 -31.5t-31.5 -13.5q-19 0 -32 13.5t-13 31.5z" />
    <glyph glyph-name="yacute" unicode="&#xfd;" horiz-adv-x="398" 
d="M41 -234q69 97 119 237l-154 482h78l109 -383l124 383h75l-169 -498q-50 -147 -95 -224h-87v3zM300 738l-110 -161h-37l63 161h84z" />
    <glyph glyph-name="thorn" unicode="&#xfe;" horiz-adv-x="475" 
d="M68 763l74 17v-309q44 27 98 27q86 0 142 -68t56 -183q0 -120 -56 -192t-152 -72q-51 0 -88 27v-228l-74 -19v1000zM225 433q-53 0 -83 -29v-327q30 -32 80 -32q64 0 101.5 53.5t37.5 144.5q0 86 -37 138t-99 52z" />
    <glyph glyph-name="ydieresis" unicode="&#xff;" horiz-adv-x="398" 
d="M41 -234q69 97 119 237l-154 482h78l109 -383l124 383h75l-169 -498q-50 -147 -95 -224h-87v3zM76 653q0 19 13 32.5t32 13.5q18 0 31.5 -13.5t13.5 -32.5q0 -18 -13.5 -31.5t-31.5 -13.5q-19 0 -32 13.5t-13 31.5zM226 653q0 19 13 32.5t32 13.5q18 0 31.5 -13.5
t13.5 -32.5q0 -18 -13.5 -31.5t-31.5 -13.5q-19 0 -32 13.5t-13 31.5z" />
    <glyph glyph-name="Amacron" unicode="&#x100;" horiz-adv-x="611" 
d="M5 0l278 768l60 11l263 -779h-81l-89 272h-257l-93 -272h-81zM311 658l-111 -321h215zM429 910v-60h-229v60h229z" />
    <glyph glyph-name="amacron" unicode="&#x101;" horiz-adv-x="403" 
d="M74 374v73q53 50 128 50q69 0 104.5 -43t35.5 -123v-324l-71 -18v70q-65 -70 -135 -70q-49 0 -77.5 30t-28.5 84q0 95 84 142q66 37 157 51v35q0 48 -20.5 74t-58.5 26q-68 0 -116 -57h-2zM271 133v112q-69 -10 -115 -37q-51 -29 -51 -87q0 -31 15 -49.5t44 -18.5
q58 0 107 80zM309 685v-63h-216v63h216z" />
    <glyph glyph-name="Abreve" unicode="&#x102;" horiz-adv-x="611" 
d="M5 0l278 768l60 11l263 -779h-81l-89 272h-257l-93 -272h-81zM311 658l-111 -321h215zM315 882q61 0 64 72h37q0 -55 -24.5 -92.5t-76.5 -37.5q-53 0 -77 37.5t-24 92.5h36q5 -72 65 -72z" />
    <glyph glyph-name="abreve" unicode="&#x103;" horiz-adv-x="403" 
d="M74 374v73q53 50 128 50q69 0 104.5 -43t35.5 -123v-324l-71 -18v70q-65 -70 -135 -70q-49 0 -77.5 30t-28.5 84q0 95 84 142q66 37 157 51v35q0 48 -20.5 74t-58.5 26q-68 0 -116 -57h-2zM271 133v112q-69 -10 -115 -37q-51 -29 -51 -87q0 -31 15 -49.5t44 -18.5
q58 0 107 80zM202 645q64 0 64 86h37q0 -65 -24.5 -106t-76.5 -41q-101 0 -101 147h36q0 -86 65 -86z" />
    <glyph glyph-name="Aogonek" unicode="&#x104;" horiz-adv-x="611" 
d="M5 0l278 768l60 11l263 -779q-102 -67 -102 -140q0 -38 32 -38t52 28h2l-5 -68q-25 -19 -63 -19t-60 22.5t-22 63.5q0 34 18.5 67t66.5 84l-89 272h-257l-93 -272h-81zM311 658l-111 -321h215z" />
    <glyph glyph-name="aogonek" unicode="&#x105;" horiz-adv-x="403" 
d="M74 374v73q53 50 128 50q69 0 104.5 -43t35.5 -123v-324q-51 -51 -70 -83t-19 -64q0 -37 32 -37q31 0 53 28h2l-5 -69q-26 -19 -64 -19t-59.5 22.5t-21.5 63.5q0 35 17.5 67.5t63.5 83.5v59q-65 -70 -135 -70q-49 0 -77.5 30t-28.5 84q0 95 84 142q66 37 157 51v35
q0 48 -20.5 74t-58.5 26q-68 0 -116 -57h-2zM271 133v112q-69 -10 -115 -37q-51 -29 -51 -87q0 -31 15 -49.5t44 -18.5q58 0 107 80z" />
    <glyph glyph-name="Cacute" unicode="&#x106;" horiz-adv-x="595" 
d="M548 719l-10 -94h-2q-65 82 -176 82q-102 0 -169 -93.5t-67 -227.5q0 -144 65 -232.5t168 -88.5q116 0 196 102h2l-10 -108q-81 -72 -194 -72q-136 0 -221.5 109.5t-85.5 290.5q0 166 88.5 282t223.5 116q114 0 192 -66zM445 955l-106 -131h-44l62 131h88z" />
    <glyph glyph-name="cacute" unicode="&#x107;" horiz-adv-x="406" 
d="M375 123l-12 -94q-52 -46 -126 -46q-92 0 -145.5 67.5t-53.5 184.5t57 192t157 75q71 0 116 -39l-12 -79q-41 46 -101 46q-67 0 -104 -53t-37 -142q0 -80 34.5 -130t97.5 -50q75 0 126 68h3zM335 738l-110 -161h-37l63 161h84z" />
    <glyph glyph-name="Ccircumflex" unicode="&#x108;" horiz-adv-x="595" 
d="M548 719l-10 -94h-2q-65 82 -176 82q-102 0 -169 -93.5t-67 -227.5q0 -144 65 -232.5t168 -88.5q116 0 196 102h2l-10 -108q-81 -72 -194 -72q-136 0 -221.5 109.5t-85.5 290.5q0 166 88.5 282t223.5 116q114 0 192 -66zM412 824l-72 75l-69 -75h-44l81 131h67l81 -131
h-44z" />
    <glyph glyph-name="ccircumflex" unicode="&#x109;" horiz-adv-x="406" 
d="M375 123l-12 -94q-52 -46 -126 -46q-92 0 -145.5 67.5t-53.5 184.5t57 192t157 75q71 0 116 -39l-12 -79q-41 46 -101 46q-67 0 -104 -53t-37 -142q0 -80 34.5 -130t97.5 -50q75 0 126 68h3zM297 577l-67 93l-67 -93h-41l84 161h48l84 -161h-41z" />
    <glyph glyph-name="Cdotaccent" unicode="&#x10a;" horiz-adv-x="595" 
d="M548 719l-10 -94h-2q-65 82 -176 82q-102 0 -169 -93.5t-67 -227.5q0 -144 65 -232.5t168 -88.5q116 0 196 102h2l-10 -108q-81 -72 -194 -72q-136 0 -221.5 109.5t-85.5 290.5q0 166 88.5 282t223.5 116q114 0 192 -66zM292 889q0 20 14 34t34 14t34.5 -14t14.5 -34
t-14.5 -34.5t-34.5 -14.5t-34 14.5t-14 34.5z" />
    <glyph glyph-name="cdotaccent" unicode="&#x10b;" horiz-adv-x="406" 
d="M375 123l-12 -94q-52 -46 -126 -46q-92 0 -145.5 67.5t-53.5 184.5t57 192t157 75q71 0 116 -39l-12 -79q-41 46 -101 46q-67 0 -104 -53t-37 -142q0 -80 34.5 -130t97.5 -50q75 0 126 68h3zM180 656q0 21 14.5 35.5t35.5 14.5t35.5 -15t14.5 -35q0 -21 -14.5 -36
t-35.5 -15t-35.5 15t-14.5 36z" />
    <glyph glyph-name="Ccaron" unicode="&#x10c;" horiz-adv-x="595" 
d="M548 719l-10 -94h-2q-65 82 -176 82q-102 0 -169 -93.5t-67 -227.5q0 -144 65 -232.5t168 -88.5q116 0 196 102h2l-10 -108q-81 -72 -194 -72q-136 0 -221.5 109.5t-85.5 290.5q0 166 88.5 282t223.5 116q114 0 192 -66zM226 955h44l71 -76l70 76h44l-81 -131h-67z" />
    <glyph glyph-name="ccaron" unicode="&#x10d;" horiz-adv-x="406" 
d="M375 123l-12 -94q-52 -46 -126 -46q-92 0 -145.5 67.5t-53.5 184.5t57 192t157 75q71 0 116 -39l-12 -79q-41 46 -101 46q-67 0 -104 -53t-37 -142q0 -80 34.5 -130t97.5 -50q75 0 126 68h3zM122 738h41l68 -94l66 94h41l-84 -161h-48z" />
    <glyph glyph-name="Dcaron" unicode="&#x10e;" horiz-adv-x="611" 
d="M226 0h-146v772h147q160 0 250 -103t90 -273q0 -190 -88 -293t-253 -103zM157 698v-624h71q126 0 192 83t66 239q0 132 -68 217t-188 85h-73zM149 955h44l71 -76l70 76h44l-81 -131h-67z" />
    <glyph glyph-name="dcaron" unicode="&#x10f;" horiz-adv-x="479" 
d="M342 -15l1 48q-53 -50 -123 -50q-84 0 -133 71t-49 177q0 119 59 195t145 76q52 0 95 -27v289l74 16v-773zM239 51q63 0 98 44v309q-31 31 -85 31q-60 0 -99 -56t-39 -146q0 -81 33.5 -131.5t91.5 -50.5zM518 781q11 -26 11 -61q0 -56 -57 -133h-33q31 77 31 127
q0 25 -10 50z" />
    <glyph glyph-name="Dcroat" unicode="&#x110;" horiz-adv-x="611" 
d="M226 0h-146v361h-53v66h53v345h147q160 0 250 -103t90 -273q0 -190 -88 -293t-253 -103zM157 698v-271h126v-66h-126v-287h71q126 0 192 83t66 239q0 132 -68 217t-188 85h-73z" />
    <glyph glyph-name="dcroat" unicode="&#x111;" horiz-adv-x="479" 
d="M342 -15l1 48q-53 -50 -123 -50q-84 0 -133 71t-49 177q0 119 59 195t145 76q52 0 95 -27v130h-129v54h129v105l74 16v-121h44v-54h-44v-598zM239 51q63 0 98 44v309q-31 31 -85 31q-60 0 -99 -56t-39 -146q0 -81 33.5 -131.5t91.5 -50.5z" />
    <glyph glyph-name="Emacron" unicode="&#x112;" horiz-adv-x="460" 
d="M157 700v-262h225v-70h-225v-296h262v-72h-339v772h334v-72h-257zM360 910v-60h-229v60h229z" />
    <glyph glyph-name="emacron" unicode="&#x113;" horiz-adv-x="411" 
d="M240 217q-54 -19 -135 -34q9 -60 40 -95.5t83 -35.5q80 0 132 76h2l-5 -88q-54 -57 -133 -57q-90 0 -138.5 67t-48.5 165q0 113 61.5 201t152.5 88q57 0 89.5 -36t32.5 -92q0 -114 -133 -159zM233 441q-53 0 -91 -64.5t-40 -144.5q68 14 118 34q78 31 78 100q0 35 -17 55
t-48 20zM334 685v-63h-216v63h216z" />
    <glyph glyph-name="Ebreve" unicode="&#x114;" horiz-adv-x="460" 
d="M157 700v-262h225v-70h-225v-296h262v-72h-339v772h334v-72h-257zM246 882q61 0 64 72h37q0 -55 -24.5 -92.5t-76.5 -37.5q-53 0 -77 37.5t-24 92.5h36q5 -72 65 -72z" />
    <glyph glyph-name="ebreve" unicode="&#x115;" horiz-adv-x="411" 
d="M240 217q-54 -19 -135 -34q9 -60 40 -95.5t83 -35.5q80 0 132 76h2l-5 -88q-54 -57 -133 -57q-90 0 -138.5 67t-48.5 165q0 113 61.5 201t152.5 88q57 0 89.5 -36t32.5 -92q0 -114 -133 -159zM233 441q-53 0 -91 -64.5t-40 -144.5q68 14 118 34q78 31 78 100q0 35 -17 55
t-48 20zM226 645q64 0 64 86h37q0 -65 -24.5 -106t-76.5 -41q-101 0 -101 147h36q0 -86 65 -86z" />
    <glyph glyph-name="Edotaccent" unicode="&#x116;" horiz-adv-x="460" 
d="M157 700v-262h225v-70h-225v-296h262v-72h-339v772h334v-72h-257zM197 889q0 20 14 34t34 14t34.5 -14t14.5 -34t-14.5 -34.5t-34.5 -14.5t-34 14.5t-14 34.5z" />
    <glyph glyph-name="edotaccent" unicode="&#x117;" horiz-adv-x="411" 
d="M240 217q-54 -19 -135 -34q9 -60 40 -95.5t83 -35.5q80 0 132 76h2l-5 -88q-54 -57 -133 -57q-90 0 -138.5 67t-48.5 165q0 113 61.5 201t152.5 88q57 0 89.5 -36t32.5 -92q0 -114 -133 -159zM233 441q-53 0 -91 -64.5t-40 -144.5q68 14 118 34q78 31 78 100q0 35 -17 55
t-48 20zM176 656q0 21 14.5 35.5t35.5 14.5t35.5 -15t14.5 -35q0 -21 -14.5 -36t-35.5 -15t-35.5 15t-14.5 36z" />
    <glyph glyph-name="Eogonek" unicode="&#x118;" horiz-adv-x="460" 
d="M346 0h-266v772h334v-72h-257v-262h225v-70h-225v-296h262v-72q-51 -46 -69 -77t-18 -63q0 -38 31 -38q32 0 52 28h2l-5 -68q-25 -19 -63 -19t-60 22.5t-22 63.5q0 35 17 67.5t62 83.5z" />
    <glyph glyph-name="eogonek" unicode="&#x119;" horiz-adv-x="411" 
d="M362 128l-5 -88q-59 -79 -76 -112.5t-17 -67.5q0 -37 32 -37q31 0 53 28h2l-5 -69q-26 -19 -64 -19t-59.5 22.5t-21.5 63.5q0 35 15.5 67t53.5 76q-22 -9 -46 -9q-90 0 -138.5 67t-48.5 165q0 113 61.5 201t152.5 88q57 0 89.5 -36t32.5 -92q0 -114 -133 -159
q-54 -19 -135 -34q9 -60 40 -95.5t83 -35.5q80 0 132 76h2zM233 441q-53 0 -91 -64.5t-40 -144.5q68 14 118 34q78 31 78 100q0 35 -17 55t-48 20z" />
    <glyph glyph-name="Ecaron" unicode="&#x11a;" horiz-adv-x="460" 
d="M157 700v-262h225v-70h-225v-296h262v-72h-339v772h334v-72h-257zM131 955h44l71 -76l70 76h44l-81 -131h-67z" />
    <glyph glyph-name="ecaron" unicode="&#x11b;" horiz-adv-x="411" 
d="M240 217q-54 -19 -135 -34q9 -60 40 -95.5t83 -35.5q80 0 132 76h2l-5 -88q-54 -57 -133 -57q-90 0 -138.5 67t-48.5 165q0 113 61.5 201t152.5 88q57 0 89.5 -36t32.5 -92q0 -114 -133 -159zM233 441q-53 0 -91 -64.5t-40 -144.5q68 14 118 34q78 31 78 100q0 35 -17 55
t-48 20zM119 738h41l68 -94l66 94h41l-84 -161h-48z" />
    <glyph glyph-name="Gcircumflex" unicode="&#x11c;" horiz-adv-x="621" 
d="M569 355v-264q-98 -104 -222 -104q-134 0 -218.5 109.5t-84.5 287.5q0 173 85 287t226 114q111 0 192 -68l-9 -94h-3q-70 85 -179 85q-105 0 -168.5 -91t-63.5 -233q0 -145 63.5 -232.5t164.5 -87.5q86 0 140 66v225h77zM411 824l-72 75l-69 -75h-44l81 131h67l81 -131
h-44z" />
    <glyph glyph-name="gcircumflex" unicode="&#x11d;" horiz-adv-x="427" 
d="M203 496q51 0 91 -29q42 66 103 66v-69q-39 0 -66 -33q33 -46 33 -100q0 -115 -118 -151q-19 -6 -50.5 -13t-40.5 -10q-36 -12 -36 -33t46 -34q18 -5 68 -14t65 -13q92 -24 92 -119q0 -76 -59 -128.5t-143 -52.5q-70 0 -111.5 43t-41.5 103q0 82 71 128q-64 27 -64 74
q0 49 85 85q-78 45 -78 133q0 70 44.5 118.5t109.5 48.5zM267 1q-14 4 -54 11t-62 12q-59 -38 -59 -100q0 -40 27.5 -68t73.5 -28q54 0 89 32t35 76q0 51 -50 65zM114 326q0 -68 58 -101q8 -5 17 -5t26 4q79 24 79 103q0 44 -25.5 75t-66.5 31q-39 0 -63.5 -29.5
t-24.5 -77.5zM277 577l-67 93l-67 -93h-41l84 161h48l84 -161h-41z" />
    <glyph glyph-name="Gbreve" unicode="&#x11e;" horiz-adv-x="621" 
d="M569 355v-264q-98 -104 -222 -104q-134 0 -218.5 109.5t-84.5 287.5q0 173 85 287t226 114q111 0 192 -68l-9 -94h-3q-70 85 -179 85q-105 0 -168.5 -91t-63.5 -233q0 -145 63.5 -232.5t164.5 -87.5q86 0 140 66v225h77zM341 882q61 0 64 72h37q0 -55 -24.5 -92.5
t-76.5 -37.5q-53 0 -77 37.5t-24 92.5h36q5 -72 65 -72z" />
    <glyph glyph-name="gbreve" unicode="&#x11f;" horiz-adv-x="427" 
d="M203 496q51 0 91 -29q42 66 103 66v-69q-39 0 -66 -33q33 -46 33 -100q0 -115 -118 -151q-19 -6 -50.5 -13t-40.5 -10q-36 -12 -36 -33t46 -34q18 -5 68 -14t65 -13q92 -24 92 -119q0 -76 -59 -128.5t-143 -52.5q-70 0 -111.5 43t-41.5 103q0 82 71 128q-64 27 -64 74
q0 49 85 85q-78 45 -78 133q0 70 44.5 118.5t109.5 48.5zM267 1q-14 4 -54 11t-62 12q-59 -38 -59 -100q0 -40 27.5 -68t73.5 -28q54 0 89 32t35 76q0 51 -50 65zM114 326q0 -68 58 -101q8 -5 17 -5t26 4q79 24 79 103q0 44 -25.5 75t-66.5 31q-39 0 -63.5 -29.5
t-24.5 -77.5zM210 645q64 0 64 86h37q0 -65 -24.5 -106t-76.5 -41q-101 0 -101 147h36q0 -86 65 -86z" />
    <glyph glyph-name="Gdotaccent" unicode="&#x120;" horiz-adv-x="621" 
d="M569 355v-264q-98 -104 -222 -104q-134 0 -218.5 109.5t-84.5 287.5q0 173 85 287t226 114q111 0 192 -68l-9 -94h-3q-70 85 -179 85q-105 0 -168.5 -91t-63.5 -233q0 -145 63.5 -232.5t164.5 -87.5q86 0 140 66v225h77zM291 889q0 20 14 34t34 14t34.5 -14t14.5 -34
t-14.5 -34.5t-34.5 -14.5t-34 14.5t-14 34.5z" />
    <glyph glyph-name="gdotaccent" unicode="&#x121;" horiz-adv-x="427" 
d="M203 496q51 0 91 -29q42 66 103 66v-69q-39 0 -66 -33q33 -46 33 -100q0 -115 -118 -151q-19 -6 -50.5 -13t-40.5 -10q-36 -12 -36 -33t46 -34q18 -5 68 -14t65 -13q92 -24 92 -119q0 -76 -59 -128.5t-143 -52.5q-70 0 -111.5 43t-41.5 103q0 82 71 128q-64 27 -64 74
q0 49 85 85q-78 45 -78 133q0 70 44.5 118.5t109.5 48.5zM267 1q-14 4 -54 11t-62 12q-59 -38 -59 -100q0 -40 27.5 -68t73.5 -28q54 0 89 32t35 76q0 51 -50 65zM114 326q0 -68 58 -101q8 -5 17 -5t26 4q79 24 79 103q0 44 -25.5 75t-66.5 31q-39 0 -63.5 -29.5
t-24.5 -77.5zM159 656q0 21 14.5 35.5t35.5 14.5t35.5 -15t14.5 -35q0 -21 -14.5 -36t-35.5 -15t-35.5 15t-14.5 36z" />
    <glyph glyph-name="Gcommaaccent" unicode="&#x122;" horiz-adv-x="621" 
d="M569 355v-264q-98 -104 -222 -104q-134 0 -218.5 109.5t-84.5 287.5q0 173 85 287t226 114q111 0 192 -68l-9 -94h-3q-70 85 -179 85q-105 0 -168.5 -91t-63.5 -233q0 -145 63.5 -232.5t164.5 -87.5q86 0 140 66v225h77zM377 -63q12 -27 12 -54q0 -54 -69 -120h-41
q49 70 49 117q0 18 -11 40z" />
    <glyph glyph-name="gcommaaccent" unicode="&#x123;" horiz-adv-x="427" 
d="M203 496q51 0 91 -29q42 66 103 66v-69q-39 0 -66 -33q33 -46 33 -100q0 -115 -118 -151q-19 -6 -50.5 -13t-40.5 -10q-36 -12 -36 -33t46 -34q18 -5 68 -14t65 -13q92 -24 92 -119q0 -76 -59 -128.5t-143 -52.5q-70 0 -111.5 43t-41.5 103q0 82 71 128q-64 27 -64 74
q0 49 85 85q-78 45 -78 133q0 70 44.5 118.5t109.5 48.5zM267 1q-14 4 -54 11t-62 12q-59 -38 -59 -100q0 -40 27.5 -68t73.5 -28q54 0 89 32t35 76q0 51 -50 65zM114 326q0 -68 58 -101q8 -5 17 -5t26 4q79 24 79 103q0 44 -25.5 75t-66.5 31q-39 0 -63.5 -29.5
t-24.5 -77.5zM166 572q-11 23 -11 54q0 51 68 120h42q-49 -69 -49 -117q0 -21 11 -40z" />
    <glyph glyph-name="Hcircumflex" unicode="&#x124;" horiz-adv-x="630" 
d="M157 0h-77v772h77v-334h317v334h76v-772h-76v364h-317v-364zM386 824l-72 75l-69 -75h-44l81 131h67l81 -131h-44z" />
    <glyph glyph-name="hcircumflex" unicode="&#x125;" horiz-adv-x="469" 
d="M68 0v764l74 16v-375q57 91 139 91q60 0 93.5 -42t33.5 -122v-332h-74v306q0 118 -78 118q-54 0 -93 -67q-21 -35 -21 -90v-267h-74zM291 824l-72 75l-69 -75h-44l81 131h67l81 -131h-44z" />
    <glyph glyph-name="Hbar" unicode="&#x126;" horiz-adv-x="633" 
d="M157 0h-77v588h-53v54h53v130h77v-130h317v130h76v-130h53v-54h-53v-588h-76v364h-317v-364zM157 438h317v150h-317v-150z" />
    <glyph glyph-name="hbar" unicode="&#x127;" horiz-adv-x="469" 
d="M68 0v605h-45v54h45v105l74 16v-121h129v-54h-129v-200q57 91 139 91q60 0 93.5 -42t33.5 -122v-332h-74v306q0 118 -78 118q-54 0 -93 -67q-21 -35 -21 -90v-267h-74z" />
    <glyph glyph-name="Itilde" unicode="&#x128;" horiz-adv-x="237" 
d="M157 0h-77v772h77v-772zM68 867q-17 0 -28.5 -15.5t-13.5 -38.5l-29 8q4 54 24 84.5t48 30.5q19 0 54.5 -17t49.5 -17q17 0 28 15t13 39l30 -8q-4 -54 -24 -84.5t-48 -30.5q-20 0 -55.5 17t-48.5 17z" />
    <glyph glyph-name="itilde" unicode="&#x129;" horiz-adv-x="210" 
d="M64 636q-16 0 -27.5 -16t-13.5 -41l-29 8q4 54 25 85t50 31q15 0 43 -18.5t38 -18.5q35 0 42 57l29 -8q-4 -54 -24.5 -85t-50.5 -31q-15 0 -43.5 18.5t-38.5 18.5zM68 477l74 17v-494h-74v477z" />
    <glyph glyph-name="Imacron" unicode="&#x12a;" horiz-adv-x="237" 
d="M157 0h-77v772h77v-772zM232 910v-60h-229v60h229z" />
    <glyph glyph-name="imacron" unicode="&#x12b;" horiz-adv-x="210" 
d="M68 477l74 17v-494h-74v477zM212 685v-63h-216v63h216z" />
    <glyph glyph-name="Ibreve" unicode="&#x12c;" horiz-adv-x="237" 
d="M157 0h-77v772h77v-772zM118 882q61 0 64 72h37q0 -55 -24.5 -92.5t-76.5 -37.5q-53 0 -77 37.5t-24 92.5h36q5 -72 65 -72z" />
    <glyph glyph-name="ibreve" unicode="&#x12d;" horiz-adv-x="210" 
d="M68 477l74 17v-494h-74v477zM105 645q64 0 64 86h37q0 -65 -24.5 -106t-76.5 -41q-101 0 -101 147h36q0 -86 65 -86z" />
    <glyph glyph-name="Iogonek" unicode="&#x12e;" horiz-adv-x="237" 
d="M157 0q-42 -47 -57.5 -78t-15.5 -62q0 -37 32 -37q31 0 52 28h2l-5 -69q-25 -19 -63 -19t-60 22.5t-22 63.5q0 34 13 67t47 84v772h77v-772z" />
    <glyph glyph-name="iogonek" unicode="&#x12f;" horiz-adv-x="209" 
d="M68 477l73 17v-494q-38 -47 -52 -77.5t-14 -62.5q0 -37 32 -37q30 0 52 28h2l-5 -69q-25 -19 -64 -19q-38 0 -59.5 22.5t-21.5 63.5q0 34 12.5 67t44.5 84v477zM55 667q0 21 14 35.5t36 14.5q21 0 35 -14.5t14 -35.5t-14 -35t-35 -14q-22 0 -36 14t-14 35z" />
    <glyph glyph-name="Idotaccent" unicode="&#x130;" horiz-adv-x="237" 
d="M157 0h-77v772h77v-772zM69 889q0 20 14 34t34 14t34.5 -14t14.5 -34t-14.5 -34.5t-34.5 -14.5t-34 14.5t-14 34.5z" />
    <glyph glyph-name="dotlessi" unicode="&#x131;" horiz-adv-x="210" 
d="M68 477l74 17v-494h-74v477z" />
    <glyph glyph-name="IJ" unicode="&#x132;" horiz-adv-x="447" 
d="M157 0h-77v772h77v-772zM292 772h76v-640q0 -131 -15 -207.5t-50 -125.5l-114 -36l-3 8q60 53 83 126.5t23 223.5v651z" />
    <glyph glyph-name="ij" unicode="&#x133;" horiz-adv-x="383" 
d="M68 477l73 17v-494h-73v477zM55 667q0 21 14 35.5t36 14.5q21 0 35 -14.5t14 -35.5t-14 -35t-35 -14q-22 0 -36 14t-14 35zM242 477l74 17v-512q0 -131 -41 -187l-103 -32l-5 11q40 33 57.5 80t17.5 128v495zM229 667q0 21 14 35.5t35 14.5t35 -14.5t14 -35.5t-14 -35
t-35 -14t-35 14t-14 35z" />
    <glyph glyph-name="Jcircumflex" unicode="&#x134;" horiz-adv-x="237" 
d="M81 772h76v-640q0 -131 -15 -207.5t-50 -125.5l-114 -36l-3 8q60 53 83 126.5t23 223.5v651zM191 824l-72 75l-69 -75h-44l81 131h67l81 -131h-44z" />
    <glyph glyph-name="jcircumflex" unicode="&#x135;" horiz-adv-x="205" 
d="M68 477l74 17v-512q0 -131 -41 -187l-103 -32l-5 11q40 33 57.5 80t17.5 128v495zM171 577l-67 93l-67 -93h-41l84 161h48l84 -161h-41z" />
    <glyph glyph-name="Kcommaaccent" unicode="&#x136;" horiz-adv-x="567" 
d="M157 0h-77v772h77v-365l287 365h94l-302 -378l326 -394h-97l-308 379v-379zM325 -63q12 -27 12 -54q0 -54 -69 -120h-41q49 70 49 117q0 18 -11 40z" />
    <glyph glyph-name="kcommaaccent" unicode="&#x137;" horiz-adv-x="437" 
d="M142 780v-507l173 212h92l-189 -219l238 -266h-98l-216 253v-253h-74v763zM261 -63q12 -27 12 -54q0 -54 -69 -120h-41q49 70 49 117q0 18 -11 40z" />
    <glyph glyph-name="kgreenlandic" unicode="&#x138;" horiz-adv-x="437" 
d="M142 485v-212l173 212h92l-189 -219l238 -266h-98l-216 253v-253h-74v485h74z" />
    <glyph glyph-name="Lacute" unicode="&#x139;" horiz-adv-x="483" 
d="M80 0v772h77v-698h311v-74h-388zM244 955l-106 -131h-44l62 131h88z" />
    <glyph glyph-name="lacute" unicode="&#x13a;" horiz-adv-x="210" 
d="M142 780v-780h-74v763zM207 955l-106 -131h-44l62 131h88z" />
    <glyph glyph-name="Lcommaaccent" unicode="&#x13b;" horiz-adv-x="483" 
d="M80 0v772h77v-698h311v-74h-388zM303 -63q12 -27 12 -54q0 -54 -69 -120h-41q49 70 49 117q0 18 -11 40z" />
    <glyph glyph-name="lcommaaccent" unicode="&#x13c;" horiz-adv-x="210" 
d="M142 780v-780h-74v763zM133 -63q12 -27 12 -54q0 -54 -69 -120h-41q49 70 49 117q0 18 -11 40z" />
    <glyph glyph-name="Lcaron" unicode="&#x13d;" horiz-adv-x="483" 
d="M80 0v772h77v-698h311v-74h-388zM292 781q11 -26 11 -61q0 -56 -57 -133h-33q31 77 31 127q0 25 -10 50z" />
    <glyph glyph-name="lcaron" unicode="&#x13e;" horiz-adv-x="210" 
d="M142 780v-780h-74v763zM249 781q11 -26 11 -61q0 -56 -57 -133h-33q31 77 31 127q0 25 -10 50z" />
    <glyph glyph-name="Ldot" unicode="&#x13f;" horiz-adv-x="483" 
d="M80 0v772h77v-698h311v-74h-388zM310 469q0 20 14 34t34 14t34.5 -14t14.5 -34t-14.5 -34.5t-34.5 -14.5t-34 14.5t-14 34.5z" />
    <glyph glyph-name="ldot" unicode="&#x140;" horiz-adv-x="298" 
d="M142 780v-780h-74v763zM201 387q0 21 14.5 35.5t35.5 14.5t35.5 -15t14.5 -35q0 -21 -14.5 -36t-35.5 -15t-35.5 15t-14.5 36z" />
    <glyph glyph-name="Lslash" unicode="&#x141;" horiz-adv-x="483" 
d="M80 0v334l-53 -42v73l53 42v365h77v-310l118 93v-73l-118 -93v-315h311v-74h-388z" />
    <glyph glyph-name="lslash" unicode="&#x142;" horiz-adv-x="228" 
d="M152 780v-317l53 42v-73l-53 -41v-391h-74v334l-55 -42v70l55 43v358z" />
    <glyph glyph-name="Nacute" unicode="&#x143;" horiz-adv-x="701" 
d="M546 772h75v-772h-67l-399 630v-630h-75v772h68l398 -628v628zM453 955l-106 -131h-44l62 131h88z" />
    <glyph glyph-name="nacute" unicode="&#x144;" horiz-adv-x="469" 
d="M68 0v485h74v-80q58 91 139 91q60 0 93.5 -42t33.5 -122v-332h-74v306q0 118 -78 118q-55 0 -93 -67q-21 -37 -21 -90v-267h-74zM340 738l-110 -161h-37l63 161h84z" />
    <glyph glyph-name="Ncommaaccent" unicode="&#x145;" horiz-adv-x="701" 
d="M546 772h75v-772h-67l-399 630v-630h-75v772h68l398 -628v628zM379 -63q12 -27 12 -54q0 -54 -69 -120h-41q49 70 49 117q0 18 -11 40z" />
    <glyph glyph-name="ncommaaccent" unicode="&#x146;" horiz-adv-x="469" 
d="M68 0v485h74v-80q58 91 139 91q60 0 93.5 -42t33.5 -122v-332h-74v306q0 118 -78 118q-55 0 -93 -67q-21 -37 -21 -90v-267h-74zM267 -63q12 -27 12 -54q0 -54 -69 -120h-41q49 70 49 117q0 18 -11 40z" />
    <glyph glyph-name="Ncaron" unicode="&#x147;" horiz-adv-x="701" 
d="M546 772h75v-772h-67l-399 630v-630h-75v772h68l398 -628v628zM235 955h44l71 -76l70 76h44l-81 -131h-67z" />
    <glyph glyph-name="ncaron" unicode="&#x148;" horiz-adv-x="469" 
d="M68 0v485h74v-80q58 91 139 91q60 0 93.5 -42t33.5 -122v-332h-74v306q0 118 -78 118q-55 0 -93 -67q-21 -37 -21 -90v-267h-74zM128 738h41l68 -94l66 94h41l-84 -161h-48z" />
    <glyph glyph-name="napostrophe" unicode="&#x149;" horiz-adv-x="469" 
d="M68 0v485h74v-80q58 91 139 91q60 0 93.5 -42t33.5 -122v-332h-74v306q0 118 -78 118q-55 0 -93 -67q-21 -37 -21 -90v-267h-74zM99 781q11 -26 11 -61q0 -56 -57 -133h-33q31 77 31 127q0 25 -10 50z" />
    <glyph glyph-name="Eng" unicode="&#x14a;" horiz-adv-x="701" 
d="M621 772v-820q0 -88 -37 -138.5t-101 -50.5q-39 0 -72 14l-8 79q26 -18 68 -18q34 0 53.5 32t19.5 92v54l-389 614v-630h-75v772h68l398 -628v628h75z" />
    <glyph glyph-name="eng" unicode="&#x14b;" horiz-adv-x="469" 
d="M68 0v485h74v-80q58 91 139 91q60 0 93.5 -42t33.5 -122v-394q0 -82 -32.5 -128.5t-92.5 -46.5q-31 0 -50 10l-8 69q19 -15 47 -15t45 29t17 83v367q0 118 -78 118q-55 0 -93 -67q-21 -35 -21 -90v-267h-74z" />
    <glyph glyph-name="Omacron" unicode="&#x14c;" horiz-adv-x="682" 
d="M558 386q0 141 -61.5 232.5t-155.5 91.5q-95 0 -156 -91.5t-61 -232.5t61.5 -232.5t155.5 -91.5q95 0 156 91.5t61 232.5zM638 386q0 -175 -83.5 -288t-213.5 -113t-213.5 113t-83.5 288t83.5 288t213.5 113t213.5 -113t83.5 -288zM455 910v-60h-229v60h229z" />
    <glyph glyph-name="omacron" unicode="&#x14d;" horiz-adv-x="467" 
d="M234 51q55 0 87.5 51.5t32.5 142.5q0 87 -33 139t-87 52q-55 0 -87.5 -53t-32.5 -138q0 -87 32 -140.5t88 -53.5zM234 -17q-87 0 -141.5 70t-54.5 192q0 119 55 188.5t141 69.5t140.5 -67t54.5 -191q0 -126 -56 -194t-139 -68zM342 685v-63h-216v63h216z" />
    <glyph glyph-name="Obreve" unicode="&#x14e;" horiz-adv-x="682" 
d="M558 386q0 141 -61.5 232.5t-155.5 91.5q-95 0 -156 -91.5t-61 -232.5t61.5 -232.5t155.5 -91.5q95 0 156 91.5t61 232.5zM638 386q0 -175 -83.5 -288t-213.5 -113t-213.5 113t-83.5 288t83.5 288t213.5 113t213.5 -113t83.5 -288zM341 882q61 0 64 72h37
q0 -55 -24.5 -92.5t-76.5 -37.5q-53 0 -77 37.5t-24 92.5h36q5 -72 65 -72z" />
    <glyph glyph-name="obreve" unicode="&#x14f;" horiz-adv-x="467" 
d="M234 51q55 0 87.5 51.5t32.5 142.5q0 87 -33 139t-87 52q-55 0 -87.5 -53t-32.5 -138q0 -87 32 -140.5t88 -53.5zM234 -17q-87 0 -141.5 70t-54.5 192q0 119 55 188.5t141 69.5t140.5 -67t54.5 -191q0 -126 -56 -194t-139 -68zM235 645q64 0 64 86h37q0 -65 -24.5 -106
t-76.5 -41q-101 0 -101 147h36q0 -86 65 -86z" />
    <glyph glyph-name="Ohungarumlaut" unicode="&#x150;" horiz-adv-x="682" 
d="M558 386q0 141 -61.5 232.5t-155.5 91.5q-95 0 -156 -91.5t-61 -232.5t61.5 -232.5t155.5 -91.5q95 0 156 91.5t61 232.5zM638 386q0 -175 -83.5 -288t-213.5 -113t-213.5 113t-83.5 288t83.5 288t213.5 113t213.5 -113t83.5 -288zM316 955h81l-99 -131h-42zM424 955h81
l-99 -131h-41z" />
    <glyph glyph-name="ohungarumlaut" unicode="&#x151;" horiz-adv-x="467" 
d="M234 51q55 0 87.5 51.5t32.5 142.5q0 87 -33 139t-87 52q-55 0 -87.5 -53t-32.5 -138q0 -87 32 -140.5t88 -53.5zM234 -17q-87 0 -141.5 70t-54.5 192q0 119 55 188.5t141 69.5t140.5 -67t54.5 -191q0 -126 -56 -194t-139 -68zM202 738h79l-93 -161h-36zM309 738h80
l-94 -161h-35z" />
    <glyph glyph-name="OE" unicode="&#x152;" horiz-adv-x="785" 
d="M481 700v-262h225v-69h-225v-297h262v-72h-396q-130 0 -216.5 109t-86.5 277t86.5 277t216.5 109h391v-72h-257zM124 386q0 -136 64.5 -225t159.5 -89h56v628h-56q-96 0 -160 -88.5t-64 -225.5z" />
    <glyph glyph-name="oe" unicode="&#x153;" horiz-adv-x="698" 
d="M221 502q51 0 90.5 -32t60.5 -91q27 57 70 91t95 34q57 0 89.5 -36t32.5 -92q0 -116 -127 -159q-61 -21 -136 -36q9 -59 39 -94t80 -35q78 0 131 74h2l-4 -86q-55 -57 -134 -57q-103 0 -148 101q-48 -101 -141 -101q-81 0 -132 71.5t-51 193.5q0 115 52 184.5t131 69.5z
M221 51q50 0 79 52.5t29 145.5q0 78 -30 132t-78 54q-47 0 -77 -52t-30 -135q0 -88 28 -142.5t79 -54.5zM393 236v-4q71 15 119 34q72 29 72 100q0 36 -17 55.5t-48 19.5q-50 0 -87 -63.5t-39 -141.5z" />
    <glyph glyph-name="Racute" unicode="&#x154;" horiz-adv-x="534" 
d="M78 0v772h161q101 0 157.5 -55t56.5 -155q0 -166 -153 -216l228 -346h-91l-214 331q-16 -2 -49 -2h-20v-329h-76zM154 701v-312h16q101 0 151.5 40.5t50.5 126.5q0 70 -36.5 107.5t-105.5 37.5h-76zM346 955l-106 -131h-44l62 131h88z" />
    <glyph glyph-name="racute" unicode="&#x155;" horiz-adv-x="302" 
d="M292 490v-80h-10q-64 0 -108 -42q-17 -17 -24.5 -36t-7.5 -57v-275h-74v485h74v-83q51 89 132 89q12 0 18 -1zM280 738l-110 -161h-37l63 161h84z" />
    <glyph glyph-name="Rcommaaccent" unicode="&#x156;" horiz-adv-x="534" 
d="M78 0v772h161q101 0 157.5 -55t56.5 -155q0 -166 -153 -216l228 -346h-91l-214 331q-16 -2 -49 -2h-20v-329h-76zM154 701v-312h16q101 0 151.5 40.5t50.5 126.5q0 70 -36.5 107.5t-105.5 37.5h-76zM302 -63q12 -27 12 -54q0 -54 -69 -120h-41q49 70 49 117q0 18 -11 40z
" />
    <glyph glyph-name="rcommaaccent" unicode="&#x157;" horiz-adv-x="302" 
d="M292 490v-80h-10q-64 0 -108 -42q-17 -17 -24.5 -36t-7.5 -57v-275h-74v485h74v-83q51 89 132 89q12 0 18 -1zM134 -63q12 -27 12 -54q0 -54 -69 -120h-41q49 70 49 117q0 18 -11 40z" />
    <glyph glyph-name="Rcaron" unicode="&#x158;" horiz-adv-x="534" 
d="M78 0v772h161q101 0 157.5 -55t56.5 -155q0 -166 -153 -216l228 -346h-91l-214 331q-16 -2 -49 -2h-20v-329h-76zM154 701v-312h16q101 0 151.5 40.5t50.5 126.5q0 70 -36.5 107.5t-105.5 37.5h-76zM127 955h44l71 -76l70 76h44l-81 -131h-67z" />
    <glyph glyph-name="rcaron" unicode="&#x159;" horiz-adv-x="302" 
d="M292 490v-80h-10q-64 0 -108 -42q-17 -17 -24.5 -36t-7.5 -57v-275h-74v485h74v-83q51 89 132 89q12 0 18 -1zM67 738h41l68 -94l66 94h41l-84 -161h-48z" />
    <glyph glyph-name="Sacute" unicode="&#x15a;" horiz-adv-x="449" 
d="M53 136q73 -77 156 -77q55 0 87 34.5t32 91.5q0 58 -27.5 100.5t-98.5 88.5q-83 55 -115.5 103t-32.5 127q0 78 48 130.5t124 52.5q70 0 137 -38v-98q-70 63 -133 63q-47 0 -72.5 -30t-25.5 -79q0 -54 25.5 -89.5t99.5 -82.5q81 -53 116 -108t35 -132q0 -96 -56.5 -152.5
t-149.5 -56.5q-87 0 -143 47l-8 105h2zM328 955l-106 -131h-44l62 131h88z" />
    <glyph glyph-name="sacute" unicode="&#x15b;" horiz-adv-x="354" 
d="M40 31l5 85q51 -67 128 -67q36 0 54.5 19t18.5 53q0 41 -33 63q-17 12 -53 29t-49 25q-38 23 -53.5 53t-15.5 77q0 58 35 96t94 38q71 0 129 -45l-18 -79q-21 28 -51 43t-57 15q-30 0 -45.5 -18t-15.5 -45q0 -45 35 -67q13 -8 48 -25t48 -24q73 -44 73 -134
q0 -64 -38.5 -102t-105.5 -38q-80 0 -133 48zM295 738l-110 -161h-37l63 161h84z" />
    <glyph glyph-name="Scircumflex" unicode="&#x15c;" horiz-adv-x="449" 
d="M53 136q73 -77 156 -77q55 0 87 34.5t32 91.5q0 58 -27.5 100.5t-98.5 88.5q-83 55 -115.5 103t-32.5 127q0 78 48 130.5t124 52.5q70 0 137 -38v-98q-70 63 -133 63q-47 0 -72.5 -30t-25.5 -79q0 -54 25.5 -89.5t99.5 -82.5q81 -53 116 -108t35 -132q0 -96 -56.5 -152.5
t-149.5 -56.5q-87 0 -143 47l-8 105h2zM296 824l-72 75l-69 -75h-44l81 131h67l81 -131h-44z" />
    <glyph glyph-name="scircumflex" unicode="&#x15d;" horiz-adv-x="354" 
d="M40 31l5 85q51 -67 128 -67q36 0 54.5 19t18.5 53q0 41 -33 63q-17 12 -53 29t-49 25q-38 23 -53.5 53t-15.5 77q0 58 35 96t94 38q71 0 129 -45l-18 -79q-21 28 -51 43t-57 15q-30 0 -45.5 -18t-15.5 -45q0 -45 35 -67q13 -8 48 -25t48 -24q73 -44 73 -134
q0 -64 -38.5 -102t-105.5 -38q-80 0 -133 48zM257 577l-67 93l-67 -93h-41l84 161h48l84 -161h-41z" />
    <glyph glyph-name="Scedilla" unicode="&#x15e;" horiz-adv-x="449" 
d="M53 136q73 -77 156 -77q55 0 87 34.5t32 91.5q0 58 -27.5 100.5t-98.5 88.5q-83 55 -115.5 103t-32.5 127q0 78 48 130.5t124 52.5q70 0 137 -38v-98q-70 63 -133 63q-47 0 -72.5 -30t-25.5 -79q0 -54 25.5 -89.5t99.5 -82.5q81 -53 116 -108t35 -132q0 -89 -49.5 -144
t-131.5 -63l-18 -45q7 3 18 3q31 0 50 -20.5t19 -54.5q0 -39 -25.5 -64.5t-65.5 -25.5q-43 0 -66 24l4 50q19 -29 57 -29q21 0 31.5 12t10.5 30q0 40 -44 40q-22 0 -35 -6l-2 2l31 82q-82 3 -133 47l-8 105h2z" />
    <glyph glyph-name="scedilla" unicode="&#x15f;" horiz-adv-x="354" 
d="M40 31l5 85q51 -67 128 -67q36 0 54.5 19t18.5 53q0 41 -33 63q-17 12 -53 29t-49 25q-38 23 -53.5 53t-15.5 77q0 58 35 96t94 38q71 0 129 -45l-18 -79q-21 28 -51 43t-57 15q-30 0 -45.5 -18t-15.5 -45q0 -45 35 -67q13 -8 48 -25t48 -24q73 -44 73 -134
q0 -58 -32 -95t-89 -44l-18 -43q8 3 18 3q31 0 50 -20.5t19 -54.5q0 -39 -25.5 -64.5t-65.5 -25.5q-44 0 -66 24l4 50q19 -29 57 -29q21 0 31.5 12t10.5 30q0 40 -44 40q-21 0 -35 -6l-2 2l31 81q-72 4 -121 48z" />
    <glyph glyph-name="Scaron" unicode="&#x160;" horiz-adv-x="449" 
d="M53 136q73 -77 156 -77q55 0 87 34.5t32 91.5q0 58 -27.5 100.5t-98.5 88.5q-83 55 -115.5 103t-32.5 127q0 78 48 130.5t124 52.5q70 0 137 -38v-98q-70 63 -133 63q-47 0 -72.5 -30t-25.5 -79q0 -54 25.5 -89.5t99.5 -82.5q81 -53 116 -108t35 -132q0 -96 -56.5 -152.5
t-149.5 -56.5q-87 0 -143 47l-8 105h2zM110 955h44l71 -76l70 76h44l-81 -131h-67z" />
    <glyph glyph-name="scaron" unicode="&#x161;" horiz-adv-x="354" 
d="M40 31l5 85q51 -67 128 -67q36 0 54.5 19t18.5 53q0 41 -33 63q-17 12 -53 29t-49 25q-38 23 -53.5 53t-15.5 77q0 58 35 96t94 38q71 0 129 -45l-18 -79q-21 28 -51 43t-57 15q-30 0 -45.5 -18t-15.5 -45q0 -45 35 -67q13 -8 48 -25t48 -24q73 -44 73 -134
q0 -64 -38.5 -102t-105.5 -38q-80 0 -133 48zM82 738h41l68 -94l66 94h41l-84 -161h-48z" />
    <glyph glyph-name="uni0162" unicode="&#x162;" horiz-adv-x="526" 
d="M301 0h-76v698h-214v74h505v-74h-215v-698zM293 -63q12 -27 12 -54q0 -54 -69 -120h-41q49 70 49 117q0 18 -11 40z" />
    <glyph glyph-name="uni0163" unicode="&#x163;" horiz-adv-x="289" 
d="M12 485h74v151l74 17v-168h115v-64h-115v-257q0 -68 12.5 -97.5t52.5 -57.5v-7l-82 -11q-30 18 -43.5 54.5t-13.5 111.5v264h-74v64zM182 -63q12 -27 12 -54q0 -54 -69 -120h-41q49 70 49 117q0 18 -11 40z" />
    <glyph glyph-name="Tcaron" unicode="&#x164;" horiz-adv-x="526" 
d="M301 0h-76v698h-214v74h505v-74h-215v-698zM148 955h44l71 -76l70 76h44l-81 -131h-67z" />
    <glyph glyph-name="tcaron" unicode="&#x165;" horiz-adv-x="289" 
d="M12 485h74v151l74 17v-168h115v-64h-115v-257q0 -68 12.5 -97.5t52.5 -57.5v-7l-82 -11q-30 18 -43.5 54.5t-13.5 111.5v264h-74v64zM288 781q11 -26 11 -61q0 -56 -57 -133h-33q31 77 31 127q0 25 -10 50z" />
    <glyph glyph-name="Tbar" unicode="&#x166;" horiz-adv-x="526" 
d="M301 0h-76v432h-90v65h90v201h-214v74h505v-74h-215v-201h90v-65h-90v-432z" />
    <glyph glyph-name="tbar" unicode="&#x167;" horiz-adv-x="289" 
d="M12 485h74v151l74 17v-168h115v-64h-115v-144h105v-55h-105v-58q0 -68 12.5 -97.5t52.5 -57.5v-7l-82 -11q-30 18 -43.5 54.5t-13.5 111.5v65h-63v55h63v144h-74v64z" />
    <glyph glyph-name="Utilde" unicode="&#x168;" horiz-adv-x="610" 
d="M75 772h77v-487q0 -110 43 -166t110 -56t110 56t43 166v487h77v-488q0 -149 -63.5 -223.5t-166.5 -74.5t-166.5 73.5t-63.5 221.5v491zM256 867q-17 0 -28.5 -15.5t-13.5 -38.5l-29 8q4 54 24 84.5t48 30.5q19 0 54.5 -17t49.5 -17q17 0 28 15t13 39l30 -8
q-4 -54 -24 -84.5t-48 -30.5q-20 0 -55.5 17t-48.5 17z" />
    <glyph glyph-name="utilde" unicode="&#x169;" horiz-adv-x="466" 
d="M61 485h74v-312q0 -110 78 -110q29 0 56 22.5t45 60.5q10 20 10 55v284h74v-478l-74 -18v90q-55 -90 -137 -90q-126 0 -126 169v327zM184 642q-17 0 -28 -16t-14 -41l-29 8q4 54 25 85t50 31q18 0 51.5 -18.5t45.5 -18.5q35 0 42 57l29 -8q-4 -54 -24.5 -85t-50.5 -31
q-18 0 -51.5 18.5t-45.5 18.5z" />
    <glyph glyph-name="Umacron" unicode="&#x16a;" horiz-adv-x="610" 
d="M75 772h77v-487q0 -110 43 -166t110 -56t110 56t43 166v487h77v-488q0 -149 -63.5 -223.5t-166.5 -74.5t-166.5 73.5t-63.5 221.5v491zM420 910v-60h-229v60h229z" />
    <glyph glyph-name="umacron" unicode="&#x16b;" horiz-adv-x="466" 
d="M61 485h74v-312q0 -110 78 -110q29 0 56 22.5t45 60.5q10 20 10 55v284h74v-478l-74 -18v90q-55 -90 -137 -90q-126 0 -126 169v327zM338 685v-63h-216v63h216z" />
    <glyph glyph-name="Ubreve" unicode="&#x16c;" horiz-adv-x="610" 
d="M75 772h77v-487q0 -110 43 -166t110 -56t110 56t43 166v487h77v-488q0 -149 -63.5 -223.5t-166.5 -74.5t-166.5 73.5t-63.5 221.5v491zM306 882q61 0 64 72h37q0 -55 -24.5 -92.5t-76.5 -37.5q-53 0 -77 37.5t-24 92.5h36q5 -72 65 -72z" />
    <glyph glyph-name="ubreve" unicode="&#x16d;" horiz-adv-x="466" 
d="M61 485h74v-312q0 -110 78 -110q29 0 56 22.5t45 60.5q10 20 10 55v284h74v-478l-74 -18v90q-55 -90 -137 -90q-126 0 -126 169v327zM230 645q64 0 64 86h37q0 -65 -24.5 -106t-76.5 -41q-101 0 -101 147h36q0 -86 65 -86z" />
    <glyph glyph-name="Uring" unicode="&#x16e;" horiz-adv-x="610" 
d="M75 772h77v-487q0 -110 43 -166t110 -56t110 56t43 166v487h77v-488q0 -149 -63.5 -223.5t-166.5 -74.5t-166.5 73.5t-63.5 221.5v491zM207 904q0 40 29 69t69 29q41 0 70 -29t29 -69t-29.5 -69t-69.5 -29t-69 29t-29 69zM245 904q0 -25 17.5 -42.5t42.5 -17.5t43 17.5
t18 42.5t-18 43t-43 18t-42.5 -18t-17.5 -43z" />
    <glyph glyph-name="uring" unicode="&#x16f;" horiz-adv-x="466" 
d="M61 485h74v-312q0 -110 78 -110q29 0 56 22.5t45 60.5q10 20 10 55v284h74v-478l-74 -18v90q-55 -90 -137 -90q-126 0 -126 169v327zM130 663q0 41 29.5 70.5t70.5 29.5t70 -29.5t29 -70.5t-29.5 -70t-69.5 -29q-41 0 -70.5 29.5t-29.5 69.5zM172 663q0 -24 17 -41
t41 -17t41 17t17 41t-17 41t-41 17t-41 -17t-17 -41z" />
    <glyph glyph-name="Uhungarumlaut" unicode="&#x170;" horiz-adv-x="610" 
d="M75 772h77v-487q0 -110 43 -166t110 -56t110 56t43 166v487h77v-488q0 -149 -63.5 -223.5t-166.5 -74.5t-166.5 73.5t-63.5 221.5v491zM279 955h81l-99 -131h-42zM387 955h81l-99 -131h-41z" />
    <glyph glyph-name="uhungarumlaut" unicode="&#x171;" horiz-adv-x="466" 
d="M61 485h74v-312q0 -110 78 -110q29 0 56 22.5t45 60.5q10 20 10 55v284h74v-478l-74 -18v90q-55 -90 -137 -90q-126 0 -126 169v327zM198 738h79l-93 -161h-36zM305 738h80l-94 -161h-35z" />
    <glyph glyph-name="Uogonek" unicode="&#x172;" horiz-adv-x="610" 
d="M445 -218q-26 -19 -64 -19t-59.5 22.5t-21.5 63.5q0 35 15.5 68t56.5 80q-31 -11 -67 -11q-103 0 -166.5 73.5t-63.5 221.5v491h77v-487q0 -110 43 -166t110 -56t110 56t43 166v487h77v-488q0 -150 -73 -238q-61 -74 -79.5 -110t-18.5 -76q0 -37 31 -37t53 28h2z" />
    <glyph glyph-name="uogonek" unicode="&#x173;" horiz-adv-x="466" 
d="M324 0v79q-55 -90 -137 -90q-126 0 -126 169v327h74v-312q0 -110 78 -110q29 0 56 22.5t45 60.5q10 20 10 55v284h74v-478h-1v-7q-51 -46 -69 -77t-18 -63q0 -38 31 -38q32 0 52 28h2l-5 -68q-25 -19 -63 -19t-60 22.5t-22 63.5q0 35 17 67.5t62 83.5z" />
    <glyph glyph-name="Wcircumflex" unicode="&#x174;" horiz-adv-x="887" 
d="M567 0l-127 404l-130 -404h-59l-246 772h84l194 -644l124 382l-82 262h84l188 -641l201 641h84l-256 -772h-59zM496 824l-72 75l-69 -75h-44l81 131h67l81 -131h-44z" />
    <glyph glyph-name="wcircumflex" unicode="&#x175;" horiz-adv-x="628" 
d="M280 485h66l80 -383l119 383h74l-164 -485h-69l-77 347l-94 -347h-69l-140 485h73l101 -385zM381 577l-67 93l-67 -93h-41l84 161h48l84 -161h-41z" />
    <glyph glyph-name="Ycircumflex" unicode="&#x176;" horiz-adv-x="561" 
d="M313 0h-77v353l-235 419h89l185 -344l195 344h90l-247 -417v-355zM351 824l-72 75l-69 -75h-44l81 131h67l81 -131h-44z" />
    <glyph glyph-name="ycircumflex" unicode="&#x177;" horiz-adv-x="398" 
d="M41 -234q69 97 119 237l-154 482h78l109 -383l124 383h75l-169 -498q-50 -147 -95 -224h-87v3zM263 577l-67 93l-67 -93h-41l84 161h48l84 -161h-41z" />
    <glyph glyph-name="Ydieresis" unicode="&#x178;" horiz-adv-x="561" 
d="M313 0h-77v353l-235 419h89l185 -344l195 344h90l-247 -417v-355zM151 889q0 19 13.5 33t32.5 14t33 -14t14 -33t-14 -32.5t-33 -13.5t-32.5 13.5t-13.5 32.5zM316 889q0 19 13.5 33t32.5 14t33 -14t14 -33t-14 -32.5t-33 -13.5t-32.5 13.5t-13.5 32.5z" />
    <glyph glyph-name="Zacute" unicode="&#x179;" horiz-adv-x="577" 
d="M528 0h-528l424 698h-363l8 74h488l-425 -698h410zM386 955l-106 -131h-44l62 131h88z" />
    <glyph glyph-name="zacute" unicode="&#x17a;" horiz-adv-x="417" 
d="M377 0h-364l265 415h-232l7 70h345l-266 -414h257zM315 738l-110 -161h-37l63 161h84z" />
    <glyph glyph-name="Zdotaccent" unicode="&#x17b;" horiz-adv-x="577" 
d="M528 0h-528l424 698h-363l8 74h488l-425 -698h410zM234 889q0 20 14 34t34 14t34.5 -14t14.5 -34t-14.5 -34.5t-34.5 -14.5t-34 14.5t-14 34.5z" />
    <glyph glyph-name="zdotaccent" unicode="&#x17c;" horiz-adv-x="417" 
d="M377 0h-364l265 415h-232l7 70h345l-266 -414h257zM159 656q0 21 14.5 35.5t35.5 14.5t35.5 -15t14.5 -35q0 -21 -14.5 -36t-35.5 -15t-35.5 15t-14.5 36z" />
    <glyph glyph-name="Zcaron" unicode="&#x17d;" horiz-adv-x="577" 
d="M528 0h-528l424 698h-363l8 74h488l-425 -698h410zM168 955h44l71 -76l70 76h44l-81 -131h-67z" />
    <glyph glyph-name="zcaron" unicode="&#x17e;" horiz-adv-x="417" 
d="M377 0h-364l265 415h-232l7 70h345l-266 -414h257zM102 738h41l68 -94l66 94h41l-84 -161h-48z" />
    <glyph glyph-name="florin" unicode="&#x192;" 
d="M34 -15q17 -20 53 -20q33 0 51 40.5t30 142.5l31 263h-83v68h94l10 79q14 112 49.5 163t95.5 51q43 0 70 -24l-11 -73q-21 25 -52 25q-35 0 -52.5 -36t-28.5 -124l-8 -61h108v-68h-118l-34 -278q-15 -127 -51 -183.5t-93 -56.5q-35 0 -54 16z" />
    <glyph glyph-name="uni0218" unicode="&#x218;" horiz-adv-x="449" 
d="M53 136q73 -77 156 -77q55 0 87 34.5t32 91.5q0 58 -27.5 100.5t-98.5 88.5q-83 55 -115.5 103t-32.5 127q0 78 48 130.5t124 52.5q70 0 137 -38v-98q-70 63 -133 63q-47 0 -72.5 -30t-25.5 -79q0 -54 25.5 -89.5t99.5 -82.5q81 -53 116 -108t35 -132q0 -96 -56.5 -152.5
t-149.5 -56.5q-87 0 -143 47l-8 105h2zM247 -63q12 -27 12 -54q0 -54 -69 -120h-41q49 70 49 117q0 18 -11 40z" />
    <glyph glyph-name="uni0219" unicode="&#x219;" horiz-adv-x="354" 
d="M40 31l5 85q51 -67 128 -67q36 0 54.5 19t18.5 53q0 41 -33 63q-17 12 -53 29t-49 25q-38 23 -53.5 53t-15.5 77q0 58 35 96t94 38q71 0 129 -45l-18 -79q-21 28 -51 43t-57 15q-30 0 -45.5 -18t-15.5 -45q0 -45 35 -67q13 -8 48 -25t48 -24q73 -44 73 -134
q0 -64 -38.5 -102t-105.5 -38q-80 0 -133 48zM215 -63q12 -27 12 -54q0 -54 -69 -120h-41q49 70 49 117q0 18 -11 40z" />
    <glyph glyph-name="uni021A" unicode="&#x21a;" horiz-adv-x="526" 
d="M301 0h-76v698h-214v74h505v-74h-215v-698zM293 -63q12 -27 12 -54q0 -54 -69 -120h-41q49 70 49 117q0 18 -11 40z" />
    <glyph glyph-name="uni021B" unicode="&#x21b;" horiz-adv-x="289" 
d="M12 485h74v151l74 17v-168h115v-64h-115v-257q0 -68 12.5 -97.5t52.5 -57.5v-7l-82 -11q-30 18 -43.5 54.5t-13.5 111.5v264h-74v64zM182 -63q12 -27 12 -54q0 -54 -69 -120h-41q49 70 49 117q0 18 -11 40z" />
    <glyph glyph-name="dotlessj" unicode="&#x237;" horiz-adv-x="210" 
d="M68 477l74 17v-512q0 -131 -41 -187l-103 -32l-5 11q40 33 57.5 80t17.5 128v495z" />
    <glyph glyph-name="circumflex" unicode="&#x2c6;" horiz-adv-x="228" 
d="M181 571l-67 93l-67 -93h-41l84 161h48l84 -161h-41z" />
    <glyph glyph-name="caron" unicode="&#x2c7;" horiz-adv-x="228" 
d="M6 732h41l68 -94l66 94h41l-84 -161h-48z" />
    <glyph glyph-name="uni02C9" unicode="&#x2c9;" horiz-adv-x="267" 
d="M224 679v-63h-216v63h216z" />
    <glyph glyph-name="breve" unicode="&#x2d8;" horiz-adv-x="218" 
d="M109 639q64 0 64 86h37q0 -65 -24.5 -106t-76.5 -41q-101 0 -101 147h36q0 -86 65 -86z" />
    <glyph glyph-name="dotaccent" unicode="&#x2d9;" horiz-adv-x="109" 
d="M4 650q0 21 14.5 35.5t35.5 14.5t35.5 -15t14.5 -35q0 -21 -14.5 -36t-35.5 -15t-35.5 15t-14.5 36z" />
    <glyph glyph-name="ring" unicode="&#x2da;" horiz-adv-x="178" 
d="M-11 657q0 41 29.5 70.5t70.5 29.5t70 -29.5t29 -70.5t-29 -70t-70 -29t-70.5 29.5t-29.5 69.5zM31 657q0 -24 17 -41t41 -17t41 17t17 41t-17 41t-41 17t-41 -17t-17 -41z" />
    <glyph glyph-name="ogonek" unicode="&#x2db;" horiz-adv-x="168" 
d="M87 0v16h73v-16q-51 -46 -69 -77t-18 -63q0 -38 31 -38q32 0 52 28h2l-5 -68q-25 -19 -63 -19t-60 22.5t-22 63.5q0 35 17 67.5t62 83.5z" />
    <glyph glyph-name="tilde" unicode="&#x2dc;" horiz-adv-x="259" 
d="M79 636q-17 0 -28 -16t-14 -41l-29 8q4 54 25 85t50 31q18 0 51.5 -18.5t45.5 -18.5q35 0 42 57l29 -8q-4 -54 -24.5 -85t-50.5 -31q-18 0 -51.5 18.5t-45.5 18.5z" />
    <glyph glyph-name="hungarumlaut" unicode="&#x2dd;" horiz-adv-x="247" 
d="M56 732h79l-93 -161h-36zM163 732h80l-94 -161h-35z" />
    <glyph glyph-name="uni0394" unicode="&#x394;" horiz-adv-x="600" 
d="M591 0h-582l270 751l48 8zM304 643l-204 -577h400z" />
    <glyph glyph-name="uni03A9" unicode="&#x3a9;" horiz-adv-x="635" 
d="M26 0l-9 69h184q-56 76 -98 167q-52 115 -52 230q0 142 70.5 231.5t196.5 89.5t196 -89.5t70 -231.5q0 -115 -52 -230q-43 -92 -97 -167h183l-9 -69h-248v68q64 81 112 198q38 94 38 194q0 113 -49.5 183t-143.5 70q-96 0 -146 -70t-50 -183q0 -103 38 -194
q47 -113 115 -198v-68h-249z" />
    <glyph glyph-name="uni03BC" unicode="&#x3bc;" horiz-adv-x="453" 
d="M202 -11q-46 0 -69 33v-240l-73 -19v722h73v-305q0 -118 74 -118q61 0 100 79q13 26 13 67v277h73v-478l-73 -18v80q-44 -80 -118 -80z" />
    <glyph glyph-name="pi" unicode="&#x3c0;" horiz-adv-x="490" 
d="M25 485h437v-65h-94v-268q0 -52 11 -72t37 -20q27 0 48 20l-5 -69q-24 -18 -58 -18q-53 0 -77 32t-24 109v286h-129v-242q0 -112 -41 -178h-74q48 73 48 178v242h-79v65z" />
    <glyph glyph-name="Wgrave" unicode="&#x1e80;" horiz-adv-x="887" 
d="M567 0l-127 404l-130 -404h-59l-246 772h84l194 -644l124 382l-82 262h84l188 -641l201 641h84l-256 -772h-59zM428 824l-106 131h88l62 -131h-44z" />
    <glyph glyph-name="wgrave" unicode="&#x1e81;" horiz-adv-x="628" 
d="M280 485h66l80 -383l119 383h74l-164 -485h-69l-77 347l-94 -347h-69l-140 485h73l101 -385zM321 577l-111 161h84l63 -161h-36z" />
    <glyph glyph-name="Wacute" unicode="&#x1e82;" horiz-adv-x="887" 
d="M567 0l-127 404l-130 -404h-59l-246 772h84l194 -644l124 382l-82 262h84l188 -641l201 641h84l-256 -772h-59zM528 955l-106 -131h-44l62 131h88z" />
    <glyph glyph-name="wacute" unicode="&#x1e83;" horiz-adv-x="628" 
d="M280 485h66l80 -383l119 383h74l-164 -485h-69l-77 347l-94 -347h-69l-140 485h73l101 -385zM419 738l-110 -161h-37l63 161h84z" />
    <glyph glyph-name="Wdieresis" unicode="&#x1e84;" horiz-adv-x="887" 
d="M567 0l-127 404l-130 -404h-59l-246 772h84l194 -644l124 382l-82 262h84l188 -641l201 641h84l-256 -772h-59zM296 889q0 19 13.5 33t32.5 14t33 -14t14 -33t-14 -32.5t-33 -13.5t-32.5 13.5t-13.5 32.5zM461 889q0 19 13.5 33t32.5 14t33 -14t14 -33t-14 -32.5
t-33 -13.5t-32.5 13.5t-13.5 32.5z" />
    <glyph glyph-name="wdieresis" unicode="&#x1e85;" horiz-adv-x="628" 
d="M280 485h66l80 -383l119 383h74l-164 -485h-69l-77 347l-94 -347h-69l-140 485h73l101 -385zM195 653q0 19 13 32.5t32 13.5q18 0 31.5 -13.5t13.5 -32.5q0 -18 -13.5 -31.5t-31.5 -13.5q-19 0 -32 13.5t-13 31.5zM345 653q0 19 13 32.5t32 13.5q18 0 31.5 -13.5
t13.5 -32.5q0 -18 -13.5 -31.5t-31.5 -13.5q-19 0 -32 13.5t-13 31.5z" />
    <glyph glyph-name="germandblS" unicode="&#x1e9e;" horiz-adv-x="597" 
d="M523 715l-148 -284q90 -10 136.5 -71.5t46.5 -149.5q0 -102 -54.5 -164.5t-143.5 -62.5q-74 0 -115 31l-10 93h3q41 -52 116 -52q60 0 93.5 43t33.5 112q0 70 -39.5 114t-123.5 44q-32 0 -53 -7l-1 2l168 319q-45 29 -107 29q-80 0 -129 -62.5t-49 -168.5v-480h-77v481
q0 137 71.5 220t186.5 83t195 -69z" />
    <glyph glyph-name="Ygrave" unicode="&#x1ef2;" horiz-adv-x="561" 
d="M313 0h-77v353l-235 419h89l185 -344l195 344h90l-247 -417v-355zM283 824l-106 131h88l62 -131h-44z" />
    <glyph glyph-name="ygrave" unicode="&#x1ef3;" horiz-adv-x="398" 
d="M41 -234q69 97 119 237l-154 482h78l109 -383l124 383h75l-169 -498q-50 -147 -95 -224h-87v3zM202 577l-111 161h84l63 -161h-36z" />
    <glyph glyph-name="endash" unicode="&#x2013;" horiz-adv-x="480" 
d="M460 297v-57h-440v57h440z" />
    <glyph glyph-name="emdash" unicode="&#x2014;" horiz-adv-x="800" 
d="M780 297v-57h-760v57h760z" />
    <glyph glyph-name="quoteleft" unicode="&#x2018;" horiz-adv-x="157" 
d="M64 522q-36 36 -36 106q0 48 25 84.5t66 57.5l12 -18q-45 -37 -45 -95q0 -54 40 -88z" />
    <glyph glyph-name="quoteright" unicode="&#x2019;" horiz-adv-x="157" 
d="M93 770q36 -36 36 -106q0 -95 -92 -143l-11 18q45 39 45 96q0 54 -39 88z" />
    <glyph glyph-name="quotesinglbase" unicode="&#x201a;" horiz-adv-x="200" 
d="M112 103q36 -36 36 -106q0 -95 -92 -143l-11 18q45 39 45 96q0 54 -39 88z" />
    <glyph glyph-name="quotedblleft" unicode="&#x201c;" horiz-adv-x="285" 
d="M200 522q-36 36 -36 106q0 48 25 84.5t66 57.5l12 -18q-45 -37 -45 -95q0 -54 40 -88zM64 522q-36 36 -36 106q0 48 25 84.5t66 57.5l12 -18q-45 -37 -45 -95q0 -54 40 -88z" />
    <glyph glyph-name="quotedblright" unicode="&#x201d;" horiz-adv-x="285" 
d="M221 770q36 -36 36 -106q0 -95 -92 -143l-11 18q45 39 45 96q0 54 -39 88zM86 770q36 -36 36 -106q0 -95 -92 -143l-11 18q45 39 45 96q0 54 -39 88z" />
    <glyph glyph-name="quotedblbase" unicode="&#x201e;" horiz-adv-x="335" 
d="M247 103q36 -36 36 -106q0 -95 -92 -143l-11 18q45 39 45 96q0 54 -39 88zM112 103q36 -36 36 -106q0 -95 -92 -143l-11 18q45 39 45 96q0 54 -39 88z" />
    <glyph glyph-name="dagger" unicode="&#x2020;" horiz-adv-x="368" 
d="M144 735h80l-15 -213l137 14v-77l-137 14l13 -160q-16 -224 -16 -425h-44q0 201 -16 425l14 160l-138 -14v77l138 -14z" />
    <glyph glyph-name="daggerdbl" unicode="&#x2021;" horiz-adv-x="389" 
d="M234 -112h-80l17 210l-139 -14v77l139 -14l-15 165l15 164l-139 -14v77l139 -14l-17 210h80l-15 -210l138 14v-77l-138 14l14 -164l-14 -165l138 14v-77l-138 14z" />
    <glyph glyph-name="bullet" unicode="&#x2022;" horiz-adv-x="289" 
d="M35 400q0 45 32 77.5t77 32.5t77.5 -32.5t32.5 -77.5q0 -46 -32.5 -78t-77.5 -32t-77 32t-32 78z" />
    <glyph glyph-name="ellipsis" unicode="&#x2026;" horiz-adv-x="635" 
d="M268 40q0 22 14 36t35 14q22 0 36 -14t14 -36q0 -21 -14 -35t-36 -14q-21 0 -35 14t-14 35zM487 40q0 22 14 36t35 14q22 0 36 -14t14 -36q0 -21 -14 -35t-36 -14q-21 0 -35 14t-14 35zM50 40q0 22 14 36t35 14q22 0 36 -14t14 -36q0 -21 -14 -35t-36 -14q-21 0 -35 14
t-14 35z" />
    <glyph glyph-name="perthousand" unicode="&#x2030;" horiz-adv-x="924" 
d="M530 752l-367 -752h-56l366 752h57zM153 384q-50 0 -79 38.5t-29 108.5q0 76 41.5 136.5t99.5 60.5q49 0 78 -38.5t29 -108.5q0 -76 -41.5 -136.5t-98.5 -60.5zM184 677q-37 0 -61.5 -45.5t-24.5 -107.5q0 -43 15 -66t42 -23q36 0 60.5 45.5t24.5 107.5q0 42 -15 65.5
t-41 23.5zM447 24q-49 0 -78.5 38.5t-29.5 108.5q0 76 42 136.5t100 60.5q49 0 77.5 -38.5t28.5 -108.5q0 -76 -41 -136.5t-99 -60.5zM478 317q-36 0 -61 -45.5t-25 -107.5q0 -43 15 -66t42 -23q37 0 61.5 45.5t24.5 107.5q0 43 -15 66t-42 23zM738 24q-49 0 -78 38.5
t-29 108.5q0 76 41 136.5t99 60.5q49 0 78.5 -38.5t29.5 -108.5q0 -76 -41.5 -136.5t-99.5 -60.5zM769 317q-36 0 -60.5 -45.5t-24.5 -107.5q0 -89 56 -89q37 0 61.5 45.5t24.5 107.5q0 43 -15 66t-42 23z" />
    <glyph glyph-name="guilsinglleft" unicode="&#x2039;" horiz-adv-x="239" 
d="M138 82l-104 165l104 165h59l-79 -165l79 -165h-59z" />
    <glyph glyph-name="guilsinglright" unicode="&#x203a;" horiz-adv-x="239" 
d="M101 412l104 -165l-104 -165h-59l79 165l-79 165h59z" />
    <glyph glyph-name="fraction" unicode="&#x2044;" horiz-adv-x="126" 
d="M299 780l-416 -810h-56l414 810h58z" />
    <glyph glyph-name="zero.superior" unicode="&#x2070;" horiz-adv-x="304" 
d="M152 448q-55 0 -89 54t-34 152t34 152t89 54t89 -54t34 -152t-34 -152t-89 -54zM152 498q31 0 49 41t18 115t-18 115t-49 41q-32 0 -49.5 -40.5t-17.5 -115.5q0 -74 17.5 -115t49.5 -41z" />
    <glyph glyph-name="four.superior" unicode="&#x2074;" horiz-adv-x="296" 
d="M173 458v105h-162v32l155 255h59v-239h57v-48h-57v-105h-52zM62 611h111v181z" />
    <glyph glyph-name="five.superior" unicode="&#x2075;" horiz-adv-x="284" 
d="M246 850l-7 -49h-136l-10 -84q14 2 24 2q59 0 93 -34.5t34 -86.5q0 -74 -46 -114t-135 -40q-20 0 -30 2l7 56q18 -3 41 -3q52 0 80 26t28 70q0 34 -22 55.5t-63 21.5q-31 0 -61 -8l19 186h184z" />
    <glyph glyph-name="six.superior" unicode="&#x2076;" horiz-adv-x="284" 
d="M230 807q-62 -7 -100 -42.5t-51 -92.5q27 31 70 31q49 0 79 -33.5t30 -91.5q0 -55 -31.5 -92.5t-81.5 -37.5q-57 0 -88 43t-31 121q0 100 52.5 169.5t160.5 80.5zM142 659q-43 0 -70 -40v-10q0 -54 20 -83t56 -29q25 0 42 24t17 58q0 35 -18.5 57.5t-46.5 22.5z" />
    <glyph glyph-name="seven.superior" unicode="&#x2077;" horiz-adv-x="259" 
d="M64 458q40 153 114 342l-166 -4l18 54h213q-86 -239 -116 -392h-63z" />
    <glyph glyph-name="eight.superior" unicode="&#x2078;" horiz-adv-x="300" 
d="M267 562q0 -48 -31.5 -81t-86.5 -33t-85.5 30t-30.5 81q0 69 64 99q-54 29 -54 96q0 44 30 75t76 31q48 0 75 -29.5t27 -72.5q0 -59 -53 -90q69 -28 69 -106zM214 564q0 58 -74 77q-26 -10 -40.5 -32t-14.5 -48q0 -27 17 -45.5t47 -18.5q31 0 48 19t17 48zM96 756
q0 -28 13.5 -44.5t48.5 -29.5q41 23 41 70q0 25 -13.5 42t-36.5 17t-38 -16t-15 -39z" />
    <glyph glyph-name="nine.superior" unicode="&#x2079;" horiz-adv-x="287" 
d="M93 441l-32 45q104 49 133 129q-21 -12 -46 -12q-54 0 -87.5 34.5t-33.5 92.5q0 56 30 93t80 37q56 0 88 -43.5t32 -119.5q0 -175 -164 -256zM157 647q28 0 48 14q3 18 3 37q0 52 -18.5 81.5t-52.5 29.5q-30 0 -45.5 -22.5t-15.5 -57.5q0 -37 23 -59.5t58 -22.5z" />
    <glyph glyph-name="n.superior" unicode="&#x207f;" horiz-adv-x="329" 
d="M46 350v339h56v-55q35 63 93 63q92 0 92 -122v-225h-56v212q0 80 -52 80q-36 0 -62 -43q-15 -26 -15 -63v-186h-56z" />
    <glyph glyph-name="zero.inferior" unicode="&#x2080;" horiz-adv-x="304" 
d="M152 -152q-55 0 -89 54t-34 152t34 152t89 54t89 -54t34 -152t-34 -152t-89 -54zM152 -102q31 0 49 41t18 115t-18 115t-49 41q-32 0 -49.5 -40.5t-17.5 -115.5q0 -74 17.5 -115t49.5 -41z" />
    <glyph glyph-name="one.inferior" unicode="&#x2081;" horiz-adv-x="213" 
d="M140 -142h-56v343l-72 -4l7 53h121v-392z" />
    <glyph glyph-name="two.inferior" unicode="&#x2082;" horiz-adv-x="281" 
d="M179 -1q-39 -49 -80 -90h153l-6 -51h-217v48q54 49 103 114q49 67 49 121q0 28 -14.5 46.5t-40.5 18.5q-46 0 -88 -43l9 67q33 30 86 30q50 0 77.5 -31t27.5 -79q0 -77 -59 -151z" />
    <glyph glyph-name="three.inferior" unicode="&#x2083;" horiz-adv-x="278" 
d="M229 159q0 -63 -50 -90q64 -25 64 -100q0 -56 -34 -88.5t-89 -32.5q-57 0 -88 21l-2 61q35 -28 87 -28q33 0 51.5 19t18.5 49q0 31 -18 50t-50 19q-37 0 -68 -7l11 57q22 -2 39 -2q33 0 52.5 16.5t19.5 48.5q0 24 -15 39.5t-42 15.5q-41 0 -71 -23l12 61q27 15 72 15
q47 0 73.5 -28.5t26.5 -72.5z" />
    <glyph glyph-name="four.inferior" unicode="&#x2084;" horiz-adv-x="295" 
d="M178 -142v105h-162v32l155 255h59v-239h57v-48h-57v-105h-52zM67 11h111v181z" />
    <glyph glyph-name="five.inferior" unicode="&#x2085;" horiz-adv-x="284" 
d="M246 250l-7 -49h-136l-10 -84q14 2 24 2q59 0 93 -34.5t34 -86.5q0 -74 -46 -114t-135 -40q-20 0 -30 2l7 56q18 -3 41 -3q52 0 80 26t28 70q0 34 -22 55.5t-63 21.5q-31 0 -61 -8l19 186h184z" />
    <glyph glyph-name="six.inferior" unicode="&#x2086;" horiz-adv-x="284" 
d="M230 207q-62 -7 -100 -42.5t-51 -92.5q27 31 70 31q49 0 79 -33.5t30 -91.5q0 -55 -31.5 -92.5t-81.5 -37.5q-57 0 -88 43t-31 121q0 100 52.5 169.5t160.5 80.5zM142 59q-43 0 -70 -40v-10q0 -54 20 -83t56 -29q25 0 42 24t17 58q0 35 -18.5 57.5t-46.5 22.5z" />
    <glyph glyph-name="seven.inferior" unicode="&#x2087;" horiz-adv-x="259" 
d="M64 -142q40 153 114 342l-166 -4l18 54h213q-86 -239 -116 -392h-63z" />
    <glyph glyph-name="eight.inferior" unicode="&#x2088;" horiz-adv-x="300" 
d="M267 -38q0 -48 -31.5 -81t-86.5 -33t-85.5 30t-30.5 81q0 69 64 99q-54 29 -54 96q0 44 30 75t76 31q48 0 75 -29.5t27 -72.5q0 -59 -53 -90q69 -28 69 -106zM214 -36q0 58 -74 77q-26 -10 -40.5 -32t-14.5 -48q0 -27 17 -45.5t47 -18.5q31 0 48 19t17 48zM96 156
q0 -28 13.5 -44.5t48.5 -29.5q41 23 41 70q0 25 -13.5 42t-36.5 17t-38 -16t-15 -39z" />
    <glyph glyph-name="nine.inferior" unicode="&#x2089;" horiz-adv-x="287" 
d="M93 -159l-32 45q104 49 133 129q-21 -12 -46 -12q-54 0 -87.5 34.5t-33.5 92.5q0 56 30 93t80 37q56 0 88 -43.5t32 -119.5q0 -175 -164 -256zM157 47q28 0 48 14q3 18 3 37q0 52 -18.5 81.5t-52.5 29.5q-30 0 -45.5 -22.5t-15.5 -57.5q0 -37 23 -59.5t58 -22.5z" />
    <glyph glyph-name="Euro" unicode="&#x20ac;" 
d="M15 430l10 54h31q20 137 89.5 209t182.5 72q67 0 114 -25l-14 -75q-36 31 -103 31q-163 0 -197 -212h265l-10 -54h-261q-1 -17 -1 -51q0 -29 1 -43h243l-11 -55h-227q30 -222 205 -222q68 0 115 40l-9 -84q-46 -26 -107 -26q-116 0 -187 72.5t-89 219.5h-44l10 55h30
q-1 13 -1 42q0 35 1 52h-36z" />
    <glyph glyph-name="uni20B9" unicode="&#x20b9;" 
d="M35 510l22 57h231q-6 61 -43.5 94t-101.5 33h-108l22 58h371l-23 -58h-102q51 -45 57 -127h68l-23 -57h-46q-18 -147 -185 -188l208 -322h-95l-225 358v3q113 14 164.5 49.5t60.5 99.5h-252z" />
    <glyph glyph-name="uni20BA" unicode="&#x20ba;" 
d="M42 413v67l56 36v236h74v-194l129 85v-68l-129 -85v-103l129 85v-67l-129 -85v-250q12 -3 24 -3q71 0 118.5 59.5t62.5 165.5l70 -29q-23 -131 -90 -202t-167 -71q-52 0 -92 16v272l-56 -35v67l56 36v103z" />
    <glyph glyph-name="afii61289" unicode="&#x2113;" horiz-adv-x="319" 
d="M278 21q-36 -36 -93 -36q-60 0 -87 35.5t-27 122.5v66l-32 -40l-18 53l50 63v309q0 92 32 139t83 47q50 0 77 -40.5t27 -113.5q0 -77 -36.5 -155t-126.5 -193v-123q0 -62 15 -85.5t50 -23.5q47 0 90 49h2zM127 594v-236q105 144 105 265q0 100 -46 100q-59 0 -59 -129z
" />
    <glyph glyph-name="trademark" unicode="&#x2122;" horiz-adv-x="733" 
d="M177 350h-59v345h-107v57h272v-57h-106v-345zM322 350v402h76l108 -301l110 301h75v-402h-57v304l-111 -304h-34l-110 308v-308h-57z" />
    <glyph glyph-name="Omega" unicode="&#x2126;" horiz-adv-x="635" 
d="M26 0l-9 69h184q-56 76 -98 167q-52 115 -52 230q0 142 70.5 231.5t196.5 89.5t196 -89.5t70 -231.5q0 -115 -52 -230q-43 -92 -97 -167h183l-9 -69h-248v68q64 81 112 198q38 94 38 194q0 113 -49.5 183t-143.5 70q-96 0 -146 -70t-50 -183q0 -103 38 -194
q47 -113 115 -198v-68h-249z" />
    <glyph glyph-name="estimated" unicode="&#x212e;" horiz-adv-x="830" 
d="M415 671q156 0 267 -99.5t111 -247.5h-608q-10 0 -10 -11v-197q47 -51 110 -78.5t130 -27.5q73 0 139 32.5t113 88.5h57q-56 -68 -138 -105t-171 -37q-100 0 -186 42.5t-139.5 121.5t-53.5 177q0 145 110.5 243t268.5 98zM415 650q-70 0 -133 -28.5t-107 -78.5v-185
q0 -11 10 -11h461q9 0 9 11v184q-44 51 -108 79.5t-132 28.5z" />
    <glyph glyph-name="partialdiff" unicode="&#x2202;" horiz-adv-x="453" 
d="M230 457q75 0 122 -71v11q0 145 -39.5 226.5t-110.5 81.5q-64 0 -106 -60h-3l-6 72q44 55 122 55q94 0 149.5 -98t55.5 -272q0 -194 -63 -306.5t-164 -112.5q-71 0 -113.5 56.5t-42.5 147.5q0 123 55 196.5t144 73.5zM192 53q61 0 103 70.5t53 193.5q-44 77 -115 77
q-60 0 -96 -55t-36 -143q0 -66 23 -104.5t68 -38.5z" />
    <glyph glyph-name="Delta" unicode="&#x2206;" horiz-adv-x="600" 
d="M591 0h-582l270 751l48 8zM304 643l-204 -577h400z" />
    <glyph glyph-name="product" unicode="&#x220f;" horiz-adv-x="562" 
d="M136 -220h-67v952h424v-952h-67v889h-290v-889z" />
    <glyph glyph-name="summation" unicode="&#x2211;" horiz-adv-x="431" 
d="M410 -220h-392l240 475l-240 477h392v-63h-288l210 -413l-210 -413h288v-63z" />
    <glyph glyph-name="minus" unicode="&#x2212;" horiz-adv-x="464" 
d="M428 293v-68h-392v68h392z" />
    <glyph glyph-name="uni2215" unicode="&#x2215;" horiz-adv-x="126" 
d="M299 780l-416 -810h-56l414 810h58z" />
    <glyph glyph-name="uni2219" unicode="&#x2219;" horiz-adv-x="198" 
d="M50 264q0 22 14 36t35 14q22 0 36 -14t14 -36q0 -21 -14 -35t-36 -14q-21 0 -35 14t-14 35z" />
    <glyph glyph-name="radical" unicode="&#x221a;" horiz-adv-x="464" 
d="M210 -99l-115 427l-76 -35l-18 58l128 57l105 -395l171 877h51l-192 -989h-54z" />
    <glyph glyph-name="infinity" unicode="&#x221e;" horiz-adv-x="464" 
d="M134 386q63 0 107 -83q17 35 43 59t57 24q48 0 75.5 -36.5t27.5 -92.5q0 -58 -28.5 -91.5t-71.5 -33.5q-64 0 -108 81q-18 -34 -44 -57.5t-56 -23.5q-47 0 -75 36.5t-28 92.5q0 58 28.5 91.5t72.5 33.5zM134 187q51 0 83 69q-35 77 -80 77q-23 0 -38 -20t-15 -52
q0 -74 50 -74zM344 331q-54 0 -83 -69q31 -77 79 -77q23 0 38 20t15 52q0 34 -12.5 54t-36.5 20z" />
    <glyph glyph-name="integral" unicode="&#x222b;" horiz-adv-x="360" 
d="M149 12v514q0 118 30.5 172t97.5 54q39 0 65 -21l-9 -77q-24 32 -54 32q-37 0 -52.5 -37.5t-15.5 -126.5v-507q0 -123 -31.5 -179t-99.5 -56q-39 0 -62 23l12 73q23 -31 52 -31q38 0 52.5 37.5t14.5 129.5z" />
    <glyph glyph-name="approxequal" unicode="&#x2248;" horiz-adv-x="465" 
d="M436 369q-38 -90 -109 -90q-37 0 -96 46t-93 46q-50 0 -81 -61l-28 56q35 75 109 75q36 0 96.5 -46t92.5 -46q47 0 79 76zM436 171q-35 -75 -109 -75q-37 0 -96 46t-93 46q-47 0 -80 -76l-29 56q38 90 109 90q36 0 96.5 -46t92.5 -46q51 0 80 61z" />
    <glyph glyph-name="notequal" unicode="&#x2260;" horiz-adv-x="464" 
d="M428 201v-63h-228l-46 -94h-61l46 94h-103v63h134l56 115h-190v63h221l47 94h62l-47 -94h109v-63h-140l-57 -115h197z" />
    <glyph glyph-name="lessequal" unicode="&#x2264;" horiz-adv-x="464" 
d="M428 443l-341 -123l341 -122v-64l-392 148v77l392 148v-64zM428 92v-60h-392v60h392z" />
    <glyph glyph-name="greaterequal" unicode="&#x2265;" horiz-adv-x="464" 
d="M36 134v64l339 122l-339 123v64l392 -148v-77zM428 92v-60h-392v60h392z" />
    <glyph glyph-name="lozenge" unicode="&#x25ca;" horiz-adv-x="418" 
d="M33 390l150 390h52l150 -390l-150 -390h-52zM91 390l117 -319l118 320l-118 318z" />
    <glyph glyph-name="commaaccent" unicode="&#xf6c3;" horiz-adv-x="122" 
d="M102 -63q12 -27 12 -54q0 -54 -69 -120h-41q49 70 49 117q0 18 -11 40z" />
    <glyph glyph-name="uniF8FF" unicode="&#xf8ff;" horiz-adv-x="523" 
d="M187 79q21 0 33.5 -13t12.5 -33t-12.5 -32.5t-33.5 -12.5q-20 0 -32 12.5t-12 32.5t12 33t32 13zM218 164l-66 -14v151q86 4 135.5 38t49.5 88q0 48 -34 75.5t-91 27.5q-38 0 -78 -17l12 73q30 10 74 10q85 0 138 -43.5t53 -121.5q0 -70 -52.5 -119.5t-140.5 -63.5v-84z
M0 -138v870h523v-870h-523zM62 671v-748h399v748h-399z" />
    <glyph glyph-name="fi" unicode="&#xfb01;" horiz-adv-x="495" 
d="M165 546v-61h109v-64h-109v-421h-74v421h-77v64h77v78q0 148 80 192l109 25v-43q-67 -20 -91 -63t-24 -128zM353 477l73 17v-494h-73v477zM340 667q0 21 14 35.5t36 14.5q21 0 35 -14.5t14 -35.5t-14 -35t-35 -14q-22 0 -36 14t-14 35z" />
    <glyph glyph-name="fl" unicode="&#xfb02;" horiz-adv-x="495" 
d="M165 546v-61h109v-64h-109v-421h-74v421h-77v64h77v78q0 148 80 192l109 25v-43q-67 -20 -91 -63t-24 -128zM426 780v-780h-74v763z" />
    <glyph glyph-name="NULL" horiz-adv-x="0" 
 />
    <glyph glyph-name="caron.alt" horiz-adv-x="106" 
d="M87 781q11 -26 11 -61q0 -56 -57 -133h-33q31 77 31 127q0 25 -10 50z" />
    <glyph glyph-name="commaaccent.alt" horiz-adv-x="122" 
d="M19 566q-11 23 -11 54q0 51 68 120h42q-49 -69 -49 -117q0 -21 11 -40z" />
    <glyph glyph-name="grave.cap" horiz-adv-x="158" 
d="M109 824l-106 131h88l62 -131h-44z" />
    <glyph glyph-name="acute.cap" horiz-adv-x="158" 
d="M155 955l-106 -131h-44l62 131h88z" />
    <glyph glyph-name="circumflex.cap" horiz-adv-x="241" 
d="M191 824l-72 75l-69 -75h-44l81 131h67l81 -131h-44z" />
    <glyph glyph-name="tilde.cap" horiz-adv-x="263" 
d="M79 867q-17 0 -28.5 -15.5t-13.5 -38.5l-29 8q4 54 24 84.5t48 30.5q19 0 54.5 -17t49.5 -17q17 0 28 15t13 39l30 -8q-4 -54 -24 -84.5t-48 -30.5q-20 0 -55.5 17t-48.5 17z" />
    <glyph glyph-name="dieresis.cap" horiz-adv-x="268" 
d="M5 889q0 19 13.5 33t32.5 14t33 -14t14 -33t-14 -32.5t-33 -13.5t-32.5 13.5t-13.5 32.5zM170 889q0 19 13.5 33t32.5 14t33 -14t14 -33t-14 -32.5t-33 -13.5t-32.5 13.5t-13.5 32.5z" />
    <glyph glyph-name="macron.cap" horiz-adv-x="245" 
d="M237 910v-60h-229v60h229z" />
    <glyph glyph-name="breve.cap" horiz-adv-x="218" 
d="M109 882q61 0 64 72h37q0 -55 -24.5 -92.5t-76.5 -37.5q-53 0 -77 37.5t-24 92.5h36q5 -72 65 -72z" />
    <glyph glyph-name="ring.cap" horiz-adv-x="175" 
d="M-11 904q0 40 29 69t69 29q41 0 70 -29t29 -69t-29.5 -69t-69.5 -29t-69 29t-29 69zM27 904q0 -25 17.5 -42.5t42.5 -17.5t43 17.5t18 42.5t-18 43t-43 18t-42.5 -18t-17.5 -43z" />
    <glyph glyph-name="hungarumlaut.cap" horiz-adv-x="258" 
d="M65 955h81l-99 -131h-42zM173 955h81l-99 -131h-41z" />
    <glyph glyph-name="dotaccent.cap" horiz-adv-x="106" 
d="M4 889q0 20 14 34t34 14t34.5 -14t14.5 -34t-14.5 -34.5t-34.5 -14.5t-34 14.5t-14 34.5z" />
    <glyph glyph-name="caron.cap" horiz-adv-x="241" 
d="M6 955h44l71 -76l70 76h44l-81 -131h-67z" />
    <glyph glyph-name="questiondown.cap" horiz-adv-x="370" 
d="M252 549l67 16v-181q-90 -5 -141.5 -53t-51.5 -124q0 -68 36 -108.5t97 -40.5q47 0 78 17l-12 -75q-35 -12 -77 -12q-88 0 -143 56.5t-55 157.5q0 93 55 156.5t147 81.5v109zM234 731q0 21 14 35t35 14t35 -14t14 -35t-14 -35t-35 -14t-35 14t-14 35z" />
    <glyph glyph-name="exclamdown.cap" horiz-adv-x="229" 
d="M158 7l-92 -19q8 299 41 563l21 -5q28 -259 30 -539zM66 728q0 22 14.5 36t35.5 14t35 -14t14 -36q0 -21 -14 -35t-35 -14t-35.5 14t-14.5 35z" />
    <glyph glyph-name="periodcenterd.cap" horiz-adv-x="199" 
d="M50 385q0 22 14 36t35 14q22 0 36 -14t14 -36q0 -21 -14 -35t-36 -14q-21 0 -35 14t-14 35z" />
    <glyph glyph-name="hyphen.cap" horiz-adv-x="259" 
d="M231 422v-71h-203v71h203z" />
    <glyph glyph-name="endash.cap" horiz-adv-x="480" 
d="M460 416v-59h-440v59h440z" />
    <glyph glyph-name="emdash.cap" horiz-adv-x="800" 
d="M780 416v-59h-760v59h760z" />
    <glyph glyph-name="uni00AD.cap" horiz-adv-x="259" 
d="M231 422v-71h-203v71h203z" />
    <glyph glyph-name="parenleft.cap" horiz-adv-x="281" 
d="M58 386q0 136 30.5 236t95.5 187h54q-63 -100 -90 -197.5t-27 -225.5t27 -225.5t90 -197.5h-54q-65 87 -95.5 187t-30.5 236z" />
    <glyph glyph-name="parenright.cap" horiz-adv-x="281" 
d="M223 386q0 -137 -31 -236.5t-96 -186.5h-53q62 99 89 196.5t27 226.5t-27 226.5t-89 196.5h53q65 -87 96 -186.5t31 -236.5z" />
    <glyph glyph-name="bracketleft.cap" horiz-adv-x="281" 
d="M66 -37v846h175v-46h-114v-754h114v-46h-175z" />
    <glyph glyph-name="bracketright.cap" horiz-adv-x="281" 
d="M215 809v-846h-175v46h114v754h-114v46h175z" />
    <glyph glyph-name="braceleft.cap" horiz-adv-x="281" 
d="M21 362v48q80 8 80 115v138q0 77 34.5 111.5t106.5 34.5v-45q-43 0 -62 -25.5t-19 -88.5v-139q0 -104 -79 -125q79 -21 79 -125v-139q0 -63 19 -88.5t62 -25.5v-45q-72 0 -106.5 34.5t-34.5 111.5v138q0 107 -80 115z" />
    <glyph glyph-name="braceright.cap" horiz-adv-x="281" 
d="M259 410v-48q-80 -8 -80 -115v-138q0 -78 -34 -112t-106 -34v45q43 0 62 25.5t19 88.5v139q0 104 78 125q-78 21 -78 125v139q0 63 -19 88.5t-62 25.5v45q72 0 106 -34t34 -112v-138q0 -107 80 -115z" />
    <glyph glyph-name="guilsinglleft.cap" horiz-adv-x="239" 
d="M138 221l-104 165l104 165h59l-79 -165l79 -165h-59z" />
    <glyph glyph-name="guilsinglright.cap" horiz-adv-x="239" 
d="M101 551l104 -165l-104 -165h-59l79 165l-79 165h59z" />
    <glyph glyph-name="guillemotleft.cap" horiz-adv-x="368" 
d="M138 221l-104 165l104 165h54l-80 -165l80 -165h-54zM272 221l-104 165l104 165h54l-80 -165l80 -165h-54z" />
    <glyph glyph-name="guillemotright.cap" horiz-adv-x="368" 
d="M96 551l104 -165l-104 -165h-54l79 165l-79 165h54zM230 551l104 -165l-104 -165h-54l79 165l-79 165h54z" />
    <glyph glyph-name="A.superior" horiz-adv-x="337" 
d="M5 350l145 400l44 7l138 -407h-63l-38 118h-125l-38 -118h-63zM169 677l-50 -160h99z" />
    <glyph glyph-name="B.superior" horiz-adv-x="281" 
d="M243 656q0 -60 -46 -88q60 -24 60 -99q0 -53 -34 -86t-89 -33h-92v402h93q54 0 81 -26.5t27 -69.5zM99 535v-136h34q31 0 48 20t17 52q0 29 -16 46.5t-45 17.5h-38zM99 703v-122h31q25 0 40.5 16t15.5 45q0 61 -56 61h-31z" />
    <glyph glyph-name="C.superior" horiz-adv-x="318" 
d="M288 726l-5 -67h-3q-35 40 -87 40q-48 0 -78 -42t-30 -106q0 -67 30 -107.5t78 -40.5q58 0 96 51h3l-6 -75q-42 -36 -98 -36q-74 0 -119.5 56t-45.5 152q0 88 47.5 148t120.5 60q58 0 97 -33z" />
    <glyph glyph-name="D.superior" horiz-adv-x="330" 
d="M130 350h-88v402h88q83 0 130 -53.5t47 -142.5q0 -99 -45.5 -152.5t-131.5 -53.5zM101 695v-288h30q114 0 114 149q0 61 -30 100t-83 39h-31z" />
    <glyph glyph-name="E.superior" horiz-adv-x="253" 
d="M101 697v-112h107v-53h-107v-127h126v-55h-185v402h183v-55h-124z" />
    <glyph glyph-name="F.superior" horiz-adv-x="244" 
d="M227 752v-55h-126v-114h115v-55h-115v-178h-59v402h185z" />
    <glyph glyph-name="G.superior" horiz-adv-x="328" 
d="M301 539v-146q-55 -50 -118 -50q-71 0 -115.5 56.5t-44.5 149.5q0 90 45.5 150t123.5 60q54 0 97 -32l-6 -67h-3q-33 39 -87 39q-49 0 -78.5 -41.5t-29.5 -108.5t28 -106.5t75 -39.5q35 0 54 22v114h59z" />
    <glyph glyph-name="H.superior" horiz-adv-x="344" 
d="M101 350h-59v402h59v-165h142v165h59v-402h-59v180h-142v-180z" />
    <glyph glyph-name="I.superior" horiz-adv-x="144" 
d="M101 350h-59v402h59v-402z" />
    <glyph glyph-name="J.superior" horiz-adv-x="142" 
d="M42 752h59v-330q0 -126 -34 -174l-78 -21l-2 5q32 29 43.5 66.5t11.5 116.5v337z" />
    <glyph glyph-name="K.superior" horiz-adv-x="322" 
d="M101 350h-59v402h59v-185l134 185h72l-148 -196l159 -206h-73l-144 193v-193z" />
    <glyph glyph-name="L.superior" horiz-adv-x="261" 
d="M42 350v402h59v-345h149v-57h-208z" />
    <glyph glyph-name="M.superior" horiz-adv-x="453" 
d="M42 350v402h76l108 -301l110 301h75v-402h-57v304l-111 -304h-34l-110 308v-308h-57z" />
    <glyph glyph-name="N.superior" horiz-adv-x="377" 
d="M276 752h59v-402h-47l-188 288v-288h-58v402h48l186 -285v285z" />
    <glyph glyph-name="O.superior" horiz-adv-x="363" 
d="M279 551q0 65 -27.5 107t-69.5 42q-43 0 -70.5 -42t-27.5 -107t27.5 -107t70.5 -42t70 42t27 107zM340 551q0 -91 -44.5 -150t-113.5 -59q-70 0 -114.5 59t-44.5 150t44.5 150t114.5 59q69 0 113.5 -59t44.5 -150z" />
    <glyph glyph-name="P.superior" horiz-adv-x="268" 
d="M101 350h-59v402h85q57 0 90.5 -32.5t33.5 -90.5q0 -133 -129 -133h-21v-146zM100 699v-150h21q69 0 69 77q0 73 -67 73h-23z" />
    <glyph glyph-name="Q.superior" horiz-adv-x="366" 
d="M182 350q-22 0 -35 4q66 -34 90 -42q35 -11 67 -11l-17 -62q-37 3 -71 18q-26 11 -65.5 36t-43.5 27q-27 14 -42 16l25 54q-67 64 -67 165q0 89 45 147t114 58q70 0 115.5 -58.5t45.5 -147.5t-45.5 -146.5t-115.5 -57.5zM282 553q0 65 -28 106t-72 41q-43 0 -70.5 -40.5
t-27.5 -104.5q0 -65 28.5 -108t69.5 -43q44 0 72 41t28 108z" />
    <glyph glyph-name="R.superior" horiz-adv-x="295" 
d="M41 350v402h91q56 0 88 -30t32 -85q0 -83 -70 -112l109 -175h-67l-98 162h-27v-162h-58zM99 699v-144h7q86 0 86 75q0 69 -65 69h-28z" />
    <glyph glyph-name="S.superior" horiz-adv-x="242" 
d="M32 440q40 -42 81 -42q22 0 35 14t13 37q0 26 -13 45.5t-47 44.5q-42 31 -57.5 56.5t-15.5 64.5q0 43 26.5 71.5t68.5 28.5q40 0 75 -19v-68q-41 31 -71 31q-18 0 -28.5 -12t-10.5 -31q0 -23 11.5 -39t47.5 -43q40 -30 57 -57.5t17 -67.5q0 -51 -29.5 -81.5t-79.5 -30.5
q-46 0 -78 22l-5 76h3z" />
    <glyph glyph-name="T.superior" horiz-adv-x="294" 
d="M177 350h-59v345h-107v57h272v-57h-106v-345z" />
    <glyph glyph-name="U.superior" horiz-adv-x="331" 
d="M39 752h59v-251q0 -49 19 -74t49 -25t48.5 24.5t18.5 74.5v251h59v-251q0 -79 -34 -118.5t-92 -39.5q-59 0 -93 38.5t-34 116.5v254z" />
    <glyph glyph-name="V.superior" horiz-adv-x="337" 
d="M5 752h62l98 -313l105 313h61l-142 -402h-50z" />
    <glyph glyph-name="W.superior" horiz-adv-x="491" 
d="M304 350l-61 187l-61 -187h-44l-133 402h62l95 -310l56 172l-44 138h62l90 -301l98 301h61l-138 -402h-43z" />
    <glyph glyph-name="X.superior" horiz-adv-x="336" 
d="M8 350l120 209l-115 193h70l83 -148l82 148h68l-114 -189l126 -213h-71l-93 167l-89 -167h-67z" />
    <glyph glyph-name="Y.superior" horiz-adv-x="310" 
d="M182 350h-59v173l-119 229h65l83 -170l89 170h66l-125 -227v-175z" />
    <glyph glyph-name="Z.superior" horiz-adv-x="311" 
d="M283 350h-283l204 344h-172l6 58h265l-203 -344h193z" />
    <glyph glyph-name="b.superior" horiz-adv-x="335" 
d="M154 338q-41 0 -67 19l-41 -16v510l56 13v-192q34 29 75 29q57 0 95 -46.5t38 -124.5q0 -87 -42 -139.5t-114 -52.5zM165 650q-39 0 -63 -30v-218q20 -17 50 -17q46 0 73 37t27 102q0 58 -23.5 92t-63.5 34z" />
    <glyph glyph-name="c.superior" horiz-adv-x="282" 
d="M261 439l-8 -69q-38 -32 -88 -32q-64 0 -102 47.5t-38 128.5q0 82 40.5 134.5t110.5 52.5q48 0 81 -27l-9 -60q-30 33 -69 33q-46 0 -71 -36t-25 -97q0 -53 23.5 -87t65.5 -34q53 0 86 46h3z" />
    <glyph glyph-name="d.superior" horiz-adv-x="336" 
d="M236 339l1 33q-34 -34 -84 -34q-59 0 -93.5 49.5t-34.5 124.5q0 82 41.5 135.5t102.5 53.5q37 0 65 -18v168l56 13v-508zM168 389q42 0 66 30v211q-20 20 -58 20q-40 0 -66.5 -38t-26.5 -99q0 -56 22.5 -90t62.5 -34z" />
    <glyph glyph-name="e.superior" horiz-adv-x="287" 
d="M169 501q-35 -13 -92 -24q13 -87 83 -87q53 0 90 51h3l-4 -64q-36 -39 -93 -39q-63 0 -97.5 47t-34.5 115q0 79 43.5 140.5t107.5 61.5q40 0 62.5 -25t22.5 -65q0 -80 -91 -111zM162 655q-36 0 -60.5 -42.5t-26.5 -97.5q43 9 78 23q51 19 51 66q0 24 -11 37.5t-31 13.5z
" />
    <glyph glyph-name="f.superior" horiz-adv-x="202" 
d="M118 702v-13h76v-49h-76v-290h-55v290h-53v49h53v23q0 104 55 134l80 18v-31q-46 -14 -63 -44t-17 -87z" />
    <glyph glyph-name="g.superior" horiz-adv-x="298" 
d="M142 697q34 0 64 -20q27 46 71 46v-52q-24 0 -44 -21q22 -31 22 -68q0 -82 -84 -108q-12 -4 -33 -8.5t-28 -6.5q-23 -6 -23 -21t30 -23q13 -4 45.5 -10t42.5 -9q68 -17 68 -84q0 -54 -41 -90.5t-101 -36.5q-50 0 -78.5 29t-28.5 73q0 56 48 88q-45 18 -45 52t60 60
q-54 34 -54 93q0 50 31 83.5t78 33.5zM184 350q-9 2 -36.5 6.5t-42.5 8.5q-39 -25 -39 -67q0 -29 18.5 -46.5t50.5 -17.5q36 0 59.5 21.5t23.5 50.5q0 35 -34 44zM82 577q0 -46 39 -68q6 -4 12 -4q4 0 16 3q53 17 53 69q0 32 -16.5 52.5t-45.5 20.5q-26 0 -42 -19t-16 -54z
" />
    <glyph glyph-name="h.superior" horiz-adv-x="329" 
d="M46 350v501l56 13v-230q35 63 93 63q92 0 92 -122v-225h-56v212q0 80 -52 80q-36 0 -62 -43q-15 -26 -15 -63v-186h-56z" />
    <glyph glyph-name="i.superior" horiz-adv-x="149" 
d="M46 683l56 12v-345h-56v333zM37 816q0 16 10.5 26t26.5 10t26.5 -10t10.5 -26t-10.5 -26.5t-26.5 -10.5t-26.5 10.5t-10.5 26.5z" />
    <glyph glyph-name="j.superior" horiz-adv-x="148" 
d="M46 683l56 12v-357q0 -92 -28 -130l-77 -23l-3 7q28 22 40 55t12 89v347zM37 816q0 16 10.5 26t26.5 10t26 -10t10 -26t-10 -26.5t-26 -10.5t-26.5 10.5t-10.5 26.5z" />
    <glyph glyph-name="k.superior" horiz-adv-x="309" 
d="M102 864v-324l118 149h70l-131 -154l163 -185h-74l-146 178v-178h-56v501z" />
    <glyph glyph-name="l.superior" horiz-adv-x="148" 
d="M102 864v-514h-56v501z" />
    <glyph glyph-name="m.superior" horiz-adv-x="481" 
d="M384 350v216q0 76 -48 76q-35 0 -56 -44q-9 -20 -9 -47v-201h-56v216q0 76 -48 76q-36 0 -57 -46q-8 -19 -8 -46v-200h-56v339h56v-45q26 53 81 53q56 0 79 -63q32 63 90 63q42 0 65 -32t23 -85v-230h-56z" />
    <glyph glyph-name="p.superior" horiz-adv-x="333" 
d="M46 689h56v-9q29 18 67 18q60 0 99.5 -47.5t39.5 -127.5q0 -84 -39.5 -134.5t-106.5 -50.5q-34 0 -60 18v-157l-56 -14v504zM157 649q-35 0 -55 -19v-224q23 -21 53 -21q43 0 68.5 36.5t25.5 98.5q0 59 -24.5 94t-67.5 35z" />
    <glyph glyph-name="q.superior" horiz-adv-x="336" 
d="M290 692v-493l-56 -14v181q-30 -27 -74 -27q-62 0 -98.5 48t-36.5 129q0 85 40 135t108 50q39 0 66 -15zM172 391q42 0 62 26v220q-20 15 -54 15q-45 0 -71 -36t-26 -98q0 -59 23.5 -93t65.5 -34z" />
    <glyph glyph-name="r.superior" horiz-adv-x="213" 
d="M206 693v-64h-8q-37 0 -70 -24q-26 -19 -26 -63v-192h-56v339h56v-58q36 63 92 63q8 0 12 -1z" />
    <glyph glyph-name="s.superior" horiz-adv-x="248" 
d="M28 372l3 60q36 -46 91 -46q49 0 49 48q0 30 -27 47q-9 6 -31.5 17t-33.5 18q-50 30 -50 92q0 40 25 66.5t66 26.5q49 0 90 -31l-12 -55q-34 38 -76 38q-19 0 -30 -12t-11 -31q0 -31 24 -47q8 -5 31.5 -16.5t33.5 -17.5q53 -30 53 -93q0 -45 -27 -71.5t-75 -26.5
q-56 0 -93 34z" />
    <glyph glyph-name="t.superior" horiz-adv-x="205" 
d="M10 689h52v104l56 13v-117h79v-49h-79v-175q0 -48 8.5 -68.5t35.5 -39.5v-4l-62 -10q-20 13 -29 38t-9 77v182h-52v49z" />
    <glyph glyph-name="u.superior" horiz-adv-x="326" 
d="M41 689h56v-216q0 -75 53 -75q41 0 67 56q7 19 7 38v197h56v-333l-56 -14v59q-36 -59 -92 -59q-91 0 -91 122v225z" />
    <glyph glyph-name="v.superior" horiz-adv-x="282" 
d="M3 689h59l73 -263l85 263h59l-118 -339h-56z" />
    <glyph glyph-name="w.superior" horiz-adv-x="441" 
d="M196 689h50l54 -262l81 262h56l-114 -339h-53l-51 246l-65 -246h-53l-98 339h56l69 -264z" />
    <glyph glyph-name="x.superior" horiz-adv-x="307" 
d="M294 689l-109 -163l110 -176h-65l-79 137l-85 -137h-64l115 172l-103 167h64l72 -129l80 129h64z" />
    <glyph glyph-name="y.superior" horiz-adv-x="282" 
d="M29 188q49 67 83 162l-109 339h60l75 -257l81 257h60l-119 -348q-35 -103 -65 -156h-66v3z" />
    <glyph glyph-name="z.superior" horiz-adv-x="291" 
d="M264 350h-257l182 285h-158l5 54h243l-182 -285h175z" />
    <glyph glyph-name="zero.numerator" horiz-adv-x="304" 
d="M152 350q-55 0 -89 54t-34 152t34 152t89 54t89 -54t34 -152t-34 -152t-89 -54zM152 400q31 0 49 41t18 115t-18 115t-49 41q-32 0 -49.5 -40.5t-17.5 -115.5q0 -74 17.5 -115t49.5 -41z" />
    <glyph glyph-name="one.numerator" horiz-adv-x="213" 
d="M140 360h-56v343l-72 -4l7 53h121v-392z" />
    <glyph glyph-name="two.numerator" horiz-adv-x="281" 
d="M179 501q-39 -49 -80 -90h153l-6 -51h-217v48q54 49 103 114q49 67 49 121q0 28 -14.5 46.5t-40.5 18.5q-46 0 -88 -43l9 67q33 30 86 30q50 0 77.5 -31t27.5 -79q0 -77 -59 -151z" />
    <glyph glyph-name="three.numerator" horiz-adv-x="278" 
d="M229 661q0 -63 -50 -90q64 -25 64 -100q0 -56 -34 -88.5t-89 -32.5q-57 0 -88 21l-2 61q35 -28 87 -28q33 0 51.5 19t18.5 49q0 31 -18 50t-50 19q-37 0 -68 -7l11 57q22 -2 39 -2q33 0 52.5 16.5t19.5 48.5q0 24 -15 39.5t-42 15.5q-41 0 -71 -23l12 61q27 15 72 15
q47 0 73.5 -28.5t26.5 -72.5z" />
    <glyph glyph-name="four.numerator" horiz-adv-x="295" 
d="M178 360v105h-162v32l155 255h59v-239h57v-48h-57v-105h-52zM67 513h111v181z" />
    <glyph glyph-name="five.numerator" horiz-adv-x="284" 
d="M246 752l-7 -49h-136l-10 -84q14 2 24 2q59 0 93 -34.5t34 -86.5q0 -74 -46 -114t-135 -40q-20 0 -30 2l7 56q18 -3 41 -3q52 0 80 26t28 70q0 34 -22 55.5t-63 21.5q-31 0 -61 -8l19 186h184z" />
    <glyph glyph-name="six.numerator" horiz-adv-x="284" 
d="M230 709q-62 -7 -100 -42.5t-51 -92.5q27 31 70 31q49 0 79 -33.5t30 -91.5q0 -55 -31.5 -92.5t-81.5 -37.5q-57 0 -88 43t-31 121q0 100 52.5 169.5t160.5 80.5zM142 561q-43 0 -70 -40v-10q0 -54 20 -83t56 -29q25 0 42 24t17 58q0 35 -18.5 57.5t-46.5 22.5z" />
    <glyph glyph-name="seven.numerator" horiz-adv-x="259" 
d="M64 360q40 153 114 342l-166 -4l18 54h213q-86 -239 -116 -392h-63z" />
    <glyph glyph-name="eight.numerator" horiz-adv-x="300" 
d="M267 464q0 -48 -31.5 -81t-86.5 -33t-85.5 30t-30.5 81q0 69 64 99q-54 29 -54 96q0 44 30 75t76 31q48 0 75 -29.5t27 -72.5q0 -59 -53 -90q69 -28 69 -106zM214 466q0 58 -74 77q-26 -10 -40.5 -32t-14.5 -48q0 -27 17 -45.5t47 -18.5q31 0 48 19t17 48zM96 658
q0 -28 13.5 -44.5t48.5 -29.5q41 23 41 70q0 25 -13.5 42t-36.5 17t-38 -16t-15 -39z" />
    <glyph glyph-name="nine.numerator" horiz-adv-x="287" 
d="M93 343l-32 45q104 49 133 129q-21 -12 -46 -12q-54 0 -87.5 34.5t-33.5 92.5q0 56 30 93t80 37q56 0 88 -43.5t32 -119.5q0 -175 -164 -256zM157 549q28 0 48 14q3 18 3 37q0 52 -18.5 81.5t-52.5 29.5q-30 0 -45.5 -22.5t-15.5 -57.5q0 -37 23 -59.5t58 -22.5z" />
    <glyph glyph-name="zero.denominator" horiz-adv-x="304" 
d="M152 -10q-55 0 -89 54t-34 152t34 152t89 54t89 -54t34 -152t-34 -152t-89 -54zM152 40q31 0 49 41t18 115t-18 115t-49 41q-32 0 -49.5 -40.5t-17.5 -115.5q0 -74 17.5 -115t49.5 -41z" />
    <glyph glyph-name="one.denominator" horiz-adv-x="213" 
d="M140 0h-56v343l-72 -4l7 53h121v-392z" />
    <glyph glyph-name="two.denominator" horiz-adv-x="281" 
d="M179 141q-39 -49 -80 -90h153l-6 -51h-217v48q54 49 103 114q49 67 49 121q0 28 -14.5 46.5t-40.5 18.5q-46 0 -88 -43l9 67q33 30 86 30q50 0 77.5 -31t27.5 -79q0 -77 -59 -151z" />
    <glyph glyph-name="three.denominator" horiz-adv-x="278" 
d="M229 301q0 -63 -50 -90q64 -25 64 -100q0 -56 -34 -88.5t-89 -32.5q-57 0 -88 21l-2 61q35 -28 87 -28q33 0 51.5 19t18.5 49q0 31 -18 50t-50 19q-37 0 -68 -7l11 57q22 -2 39 -2q33 0 52.5 16.5t19.5 48.5q0 24 -15 39.5t-42 15.5q-41 0 -71 -23l12 61q27 15 72 15
q47 0 73.5 -28.5t26.5 -72.5z" />
    <glyph glyph-name="four.denominator" horiz-adv-x="295" 
d="M178 0v105h-162v32l155 255h59v-239h57v-48h-57v-105h-52zM67 153h111v181z" />
    <glyph glyph-name="five.denominator" horiz-adv-x="284" 
d="M246 392l-7 -49h-136l-10 -84q14 2 24 2q59 0 93 -34.5t34 -86.5q0 -74 -46 -114t-135 -40q-20 0 -30 2l7 56q18 -3 41 -3q52 0 80 26t28 70q0 34 -22 55.5t-63 21.5q-31 0 -61 -8l19 186h184z" />
    <glyph glyph-name="six.denominator" horiz-adv-x="284" 
d="M230 349q-62 -7 -100 -42.5t-51 -92.5q27 31 70 31q49 0 79 -33.5t30 -91.5q0 -55 -31.5 -92.5t-81.5 -37.5q-57 0 -88 43t-31 121q0 100 52.5 169.5t160.5 80.5zM142 201q-43 0 -70 -40v-10q0 -54 20 -83t56 -29q25 0 42 24t17 58q0 35 -18.5 57.5t-46.5 22.5z" />
    <glyph glyph-name="seven.denominator" horiz-adv-x="259" 
d="M64 0q40 153 114 342l-166 -4l18 54h213q-86 -239 -116 -392h-63z" />
    <glyph glyph-name="eight.denominator" horiz-adv-x="300" 
d="M267 104q0 -48 -31.5 -81t-86.5 -33t-85.5 30t-30.5 81q0 69 64 99q-54 29 -54 96q0 44 30 75t76 31q48 0 75 -29.5t27 -72.5q0 -59 -53 -90q69 -28 69 -106zM214 106q0 58 -74 77q-26 -10 -40.5 -32t-14.5 -48q0 -27 17 -45.5t47 -18.5q31 0 48 19t17 48zM96 298
q0 -28 13.5 -44.5t48.5 -29.5q41 23 41 70q0 25 -13.5 42t-36.5 17t-38 -16t-15 -39z" />
    <glyph glyph-name="nine.denominator" horiz-adv-x="287" 
d="M93 -17l-32 45q104 49 133 129q-21 -12 -46 -12q-54 0 -87.5 34.5t-33.5 92.5q0 56 30 93t80 37q56 0 88 -43.5t32 -119.5q0 -175 -164 -256zM157 189q28 0 48 14q3 18 3 37q0 52 -18.5 81.5t-52.5 29.5q-30 0 -45.5 -22.5t-15.5 -57.5q0 -37 23 -59.5t58 -22.5z" />
    <glyph glyph-name="zero.scprop" horiz-adv-x="448" 
d="M224 -15q-82 0 -131.5 71.5t-49.5 202.5t49 201.5t132 70.5t132 -70.5t49 -201.5t-49.5 -202.5t-131.5 -71.5zM224 52q48 0 75.5 54t27.5 153q0 100 -27.5 152.5t-75.5 52.5t-75.5 -52.5t-27.5 -152.5q0 -99 27.5 -153t75.5 -54z" />
    <glyph glyph-name="one.scprop" horiz-adv-x="261" 
d="M184 0h-75v446l-86 -4l9 76h152v-518z" />
    <glyph glyph-name="two.scprop" horiz-adv-x="395" 
d="M242 183q-46 -58 -103 -114h209l-8 -69h-295v62q76 72 139 152q37 47 51 82.5t14 74.5t-20 64.5t-56 25.5q-67 0 -121 -53l13 87q52 36 125 36q64 0 99 -42t35 -105q0 -97 -82 -201z" />
    <glyph glyph-name="three.scprop" horiz-adv-x="379" 
d="M309 399q0 -91 -75 -124q89 -36 89 -134q0 -70 -43 -112.5t-112 -42.5q-78 0 -119 27l-2 75q48 -34 110 -34q42 0 66 26t24 66q0 41 -23.5 66t-66.5 25q-52 0 -88 -9l12 71q15 -3 54 -3q45 0 71.5 23.5t26.5 66.5q0 33 -18.5 55t-51.5 22q-61 0 -103 -34l15 80
q44 22 103 22q61 0 96 -37.5t35 -94.5z" />
    <glyph glyph-name="four.scprop" horiz-adv-x="428" 
d="M245 0v135h-221v42l210 341h81v-320h67v-63h-67v-135h-70zM96 198h149v244z" />
    <glyph glyph-name="five.scprop" horiz-adv-x="372" 
d="M310 518l-9 -64h-160l-12 -120q16 2 30 2q76 0 118 -45t42 -115q0 -103 -64.5 -156.5t-188.5 -53.5q-17 0 -25 1l9 73q18 -3 42 -3q75 0 115 36t40 99q0 45 -30 75t-83 30q-40 0 -76 -9l25 250h227z" />
    <glyph glyph-name="six.scprop" horiz-adv-x="417" 
d="M324 477q-81 -7 -133 -55t-72 -125q42 39 98 39q68 0 109.5 -46.5t41.5 -124.5q0 -75 -44.5 -127t-115.5 -52q-81 0 -124.5 58t-43.5 161q0 138 76.5 237.5t218.5 110.5zM200 281q-52 0 -91 -42q-1 -12 -1 -36q0 -73 26 -112.5t75 -39.5q36 0 60.5 32.5t24.5 82.5
q0 51 -26 83t-68 32z" />
    <glyph glyph-name="seven.scprop" horiz-adv-x="352" 
d="M40 518h286q-111 -314 -143 -518h-83q45 215 140 452l-224 -5z" />
    <glyph glyph-name="eight.scprop" horiz-adv-x="414" 
d="M362 136q0 -65 -41 -107t-112 -42q-76 0 -116.5 39.5t-40.5 106.5q0 87 91 128q-75 41 -75 130q0 59 40 99.5t101 40.5q64 0 101 -38.5t37 -97.5q0 -81 -74 -126q89 -40 89 -133zM291 142q0 37 -20.5 60.5t-66.5 38.5q-40 -12 -61 -39t-21 -62q0 -39 22.5 -64t64.5 -25
q39 0 60.5 26t21.5 65zM136 389q0 -38 17 -59.5t61 -40.5q65 32 65 96q0 36 -19.5 59t-50.5 23q-32 0 -52.5 -22t-20.5 -56z" />
    <glyph glyph-name="nine.scprop" horiz-adv-x="400" 
d="M147 -22l-51 58q129 69 169 174q-31 -23 -72 -23q-69 0 -111.5 46t-42.5 124q0 73 42.5 124t109.5 51q75 0 118.5 -56.5t43.5 -157.5q0 -226 -206 -340zM209 243q42 0 71 30q3 21 3 45q0 69 -24.5 108t-69.5 39q-34 0 -55 -30t-21 -77q0 -52 26.5 -83.5t69.5 -31.5z" />
    <glyph glyph-name="zero.sctab" horiz-adv-x="387" 
d="M193 -15q-79 0 -126.5 71.5t-47.5 202.5t47.5 201.5t126.5 70.5q80 0 127.5 -70.5t47.5 -201.5t-48 -202.5t-127 -71.5zM193 52q47 0 73.5 53.5t26.5 153.5q0 99 -26.5 152t-73.5 53t-73 -52.5t-26 -152.5t26.5 -153.5t72.5 -53.5z" />
    <glyph glyph-name="one.sctab" horiz-adv-x="387" 
d="M80 0v69h89v377l-86 -4l9 76h152v-449h87v-69h-251z" />
    <glyph glyph-name="two.sctab" horiz-adv-x="387" 
d="M238 183q-46 -58 -103 -114h209l-8 -69h-295v62q76 72 139 152q37 47 51 82.5t14 74.5t-20 64.5t-56 25.5q-67 0 -121 -53l13 87q52 36 125 36q64 0 99 -42t35 -105q0 -97 -82 -201z" />
    <glyph glyph-name="three.sctab" horiz-adv-x="387" 
d="M316 399q0 -91 -75 -124q89 -36 89 -134q0 -70 -43 -112.5t-112 -42.5q-78 0 -119 27l-2 75q48 -34 110 -34q42 0 66 26t24 66q0 41 -23.5 66t-66.5 25q-52 0 -88 -9l12 71q15 -3 54 -3q45 0 71.5 23.5t26.5 66.5q0 33 -18.5 55t-51.5 22q-61 0 -103 -34l15 80
q44 22 103 22q61 0 96 -37.5t35 -94.5z" />
    <glyph glyph-name="four.sctab" horiz-adv-x="387" 
d="M234 0v135h-221v42l210 341h81v-320h67v-63h-67v-135h-70zM85 198h149v244z" />
    <glyph glyph-name="five.sctab" horiz-adv-x="387" 
d="M323 518l-9 -64h-160l-12 -120q16 2 30 2q76 0 118 -45t42 -115q0 -103 -64.5 -156.5t-188.5 -53.5q-17 0 -25 1l9 73q18 -3 42 -3q75 0 115 36t40 99q0 45 -30 75t-83 30q-40 0 -76 -9l25 250h227z" />
    <glyph glyph-name="six.sctab" horiz-adv-x="387" 
d="M313 477q-81 -7 -133 -55t-72 -125q42 39 98 39q68 0 109.5 -46.5t41.5 -124.5q0 -75 -44.5 -127t-115.5 -52q-81 0 -124.5 58t-43.5 161q0 138 76.5 237.5t218.5 110.5zM189 281q-52 0 -91 -42q-1 -12 -1 -36q0 -73 26 -112.5t75 -39.5q36 0 60.5 32.5t24.5 82.5
q0 51 -26 83t-68 32z" />
    <glyph glyph-name="seven.sctab" horiz-adv-x="387" 
d="M51 518h293q-111 -314 -143 -518h-83q47 220 138 449l-230 -4z" />
    <glyph glyph-name="eight.sctab" horiz-adv-x="387" 
d="M348 136q0 -65 -41 -107t-112 -42q-76 0 -116.5 39.5t-40.5 106.5q0 87 91 128q-75 41 -75 130q0 59 40 99.5t101 40.5q64 0 101 -38.5t37 -97.5q0 -81 -74 -126q89 -40 89 -133zM277 142q0 37 -20.5 60.5t-66.5 38.5q-40 -12 -61 -39t-21 -62q0 -39 22.5 -64t64.5 -25
q39 0 60.5 26t21.5 65zM122 389q0 -38 17 -59.5t61 -40.5q65 32 65 96q0 36 -19.5 59t-50.5 23q-32 0 -52.5 -22t-20.5 -56z" />
    <glyph glyph-name="nine.sctab" horiz-adv-x="387" 
d="M142 -22l-51 58q129 69 169 174q-31 -23 -72 -23q-69 0 -111.5 46t-42.5 124q0 73 42.5 124t109.5 51q75 0 118.5 -56.5t43.5 -157.5q0 -226 -206 -340zM204 243q42 0 71 30q3 21 3 45q0 69 -24.5 108t-69.5 39q-34 0 -55 -30t-21 -77q0 -52 26.5 -83.5t69.5 -31.5z" />
    <glyph glyph-name="a.sc" horiz-adv-x="457" 
d="M376 0l-60 177h-172l-63 -177h-78l195 513l68 12l188 -525h-78zM233 422l-70 -185h136z" />
    <glyph glyph-name="b.sc" horiz-adv-x="416" 
d="M289 280q85 -30 85 -133q0 -68 -42.5 -107.5t-115.5 -39.5h-143v518h145q66 0 100.5 -35t34.5 -91q0 -36 -17 -67t-47 -45zM148 243v-181h60q44 0 66.5 26t22.5 65q0 40 -22 65t-65 25h-62zM148 456v-156h61q34 0 52 23.5t18 57.5q0 33 -18 54t-54 21h-59z" />
    <glyph glyph-name="c.sc" horiz-adv-x="430" 
d="M395 126l-10 -96q-54 -43 -126 -43q-101 0 -162.5 74t-61.5 197q0 120 62 196.5t158 76.5q80 0 134 -41l-10 -84h-2q-40 52 -115 52q-67 0 -107.5 -55.5t-40.5 -144.5q0 -92 42.5 -145t109.5 -53q73 0 126 66h3z" />
    <glyph glyph-name="d.sc" horiz-adv-x="475" 
d="M207 0h-134v518h135q110 0 170.5 -68.5t60.5 -181.5q0 -131 -59 -199.5t-173 -68.5zM148 451v-384h54q159 0 159 200q0 81 -41.5 132.5t-116.5 51.5h-55z" />
    <glyph glyph-name="e.sc" horiz-adv-x="380" 
d="M148 452v-149h160v-66h-160v-171h185v-66h-260v518h252v-66h-177z" />
    <glyph glyph-name="f.sc" horiz-adv-x="354" 
d="M148 449v-159h160v-69h-160v-221h-75v518h260v-69h-185z" />
    <glyph glyph-name="g.sc" horiz-adv-x="463" 
d="M416 254v-189q-64 -78 -162 -78q-96 0 -157.5 75t-61.5 198q0 117 61.5 194t162.5 77q83 0 142 -52l-13 -81h-3q-48 64 -126 64q-66 0 -105.5 -57t-39.5 -146q0 -93 39.5 -148.5t103.5 -55.5q53 0 84 37v162h75z" />
    <glyph glyph-name="h.sc" horiz-adv-x="509" 
d="M148 0h-75v518h75v-211h213v211h76v-518h-76v237h-213v-237z" />
    <glyph glyph-name="i.sc" horiz-adv-x="220" 
d="M148 0h-75v518h75v-518z" />
    <glyph glyph-name="j.sc" horiz-adv-x="221" 
d="M75 518h75v-397q0 -113 -14.5 -178t-49.5 -108l-112 -36l-3 7q59 43 81.5 107.5t22.5 197.5v407z" />
    <glyph glyph-name="k.sc" horiz-adv-x="481" 
d="M148 0h-75v518h75v-241l207 241h98l-222 -250l245 -268h-102l-226 254v-254z" />
    <glyph glyph-name="l.sc" horiz-adv-x="375" 
d="M73 0v518h75v-448h219v-70h-294z" />
    <glyph glyph-name="m.sc" horiz-adv-x="628" 
d="M555 0h-67v385l-157 -385h-39l-153 382v-382h-66v518h82l157 -393l161 393h82v-518z" />
    <glyph glyph-name="n.sc" horiz-adv-x="547" 
d="M73 518h66l263 -388v388h72v-518h-66l-263 389v-389h-72v518z" />
    <glyph glyph-name="o.sc" horiz-adv-x="496" 
d="M382 256q0 90 -38 148.5t-96 58.5q-59 0 -96.5 -58.5t-37.5 -148.5q0 -88 37.5 -145.5t96.5 -57.5t96.5 57.5t37.5 145.5zM460 256q0 -119 -59 -195t-153 -76q-95 0 -154 76t-59 195q0 122 59.5 198.5t153.5 76.5t153 -76.5t59 -198.5z" />
    <glyph glyph-name="p.sc" horiz-adv-x="389" 
d="M148 0h-75v518h125q80 0 124 -40.5t44 -117.5q0 -86 -45.5 -129.5t-131.5 -43.5h-41v-187zM148 457v-209h39q53 0 77.5 26.5t24.5 83.5q0 48 -26 73.5t-75 25.5h-40z" />
    <glyph glyph-name="q.sc" horiz-adv-x="481" 
d="M240 -1q-23 0 -44 6v-1q60 -37 106 -55t101 -21l-23 -76q-46 6 -93 27t-119 69q-23 15 -63 33l30 57q-45 36 -72.5 97.5t-27.5 134.5q0 112 58.5 186.5t146.5 74.5q89 0 147.5 -74t58.5 -187q0 -117 -58.5 -194t-147.5 -77zM367 270q0 84 -35.5 138.5t-91.5 54.5
t-91 -54.5t-35 -138.5q0 -86 36.5 -144.5t89.5 -58.5q57 0 92 56.5t35 146.5z" />
    <glyph glyph-name="r.sc" horiz-adv-x="430" 
d="M73 0v518h144q72 0 111 -37.5t39 -110.5q0 -111 -90 -148l146 -222h-89l-127 207q-26 -2 -40 -2h-19v-205h-75zM148 458v-199h17q64 0 95 25.5t31 82.5q0 43 -22 67t-64 24h-57z" />
    <glyph glyph-name="s.sc" horiz-adv-x="367" 
d="M42 111q55 -55 130 -55q38 0 59 21t21 57q0 34 -18.5 57t-64.5 43q-65 27 -93 63t-28 95q0 61 37.5 100t99.5 39q61 0 115 -28v-84q-54 47 -113 47q-33 0 -50.5 -19.5t-17.5 -51.5q0 -31 17.5 -51.5t63.5 -41.5q67 -31 96 -68.5t29 -94.5q0 -74 -42 -113t-112 -39
q-77 0 -121 30z" />
    <glyph glyph-name="t.sc" horiz-adv-x="402" 
d="M239 0h-75v448h-154v70h383v-70h-154v-448z" />
    <glyph glyph-name="u.sc" horiz-adv-x="490" 
d="M68 518h75v-316q0 -72 27.5 -108t74.5 -36q45 0 73.5 36.5t28.5 107.5v316h75v-316q0 -108 -50 -162.5t-127 -54.5q-79 0 -128 54t-49 163v316z" />
    <glyph glyph-name="v.sc" horiz-adv-x="456" 
d="M6 518h81l137 -408l144 408h82l-195 -518h-63z" />
    <glyph glyph-name="w.sc" horiz-adv-x="643" 
d="M402 0l-82 258l-86 -258h-60l-168 518h77l123 -402l82 246l-49 156h77l117 -398l127 398h77l-174 -518h-61z" />
    <glyph glyph-name="x.sc" horiz-adv-x="481" 
d="M3 0l189 276l-157 242h90l112 -189l117 189h89l-163 -242l187 -276h-90l-141 224l-144 -224h-89z" />
    <glyph glyph-name="y.sc" horiz-adv-x="445" 
d="M443 518l-188 -297v-221h-76v221l-177 297h87l129 -230l138 230h87z" />
    <glyph glyph-name="z.sc" horiz-adv-x="441" 
d="M410 0h-400l281 446h-256l7 72h375l-283 -446h288z" />
    <glyph glyph-name="agrave.sc" horiz-adv-x="457" 
d="M376 0l-60 177h-172l-63 -177h-78l195 513l68 12l188 -525h-78zM233 422l-70 -185h136zM240 610l-111 161h84l63 -161h-36z" />
    <glyph glyph-name="aacute.sc" horiz-adv-x="457" 
d="M376 0l-60 177h-172l-63 -177h-78l195 513l68 12l188 -525h-78zM233 422l-70 -185h136zM339 771l-110 -161h-37l63 161h84z" />
    <glyph glyph-name="acircumflex.sc" horiz-adv-x="457" 
d="M376 0l-60 177h-172l-63 -177h-78l195 513l68 12l188 -525h-78zM233 422l-70 -185h136zM301 610l-67 93l-67 -93h-41l84 161h48l84 -161h-41z" />
    <glyph glyph-name="atilde.sc" horiz-adv-x="457" 
d="M376 0l-60 177h-172l-63 -177h-78l195 513l68 12l188 -525h-78zM233 422l-70 -185h136zM188 675q-17 0 -28 -16t-14 -41l-29 8q4 54 25 85t50 31q18 0 51.5 -18.5t45.5 -18.5q35 0 42 57l29 -8q-4 -54 -24.5 -85t-50.5 -31q-18 0 -51.5 18.5t-45.5 18.5z" />
    <glyph glyph-name="adieresis.sc" horiz-adv-x="457" 
d="M376 0l-60 177h-172l-63 -177h-78l195 513l68 12l188 -525h-78zM233 422l-70 -185h136zM114 686q0 19 13 32.5t32 13.5q18 0 31.5 -13.5t13.5 -32.5q0 -18 -13.5 -31.5t-31.5 -13.5q-19 0 -32 13.5t-13 31.5zM264 686q0 19 13 32.5t32 13.5q18 0 31.5 -13.5t13.5 -32.5
q0 -18 -13.5 -31.5t-31.5 -13.5q-19 0 -32 13.5t-13 31.5z" />
    <glyph glyph-name="amacron.sc" horiz-adv-x="457" 
d="M376 0l-60 177h-172l-63 -177h-78l195 513l68 12l188 -525h-78zM233 422l-70 -185h136zM341 718v-63h-216v63h216z" />
    <glyph glyph-name="abreve.sc" horiz-adv-x="457" 
d="M376 0l-60 177h-172l-63 -177h-78l195 513l68 12l188 -525h-78zM233 422l-70 -185h136zM234 678q64 0 64 86h37q0 -65 -24.5 -106t-76.5 -41q-101 0 -101 147h36q0 -86 65 -86z" />
    <glyph glyph-name="aring.sc" horiz-adv-x="457" 
d="M376 0l-60 177h-172l-63 -177h-78l195 513l68 12l188 -525h-78zM233 422l-70 -185h136zM134 696q0 41 29.5 70.5t70.5 29.5t70 -29.5t29 -70.5q0 -40 -29.5 -69.5t-69.5 -29.5q-41 0 -70.5 29.5t-29.5 69.5zM176 696q0 -24 17 -41t41 -17t41 17t17 41t-17 41t-41 17
t-41 -17t-17 -41z" />
    <glyph glyph-name="aogonek.sc" horiz-adv-x="457" 
d="M376 0l-60 177h-172l-63 -177h-78l195 513l68 12l188 -525q-54 -44 -74 -75.5t-20 -64.5q0 -37 32 -37q31 0 52 28h2l-5 -69q-25 -19 -63 -19t-60 22.5t-22 63.5q0 35 17.5 68t63.5 83h-1zM233 422l-70 -185h136z" />
    <glyph glyph-name="ae.sc" horiz-adv-x="587" 
d="M354 452v-149h161v-66h-161v-171h186v-66h-261v164h-141l-75 -164h-80l242 518h307v-66h-178zM271 452l-102 -222h110v222h-8z" />
    <glyph glyph-name="cacute.sc" horiz-adv-x="430" 
d="M388 126l-10 -96q-54 -43 -126 -43q-101 0 -162.5 74t-61.5 197q0 120 62 196.5t158 76.5q80 0 134 -41l-10 -84h-2q-40 52 -115 52q-67 0 -107.5 -55.5t-40.5 -144.5q0 -92 42.5 -145t109.5 -53q73 0 126 66h3zM345 771l-110 -161h-37l63 161h84z" />
    <glyph glyph-name="ccircumflex.sc" horiz-adv-x="430" 
d="M388 126l-10 -96q-54 -43 -126 -43q-101 0 -162.5 74t-61.5 197q0 120 62 196.5t158 76.5q80 0 134 -41l-10 -84h-2q-40 52 -115 52q-67 0 -107.5 -55.5t-40.5 -144.5q0 -92 42.5 -145t109.5 -53q73 0 126 66h3zM307 610l-67 93l-67 -93h-41l84 161h48l84 -161h-41z" />
    <glyph glyph-name="ccaron.sc" horiz-adv-x="430" 
d="M388 126l-10 -96q-54 -43 -126 -43q-101 0 -162.5 74t-61.5 197q0 120 62 196.5t158 76.5q80 0 134 -41l-10 -84h-2q-40 52 -115 52q-67 0 -107.5 -55.5t-40.5 -144.5q0 -92 42.5 -145t109.5 -53q73 0 126 66h3zM132 771h41l68 -94l66 94h41l-84 -161h-48z" />
    <glyph glyph-name="ccedilla.sc" horiz-adv-x="430" 
d="M388 126l-10 -96q-47 -38 -115 -43l-19 -46q8 3 18 3q31 0 50 -20.5t19 -54.5q0 -39 -25.5 -64.5t-65.5 -25.5q-44 0 -66 24l4 50q19 -29 57 -29q21 0 31.5 12t10.5 30q0 40 -44 40q-21 0 -35 -6l-2 2l33 87q-92 8 -146.5 80.5t-54.5 188.5q0 120 62 196.5t158 76.5
q80 0 134 -41l-10 -84h-2q-40 52 -115 52q-67 0 -107.5 -55.5t-40.5 -144.5q0 -92 42.5 -145t109.5 -53q73 0 126 66h3z" />
    <glyph glyph-name="cdotaccent.sc" horiz-adv-x="430" 
d="M388 126l-10 -96q-54 -43 -126 -43q-101 0 -162.5 74t-61.5 197q0 120 62 196.5t158 76.5q80 0 134 -41l-10 -84h-2q-40 52 -115 52q-67 0 -107.5 -55.5t-40.5 -144.5q0 -92 42.5 -145t109.5 -53q73 0 126 66h3zM189 689q0 21 14.5 35.5t35.5 14.5t35.5 -15t14.5 -35
q0 -21 -14.5 -36t-35.5 -15t-35.5 15t-14.5 36z" />
    <glyph glyph-name="dcaron.sc" horiz-adv-x="475" 
d="M207 0h-134v518h135q110 0 170.5 -68.5t60.5 -181.5q0 -131 -59 -199.5t-173 -68.5zM148 451v-384h54q159 0 159 200q0 81 -41.5 132.5t-116.5 51.5h-55zM111 771h41l68 -94l66 94h41l-84 -161h-48z" />
    <glyph glyph-name="dcroat.sc" horiz-adv-x="475" 
d="M207 0h-134v239h-50v54h50v225h135q110 0 170.5 -68.5t60.5 -181.5q0 -131 -59 -199.5t-173 -68.5zM148 451v-158h90v-54h-90v-172h54q159 0 159 200q0 81 -41.5 132.5t-116.5 51.5h-55z" />
    <glyph glyph-name="eth.sc" horiz-adv-x="475" 
d="M207 0h-134v239h-50v54h50v225h135q110 0 170.5 -68.5t60.5 -181.5q0 -131 -59 -199.5t-173 -68.5zM148 451v-158h90v-54h-90v-172h54q159 0 159 200q0 81 -41.5 132.5t-116.5 51.5h-55z" />
    <glyph glyph-name="egrave.sc" horiz-adv-x="380" 
d="M148 452v-149h160v-66h-160v-171h185v-66h-260v518h252v-66h-177zM206 610l-111 161h84l63 -161h-36z" />
    <glyph glyph-name="eacute.sc" horiz-adv-x="380" 
d="M148 452v-149h160v-66h-160v-171h185v-66h-260v518h252v-66h-177zM305 771l-110 -161h-37l63 161h84z" />
    <glyph glyph-name="ecircumflex.sc" horiz-adv-x="380" 
d="M148 452v-149h160v-66h-160v-171h185v-66h-260v518h252v-66h-177zM267 610l-67 93l-67 -93h-41l84 161h48l84 -161h-41z" />
    <glyph glyph-name="edieresis.sc" horiz-adv-x="380" 
d="M148 452v-149h160v-66h-160v-171h185v-66h-260v518h252v-66h-177zM80 686q0 19 13 32.5t32 13.5q18 0 31.5 -13.5t13.5 -32.5q0 -18 -13.5 -31.5t-31.5 -13.5q-19 0 -32 13.5t-13 31.5zM230 686q0 19 13 32.5t32 13.5q18 0 31.5 -13.5t13.5 -32.5q0 -18 -13.5 -31.5
t-31.5 -13.5q-19 0 -32 13.5t-13 31.5z" />
    <glyph glyph-name="emacron.sc" horiz-adv-x="380" 
d="M148 452v-149h160v-66h-160v-171h185v-66h-260v518h252v-66h-177zM307 718v-63h-216v63h216z" />
    <glyph glyph-name="ebreve.sc" horiz-adv-x="380" 
d="M148 452v-149h160v-66h-160v-171h185v-66h-260v518h252v-66h-177zM200 678q64 0 64 86h37q0 -65 -24.5 -106t-76.5 -41q-101 0 -101 147h36q0 -86 65 -86z" />
    <glyph glyph-name="edotaccent.sc" horiz-adv-x="380" 
d="M148 452v-149h160v-66h-160v-171h185v-66h-260v518h252v-66h-177zM149 689q0 21 14.5 35.5t35.5 14.5t35.5 -15t14.5 -35q0 -21 -14.5 -36t-35.5 -15t-35.5 15t-14.5 36z" />
    <glyph glyph-name="ecaron.sc" horiz-adv-x="380" 
d="M148 452v-149h160v-66h-160v-171h185v-66h-260v518h252v-66h-177zM92 771h41l68 -94l66 94h41l-84 -161h-48z" />
    <glyph glyph-name="eogonek.sc" horiz-adv-x="380" 
d="M260 0h-187v518h252v-66h-177v-149h160v-66h-160v-171h185v-66q-51 -46 -69 -77t-18 -63q0 -38 31 -38q32 0 52 28h2l-5 -68q-25 -19 -63 -19t-60 22.5t-22 63.5q0 35 17 67.5t62 83.5z" />
    <glyph glyph-name="gcircumflex.sc" horiz-adv-x="463" 
d="M416 254v-189q-64 -78 -162 -78q-96 0 -157.5 75t-61.5 198q0 117 61.5 194t162.5 77q83 0 142 -52l-13 -81h-3q-48 64 -126 64q-66 0 -105.5 -57t-39.5 -146q0 -93 39.5 -148.5t103.5 -55.5q53 0 84 37v162h75zM311 610l-67 93l-67 -93h-41l84 161h48l84 -161h-41z" />
    <glyph glyph-name="gbreve.sc" horiz-adv-x="463" 
d="M416 254v-189q-64 -78 -162 -78q-96 0 -157.5 75t-61.5 198q0 117 61.5 194t162.5 77q83 0 142 -52l-13 -81h-3q-48 64 -126 64q-66 0 -105.5 -57t-39.5 -146q0 -93 39.5 -148.5t103.5 -55.5q53 0 84 37v162h75zM245 678q64 0 64 86h37q0 -65 -24.5 -106t-76.5 -41
q-101 0 -101 147h36q0 -86 65 -86z" />
    <glyph glyph-name="gdotaccent.sc" horiz-adv-x="463" 
d="M416 254v-189q-64 -78 -162 -78q-96 0 -157.5 75t-61.5 198q0 117 61.5 194t162.5 77q83 0 142 -52l-13 -81h-3q-48 64 -126 64q-66 0 -105.5 -57t-39.5 -146q0 -93 39.5 -148.5t103.5 -55.5q53 0 84 37v162h75zM194 689q0 21 14.5 35.5t35.5 14.5t35.5 -15t14.5 -35
q0 -21 -14.5 -36t-35.5 -15t-35.5 15t-14.5 36z" />
    <glyph glyph-name="gcommaaccent.sc" horiz-adv-x="463" 
d="M416 254v-189q-64 -78 -162 -78q-96 0 -157.5 75t-61.5 198q0 117 61.5 194t162.5 77q83 0 142 -52l-13 -81h-3q-48 64 -126 64q-66 0 -105.5 -57t-39.5 -146q0 -93 39.5 -148.5t103.5 -55.5q53 0 84 37v162h75zM280 -63q12 -27 12 -54q0 -54 -69 -120h-41q49 70 49 117
q0 18 -11 40z" />
    <glyph glyph-name="hcircumflex.sc" horiz-adv-x="509" 
d="M148 0h-75v518h75v-211h213v211h76v-518h-76v237h-213v-237zM322 610l-67 93l-67 -93h-41l84 161h48l84 -161h-41z" />
    <glyph glyph-name="hbar.sc" horiz-adv-x="509" 
d="M148 0h-75v381h-53v54h53v83h75v-83h213v83h76v-83h52v-54h-52v-381h-76v237h-213v-237zM148 307h213v74h-213v-74z" />
    <glyph glyph-name="igrave.sc" horiz-adv-x="220" 
d="M148 0h-75v518h75v-518zM116 610l-111 161h84l63 -161h-36z" />
    <glyph glyph-name="iacute.sc" horiz-adv-x="220" 
d="M148 0h-75v518h75v-518zM215 771l-110 -161h-37l63 161h84z" />
    <glyph glyph-name="icircumflex.sc" horiz-adv-x="220" 
d="M148 0h-75v518h75v-518zM177 610l-67 93l-67 -93h-41l84 161h48l84 -161h-41z" />
    <glyph glyph-name="itilde.sc" horiz-adv-x="220" 
d="M72 666q-16 0 -27.5 -15t-13.5 -39l-30 8q4 54 25 85t51 31q15 0 43 -17t38 -17q17 0 28 15t13 39l29 -8q-4 -54 -24.5 -85t-49.5 -31q-15 0 -43.5 17t-38.5 17zM148 0h-75v518h75v-518z" />
    <glyph glyph-name="idieresis.sc" horiz-adv-x="220" 
d="M-2 681q0 19 13.5 32t32.5 13q18 0 31.5 -13.5t13.5 -31.5t-13.5 -31.5t-31.5 -13.5q-19 0 -32.5 13.5t-13.5 31.5zM132 681q0 19 13.5 32t32.5 13q18 0 31.5 -13.5t13.5 -31.5t-13.5 -31.5t-31.5 -13.5q-19 0 -32.5 13.5t-13.5 31.5zM148 0h-75v518h75v-518z" />
    <glyph glyph-name="imacron.sc" horiz-adv-x="220" 
d="M206 712v-63h-191v63h191zM148 0h-75v518h75v-518z" />
    <glyph glyph-name="ibreve.sc" horiz-adv-x="221" 
d="M148 0h-75v518h75v-518zM111 678q64 0 64 86h37q0 -65 -24.5 -106t-76.5 -41q-101 0 -101 147h36q0 -86 65 -86z" />
    <glyph glyph-name="idotaccent.sc" horiz-adv-x="220" 
d="M148 0h-75v518h75v-518zM59 689q0 21 14.5 35.5t35.5 14.5t35.5 -15t14.5 -35q0 -21 -14.5 -36t-35.5 -15t-35.5 15t-14.5 36z" />
    <glyph glyph-name="iogonek.sc" horiz-adv-x="220" 
d="M148 0q-40 -47 -55 -77.5t-15 -62.5q0 -37 32 -37q31 0 52 28h2l-5 -69q-25 -19 -63 -19t-60 22.5t-22 63.5q0 34 13 67t46 84v518h75v-518z" />
    <glyph glyph-name="ij.sc" horiz-adv-x="422" 
d="M148 0h-75v518h75v-518zM276 518h75v-397q0 -113 -14.5 -178t-49.5 -108l-112 -36l-3 7q59 43 81.5 107.5t22.5 197.5v407z" />
    <glyph glyph-name="jcircumflex.sc" horiz-adv-x="216" 
d="M71 518h75v-397q0 -113 -14.5 -178t-49.5 -108l-112 -36l-3 7q59 43 81.5 107.5t22.5 197.5v407zM175 610l-67 93l-67 -93h-41l84 161h48l84 -161h-41z" />
    <glyph glyph-name="kcommaaccent.sc" horiz-adv-x="481" 
d="M148 0h-75v518h75v-241l207 241h98l-222 -250l245 -268h-102l-226 254v-254zM276 -63q12 -27 12 -54q0 -54 -69 -120h-41q49 70 49 117q0 18 -11 40z" />
    <glyph glyph-name="lacute.sc" horiz-adv-x="375" 
d="M73 0v518h75v-448h219v-70h-294zM242 771l-110 -161h-37l63 161h84z" />
    <glyph glyph-name="lcaron.sc" horiz-adv-x="375" 
d="M73 0v518h75v-448h219v-70h-294zM278 527q11 -26 11 -61q0 -56 -57 -133h-33q31 77 31 127q0 25 -10 50z" />
    <glyph glyph-name="lcommaaccent.sc" horiz-adv-x="375" 
d="M73 0v518h75v-448h219v-70h-294zM247 -63q12 -27 12 -54q0 -54 -69 -120h-41q49 70 49 117q0 18 -11 40z" />
    <glyph glyph-name="ldot.sc" horiz-adv-x="375" 
d="M73 0v518h75v-448h219v-70h-294zM245 325q0 21 14.5 35.5t35.5 14.5t35.5 -15t14.5 -35q0 -21 -14.5 -36t-35.5 -15t-35.5 15t-14.5 36z" />
    <glyph glyph-name="lslash.sc" horiz-adv-x="375" 
d="M73 0v200l-53 -41v72l53 41v246h75v-197l98 78v-72l-98 -77v-180h219v-70h-294z" />
    <glyph glyph-name="nacute.sc" horiz-adv-x="547" 
d="M73 518h66l263 -388v388h72v-518h-66l-263 389v-389h-72v518zM379 771l-110 -161h-37l63 161h84z" />
    <glyph glyph-name="ncaron.sc" horiz-adv-x="547" 
d="M73 518h66l263 -388v388h72v-518h-66l-263 389v-389h-72v518zM166 771h41l68 -94l66 94h41l-84 -161h-48z" />
    <glyph glyph-name="ntilde.sc" horiz-adv-x="547" 
d="M73 518h66l263 -388v388h72v-518h-66l-263 389v-389h-72v518zM228 675q-17 0 -28 -16t-14 -41l-29 8q4 54 25 85t50 31q18 0 51.5 -18.5t45.5 -18.5q35 0 42 57l29 -8q-4 -54 -24.5 -85t-50.5 -31q-18 0 -51.5 18.5t-45.5 18.5z" />
    <glyph glyph-name="ncommaaccent.sc" horiz-adv-x="547" 
d="M73 518h66l263 -388v388h72v-518h-66l-263 389v-389h-72v518zM303 -63q12 -27 12 -54q0 -54 -69 -120h-41q49 70 49 117q0 18 -11 40z" />
    <glyph glyph-name="eng.sc" horiz-adv-x="547" 
d="M474 518v-581q0 -81 -32.5 -127.5t-90.5 -46.5q-36 0 -61 14l-6 70q22 -15 55 -15q63 0 63 110v67l-257 394v-403h-72v518h66l263 -401v401h72z" />
    <glyph glyph-name="ograve.sc" horiz-adv-x="496" 
d="M382 256q0 90 -38 148.5t-96 58.5q-59 0 -96.5 -58.5t-37.5 -148.5q0 -88 37.5 -145.5t96.5 -57.5t96.5 57.5t37.5 145.5zM460 256q0 -119 -59 -195t-153 -76q-95 0 -154 76t-59 195q0 122 59.5 198.5t153.5 76.5t153 -76.5t59 -198.5zM254 610l-111 161h84l63 -161h-36z
" />
    <glyph glyph-name="oacute.sc" horiz-adv-x="496" 
d="M382 256q0 90 -38 148.5t-96 58.5q-59 0 -96.5 -58.5t-37.5 -148.5q0 -88 37.5 -145.5t96.5 -57.5t96.5 57.5t37.5 145.5zM460 256q0 -119 -59 -195t-153 -76q-95 0 -154 76t-59 195q0 122 59.5 198.5t153.5 76.5t153 -76.5t59 -198.5zM353 771l-110 -161h-37l63 161h84z
" />
    <glyph glyph-name="ocircumflex.sc" horiz-adv-x="496" 
d="M382 256q0 90 -38 148.5t-96 58.5q-59 0 -96.5 -58.5t-37.5 -148.5q0 -88 37.5 -145.5t96.5 -57.5t96.5 57.5t37.5 145.5zM460 256q0 -119 -59 -195t-153 -76q-95 0 -154 76t-59 195q0 122 59.5 198.5t153.5 76.5t153 -76.5t59 -198.5zM315 610l-67 93l-67 -93h-41
l84 161h48l84 -161h-41z" />
    <glyph glyph-name="otilde.sc" horiz-adv-x="496" 
d="M382 256q0 90 -38 148.5t-96 58.5q-59 0 -96.5 -58.5t-37.5 -148.5q0 -88 37.5 -145.5t96.5 -57.5t96.5 57.5t37.5 145.5zM460 256q0 -119 -59 -195t-153 -76q-95 0 -154 76t-59 195q0 122 59.5 198.5t153.5 76.5t153 -76.5t59 -198.5zM202 675q-17 0 -28 -16t-14 -41
l-29 8q4 54 25 85t50 31q18 0 51.5 -18.5t45.5 -18.5q35 0 42 57l29 -8q-4 -54 -24.5 -85t-50.5 -31q-18 0 -51.5 18.5t-45.5 18.5z" />
    <glyph glyph-name="odieresis.sc" horiz-adv-x="496" 
d="M382 256q0 90 -38 148.5t-96 58.5q-59 0 -96.5 -58.5t-37.5 -148.5q0 -88 37.5 -145.5t96.5 -57.5t96.5 57.5t37.5 145.5zM460 256q0 -119 -59 -195t-153 -76q-95 0 -154 76t-59 195q0 122 59.5 198.5t153.5 76.5t153 -76.5t59 -198.5zM128 686q0 19 13 32.5t32 13.5
q18 0 31.5 -13.5t13.5 -32.5q0 -18 -13.5 -31.5t-31.5 -13.5q-19 0 -32 13.5t-13 31.5zM278 686q0 19 13 32.5t32 13.5q18 0 31.5 -13.5t13.5 -32.5q0 -18 -13.5 -31.5t-31.5 -13.5q-19 0 -32 13.5t-13 31.5z" />
    <glyph glyph-name="omacron.sc" horiz-adv-x="496" 
d="M382 256q0 90 -38 148.5t-96 58.5q-59 0 -96.5 -58.5t-37.5 -148.5q0 -88 37.5 -145.5t96.5 -57.5t96.5 57.5t37.5 145.5zM460 256q0 -119 -59 -195t-153 -76q-95 0 -154 76t-59 195q0 122 59.5 198.5t153.5 76.5t153 -76.5t59 -198.5zM356 718v-63h-216v63h216z" />
    <glyph glyph-name="obreve.sc" horiz-adv-x="496" 
d="M382 256q0 90 -38 148.5t-96 58.5q-59 0 -96.5 -58.5t-37.5 -148.5q0 -88 37.5 -145.5t96.5 -57.5t96.5 57.5t37.5 145.5zM460 256q0 -119 -59 -195t-153 -76q-95 0 -154 76t-59 195q0 122 59.5 198.5t153.5 76.5t153 -76.5t59 -198.5zM248 678q64 0 64 86h37
q0 -65 -24.5 -106t-76.5 -41q-101 0 -101 147h36q0 -86 65 -86z" />
    <glyph glyph-name="ohungarumlaut.sc" horiz-adv-x="496" 
d="M382 256q0 90 -38 148.5t-96 58.5q-59 0 -96.5 -58.5t-37.5 -148.5q0 -88 37.5 -145.5t96.5 -57.5t96.5 57.5t37.5 145.5zM460 256q0 -119 -59 -195t-153 -76q-95 0 -154 76t-59 195q0 122 59.5 198.5t153.5 76.5t153 -76.5t59 -198.5zM216 771h79l-93 -161h-36zM323 771
h80l-94 -161h-35z" />
    <glyph glyph-name="oslash.sc" horiz-adv-x="496" 
d="M460 256q0 -119 -59 -195t-153 -76q-63 0 -112 35l-18 -26l-48 17l29 43q-64 76 -64 202q0 122 59.5 198.5t153.5 76.5q65 0 115 -39l23 35l49 -17l-35 -54q60 -77 60 -200zM114 256q0 -82 30 -134l183 304q-35 37 -79 37q-59 0 -96.5 -58.5t-37.5 -148.5zM382 256
q0 75 -27 129l-181 -303q32 -29 74 -29q59 0 96.5 57.5t37.5 145.5z" />
    <glyph glyph-name="oe.sc" horiz-adv-x="609" 
d="M377 452v-149h160v-66h-160v-171h185v-66h-303q-99 0 -161.5 72t-62.5 187q0 114 63 186.5t161 72.5h295v-66h-177zM113 259q0 -86 42 -139.5t110 -53.5h37v386h-37q-68 0 -110 -53.5t-42 -139.5z" />
    <glyph glyph-name="racute.sc" horiz-adv-x="430" 
d="M73 0v518h144q72 0 111 -37.5t39 -110.5q0 -111 -90 -148l146 -222h-89l-127 207q-26 -2 -40 -2h-19v-205h-75zM148 458v-199h17q64 0 95 25.5t31 82.5q0 43 -22 67t-64 24h-57zM315 771l-110 -161h-37l63 161h84z" />
    <glyph glyph-name="rcaron.sc" horiz-adv-x="430" 
d="M73 0v518h144q72 0 111 -37.5t39 -110.5q0 -111 -90 -148l146 -222h-89l-127 207q-26 -2 -40 -2h-19v-205h-75zM148 458v-199h17q64 0 95 25.5t31 82.5q0 43 -22 67t-64 24h-57zM102 771h41l68 -94l66 94h41l-84 -161h-48z" />
    <glyph glyph-name="rcommaaccent.sc" horiz-adv-x="430" 
d="M73 0v518h144q72 0 111 -37.5t39 -110.5q0 -111 -90 -148l146 -222h-89l-127 207q-26 -2 -40 -2h-19v-205h-75zM148 458v-199h17q64 0 95 25.5t31 82.5q0 43 -22 67t-64 24h-57zM253 -63q12 -27 12 -54q0 -54 -69 -120h-41q49 70 49 117q0 18 -11 40z" />
    <glyph glyph-name="sacute.sc" horiz-adv-x="367" 
d="M42 111q55 -55 130 -55q38 0 59 21t21 57q0 34 -18.5 57t-64.5 43q-65 27 -93 63t-28 95q0 61 37.5 100t99.5 39q61 0 115 -28v-84q-54 47 -113 47q-33 0 -50.5 -19.5t-17.5 -51.5q0 -31 17.5 -51.5t63.5 -41.5q67 -31 96 -68.5t29 -94.5q0 -74 -42 -113t-112 -39
q-77 0 -121 30zM289 771l-110 -161h-37l63 161h84z" />
    <glyph glyph-name="scaron.sc" horiz-adv-x="367" 
d="M42 111q55 -55 130 -55q38 0 59 21t21 57q0 34 -18.5 57t-64.5 43q-65 27 -93 63t-28 95q0 61 37.5 100t99.5 39q61 0 115 -28v-84q-54 47 -113 47q-33 0 -50.5 -19.5t-17.5 -51.5q0 -31 17.5 -51.5t63.5 -41.5q67 -31 96 -68.5t29 -94.5q0 -74 -42 -113t-112 -39
q-77 0 -121 30zM77 771h41l68 -94l66 94h41l-84 -161h-48z" />
    <glyph glyph-name="scircumflex.sc" horiz-adv-x="367" 
d="M42 111q55 -55 130 -55q38 0 59 21t21 57q0 34 -18.5 57t-64.5 43q-65 27 -93 63t-28 95q0 61 37.5 100t99.5 39q61 0 115 -28v-84q-54 47 -113 47q-33 0 -50.5 -19.5t-17.5 -51.5q0 -31 17.5 -51.5t63.5 -41.5q67 -31 96 -68.5t29 -94.5q0 -74 -42 -113t-112 -39
q-77 0 -121 30zM252 610l-67 93l-67 -93h-41l84 161h48l84 -161h-41z" />
    <glyph glyph-name="scedilla.sc" horiz-adv-x="367" 
d="M42 111q55 -55 130 -55q38 0 59 21t21 57q0 34 -18.5 57t-64.5 43q-65 27 -93 63t-28 95q0 61 37.5 100t99.5 39q61 0 115 -28v-84q-54 47 -113 47q-33 0 -50.5 -19.5t-17.5 -51.5q0 -31 17.5 -51.5t63.5 -41.5q67 -31 96 -68.5t29 -94.5q0 -68 -35 -106t-95 -44l-19 -48
q8 3 18 3q31 0 50 -20.5t19 -54.5q0 -39 -25.5 -64.5t-65.5 -25.5q-44 0 -66 24l4 50q19 -29 57 -29q21 0 31.5 12t10.5 30q0 40 -44 40q-21 0 -35 -6l-2 2l32 85q-69 3 -110 30z" />
    <glyph glyph-name="uni0219.sc" horiz-adv-x="367" 
d="M42 111q55 -55 130 -55q38 0 59 21t21 57q0 34 -18.5 57t-64.5 43q-65 27 -93 63t-28 95q0 61 37.5 100t99.5 39q61 0 115 -28v-84q-54 47 -113 47q-33 0 -50.5 -19.5t-17.5 -51.5q0 -31 17.5 -51.5t63.5 -41.5q67 -31 96 -68.5t29 -94.5q0 -74 -42 -113t-112 -39
q-77 0 -121 30zM214 -63q12 -27 12 -54q0 -54 -69 -120h-41q49 70 49 117q0 18 -11 40z" />
    <glyph glyph-name="tcaron.sc" horiz-adv-x="402" 
d="M239 0h-75v448h-154v70h383v-70h-154v-448zM93 771h41l68 -94l66 94h41l-84 -161h-48z" />
    <glyph glyph-name="uni0163.sc" horiz-adv-x="402" 
d="M239 0h-75v448h-154v70h383v-70h-154v-448zM232 -63q12 -27 12 -54q0 -54 -69 -120h-41q49 70 49 117q0 18 -11 40z" />
    <glyph glyph-name="uni021B.sc" horiz-adv-x="402" 
d="M239 0h-75v448h-154v70h383v-70h-154v-448zM232 -63q12 -27 12 -54q0 -54 -69 -120h-41q49 70 49 117q0 18 -11 40z" />
    <glyph glyph-name="tbar.sc" horiz-adv-x="402" 
d="M239 0h-75v227h-74v55h74v166h-154v70h383v-70h-154v-166h74v-55h-74v-227z" />
    <glyph glyph-name="ugrave.sc" horiz-adv-x="490" 
d="M68 518h75v-316q0 -72 27.5 -108t74.5 -36q45 0 73.5 36.5t28.5 107.5v316h75v-316q0 -108 -50 -162.5t-127 -54.5q-79 0 -128 54t-49 163v316zM251 610l-111 161h84l63 -161h-36z" />
    <glyph glyph-name="uacute.sc" horiz-adv-x="490" 
d="M68 518h75v-316q0 -72 27.5 -108t74.5 -36q45 0 73.5 36.5t28.5 107.5v316h75v-316q0 -108 -50 -162.5t-127 -54.5q-79 0 -128 54t-49 163v316zM349 771l-110 -161h-37l63 161h84z" />
    <glyph glyph-name="ucircumflex.sc" horiz-adv-x="490" 
d="M68 518h75v-316q0 -72 27.5 -108t74.5 -36q45 0 73.5 36.5t28.5 107.5v316h75v-316q0 -108 -50 -162.5t-127 -54.5q-79 0 -128 54t-49 163v316zM312 610l-67 93l-67 -93h-41l84 161h48l84 -161h-41z" />
    <glyph glyph-name="utilde.sc" horiz-adv-x="490" 
d="M68 518h75v-316q0 -72 27.5 -108t74.5 -36q45 0 73.5 36.5t28.5 107.5v316h75v-316q0 -108 -50 -162.5t-127 -54.5q-79 0 -128 54t-49 163v316zM199 675q-17 0 -28 -16t-14 -41l-29 8q4 54 25 85t50 31q18 0 51.5 -18.5t45.5 -18.5q35 0 42 57l29 -8q-4 -54 -24.5 -85
t-50.5 -31q-18 0 -51.5 18.5t-45.5 18.5z" />
    <glyph glyph-name="udieresis.sc" horiz-adv-x="490" 
d="M68 518h75v-316q0 -72 27.5 -108t74.5 -36q45 0 73.5 36.5t28.5 107.5v316h75v-316q0 -108 -50 -162.5t-127 -54.5q-79 0 -128 54t-49 163v316zM125 686q0 19 13 32.5t32 13.5q18 0 31.5 -13.5t13.5 -32.5q0 -18 -13.5 -31.5t-31.5 -13.5q-19 0 -32 13.5t-13 31.5z
M275 686q0 19 13 32.5t32 13.5q18 0 31.5 -13.5t13.5 -32.5q0 -18 -13.5 -31.5t-31.5 -13.5q-19 0 -32 13.5t-13 31.5z" />
    <glyph glyph-name="umacron.sc" horiz-adv-x="490" 
d="M68 518h75v-316q0 -72 27.5 -108t74.5 -36q45 0 73.5 36.5t28.5 107.5v316h75v-316q0 -108 -50 -162.5t-127 -54.5q-79 0 -128 54t-49 163v316zM353 718v-63h-216v63h216z" />
    <glyph glyph-name="ubreve.sc" horiz-adv-x="490" 
d="M68 518h75v-316q0 -72 27.5 -108t74.5 -36q45 0 73.5 36.5t28.5 107.5v316h75v-316q0 -108 -50 -162.5t-127 -54.5q-79 0 -128 54t-49 163v316zM245 678q64 0 64 86h37q0 -65 -24.5 -106t-76.5 -41q-101 0 -101 147h36q0 -86 65 -86z" />
    <glyph glyph-name="uring.sc" horiz-adv-x="490" 
d="M68 518h75v-316q0 -72 27.5 -108t74.5 -36q45 0 73.5 36.5t28.5 107.5v316h75v-316q0 -108 -50 -162.5t-127 -54.5q-79 0 -128 54t-49 163v316zM145 696q0 41 29.5 70.5t70.5 29.5t70 -29.5t29 -70.5q0 -40 -29 -69.5t-70 -29.5t-70.5 29.5t-29.5 69.5zM187 696
q0 -24 17 -41t41 -17t41 17t17 41t-17 41t-41 17t-41 -17t-17 -41z" />
    <glyph glyph-name="uhungarumlaut.sc" horiz-adv-x="490" 
d="M68 518h75v-316q0 -72 27.5 -108t74.5 -36q45 0 73.5 36.5t28.5 107.5v316h75v-316q0 -108 -50 -162.5t-127 -54.5q-79 0 -128 54t-49 163v316zM212 771h79l-93 -161h-36zM319 771h80l-94 -161h-35z" />
    <glyph glyph-name="uogonek.sc" horiz-adv-x="490" 
d="M361 -218q-25 -19 -63 -19t-60 22.5t-22 63.5q0 34 15 65t54 77q-15 -6 -40 -6q-77 0 -127 54.5t-50 162.5v316h75v-316q0 -71 28.5 -107.5t73.5 -36.5t73.5 36.5t28.5 107.5v316h75v-316q0 -103 -51 -166q-56 -70 -73.5 -105t-17.5 -71q0 -37 32 -37q31 0 52 28h2z" />
    <glyph glyph-name="wgrave.sc" horiz-adv-x="646" 
d="M402 0l-82 258l-86 -258h-60l-168 518h77l123 -402l82 246l-49 156h77l117 -398l127 398h77l-174 -518h-61zM326 610l-111 161h84l63 -161h-36z" />
    <glyph glyph-name="wacute.sc" horiz-adv-x="646" 
d="M402 0l-82 258l-86 -258h-60l-168 518h77l123 -402l82 246l-49 156h77l117 -398l127 398h77l-174 -518h-61zM424 771l-110 -161h-37l63 161h84z" />
    <glyph glyph-name="wcircumflex.sc" horiz-adv-x="646" 
d="M402 0l-82 258l-86 -258h-60l-168 518h77l123 -402l82 246l-49 156h77l117 -398l127 398h77l-174 -518h-61zM386 610l-67 93l-67 -93h-41l84 161h48l84 -161h-41z" />
    <glyph glyph-name="wdieresis.sc" horiz-adv-x="646" 
d="M402 0l-82 258l-86 -258h-60l-168 518h77l123 -402l82 246l-49 156h77l117 -398l127 398h77l-174 -518h-61zM200 686q0 19 13 32.5t32 13.5q18 0 31.5 -13.5t13.5 -32.5q0 -18 -13.5 -31.5t-31.5 -13.5q-19 0 -32 13.5t-13 31.5zM350 686q0 19 13 32.5t32 13.5
q18 0 31.5 -13.5t13.5 -32.5q0 -18 -13.5 -31.5t-31.5 -13.5q-19 0 -32 13.5t-13 31.5z" />
    <glyph glyph-name="ygrave.sc" horiz-adv-x="445" 
d="M443 518l-188 -297v-221h-76v221l-177 297h87l129 -230l138 230h87zM228 610l-111 161h84l63 -161h-36z" />
    <glyph glyph-name="yacute.sc" horiz-adv-x="445" 
d="M443 518l-188 -297v-221h-76v221l-177 297h87l129 -230l138 230h87zM327 771l-110 -161h-37l63 161h84z" />
    <glyph glyph-name="ycircumflex.sc" horiz-adv-x="445" 
d="M443 518l-188 -297v-221h-76v221l-177 297h87l129 -230l138 230h87zM289 610l-67 93l-67 -93h-41l84 161h48l84 -161h-41z" />
    <glyph glyph-name="ydieresis.sc" horiz-adv-x="445" 
d="M443 518l-188 -297v-221h-76v221l-177 297h87l129 -230l138 230h87zM102 686q0 19 13 32.5t32 13.5q18 0 31.5 -13.5t13.5 -32.5q0 -18 -13.5 -31.5t-31.5 -13.5q-19 0 -32 13.5t-13 31.5zM252 686q0 19 13 32.5t32 13.5q18 0 31.5 -13.5t13.5 -32.5q0 -18 -13.5 -31.5
t-31.5 -13.5q-19 0 -32 13.5t-13 31.5z" />
    <glyph glyph-name="zacute.sc" horiz-adv-x="441" 
d="M410 0h-400l281 446h-256l7 72h375l-283 -446h288zM322 771l-110 -161h-37l63 161h84z" />
    <glyph glyph-name="zcaron.sc" horiz-adv-x="441" 
d="M410 0h-400l281 446h-256l7 72h375l-283 -446h288zM110 771h41l68 -94l66 94h41l-84 -161h-48z" />
    <glyph glyph-name="zdotaccent.sc" horiz-adv-x="441" 
d="M410 0h-400l281 446h-256l7 72h375l-283 -446h288zM167 689q0 21 14.5 35.5t35.5 14.5t35.5 -15t14.5 -35q0 -21 -14.5 -36t-35.5 -15t-35.5 15t-14.5 36z" />
    <glyph glyph-name="germandbls.sc" horiz-adv-x="498" 
d="M422 476l-84 -178q58 -10 90.5 -49.5t32.5 -99.5q0 -69 -40.5 -115t-107.5 -46q-60 0 -95 26l-7 82h2q33 -40 89 -40q41 0 63.5 26.5t22.5 67.5q0 44 -26.5 69t-77.5 25q-20 0 -40 -6l-1 3l96 203q-31 19 -77 19q-52 0 -85 -42t-33 -115v-306h-75v306q0 101 54 163
t139 62q92 0 160 -55z" />
    <glyph glyph-name="thorn.sc" horiz-adv-x="389" 
d="M148 0h-75v518h75v-90h50q80 0 124 -41t44 -118q0 -85 -45.5 -128.5t-131.5 -43.5h-41v-97zM148 368v-208h37q53 0 78 26.5t25 82.5q0 48 -26.5 73.5t-75.5 25.5h-38z" />
    <glyph glyph-name="fi.sc" horiz-adv-x="574" 
d="M148 449v-159h160v-69h-160v-221h-75v518h260v-69h-185zM502 0h-75v518h75v-518z" />
    <glyph glyph-name="fl.sc" horiz-adv-x="728" 
d="M148 449v-159h160v-69h-160v-221h-75v518h260v-69h-185zM427 0v518h75v-448h219v-70h-294z" />
    <glyph glyph-name="ampersand.sc" horiz-adv-x="500" 
d="M261 227l-3 68q27 10 99 21t109 29l3 -65q-24 -10 -74 -19q7 -35 7 -64q0 -101 -48.5 -157.5t-137.5 -56.5q-76 0 -121 51.5t-45 130.5q0 101 78 142q-33 37 -33 96q0 56 39.5 91.5t101.5 35.5q49 0 82 -13l-8 -71q-29 18 -75 18q-38 0 -59.5 -22t-21.5 -57q0 -50 32 -90
q-68 -41 -68 -122q0 -53 27.5 -87.5t77.5 -34.5q58 0 89.5 38t31.5 107q0 29 -6 56q-51 -11 -77 -25z" />
    <glyph glyph-name="exclam.sc" horiz-adv-x="217" 
d="M66 513l92 13q-7 -178 -38 -366l-28 4q-24 154 -26 349zM63 34q0 19 13 32t32 13t32 -13t13 -32t-13 -32t-32 -13q-20 0 -32.5 12.5t-12.5 32.5z" />
    <glyph glyph-name="question.sc" horiz-adv-x="281" 
d="M119 162l-57 -13v131q59 3 91 30.5t32 73.5q0 41 -23 63t-63 22q-35 0 -58 -12l10 66q29 8 57 8q65 0 105 -36.5t40 -107.5q0 -64 -36 -104t-98 -52v-69zM48 34q0 19 13 32t32 13t31.5 -13t12.5 -32t-12.5 -32t-31.5 -13t-32 12.5t-13 32.5z" />
    <glyph glyph-name="exclamdown.sc" horiz-adv-x="217" 
d="M151 3l-92 -14q7 189 39 366l27 -4q24 -152 26 -348zM154 486q0 -20 -13 -32.5t-32 -12.5t-32 13t-13 32t13 32t32 13t32 -12.5t13 -32.5z" />
    <glyph glyph-name="questiondown.sc" horiz-adv-x="281" 
d="M161 358l58 13v-132q-60 -3 -91.5 -30t-31.5 -73q0 -41 23 -63.5t63 -22.5q32 0 58 12l-10 -65q-27 -9 -57 -9q-65 0 -105 37t-40 108q0 63 35.5 103t97.5 53v69zM233 486q0 -20 -12.5 -32.5t-32.5 -12.5q-19 0 -32 13t-13 32t13 32t32 13q20 0 32.5 -12.5t12.5 -32.5z
" />
    <glyph glyph-name="percent.sc" horiz-adv-x="557" 
d="M441 518l-270 -518h-55l270 518h55zM127 240q-44 0 -68.5 30t-24.5 88q0 62 35 111t83 49q44 0 69 -30t25 -88q0 -61 -35.5 -110.5t-83.5 -49.5zM152 472q-30 0 -50 -34t-20 -83q0 -68 46 -68q30 0 49.5 34t19.5 83q0 68 -45 68zM405 0q-44 0 -69 30t-25 88
q0 61 35.5 110.5t83.5 49.5q44 0 68.5 -30t24.5 -88q0 -61 -35 -110.5t-83 -49.5zM430 232q-30 0 -50 -34.5t-20 -82.5q0 -69 45 -69q30 0 50 34.5t20 82.5q0 69 -45 69z" />
    <glyph glyph-name="perthousand.sc" horiz-adv-x="802" 
d="M442 518l-270 -518h-56l270 518h56zM127 240q-44 0 -68.5 30t-24.5 88q0 62 35 111t83 49q44 0 69 -30t25 -88q0 -61 -35.5 -110.5t-83.5 -49.5zM152 471q-29 0 -49 -34t-20 -82q0 -67 45 -67q29 0 48.5 34t19.5 82q0 67 -44 67zM406 0q-44 0 -68.5 30.5t-24.5 87.5
q0 61 35.5 110.5t83.5 49.5q44 0 68.5 -30.5t24.5 -87.5q0 -61 -35 -110.5t-84 -49.5zM432 230q-30 0 -50 -33.5t-20 -81.5q0 -67 45 -67q29 0 48.5 33.5t19.5 81.5q0 67 -43 67zM649 0q-44 0 -68.5 30.5t-24.5 87.5q0 61 35.5 110.5t83.5 49.5q44 0 68.5 -30.5t24.5 -87.5
q0 -61 -35.5 -110.5t-83.5 -49.5zM675 230q-30 0 -49.5 -33.5t-19.5 -81.5q0 -67 44 -67q29 0 49 33.5t20 81.5q0 67 -44 67z" />
    <glyph glyph-name="dollar.sc" horiz-adv-x="387" 
d="M212 612v-82q54 -4 100 -29v-79q-46 40 -100 48v-176q70 -30 98.5 -67t28.5 -95q0 -63 -34.5 -100.5t-92.5 -45.5v-76h-41v74q-74 3 -118 34l-5 83q54 -51 123 -56v196q-65 28 -92 62.5t-27 92.5q0 51 33 89t86 45v82h41zM278 131q0 59 -66 93v-179q32 4 49 27t17 59z
M114 397q0 -54 57 -84v158q-57 -9 -57 -74z" />
    <glyph glyph-name="Euro.sc" horiz-adv-x="387" 
d="M11 298l12 48h38q17 88 71 136.5t135 48.5q63 0 103 -26l-14 -69q-32 32 -89 32q-110 0 -139 -122h197l-12 -48h-193q-1 -12 -1 -38q0 -23 1 -33h173l-12 -48h-155q26 -129 139 -129q60 0 103 44h2l-8 -78q-39 -29 -97 -29q-82 0 -135.5 49.5t-69.5 142.5h-58l13 48h39
q-1 10 -1 33q0 26 1 38h-43z" />
    <glyph glyph-name="cent.sc" horiz-adv-x="387" 
d="M315 609l-23 -116q40 -12 72 -39l-18 -74q-32 35 -67 48l-69 -348h12q85 0 139 69h2l-13 -88q-51 -46 -129 -46q-16 0 -24 1l-21 -106h-48l23 117q-60 22 -93 80t-33 144q0 113 54 182t151 69q10 0 15 -1l22 108h48zM93 251q0 -119 71 -158l69 344h-4q-66 0 -101 -48.5
t-35 -137.5z" />
    <glyph glyph-name="sterling.sc" horiz-adv-x="387" 
d="M286 295l-14 -57q-43 4 -102 6q7 -40 7 -68q0 -49 -12 -82q6 -3 23 -13.5t26.5 -15t25 -9.5t30.5 -5q41 0 76 46h2v-73q-33 -40 -76 -40q-25 0 -49.5 11.5t-47.5 27.5t-34 21q-36 -52 -69 -52q-18 0 -29 12t-11 31q0 29 26 50.5t64 21.5q8 26 8 59q0 29 -11 77
q-41 -3 -71 -10l14 60q15 2 41 4q-18 61 -18 101q0 59 34 96t91 37q61 0 117 -45l-18 -69q-48 49 -98 49q-31 0 -47.5 -21t-16.5 -55q0 -35 11 -90h11q65 0 117 -5z" />
    <glyph glyph-name="florin.sc" horiz-adv-x="387" 
d="M18 -48l-1 74q19 -23 51 -23t50 39.5t27 130.5l9 91h-85v56h91l2 18q10 101 46 147t97 46q39 0 68 -24l-8 -63q-20 23 -51 23q-34 0 -51 -31.5t-26 -107.5l-1 -8h108v-56h-114l-12 -107q-25 -221 -141 -221q-36 0 -59 16z" />
    <glyph glyph-name="yen.sc" horiz-adv-x="387" 
d="M370 210v-54h-144v-156h-75v156h-134v54h134l-41 87h-93v54h67l-79 167h75l109 -249l119 249h74l-85 -167h73v-54h-100l-44 -87h144z" />
    <glyph glyph-name="uni20B9.sc" horiz-adv-x="387" 
d="M26 329l21 54h179q-11 82 -114 82h-86l21 53h309l-20 -53h-81q32 -32 38 -82h63l-20 -54h-46q-18 -94 -132 -126l160 -203h-94l-178 235v3q83 10 124 31.5t52 59.5h-196z" />
    <glyph glyph-name="uni20BA.sc" horiz-adv-x="387" 
d="M30 285v60l48 27v146h71v-116l101 58v-59l-101 -59v-70l101 59v-59l-101 -59v-147q7 -3 21 -3q52 0 90 39t52 111l60 -33q-19 -88 -75 -138t-134 -50q-48 0 -85 13v179l-48 -27v59l48 27v70z" />
    <glyph glyph-name="zero.onumprop" horiz-adv-x="504" 
d="M252 -15q-96 0 -153 71.5t-57 202.5t57 201.5t153 70.5t153.5 -70.5t57.5 -201.5t-57.5 -202.5t-153.5 -71.5zM252 52q62 0 97.5 53.5t35.5 153.5t-35.5 153t-97.5 53t-97.5 -53t-35.5 -153t35.5 -153.5t97.5 -53.5z" />
    <glyph glyph-name="one.onumprop" horiz-adv-x="286" 
d="M194 0h-75v448l-87 -4l10 74h152v-518z" />
    <glyph glyph-name="two.onumprop" horiz-adv-x="405" 
d="M253 191q-49 -62 -119 -122h232l-7 -69h-326v62q95 74 162 160q36 46 50 78.5t14 71.5q0 38 -21.5 62.5t-58.5 24.5q-69 0 -126 -53l13 87q54 38 129 38q66 0 102.5 -41t36.5 -104q0 -52 -18.5 -94.5t-62.5 -100.5z" />
    <glyph glyph-name="three.onumprop" horiz-adv-x="414" 
d="M264 192q106 -42 106 -167q0 -97 -56 -154t-151 -57q-73 0 -126 28l-3 78q52 -34 122 -34q63 0 99.5 39t36.5 101q0 56 -32 90.5t-89 34.5t-98 -12l13 84q27 -3 64 -3q61 0 95.5 34t34.5 98q0 48 -26.5 78.5t-72.5 30.5q-66 0 -112 -35l14 85q46 20 109 20
q77 0 120.5 -47.5t43.5 -123.5q0 -117 -92 -168z" />
    <glyph glyph-name="four.onumprop" horiz-adv-x="482" 
d="M297 -187v187h-267v62l265 456h74v-450h82v-68h-82v-187h-72zM96 68h201v349z" />
    <glyph glyph-name="five.onumprop" horiz-adv-x="384" 
d="M342 518l-10 -69h-193l-19 -194q12 2 26 2q94 0 147.5 -54t53.5 -142q0 -118 -74 -184t-211 -66q-24 0 -36 2l10 79q16 -4 44 -4q95 0 144 45t49 124q0 60 -36.5 97t-105.5 37q-46 0 -85 -12l34 339h262z" />
    <glyph glyph-name="six.onumprop" horiz-adv-x="482" 
d="M401 686q-118 -9 -190 -91t-94 -212q57 65 138 65q85 0 136.5 -61t51.5 -164q0 -101 -54 -169t-142 -68q-98 0 -151.5 78.5t-53.5 208.5q0 132 40 238.5t126 176.5t206 78zM240 386q-79 0 -130 -70q-1 -14 -1 -41q0 -100 36 -158t99 -58q53 0 87 46.5t34 119.5
q0 71 -35 116t-90 45z" />
    <glyph glyph-name="seven.onumprop" horiz-adv-x="425" 
d="M40 518h352q-135 -401 -187 -705h-88q71 331 182 629l-280 -7z" />
    <glyph glyph-name="eight.onumprop" horiz-adv-x="482" 
d="M435 189q0 -84 -54 -143t-139 -59q-89 0 -142 54.5t-53 143.5q0 146 134 202q-63 36 -88.5 83t-25.5 109q0 79 50 136t128 57q82 0 129 -53.5t47 -133.5q0 -133 -115 -194q129 -71 129 -202zM358 195q0 55 -29.5 91t-95.5 68q-114 -48 -114 -161q0 -58 33.5 -96.5
t85.5 -38.5q55 0 87.5 39.5t32.5 97.5zM143 579q0 -57 25.5 -92t85.5 -66q96 54 96 155q0 56 -28.5 91.5t-74.5 35.5t-75 -36.5t-29 -87.5z" />
    <glyph glyph-name="nine.onumprop" horiz-adv-x="475" 
d="M154 -213l-50 67q188 98 238 251q-44 -30 -102 -30q-91 0 -146 61.5t-55 165.5q0 97 53 163t135 66q100 0 155 -76.5t55 -204.5q0 -157 -69.5 -270.5t-213.5 -192.5zM254 134q59 0 104 35q6 38 6 80q0 97 -37.5 153.5t-100.5 56.5q-49 0 -81 -44.5t-32 -113.5
q0 -74 38.5 -120.5t102.5 -46.5z" />
    <glyph glyph-name="zero.onumtab" 
d="M236 -15q-87 0 -139.5 71.5t-52.5 202.5t52.5 201.5t139.5 70.5t139 -70.5t52 -201.5t-52 -202.5t-139 -71.5zM236 52q54 0 85.5 53.5t31.5 153.5q0 99 -31.5 152.5t-85.5 53.5t-85.5 -53.5t-31.5 -152.5q0 -100 31.5 -153.5t85.5 -53.5z" />
    <glyph glyph-name="one.onumtab" 
d="M399 0h-304v69h115v379l-118 -4l10 74h183v-449h114v-69z" />
    <glyph glyph-name="two.onumtab" 
d="M288 186q-48 -60 -118 -117h239l-7 -69h-339v62q95 69 168 154q41 48 56.5 81t15.5 75q0 38 -22.5 62.5t-61.5 24.5q-71 0 -133 -54l13 85q57 41 136 41q68 0 105.5 -41t37.5 -104q0 -54 -20.5 -98t-69.5 -102z" />
    <glyph glyph-name="three.onumtab" 
d="M289 193q107 -43 107 -168q0 -98 -56.5 -154.5t-153.5 -56.5q-73 0 -125 28l-4 78q52 -34 122 -34q65 0 102 38.5t37 101.5q0 57 -32.5 91t-90.5 34q-61 0 -98 -10l13 82q27 -3 63 -3q63 0 98.5 34t35.5 97q0 48 -26.5 79t-72.5 31q-67 0 -115 -35l14 85q46 20 108 20
q78 0 123 -48t45 -123q0 -56 -25 -100t-69 -67z" />
    <glyph glyph-name="four.onumtab" 
d="M289 -187v187h-260v62l265 456h68v-450h82v-68h-82v-187h-73zM92 68h197v342z" />
    <glyph glyph-name="five.onumtab" 
d="M388 518l-10 -69h-207l-20 -196q20 4 41 4q95 0 148.5 -54t53.5 -142q0 -118 -76 -184t-217 -66q-25 0 -44 3l10 80q28 -5 51 -5q98 0 149.5 45t51.5 123q0 60 -38 97t-112 37q-50 0 -92 -12l34 339h277z" />
    <glyph glyph-name="six.onumtab" 
d="M395 686q-117 -9 -188.5 -92t-92.5 -213q54 67 134 67q83 0 133.5 -61t50.5 -164q0 -101 -53.5 -169t-138.5 -68q-96 0 -148 78.5t-52 208.5q0 132 39.5 238.5t124.5 176.5t203 78zM233 386q-76 0 -126 -72q-1 -13 -1 -39q0 -100 36 -158t98 -58q50 0 82 46.5t32 119.5
q0 71 -33.5 116t-87.5 45z" />
    <glyph glyph-name="seven.onumtab" 
d="M58 518h358q-136 -404 -186 -705h-88q33 158 83.5 331.5t97.5 297.5l-287 -7z" />
    <glyph glyph-name="eight.onumtab" 
d="M425 189q0 -85 -52.5 -143.5t-135.5 -58.5q-87 0 -138.5 54.5t-51.5 143.5q0 148 131 202q-61 37 -86 84t-25 108q0 79 48.5 136t125.5 57q79 0 125 -53.5t46 -133.5q0 -132 -111 -194q124 -72 124 -202zM349 195q0 55 -28.5 91.5t-91.5 68.5q-109 -47 -109 -162
q0 -58 32 -96.5t82 -38.5q52 0 83.5 39.5t31.5 97.5zM142 579q0 -57 24.5 -92t82.5 -66q92 53 92 155q0 55 -27.5 91t-70.5 36q-44 0 -72.5 -36.5t-28.5 -87.5z" />
    <glyph glyph-name="nine.onumtab" 
d="M153 -213l-50 67q188 98 238 251q-44 -30 -102 -30q-91 0 -146 61.5t-55 165.5q0 97 53 163t135 66q100 0 155 -76.5t55 -204.5q0 -157 -69.5 -270.5t-213.5 -192.5zM253 134q59 0 104 35q6 38 6 80q0 97 -37.5 153.5t-100.5 56.5q-49 0 -81 -44.5t-32 -113.5
q0 -74 38.5 -120.5t102.5 -46.5z" />
    <glyph glyph-name="zero.prop" horiz-adv-x="544" 
d="M272 -16q-102 0 -160 102t-58 292q0 189 59 289.5t158 100.5q105 0 162.5 -99.5t57.5 -292.5q0 -187 -59.5 -289.5t-159.5 -102.5zM272 56q68 0 104.5 81.5t36.5 241.5q0 156 -37 236.5t-104 80.5q-66 0 -103.5 -80.5t-37.5 -235.5q0 -158 37.5 -241t103.5 -83z" />
    <glyph glyph-name="one.prop" horiz-adv-x="317" 
d="M203 0h-76v681l-97 -9l13 80h160v-752z" />
    <glyph glyph-name="two.prop" horiz-adv-x="465" 
d="M68 715q70 50 154 50q85 0 133.5 -56.5t48.5 -144.5q0 -65 -20 -119t-65 -123q-89 -135 -190 -250h296l-7 -72h-392v45q146 172 237 316q35 54 49.5 95.5t14.5 90.5q0 62 -30.5 101.5t-88.5 39.5q-86 0 -157 -70z" />
    <glyph glyph-name="three.prop" horiz-adv-x="455" 
d="M277 394q116 -49 116 -187q0 -101 -60.5 -160.5t-164.5 -59.5q-71 0 -125 28l-4 84q54 -37 122 -37q72 0 113 40.5t41 108.5q0 65 -37 103t-104 38q-57 0 -103 -11l17 84q30 -3 67 -3q69 0 108.5 38t39.5 109q0 53 -30 88.5t-84 35.5q-72 0 -120 -39l15 87q48 24 113 24
q85 0 134 -52.5t49 -133.5q0 -64 -27 -112t-76 -73z" />
    <glyph glyph-name="four.prop" horiz-adv-x="520" 
d="M331 0v224h-311v56l302 472h82v-459h80v-69h-80v-224h-73zM92 293h239v376z" />
    <glyph glyph-name="five.prop" horiz-adv-x="470" 
d="M409 752l-9 -71h-248l-21 -204q16 2 33 2q114 0 178.5 -66.5t64.5 -175.5q0 -132 -84 -205.5t-239 -73.5q-14 0 -36 2l7 79q27 -5 52 -5q107 0 166 53t59 145q0 81 -47.5 130t-140.5 49q-47 0 -89 -9l36 350h318z" />
    <glyph glyph-name="six.prop" horiz-adv-x="509" 
d="M426 701q-125 -10 -200.5 -95t-96.5 -218q59 67 146 67q88 0 141.5 -63.5t53.5 -170.5q0 -100 -57.5 -167.5t-146.5 -67.5q-102 0 -157.5 82t-55.5 219q0 132 41.5 238t130.5 176t214 79zM260 393q-83 0 -139 -73v-34q0 -105 39 -166t107 -61q55 0 91 46t36 118
q0 76 -37 123t-97 47z" />
    <glyph glyph-name="seven.prop" horiz-adv-x="443" 
d="M34 752h373q-120 -395 -178 -752h-86q68 348 174 676l-308 -7z" />
    <glyph glyph-name="eight.prop" horiz-adv-x="492" 
d="M440 189q0 -84 -54 -143t-139 -59q-89 0 -142 54.5t-53 143.5q0 146 134 202q-63 36 -88.5 83t-25.5 109q0 79 50 136t128 57q82 0 129 -53.5t47 -133.5q0 -133 -115 -194q129 -71 129 -202zM363 195q0 55 -29.5 91t-95.5 68q-114 -48 -114 -161q0 -58 33.5 -96.5
t85.5 -38.5q55 0 87.5 39.5t32.5 97.5zM148 579q0 -57 25.5 -92t85.5 -66q96 54 96 155q0 56 -28.5 91.5t-74.5 35.5t-75 -36.5t-29 -87.5z" />
    <glyph glyph-name="nine.prop" horiz-adv-x="505" 
d="M167 -23l-54 68q200 105 246 291q-44 -35 -109 -35q-96 0 -155.5 64t-59.5 172q0 99 55.5 167t141.5 68q102 0 159 -82t57 -222q0 -168 -68.5 -288t-212.5 -203zM264 358q63 0 106 37q5 38 5 74q0 107 -38.5 168.5t-106.5 61.5q-53 0 -86 -45.5t-33 -117.5
q0 -79 41.5 -128.5t111.5 -49.5z" />
    <glyph glyph-name="ampersand.salt" horiz-adv-x="616" 
d="M500 348l71 -19q-33 -119 -87 -198l98 -131h-88l-56 74q-84 -87 -194 -87q-91 0 -142.5 54.5t-51.5 148.5q0 67 29.5 117t103.5 108q-40 58 -57 102t-17 91q0 72 41.5 122t108.5 50q68 0 106.5 -46.5t38.5 -114.5q0 -58 -28.5 -107t-98.5 -104l162 -218q43 70 61 158z
M251 59q79 0 145 72l-176 234q-53 -44 -74 -82t-21 -84q0 -65 32.5 -102.5t93.5 -37.5zM180 609q0 -37 12 -70t48 -82q57 44 76 79t19 82q0 41 -21 69.5t-55 28.5q-37 0 -58 -29.5t-21 -77.5z" />
    <glyph glyph-name="comma.salt" horiz-adv-x="200" 
d="M167 95l-91 -228h-54l73 228h72z" />
    <glyph glyph-name="semicolon.salt" horiz-adv-x="198" 
d="M50 436q0 22 14 36t35 14q22 0 36 -14t14 -36q0 -21 -14 -35t-36 -14q-21 0 -35 14t-14 35zM144 95l-91 -228h-54l73 228h72z" />
    <glyph glyph-name="quoteleft.salt" horiz-adv-x="169" 
d="M18 531l91 227h54l-73 -227h-72z" />
    <glyph glyph-name="quoteright.salt" horiz-adv-x="169" 
d="M161 759l-91 -228h-54l73 228h72z" />
    <glyph glyph-name="quotesinglbase.salt" horiz-adv-x="200" 
d="M167 95l-91 -228h-54l73 228h72z" />
    <glyph glyph-name="quotedblleft.salt" horiz-adv-x="285" 
d="M148 531l91 227h54l-73 -227h-72zM14 531l91 227h54l-73 -227h-72z" />
    <glyph glyph-name="quotedblright.salt" horiz-adv-x="285" 
d="M294 759l-91 -228h-54l73 228h72zM161 759l-91 -228h-54l73 228h72z" />
    <glyph glyph-name="quotedblbase.salt" horiz-adv-x="335" 
d="M300 95l-91 -228h-54l73 228h72zM167 95l-91 -228h-54l73 228h72z" />
    <glyph glyph-name="A.salt" horiz-adv-x="611" 
d="M525 0l-94 263h-251l-94 -263h-81l300 786h4l297 -786h-81zM304 616l-102 -288h206z" />
    <glyph glyph-name="G.salt" horiz-adv-x="621" 
d="M356 708q-105 0 -168.5 -91t-63.5 -233q0 -145 63.5 -232.5t164.5 -87.5q88 0 141 59v192h-148v72h224v-304q-90 -96 -221 -96q-134 0 -219 109.5t-85 287.5q0 173 85 287t226 114q111 0 192 -68l-9 -92h-3q-69 83 -179 83z" />
    <glyph glyph-name="J.salt" horiz-adv-x="355" 
d="M279 772v-517q0 -125 -52 -192t-143 -67q-38 0 -65 14l-6 80q28 -22 69 -22q57 0 89 49t32 142v513h76z" />
    <glyph glyph-name="M.salt" horiz-adv-x="790" 
d="M638 790l102 -790h-78l-59 514l-202 -541h-4l-208 544l-61 -517h-77l104 788h3l240 -627l237 629h3z" />
    <glyph glyph-name="N.salt" horiz-adv-x="678" 
d="M80 0v786h3l438 -587v573h77v-798h-3l-438 589v-563h-77z" />
    <glyph glyph-name="V.salt" horiz-adv-x="571" 
d="M5 772h85l191 -592l201 592h84l-284 -797h-3z" />
    <glyph glyph-name="W.salt" horiz-adv-x="872" 
d="M5 772h84l166 -566l183 588h3l164 -589l179 567h83l-264 -804h-3l-163 583l-181 -583h-4z" />
    <glyph glyph-name="a.sc.salt" horiz-adv-x="447" 
d="M366 0l-60 170h-162l-63 -170h-78l225 544h3l213 -544h-78zM227 393l-64 -166h125z" />
    <glyph glyph-name="g.sc.salt" horiz-adv-x="464" 
d="M259 462q-66 0 -105.5 -57t-39.5 -146q0 -94 40 -149t105 -55q50 0 87 43v116h-91v57h163v-206q-66 -78 -165 -78q-96 0 -157 75t-61 198q0 117 61 194t161 77q84 0 146 -52l-14 -81h-2q-48 64 -128 64z" />
    <glyph glyph-name="j.sc.salt" horiz-adv-x="306" 
d="M239 518v-313q0 -98 -42 -155t-115 -57q-40 0 -65 14l-6 79q24 -20 60 -20q43 0 68 38t25 107v307h75z" />
    <glyph glyph-name="m.sc.salt" horiz-adv-x="584" 
d="M475 541l66 -541h-73l-33 292l-139 -321h-3l-143 325l-34 -296h-73l68 540h2l181 -415l179 416h2z" />
    <glyph glyph-name="n.sc.salt" horiz-adv-x="540" 
d="M464 -24l-316 369v-345h-75v536h2l317 -370v352h75v-542h-3z" />
    <glyph glyph-name="v.sc.salt" horiz-adv-x="418" 
d="M6 518h78l123 -365l127 365h78l-204 -543h-4z" />
    <glyph glyph-name="w.sc.salt" horiz-adv-x="626" 
d="M430 -32l-117 366l-128 -366h-3l-176 550h76l105 -346l127 365h3l115 -365l111 346h77l-186 -550h-4z" />
    <glyph glyph-name="a.salt" horiz-adv-x="477" 
d="M418 10l-73 -24q-6 23 -8 54q-50 -51 -118 -51q-84 0 -132.5 70t-48.5 177q0 121 56.5 193.5t147.5 72.5q58 0 105 -33l63 10v-375q0 -59 8 -94zM232 56q69 0 104 55v285q-34 39 -87 39q-63 0 -99 -53t-36 -144q0 -81 31.5 -131.5t86.5 -50.5z" />
    <glyph glyph-name="e.salt" horiz-adv-x="436" 
d="M394 235l-287 -10q4 -84 39.5 -129.5t94.5 -45.5q85 0 139 74h3l-8 -87q-51 -54 -141 -54q-87 0 -141.5 64.5t-54.5 189.5q0 112 53 188.5t138 76.5q77 0 122.5 -60t45.5 -158q0 -28 -3 -49zM227 438q-47 0 -78.5 -43t-39.5 -114l219 7q0 66 -26.5 108t-74.5 42z" />
    <glyph glyph-name="g.salt" horiz-adv-x="480" 
d="M71 -194l-5 87q56 -62 145 -62q128 0 128 158v37q-49 -41 -115 -41q-84 0 -135 68.5t-51 183.5q0 120 57 192.5t152 72.5q57 0 105 -24l60 11v-498q0 -104 -52 -166t-145 -62t-144 43zM238 53q66 0 101 39v320q-34 23 -83 23q-66 0 -104 -53t-38 -143q0 -86 33 -136
t91 -50z" />
    <glyph glyph-name="v.salt" horiz-adv-x="388" 
d="M6 485h77l103 -339l119 339h78l-200 -517h-3z" />
    <glyph glyph-name="w.salt" horiz-adv-x="610" 
d="M6 485h76l97 -336l126 364h3l109 -360l111 332h77l-188 -525h-4l-112 356l-126 -363h-3z" />
    <glyph glyph-name="ae.salt" horiz-adv-x="657" 
d="M615 241l-274 -9q1 -87 35.5 -131.5t93.5 -44.5q82 0 132 74h3l-9 -88q-49 -54 -134 -54q-105 0 -154 94q-33 -41 -76.5 -67t-88.5 -26q-53 0 -83 31.5t-30 86.5q0 112 114 151q53 17 127 21v52q0 100 -79 100q-67 0 -116 -57h-2v73q53 50 127 50q95 0 122 -85
q51 86 133 86q75 0 118.5 -59t43.5 -155q0 -26 -3 -43zM455 434q-45 0 -75 -40.5t-37 -112.5l206 7q0 65 -24.5 105.5t-69.5 40.5zM271 120v111q-66 -3 -109 -20q-57 -23 -57 -90q0 -31 14.5 -49.5t43.5 -18.5q61 0 108 67z" />
    <glyph glyph-name="oe.salt" horiz-adv-x="719" 
d="M678 236l-276 -9q3 -84 38 -130.5t92 -46.5q82 0 132 76h2l-8 -87q-46 -56 -135 -56q-109 0 -154 101q-49 -101 -146 -101q-82 0 -133.5 72t-51.5 194q0 115 52.5 184t132.5 69q48 0 87 -27.5t62 -78.5q51 106 146 106q75 0 118.5 -60t43.5 -158q0 -22 -2 -48zM223 50
q50 0 79.5 52.5t29.5 146.5q0 79 -30.5 132.5t-78.5 53.5t-78.5 -51t-30.5 -135q0 -89 29 -144t80 -55zM517 438q-45 0 -75.5 -43t-37.5 -114l207 7q0 66 -24.5 108t-69.5 42z" />
    <glyph glyph-name="Agrave.salt" horiz-adv-x="611" 
d="M525 0l-94 263h-251l-94 -263h-81l300 786h4l297 -786h-81zM304 616l-102 -288h206zM311 825l-106 131h88l62 -131h-44z" />
    <glyph glyph-name="Aacute.salt" horiz-adv-x="611" 
d="M525 0l-94 263h-251l-94 -263h-81l300 786h4l297 -786h-81zM304 616l-102 -288h206zM410 956l-106 -131h-44l62 131h88z" />
    <glyph glyph-name="Acircumflex.salt" horiz-adv-x="611" 
d="M525 0l-94 263h-251l-94 -263h-81l300 786h4l297 -786h-81zM304 616l-102 -288h206zM379 825l-72 75l-69 -75h-44l81 131h67l81 -131h-44z" />
    <glyph glyph-name="Atilde.salt" horiz-adv-x="611" 
d="M525 0l-94 263h-251l-94 -263h-81l300 786h4l297 -786h-81zM304 616l-102 -288h206zM258 868q-17 0 -28.5 -15.5t-13.5 -38.5l-29 8q4 54 24 84.5t48 30.5q19 0 54.5 -17t49.5 -17q17 0 28 15t13 39l30 -8q-4 -54 -24 -84.5t-48 -30.5q-20 0 -55.5 17t-48.5 17z" />
    <glyph glyph-name="Adieresis.salt" horiz-adv-x="611" 
d="M525 0l-94 263h-251l-94 -263h-81l300 786h4l297 -786h-81zM304 616l-102 -288h206zM179 891q0 19 13.5 33t32.5 14t33 -14t14 -33t-14 -32.5t-33 -13.5t-32.5 13.5t-13.5 32.5zM344 891q0 19 13.5 33t32.5 14t33 -14t14 -33t-14 -32.5t-33 -13.5t-32.5 13.5t-13.5 32.5z
" />
    <glyph glyph-name="Amacron.salt" horiz-adv-x="611" 
d="M525 0l-94 263h-251l-94 -263h-81l300 786h4l297 -786h-81zM304 616l-102 -288h206zM422 912v-60h-229v60h229z" />
    <glyph glyph-name="Abreve.salt" horiz-adv-x="611" 
d="M525 0l-94 263h-251l-94 -263h-81l300 786h4l297 -786h-81zM304 616l-102 -288h206zM308 884q61 0 64 72h37q0 -55 -24.5 -92.5t-76.5 -37.5q-53 0 -77 37.5t-24 92.5h36q5 -72 65 -72z" />
    <glyph glyph-name="Aring.salt" horiz-adv-x="611" 
d="M525 0l-94 263h-251l-94 -263h-81l300 786h4l297 -786h-81zM304 616l-102 -288h206zM210 905q0 40 29 69t69 29q41 0 70 -29t29 -69t-29.5 -69t-69.5 -29t-69 29t-29 69zM248 905q0 -25 17.5 -42.5t42.5 -17.5t43 17.5t18 42.5t-18 43t-43 18t-42.5 -18t-17.5 -43z" />
    <glyph glyph-name="Aogonek.salt" horiz-adv-x="611" 
d="M440 -151q0 34 18.5 67t66.5 84l-94 263h-251l-94 -263h-81l300 786h4l297 -786q-102 -67 -102 -140q0 -38 32 -38t52 28h2l-5 -68q-25 -19 -63 -19t-60 22.5t-22 63.5zM304 616l-102 -288h206z" />
    <glyph glyph-name="Gcircumflex.salt" horiz-adv-x="621" 
d="M356 708q-105 0 -168.5 -91t-63.5 -233q0 -145 63.5 -232.5t164.5 -87.5q88 0 141 59v192h-148v72h224v-304q-90 -96 -221 -96q-134 0 -219 109.5t-85 287.5q0 173 85 287t226 114q111 0 192 -68l-9 -92h-3q-69 83 -179 83zM411 824l-72 75l-69 -75h-44l81 131h67
l81 -131h-44z" />
    <glyph glyph-name="Gbreve.salt" horiz-adv-x="621" 
d="M356 708q-105 0 -168.5 -91t-63.5 -233q0 -145 63.5 -232.5t164.5 -87.5q88 0 141 59v192h-148v72h224v-304q-90 -96 -221 -96q-134 0 -219 109.5t-85 287.5q0 173 85 287t226 114q111 0 192 -68l-9 -92h-3q-69 83 -179 83zM341 882q61 0 64 72h37q0 -55 -24.5 -92.5
t-76.5 -37.5q-53 0 -77 37.5t-24 92.5h36q5 -72 65 -72z" />
    <glyph glyph-name="Gdotaccent.salt" horiz-adv-x="621" 
d="M356 708q-105 0 -168.5 -91t-63.5 -233q0 -145 63.5 -232.5t164.5 -87.5q88 0 141 59v192h-148v72h224v-304q-90 -96 -221 -96q-134 0 -219 109.5t-85 287.5q0 173 85 287t226 114q111 0 192 -68l-9 -92h-3q-69 83 -179 83zM291 889q0 20 14 34t34 14t34.5 -14t14.5 -34
t-14.5 -34.5t-34.5 -14.5t-34 14.5t-14 34.5z" />
    <glyph glyph-name="Gcommaaccent.salt" horiz-adv-x="621" 
d="M356 708q-105 0 -168.5 -91t-63.5 -233q0 -145 63.5 -232.5t164.5 -87.5q88 0 141 59v192h-148v72h224v-304q-90 -96 -221 -96q-134 0 -219 109.5t-85 287.5q0 173 85 287t226 114q111 0 192 -68l-9 -92h-3q-69 83 -179 83zM377 -63q12 -27 12 -54q0 -54 -69 -120h-41
q49 70 49 117q0 18 -11 40z" />
    <glyph glyph-name="IJ.salt" horiz-adv-x="565" 
d="M157 0h-77v772h77v-772zM490 772v-517q0 -125 -52 -192t-143 -67q-38 0 -65 14l-6 80q28 -22 69 -22q57 0 89 49t32 142v513h76z" />
    <glyph glyph-name="Jcircumflex.salt" horiz-adv-x="355" 
d="M279 772v-517q0 -125 -52 -192t-143 -67q-38 0 -65 14l-6 80q28 -22 69 -22q57 0 89 49t32 142v513h76zM311 824l-72 75l-69 -75h-44l81 131h67l81 -131h-44z" />
    <glyph glyph-name="Nacute.salt" horiz-adv-x="678" 
d="M80 0v786h3l438 -587v573h77v-798h-3l-438 589v-563h-77zM432 955l-106 -131h-44l62 131h88z" />
    <glyph glyph-name="Ncaron.salt" horiz-adv-x="678" 
d="M80 0v786h3l438 -587v573h77v-798h-3l-438 589v-563h-77zM215 955h44l71 -76l70 76h44l-81 -131h-67z" />
    <glyph glyph-name="Ntilde.salt" horiz-adv-x="678" 
d="M80 0v786h3l438 -587v573h77v-798h-3l-438 589v-563h-77zM280 867q-17 0 -28.5 -15.5t-13.5 -38.5l-29 8q4 54 24 84.5t48 30.5q19 0 54.5 -17t49.5 -17q17 0 28 15t13 39l30 -8q-4 -54 -24 -84.5t-48 -30.5q-20 0 -55.5 17t-48.5 17z" />
    <glyph glyph-name="Ncommaaccent.salt" horiz-adv-x="678" 
d="M80 0v786h3l438 -587v573h77v-798h-3l-438 589v-563h-77zM371 -63q12 -27 12 -54q0 -54 -69 -120h-41q49 70 49 117q0 18 -11 40z" />
    <glyph glyph-name="Eng.salt" horiz-adv-x="678" 
d="M80 0v786h3l438 -587v573h77v-820q0 -88 -36.5 -138.5t-101.5 -50.5q-40 0 -71 14l-8 79q25 -18 67 -18q34 0 53.5 32t19.5 92v108h2l-366 493v-563h-77z" />
    <glyph glyph-name="Wgrave.salt" horiz-adv-x="872" 
d="M5 772h84l166 -566l183 588h3l164 -589l179 567h83l-264 -804h-3l-163 583l-181 -583h-4zM440 825l-106 131h88l62 -131h-44z" />
    <glyph glyph-name="Wacute.salt" horiz-adv-x="872" 
d="M5 772h84l166 -566l183 588h3l164 -589l179 567h83l-264 -804h-3l-163 583l-181 -583h-4zM540 956l-106 -131h-44l62 131h88z" />
    <glyph glyph-name="Wcircumflex.salt" horiz-adv-x="872" 
d="M5 772h84l166 -566l183 588h3l164 -589l179 567h83l-264 -804h-3l-163 583l-181 -583h-4zM508 825l-72 75l-69 -75h-44l81 131h67l81 -131h-44z" />
    <glyph glyph-name="Wdieresis.salt" horiz-adv-x="872" 
d="M5 772h84l166 -566l183 588h3l164 -589l179 567h83l-264 -804h-3l-163 583l-181 -583h-4zM308 891q0 19 13.5 33t32.5 14t33 -14t14 -33t-14 -32.5t-33 -13.5t-32.5 13.5t-13.5 32.5zM473 891q0 19 13.5 33t32.5 14t33 -14t14 -33t-14 -32.5t-33 -13.5t-32.5 13.5
t-13.5 32.5z" />
    <glyph glyph-name="agrave.sc.salt" horiz-adv-x="447" 
d="M366 0l-60 170h-162l-63 -170h-78l225 544h3l213 -544h-78zM227 393l-64 -166h125zM236 610l-111 161h84l63 -161h-36z" />
    <glyph glyph-name="aacute.sc.salt" horiz-adv-x="447" 
d="M366 0l-60 170h-162l-63 -170h-78l225 544h3l213 -544h-78zM227 393l-64 -166h125zM334 771l-110 -161h-37l63 161h84z" />
    <glyph glyph-name="acircumflex.sc.salt" horiz-adv-x="447" 
d="M366 0l-60 170h-162l-63 -170h-78l225 544h3l213 -544h-78zM227 393l-64 -166h125zM296 610l-67 93l-67 -93h-41l84 161h48l84 -161h-41z" />
    <glyph glyph-name="atilde.sc.salt" horiz-adv-x="447" 
d="M366 0l-60 170h-162l-63 -170h-78l225 544h3l213 -544h-78zM227 393l-64 -166h125zM183 675q-17 0 -28 -16t-14 -41l-29 8q4 54 25 85t50 31q18 0 51.5 -18.5t45.5 -18.5q35 0 42 57l29 -8q-4 -54 -24.5 -85t-50.5 -31q-18 0 -51.5 18.5t-45.5 18.5z" />
    <glyph glyph-name="adieresis.sc.salt" horiz-adv-x="447" 
d="M366 0l-60 170h-162l-63 -170h-78l225 544h3l213 -544h-78zM227 393l-64 -166h125zM110 686q0 19 13 32.5t32 13.5q18 0 31.5 -13.5t13.5 -32.5q0 -18 -13.5 -31.5t-31.5 -13.5q-19 0 -32 13.5t-13 31.5zM260 686q0 19 13 32.5t32 13.5q18 0 31.5 -13.5t13.5 -32.5
q0 -18 -13.5 -31.5t-31.5 -13.5q-19 0 -32 13.5t-13 31.5z" />
    <glyph glyph-name="amacron.sc.salt" horiz-adv-x="447" 
d="M366 0l-60 170h-162l-63 -170h-78l225 544h3l213 -544h-78zM227 393l-64 -166h125zM337 718v-63h-216v63h216z" />
    <glyph glyph-name="abreve.sc.salt" horiz-adv-x="447" 
d="M366 0l-60 170h-162l-63 -170h-78l225 544h3l213 -544h-78zM227 393l-64 -166h125zM230 678q64 0 64 86h37q0 -65 -24.5 -106t-76.5 -41q-101 0 -101 147h36q0 -86 65 -86z" />
    <glyph glyph-name="aring.sc.salt" horiz-adv-x="447" 
d="M366 0l-60 170h-162l-63 -170h-78l225 544h3l213 -544h-78zM227 393l-64 -166h125zM130 696q0 41 29.5 70.5t70.5 29.5t70 -29.5t29 -70.5q0 -40 -29.5 -69.5t-69.5 -29.5q-41 0 -70.5 29.5t-29.5 69.5zM172 696q0 -24 17 -41t41 -17t41 17t17 41t-17 41t-41 17t-41 -17
t-17 -41z" />
    <glyph glyph-name="aogonek.sc.salt" horiz-adv-x="447" 
d="M286 -151q0 36 17 68.5t63 82.5l-60 170h-162l-63 -170h-78l225 544h3l213 -544q-55 -44 -74.5 -75.5t-19.5 -64.5q0 -37 31 -37t53 28h2l-5 -69q-26 -19 -64 -19t-59.5 22.5t-21.5 63.5zM227 393l-64 -166h125z" />
    <glyph glyph-name="gcircumflex.sc.salt" horiz-adv-x="464" 
d="M259 462q-66 0 -105.5 -57t-39.5 -146q0 -94 40 -149t105 -55q50 0 87 43v116h-91v57h163v-206q-66 -78 -165 -78q-96 0 -157 75t-61 198q0 117 61 194t161 77q84 0 146 -52l-14 -81h-2q-48 64 -128 64zM311 610l-67 93l-67 -93h-41l84 161h48l84 -161h-41z" />
    <glyph glyph-name="gbreve.sc.salt" horiz-adv-x="464" 
d="M259 462q-66 0 -105.5 -57t-39.5 -146q0 -94 40 -149t105 -55q50 0 87 43v116h-91v57h163v-206q-66 -78 -165 -78q-96 0 -157 75t-61 198q0 117 61 194t161 77q84 0 146 -52l-14 -81h-2q-48 64 -128 64zM245 678q64 0 64 86h37q0 -65 -24.5 -106t-76.5 -41
q-101 0 -101 147h36q0 -86 65 -86z" />
    <glyph glyph-name="gdotaccent.sc.salt" horiz-adv-x="464" 
d="M259 462q-66 0 -105.5 -57t-39.5 -146q0 -94 40 -149t105 -55q50 0 87 43v116h-91v57h163v-206q-66 -78 -165 -78q-96 0 -157 75t-61 198q0 117 61 194t161 77q84 0 146 -52l-14 -81h-2q-48 64 -128 64zM194 689q0 21 14.5 35.5t35.5 14.5t35.5 -15t14.5 -35
q0 -21 -14.5 -36t-35.5 -15t-35.5 15t-14.5 36z" />
    <glyph glyph-name="gcommaaccent.sc.salt" horiz-adv-x="464" 
d="M259 462q-66 0 -105.5 -57t-39.5 -146q0 -94 40 -149t105 -55q50 0 87 43v116h-91v57h163v-206q-66 -78 -165 -78q-96 0 -157 75t-61 198q0 117 61 194t161 77q84 0 146 -52l-14 -81h-2q-48 64 -128 64zM280 -63q12 -27 12 -54q0 -54 -69 -120h-41q49 70 49 117
q0 18 -11 40z" />
    <glyph glyph-name="ij.sc.salt" horiz-adv-x="500" 
d="M146 0h-75v518h75v-518zM433 518v-313q0 -98 -42 -155t-115 -57q-40 0 -65 14l-6 79q24 -20 60 -20q43 0 68 38t25 107v307h75z" />
    <glyph glyph-name="jcircumflex.sc.salt" horiz-adv-x="306" 
d="M239 518v-313q0 -98 -42 -155t-115 -57q-40 0 -65 14l-6 79q24 -20 60 -20q43 0 68 38t25 107v307h75zM269 610l-67 93l-67 -93h-41l84 161h48l84 -161h-41z" />
    <glyph glyph-name="nacute.sc.salt" horiz-adv-x="540" 
d="M464 -24l-316 369v-345h-75v536h2l317 -370v352h75v-542h-3zM368 771l-110 -161h-37l63 161h84z" />
    <glyph glyph-name="ncaron.sc.salt" horiz-adv-x="540" 
d="M464 -24l-316 369v-345h-75v536h2l317 -370v352h75v-542h-3zM155 771h41l68 -94l66 94h41l-84 -161h-48z" />
    <glyph glyph-name="ntilde.sc.salt" horiz-adv-x="540" 
d="M464 -24l-316 369v-345h-75v536h2l317 -370v352h75v-542h-3zM218 675q-17 0 -28 -16t-14 -41l-29 8q4 54 25 85t50 31q18 0 51.5 -18.5t45.5 -18.5q35 0 42 57l29 -8q-4 -54 -24.5 -85t-50.5 -31q-18 0 -51.5 18.5t-45.5 18.5z" />
    <glyph glyph-name="ncommaaccent.sc.salt" horiz-adv-x="540" 
d="M464 -24l-316 369v-345h-75v536h2l317 -370v352h75v-542h-3zM305 -63q12 -27 12 -54q0 -54 -69 -120h-41q49 70 49 117q0 18 -11 40z" />
    <glyph glyph-name="eng.sc.salt" horiz-adv-x="540" 
d="M329 -168q63 0 63 110v118l-244 285v-345h-75v536h2l317 -370v352h75v-581q0 -81 -33 -127.5t-93 -46.5q-37 0 -61 14l-6 70q21 -15 55 -15z" />
    <glyph glyph-name="wgrave.sc.salt" horiz-adv-x="626" 
d="M430 -32l-117 366l-128 -366h-3l-176 550h76l105 -346l127 365h3l115 -365l111 346h77l-186 -550h-4zM320 610l-111 161h84l63 -161h-36z" />
    <glyph glyph-name="wacute.sc.salt" horiz-adv-x="626" 
d="M430 -32l-117 366l-128 -366h-3l-176 550h76l105 -346l127 365h3l115 -365l111 346h77l-186 -550h-4zM418 771l-110 -161h-37l63 161h84z" />
    <glyph glyph-name="wcircumflex.sc.salt" horiz-adv-x="626" 
d="M430 -32l-117 366l-128 -366h-3l-176 550h76l105 -346l127 365h3l115 -365l111 346h77l-186 -550h-4zM381 610l-67 93l-67 -93h-41l84 161h48l84 -161h-41z" />
    <glyph glyph-name="wdieresis.sc.salt" horiz-adv-x="626" 
d="M430 -32l-117 366l-128 -366h-3l-176 550h76l105 -346l127 365h3l115 -365l111 346h77l-186 -550h-4zM194 686q0 19 13 32.5t32 13.5q18 0 31.5 -13.5t13.5 -32.5q0 -18 -13.5 -31.5t-31.5 -13.5q-19 0 -32 13.5t-13 31.5zM344 686q0 19 13 32.5t32 13.5q18 0 31.5 -13.5
t13.5 -32.5q0 -18 -13.5 -31.5t-31.5 -13.5q-19 0 -32 13.5t-13 31.5z" />
    <glyph glyph-name="agrave.salt" horiz-adv-x="477" 
d="M418 10l-73 -24q-6 23 -8 54q-50 -51 -118 -51q-84 0 -132.5 70t-48.5 177q0 121 56.5 193.5t147.5 72.5q58 0 105 -33l63 10v-375q0 -59 8 -94zM232 56q69 0 104 55v285q-34 39 -87 39q-63 0 -99 -53t-36 -144q0 -81 31.5 -131.5t86.5 -50.5zM244 577l-111 161h84
l63 -161h-36z" />
    <glyph glyph-name="aacute.salt" horiz-adv-x="477" 
d="M418 10l-73 -24q-6 23 -8 54q-50 -51 -118 -51q-84 0 -132.5 70t-48.5 177q0 121 56.5 193.5t147.5 72.5q58 0 105 -33l63 10v-375q0 -59 8 -94zM232 56q69 0 104 55v285q-34 39 -87 39q-63 0 -99 -53t-36 -144q0 -81 31.5 -131.5t86.5 -50.5zM342 738l-110 -161h-37
l63 161h84z" />
    <glyph glyph-name="acircumflex.salt" horiz-adv-x="477" 
d="M418 10l-73 -24q-6 23 -8 54q-50 -51 -118 -51q-84 0 -132.5 70t-48.5 177q0 121 56.5 193.5t147.5 72.5q58 0 105 -33l63 10v-375q0 -59 8 -94zM232 56q69 0 104 55v285q-34 39 -87 39q-63 0 -99 -53t-36 -144q0 -81 31.5 -131.5t86.5 -50.5zM305 577l-67 93l-67 -93
h-41l84 161h48l84 -161h-41z" />
    <glyph glyph-name="atilde.salt" horiz-adv-x="477" 
d="M418 10l-73 -24q-6 23 -8 54q-50 -51 -118 -51q-84 0 -132.5 70t-48.5 177q0 121 56.5 193.5t147.5 72.5q58 0 105 -33l63 10v-375q0 -59 8 -94zM232 56q69 0 104 55v285q-34 39 -87 39q-63 0 -99 -53t-36 -144q0 -81 31.5 -131.5t86.5 -50.5zM192 642q-17 0 -28 -16
t-14 -41l-29 8q4 54 25 85t50 31q18 0 51.5 -18.5t45.5 -18.5q35 0 42 57l29 -8q-4 -54 -24.5 -85t-50.5 -31q-18 0 -51.5 18.5t-45.5 18.5z" />
    <glyph glyph-name="adieresis.salt" horiz-adv-x="477" 
d="M418 10l-73 -24q-6 23 -8 54q-50 -51 -118 -51q-84 0 -132.5 70t-48.5 177q0 121 56.5 193.5t147.5 72.5q58 0 105 -33l63 10v-375q0 -59 8 -94zM232 56q69 0 104 55v285q-34 39 -87 39q-63 0 -99 -53t-36 -144q0 -81 31.5 -131.5t86.5 -50.5zM118 653q0 19 13 32.5
t32 13.5q18 0 31.5 -13.5t13.5 -32.5q0 -18 -13.5 -31.5t-31.5 -13.5q-19 0 -32 13.5t-13 31.5zM268 653q0 19 13 32.5t32 13.5q18 0 31.5 -13.5t13.5 -32.5q0 -18 -13.5 -31.5t-31.5 -13.5q-19 0 -32 13.5t-13 31.5z" />
    <glyph glyph-name="amacron.salt" horiz-adv-x="477" 
d="M418 10l-73 -24q-6 23 -8 54q-50 -51 -118 -51q-84 0 -132.5 70t-48.5 177q0 121 56.5 193.5t147.5 72.5q58 0 105 -33l63 10v-375q0 -59 8 -94zM232 56q69 0 104 55v285q-34 39 -87 39q-63 0 -99 -53t-36 -144q0 -81 31.5 -131.5t86.5 -50.5zM345 685v-63h-216v63h216z
" />
    <glyph glyph-name="abreve.salt" horiz-adv-x="477" 
d="M418 10l-73 -24q-6 23 -8 54q-50 -51 -118 -51q-84 0 -132.5 70t-48.5 177q0 121 56.5 193.5t147.5 72.5q58 0 105 -33l63 10v-375q0 -59 8 -94zM232 56q69 0 104 55v285q-34 39 -87 39q-63 0 -99 -53t-36 -144q0 -81 31.5 -131.5t86.5 -50.5zM238 645q64 0 64 86h37
q0 -65 -24.5 -106t-76.5 -41q-101 0 -101 147h36q0 -86 65 -86z" />
    <glyph glyph-name="aring.salt" horiz-adv-x="477" 
d="M418 10l-73 -24q-6 23 -8 54q-50 -51 -118 -51q-84 0 -132.5 70t-48.5 177q0 121 56.5 193.5t147.5 72.5q58 0 105 -33l63 10v-375q0 -59 8 -94zM232 56q69 0 104 55v285q-34 39 -87 39q-63 0 -99 -53t-36 -144q0 -81 31.5 -131.5t86.5 -50.5zM138 663q0 41 29.5 70.5
t70.5 29.5t70 -29.5t29 -70.5t-29.5 -70t-69.5 -29q-41 0 -70.5 29.5t-29.5 69.5zM180 663q0 -24 17 -41t41 -17t41 17t17 41t-17 41t-41 17t-41 -17t-17 -41z" />
    <glyph glyph-name="aogonek.salt" horiz-adv-x="477" 
d="M418 10q-53 -53 -72.5 -85.5t-19.5 -64.5q0 -37 32 -37q31 0 52 28h2l-5 -69q-25 -19 -63 -19t-60 22.5t-22 63.5q0 35 17 67.5t62 85.5q-4 24 -4 38q-50 -51 -118 -51q-84 0 -132.5 70t-48.5 177q0 121 56.5 193.5t147.5 72.5q58 0 105 -33l63 10v-375q0 -59 8 -94z
M232 56q69 0 104 55v285q-34 39 -87 39q-63 0 -99 -53t-36 -144q0 -81 31.5 -131.5t86.5 -50.5z" />
    <glyph glyph-name="egrave.salt" horiz-adv-x="436" 
d="M394 235l-287 -10q4 -84 39.5 -129.5t94.5 -45.5q85 0 139 74h3l-8 -87q-51 -54 -141 -54q-87 0 -141.5 64.5t-54.5 189.5q0 112 53 188.5t138 76.5q77 0 122.5 -60t45.5 -158q0 -28 -3 -49zM227 438q-47 0 -78.5 -43t-39.5 -114l219 7q0 66 -26.5 108t-74.5 42zM231 577
l-111 161h84l63 -161h-36z" />
    <glyph glyph-name="eacute.salt" horiz-adv-x="436" 
d="M394 235l-287 -10q4 -84 39.5 -129.5t94.5 -45.5q85 0 139 74h3l-8 -87q-51 -54 -141 -54q-87 0 -141.5 64.5t-54.5 189.5q0 112 53 188.5t138 76.5q77 0 122.5 -60t45.5 -158q0 -28 -3 -49zM227 438q-47 0 -78.5 -43t-39.5 -114l219 7q0 66 -26.5 108t-74.5 42zM329 738
l-110 -161h-37l63 161h84z" />
    <glyph glyph-name="ecircumflex.salt" horiz-adv-x="436" 
d="M394 235l-287 -10q4 -84 39.5 -129.5t94.5 -45.5q85 0 139 74h3l-8 -87q-51 -54 -141 -54q-87 0 -141.5 64.5t-54.5 189.5q0 112 53 188.5t138 76.5q77 0 122.5 -60t45.5 -158q0 -28 -3 -49zM227 438q-47 0 -78.5 -43t-39.5 -114l219 7q0 66 -26.5 108t-74.5 42zM291 577
l-67 93l-67 -93h-41l84 161h48l84 -161h-41z" />
    <glyph glyph-name="edieresis.salt" horiz-adv-x="436" 
d="M394 235l-287 -10q4 -84 39.5 -129.5t94.5 -45.5q85 0 139 74h3l-8 -87q-51 -54 -141 -54q-87 0 -141.5 64.5t-54.5 189.5q0 112 53 188.5t138 76.5q77 0 122.5 -60t45.5 -158q0 -28 -3 -49zM227 438q-47 0 -78.5 -43t-39.5 -114l219 7q0 66 -26.5 108t-74.5 42zM104 653
q0 19 13 32.5t32 13.5q18 0 31.5 -13.5t13.5 -32.5q0 -18 -13.5 -31.5t-31.5 -13.5q-19 0 -32 13.5t-13 31.5zM254 653q0 19 13 32.5t32 13.5q18 0 31.5 -13.5t13.5 -32.5q0 -18 -13.5 -31.5t-31.5 -13.5q-19 0 -32 13.5t-13 31.5z" />
    <glyph glyph-name="emacron.salt" horiz-adv-x="436" 
d="M394 235l-287 -10q4 -84 39.5 -129.5t94.5 -45.5q85 0 139 74h3l-8 -87q-51 -54 -141 -54q-87 0 -141.5 64.5t-54.5 189.5q0 112 53 188.5t138 76.5q77 0 122.5 -60t45.5 -158q0 -28 -3 -49zM227 438q-47 0 -78.5 -43t-39.5 -114l219 7q0 66 -26.5 108t-74.5 42zM332 685
v-63h-216v63h216z" />
    <glyph glyph-name="ebreve.salt" horiz-adv-x="436" 
d="M394 235l-287 -10q4 -84 39.5 -129.5t94.5 -45.5q85 0 139 74h3l-8 -87q-51 -54 -141 -54q-87 0 -141.5 64.5t-54.5 189.5q0 112 53 188.5t138 76.5q77 0 122.5 -60t45.5 -158q0 -28 -3 -49zM227 438q-47 0 -78.5 -43t-39.5 -114l219 7q0 66 -26.5 108t-74.5 42zM224 645
q64 0 64 86h37q0 -65 -24.5 -106t-76.5 -41q-101 0 -101 147h36q0 -86 65 -86z" />
    <glyph glyph-name="edotaccent.salt" horiz-adv-x="436" 
d="M394 235l-287 -10q4 -84 39.5 -129.5t94.5 -45.5q85 0 139 74h3l-8 -87q-51 -54 -141 -54q-87 0 -141.5 64.5t-54.5 189.5q0 112 53 188.5t138 76.5q77 0 122.5 -60t45.5 -158q0 -28 -3 -49zM227 438q-47 0 -78.5 -43t-39.5 -114l219 7q0 66 -26.5 108t-74.5 42zM174 656
q0 21 14.5 35.5t35.5 14.5t35.5 -15t14.5 -35q0 -21 -14.5 -36t-35.5 -15t-35.5 15t-14.5 36z" />
    <glyph glyph-name="ecaron.salt" horiz-adv-x="436" 
d="M394 235l-287 -10q4 -84 39.5 -129.5t94.5 -45.5q85 0 139 74h3l-8 -87q-51 -54 -141 -54q-87 0 -141.5 64.5t-54.5 189.5q0 112 53 188.5t138 76.5q77 0 122.5 -60t45.5 -158q0 -28 -3 -49zM227 438q-47 0 -78.5 -43t-39.5 -114l219 7q0 66 -26.5 108t-74.5 42zM116 738
h41l68 -94l66 94h41l-84 -161h-48z" />
    <glyph glyph-name="eogonek.salt" horiz-adv-x="436" 
d="M383 124l-8 -85q-60 -69 -80 -105t-20 -74q0 -37 32 -37q30 0 52 28h2l-5 -69q-25 -19 -64 -19q-38 0 -59.5 22.5t-21.5 63.5q0 33 13.5 63t48.5 74q-19 -3 -39 -3q-87 0 -141.5 64.5t-54.5 189.5q0 112 53 188.5t138 76.5q77 0 122.5 -60t45.5 -158q0 -27 -3 -45
l-289 -10q2 -86 39 -132.5t97 -46.5q85 0 139 74h3zM227 438q-49 0 -81.5 -44t-39.5 -117l223 7q0 68 -26.5 111t-75.5 43z" />
    <glyph glyph-name="gcircumflex.salt" horiz-adv-x="480" 
d="M71 -194l-5 87q56 -62 145 -62q128 0 128 158v37q-49 -41 -115 -41q-84 0 -135 68.5t-51 183.5q0 120 57 192.5t152 72.5q57 0 105 -24l60 11v-498q0 -104 -52 -166t-145 -62t-144 43zM238 53q66 0 101 39v320q-34 23 -83 23q-66 0 -104 -53t-38 -143q0 -86 33 -136
t91 -50zM310 577l-67 93l-67 -93h-41l84 161h48l84 -161h-41z" />
    <glyph glyph-name="gbreve.salt" horiz-adv-x="480" 
d="M71 -194l-5 87q56 -62 145 -62q128 0 128 158v37q-49 -41 -115 -41q-84 0 -135 68.5t-51 183.5q0 120 57 192.5t152 72.5q57 0 105 -24l60 11v-498q0 -104 -52 -166t-145 -62t-144 43zM238 53q66 0 101 39v320q-34 23 -83 23q-66 0 -104 -53t-38 -143q0 -86 33 -136
t91 -50zM243 645q64 0 64 86h37q0 -65 -24.5 -106t-76.5 -41q-101 0 -101 147h36q0 -86 65 -86z" />
    <glyph glyph-name="gdotaccent.salt" horiz-adv-x="480" 
d="M71 -194l-5 87q56 -62 145 -62q128 0 128 158v37q-49 -41 -115 -41q-84 0 -135 68.5t-51 183.5q0 120 57 192.5t152 72.5q57 0 105 -24l60 11v-498q0 -104 -52 -166t-145 -62t-144 43zM238 53q66 0 101 39v320q-34 23 -83 23q-66 0 -104 -53t-38 -143q0 -86 33 -136
t91 -50zM192 656q0 21 14.5 35.5t35.5 14.5t35.5 -15t14.5 -35q0 -21 -14.5 -36t-35.5 -15t-35.5 15t-14.5 36z" />
    <glyph glyph-name="gcommaaccent.salt" horiz-adv-x="480" 
d="M71 -194l-5 87q56 -62 145 -62q128 0 128 158v37q-49 -41 -115 -41q-84 0 -135 68.5t-51 183.5q0 120 57 192.5t152 72.5q57 0 105 -24l60 11v-498q0 -104 -52 -166t-145 -62t-144 43zM238 53q66 0 101 39v320q-34 23 -83 23q-66 0 -104 -53t-38 -143q0 -86 33 -136
t91 -50zM200 572q-11 23 -11 54q0 51 68 120h42q-49 -69 -49 -117q0 -21 11 -40z" />
    <glyph glyph-name="wgrave.salt" horiz-adv-x="610" 
d="M6 485h76l97 -336l126 364h3l109 -360l111 332h77l-188 -525h-4l-112 356l-126 -363h-3zM310 577l-111 161h84l63 -161h-36z" />
    <glyph glyph-name="wacute.salt" horiz-adv-x="610" 
d="M6 485h76l97 -336l126 364h3l109 -360l111 332h77l-188 -525h-4l-112 356l-126 -363h-3zM408 738l-110 -161h-37l63 161h84z" />
    <glyph glyph-name="wcircumflex.salt" horiz-adv-x="610" 
d="M6 485h76l97 -336l126 364h3l109 -360l111 332h77l-188 -525h-4l-112 356l-126 -363h-3zM371 577l-67 93l-67 -93h-41l84 161h48l84 -161h-41z" />
    <glyph glyph-name="wdieresis.salt" horiz-adv-x="610" 
d="M6 485h76l97 -336l126 364h3l109 -360l111 332h77l-188 -525h-4l-112 356l-126 -363h-3zM184 653q0 19 13 32.5t32 13.5q18 0 31.5 -13.5t13.5 -32.5q0 -18 -13.5 -31.5t-31.5 -13.5q-19 0 -32 13.5t-13 31.5zM334 653q0 19 13 32.5t32 13.5q18 0 31.5 -13.5t13.5 -32.5
q0 -18 -13.5 -31.5t-31.5 -13.5q-19 0 -32 13.5t-13 31.5z" />
    <glyph glyph-name="eth.salt" horiz-adv-x="473" 
d="M90 557l-4 52l96 47q-32 51 -83 124h86l61 -92l113 56l3 -52l-91 -45q52 -85 94 -167q40 -81 55 -135t15 -115q0 -110 -55 -177t-145 -67q-87 0 -142 73t-55 178q0 117 53.5 189.5t147.5 72.5q23 0 41 -7q-38 68 -73 123zM235 54q57 0 90.5 48.5t33.5 129.5
q0 88 -33.5 144.5t-86.5 56.5q-61 0 -93 -52.5t-32 -139.5q0 -76 34 -131.5t87 -55.5z" />
    <glyph glyph-name="A.superior.salt" horiz-adv-x="337" 
d="M269 350l-39 108h-126l-36 -108h-63l162 412h2l163 -412h-63zM165 641l-46 -134h95z" />
    </font>
</defs>
</svg>
