<?xml version="1.0" standalone="no"?>
<!DOCTYPE svg PUBLIC "-//W3C//DTD SVG 1.1//EN" "http://www.w3.org/Graphics/SVG/1.1/DTD/svg11.dtd" >
<svg xmlns="http://www.w3.org/2000/svg" xmlns:xlink="http://www.w3.org/1999/xlink" version="1.1">
<metadata>
Created by FontForge 20150318 at Wed Jun 17 06:28:29 2015
 By uniteet7
Copyright (c) 2013 Monotype GmbH.
</metadata>
<defs>
<font id="LinotypeMetroNovaPro" horiz-adv-x="586" >
  <font-face 
    font-family="LinotypeMetroNovaPro"
    font-weight="400"
    font-stretch="normal"
    units-per-em="1000"
    panose-1="2 12 5 4 2 2 3 2 2 3"
    ascent="770"
    descent="-230"
    x-height="485"
    cap-height="772"
    bbox="-213 -237 1124 1004"
    underline-thickness="50"
    underline-position="-50"
    unicode-range="U+000D-FB02"
  />
<missing-glyph horiz-adv-x="523" 
d="M187 79q21 0 33.5 -13t12.5 -33t-12.5 -32.5t-33.5 -12.5q-20 0 -32 12.5t-12 32.5t12 33t32 13zM218 164l-66 -14v151q86 4 135.5 38t49.5 88q0 48 -34 75.5t-91 27.5q-38 0 -78 -17l12 73q30 10 74 10q85 0 138 -43.5t53 -121.5q0 -70 -52.5 -119.5t-140.5 -63.5v-84z
M0 -138v870h523v-870h-523zM62 671v-748h399v748h-399z" />
    <glyph glyph-name=".notdef" horiz-adv-x="523" 
d="M187 79q21 0 33.5 -13t12.5 -33t-12.5 -32.5t-33.5 -12.5q-20 0 -32 12.5t-12 32.5t12 33t32 13zM218 164l-66 -14v151q86 4 135.5 38t49.5 88q0 48 -34 75.5t-91 27.5q-38 0 -78 -17l12 73q30 10 74 10q85 0 138 -43.5t53 -121.5q0 -70 -52.5 -119.5t-140.5 -63.5v-84z
M0 -138v870h523v-870h-523zM62 671v-748h399v748h-399z" />
    <glyph glyph-name=".null" horiz-adv-x="0" 
 />
    <glyph glyph-name="nonmarkingreturn" horiz-adv-x="333" 
 />
    <glyph glyph-name="CR" unicode="&#xd;" horiz-adv-x="220" 
 />
    <glyph glyph-name="space" unicode=" " horiz-adv-x="220" 
 />
    <glyph glyph-name="exclam" unicode="!" horiz-adv-x="279" 
d="M137 96q24 0 39 -15t15 -40q0 -23 -14.5 -38t-38.5 -15q-25 0 -39.5 14.5t-14.5 38.5q0 25 14.5 40t38.5 15zM92 761l103 19q-9 -298 -46 -562l-26 4q-29 254 -31 539z" />
    <glyph glyph-name="quotedbl" unicode="&#x22;" horiz-adv-x="344" 
d="M269 529l-39 -7q-21 118 -21 227h80q0 -98 -20 -220zM115 529l-39 -7q-21 118 -21 227h80q0 -98 -20 -220z" />
    <glyph glyph-name="numbersign" unicode="#" horiz-adv-x="582" 
d="M90 475l10 63h78l56 214h63l-56 -214h166l56 214h63l-56 -214h79l-9 -63h-87l-51 -194h90l-9 -64h-97l-57 -217h-62l56 217h-166l-57 -217h-62l56 217h-61l9 64h69l50 194h-71zM224 475l-51 -194h167l50 194h-166z" />
    <glyph glyph-name="dollar" unicode="$" 
d="M314 839v-70q91 -5 162 -41v-96q-76 57 -162 65v-285q114 -47 163 -103t49 -134q0 -82 -57.5 -132.5t-154.5 -61.5v-131h-52v128q-118 2 -196 62l-6 108q88 -88 202 -95v298q-110 45 -153.5 95.5t-43.5 131.5q0 75 54 129t143 62v70h52zM449 170q0 51 -30 89.5t-105 70.5
v-277q63 6 99 37.5t36 79.5zM142 579q0 -49 26 -82t94 -64v265q-58 -6 -89 -38.5t-31 -80.5z" />
    <glyph glyph-name="percent" unicode="%" horiz-adv-x="788" 
d="M660 752l-459 -752h-66l458 752h67zM189 384q-61 0 -96.5 38.5t-35.5 108.5q0 76 51 136.5t123 60.5q61 0 97 -38.5t36 -108.5q0 -76 -51.5 -136.5t-123.5 -60.5zM228 670q-46 0 -77.5 -43t-31.5 -103q0 -82 73 -82q47 0 78.5 43.5t31.5 102.5q0 40 -19.5 61t-54.5 21z
M557 24q-61 0 -96.5 38.5t-35.5 108.5q0 76 51 136.5t123 60.5q61 0 97 -38.5t36 -108.5q0 -76 -51.5 -136.5t-123.5 -60.5zM596 310q-46 0 -77.5 -43t-31.5 -103q0 -82 73 -82q47 0 78.5 43.5t31.5 102.5q0 40 -19.5 61t-54.5 21z" />
    <glyph glyph-name="ampersand" unicode="&#x26;" horiz-adv-x="800" 
d="M425 345l-8 85q51 20 173 34.5t181 38.5l7 -85q-47 -18 -133 -29q11 -44 11 -94q0 -143 -83.5 -227.5t-230.5 -84.5q-126 0 -202 71t-76 178q0 156 150 223q-71 59 -71 138q0 81 68.5 133t171.5 52q78 0 141 -16l-12 -95q-55 25 -130 25q-71 0 -114 -36t-43 -88
q0 -36 15.5 -65t56.5 -62v-3q-147 -67 -147 -194q0 -76 54 -127t144 -51q110 0 171.5 62t61.5 170q0 41 -10 83q-92 -13 -146 -36z" />
    <glyph glyph-name="quotesingle" unicode="'" horiz-adv-x="190" 
d="M115 529l-39 -7q-21 118 -21 227h80q0 -98 -20 -220z" />
    <glyph glyph-name="parenleft" unicode="(" horiz-adv-x="348" 
d="M74 349q0 145 38.5 252t119.5 201h61q-79 -106 -113.5 -211t-34.5 -242t34.5 -242t113.5 -211h-61q-81 94 -119.5 201t-38.5 252z" />
    <glyph glyph-name="parenright" unicode=")" horiz-adv-x="348" 
d="M275 349q0 -145 -38.5 -252t-119.5 -201h-62q79 106 113.5 211t34.5 242t-34.5 242t-113.5 211h62q81 -94 119.5 -201t38.5 -252z" />
    <glyph glyph-name="asterisk" unicode="*" horiz-adv-x="455" 
d="M227 755q34 0 34 -24q0 -39 -25 -119h-18q-24 82 -24 119q0 24 33 24zM227 374q-33 0 -33 24q0 37 24 119h18q25 -80 25 -119q0 -24 -34 -24zM57 636q0 14 10.5 28.5t22.5 14.5q6 0 11 -3q34 -19 91 -81l-9 -16q-87 21 -115 38q-11 6 -11 19zM90 450q-12 0 -22.5 14
t-10.5 28t11 20q28 17 115 38l9 -16q-57 -62 -91 -81q-5 -3 -11 -3zM398 493q0 -13 -10.5 -28t-23.5 -15q-5 0 -11 3q-33 20 -91 81l9 16q88 -21 116 -38q11 -9 11 -19zM364 679q12 0 23 -14.5t11 -28.5q0 -13 -11 -19q-28 -17 -116 -38l-9 16q58 61 91 81q6 3 11 3z" />
    <glyph glyph-name="plus" unicode="+" horiz-adv-x="576" 
d="M252 493h71v-198h202v-73h-202v-199h-71v199h-201v73h201v198z" />
    <glyph glyph-name="comma" unicode="," horiz-adv-x="247" 
d="M136 105q43 -36 43 -107q0 -97 -107 -143l-13 20q55 36 55 93q0 53 -47 89z" />
    <glyph glyph-name="hyphen" unicode="-" horiz-adv-x="324" 
d="M289 305v-73h-254v73h254z" />
    <glyph glyph-name="period" unicode="." horiz-adv-x="245" 
d="M122 96q24 0 39 -15t15 -40q0 -23 -14.5 -38t-38.5 -15q-25 0 -39.5 14.5t-14.5 38.5q0 25 14.5 40t38.5 15z" />
    <glyph glyph-name="slash" unicode="/" horiz-adv-x="432" 
d="M407 780l-309 -810h-73l308 810h74z" />
    <glyph glyph-name="zero" unicode="0" 
d="M291 -16q-117 0 -185 102.5t-68 291.5t70 289.5t186 100.5q119 0 186 -99.5t67 -292.5q0 -187 -69.5 -289.5t-186.5 -102.5zM291 61q82 0 125.5 79.5t43.5 238.5q0 156 -44 235.5t-123 79.5t-123.5 -80t-44.5 -234q0 -156 43.5 -237.5t122.5 -81.5z" />
    <glyph glyph-name="one" unicode="1" 
d="M345 0h-85v676l-118 -9l14 85h189v-752z" />
    <glyph glyph-name="two" unicode="2" 
d="M90 716q87 49 196 49q102 0 162 -57t60 -145q0 -66 -24.5 -120t-81.5 -123q-41 -48 -112 -119.5t-127 -122.5h371l-9 -78h-486v45q67 60 156.5 153.5t145.5 164.5q43 54 61.5 94.5t18.5 88.5q0 61 -39.5 99t-113.5 38q-106 0 -197 -70z" />
    <glyph glyph-name="three" unicode="3" 
d="M356 395q144 -49 144 -188q0 -101 -76 -160.5t-205 -59.5q-88 0 -155 28l-5 87q64 -35 153 -35q93 0 146.5 39.5t53.5 104.5q0 63 -47 100.5t-133 37.5q-79 0 -132 -10l20 88q36 -3 83 -3q90 0 142 36t52 103q0 55 -39 90t-109 35q-88 0 -151 -39l17 94q60 22 141 22
q106 0 166 -53t60 -138q0 -60 -33 -106.5t-93 -72.5z" />
    <glyph glyph-name="four" unicode="4" 
d="M386 0v243h-373v52l362 457h92v-435h87v-74h-87v-243h-81zM106 317h280v351z" />
    <glyph glyph-name="five" unicode="5" 
d="M511 752l-11 -76h-316l-26 -197q22 2 47 2q143 0 223.5 -66.5t80.5 -176.5q0 -135 -106 -209.5t-301 -74.5q-20 0 -38 3l8 84q36 -4 61 -4q139 0 215 52t76 143q0 81 -61 129t-180 48q-59 0 -111 -9l45 352h394z" />
    <glyph glyph-name="six" unicode="6" 
d="M498 693q-158 -9 -253.5 -91.5t-123.5 -212.5q76 67 188 67q109 0 175.5 -64t66.5 -170q0 -101 -71 -168.5t-181 -67.5q-126 0 -195.5 82t-69.5 219q0 98 30 183.5t88 153t151 109t211 47.5zM293 389q-109 0 -181 -69q-1 -11 -1 -34q0 -103 51 -162.5t139 -59.5
q72 0 118.5 45t46.5 115q0 74 -48 119.5t-125 45.5z" />
    <glyph glyph-name="seven" unicode="7" 
d="M63 752h462q-159 -431 -217 -752h-103q40 166 100.5 353t114.5 318l-387 -8z" />
    <glyph glyph-name="eight" unicode="8" 
d="M532 190q0 -85 -66 -144t-172 -59q-110 0 -175.5 55t-65.5 144q0 71 43.5 122t125.5 78q-80 37 -112.5 84t-32.5 109q0 79 62 136t158 57q100 0 158.5 -53.5t58.5 -133.5q0 -132 -144 -193q82 -37 122 -85.5t40 -116.5zM445 196q0 54 -38 90.5t-123 67.5
q-73 -23 -111.5 -64.5t-38.5 -95.5q0 -56 44 -93.5t112 -37.5q71 0 113 38t42 95zM162 578q0 -55 33.5 -90.5t111.5 -65.5q127 54 127 153q0 54 -37.5 88.5t-97.5 34.5t-98.5 -35t-38.5 -85z" />
    <glyph glyph-name="nine" unicode="9" 
d="M189 -23l-59 71q254 105 313 289q-62 -37 -148 -37q-119 0 -192 64t-73 173q0 99 68.5 167t174.5 68q126 0 197 -83t71 -221q0 -167 -86.5 -287.5t-265.5 -203.5zM309 365q91 0 149 35q5 37 5 69q0 104 -53 164.5t-141 60.5q-68 0 -111 -44t-43 -114q0 -76 53 -123.5
t141 -47.5z" />
    <glyph glyph-name="colon" unicode=":" horiz-adv-x="245" 
d="M122 496q24 0 39 -15t15 -40q0 -23 -14.5 -38t-38.5 -15q-25 0 -39.5 14.5t-14.5 38.5q0 25 14.5 40t38.5 15zM122 96q24 0 39 -15t15 -40q0 -23 -14.5 -38t-38.5 -15q-25 0 -39.5 14.5t-14.5 38.5q0 25 14.5 40t38.5 15z" />
    <glyph glyph-name="semicolon" unicode=";" horiz-adv-x="245" 
d="M136 105q43 -36 43 -107q0 -97 -107 -143l-13 20q55 36 55 93q0 53 -47 89zM122 496q24 0 39 -15t15 -40q0 -23 -14.5 -38t-38.5 -15q-25 0 -39.5 14.5t-14.5 38.5q0 25 14.5 40t38.5 15z" />
    <glyph glyph-name="less" unicode="&#x3c;" horiz-adv-x="576" 
d="M523 422l-405 -165l405 -164v-68l-470 193v79l470 193v-68z" />
    <glyph glyph-name="equal" unicode="=" horiz-adv-x="576" 
d="M531 381v-66h-486v66h486zM531 202v-66h-486v66h486z" />
    <glyph glyph-name="greater" unicode="&#x3e;" horiz-adv-x="576" 
d="M53 25v68l405 164l-405 165v68l470 -193v-79z" />
    <glyph glyph-name="question" unicode="?" horiz-adv-x="458" 
d="M125 96q25 0 40 -15t15 -40q0 -23 -15 -38t-39 -15q-25 0 -39.5 14.5t-14.5 38.5q0 25 14.5 40t38.5 15zM160 222l-75 -16v187q115 6 181 53.5t66 122.5q0 66 -47 105t-127 39q-56 0 -96 -17l15 80q37 12 92 12q111 0 179.5 -56t68.5 -158q0 -93 -70 -157.5t-187 -81.5
v-113z" />
    <glyph glyph-name="at" unicode="@" horiz-adv-x="905" 
d="M655 444l-54 -274q-5 -28 -5 -50q0 -41 42 -41q65 0 107.5 55t42.5 151q0 136 -91.5 222t-235.5 86q-153 0 -249.5 -106t-96.5 -262q0 -159 99 -252t251 -93q136 0 225 68l27 -60q-102 -69 -253 -69q-182 0 -297 110.5t-115 296.5q0 179 114.5 303.5t294.5 124.5
q168 0 280 -101.5t112 -265.5q0 -127 -65.5 -199t-161.5 -72q-51 0 -75 19t-27 62q-24 -34 -64 -56t-85 -22q-65 0 -102 43.5t-37 122.5q0 118 66 199.5t155 81.5q44 0 75.5 -24t42.5 -58l11 60h69zM564 330q-12 32 -39 53t-63 21q-65 0 -109.5 -61.5t-44.5 -148.5
q0 -54 23.5 -83.5t68.5 -29.5q77 0 133 86z" />
    <glyph glyph-name="A" unicode="A" horiz-adv-x="757" 
d="M7 0l347 768l68 11l329 -779h-96l-109 267h-329l-114 -267h-96zM387 665l-143 -328h275z" />
    <glyph glyph-name="B" unicode="B" horiz-adv-x="627" 
d="M541 589q0 -53 -29.5 -98t-86.5 -71q145 -47 145 -191q0 -103 -78 -166t-205 -63h-185v772h197q115 0 178.5 -51t63.5 -132zM187 370v-297h100q93 0 143.5 44t50.5 113q0 62 -46.5 101t-127.5 39h-120zM187 700v-261h113q74 0 114.5 40t40.5 98q0 54 -41 88.5t-119 34.5
h-108z" />
    <glyph glyph-name="C" unicode="C" horiz-adv-x="744" 
d="M685 716l-12 -101h-3q-82 87 -224 87q-129 0 -214 -92t-85 -224q0 -142 82 -228.5t213 -86.5q147 0 249 106h3l-12 -115q-103 -75 -246 -75q-168 0 -273.5 110t-105.5 290q0 164 110 281t275 117q146 0 243 -69z" />
    <glyph glyph-name="D" unicode="D" horiz-adv-x="761" 
d="M277 0h-175v772h177q200 0 312.5 -103t112.5 -273q0 -190 -110 -293t-317 -103zM187 693v-613h93q163 0 249 81.5t86 234.5q0 130 -88.5 213.5t-244.5 83.5h-95z" />
    <glyph glyph-name="E" unicode="E" horiz-adv-x="572" 
d="M187 694v-254h288v-74h-288v-289h334v-77h-419v772h412v-78h-327z" />
    <glyph glyph-name="F" unicode="F" horiz-adv-x="554" 
d="M521 772v-78h-334v-246h308v-77h-308v-371h-85v772h419z" />
    <glyph glyph-name="G" unicode="G" horiz-adv-x="778" 
d="M711 356v-266q-120 -103 -276 -103q-167 0 -272.5 109.5t-105.5 287.5q0 170 105 285.5t277 115.5q143 0 245 -71l-12 -101h-3q-90 91 -229 91q-133 0 -213 -90t-80 -230q0 -144 80.5 -230.5t210.5 -86.5q114 0 185 68v221h88z" />
    <glyph glyph-name="H" unicode="H" horiz-adv-x="784" 
d="M187 0h-85v772h85v-331h409v331h86v-772h-86v361h-409v-361z" />
    <glyph glyph-name="I" unicode="I" horiz-adv-x="289" 
d="M187 0h-85v772h85v-772z" />
    <glyph glyph-name="J" unicode="J" horiz-adv-x="289" 
d="M103 772h86v-640q0 -130 -19 -206.5t-63 -125.5l-131 -37l-4 11q74 53 102.5 126t28.5 224v648z" />
    <glyph glyph-name="K" unicode="K" horiz-adv-x="699" 
d="M187 0h-85v772h85v-369l354 369h118l-375 -377l407 -395h-122l-382 383v-383z" />
    <glyph glyph-name="L" unicode="L" horiz-adv-x="603" 
d="M102 0v772h85v-692h397v-80h-482z" />
    <glyph glyph-name="M" unicode="M" horiz-adv-x="1023" 
d="M102 0v772h102l304 -648l312 648h101v-772h-84v629l-302 -629h-54l-296 629v-629h-83z" />
    <glyph glyph-name="N" unicode="N" horiz-adv-x="873" 
d="M688 772h83v-772h-76l-509 634v-634h-84v772h78l508 -630v630z" />
    <glyph glyph-name="O" unicode="O" horiz-adv-x="853" 
d="M706 386q0 140 -78.5 230t-201.5 90t-201.5 -90t-78.5 -230t79 -230t201 -90q123 0 201.5 90t78.5 230zM796 386q0 -175 -104.5 -288t-265.5 -113q-162 0 -265.5 113t-103.5 288t104 288t265 113q162 0 266 -113t104 -288z" />
    <glyph glyph-name="P" unicode="P" horiz-adv-x="584" 
d="M187 0h-85v772h168q131 0 206 -60t75 -168q0 -121 -77 -182.5t-225 -61.5h-62v-300zM187 696v-320h72q206 0 206 165q0 75 -52 115t-148 40h-78z" />
    <glyph glyph-name="Q" unicode="Q" horiz-adv-x="857" 
d="M425 0q-47 0 -95 14v-1q8 -3 97 -46t141 -59q60 -17 138 -22l-27 -85q-76 7 -154 36q-60 24 -145 69.5t-109 56.5q-45 21 -93 33l42 75q-74 55 -118.5 141.5t-44.5 187.5q0 169 104 278t264 109q164 0 269.5 -111t105.5 -283q0 -171 -106 -282t-269 -111zM708 393
q0 136 -79.5 224t-203.5 88q-121 0 -198.5 -86t-77.5 -219q0 -137 81 -230.5t195 -93.5q124 0 203.5 89.5t79.5 227.5z" />
    <glyph glyph-name="R" unicode="R" horiz-adv-x="662" 
d="M99 0v772h196q125 0 194 -55t69 -156q0 -166 -191 -216l287 -345h-110l-265 331q-35 -3 -70 -3h-25v-328h-85zM184 696v-304h21q132 0 198 39.5t66 123.5q0 67 -47.5 104t-136.5 37h-101z" />
    <glyph glyph-name="S" unicode="S" horiz-adv-x="562" 
d="M68 140q86 -77 193 -77q73 0 116 34.5t43 93.5q0 54 -37 95t-128 86q-103 52 -144 101.5t-41 129.5q0 79 59 131.5t153 52.5q89 0 168 -38v-101q-82 62 -163 62q-62 0 -96 -30.5t-34 -78.5q0 -53 32 -86t128 -80q103 -52 147 -107.5t44 -133.5q0 -97 -70.5 -153.5
t-185.5 -56.5q-112 0 -177 47l-10 109h3z" />
    <glyph glyph-name="T" unicode="T" horiz-adv-x="653" 
d="M369 0h-85v692h-271v80h626v-80h-270v-692z" />
    <glyph glyph-name="U" unicode="U" horiz-adv-x="760" 
d="M96 772h86v-484q0 -108 55.5 -163t142.5 -55t143 55t56 163v484h85v-488q0 -149 -78.5 -223.5t-205.5 -74.5t-205.5 73.5t-78.5 221.5v491z" />
    <glyph glyph-name="V" unicode="V" horiz-adv-x="750" 
d="M7 772h98l262 -654l278 654h98l-341 -772h-72z" />
    <glyph glyph-name="W" unicode="W" horiz-adv-x="1131" 
d="M740 0l-176 454l-184 -454h-68l-305 772h98l244 -653l176 435l-84 218h98l235 -646l258 646h92l-317 -772h-67z" />
    <glyph glyph-name="X" unicode="X" horiz-adv-x="755" 
d="M12 0l309 400l-286 372h114l226 -305l225 305h111l-287 -369l307 -403h-113l-248 336l-253 -336h-105z" />
    <glyph glyph-name="Y" unicode="Y" horiz-adv-x="696" 
d="M379 0h-85v359l-291 413h105l232 -339l247 339h107l-315 -414v-358z" />
    <glyph glyph-name="Z" unicode="Z" horiz-adv-x="720" 
d="M659 0h-657l528 689h-452l9 83h604l-531 -689h515z" />
    <glyph glyph-name="bracketleft" unicode="[" horiz-adv-x="348" 
d="M84 -104v906h210v-47h-142v-812h142v-47h-210z" />
    <glyph glyph-name="backslash" unicode="\" horiz-adv-x="442" 
d="M339 -30l-309 810h74l308 -810h-73z" />
    <glyph glyph-name="bracketright" unicode="]" horiz-adv-x="348" 
d="M265 802v-906h-211v47h142v812h-142v47h211z" />
    <glyph glyph-name="asciicircum" unicode="^" horiz-adv-x="458" 
d="M350 410l-122 252l-121 -252h-73l150 313h89l151 -313h-74z" />
    <glyph glyph-name="underscore" unicode="_" horiz-adv-x="500" 
d="M500 -71v-57h-500v57h500z" />
    <glyph glyph-name="grave" unicode="`" horiz-adv-x="189" 
d="M139 571l-134 162h97l80 -162h-43z" />
    <glyph glyph-name="a" unicode="a" horiz-adv-x="501" 
d="M93 370v78q66 50 161 50q168 0 168 -167v-323l-79 -20v73q-83 -72 -176 -72q-58 0 -93 30.5t-35 83.5q0 95 102 142q79 37 202 52v34q0 46 -26 71t-75 25q-86 0 -146 -57h-3zM343 137v107q-86 -8 -152 -37q-67 -30 -67 -85q0 -31 19.5 -49t56.5 -18q81 0 143 82z" />
    <glyph glyph-name="b" unicode="b" horiz-adv-x="593" 
d="M269 -17q-69 0 -115 28l-67 -24v776l82 17v-326q62 48 143 48q100 0 166 -66.5t66 -178.5q0 -125 -74.5 -199.5t-200.5 -74.5zM292 433q-78 0 -123 -50v-311q37 -24 97 -24q89 0 141 54t52 148q0 83 -45.5 133t-121.5 50z" />
    <glyph glyph-name="c" unicode="c" horiz-adv-x="508" 
d="M468 127l-14 -98q-63 -46 -158 -46q-114 0 -180.5 67.5t-66.5 184.5t70.5 192t193.5 75q88 0 148 -38l-15 -82q-56 45 -131 45q-85 0 -133 -52t-48 -140q0 -78 44.5 -127.5t125.5 -49.5q93 0 161 69h3z" />
    <glyph glyph-name="d" unicode="d" horiz-adv-x="594" 
d="M429 -15l1 48q-66 -50 -153 -50q-105 0 -166.5 70.5t-61.5 177.5q0 119 73.5 195t179.5 76q65 0 122 -29v290l83 17v-772zM296 53q82 0 128 42v307q-40 30 -111 30q-77 0 -128 -55t-51 -143q0 -81 43 -131t119 -50z" />
    <glyph glyph-name="e" unicode="e" horiz-adv-x="513" 
d="M297 217q-80 -22 -172 -34q12 -59 52.5 -94t105.5 -35q101 0 164 76h3l-5 -90q-65 -57 -166 -57q-112 0 -171.5 67t-59.5 165q0 113 75.5 201t189.5 88q70 0 110 -36t40 -92q0 -116 -166 -159zM294 440q-70 0 -120.5 -64t-52.5 -143q74 10 157 34q102 30 102 99
q0 35 -23 54.5t-63 19.5z" />
    <glyph glyph-name="f" unicode="f" horiz-adv-x="351" 
d="M199 545v-60h138v-69h-138v-416h-82v416h-99v69h99v78q0 148 97 192l130 25v-46q-83 -17 -114 -60.5t-31 -128.5z" />
    <glyph glyph-name="g" unicode="g" horiz-adv-x="534" 
d="M254 497q65 0 114 -30q51 67 126 67v-71q-47 0 -82 -31q40 -46 40 -101q0 -56 -37.5 -95t-106.5 -56q-25 -6 -65.5 -13t-52.5 -10q-47 -12 -47 -32q0 -21 59 -34q23 -5 87 -14t83 -13q59 -12 86 -41t27 -78q0 -77 -73 -129.5t-176 -52.5q-87 0 -138.5 43t-51.5 103
q0 82 90 128q-80 26 -80 74q0 49 107 85q-99 47 -99 133q0 70 54.5 119t135.5 49zM338 0q-16 3 -67 10.5t-81 13.5q-80 -38 -80 -99q0 -40 35.5 -67.5t95.5 -27.5q71 0 117 31.5t46 74.5q0 50 -66 64zM138 326q0 -66 75 -100q10 -5 22 -5q13 0 36 4q47 11 74.5 37t27.5 65
q0 43 -33.5 73.5t-87.5 30.5q-49 0 -81.5 -29.5t-32.5 -75.5z" />
    <glyph glyph-name="h" unicode="h" horiz-adv-x="582" 
d="M87 0v763l82 17v-379q79 96 176 96q158 0 158 -165v-332h-82v305q0 60 -25 88t-76 28q-35 0 -68 -17t-54 -46q-29 -39 -29 -91v-267h-82z" />
    <glyph glyph-name="i" unicode="i" horiz-adv-x="256" 
d="M87 478l82 16v-494h-82v478zM128 722q24 0 39 -15t15 -39t-15 -39t-38 -15q-25 0 -39.5 14.5t-14.5 39.5q0 24 14.5 39t38.5 15z" />
    <glyph glyph-name="j" unicode="j" horiz-adv-x="256" 
d="M87 478l82 16v-512q0 -131 -51 -187l-119 -32l-6 14q51 32 72.5 79t21.5 128v494zM127 722q24 0 39 -15t15 -39t-14.5 -39t-38.5 -15q-25 0 -39.5 14.5t-14.5 39.5q0 24 14.5 39t38.5 15z" />
    <glyph glyph-name="k" unicode="k" horiz-adv-x="536" 
d="M169 780v-509l215 214h113l-241 -219l305 -266h-123l-269 255v-255h-82v763z" />
    <glyph glyph-name="l" unicode="l" horiz-adv-x="256" 
d="M169 780v-780h-82v763z" />
    <glyph glyph-name="m" unicode="m" horiz-adv-x="849" 
d="M688 0v310q0 53 -24 82t-68 29q-69 0 -110 -65q-17 -26 -17 -66v-290h-82v310q0 53 -24 82t-67 29q-73 0 -112 -67q-15 -26 -15 -65v-289h-82v485h82v-71q52 83 147 83q54 0 90 -27t52 -71q59 98 159 98q75 0 114 -45.5t39 -123.5v-328h-82z" />
    <glyph glyph-name="n" unicode="n" horiz-adv-x="582" 
d="M87 0v485h82v-84q79 96 176 96q158 0 158 -165v-332h-82v305q0 60 -25 88t-76 28q-35 0 -68 -17t-54 -46q-29 -39 -29 -91v-267h-82z" />
    <glyph glyph-name="o" unicode="o" horiz-adv-x="579" 
d="M290 53q72 0 114 50.5t42 141.5q0 87 -42.5 138t-113.5 51q-73 0 -114.5 -52t-41.5 -137q0 -86 41.5 -139t114.5 -53zM290 -17q-107 0 -174 70.5t-67 191.5q0 119 67.5 188.5t173.5 69.5q104 0 172.5 -67.5t68.5 -190.5q0 -126 -69 -194t-172 -68z" />
    <glyph glyph-name="p" unicode="p" horiz-adv-x="590" 
d="M87 485h82v-15q56 28 128 28q106 0 175.5 -68t69.5 -183q0 -121 -70 -192.5t-189 -71.5q-64 0 -114 27v-227l-82 -20v722zM281 431q-71 0 -112 -29v-325q44 -30 107 -30q83 0 131.5 52.5t48.5 143.5q0 86 -47.5 137t-127.5 51z" />
    <glyph glyph-name="q" unicode="q" horiz-adv-x="596" 
d="M509 491v-708l-82 -20v262q-61 -41 -144 -41q-107 0 -170.5 68.5t-63.5 184.5q0 121 71.5 193t190.5 72q72 0 125 -22zM302 55q81 0 125 38v321q-45 21 -108 21q-86 0 -135.5 -52.5t-49.5 -142.5q0 -86 45 -135.5t123 -49.5z" />
    <glyph glyph-name="r" unicode="r" horiz-adv-x="373" 
d="M359 491v-82h-18q-77 0 -134 -43q-22 -17 -30 -36.5t-8 -52.5v-277h-82v485h82v-86q68 93 169 93q13 0 21 -1z" />
    <glyph glyph-name="s" unicode="s" horiz-adv-x="440" 
d="M50 31l6 92q27 -31 69.5 -50t89.5 -19q94 0 94 68q0 40 -40 61q-21 12 -67 29.5t-63 25.5q-47 23 -66 53.5t-19 76.5q0 58 43.5 96t114.5 38q91 0 160 -44l-23 -83q-25 27 -63 41.5t-71 14.5q-39 0 -58.5 -16.5t-19.5 -42.5q0 -43 46 -65q14 -7 57.5 -23.5t61.5 -25.5
q49 -25 69.5 -56.5t20.5 -77.5q0 -64 -47.5 -102.5t-131.5 -38.5q-98 0 -163 48z" />
    <glyph glyph-name="t" unicode="t" horiz-adv-x="355" 
d="M18 485h94v151l82 17v-168h146v-69h-146v-252q0 -69 15 -98t66 -57v-7l-94 -11q-37 18 -53 53.5t-16 111.5v260h-94v69z" />
    <glyph glyph-name="u" unicode="u" horiz-adv-x="579" 
d="M79 485h82v-311q0 -108 102 -108q80 0 132 82q15 22 15 54v283h82v-477l-82 -20v97q-73 -96 -174 -96q-157 0 -157 169v327z" />
    <glyph glyph-name="v" unicode="v" horiz-adv-x="488" 
d="M9 485h90l133 -389l157 389h90l-210 -485h-78z" />
    <glyph glyph-name="w" unicode="w" horiz-adv-x="774" 
d="M350 485h75l103 -391l150 391h87l-204 -485h-76l-101 357l-124 -357h-77l-174 485h87l126 -390z" />
    <glyph glyph-name="x" unicode="x" horiz-adv-x="542" 
d="M514 485l-201 -233l203 -252h-99l-151 195l-162 -195h-99l215 248l-189 237h105l133 -180l146 180h99z" />
    <glyph glyph-name="y" unicode="y" horiz-adv-x="499" 
d="M61 -234q88 101 147 240l-199 479h90l150 -383l155 383h86l-212 -498q-63 -149 -117 -224h-100v3z" />
    <glyph glyph-name="z" unicode="z" horiz-adv-x="519" 
d="M471 0h-451l330 410h-291l7 75h428l-334 -409h323z" />
    <glyph glyph-name="braceleft" unicode="{" horiz-adv-x="348" 
d="M27 326v48q100 8 100 115v167q0 77 41.5 111.5t129.5 34.5v-46q-55 0 -79.5 -25.5t-24.5 -87.5v-168q0 -105 -96 -125q96 -20 96 -125v-168q0 -63 24.5 -88t79.5 -25v-46q-88 0 -129.5 34.5t-41.5 111.5v167q0 107 -100 115z" />
    <glyph glyph-name="bar" unicode="|" horiz-adv-x="262" 
d="M165 -110h-68v902h68v-902z" />
    <glyph glyph-name="braceright" unicode="}" horiz-adv-x="348" 
d="M321 374v-48q-100 -8 -100 -115v-167q0 -78 -41.5 -112t-129.5 -34v46q55 0 79.5 25.5t24.5 87.5v168q0 105 96 125q-96 20 -96 125v168q0 62 -24.5 87.5t-79.5 25.5v46q88 0 129.5 -34t41.5 -112v-167q0 -107 100 -115z" />
    <glyph glyph-name="asciitilde" unicode="~" horiz-adv-x="573" 
d="M546 275q-50 -97 -139 -97q-37 0 -78.5 24t-81.5 47.5t-75 23.5q-64 0 -107 -85l-38 74q50 97 142 97q45 0 120 -47.5t115 -47.5q64 0 107 85z" />
    <glyph glyph-name="uni00A0" unicode="&#xa0;" horiz-adv-x="220" 
 />
    <glyph glyph-name="exclamdown" unicode="&#xa1;" horiz-adv-x="279" 
d="M142 386q-25 0 -40 15t-15 39t15 38.5t39 14.5q25 0 39.5 -14.5t14.5 -38.5t-14.5 -39t-38.5 -15zM187 -218l-103 -19q9 277 46 514l26 -4q29 -228 31 -491z" />
    <glyph glyph-name="cent" unicode="&#xa2;" 
d="M474 666l-43 -173q46 -11 81 -32l-14 -84q-43 33 -85 45l-92 -367h19q102 0 174 78h2l-14 -98q-29 -22 -75 -37t-96 -15q-5 0 -14.5 0.5t-13.5 0.5l-38 -154h-55l40 163q-81 20 -127 83.5t-46 158.5q0 119 72.5 193t202.5 74q17 0 26 -1l41 165h55zM156 235
q0 -61 29 -106.5t84 -63.5l91 365h-9q-93 0 -144 -52t-51 -143z" />
    <glyph glyph-name="sterling" unicode="&#xa3;" 
d="M450 419l-18 -67q-87 5 -180 5h-20q19 -84 19 -131q0 -57 -17 -100q12 -5 50.5 -24.5t69 -29t62.5 -9.5q69 0 124 70h3v-88q-54 -61 -128 -61q-42 0 -81 15.5t-77 37.5t-57 28q-61 -73 -108 -73q-25 0 -39 15.5t-14 39.5q0 38 38.5 65.5t97.5 27.5h5q12 32 12 78
q0 58 -23 136q-52 -3 -113 -11l21 73q24 2 70 4q-35 109 -35 164q0 84 53 136t142 52q101 0 194 -67l-27 -79q-80 70 -162 70q-57 0 -88 -32.5t-31 -88.5q0 -54 23 -152h44q86 0 190 -4z" />
    <glyph glyph-name="currency" unicode="&#xa4;" 
d="M49 116l72 72q-40 54 -40 125q0 69 40 125l-72 72l48 47l71 -72q55 41 125 41t125 -41l72 72l47 -47l-72 -72q41 -55 41 -125q0 -71 -41 -126l72 -71l-47 -47l-72 71q-56 -40 -125 -40t-125 40l-71 -71zM149 313q0 -59 42.5 -101.5t101.5 -42.5t101.5 42.5t42.5 101.5
t-42.5 101.5t-101.5 42.5t-101.5 -42.5t-42.5 -101.5z" />
    <glyph glyph-name="yen" unicode="&#xa5;" 
d="M531 317v-57h-195v-260h-84v260h-196v57h196l-51 96h-145v56h116l-148 283h89l181 -369l177 369h90l-147 -283h117v-56h-146l-49 -96h195z" />
    <glyph glyph-name="brokenbar" unicode="&#xa6;" horiz-adv-x="262" 
d="M165 -110h-68v322h68v-322zM165 470h-68v322h68v-322z" />
    <glyph glyph-name="section" unicode="&#xa7;" horiz-adv-x="488" 
d="M33 343q0 46 30 81.5t87 39.5q-45 30 -64 62t-19 73q0 56 50 96.5t130 40.5q100 0 175 -48l-9 -79h-3q-79 65 -167 65q-46 0 -74 -21.5t-28 -54.5q0 -48 56 -85q28 -18 84.5 -46t82.5 -45q49 -32 70 -63t21 -77q0 -47 -30 -82.5t-87 -39.5q83 -55 83 -134q0 -55 -50 -96
t-129 -41q-109 0 -170 54l-8 87h3q75 -79 178 -79q46 0 74 21.5t28 54.5q0 52 -61 90q-26 17 -81 42.5t-83 43.5q-47 30 -68 61.5t-21 78.5zM98 351q0 -56 93 -110q76 -45 122 -45q37 0 57 23.5t20 54.5q0 58 -94 110q-80 45 -120 45q-39 0 -58.5 -24t-19.5 -54z" />
    <glyph glyph-name="dieresis" unicode="&#xa8;" horiz-adv-x="301" 
d="M59 698q22 0 36 -14t14 -36t-13.5 -35.5t-35.5 -13.5q-23 0 -36.5 13t-13.5 36t13.5 36.5t35.5 13.5zM241 698q23 0 36.5 -14t13.5 -36t-13.5 -35.5t-35.5 -13.5q-23 0 -36.5 13t-13.5 36q0 22 13.5 36t35.5 14z" />
    <glyph glyph-name="copyright" unicode="&#xa9;" horiz-adv-x="893" 
d="M45 385q0 167 117.5 284.5t283.5 117.5t284 -117.5t118 -284.5q0 -166 -117.5 -283t-284.5 -117t-284 117t-117 283zM102 385q0 -142 100.5 -242.5t243.5 -100.5t244 100.5t101 242.5q0 143 -101.5 244t-243.5 101t-243 -101t-101 -244zM629 275l-12 -89
q-67 -50 -161 -50q-110 0 -174 66t-64 180q0 116 66.5 188.5t184.5 72.5q89 0 154 -43l-14 -73q-63 53 -139 53q-89 0 -136.5 -53t-47.5 -145q0 -80 45 -131.5t129 -51.5q99 0 166 76h3z" />
    <glyph glyph-name="ordfeminine" unicode="&#xaa;" horiz-adv-x="351" 
d="M64 606v58q47 34 113 34q121 0 121 -119v-223l-62 -15v49q-53 -48 -121 -48q-41 0 -65.5 21t-24.5 59q0 67 74 101q58 27 137 35v21q0 65 -69 65q-59 0 -100 -38h-3zM236 446v72q-62 -7 -101 -25q-44 -21 -44 -56q0 -45 51 -45q53 0 94 54z" />
    <glyph glyph-name="guillemotleft" unicode="&#xab;" horiz-adv-x="450" 
d="M174 82l-130 165l130 165h60l-99 -165l99 -165h-60zM336 82l-130 165l130 165h61l-99 -165l99 -165h-61z" />
    <glyph glyph-name="logicalnot" unicode="&#xac;" horiz-adv-x="576" 
d="M54 386h442v-296h-73v226h-369v70z" />
    <glyph glyph-name="uni00AD" unicode="&#xad;" horiz-adv-x="324" 
d="M289 305v-73h-254v73h254z" />
    <glyph glyph-name="registered" unicode="&#xae;" horiz-adv-x="601" 
d="M39 525q0 109 76.5 185.5t185.5 76.5t185.5 -76.5t76.5 -185.5t-76.5 -185.5t-185.5 -76.5t-185.5 76.5t-76.5 185.5zM85 525q0 -89 63 -152.5t153 -63.5q89 0 152 63.5t63 152.5t-63 152.5t-152 63.5q-90 0 -153 -63.5t-63 -152.5zM199 374v312h81q58 0 89 -26t31 -75
q0 -68 -67 -94l95 -117h-62l-80 106q-26 -2 -41 -2v-104h-46zM245 642v-120q55 0 80 15t25 47q0 58 -73 58h-32z" />
    <glyph glyph-name="macron" unicode="&#xaf;" horiz-adv-x="287" 
d="M277 680v-64h-267v64h267z" />
    <glyph glyph-name="degree" unicode="&#xb0;" horiz-adv-x="342" 
d="M42 646q0 54 37.5 91.5t91.5 37.5q53 0 91.5 -37.5t38.5 -91.5t-38 -92t-92 -38t-91.5 38t-37.5 92zM94 646q0 -32 22.5 -55t54.5 -23t55 23t23 55t-23 54.5t-55 22.5t-54.5 -22.5t-22.5 -54.5z" />
    <glyph glyph-name="plusminus" unicode="&#xb1;" horiz-adv-x="576" 
d="M531 353v-64h-208v-146h-68v146h-210v64h210v150h68v-150h208zM531 96v-63h-486v63h486z" />
    <glyph glyph-name="twosuperior" unicode="&#xb2;" horiz-adv-x="348" 
d="M220 596q-45 -45 -99 -82h190l-7 -56h-269v49q68 46 132 113q61 64 61 120q0 27 -18 44t-51 17q-57 0 -111 -43l10 72q40 30 110 30q61 0 93.5 -31t32.5 -79q0 -79 -74 -154z" />
    <glyph glyph-name="threesuperior" unicode="&#xb3;" horiz-adv-x="346" 
d="M284 762q0 -30 -17.5 -54.5t-48.5 -36.5q84 -26 84 -102q0 -56 -42 -88.5t-110 -32.5q-72 0 -110 21l-3 64q46 -29 111 -29q42 0 66 18.5t24 47.5q0 30 -23.5 48t-65.5 18q-48 0 -85 -10l13 63q26 -2 50 -2q43 0 68 16.5t25 47.5q0 23 -19 38t-54 15q-55 0 -90 -23l14 64
q34 15 89 15q58 0 91 -27.5t33 -70.5z" />
    <glyph glyph-name="acute" unicode="&#xb4;" horiz-adv-x="189" 
d="M184 733l-134 -162h-43l80 162h97z" />
    <glyph glyph-name="mu" unicode="&#xb5;" horiz-adv-x="563" 
d="M249 -11q-70 0 -91 54v-261l-81 -19v722h81v-301q0 -115 97 -115q78 0 130 74q20 28 20 69v273h81v-477l-81 -20v94q-25 -43 -67 -68t-89 -25z" />
    <glyph glyph-name="paragraph" unicode="&#xb6;" horiz-adv-x="585" 
d="M192 772h339v-60h-92v-844h-64v844h-119v-844h-64v557q-79 0 -125.5 47t-46.5 126q0 80 46.5 127t125.5 47z" />
    <glyph glyph-name="periodcentered" unicode="&#xb7;" horiz-adv-x="245" 
d="M122 318q24 0 39 -15t15 -40q0 -23 -14.5 -38t-38.5 -15q-25 0 -39.5 14.5t-14.5 38.5q0 25 14.5 40t38.5 15z" />
    <glyph glyph-name="cedilla" unicode="&#xb8;" horiz-adv-x="213" 
d="M89 9h42l-35 -67q10 2 22 2q39 0 62 -20.5t23 -54.5q0 -39 -31.5 -64.5t-80.5 -25.5q-52 0 -81 23l5 53q22 -28 71 -28q28 0 42 11t14 28q0 39 -56 39q-25 0 -45 -5l-2 2z" />
    <glyph glyph-name="onesuperior" unicode="&#xb9;" horiz-adv-x="264" 
d="M171 458h-64v338l-90 -3l9 57h145v-392z" />
    <glyph glyph-name="ordmasculine" unicode="&#xba;" horiz-adv-x="406" 
d="M203 391q49 0 77 34.5t28 96.5q0 58 -28.5 92.5t-76.5 34.5t-76.5 -35t-28.5 -92q0 -59 27.5 -95t77.5 -36zM203 338q-75 0 -123 49.5t-48 134.5q0 83 48 131.5t123 48.5q74 0 122 -47.5t48 -132.5q0 -89 -48.5 -136.5t-121.5 -47.5z" />
    <glyph glyph-name="guillemotright" unicode="&#xbb;" horiz-adv-x="450" 
d="M114 412l130 -165l-130 -165h-60l99 165l-99 165h60zM277 412l130 -165l-130 -165h-61l99 165l-99 165h61z" />
    <glyph glyph-name="onequarter" unicode="&#xbc;" horiz-adv-x="821" 
d="M673 780l-519 -810h-65l518 810h66zM211 360h-64v338l-90 -3l9 57h145v-392zM653 0v104h-205v33l194 255h70v-236h72v-52h-72v-104h-59zM513 156h140v182z" />
    <glyph glyph-name="onehalf" unicode="&#xbd;" horiz-adv-x="821" 
d="M656 780l-519 -810h-65l518 810h66zM201 360h-64v338l-90 -3l9 57h145v-392zM668 138q-45 -45 -99 -82h190l-7 -56h-269v49q68 46 132 113q61 64 61 120q0 27 -18 44t-51 17q-57 0 -111 -43l10 72q40 30 110 30q61 0 93.5 -31t32.5 -79q0 -79 -74 -154z" />
    <glyph glyph-name="threequarters" unicode="&#xbe;" horiz-adv-x="821" 
d="M713 780l-519 -810h-65l518 810h66zM667 0v104h-205v33l194 255h70v-236h72v-52h-72v-104h-59zM527 156h140v182zM289 664q0 -30 -17.5 -54.5t-48.5 -36.5q84 -26 84 -102q0 -56 -42 -88.5t-110 -32.5q-72 0 -110 21l-3 64q46 -29 111 -29q42 0 66 18.5t24 47.5
q0 30 -23.5 48t-65.5 18q-48 0 -85 -10l13 63q26 -2 50 -2q43 0 68 16.5t25 47.5q0 23 -19 38t-54 15q-55 0 -90 -23l14 64q34 15 89 15q58 0 91 -27.5t33 -70.5z" />
    <glyph glyph-name="questiondown" unicode="&#xbf;" horiz-adv-x="434" 
d="M309 386q-24 0 -39 15t-15 39t15 38.5t38 14.5q25 0 40 -14.5t15 -38.5t-15 -39t-39 -15zM274 273l75 17v-155q-104 -7 -163.5 -53.5t-59.5 -118.5q0 -58 40.5 -91.5t110.5 -33.5q52 0 93 16l-12 -79q-37 -12 -92 -12q-100 0 -162.5 51t-62.5 144q0 91 63.5 154.5
t169.5 80.5v80z" />
    <glyph glyph-name="Agrave" unicode="&#xc0;" horiz-adv-x="757" 
d="M7 0l347 768l68 11l329 -779h-96l-109 267h-329l-114 -267h-96zM387 665l-143 -328h275zM397 824l-130 131h103l78 -131h-51z" />
    <glyph glyph-name="Aacute" unicode="&#xc1;" horiz-adv-x="757" 
d="M7 0l347 768l68 11l329 -779h-96l-109 267h-329l-114 -267h-96zM387 665l-143 -328h275zM513 955l-130 -131h-51l78 131h103z" />
    <glyph glyph-name="Acircumflex" unicode="&#xc2;" horiz-adv-x="757" 
d="M7 0l347 768l68 11l329 -779h-96l-109 267h-329l-114 -267h-96zM387 665l-143 -328h275zM480 824l-90 76l-87 -76h-52l102 131h77l101 -131h-51z" />
    <glyph glyph-name="Atilde" unicode="&#xc3;" horiz-adv-x="757" 
d="M7 0l347 768l68 11l329 -779h-96l-109 267h-329l-114 -267h-96zM387 665l-143 -328h275zM330 866q-21 0 -35 -15t-16 -38l-35 8q5 54 29 85t58 31q24 0 68 -17t60 -17q44 0 51 54l35 -8q-5 -54 -29 -85.5t-58 -31.5q-24 0 -68 17t-60 17z" />
    <glyph glyph-name="Adieresis" unicode="&#xc4;" horiz-adv-x="757" 
d="M7 0l347 768l68 11l329 -779h-96l-109 267h-329l-114 -267h-96zM387 665l-143 -328h275zM289 941q23 0 37 -14.5t14 -36.5q0 -23 -14 -37t-36 -14q-23 0 -37 14t-14 37t14 37t36 14zM491 941q23 0 37 -14.5t14 -36.5t-14 -36.5t-36 -14.5q-24 0 -37.5 14t-13.5 37t14 37
t36 14z" />
    <glyph glyph-name="Aring" unicode="&#xc5;" horiz-adv-x="757" 
d="M7 0l347 768l68 11l329 -779h-96l-109 267h-329l-114 -267h-96zM387 665l-143 -328h275zM292 904q0 40 29 69t69 29t69 -29t29 -69t-29 -69t-69 -29t-69 29t-29 69zM332 904q0 -23 17 -40.5t41 -17.5t41 17.5t17 40.5q0 24 -17 41t-41 17t-41 -17t-17 -41z" />
    <glyph glyph-name="AE" unicode="&#xc6;" horiz-adv-x="896" 
d="M523 694v-254h276v-74h-276v-289h322v-77h-408v293h-216l-153 -293h-91l404 772h464v-78h-322zM430 694l-172 -329h179v329h-7z" />
    <glyph glyph-name="Ccedilla" unicode="&#xc7;" horiz-adv-x="744" 
d="M685 716l-12 -101h-3q-82 87 -224 87q-129 0 -214 -92t-85 -224q0 -142 82 -228.5t213 -86.5q147 0 249 106h3l-12 -115q-95 -70 -234 -75l-23 -45q10 2 22 2q39 0 62 -20.5t23 -54.5q0 -39 -31.5 -64.5t-80.5 -25.5q-52 0 -81 23l5 53q22 -28 71 -28q28 0 42 11t14 28
q0 39 -56 39q-25 0 -45 -5l-2 2l40 86q-157 10 -254 118.5t-97 280.5q0 164 110 281t275 117q146 0 243 -69z" />
    <glyph glyph-name="Egrave" unicode="&#xc8;" horiz-adv-x="572" 
d="M187 694v-254h288v-74h-288v-289h334v-77h-419v772h412v-78h-327zM314 824l-130 131h103l78 -131h-51z" />
    <glyph glyph-name="Eacute" unicode="&#xc9;" horiz-adv-x="572" 
d="M187 694v-254h288v-74h-288v-289h334v-77h-419v772h412v-78h-327zM430 955l-130 -131h-51l78 131h103z" />
    <glyph glyph-name="Ecircumflex" unicode="&#xca;" horiz-adv-x="572" 
d="M187 694v-254h288v-74h-288v-289h334v-77h-419v772h412v-78h-327zM396 824l-90 76l-87 -76h-52l102 131h77l101 -131h-51z" />
    <glyph glyph-name="Edieresis" unicode="&#xcb;" horiz-adv-x="572" 
d="M187 694v-254h288v-74h-288v-289h334v-77h-419v772h412v-78h-327zM206 941q22 0 36.5 -14.5t14.5 -36.5q0 -23 -14 -37t-36 -14q-23 0 -37 14t-14 37t14 37t36 14zM408 941q22 0 36.5 -14.5t14.5 -36.5t-14 -36.5t-36 -14.5q-24 0 -37.5 14t-13.5 37t14 37t36 14z" />
    <glyph glyph-name="Igrave" unicode="&#xcc;" horiz-adv-x="289" 
d="M187 0h-85v772h85v-772zM151 824l-130 131h103l78 -131h-51z" />
    <glyph glyph-name="Iacute" unicode="&#xcd;" horiz-adv-x="289" 
d="M187 0h-85v772h85v-772zM267 955l-130 -131h-51l78 131h103z" />
    <glyph glyph-name="Icircumflex" unicode="&#xce;" horiz-adv-x="289" 
d="M187 0h-85v772h85v-772zM233 824l-90 76l-87 -76h-52l102 131h77l101 -131h-51z" />
    <glyph glyph-name="Idieresis" unicode="&#xcf;" horiz-adv-x="289" 
d="M187 0h-85v772h85v-772zM43 941q23 0 37 -14.5t14 -36.5q0 -23 -14 -37t-36 -14q-23 0 -37 14t-14 37t14 37t36 14zM245 941q23 0 37 -14.5t14 -36.5t-14 -36.5t-36 -14.5q-24 0 -37.5 14t-13.5 37t14 37t36 14z" />
    <glyph glyph-name="Eth" unicode="&#xd0;" horiz-adv-x="761" 
d="M277 0h-175v359h-67v70h67v343h177q200 0 312.5 -103t112.5 -273q0 -190 -110 -293t-317 -103zM187 693v-264h159v-70h-159v-279h93q163 0 249 81.5t86 234.5q0 130 -88.5 213.5t-244.5 83.5h-95z" />
    <glyph glyph-name="Ntilde" unicode="&#xd1;" horiz-adv-x="873" 
d="M688 772h83v-772h-76l-509 634v-634h-84v772h78l508 -630v630zM376 866q-21 0 -35 -15t-16 -38l-35 8q5 54 29 85t58 31q24 0 68 -17t60 -17q44 0 51 54l35 -8q-5 -54 -29 -85.5t-58 -31.5q-24 0 -68 17t-60 17z" />
    <glyph glyph-name="Ograve" unicode="&#xd2;" horiz-adv-x="853" 
d="M706 386q0 140 -78.5 230t-201.5 90t-201.5 -90t-78.5 -230t79 -230t201 -90q123 0 201.5 90t78.5 230zM796 386q0 -175 -104.5 -288t-265.5 -113q-162 0 -265.5 113t-103.5 288t104 288t265 113q162 0 266 -113t104 -288zM433 824l-130 131h103l78 -131h-51z" />
    <glyph glyph-name="Oacute" unicode="&#xd3;" horiz-adv-x="853" 
d="M706 386q0 140 -78.5 230t-201.5 90t-201.5 -90t-78.5 -230t79 -230t201 -90q123 0 201.5 90t78.5 230zM796 386q0 -175 -104.5 -288t-265.5 -113q-162 0 -265.5 113t-103.5 288t104 288t265 113q162 0 266 -113t104 -288zM549 955l-130 -131h-51l78 131h103z" />
    <glyph glyph-name="Ocircumflex" unicode="&#xd4;" horiz-adv-x="853" 
d="M706 386q0 140 -78.5 230t-201.5 90t-201.5 -90t-78.5 -230t79 -230t201 -90q123 0 201.5 90t78.5 230zM796 386q0 -175 -104.5 -288t-265.5 -113q-162 0 -265.5 113t-103.5 288t104 288t265 113q162 0 266 -113t104 -288zM515 824l-90 76l-87 -76h-52l102 131h77
l101 -131h-51z" />
    <glyph glyph-name="Otilde" unicode="&#xd5;" horiz-adv-x="853" 
d="M706 386q0 140 -78.5 230t-201.5 90t-201.5 -90t-78.5 -230t79 -230t201 -90q123 0 201.5 90t78.5 230zM796 386q0 -175 -104.5 -288t-265.5 -113q-162 0 -265.5 113t-103.5 288t104 288t265 113q162 0 266 -113t104 -288zM366 866q-21 0 -35 -15t-16 -38l-35 8
q5 54 29 85t58 31q24 0 68 -17t60 -17q44 0 51 54l35 -8q-5 -54 -29 -85.5t-58 -31.5q-24 0 -68 17t-60 17z" />
    <glyph glyph-name="Odieresis" unicode="&#xd6;" horiz-adv-x="853" 
d="M706 386q0 140 -78.5 230t-201.5 90t-201.5 -90t-78.5 -230t79 -230t201 -90q123 0 201.5 90t78.5 230zM796 386q0 -175 -104.5 -288t-265.5 -113q-162 0 -265.5 113t-103.5 288t104 288t265 113q162 0 266 -113t104 -288zM325 941q23 0 37 -14.5t14 -36.5q0 -23 -14 -37
t-36 -14q-23 0 -37 14t-14 37t14 37t36 14zM527 941q23 0 37 -14.5t14 -36.5t-14 -36.5t-36 -14.5q-24 0 -37.5 14t-13.5 37t14 37t36 14z" />
    <glyph glyph-name="multiply" unicode="&#xd7;" horiz-adv-x="576" 
d="M63 82l177 177l-187 187l48 48l187 -187l187 187l48 -48l-187 -187l177 -177l-48 -48l-177 177l-177 -177z" />
    <glyph glyph-name="Oslash" unicode="&#xd8;" horiz-adv-x="853" 
d="M796 386q0 -175 -104.5 -288t-265.5 -113q-122 0 -214 67l-46 -60l-63 20l61 81q-107 115 -107 293q0 175 104 288t265 113q121 0 213 -67l45 60l64 -20l-61 -81q109 -114 109 -293zM706 386q0 133 -73 223l-370 -489q69 -54 163 -54q123 0 201.5 90t78.5 230zM146 386
q0 -134 72 -222l370 489q-70 53 -162 53q-123 0 -201.5 -90t-78.5 -230z" />
    <glyph glyph-name="Ugrave" unicode="&#xd9;" horiz-adv-x="760" 
d="M96 772h86v-484q0 -108 55.5 -163t142.5 -55t143 55t56 163v484h85v-488q0 -149 -78.5 -223.5t-205.5 -74.5t-205.5 73.5t-78.5 221.5v491zM387 824l-130 131h103l78 -131h-51z" />
    <glyph glyph-name="Uacute" unicode="&#xda;" horiz-adv-x="760" 
d="M96 772h86v-484q0 -108 55.5 -163t142.5 -55t143 55t56 163v484h85v-488q0 -149 -78.5 -223.5t-205.5 -74.5t-205.5 73.5t-78.5 221.5v491zM503 955l-130 -131h-51l78 131h103z" />
    <glyph glyph-name="Ucircumflex" unicode="&#xdb;" horiz-adv-x="760" 
d="M96 772h86v-484q0 -108 55.5 -163t142.5 -55t143 55t56 163v484h85v-488q0 -149 -78.5 -223.5t-205.5 -74.5t-205.5 73.5t-78.5 221.5v491zM469 824l-90 76l-87 -76h-52l102 131h77l101 -131h-51z" />
    <glyph glyph-name="Udieresis" unicode="&#xdc;" horiz-adv-x="760" 
d="M96 772h86v-484q0 -108 55.5 -163t142.5 -55t143 55t56 163v484h85v-488q0 -149 -78.5 -223.5t-205.5 -74.5t-205.5 73.5t-78.5 221.5v491zM279 941q23 0 37 -14.5t14 -36.5q0 -23 -14 -37t-36 -14q-23 0 -37 14t-14 37t14 37t36 14zM481 941q23 0 37 -14.5t14 -36.5
t-14 -36.5t-36 -14.5q-24 0 -37.5 14t-13.5 37t14 37t36 14z" />
    <glyph glyph-name="Yacute" unicode="&#xdd;" horiz-adv-x="696" 
d="M379 0h-85v359l-291 413h105l232 -339l247 339h107l-315 -414v-358zM471 955l-130 -131h-51l78 131h103z" />
    <glyph glyph-name="Thorn" unicode="&#xde;" horiz-adv-x="581" 
d="M187 0h-85v772h85v-130h83q131 0 206 -60t75 -168q0 -121 -77.5 -183t-224.5 -62h-62v-169zM187 566v-321h72q206 0 206 166q0 74 -52 114.5t-148 40.5h-78z" />
    <glyph glyph-name="germandbls" unicode="&#xdf;" horiz-adv-x="601" 
d="M503 614q0 -62 -40.5 -114t-120.5 -85q101 -31 157.5 -90.5t56.5 -142.5q0 -89 -54.5 -144t-149.5 -55q-81 0 -122 35l-10 91h3q38 -54 120 -54q65 0 97.5 35t32.5 94q0 67 -57.5 117.5t-165.5 72.5v69q171 55 171 164q0 49 -28.5 75.5t-81.5 26.5q-66 0 -105 -49
t-39 -135v-525h-82v533q0 108 63 177.5t165 69.5q89 0 139.5 -45.5t50.5 -120.5z" />
    <glyph glyph-name="agrave" unicode="&#xe0;" horiz-adv-x="501" 
d="M93 370v78q66 50 161 50q168 0 168 -167v-323l-79 -20v73q-83 -72 -176 -72q-58 0 -93 30.5t-35 83.5q0 95 102 142q79 37 202 52v34q0 46 -26 71t-75 25q-86 0 -146 -57h-3zM343 137v107q-86 -8 -152 -37q-67 -30 -67 -85q0 -31 19.5 -49t56.5 -18q81 0 143 82zM258 577
l-134 162h97l80 -162h-43z" />
    <glyph glyph-name="aacute" unicode="&#xe1;" horiz-adv-x="501" 
d="M93 370v78q66 50 161 50q168 0 168 -167v-323l-79 -20v73q-83 -72 -176 -72q-58 0 -93 30.5t-35 83.5q0 95 102 142q79 37 202 52v34q0 46 -26 71t-75 25q-86 0 -146 -57h-3zM343 137v107q-86 -8 -152 -37q-67 -30 -67 -85q0 -31 19.5 -49t56.5 -18q81 0 143 82zM376 739
l-134 -162h-43l80 162h97z" />
    <glyph glyph-name="acircumflex" unicode="&#xe2;" horiz-adv-x="501" 
d="M93 370v78q66 50 161 50q168 0 168 -167v-323l-79 -20v73q-83 -72 -176 -72q-58 0 -93 30.5t-35 83.5q0 95 102 142q79 37 202 52v34q0 46 -26 71t-75 25q-86 0 -146 -57h-3zM343 137v107q-86 -8 -152 -37q-67 -30 -67 -85q0 -31 19.5 -49t56.5 -18q81 0 143 82zM334 577
l-85 93l-83 -93h-48l105 162h54l105 -162h-48z" />
    <glyph glyph-name="atilde" unicode="&#xe3;" horiz-adv-x="501" 
d="M93 370v78q66 50 161 50q168 0 168 -167v-323l-79 -20v73q-83 -72 -176 -72q-58 0 -93 30.5t-35 83.5q0 95 102 142q79 37 202 52v34q0 46 -26 71t-75 25q-86 0 -146 -57h-3zM343 137v107q-86 -8 -152 -37q-67 -30 -67 -85q0 -31 19.5 -49t56.5 -18q81 0 143 82zM193 639
q-21 0 -35 -15t-16 -38l-35 7q5 54 30 85.5t60 31.5q23 0 65 -17t57 -17q21 0 34.5 15t16.5 39l35 -8q-6 -55 -30.5 -86t-59.5 -31q-23 0 -65 17t-57 17z" />
    <glyph glyph-name="adieresis" unicode="&#xe4;" horiz-adv-x="501" 
d="M93 370v78q66 50 161 50q168 0 168 -167v-323l-79 -20v73q-83 -72 -176 -72q-58 0 -93 30.5t-35 83.5q0 95 102 142q79 37 202 52v34q0 46 -26 71t-75 25q-86 0 -146 -57h-3zM343 137v107q-86 -8 -152 -37q-67 -30 -67 -85q0 -31 19.5 -49t56.5 -18q81 0 143 82zM159 704
q22 0 36 -14t14 -36t-13.5 -35.5t-35.5 -13.5q-23 0 -36.5 13t-13.5 36t13.5 36.5t35.5 13.5zM341 704q23 0 36.5 -14t13.5 -36t-13.5 -35.5t-35.5 -13.5q-23 0 -36.5 13t-13.5 36q0 22 13.5 36t35.5 14z" />
    <glyph glyph-name="aring" unicode="&#xe5;" horiz-adv-x="501" 
d="M93 370v78q66 50 161 50q168 0 168 -167v-323l-79 -20v73q-83 -72 -176 -72q-58 0 -93 30.5t-35 83.5q0 95 102 142q79 37 202 52v34q0 46 -26 71t-75 25q-86 0 -146 -57h-3zM343 137v107q-86 -8 -152 -37q-67 -30 -67 -85q0 -31 19.5 -49t56.5 -18q81 0 143 82zM151 663
q0 41 29 70.5t70 29.5t70.5 -29.5t29.5 -70.5t-29.5 -70t-70.5 -29q-40 0 -69.5 29t-29.5 70zM194 663q0 -23 16.5 -39.5t39.5 -16.5q24 0 40.5 16.5t16.5 39.5q0 24 -16.5 40.5t-40.5 16.5q-23 0 -39.5 -16.5t-16.5 -40.5z" />
    <glyph glyph-name="ae" unicode="&#xe6;" horiz-adv-x="784" 
d="M94 447q65 52 160 52q121 0 147 -98q69 95 193 95q67 0 103.5 -34t36.5 -87q0 -52 -40.5 -90.5t-128.5 -51.5q-75 -11 -153 -14q6 -165 151 -165q46 0 87 21t68 59h3l-4 -92q-65 -60 -160 -60q-127 0 -181 90q-94 -90 -197 -90q-65 0 -102.5 33t-37.5 90q0 53 35 91
t100 55q69 18 168 22v58q0 47 -26 72t-73 25q-86 0 -146 -60h-3v79zM199 50q87 0 153 78q-10 39 -10 90v5q-78 -3 -143 -20q-75 -20 -75 -78q0 -34 19 -54.5t56 -20.5zM574 434q-62 0 -106 -48t-54 -119q79 6 142 18q48 9 71.5 31t23.5 52t-20.5 48t-56.5 18z" />
    <glyph glyph-name="ccedilla" unicode="&#xe7;" horiz-adv-x="508" 
d="M468 127l-14 -98q-57 -43 -148 -46l-21 -41q10 2 22 2q39 0 62 -20.5t23 -54.5q0 -39 -31.5 -64.5t-80.5 -25.5q-52 0 -81 23l5 53q22 -28 71 -28q28 0 42 11t14 28q0 39 -56 39q-25 0 -45 -5l-2 2l38 82q-101 9 -159 75.5t-58 175.5q0 117 70.5 192t193.5 75
q88 0 148 -38l-15 -82q-56 45 -131 45q-85 0 -133 -52t-48 -140q0 -78 44.5 -127.5t125.5 -49.5q93 0 161 69h3z" />
    <glyph glyph-name="egrave" unicode="&#xe8;" horiz-adv-x="513" 
d="M297 217q-80 -22 -172 -34q12 -59 52.5 -94t105.5 -35q101 0 164 76h3l-5 -90q-65 -57 -166 -57q-112 0 -171.5 67t-59.5 165q0 113 75.5 201t189.5 88q70 0 110 -36t40 -92q0 -116 -166 -159zM294 440q-70 0 -120.5 -64t-52.5 -143q74 10 157 34q102 30 102 99
q0 35 -23 54.5t-63 19.5zM292 577l-134 162h97l80 -162h-43z" />
    <glyph glyph-name="eacute" unicode="&#xe9;" horiz-adv-x="513" 
d="M297 217q-80 -22 -172 -34q12 -59 52.5 -94t105.5 -35q101 0 164 76h3l-5 -90q-65 -57 -166 -57q-112 0 -171.5 67t-59.5 165q0 113 75.5 201t189.5 88q70 0 110 -36t40 -92q0 -116 -166 -159zM294 440q-70 0 -120.5 -64t-52.5 -143q74 10 157 34q102 30 102 99
q0 35 -23 54.5t-63 19.5zM409 739l-134 -162h-43l80 162h97z" />
    <glyph glyph-name="ecircumflex" unicode="&#xea;" horiz-adv-x="513" 
d="M297 217q-80 -22 -172 -34q12 -59 52.5 -94t105.5 -35q101 0 164 76h3l-5 -90q-65 -57 -166 -57q-112 0 -171.5 67t-59.5 165q0 113 75.5 201t189.5 88q70 0 110 -36t40 -92q0 -116 -166 -159zM294 440q-70 0 -120.5 -64t-52.5 -143q74 10 157 34q102 30 102 99
q0 35 -23 54.5t-63 19.5zM368 577l-85 93l-83 -93h-48l105 162h54l105 -162h-48z" />
    <glyph glyph-name="edieresis" unicode="&#xeb;" horiz-adv-x="513" 
d="M297 217q-80 -22 -172 -34q12 -59 52.5 -94t105.5 -35q101 0 164 76h3l-5 -90q-65 -57 -166 -57q-112 0 -171.5 67t-59.5 165q0 113 75.5 201t189.5 88q70 0 110 -36t40 -92q0 -116 -166 -159zM294 440q-70 0 -120.5 -64t-52.5 -143q74 10 157 34q102 30 102 99
q0 35 -23 54.5t-63 19.5zM192 704q22 0 36 -14t14 -36t-13.5 -35.5t-35.5 -13.5q-23 0 -36.5 13t-13.5 36t13.5 36.5t35.5 13.5zM374 704q22 0 36 -14t14 -36t-13.5 -35.5t-35.5 -13.5q-23 0 -36.5 13t-13.5 36q0 22 13.5 36t35.5 14z" />
    <glyph glyph-name="igrave" unicode="&#xec;" horiz-adv-x="256" 
d="M87 478l82 16v-494h-82v478zM136 577l-134 162h97l80 -162h-43z" />
    <glyph glyph-name="iacute" unicode="&#xed;" horiz-adv-x="256" 
d="M87 478l82 16v-494h-82v478zM253 739l-134 -162h-43l80 162h97z" />
    <glyph glyph-name="icircumflex" unicode="&#xee;" horiz-adv-x="256" 
d="M87 478l82 16v-494h-82v478zM212 577l-85 93l-83 -93h-48l105 162h54l105 -162h-48z" />
    <glyph glyph-name="idieresis" unicode="&#xef;" horiz-adv-x="256" 
d="M44 698q22 0 36 -14t14 -36t-13.5 -35.5t-35.5 -13.5q-23 0 -36 13.5t-13 35.5q0 23 13 36.5t35 13.5zM207 698q22 0 35.5 -14t13.5 -36t-13 -35.5t-35 -13.5q-23 0 -36.5 13t-13.5 36t13.5 36.5t35.5 13.5zM87 478l82 16v-494h-82v478z" />
    <glyph glyph-name="eth" unicode="&#xf0;" horiz-adv-x="576" 
d="M125 588l-3 53l144 46q-48 38 -108 60v2l83 34q57 -25 109 -69l115 37l4 -52l-79 -25q138 -155 138 -386q0 -142 -66 -223.5t-185 -81.5q-101 0 -164.5 72t-63.5 179q0 122 65 194.5t171 72.5q76 0 135 -42q-36 112 -110 189zM446 280q0 42 -7 95q-57 60 -142 60
q-74 0 -118.5 -55.5t-44.5 -145.5q0 -79 40 -130.5t105 -51.5q79 0 123 60.5t44 167.5z" />
    <glyph glyph-name="ntilde" unicode="&#xf1;" horiz-adv-x="582" 
d="M87 0v485h82v-84q79 96 176 96q158 0 158 -165v-332h-82v305q0 60 -25 88t-76 28q-35 0 -68 -17t-54 -46q-29 -39 -29 -91v-267h-82zM236 639q-21 0 -35 -15t-16 -38l-35 7q5 54 30 85.5t60 31.5q23 0 65 -17t57 -17q21 0 34.5 15t16.5 39l35 -8q-6 -55 -30.5 -86
t-59.5 -31q-23 0 -65 17t-57 17z" />
    <glyph glyph-name="ograve" unicode="&#xf2;" horiz-adv-x="579" 
d="M290 53q72 0 114 50.5t42 141.5q0 87 -42.5 138t-113.5 51q-73 0 -114.5 -52t-41.5 -137q0 -86 41.5 -139t114.5 -53zM290 -17q-107 0 -174 70.5t-67 191.5q0 119 67.5 188.5t173.5 69.5q104 0 172.5 -67.5t68.5 -190.5q0 -126 -69 -194t-172 -68zM299 577l-134 162h97
l80 -162h-43z" />
    <glyph glyph-name="oacute" unicode="&#xf3;" horiz-adv-x="579" 
d="M290 53q72 0 114 50.5t42 141.5q0 87 -42.5 138t-113.5 51q-73 0 -114.5 -52t-41.5 -137q0 -86 41.5 -139t114.5 -53zM290 -17q-107 0 -174 70.5t-67 191.5q0 119 67.5 188.5t173.5 69.5q104 0 172.5 -67.5t68.5 -190.5q0 -126 -69 -194t-172 -68zM417 739l-134 -162h-43
l80 162h97z" />
    <glyph glyph-name="ocircumflex" unicode="&#xf4;" horiz-adv-x="579" 
d="M290 53q72 0 114 50.5t42 141.5q0 87 -42.5 138t-113.5 51q-73 0 -114.5 -52t-41.5 -137q0 -86 41.5 -139t114.5 -53zM290 -17q-107 0 -174 70.5t-67 191.5q0 119 67.5 188.5t173.5 69.5q104 0 172.5 -67.5t68.5 -190.5q0 -126 -69 -194t-172 -68zM375 577l-85 93
l-83 -93h-48l105 162h54l105 -162h-48z" />
    <glyph glyph-name="otilde" unicode="&#xf5;" horiz-adv-x="579" 
d="M290 53q72 0 114 50.5t42 141.5q0 87 -42.5 138t-113.5 51q-73 0 -114.5 -52t-41.5 -137q0 -86 41.5 -139t114.5 -53zM290 -17q-107 0 -174 70.5t-67 191.5q0 119 67.5 188.5t173.5 69.5q104 0 172.5 -67.5t68.5 -190.5q0 -126 -69 -194t-172 -68zM234 639q-21 0 -35 -15
t-16 -38l-35 7q5 54 30 85.5t60 31.5q23 0 65 -17t57 -17q21 0 34.5 15t16.5 39l35 -8q-6 -55 -30.5 -86t-59.5 -31q-23 0 -65 17t-57 17z" />
    <glyph glyph-name="odieresis" unicode="&#xf6;" horiz-adv-x="579" 
d="M290 53q72 0 114 50.5t42 141.5q0 87 -42.5 138t-113.5 51q-73 0 -114.5 -52t-41.5 -137q0 -86 41.5 -139t114.5 -53zM290 -17q-107 0 -174 70.5t-67 191.5q0 119 67.5 188.5t173.5 69.5q104 0 172.5 -67.5t68.5 -190.5q0 -126 -69 -194t-172 -68zM200 704q22 0 36 -14
t14 -36t-13.5 -35.5t-35.5 -13.5q-23 0 -36.5 13t-13.5 36t13.5 36.5t35.5 13.5zM382 704q22 0 36 -14t14 -36t-13.5 -35.5t-35.5 -13.5q-23 0 -36.5 13t-13.5 36q0 22 13.5 36t35.5 14z" />
    <glyph glyph-name="divide" unicode="&#xf7;" horiz-adv-x="576" 
d="M531 292v-67h-486v67h486zM288 148q22 0 36 -14t14 -37q0 -22 -13.5 -35t-35.5 -13q-23 0 -36.5 13t-13.5 35q0 23 13.5 37t35.5 14zM288 468q22 0 36 -14t14 -36t-13.5 -35.5t-35.5 -13.5q-23 0 -36.5 13t-13.5 36t13.5 36.5t35.5 13.5z" />
    <glyph glyph-name="oslash" unicode="&#xf8;" horiz-adv-x="579" 
d="M290 -17q-63 0 -117 27l-24 -37l-51 15l34 50q-83 72 -83 207q0 119 67.5 188.5t173.5 69.5q67 0 119 -28l24 38l52 -14l-34 -52q80 -70 80 -202q0 -126 -69 -194t-172 -68zM134 245q0 -89 43 -141l192 309q-33 21 -79 21q-73 0 -114.5 -52t-41.5 -137zM290 53
q72 0 114 50.5t42 141.5q0 85 -41 135l-191 -308q33 -19 76 -19z" />
    <glyph glyph-name="ugrave" unicode="&#xf9;" horiz-adv-x="579" 
d="M79 485h82v-311q0 -108 102 -108q80 0 132 82q15 22 15 54v283h82v-477l-82 -20v97q-73 -96 -174 -96q-157 0 -157 169v327zM294 577l-134 162h97l80 -162h-43z" />
    <glyph glyph-name="uacute" unicode="&#xfa;" horiz-adv-x="579" 
d="M79 485h82v-311q0 -108 102 -108q80 0 132 82q15 22 15 54v283h82v-477l-82 -20v97q-73 -96 -174 -96q-157 0 -157 169v327zM411 739l-134 -162h-43l80 162h97z" />
    <glyph glyph-name="ucircumflex" unicode="&#xfb;" horiz-adv-x="579" 
d="M79 485h82v-311q0 -108 102 -108q80 0 132 82q15 22 15 54v283h82v-477l-82 -20v97q-73 -96 -174 -96q-157 0 -157 169v327zM370 577l-85 93l-83 -93h-48l105 162h54l105 -162h-48z" />
    <glyph glyph-name="udieresis" unicode="&#xfc;" horiz-adv-x="579" 
d="M79 485h82v-311q0 -108 102 -108q80 0 132 82q15 22 15 54v283h82v-477l-82 -20v97q-73 -96 -174 -96q-157 0 -157 169v327zM194 704q22 0 36 -14t14 -36t-13.5 -35.5t-35.5 -13.5q-23 0 -36.5 13t-13.5 36t13.5 36.5t35.5 13.5zM376 704q22 0 36 -14t14 -36t-13.5 -35.5
t-35.5 -13.5q-23 0 -36.5 13t-13.5 36q0 22 13.5 36t35.5 14z" />
    <glyph glyph-name="yacute" unicode="&#xfd;" horiz-adv-x="499" 
d="M61 -234q88 101 147 240l-199 479h90l150 -383l155 383h86l-212 -498q-63 -149 -117 -224h-100v3zM377 739l-134 -162h-43l80 162h97z" />
    <glyph glyph-name="thorn" unicode="&#xfe;" horiz-adv-x="590" 
d="M87 763l82 17v-310q56 28 128 28q106 0 175.5 -68t69.5 -183q0 -121 -70 -192.5t-189 -71.5q-64 0 -114 27v-227l-82 -20v1000zM281 431q-71 0 -112 -29v-325q44 -30 107 -30q83 0 131.5 52.5t48.5 143.5q0 86 -47.5 137t-127.5 51z" />
    <glyph glyph-name="ydieresis" unicode="&#xff;" horiz-adv-x="499" 
d="M61 -234q88 101 147 240l-199 479h90l150 -383l155 383h86l-212 -498q-63 -149 -117 -224h-100v3zM160 704q22 0 36 -14t14 -36t-13.5 -35.5t-35.5 -13.5q-23 0 -36.5 13t-13.5 36t13.5 36.5t35.5 13.5zM342 704q22 0 36 -14t14 -36t-13.5 -35.5t-35.5 -13.5
q-23 0 -36.5 13t-13.5 36q0 22 13.5 36t35.5 14z" />
    <glyph glyph-name="Amacron" unicode="&#x100;" horiz-adv-x="757" 
d="M7 0l347 768l68 11l329 -779h-96l-109 267h-329l-114 -267h-96zM387 665l-143 -328h275zM531 911v-61h-280v61h280z" />
    <glyph glyph-name="amacron" unicode="&#x101;" horiz-adv-x="501" 
d="M93 370v78q66 50 161 50q168 0 168 -167v-323l-79 -20v73q-83 -72 -176 -72q-58 0 -93 30.5t-35 83.5q0 95 102 142q79 37 202 52v34q0 46 -26 71t-75 25q-86 0 -146 -57h-3zM343 137v107q-86 -8 -152 -37q-67 -30 -67 -85q0 -31 19.5 -49t56.5 -18q81 0 143 82zM383 686
v-64h-267v64h267z" />
    <glyph glyph-name="Abreve" unicode="&#x102;" horiz-adv-x="757" 
d="M7 0l347 768l68 11l329 -779h-96l-109 267h-329l-114 -267h-96zM387 665l-143 -328h275zM391 883q75 0 80 72h43q0 -55 -30 -93t-93 -38q-65 0 -94.5 37.5t-29.5 93.5h43q5 -72 81 -72z" />
    <glyph glyph-name="abreve" unicode="&#x103;" horiz-adv-x="501" 
d="M93 370v78q66 50 161 50q168 0 168 -167v-323l-79 -20v73q-83 -72 -176 -72q-58 0 -93 30.5t-35 83.5q0 95 102 142q79 37 202 52v34q0 46 -26 71t-75 25q-86 0 -146 -57h-3zM343 137v107q-86 -8 -152 -37q-67 -30 -67 -85q0 -31 19.5 -49t56.5 -18q81 0 143 82zM250 646
q80 0 80 86h43q0 -66 -29.5 -107t-93.5 -41q-124 0 -124 148h43q0 -86 81 -86z" />
    <glyph glyph-name="Aogonek" unicode="&#x104;" horiz-adv-x="757" 
d="M7 0l347 768l68 11l329 -779q-123 -63 -123 -139q0 -16 10 -26.5t29 -10.5q38 0 64 29h3l-7 -71q-29 -19 -75 -19q-45 0 -71 22.5t-26 64.5q0 35 21.5 67.5t78.5 82.5l-109 267h-329l-114 -267h-96zM387 665l-143 -328h275z" />
    <glyph glyph-name="aogonek" unicode="&#x105;" horiz-adv-x="501" 
d="M93 370v78q66 50 161 50q168 0 168 -167v-323q-64 -49 -86 -81t-22 -66q0 -16 10 -26.5t29 -10.5q39 0 64 29h3l-6 -71q-31 -19 -76 -19t-71 23t-26 64q0 34 22 66.5t80 83.5v61q-83 -72 -176 -72q-58 0 -93 30.5t-35 83.5q0 95 102 142q79 37 202 52v34q0 46 -26 71
t-75 25q-86 0 -146 -57h-3zM343 137v107q-86 -8 -152 -37q-67 -30 -67 -85q0 -31 19.5 -49t56.5 -18q81 0 143 82z" />
    <glyph glyph-name="Cacute" unicode="&#x106;" horiz-adv-x="744" 
d="M685 716l-12 -101h-3q-82 87 -224 87q-129 0 -214 -92t-85 -224q0 -142 82 -228.5t213 -86.5q147 0 249 106h3l-12 -115q-103 -75 -246 -75q-168 0 -273.5 110t-105.5 290q0 164 110 281t275 117q146 0 243 -69zM551 955l-130 -131h-51l78 131h103z" />
    <glyph glyph-name="cacute" unicode="&#x107;" horiz-adv-x="508" 
d="M468 127l-14 -98q-63 -46 -158 -46q-114 0 -180.5 67.5t-66.5 184.5t70.5 192t193.5 75q88 0 148 -38l-15 -82q-56 45 -131 45q-85 0 -133 -52t-48 -140q0 -78 44.5 -127.5t125.5 -49.5q93 0 161 69h3zM414 739l-134 -162h-43l80 162h97z" />
    <glyph glyph-name="Ccircumflex" unicode="&#x108;" horiz-adv-x="744" 
d="M685 716l-12 -101h-3q-82 87 -224 87q-129 0 -214 -92t-85 -224q0 -142 82 -228.5t213 -86.5q147 0 249 106h3l-12 -115q-103 -75 -246 -75q-168 0 -273.5 110t-105.5 290q0 164 110 281t275 117q146 0 243 -69zM518 824l-90 76l-87 -76h-52l102 131h77l101 -131h-51z
" />
    <glyph glyph-name="ccircumflex" unicode="&#x109;" horiz-adv-x="508" 
d="M468 127l-14 -98q-63 -46 -158 -46q-114 0 -180.5 67.5t-66.5 184.5t70.5 192t193.5 75q88 0 148 -38l-15 -82q-56 45 -131 45q-85 0 -133 -52t-48 -140q0 -78 44.5 -127.5t125.5 -49.5q93 0 161 69h3zM373 577l-85 93l-83 -93h-48l105 162h54l105 -162h-48z" />
    <glyph glyph-name="Cdotaccent" unicode="&#x10a;" horiz-adv-x="744" 
d="M685 716l-12 -101h-3q-82 87 -224 87q-129 0 -214 -92t-85 -224q0 -142 82 -228.5t213 -86.5q147 0 249 106h3l-12 -115q-103 -75 -246 -75q-168 0 -273.5 110t-105.5 290q0 164 110 281t275 117q146 0 243 -69zM427 941q24 0 38.5 -14.5t14.5 -37.5t-14.5 -37.5
t-37.5 -14.5q-24 0 -38 14t-14 38q0 23 14 37.5t37 14.5z" />
    <glyph glyph-name="cdotaccent" unicode="&#x10b;" horiz-adv-x="508" 
d="M468 127l-14 -98q-63 -46 -158 -46q-114 0 -180.5 67.5t-66.5 184.5t70.5 192t193.5 75q88 0 148 -38l-15 -82q-56 45 -131 45q-85 0 -133 -52t-48 -140q0 -78 44.5 -127.5t125.5 -49.5q93 0 161 69h3zM287 711q25 0 40 -15t15 -39t-15 -39t-39 -15q-25 0 -39.5 14.5
t-14.5 39.5q0 24 14.5 39t38.5 15z" />
    <glyph glyph-name="Ccaron" unicode="&#x10c;" horiz-adv-x="744" 
d="M685 716l-12 -101h-3q-82 87 -224 87q-129 0 -214 -92t-85 -224q0 -142 82 -228.5t213 -86.5q147 0 249 106h3l-12 -115q-103 -75 -246 -75q-168 0 -273.5 110t-105.5 290q0 164 110 281t275 117q146 0 243 -69zM288 955h52l89 -76l88 76h51l-101 -131h-77z" />
    <glyph glyph-name="ccaron" unicode="&#x10d;" horiz-adv-x="508" 
d="M468 127l-14 -98q-63 -46 -158 -46q-114 0 -180.5 67.5t-66.5 184.5t70.5 192t193.5 75q88 0 148 -38l-15 -82q-56 45 -131 45q-85 0 -133 -52t-48 -140q0 -78 44.5 -127.5t125.5 -49.5q93 0 161 69h3zM157 739h48l84 -94l84 94h48l-105 -162h-54z" />
    <glyph glyph-name="Dcaron" unicode="&#x10e;" horiz-adv-x="761" 
d="M277 0h-175v772h177q200 0 312.5 -103t112.5 -273q0 -190 -110 -293t-317 -103zM187 693v-613h93q163 0 249 81.5t86 234.5q0 130 -88.5 213.5t-244.5 83.5h-95zM188 955h52l89 -76l88 76h51l-101 -131h-77z" />
    <glyph glyph-name="dcaron" unicode="&#x10f;" horiz-adv-x="594" 
d="M429 -15l1 48q-66 -50 -153 -50q-105 0 -166.5 70.5t-61.5 177.5q0 119 73.5 195t179.5 76q65 0 122 -29v290l83 17v-772zM296 53q82 0 128 42v307q-40 30 -111 30q-77 0 -128 -55t-51 -143q0 -81 43 -131t119 -50zM637 781q13 -27 13 -61q0 -56 -69 -133h-39
q40 77 40 127q0 24 -12 50z" />
    <glyph glyph-name="Dcroat" unicode="&#x110;" horiz-adv-x="761" 
d="M277 0h-175v359h-67v70h67v343h177q200 0 312.5 -103t112.5 -273q0 -190 -110 -293t-317 -103zM187 693v-264h159v-70h-159v-279h93q163 0 249 81.5t86 234.5q0 130 -88.5 213.5t-244.5 83.5h-95z" />
    <glyph glyph-name="dcroat" unicode="&#x111;" horiz-adv-x="594" 
d="M429 -15l1 48q-66 -50 -153 -50q-105 0 -166.5 70.5t-61.5 177.5q0 119 73.5 195t179.5 76q65 0 122 -29v131h-163v57h163v102l83 17v-119h56v-57h-56v-596zM296 53q82 0 128 42v307q-40 30 -111 30q-77 0 -128 -55t-51 -143q0 -81 43 -131t119 -50z" />
    <glyph glyph-name="Emacron" unicode="&#x112;" horiz-adv-x="572" 
d="M187 694v-254h288v-74h-288v-289h334v-77h-419v772h412v-78h-327zM447 911v-61h-280v61h280z" />
    <glyph glyph-name="emacron" unicode="&#x113;" horiz-adv-x="513" 
d="M297 217q-80 -22 -172 -34q12 -59 52.5 -94t105.5 -35q101 0 164 76h3l-5 -90q-65 -57 -166 -57q-112 0 -171.5 67t-59.5 165q0 113 75.5 201t189.5 88q70 0 110 -36t40 -92q0 -116 -166 -159zM294 440q-70 0 -120.5 -64t-52.5 -143q74 10 157 34q102 30 102 99
q0 35 -23 54.5t-63 19.5zM417 686v-64h-267v64h267z" />
    <glyph glyph-name="Ebreve" unicode="&#x114;" horiz-adv-x="572" 
d="M187 694v-254h288v-74h-288v-289h334v-77h-419v772h412v-78h-327zM307 883q75 0 80 72h43q0 -55 -30 -93t-93 -38q-65 0 -94.5 37.5t-29.5 93.5h43q5 -72 81 -72z" />
    <glyph glyph-name="ebreve" unicode="&#x115;" horiz-adv-x="513" 
d="M297 217q-80 -22 -172 -34q12 -59 52.5 -94t105.5 -35q101 0 164 76h3l-5 -90q-65 -57 -166 -57q-112 0 -171.5 67t-59.5 165q0 113 75.5 201t189.5 88q70 0 110 -36t40 -92q0 -116 -166 -159zM294 440q-70 0 -120.5 -64t-52.5 -143q74 10 157 34q102 30 102 99
q0 35 -23 54.5t-63 19.5zM284 646q80 0 80 86h43q0 -66 -29.5 -107t-93.5 -41q-124 0 -124 148h43q0 -86 81 -86z" />
    <glyph glyph-name="Edotaccent" unicode="&#x116;" horiz-adv-x="572" 
d="M187 694v-254h288v-74h-288v-289h334v-77h-419v772h412v-78h-327zM306 941q24 0 38.5 -14.5t14.5 -37.5t-14.5 -37.5t-37.5 -14.5q-24 0 -38 14t-14 38q0 23 14 37.5t37 14.5z" />
    <glyph glyph-name="edotaccent" unicode="&#x117;" horiz-adv-x="513" 
d="M297 217q-80 -22 -172 -34q12 -59 52.5 -94t105.5 -35q101 0 164 76h3l-5 -90q-65 -57 -166 -57q-112 0 -171.5 67t-59.5 165q0 113 75.5 201t189.5 88q70 0 110 -36t40 -92q0 -116 -166 -159zM294 440q-70 0 -120.5 -64t-52.5 -143q74 10 157 34q102 30 102 99
q0 35 -23 54.5t-63 19.5zM282 711q25 0 40 -15t15 -39t-15 -39t-39 -15q-25 0 -39.5 14.5t-14.5 39.5q0 24 14.5 39t38.5 15z" />
    <glyph glyph-name="Eogonek" unicode="&#x118;" horiz-adv-x="572" 
d="M438 0h-336v772h412v-78h-327v-254h288v-74h-288v-289h334v-77h-1q-64 -44 -86 -75t-22 -64q0 -16 10 -26.5t29 -10.5q38 0 64 29h3l-6 -71q-31 -19 -76 -19t-71 23t-26 64q0 34 21.5 66.5t77.5 83.5z" />
    <glyph glyph-name="eogonek" unicode="&#x119;" horiz-adv-x="513" 
d="M256 -154q0 37 20 70t69 77q-35 -10 -66 -10q-112 0 -171.5 67t-59.5 165q0 113 75.5 201t189.5 88q70 0 110 -36t40 -91q0 -117 -166 -160q-80 -22 -172 -34q12 -59 52.5 -94t105.5 -35q101 0 164 76h3l-5 -90q-73 -76 -94.5 -110t-21.5 -69q0 -16 10 -26.5t27 -10.5
q39 0 66 28h3l-6 -70q-31 -19 -75 -19q-45 0 -71.5 22t-26.5 61zM294 440q-70 0 -120.5 -64t-52.5 -143q74 10 157 34q102 30 102 99q0 35 -23 54.5t-63 19.5z" />
    <glyph glyph-name="Ecaron" unicode="&#x11a;" horiz-adv-x="572" 
d="M187 694v-254h288v-74h-288v-289h334v-77h-419v772h412v-78h-327zM166 955h52l89 -76l88 76h51l-101 -131h-77z" />
    <glyph glyph-name="ecaron" unicode="&#x11b;" horiz-adv-x="513" 
d="M297 217q-80 -22 -172 -34q12 -59 52.5 -94t105.5 -35q101 0 164 76h3l-5 -90q-65 -57 -166 -57q-112 0 -171.5 67t-59.5 165q0 113 75.5 201t189.5 88q70 0 110 -36t40 -92q0 -116 -166 -159zM294 440q-70 0 -120.5 -64t-52.5 -143q74 10 157 34q102 30 102 99
q0 35 -23 54.5t-63 19.5zM152 739h48l84 -94l84 94h48l-105 -162h-54z" />
    <glyph glyph-name="Gcircumflex" unicode="&#x11c;" horiz-adv-x="778" 
d="M711 356v-266q-120 -103 -276 -103q-167 0 -272.5 109.5t-105.5 287.5q0 170 105 285.5t277 115.5q143 0 245 -71l-12 -101h-3q-90 91 -229 91q-133 0 -213 -90t-80 -230q0 -144 80.5 -230.5t210.5 -86.5q114 0 185 68v221h88zM514 824l-90 76l-87 -76h-52l102 131h77
l101 -131h-51z" />
    <glyph glyph-name="gcircumflex" unicode="&#x11d;" horiz-adv-x="534" 
d="M254 497q65 0 114 -30q51 67 126 67v-71q-47 0 -82 -31q40 -46 40 -101q0 -56 -37.5 -95t-106.5 -56q-25 -6 -65.5 -13t-52.5 -10q-47 -12 -47 -32q0 -21 59 -34q23 -5 87 -14t83 -13q59 -12 86 -41t27 -78q0 -77 -73 -129.5t-176 -52.5q-87 0 -138.5 43t-51.5 103
q0 82 90 128q-80 26 -80 74q0 49 107 85q-99 47 -99 133q0 70 54.5 119t135.5 49zM338 0q-16 3 -67 10.5t-81 13.5q-80 -38 -80 -99q0 -40 35.5 -67.5t95.5 -27.5q71 0 117 31.5t46 74.5q0 50 -66 64zM138 326q0 -66 75 -100q10 -5 22 -5q13 0 36 4q47 11 74.5 37t27.5 65
q0 43 -33.5 73.5t-87.5 30.5q-49 0 -81.5 -29.5t-32.5 -75.5zM347 577l-85 93l-83 -93h-48l105 162h54l105 -162h-48z" />
    <glyph glyph-name="Gbreve" unicode="&#x11e;" horiz-adv-x="778" 
d="M711 356v-266q-120 -103 -276 -103q-167 0 -272.5 109.5t-105.5 287.5q0 170 105 285.5t277 115.5q143 0 245 -71l-12 -101h-3q-90 91 -229 91q-133 0 -213 -90t-80 -230q0 -144 80.5 -230.5t210.5 -86.5q114 0 185 68v221h88zM426 883q75 0 80 72h43q0 -55 -30 -93
t-93 -38q-65 0 -94.5 37.5t-29.5 93.5h43q5 -72 81 -72z" />
    <glyph glyph-name="gbreve" unicode="&#x11f;" horiz-adv-x="534" 
d="M254 497q65 0 114 -30q51 67 126 67v-71q-47 0 -82 -31q40 -46 40 -101q0 -56 -37.5 -95t-106.5 -56q-25 -6 -65.5 -13t-52.5 -10q-47 -12 -47 -32q0 -21 59 -34q23 -5 87 -14t83 -13q59 -12 86 -41t27 -78q0 -77 -73 -129.5t-176 -52.5q-87 0 -138.5 43t-51.5 103
q0 82 90 128q-80 26 -80 74q0 49 107 85q-99 47 -99 133q0 70 54.5 119t135.5 49zM338 0q-16 3 -67 10.5t-81 13.5q-80 -38 -80 -99q0 -40 35.5 -67.5t95.5 -27.5q71 0 117 31.5t46 74.5q0 50 -66 64zM138 326q0 -66 75 -100q10 -5 22 -5q13 0 36 4q47 11 74.5 37t27.5 65
q0 43 -33.5 73.5t-87.5 30.5q-49 0 -81.5 -29.5t-32.5 -75.5zM264 646q80 0 80 86h43q0 -66 -29.5 -107t-93.5 -41q-124 0 -124 148h43q0 -86 81 -86z" />
    <glyph glyph-name="Gdotaccent" unicode="&#x120;" horiz-adv-x="778" 
d="M711 356v-266q-120 -103 -276 -103q-167 0 -272.5 109.5t-105.5 287.5q0 170 105 285.5t277 115.5q143 0 245 -71l-12 -101h-3q-90 91 -229 91q-133 0 -213 -90t-80 -230q0 -144 80.5 -230.5t210.5 -86.5q114 0 185 68v221h88zM424 941q24 0 38.5 -14.5t14.5 -37.5
t-14.5 -37.5t-37.5 -14.5q-24 0 -38 14t-14 38q0 23 14 37.5t37 14.5z" />
    <glyph glyph-name="gdotaccent" unicode="&#x121;" horiz-adv-x="534" 
d="M254 497q65 0 114 -30q51 67 126 67v-71q-47 0 -82 -31q40 -46 40 -101q0 -56 -37.5 -95t-106.5 -56q-25 -6 -65.5 -13t-52.5 -10q-47 -12 -47 -32q0 -21 59 -34q23 -5 87 -14t83 -13q59 -12 86 -41t27 -78q0 -77 -73 -129.5t-176 -52.5q-87 0 -138.5 43t-51.5 103
q0 82 90 128q-80 26 -80 74q0 49 107 85q-99 47 -99 133q0 70 54.5 119t135.5 49zM338 0q-16 3 -67 10.5t-81 13.5q-80 -38 -80 -99q0 -40 35.5 -67.5t95.5 -27.5q71 0 117 31.5t46 74.5q0 50 -66 64zM138 326q0 -66 75 -100q10 -5 22 -5q13 0 36 4q47 11 74.5 37t27.5 65
q0 43 -33.5 73.5t-87.5 30.5q-49 0 -81.5 -29.5t-32.5 -75.5zM262 711q25 0 40 -15t15 -39t-15 -39t-39 -15q-25 0 -39.5 14.5t-14.5 39.5q0 24 14.5 39t38.5 15z" />
    <glyph glyph-name="Gcommaaccent" unicode="&#x122;" horiz-adv-x="778" 
d="M711 356v-266q-120 -103 -276 -103q-167 0 -272.5 109.5t-105.5 287.5q0 170 105 285.5t277 115.5q143 0 245 -71l-12 -101h-3q-90 91 -229 91q-133 0 -213 -90t-80 -230q0 -144 80.5 -230.5t210.5 -86.5q114 0 185 68v221h88zM469 -63q13 -23 13 -54q0 -27 -18 -54.5
t-65 -65.5h-49q62 70 62 117q0 18 -13 40z" />
    <glyph glyph-name="gcommaaccent" unicode="&#x123;" horiz-adv-x="534" 
d="M254 497q65 0 114 -30q51 67 126 67v-71q-47 0 -82 -31q40 -46 40 -101q0 -56 -37.5 -95t-106.5 -56q-25 -6 -65.5 -13t-52.5 -10q-47 -12 -47 -32q0 -21 59 -34q23 -5 87 -14t83 -13q59 -12 86 -41t27 -78q0 -77 -73 -129.5t-176 -52.5q-87 0 -138.5 43t-51.5 103
q0 82 90 128q-80 26 -80 74q0 49 107 85q-99 47 -99 133q0 70 54.5 119t135.5 49zM338 0q-16 3 -67 10.5t-81 13.5q-80 -38 -80 -99q0 -40 35.5 -67.5t95.5 -27.5q71 0 117 31.5t46 74.5q0 50 -66 64zM138 326q0 -66 75 -100q10 -5 22 -5q13 0 36 4q47 11 74.5 37t27.5 65
q0 43 -33.5 73.5t-87.5 30.5q-49 0 -81.5 -29.5t-32.5 -75.5zM212 572q-14 24 -14 54q0 52 83 121h50q-63 -69 -63 -117q0 -20 14 -41z" />
    <glyph glyph-name="Hcircumflex" unicode="&#x124;" horiz-adv-x="784" 
d="M187 0h-85v772h85v-331h409v331h86v-772h-86v361h-409v-361zM480 824l-90 76l-87 -76h-52l102 131h77l101 -131h-51z" />
    <glyph glyph-name="hcircumflex" unicode="&#x125;" horiz-adv-x="582" 
d="M87 0v763l82 17v-379q79 96 176 96q158 0 158 -165v-332h-82v305q0 60 -25 88t-76 28q-35 0 -68 -17t-54 -46q-29 -39 -29 -91v-267h-82zM361 824l-90 76l-87 -76h-52l102 131h77l101 -131h-51z" />
    <glyph glyph-name="Hbar" unicode="&#x126;" horiz-adv-x="787" 
d="M187 0h-85v587h-67v57h67v128h85v-128h409v128h86v-128h66v-57h-66v-587h-86v361h-409v-361zM187 441h409v146h-409v-146z" />
    <glyph glyph-name="hbar" unicode="&#x127;" horiz-adv-x="582" 
d="M87 0v604h-57v57h57v102l82 17v-119h164v-57h-164v-203q79 96 176 96q158 0 158 -165v-332h-82v305q0 60 -25 88t-76 28q-35 0 -68 -17t-54 -46q-29 -39 -29 -91v-267h-82z" />
    <glyph glyph-name="Itilde" unicode="&#x128;" horiz-adv-x="289" 
d="M187 0h-85v772h85v-772zM84 866q-21 0 -35 -15t-16 -38l-35 8q5 54 29 85t58 31q24 0 68 -17t60 -17q44 0 51 54l35 -8q-5 -54 -29 -85.5t-58 -31.5q-24 0 -68 17t-60 17z" />
    <glyph glyph-name="itilde" unicode="&#x129;" horiz-adv-x="256" 
d="M79 633q-21 0 -35 -15t-16 -38l-35 7q5 54 30 85.5t60 31.5q19 0 54.5 -17t47.5 -17q21 0 34.5 15t16.5 39l35 -8q-6 -55 -30.5 -86t-59.5 -31q-19 0 -54.5 17t-47.5 17zM87 478l82 16v-494h-82v478z" />
    <glyph glyph-name="Imacron" unicode="&#x12a;" horiz-adv-x="289" 
d="M187 0h-85v772h85v-772zM284 911v-61h-280v61h280z" />
    <glyph glyph-name="imacron" unicode="&#x12b;" horiz-adv-x="256" 
d="M87 478l82 16v-494h-82v478zM261 686v-64h-267v64h267z" />
    <glyph glyph-name="Ibreve" unicode="&#x12c;" horiz-adv-x="289" 
d="M187 0h-85v772h85v-772zM145 883q75 0 80 72h43q0 -55 -30 -93t-93 -38q-65 0 -94.5 37.5t-29.5 93.5h43q5 -72 81 -72z" />
    <glyph glyph-name="ibreve" unicode="&#x12d;" horiz-adv-x="256" 
d="M87 478l82 16v-494h-82v478zM128 646q80 0 80 86h43q0 -66 -29.5 -107t-93.5 -41q-124 0 -124 148h43q0 -86 81 -86z" />
    <glyph glyph-name="Iogonek" unicode="&#x12e;" horiz-adv-x="289" 
d="M187 0q-50 -44 -68 -75t-18 -64q0 -16 9.5 -26.5t26.5 -10.5q41 0 66 28h3l-6 -70q-29 -19 -75 -19q-45 0 -71 22.5t-26 64.5q0 34 16 66.5t58 83.5v772h85v-772z" />
    <glyph glyph-name="iogonek" unicode="&#x12f;" horiz-adv-x="256" 
d="M87 478l82 16v-494q-47 -39 -64.5 -70.5t-17.5 -68.5q0 -16 10 -26.5t27 -10.5q41 0 66 28h3l-6 -70q-29 -19 -75 -19q-45 0 -71 22.5t-26 64.5q0 35 15.5 67t56.5 83v478zM128 722q24 0 39 -15t15 -39t-15 -39t-38 -15q-25 0 -39.5 14.5t-14.5 39.5q0 24 14.5 39
t38.5 15z" />
    <glyph glyph-name="Idotaccent" unicode="&#x130;" horiz-adv-x="289" 
d="M187 0h-85v772h85v-772zM143 941q24 0 38.5 -14.5t14.5 -37.5t-14.5 -37.5t-37.5 -14.5q-24 0 -38 14t-14 38q0 23 14 37.5t37 14.5z" />
    <glyph glyph-name="dotlessi" unicode="&#x131;" horiz-adv-x="256" 
d="M87 478l82 16v-494h-82v478z" />
    <glyph glyph-name="IJ" unicode="&#x132;" horiz-adv-x="544" 
d="M187 0h-85v772h85v-772zM357 772h86v-640q0 -130 -19 -206.5t-63 -125.5l-131 -37l-4 11q74 53 102.5 126t28.5 224v648z" />
    <glyph glyph-name="ij" unicode="&#x133;" horiz-adv-x="467" 
d="M87 478l82 16v-494h-82v478zM128 722q24 0 39 -15t15 -39t-15 -39t-38 -15q-25 0 -39.5 14.5t-14.5 39.5q0 24 14.5 39t38.5 15zM298 478l82 16v-512q0 -131 -51 -187l-119 -32l-6 14q51 32 72.5 79t21.5 128v494zM338 722q24 0 39 -15t15 -39t-14.5 -39t-38.5 -15
q-25 0 -39.5 14.5t-14.5 39.5q0 24 14.5 39t38.5 15z" />
    <glyph glyph-name="Jcircumflex" unicode="&#x134;" horiz-adv-x="289" 
d="M103 772h86v-640q0 -130 -19 -206.5t-63 -125.5l-131 -37l-4 11q74 53 102.5 126t28.5 224v648zM235 824l-90 76l-87 -76h-52l102 131h77l101 -131h-51z" />
    <glyph glyph-name="jcircumflex" unicode="&#x135;" horiz-adv-x="249" 
d="M87 478l82 16v-512q0 -131 -51 -187l-119 -32l-6 14q51 32 72.5 79t21.5 128v494zM212 577l-85 93l-83 -93h-48l105 162h54l105 -162h-48z" />
    <glyph glyph-name="Kcommaaccent" unicode="&#x136;" horiz-adv-x="699" 
d="M187 0h-85v772h85v-369l354 369h118l-375 -377l407 -395h-122l-382 383v-383zM401 -63q13 -23 13 -54q0 -27 -18 -54.5t-65 -65.5h-49q62 70 62 117q0 18 -13 40z" />
    <glyph glyph-name="kcommaaccent" unicode="&#x137;" horiz-adv-x="536" 
d="M169 780v-509l215 214h113l-241 -219l305 -266h-123l-269 255v-255h-82v763zM321 -63q13 -23 13 -54q0 -27 -18 -54.5t-65 -65.5h-49q62 70 62 117q0 18 -13 40z" />
    <glyph glyph-name="kgreenlandic" unicode="&#x138;" horiz-adv-x="536" 
d="M169 485v-214l215 214h113l-241 -219l305 -266h-123l-269 255v-255h-82v485h82z" />
    <glyph glyph-name="Lacute" unicode="&#x139;" horiz-adv-x="603" 
d="M102 0v772h85v-692h397v-80h-482zM297 955l-130 -131h-51l78 131h103z" />
    <glyph glyph-name="lacute" unicode="&#x13a;" horiz-adv-x="256" 
d="M169 780v-780h-82v763zM251 955l-130 -131h-51l78 131h103z" />
    <glyph glyph-name="Lcommaaccent" unicode="&#x13b;" horiz-adv-x="603" 
d="M102 0v772h85v-692h397v-80h-482zM377 -63q13 -23 13 -54q0 -27 -18 -54.5t-65 -65.5h-49q62 70 62 117q0 18 -13 40z" />
    <glyph glyph-name="lcommaaccent" unicode="&#x13c;" horiz-adv-x="256" 
d="M169 780v-780h-82v763zM162 -63q13 -23 13 -54q0 -27 -18 -54.5t-65 -65.5h-49q62 70 62 117q0 18 -13 40z" />
    <glyph glyph-name="Lcaron" unicode="&#x13d;" horiz-adv-x="603" 
d="M102 0v772h85v-692h397v-80h-482zM355 781q13 -27 13 -61q0 -56 -69 -133h-39q40 77 40 127q0 24 -12 50z" />
    <glyph glyph-name="lcaron" unicode="&#x13e;" horiz-adv-x="256" 
d="M169 780v-780h-82v763zM299 781q13 -27 13 -61q0 -56 -69 -133h-39q40 77 40 127q0 24 -12 50z" />
    <glyph glyph-name="Ldot" unicode="&#x13f;" horiz-adv-x="603" 
d="M102 0v772h85v-692h397v-80h-482zM444 521q24 0 38.5 -14.5t14.5 -37.5t-14.5 -37.5t-37.5 -14.5q-24 0 -38 14t-14 38q0 23 14 37.5t37 14.5z" />
    <glyph glyph-name="ldot" unicode="&#x140;" horiz-adv-x="361" 
d="M169 780v-780h-82v763zM306 442q25 0 40 -15t15 -39t-15 -39t-39 -15q-25 0 -39.5 14.5t-14.5 39.5q0 24 14.5 39t38.5 15z" />
    <glyph glyph-name="Lslash" unicode="&#x141;" horiz-adv-x="603" 
d="M102 0v334l-67 -44v75l67 44v363h85v-307l149 98v-75l-149 -98v-310h397v-80h-482z" />
    <glyph glyph-name="lslash" unicode="&#x142;" horiz-adv-x="279" 
d="M181 780v-319l68 45v-75l-68 -44v-387h-82v334l-69 -44v72l69 45v356z" />
    <glyph glyph-name="Nacute" unicode="&#x143;" horiz-adv-x="873" 
d="M688 772h83v-772h-76l-509 634v-634h-84v772h78l508 -630v630zM559 955l-130 -131h-51l78 131h103z" />
    <glyph glyph-name="nacute" unicode="&#x144;" horiz-adv-x="582" 
d="M87 0v485h82v-84q79 96 176 96q158 0 158 -165v-332h-82v305q0 60 -25 88t-76 28q-35 0 -68 -17t-54 -46q-29 -39 -29 -91v-267h-82zM418 739l-134 -162h-43l80 162h97z" />
    <glyph glyph-name="Ncommaaccent" unicode="&#x145;" horiz-adv-x="873" 
d="M688 772h83v-772h-76l-509 634v-634h-84v772h78l508 -630v630zM471 -63q13 -23 13 -54q0 -27 -18 -54.5t-65 -65.5h-49q62 70 62 117q0 18 -13 40z" />
    <glyph glyph-name="ncommaaccent" unicode="&#x146;" horiz-adv-x="582" 
d="M87 0v485h82v-84q79 96 176 96q158 0 158 -165v-332h-82v305q0 60 -25 88t-76 28q-35 0 -68 -17t-54 -46q-29 -39 -29 -91v-267h-82zM329 -63q13 -23 13 -54q0 -27 -18 -54.5t-65 -65.5h-49q62 70 62 117q0 18 -13 40z" />
    <glyph glyph-name="Ncaron" unicode="&#x147;" horiz-adv-x="873" 
d="M688 772h83v-772h-76l-509 634v-634h-84v772h78l508 -630v630zM296 955h52l89 -76l88 76h51l-101 -131h-77z" />
    <glyph glyph-name="ncaron" unicode="&#x148;" horiz-adv-x="582" 
d="M87 0v485h82v-84q79 96 176 96q158 0 158 -165v-332h-82v305q0 60 -25 88t-76 28q-35 0 -68 -17t-54 -46q-29 -39 -29 -91v-267h-82zM161 739h48l84 -94l84 94h48l-105 -162h-54z" />
    <glyph glyph-name="napostrophe" unicode="&#x149;" horiz-adv-x="582" 
d="M87 0v485h82v-84q79 96 176 96q158 0 158 -165v-332h-82v305q0 60 -25 88t-76 28q-35 0 -68 -17t-54 -46q-29 -39 -29 -91v-267h-82zM120 781q13 -27 13 -61q0 -56 -69 -133h-39q40 77 40 127q0 24 -12 50z" />
    <glyph glyph-name="Eng" unicode="&#x14a;" horiz-adv-x="873" 
d="M771 772v-819q0 -89 -44 -139.5t-123 -50.5q-48 0 -87 21l-12 89q36 -33 88 -33q44 0 68.5 31.5t24.5 91.5v48l-500 628v-639h-84v772h78l508 -636v636h83z" />
    <glyph glyph-name="eng" unicode="&#x14b;" horiz-adv-x="582" 
d="M87 0v485h82v-84q79 96 176 96q75 0 116.5 -42t41.5 -123v-393q0 -83 -39 -129.5t-111 -46.5q-36 0 -62 14l-10 75q25 -21 63 -21q36 0 56.5 28t20.5 81v365q0 60 -25 88t-76 28q-74 0 -122 -64q-29 -36 -29 -90v-267h-82z" />
    <glyph glyph-name="Omacron" unicode="&#x14c;" horiz-adv-x="853" 
d="M706 386q0 140 -78.5 230t-201.5 90t-201.5 -90t-78.5 -230t79 -230t201 -90q123 0 201.5 90t78.5 230zM796 386q0 -175 -104.5 -288t-265.5 -113q-162 0 -265.5 113t-103.5 288t104 288t265 113q162 0 266 -113t104 -288zM567 911v-61h-280v61h280z" />
    <glyph glyph-name="omacron" unicode="&#x14d;" horiz-adv-x="579" 
d="M290 53q72 0 114 50.5t42 141.5q0 87 -42.5 138t-113.5 51q-73 0 -114.5 -52t-41.5 -137q0 -86 41.5 -139t114.5 -53zM290 -17q-107 0 -174 70.5t-67 191.5q0 119 67.5 188.5t173.5 69.5q104 0 172.5 -67.5t68.5 -190.5q0 -126 -69 -194t-172 -68zM424 686v-64h-267v64
h267z" />
    <glyph glyph-name="Obreve" unicode="&#x14e;" horiz-adv-x="853" 
d="M706 386q0 140 -78.5 230t-201.5 90t-201.5 -90t-78.5 -230t79 -230t201 -90q123 0 201.5 90t78.5 230zM796 386q0 -175 -104.5 -288t-265.5 -113q-162 0 -265.5 113t-103.5 288t104 288t265 113q162 0 266 -113t104 -288zM427 883q75 0 80 72h43q0 -55 -30 -93t-93 -38
q-65 0 -94.5 37.5t-29.5 93.5h43q5 -72 81 -72z" />
    <glyph glyph-name="obreve" unicode="&#x14f;" horiz-adv-x="579" 
d="M290 53q72 0 114 50.5t42 141.5q0 87 -42.5 138t-113.5 51q-73 0 -114.5 -52t-41.5 -137q0 -86 41.5 -139t114.5 -53zM290 -17q-107 0 -174 70.5t-67 191.5q0 119 67.5 188.5t173.5 69.5q104 0 172.5 -67.5t68.5 -190.5q0 -126 -69 -194t-172 -68zM291 646q80 0 80 86h43
q0 -66 -29.5 -107t-93.5 -41q-124 0 -124 148h43q0 -86 81 -86z" />
    <glyph glyph-name="Ohungarumlaut" unicode="&#x150;" horiz-adv-x="853" 
d="M706 386q0 140 -78.5 230t-201.5 90t-201.5 -90t-78.5 -230t79 -230t201 -90q123 0 201.5 90t78.5 230zM796 386q0 -175 -104.5 -288t-265.5 -113q-162 0 -265.5 113t-103.5 288t104 288t265 113q162 0 266 -113t104 -288zM399 955h95l-122 -131h-49zM530 955h94
l-121 -131h-49z" />
    <glyph glyph-name="ohungarumlaut" unicode="&#x151;" horiz-adv-x="579" 
d="M290 53q72 0 114 50.5t42 141.5q0 87 -42.5 138t-113.5 51q-73 0 -114.5 -52t-41.5 -137q0 -86 41.5 -139t114.5 -53zM290 -17q-107 0 -174 70.5t-67 191.5q0 119 67.5 188.5t173.5 69.5q104 0 172.5 -67.5t68.5 -190.5q0 -126 -69 -194t-172 -68zM258 739h92l-116 -162
h-41zM387 739h92l-116 -162h-41z" />
    <glyph glyph-name="OE" unicode="&#x152;" horiz-adv-x="964" 
d="M591 694v-254h275v-74h-275v-289h321v-77h-478q-162 0 -269.5 109t-107.5 277t108 277t269 109h478v-78h-321zM146 386q0 -134 83 -221.5t206 -87.5h70v617h-70q-124 0 -206.5 -86.5t-82.5 -221.5z" />
    <glyph glyph-name="oe" unicode="&#x153;" horiz-adv-x="869" 
d="M271 503q65 0 114.5 -34t74.5 -95q35 59 89 94.5t120 35.5q71 0 110.5 -36t39.5 -92q0 -118 -160 -159q-79 -22 -171 -34q11 -59 49.5 -94t101.5 -35q101 0 164 76h3l-5 -90q-67 -57 -166 -57q-131 0 -188 106q-28 -52 -74.5 -79t-101.5 -27q-98 0 -160 71.5t-62 193.5
q0 115 63 185t159 70zM274 54q65 0 103 51.5t38 143.5q0 78 -39 131t-102 53q-61 0 -100.5 -51.5t-39.5 -133.5q0 -86 37 -140t103 -54zM650 440q-67 0 -115.5 -64t-50.5 -143q86 12 157 34q95 29 95 99q0 34 -23 54t-63 20z" />
    <glyph glyph-name="Racute" unicode="&#x154;" horiz-adv-x="662" 
d="M99 0v772h196q125 0 194 -55t69 -156q0 -166 -191 -216l287 -345h-110l-265 331q-35 -3 -70 -3h-25v-328h-85zM184 696v-304h21q132 0 198 39.5t66 123.5q0 67 -47.5 104t-136.5 37h-101zM424 955l-130 -131h-51l78 131h103z" />
    <glyph glyph-name="racute" unicode="&#x155;" horiz-adv-x="373" 
d="M359 491v-82h-18q-77 0 -134 -43q-22 -17 -30 -36.5t-8 -52.5v-277h-82v485h82v-86q68 93 169 93q13 0 21 -1zM344 739l-134 -162h-43l80 162h97z" />
    <glyph glyph-name="Rcommaaccent" unicode="&#x156;" horiz-adv-x="662" 
d="M99 0v772h196q125 0 194 -55t69 -156q0 -166 -191 -216l287 -345h-110l-265 331q-35 -3 -70 -3h-25v-328h-85zM184 696v-304h21q132 0 198 39.5t66 123.5q0 67 -47.5 104t-136.5 37h-101zM374 -63q13 -23 13 -54q0 -27 -18 -54.5t-65 -65.5h-49q62 70 62 117q0 18 -13 40
z" />
    <glyph glyph-name="rcommaaccent" unicode="&#x157;" horiz-adv-x="373" 
d="M359 491v-82h-18q-77 0 -134 -43q-22 -17 -30 -36.5t-8 -52.5v-277h-82v485h82v-86q68 93 169 93q13 0 21 -1zM163 -63q13 -23 13 -54q0 -27 -18 -54.5t-65 -65.5h-49q62 70 62 117q0 18 -13 40z" />
    <glyph glyph-name="Rcaron" unicode="&#x158;" horiz-adv-x="662" 
d="M99 0v772h196q125 0 194 -55t69 -156q0 -166 -191 -216l287 -345h-110l-265 331q-35 -3 -70 -3h-25v-328h-85zM184 696v-304h21q132 0 198 39.5t66 123.5q0 67 -47.5 104t-136.5 37h-101zM161 955h52l89 -76l88 76h51l-101 -131h-77z" />
    <glyph glyph-name="rcaron" unicode="&#x159;" horiz-adv-x="373" 
d="M359 491v-82h-18q-77 0 -134 -43q-22 -17 -30 -36.5t-8 -52.5v-277h-82v485h82v-86q68 93 169 93q13 0 21 -1zM87 739h48l84 -94l84 94h48l-105 -162h-54z" />
    <glyph glyph-name="Sacute" unicode="&#x15a;" horiz-adv-x="562" 
d="M68 140q86 -77 193 -77q73 0 116 34.5t43 93.5q0 54 -37 95t-128 86q-103 52 -144 101.5t-41 129.5q0 79 59 131.5t153 52.5q89 0 168 -38v-101q-82 62 -163 62q-62 0 -96 -30.5t-34 -78.5q0 -53 32 -86t128 -80q103 -52 147 -107.5t44 -133.5q0 -97 -70.5 -153.5
t-185.5 -56.5q-112 0 -177 47l-10 109h3zM404 955l-130 -131h-51l78 131h103z" />
    <glyph glyph-name="sacute" unicode="&#x15b;" horiz-adv-x="440" 
d="M50 31l6 92q27 -31 69.5 -50t89.5 -19q94 0 94 68q0 40 -40 61q-21 12 -67 29.5t-63 25.5q-47 23 -66 53.5t-19 76.5q0 58 43.5 96t114.5 38q91 0 160 -44l-23 -83q-25 27 -63 41.5t-71 14.5q-39 0 -58.5 -16.5t-19.5 -42.5q0 -43 46 -65q14 -7 57.5 -23.5t61.5 -25.5
q49 -25 69.5 -56.5t20.5 -77.5q0 -64 -47.5 -102.5t-131.5 -38.5q-98 0 -163 48zM364 739l-134 -162h-43l80 162h97z" />
    <glyph glyph-name="Scircumflex" unicode="&#x15c;" horiz-adv-x="562" 
d="M68 140q86 -77 193 -77q73 0 116 34.5t43 93.5q0 54 -37 95t-128 86q-103 52 -144 101.5t-41 129.5q0 79 59 131.5t153 52.5q89 0 168 -38v-101q-82 62 -163 62q-62 0 -96 -30.5t-34 -78.5q0 -53 32 -86t128 -80q103 -52 147 -107.5t44 -133.5q0 -97 -70.5 -153.5
t-185.5 -56.5q-112 0 -177 47l-10 109h3zM371 824l-90 76l-87 -76h-52l102 131h77l101 -131h-51z" />
    <glyph glyph-name="scircumflex" unicode="&#x15d;" horiz-adv-x="440" 
d="M50 31l6 92q27 -31 69.5 -50t89.5 -19q94 0 94 68q0 40 -40 61q-21 12 -67 29.5t-63 25.5q-47 23 -66 53.5t-19 76.5q0 58 43.5 96t114.5 38q91 0 160 -44l-23 -83q-25 27 -63 41.5t-71 14.5q-39 0 -58.5 -16.5t-19.5 -42.5q0 -43 46 -65q14 -7 57.5 -23.5t61.5 -25.5
q49 -25 69.5 -56.5t20.5 -77.5q0 -64 -47.5 -102.5t-131.5 -38.5q-98 0 -163 48zM323 577l-85 93l-83 -93h-48l105 162h54l105 -162h-48z" />
    <glyph glyph-name="Scedilla" unicode="&#x15e;" horiz-adv-x="562" 
d="M68 140q86 -77 193 -77q73 0 116 34.5t43 93.5q0 54 -37 95t-128 86q-103 52 -144 101.5t-41 129.5q0 79 59 131.5t153 52.5q89 0 168 -38v-101q-82 62 -163 62q-62 0 -96 -30.5t-34 -78.5q0 -53 32 -86t128 -80q103 -52 147 -107.5t44 -133.5q0 -90 -61.5 -145
t-163.5 -63l-22 -44q10 2 22 2q39 0 62 -20.5t23 -54.5q0 -39 -31.5 -64.5t-80.5 -25.5q-52 0 -81 23l5 53q22 -28 71 -28q28 0 42 11t14 28q0 39 -56 39q-25 0 -45 -5l-2 2l38 82q-107 3 -167 47l-10 109h3z" />
    <glyph glyph-name="scedilla" unicode="&#x15f;" horiz-adv-x="440" 
d="M50 31l6 92q27 -31 69.5 -50t89.5 -19q94 0 94 68q0 40 -40 61q-21 12 -67 29.5t-63 25.5q-47 23 -66 53.5t-19 76.5q0 58 43.5 96t114.5 38q91 0 160 -44l-23 -83q-25 27 -63 41.5t-71 14.5q-39 0 -58.5 -16.5t-19.5 -42.5q0 -43 46 -65q14 -7 57.5 -23.5t61.5 -25.5
q49 -25 69.5 -56.5t20.5 -77.5q0 -58 -39 -95t-108 -44l-22 -43q10 2 22 2q39 0 62 -20.5t23 -54.5q0 -39 -31.5 -64.5t-80.5 -25.5q-52 0 -81 23l5 53q22 -28 71 -28q28 0 42 11t14 28q0 39 -56 39q-25 0 -45 -5l-2 2l38 81q-94 3 -154 48z" />
    <glyph glyph-name="Scaron" unicode="&#x160;" horiz-adv-x="562" 
d="M68 140q86 -77 193 -77q73 0 116 34.5t43 93.5q0 54 -37 95t-128 86q-103 52 -144 101.5t-41 129.5q0 79 59 131.5t153 52.5q89 0 168 -38v-101q-82 62 -163 62q-62 0 -96 -30.5t-34 -78.5q0 -53 32 -86t128 -80q103 -52 147 -107.5t44 -133.5q0 -97 -70.5 -153.5
t-185.5 -56.5q-112 0 -177 47l-10 109h3zM141 955h52l89 -76l88 76h51l-101 -131h-77z" />
    <glyph glyph-name="scaron" unicode="&#x161;" horiz-adv-x="440" 
d="M50 31l6 92q27 -31 69.5 -50t89.5 -19q94 0 94 68q0 40 -40 61q-21 12 -67 29.5t-63 25.5q-47 23 -66 53.5t-19 76.5q0 58 43.5 96t114.5 38q91 0 160 -44l-23 -83q-25 27 -63 41.5t-71 14.5q-39 0 -58.5 -16.5t-19.5 -42.5q0 -43 46 -65q14 -7 57.5 -23.5t61.5 -25.5
q49 -25 69.5 -56.5t20.5 -77.5q0 -64 -47.5 -102.5t-131.5 -38.5q-98 0 -163 48zM107 739h48l84 -94l84 94h48l-105 -162h-54z" />
    <glyph glyph-name="uni0162" unicode="&#x162;" horiz-adv-x="653" 
d="M369 0h-85v692h-271v80h626v-80h-270v-692zM362 -63q13 -23 13 -54q0 -27 -18 -54.5t-65 -65.5h-49q62 70 62 117q0 18 -13 40z" />
    <glyph glyph-name="uni0163" unicode="&#x163;" horiz-adv-x="355" 
d="M15 485h94v151l82 17v-168h146v-69h-146v-252q0 -69 15 -98t66 -57v-7l-94 -11q-37 18 -53 53.5t-16 111.5v260h-94v69zM222 -63q13 -23 13 -54q0 -27 -18 -54.5t-65 -65.5h-49q62 70 62 117q0 18 -13 40z" />
    <glyph glyph-name="Tcaron" unicode="&#x164;" horiz-adv-x="653" 
d="M369 0h-85v692h-271v80h626v-80h-270v-692zM185 955h52l89 -76l88 76h51l-101 -131h-77z" />
    <glyph glyph-name="tcaron" unicode="&#x165;" horiz-adv-x="355" 
d="M15 485h94v151l82 17v-168h146v-69h-146v-252q0 -69 15 -98t66 -57v-7l-94 -11q-37 18 -53 53.5t-16 111.5v260h-94v69zM350 781q13 -27 13 -61q0 -56 -69 -133h-39q40 77 40 127q0 24 -12 50z" />
    <glyph glyph-name="Tbar" unicode="&#x166;" horiz-adv-x="653" 
d="M369 0h-85v427h-114v70h114v195h-271v80h626v-80h-270v-195h114v-70h-114v-427z" />
    <glyph glyph-name="tbar" unicode="&#x167;" horiz-adv-x="355" 
d="M15 485h94v151l82 17v-168h146v-69h-146v-140h134v-56h-134v-56q0 -69 15 -98t66 -57v-7l-94 -11q-37 18 -53 53.5t-16 111.5v64h-80v56h80v140h-94v69z" />
    <glyph glyph-name="Utilde" unicode="&#x168;" horiz-adv-x="760" 
d="M96 772h86v-484q0 -108 55.5 -163t142.5 -55t143 55t56 163v484h85v-488q0 -149 -78.5 -223.5t-205.5 -74.5t-205.5 73.5t-78.5 221.5v491zM320 866q-21 0 -35 -15t-16 -38l-35 8q5 54 29 85t58 31q24 0 68 -17t60 -17q44 0 51 54l35 -8q-5 -54 -29 -85.5t-58 -31.5
q-24 0 -68 17t-60 17z" />
    <glyph glyph-name="utilde" unicode="&#x169;" horiz-adv-x="579" 
d="M79 485h82v-311q0 -108 102 -108q80 0 132 82q15 22 15 54v283h82v-477l-82 -20v97q-73 -96 -174 -96q-157 0 -157 169v327zM229 639q-21 0 -35 -15t-16 -38l-35 7q5 54 30 85.5t60 31.5q23 0 65 -17t57 -17q21 0 34.5 15t16.5 39l35 -8q-6 -55 -30.5 -86t-59.5 -31
q-23 0 -65 17t-57 17z" />
    <glyph glyph-name="Umacron" unicode="&#x16a;" horiz-adv-x="760" 
d="M96 772h86v-484q0 -108 55.5 -163t142.5 -55t143 55t56 163v484h85v-488q0 -149 -78.5 -223.5t-205.5 -74.5t-205.5 73.5t-78.5 221.5v491zM520 911v-61h-280v61h280z" />
    <glyph glyph-name="umacron" unicode="&#x16b;" horiz-adv-x="579" 
d="M79 485h82v-311q0 -108 102 -108q80 0 132 82q15 22 15 54v283h82v-477l-82 -20v97q-73 -96 -174 -96q-157 0 -157 169v327zM419 686v-64h-267v64h267z" />
    <glyph glyph-name="Ubreve" unicode="&#x16c;" horiz-adv-x="760" 
d="M96 772h86v-484q0 -108 55.5 -163t142.5 -55t143 55t56 163v484h85v-488q0 -149 -78.5 -223.5t-205.5 -74.5t-205.5 73.5t-78.5 221.5v491zM380 883q75 0 80 72h43q0 -55 -30 -93t-93 -38q-65 0 -94.5 37.5t-29.5 93.5h43q5 -72 81 -72z" />
    <glyph glyph-name="ubreve" unicode="&#x16d;" horiz-adv-x="579" 
d="M79 485h82v-311q0 -108 102 -108q80 0 132 82q15 22 15 54v283h82v-477l-82 -20v97q-73 -96 -174 -96q-157 0 -157 169v327zM286 646q80 0 80 86h43q0 -66 -29.5 -107t-93.5 -41q-124 0 -124 148h43q0 -86 81 -86z" />
    <glyph glyph-name="Uring" unicode="&#x16e;" horiz-adv-x="760" 
d="M96 772h86v-484q0 -108 55.5 -163t142.5 -55t143 55t56 163v484h85v-488q0 -149 -78.5 -223.5t-205.5 -74.5t-205.5 73.5t-78.5 221.5v491zM282 904q0 40 29 69t69 29t69 -29t29 -69t-29 -69t-69 -29t-69 29t-29 69zM322 904q0 -23 17 -40.5t41 -17.5t41 17.5t17 40.5
q0 24 -17 41t-41 17t-41 -17t-17 -41z" />
    <glyph glyph-name="uring" unicode="&#x16f;" horiz-adv-x="579" 
d="M79 485h82v-311q0 -108 102 -108q80 0 132 82q15 22 15 54v283h82v-477l-82 -20v97q-73 -96 -174 -96q-157 0 -157 169v327zM186 663q0 41 29 70.5t70 29.5t70.5 -29.5t29.5 -70.5t-29.5 -70t-70.5 -29t-70 29t-29 70zM229 663q0 -23 16.5 -39.5t39.5 -16.5
q24 0 40.5 16.5t16.5 39.5q0 24 -16.5 40.5t-40.5 16.5q-23 0 -39.5 -16.5t-16.5 -40.5z" />
    <glyph glyph-name="Uhungarumlaut" unicode="&#x170;" horiz-adv-x="760" 
d="M96 772h86v-484q0 -108 55.5 -163t142.5 -55t143 55t56 163v484h85v-488q0 -149 -78.5 -223.5t-205.5 -74.5t-205.5 73.5t-78.5 221.5v491zM353 955h95l-122 -131h-49zM484 955h94l-121 -131h-49z" />
    <glyph glyph-name="uhungarumlaut" unicode="&#x171;" horiz-adv-x="579" 
d="M79 485h82v-311q0 -108 102 -108q80 0 132 82q15 22 15 54v283h82v-477l-82 -20v97q-73 -96 -174 -96q-157 0 -157 169v327zM252 739h92l-116 -162h-41zM381 739h92l-116 -162h-41z" />
    <glyph glyph-name="Uogonek" unicode="&#x172;" horiz-adv-x="760" 
d="M547 -218q-31 -19 -76 -19t-71 23t-26 64q0 35 19.5 67.5t72.5 79.5q-39 -11 -86 -11q-127 0 -205.5 73.5t-78.5 221.5v491h86v-484q0 -108 55.5 -163t142.5 -55t143 55t56 163v484h85v-488q0 -151 -91 -237q-78 -75 -102 -111t-24 -75q0 -16 10 -26.5t29 -10.5
q38 0 64 29h3z" />
    <glyph glyph-name="uogonek" unicode="&#x173;" horiz-adv-x="579" 
d="M410 0v85q-73 -96 -174 -96q-157 0 -157 169v327h82v-311q0 -108 102 -108q80 0 132 82q15 22 15 54v283h82v-485q-64 -44 -86 -75t-22 -64q0 -16 10 -26.5t29 -10.5q38 0 64 29h3l-6 -71q-31 -19 -76 -19t-71 23t-26 64q0 34 21.5 66.5t77.5 83.5z" />
    <glyph glyph-name="Wcircumflex" unicode="&#x174;" horiz-adv-x="1131" 
d="M740 0l-176 454l-184 -454h-68l-305 772h98l244 -653l176 435l-84 218h98l235 -646l258 646h92l-317 -772h-67zM629 824l-90 76l-87 -76h-52l102 131h77l101 -131h-51z" />
    <glyph glyph-name="wcircumflex" unicode="&#x175;" horiz-adv-x="774" 
d="M350 485h75l103 -391l150 391h87l-204 -485h-76l-101 357l-124 -357h-77l-174 485h87l126 -390zM471 577l-85 93l-83 -93h-48l105 162h54l105 -162h-48z" />
    <glyph glyph-name="Ycircumflex" unicode="&#x176;" horiz-adv-x="696" 
d="M379 0h-85v359l-291 413h105l232 -339l247 339h107l-315 -414v-358zM437 824l-90 76l-87 -76h-52l102 131h77l101 -131h-51z" />
    <glyph glyph-name="ycircumflex" unicode="&#x177;" horiz-adv-x="499" 
d="M61 -234q88 101 147 240l-199 479h90l150 -383l155 383h86l-212 -498q-63 -149 -117 -224h-100v3zM335 577l-85 93l-83 -93h-48l105 162h54l105 -162h-48z" />
    <glyph glyph-name="Ydieresis" unicode="&#x178;" horiz-adv-x="696" 
d="M379 0h-85v359l-291 413h105l232 -339l247 339h107l-315 -414v-358zM247 941q23 0 37 -14.5t14 -36.5q0 -23 -14 -37t-36 -14q-23 0 -37 14t-14 37t14 37t36 14zM449 941q23 0 37 -14.5t14 -36.5t-14 -36.5t-36 -14.5q-24 0 -37.5 14t-13.5 37t14 37t36 14z" />
    <glyph glyph-name="Zacute" unicode="&#x179;" horiz-adv-x="720" 
d="M659 0h-657l528 689h-452l9 83h604l-531 -689h515zM476 955l-130 -131h-51l78 131h103z" />
    <glyph glyph-name="zacute" unicode="&#x17a;" horiz-adv-x="519" 
d="M471 0h-451l330 410h-291l7 75h428l-334 -409h323zM388 739l-134 -162h-43l80 162h97z" />
    <glyph glyph-name="Zdotaccent" unicode="&#x17b;" horiz-adv-x="720" 
d="M659 0h-657l528 689h-452l9 83h604l-531 -689h515zM352 941q24 0 38.5 -14.5t14.5 -37.5t-14.5 -37.5t-37.5 -14.5q-24 0 -38 14t-14 38q0 23 14 37.5t37 14.5z" />
    <glyph glyph-name="zdotaccent" unicode="&#x17c;" horiz-adv-x="519" 
d="M471 0h-451l330 410h-291l7 75h428l-334 -409h323zM261 711q25 0 40 -15t15 -39t-15 -39t-39 -15q-25 0 -39.5 14.5t-14.5 39.5q0 24 14.5 39t38.5 15z" />
    <glyph glyph-name="Zcaron" unicode="&#x17d;" horiz-adv-x="720" 
d="M659 0h-657l528 689h-452l9 83h604l-531 -689h515zM212 955h52l89 -76l88 76h51l-101 -131h-77z" />
    <glyph glyph-name="zcaron" unicode="&#x17e;" horiz-adv-x="519" 
d="M471 0h-451l330 410h-291l7 75h428l-334 -409h323zM131 739h48l84 -94l84 94h48l-105 -162h-54z" />
    <glyph glyph-name="florin" unicode="&#x192;" 
d="M42 -10q22 -21 64 -21t65.5 41t38.5 139l41 259h-105v71h116l13 79q19 112 61.5 163t114.5 51q52 0 85 -24l-13 -80q-26 28 -62 28q-46 0 -69 -35t-37 -122l-10 -60h135v-71h-146l-44 -274q-21 -129 -63 -185.5t-110 -56.5q-39 0 -66 16z" />
    <glyph glyph-name="uni0218" unicode="&#x218;" horiz-adv-x="562" 
d="M68 140q86 -77 193 -77q73 0 116 34.5t43 93.5q0 54 -37 95t-128 86q-103 52 -144 101.5t-41 129.5q0 79 59 131.5t153 52.5q89 0 168 -38v-101q-82 62 -163 62q-62 0 -96 -30.5t-34 -78.5q0 -53 32 -86t128 -80q103 -52 147 -107.5t44 -133.5q0 -97 -70.5 -153.5
t-185.5 -56.5q-112 0 -177 47l-10 109h3zM306 -63q13 -23 13 -54q0 -27 -18 -54.5t-65 -65.5h-49q62 70 62 117q0 18 -13 40z" />
    <glyph glyph-name="uni0219" unicode="&#x219;" horiz-adv-x="440" 
d="M50 31l6 92q27 -31 69.5 -50t89.5 -19q94 0 94 68q0 40 -40 61q-21 12 -67 29.5t-63 25.5q-47 23 -66 53.5t-19 76.5q0 58 43.5 96t114.5 38q91 0 160 -44l-23 -83q-25 27 -63 41.5t-71 14.5q-39 0 -58.5 -16.5t-19.5 -42.5q0 -43 46 -65q14 -7 57.5 -23.5t61.5 -25.5
q49 -25 69.5 -56.5t20.5 -77.5q0 -64 -47.5 -102.5t-131.5 -38.5q-98 0 -163 48zM268 -63q13 -23 13 -54q0 -27 -18 -54.5t-65 -65.5h-49q62 70 62 117q0 18 -13 40z" />
    <glyph glyph-name="uni021A" unicode="&#x21a;" horiz-adv-x="653" 
d="M369 0h-85v692h-271v80h626v-80h-270v-692zM362 -63q13 -23 13 -54q0 -27 -18 -54.5t-65 -65.5h-49q62 70 62 117q0 18 -13 40z" />
    <glyph glyph-name="uni021B" unicode="&#x21b;" horiz-adv-x="355" 
d="M15 485h94v151l82 17v-168h146v-69h-146v-252q0 -69 15 -98t66 -57v-7l-94 -11q-37 18 -53 53.5t-16 111.5v260h-94v69zM222 -63q13 -23 13 -54q0 -27 -18 -54.5t-65 -65.5h-49q62 70 62 117q0 18 -13 40z" />
    <glyph glyph-name="dotlessj" unicode="&#x237;" horiz-adv-x="256" 
d="M87 478l82 16v-512q0 -131 -51 -187l-119 -32l-6 14q51 32 72.5 79t21.5 128v494z" />
    <glyph glyph-name="circumflex" unicode="&#x2c6;" horiz-adv-x="278" 
d="M223 571l-85 93l-83 -93h-48l105 162h54l105 -162h-48z" />
    <glyph glyph-name="caron" unicode="&#x2c7;" horiz-adv-x="278" 
d="M7 733h48l84 -94l84 94h48l-105 -162h-54z" />
    <glyph glyph-name="uni02C9" unicode="&#x2c9;" horiz-adv-x="334" 
d="M277 680v-64h-267v64h267z" />
    <glyph glyph-name="breve" unicode="&#x2d8;" horiz-adv-x="267" 
d="M134 640q80 0 80 86h43q0 -66 -29.5 -107t-93.5 -41q-124 0 -124 148h43q0 -86 81 -86z" />
    <glyph glyph-name="dotaccent" unicode="&#x2d9;" horiz-adv-x="128" 
d="M63 705q25 0 40 -15t15 -39t-15 -39t-39 -15q-25 0 -39.5 14.5t-14.5 39.5q0 24 14.5 39t38.5 15z" />
    <glyph glyph-name="ring" unicode="&#x2da;" horiz-adv-x="219" 
d="M10 657q0 41 29 70.5t70 29.5t70.5 -29.5t29.5 -70.5t-29.5 -70t-70.5 -29t-70 29t-29 70zM53 657q0 -23 16.5 -39.5t39.5 -16.5q24 0 40.5 16.5t16.5 39.5q0 24 -16.5 40.5t-40.5 16.5q-23 0 -39.5 -16.5t-16.5 -40.5z" />
    <glyph glyph-name="ogonek" unicode="&#x2db;" horiz-adv-x="201" 
d="M109 0v16h82v-16q-64 -44 -86 -75t-22 -64q0 -16 10 -26.5t29 -10.5q38 0 64 29h3l-6 -71q-31 -19 -76 -19t-71 23t-26 64q0 34 21.5 66.5t77.5 83.5z" />
    <glyph glyph-name="tilde" unicode="&#x2dc;" horiz-adv-x="318" 
d="M96 633q-21 0 -35 -15t-16 -38l-35 7q5 54 30 85.5t60 31.5q23 0 65 -17t57 -17q21 0 34.5 15t16.5 39l35 -8q-6 -55 -30.5 -86t-59.5 -31q-23 0 -65 17t-57 17z" />
    <glyph glyph-name="hungarumlaut" unicode="&#x2dd;" horiz-adv-x="299" 
d="M73 733h92l-116 -162h-41zM202 733h92l-116 -162h-41z" />
    <glyph glyph-name="uni0394" unicode="&#x394;" horiz-adv-x="744" 
d="M732 0h-720l337 751l53 8zM377 643l-255 -572h500z" />
    <glyph glyph-name="uni03A9" unicode="&#x3a9;" horiz-adv-x="793" 
d="M32 0l-10 75h228q-67 69 -120 161q-67 114 -67 230q0 142 88.5 231.5t244.5 89.5q157 0 245.5 -89.5t88.5 -231.5q0 -113 -67 -230q-56 -94 -121 -161h229l-11 -75h-309v70q37 35 79 90.5t69 105.5q47 90 47 194q0 111 -64 179.5t-186 68.5q-123 0 -188 -68.5t-65 -179.5
q0 -102 48 -194q27 -50 69.5 -105t80.5 -91v-70h-309z" />
    <glyph glyph-name="uni03BC" unicode="&#x3bc;" horiz-adv-x="563" 
d="M249 -11q-70 0 -91 54v-261l-81 -19v722h81v-301q0 -115 97 -115q78 0 130 74q20 28 20 69v273h81v-477l-81 -20v94q-25 -43 -67 -68t-89 -25z" />
    <glyph glyph-name="pi" unicode="&#x3c0;" horiz-adv-x="611" 
d="M32 485h541v-67h-120v-265q0 -51 14 -71t47 -20q36 0 63 22l-6 -73q-36 -18 -81 -18q-58 0 -85 32t-27 109v284h-172v-240q0 -113 -50 -178h-85q32 39 46 80t14 98v240h-99v67z" />
    <glyph glyph-name="Wgrave" unicode="&#x1e80;" horiz-adv-x="1131" 
d="M740 0l-176 454l-184 -454h-68l-305 772h98l244 -653l176 435l-84 218h98l235 -646l258 646h92l-317 -772h-67zM546 824l-130 131h103l78 -131h-51z" />
    <glyph glyph-name="wgrave" unicode="&#x1e81;" horiz-adv-x="774" 
d="M350 485h75l103 -391l150 391h87l-204 -485h-76l-101 357l-124 -357h-77l-174 485h87l126 -390zM395 577l-134 162h97l80 -162h-43z" />
    <glyph glyph-name="Wacute" unicode="&#x1e82;" horiz-adv-x="1131" 
d="M740 0l-176 454l-184 -454h-68l-305 772h98l244 -653l176 435l-84 218h98l235 -646l258 646h92l-317 -772h-67zM662 955l-130 -131h-51l78 131h103z" />
    <glyph glyph-name="wacute" unicode="&#x1e83;" horiz-adv-x="774" 
d="M350 485h75l103 -391l150 391h87l-204 -485h-76l-101 357l-124 -357h-77l-174 485h87l126 -390zM513 739l-134 -162h-43l80 162h97z" />
    <glyph glyph-name="Wdieresis" unicode="&#x1e84;" horiz-adv-x="1131" 
d="M740 0l-176 454l-184 -454h-68l-305 772h98l244 -653l176 435l-84 218h98l235 -646l258 646h92l-317 -772h-67zM438 941q22 0 36.5 -14.5t14.5 -36.5q0 -23 -14 -37t-36 -14q-23 0 -37 14t-14 37t14 37t36 14zM640 941q22 0 36.5 -14.5t14.5 -36.5t-14 -36.5t-36 -14.5
q-24 0 -37.5 14t-13.5 37t14 37t36 14z" />
    <glyph glyph-name="wdieresis" unicode="&#x1e85;" horiz-adv-x="774" 
d="M350 485h75l103 -391l150 391h87l-204 -485h-76l-101 357l-124 -357h-77l-174 485h87l126 -390zM296 704q22 0 36 -14t14 -36t-13.5 -35.5t-35.5 -13.5q-23 0 -36.5 13t-13.5 36t13.5 36.5t35.5 13.5zM478 704q22 0 36 -14t14 -36t-13.5 -35.5t-35.5 -13.5
q-23 0 -36.5 13t-13.5 36q0 22 13.5 36t35.5 14z" />
    <glyph glyph-name="germandblS" unicode="&#x1e9e;" horiz-adv-x="743" 
d="M647 717l-184 -285q114 -10 172 -71.5t58 -149.5q0 -103 -67.5 -165.5t-178.5 -62.5q-91 0 -145 31l-10 100h3q52 -52 149 -52q79 0 121.5 40.5t42.5 108.5q0 65 -52 110.5t-156 45.5q-40 0 -67 -7l-2 2l203 315q-51 28 -131 28q-102 0 -165 -61.5t-63 -171.5v-472h-85
v480q0 137 88 220.5t228 83.5t241 -67z" />
    <glyph glyph-name="Ygrave" unicode="&#x1ef2;" horiz-adv-x="696" 
d="M379 0h-85v359l-291 413h105l232 -339l247 339h107l-315 -414v-358zM355 824l-130 131h103l78 -131h-51z" />
    <glyph glyph-name="ygrave" unicode="&#x1ef3;" horiz-adv-x="499" 
d="M61 -234q88 101 147 240l-199 479h90l150 -383l155 383h86l-212 -498q-63 -149 -117 -224h-100v3zM259 577l-134 162h97l80 -162h-43z" />
    <glyph glyph-name="endash" unicode="&#x2013;" horiz-adv-x="600" 
d="M575 299v-61h-550v61h550z" />
    <glyph glyph-name="emdash" unicode="&#x2014;" horiz-adv-x="1000" 
d="M975 299v-61h-950v61h950z" />
    <glyph glyph-name="quoteleft" unicode="&#x2018;" horiz-adv-x="190" 
d="M79 520q-44 39 -44 107q0 49 29.5 86t78.5 58l13 -21q-55 -36 -55 -92t47 -89z" />
    <glyph glyph-name="quoteright" unicode="&#x2019;" horiz-adv-x="190" 
d="M112 771q43 -36 43 -107q0 -97 -107 -143l-13 20q55 36 55 93q0 53 -47 89z" />
    <glyph glyph-name="quotesinglbase" unicode="&#x201a;" horiz-adv-x="247" 
d="M136 105q43 -36 43 -107q0 -97 -107 -143l-13 20q55 36 55 93q0 53 -47 89z" />
    <glyph glyph-name="quotedblleft" unicode="&#x201c;" horiz-adv-x="344" 
d="M242 520q-44 39 -44 107q0 49 29.5 86t78.5 58l13 -21q-55 -36 -55 -92t47 -89zM79 520q-44 39 -44 107q0 49 29.5 86t78.5 58l13 -21q-55 -36 -55 -92t47 -89z" />
    <glyph glyph-name="quotedblright" unicode="&#x201d;" horiz-adv-x="344" 
d="M265 771q43 -36 43 -107q0 -97 -107 -143l-13 20q55 36 55 93q0 53 -47 89zM102 771q43 -36 43 -107q0 -97 -107 -143l-13 20q55 36 55 93q0 53 -47 89z" />
    <glyph glyph-name="quotedblbase" unicode="&#x201e;" horiz-adv-x="411" 
d="M299 105q43 -36 43 -107q0 -97 -107 -143l-13 20q55 36 55 93q0 53 -47 89zM136 105q43 -36 43 -107q0 -97 -107 -143l-13 20q55 36 55 93q0 53 -47 89z" />
    <glyph glyph-name="dagger" unicode="&#x2020;" horiz-adv-x="455" 
d="M182 735h92l-20 -213l173 14v-79l-173 15l18 -160q-19 -205 -19 -424h-51q0 214 -18 424l17 160l-172 -15v79l172 -14z" />
    <glyph glyph-name="daggerdbl" unicode="&#x2021;" horiz-adv-x="482" 
d="M287 -112h-92l19 210l-172 -15v79l172 -14l-17 164l17 163l-172 -14v79l172 -15l-19 210h92l-19 -210l172 15v-79l-172 14l17 -163l-17 -164l172 14v-79l-172 15z" />
    <glyph glyph-name="bullet" unicode="&#x2022;" horiz-adv-x="310" 
d="M45 400q0 45 32 77.5t78 32.5q45 0 77 -32.5t32 -77.5q0 -46 -32 -78t-77 -32q-46 0 -78 32t-32 78z" />
    <glyph glyph-name="ellipsis" unicode="&#x2026;" horiz-adv-x="791" 
d="M394 96q24 0 39 -15t15 -40q0 -23 -14.5 -38t-38.5 -15q-25 0 -39.5 14.5t-14.5 38.5q0 25 14.5 40t38.5 15zM667 96q24 0 39 -15t15 -40q0 -23 -14.5 -38t-38.5 -15q-25 0 -39.5 14.5t-14.5 38.5q0 25 14.5 40t38.5 15zM122 96q24 0 39 -15t15 -40q0 -23 -14.5 -38
t-38.5 -15q-25 0 -39.5 14.5t-14.5 38.5q0 25 14.5 40t38.5 15z" />
    <glyph glyph-name="perthousand" unicode="&#x2030;" horiz-adv-x="1152" 
d="M660 752l-459 -752h-66l458 752h67zM189 384q-61 0 -96.5 38.5t-35.5 108.5q0 76 51 136.5t123 60.5q61 0 97 -38.5t36 -108.5q0 -76 -51.5 -136.5t-123.5 -60.5zM228 670q-46 0 -77.5 -43t-31.5 -103q0 -82 73 -82q47 0 78.5 43.5t31.5 102.5q0 40 -19.5 61t-54.5 21z
M557 24q-61 0 -96.5 38.5t-35.5 108.5q0 76 51 136.5t123 60.5q61 0 97 -38.5t36 -108.5q0 -76 -51.5 -136.5t-123.5 -60.5zM596 310q-46 0 -77.5 -43t-31.5 -103q0 -82 73 -82q47 0 78.5 43.5t31.5 102.5q0 40 -19.5 61t-54.5 21zM920 24q-60 0 -96 39t-36 108
q0 76 51.5 136.5t122.5 60.5q61 0 97 -38.5t36 -108.5q0 -76 -51.5 -136.5t-123.5 -60.5zM959 310q-46 0 -77.5 -43t-31.5 -103q0 -82 73 -82q47 0 78.5 43t31.5 103q0 40 -19.5 61t-54.5 21z" />
    <glyph glyph-name="guilsinglleft" unicode="&#x2039;" horiz-adv-x="294" 
d="M174 82l-130 165l130 165h67l-99 -165l99 -165h-67z" />
    <glyph glyph-name="guilsinglright" unicode="&#x203a;" horiz-adv-x="294" 
d="M121 412l130 -165l-130 -165h-67l99 165l-99 165h67z" />
    <glyph glyph-name="fraction" unicode="&#x2044;" horiz-adv-x="159" 
d="M371 780l-519 -810h-65l518 810h66z" />
    <glyph glyph-name="zero.superior" unicode="&#x2070;" horiz-adv-x="375" 
d="M187 448q-68 0 -109 54t-41 152t41 152t109 54t109.5 -54t41.5 -152q0 -97 -41.5 -151.5t-109.5 -54.5zM187 503q41 0 64 39t23 112t-23 112t-64 39q-40 0 -63 -39t-23 -112q0 -72 23 -111.5t63 -39.5z" />
    <glyph glyph-name="four.superior" unicode="&#x2074;" horiz-adv-x="367" 
d="M218 458v104h-205v33l194 255h70v-236h72v-52h-72v-104h-59zM78 614h140v182z" />
    <glyph glyph-name="five.superior" unicode="&#x2075;" horiz-adv-x="353" 
d="M305 850l-8 -53h-173l-10 -79q8 2 34 2q72 0 113 -35t41 -87q0 -73 -58 -113.5t-168 -40.5q-23 0 -35 2l8 60q19 -4 49 -4q68 0 104.5 25t36.5 66q0 34 -28 55.5t-81 21.5q-41 0 -77 -9l24 189h228z" />
    <glyph glyph-name="six.superior" unicode="&#x2076;" horiz-adv-x="354" 
d="M287 802q-79 -7 -127.5 -42t-64.5 -91q37 34 90 34q60 0 98 -33.5t38 -91.5q0 -55 -39 -92.5t-101 -37.5q-71 0 -109.5 43t-38.5 121q0 100 65.5 169.5t199.5 80.5zM178 658q-57 0 -92 -41v-8q0 -52 25.5 -79.5t73.5 -27.5q33 0 55.5 23t22.5 55q0 34 -24 56t-61 22z" />
    <glyph glyph-name="seven.superior" unicode="&#x2077;" horiz-adv-x="327" 
d="M86 458q51 159 136 336l-205 -4l24 60h264q-109 -244 -146 -392h-73z" />
    <glyph glyph-name="eight.superior" unicode="&#x2078;" horiz-adv-x="373" 
d="M332 562q0 -48 -39 -81t-109 -33q-68 0 -105 30t-37 81q0 70 79 99q-67 29 -67 96q0 43 37.5 74.5t92.5 31.5q59 0 93 -29.5t34 -72.5q0 -57 -64 -90q41 -13 63 -40.5t22 -65.5zM269 564q0 59 -95 77q-34 -9 -53 -31t-19 -48t22.5 -44t59.5 -18q41 0 63 18t22 46z
M114 756q0 -29 17.5 -45.5t62.5 -29.5q58 23 58 71q0 24 -19 40.5t-49 16.5t-50 -15.5t-20 -37.5z" />
    <glyph glyph-name="nine.superior" unicode="&#x2079;" horiz-adv-x="359" 
d="M116 441l-39 49q135 51 170 130q-28 -17 -64 -17q-67 0 -108 34t-41 93q0 56 37 93t98 37q71 0 111 -43t40 -120q0 -175 -204 -256zM193 650q42 0 68 19q2 18 2 29q0 51 -25 80t-70 29q-34 0 -55.5 -22.5t-21.5 -56.5t28.5 -56t73.5 -22z" />
    <glyph glyph-name="n.superior" unicode="&#x207f;" horiz-adv-x="409" 
d="M60 350v340h63v-58q54 65 122 65q53 0 81.5 -29t28.5 -85v-233h-64v212q0 40 -16 58.5t-51 18.5q-50 0 -81 -42q-20 -26 -20 -62v-185h-63z" />
    <glyph glyph-name="zero.inferior" unicode="&#x2080;" horiz-adv-x="375" 
d="M187 -152q-68 0 -109 54t-41 152t41 152t109 54t109.5 -54t41.5 -152q0 -97 -41.5 -151.5t-109.5 -54.5zM187 -97q41 0 64 39t23 112t-23 112t-64 39q-40 0 -63 -39t-23 -112q0 -72 23 -111.5t63 -39.5z" />
    <glyph glyph-name="one.inferior" unicode="&#x2081;" horiz-adv-x="264" 
d="M171 -142h-64v338l-90 -3l9 57h145v-392z" />
    <glyph glyph-name="two.inferior" unicode="&#x2082;" horiz-adv-x="348" 
d="M220 -4q-45 -45 -99 -82h190l-7 -56h-269v49q68 46 132 113q61 64 61 120q0 27 -18 44t-51 17q-57 0 -111 -43l10 72q40 30 110 30q61 0 93.5 -31t32.5 -79q0 -79 -74 -154z" />
    <glyph glyph-name="three.inferior" unicode="&#x2083;" horiz-adv-x="346" 
d="M284 162q0 -30 -17.5 -54.5t-48.5 -36.5q84 -26 84 -102q0 -56 -42 -88.5t-110 -32.5q-72 0 -110 21l-3 64q46 -29 111 -29q42 0 66 18.5t24 47.5q0 30 -23.5 48t-65.5 18q-48 0 -85 -10l13 63q26 -2 50 -2q43 0 68 16.5t25 47.5q0 23 -19 38t-54 15q-55 0 -90 -23l14 64
q35 15 89 15q58 0 91 -27.5t33 -70.5z" />
    <glyph glyph-name="four.inferior" unicode="&#x2084;" horiz-adv-x="360" 
d="M211 -142v104h-205v33l194 255h70v-236h72v-52h-72v-104h-59zM71 14h140v182z" />
    <glyph glyph-name="five.inferior" unicode="&#x2085;" horiz-adv-x="353" 
d="M305 250l-8 -53h-173l-10 -79q8 2 34 2q72 0 113 -35t41 -87q0 -73 -58 -113.5t-168 -40.5q-23 0 -35 2l8 60q19 -4 49 -4q68 0 104.5 25t36.5 66q0 34 -28 55.5t-81 21.5q-41 0 -77 -9l24 189h228z" />
    <glyph glyph-name="six.inferior" unicode="&#x2086;" horiz-adv-x="354" 
d="M287 202q-79 -7 -127.5 -42t-64.5 -91q37 34 90 34q60 0 98 -33.5t38 -91.5q0 -55 -39 -92.5t-101 -37.5q-71 0 -109.5 43t-38.5 121q0 100 65.5 169.5t199.5 80.5zM178 58q-57 0 -92 -41v-8q0 -52 25.5 -79.5t73.5 -27.5q33 0 55.5 23t22.5 55q0 34 -24 56t-61 22z" />
    <glyph glyph-name="seven.inferior" unicode="&#x2087;" horiz-adv-x="327" 
d="M86 -142q51 159 136 336l-205 -4l24 60h264q-109 -244 -146 -392h-73z" />
    <glyph glyph-name="eight.inferior" unicode="&#x2088;" horiz-adv-x="373" 
d="M332 -38q0 -48 -39 -81t-109 -33q-68 0 -105 30t-37 81q0 70 79 99q-67 29 -67 96q0 43 37.5 74.5t92.5 31.5q59 0 93 -29.5t34 -72.5q0 -57 -64 -90q41 -13 63 -40.5t22 -65.5zM269 -36q0 59 -95 77q-34 -9 -53 -31t-19 -48t22.5 -44t59.5 -18q41 0 63 18t22 46z
M114 156q0 -29 17.5 -45.5t62.5 -29.5q58 23 58 71q0 24 -19 40.5t-49 16.5t-50 -15.5t-20 -37.5z" />
    <glyph glyph-name="nine.inferior" unicode="&#x2089;" horiz-adv-x="359" 
d="M116 -159l-39 49q135 51 170 130q-28 -17 -64 -17q-67 0 -108 34t-41 93q0 56 37 93t98 37q71 0 111 -43t40 -120q0 -175 -204 -256zM193 50q42 0 68 19q2 18 2 29q0 51 -25 80t-70 29q-34 0 -55.5 -22.5t-21.5 -56.5t28.5 -56t73.5 -22z" />
    <glyph glyph-name="Euro" unicode="&#x20ac;" 
d="M24 428l14 58h40q26 134 112 206.5t222 72.5q83 0 142 -28l-17 -74q-46 29 -128 29q-100 0 -163.5 -53.5t-85.5 -152.5h334l-14 -58h-330q-2 -36 -2 -56q0 -24 1 -35h310l-14 -58h-290q40 -214 256 -214q86 0 148 44l-10 -91q-58 -29 -142 -29q-141 0 -226.5 73
t-106.5 217h-54l14 58h35q-1 11 -1 34q0 38 2 57h-46z" />
    <glyph glyph-name="uni20B9" unicode="&#x20b9;" 
d="M47 505l26 62h289q-16 123 -182 123h-133l26 62h455l-26 -62h-127q62 -45 69 -123h84l-26 -62h-60q-24 -149 -230 -189l260 -316h-111l-283 357v3q141 14 205 48t77 97h-313z" />
    <glyph glyph-name="uni20BA" unicode="&#x20ba;" 
d="M55 413v70l72 38v231h82v-194l165 88v-70l-165 -87v-103l165 88v-70l-165 -87v-239q18 -6 40 -6q85 0 146.5 58.5t81.5 162.5l75 -44q-28 -120 -110.5 -189.5t-199.5 -69.5q-64 0 -115 18v271l-72 -38v70l72 38v102z" />
    <glyph glyph-name="afii61289" unicode="&#x2113;" horiz-adv-x="396" 
d="M347 31q-18 -21 -52.5 -33.5t-65.5 -12.5q-71 0 -103 35.5t-32 122.5v74l-51 -49l-16 56l67 67v303q0 92 38 139t102 47q59 0 91.5 -41t32.5 -113q0 -77 -46 -159t-156 -191v-120q0 -61 18.5 -84t62.5 -23q63 0 113 57h3zM156 594v-239q79 84 109.5 145.5t30.5 121.5
q0 46 -17 71.5t-48 25.5q-75 0 -75 -125z" />
    <glyph glyph-name="trademark" unicode="&#x2122;" horiz-adv-x="901" 
d="M214 350h-65v342h-135v60h335v-60h-135v-342zM397 350v402h75l148 -311l153 311h74v-402h-62v298l-145 -298h-38l-142 298v-298h-63z" />
    <glyph glyph-name="Omega" unicode="&#x2126;" horiz-adv-x="793" 
d="M32 0l-10 75h228q-67 69 -120 161q-67 114 -67 230q0 142 88.5 231.5t244.5 89.5q157 0 245.5 -89.5t88.5 -231.5q0 -113 -67 -230q-56 -94 -121 -161h229l-11 -75h-309v70q37 35 79 90.5t69 105.5q47 90 47 194q0 111 -64 179.5t-186 68.5q-123 0 -188 -68.5t-65 -179.5
q0 -102 48 -194q27 -50 69.5 -105t80.5 -91v-70h-309z" />
    <glyph glyph-name="estimated" unicode="&#x212e;" horiz-adv-x="830" 
d="M415 671q156 0 267 -99.5t111 -247.5h-608q-10 0 -10 -11v-197q47 -51 110 -78.5t130 -27.5q73 0 139 32.5t113 88.5h57q-56 -68 -138 -105t-171 -37q-100 0 -186 42.5t-139.5 121.5t-53.5 177q0 145 110.5 243t268.5 98zM415 650q-70 0 -133 -28.5t-107 -78.5v-185
q0 -11 10 -11h461q9 0 9 11v184q-44 51 -108 79.5t-132 28.5z" />
    <glyph glyph-name="partialdiff" unicode="&#x2202;" horiz-adv-x="564" 
d="M287 458q99 0 157 -75v14q0 144 -51 224.5t-140 80.5q-82 0 -132 -60h-3l-7 75q54 55 150 55q115 0 183.5 -98t68.5 -272q0 -194 -77.5 -306.5t-203.5 -112.5q-88 0 -139.5 56.5t-51.5 148.5q0 123 68 196.5t178 73.5zM238 56q78 0 132.5 69t68.5 190q-56 78 -148 78
q-78 0 -125.5 -54t-47.5 -142q0 -65 31 -103t89 -38z" />
    <glyph glyph-name="Delta" unicode="&#x2206;" horiz-adv-x="744" 
d="M732 0h-720l337 751l53 8zM377 643l-255 -572h500z" />
    <glyph glyph-name="product" unicode="&#x220f;" horiz-adv-x="702" 
d="M163 -220h-75v952h526v-952h-74v881h-377v-881z" />
    <glyph glyph-name="summation" unicode="&#x2211;" horiz-adv-x="538" 
d="M511 -220h-487l303 476l-303 476h487v-68h-364l261 -408l-261 -408h364v-68z" />
    <glyph glyph-name="minus" unicode="&#x2212;" horiz-adv-x="576" 
d="M531 295v-73h-486v73h486z" />
    <glyph glyph-name="uni2215" unicode="&#x2215;" horiz-adv-x="159" 
d="M371 780l-519 -810h-65l518 810h66z" />
    <glyph glyph-name="uni2219" unicode="&#x2219;" horiz-adv-x="245" 
d="M122 318q24 0 39 -15t15 -40q0 -23 -14.5 -38t-38.5 -15q-25 0 -39.5 14.5t-14.5 38.5q0 25 14.5 40t38.5 15z" />
    <glyph glyph-name="radical" unicode="&#x221a;" horiz-adv-x="576" 
d="M262 -99l-140 420l-98 -36l-23 66l158 58l133 -400l214 881h60l-240 -989h-64z" />
    <glyph glyph-name="infinity" unicode="&#x221e;" horiz-adv-x="576" 
d="M165 387q80 0 134 -85q22 36 55 60.5t71 24.5q58 0 92.5 -36.5t34.5 -93.5q0 -59 -34.5 -92.5t-88.5 -33.5q-80 0 -135 84q-21 -35 -54 -59.5t-71 -24.5q-58 0 -92.5 36.5t-34.5 93.5q0 59 34.5 92.5t88.5 33.5zM165 187q67 0 105 68q-43 78 -101 78q-31 0 -51.5 -20
t-20.5 -52q0 -34 18 -54t50 -20zM429 331q-66 0 -106 -69q42 -77 102 -77q31 0 51.5 20t20.5 52q0 34 -18 54t-50 20z" />
    <glyph glyph-name="integral" unicode="&#x222b;" horiz-adv-x="445" 
d="M188 15v510q0 119 36.5 173t116.5 54q49 0 81 -21l-13 -81q-27 32 -67 32q-47 0 -66 -37t-19 -126v-503q0 -123 -37.5 -179.5t-118.5 -56.5q-48 0 -77 23l14 77q28 -31 66 -31q47 0 65.5 37.5t18.5 128.5z" />
    <glyph glyph-name="approxequal" unicode="&#x2248;" horiz-adv-x="576" 
d="M541 369q-48 -90 -136 -90q-45 0 -119.5 45.5t-115.5 45.5q-66 0 -103 -60l-32 58q45 74 136 74q45 0 120 -45.5t115 -45.5q60 0 101 75zM541 169q-45 -74 -136 -74q-45 0 -119.5 45.5t-115.5 45.5q-60 0 -101 -75l-34 57q48 90 136 90q45 0 120 -45.5t115 -45.5
q64 0 103 60z" />
    <glyph glyph-name="notequal" unicode="&#x2260;" horiz-adv-x="576" 
d="M531 202v-66h-286l-56 -92h-71l56 92h-129v66h169l69 113h-238v66h279l56 92h72l-57 -92h136v-66h-176l-69 -113h245z" />
    <glyph glyph-name="lessequal" unicode="&#x2264;" horiz-adv-x="576" 
d="M531 442l-422 -122l422 -120v-66l-486 147v79l486 147v-65zM531 93v-63h-486v63h486z" />
    <glyph glyph-name="greaterequal" unicode="&#x2265;" horiz-adv-x="576" 
d="M45 134v66l421 121l-421 121v65l486 -147v-79zM531 93v-63h-486v63h486z" />
    <glyph glyph-name="lozenge" unicode="&#x25ca;" horiz-adv-x="521" 
d="M42 390l187 390h63l187 -390l-187 -390h-63zM108 390l152 -316l152 317l-152 315z" />
    <glyph glyph-name="commaaccent" unicode="&#xf6c3;" horiz-adv-x="147" 
d="M124 -63q13 -23 13 -54q0 -27 -18 -54.5t-65 -65.5h-49q62 70 62 117q0 18 -13 40z" />
    <glyph glyph-name="uniF8FF" unicode="&#xf8ff;" horiz-adv-x="523" 
d="M187 79q21 0 33.5 -13t12.5 -33t-12.5 -32.5t-33.5 -12.5q-20 0 -32 12.5t-12 32.5t12 33t32 13zM218 164l-66 -14v151q86 4 135.5 38t49.5 88q0 48 -34 75.5t-91 27.5q-38 0 -78 -17l12 73q30 10 74 10q85 0 138 -43.5t53 -121.5q0 -70 -52.5 -119.5t-140.5 -63.5v-84z
M0 -138v870h523v-870h-523zM62 671v-748h399v748h-399z" />
    <glyph glyph-name="fi" unicode="&#xfb01;" horiz-adv-x="607" 
d="M199 545v-60h138v-69h-138v-416h-82v416h-99v69h99v78q0 148 97 192l130 25v-46q-83 -17 -114 -60.5t-31 -128.5zM438 478l82 16v-494h-82v478zM479 722q24 0 39 -15t15 -39t-15 -39t-38 -15q-25 0 -39.5 14.5t-14.5 39.5q0 24 14.5 39t38.5 15z" />
    <glyph glyph-name="fl" unicode="&#xfb02;" horiz-adv-x="607" 
d="M199 545v-60h138v-69h-138v-416h-82v416h-99v69h99v78q0 148 97 192l130 25v-46q-83 -17 -114 -60.5t-31 -128.5zM520 780v-780h-82v763z" />
    <glyph glyph-name="NULL" horiz-adv-x="0" 
 />
    <glyph glyph-name="caron.alt" horiz-adv-x="128" 
d="M105 781q13 -27 13 -61q0 -56 -69 -133h-39q40 77 40 127q0 24 -12 50z" />
    <glyph glyph-name="commaaccent.alt" horiz-adv-x="147" 
d="M24 566q-14 24 -14 54q0 52 83 121h50q-63 -69 -63 -117q0 -20 14 -41z" />
    <glyph glyph-name="grave.cap" horiz-adv-x="191" 
d="M134 824l-130 131h103l78 -131h-51z" />
    <glyph glyph-name="acute.cap" horiz-adv-x="191" 
d="M187 955l-130 -131h-51l78 131h103z" />
    <glyph glyph-name="circumflex.cap" horiz-adv-x="295" 
d="M236 824l-90 76l-87 -76h-52l102 131h77l101 -131h-51z" />
    <glyph glyph-name="tilde.cap" horiz-adv-x="321" 
d="M96 866q-21 0 -35 -15t-16 -38l-35 8q5 54 29 85t58 31q24 0 68 -17t60 -17q44 0 51 54l35 -8q-5 -54 -29 -85.5t-58 -31.5q-24 0 -68 17t-60 17z" />
    <glyph glyph-name="dieresis.cap" horiz-adv-x="323" 
d="M60 941q22 0 36.5 -14.5t14.5 -36.5q0 -23 -14 -37t-36 -14q-23 0 -37 14t-14 37t14 37t36 14zM262 941q22 0 36.5 -14.5t14.5 -36.5t-14 -36.5t-36 -14.5q-24 0 -37.5 14t-13.5 37t14 37t36 14z" />
    <glyph glyph-name="macron.cap" horiz-adv-x="300" 
d="M290 911v-61h-280v61h280z" />
    <glyph glyph-name="breve.cap" horiz-adv-x="267" 
d="M134 883q75 0 80 72h43q0 -55 -30 -93t-93 -38q-65 0 -94.5 37.5t-29.5 93.5h43q5 -72 81 -72z" />
    <glyph glyph-name="ring.cap" horiz-adv-x="216" 
d="M10 904q0 40 29 69t69 29t69 -29t29 -69t-29 -69t-69 -29t-69 29t-29 69zM50 904q0 -23 17 -40.5t41 -17.5t41 17.5t17 40.5q0 24 -17 41t-41 17t-41 -17t-17 -41z" />
    <glyph glyph-name="hungarumlaut.cap" horiz-adv-x="312" 
d="M82 955h95l-122 -131h-49zM213 955h94l-121 -131h-49z" />
    <glyph glyph-name="dotaccent.cap" horiz-adv-x="124" 
d="M61 941q24 0 38.5 -14.5t14.5 -37.5t-14.5 -37.5t-37.5 -14.5q-24 0 -38 14t-14 38q0 23 14 37.5t37 14.5z" />
    <glyph glyph-name="caron.cap" horiz-adv-x="295" 
d="M7 955h52l89 -76l88 76h51l-101 -131h-77z" />
    <glyph glyph-name="questiondown.cap" horiz-adv-x="458" 
d="M353 675q-24 0 -39 15t-15 40q0 23 14.5 38t38.5 15q25 0 39.5 -14.5t14.5 -38.5q0 -25 -14.5 -40t-38.5 -15zM318 549l75 16v-182q-115 -6 -181 -53t-66 -123q0 -66 47 -105t127 -39q56 0 97 17l-15 -80q-39 -12 -92 -12q-111 0 -179.5 56t-68.5 158q0 93 70 157.5
t186 81.5v108z" />
    <glyph glyph-name="exclamdown.cap" horiz-adv-x="279" 
d="M142 673q-25 0 -40 15t-15 39t15 38.5t39 14.5q25 0 39.5 -14.5t14.5 -38.5t-14.5 -39t-38.5 -15zM187 7l-103 -19q9 300 46 563l26 -5q29 -252 31 -539z" />
    <glyph glyph-name="periodcenterd.cap" horiz-adv-x="245" 
d="M122 440q24 0 39 -15t15 -40q0 -23 -14.5 -38t-38.5 -15q-25 0 -39.5 14.5t-14.5 38.5q0 25 14.5 40t38.5 15z" />
    <glyph glyph-name="hyphen.cap" horiz-adv-x="324" 
d="M289 423v-73h-254v73h254z" />
    <glyph glyph-name="endash.cap" horiz-adv-x="600" 
d="M575 416v-60h-550v60h550z" />
    <glyph glyph-name="emdash.cap" horiz-adv-x="1000" 
d="M975 416v-60h-950v60h950z" />
    <glyph glyph-name="uni00AD.cap" horiz-adv-x="324" 
d="M289 423v-73h-254v73h254z" />
    <glyph glyph-name="parenleft.cap" horiz-adv-x="348" 
d="M74 386q0 137 38.5 236.5t119.5 186.5h61q-79 -100 -113.5 -197.5t-34.5 -225.5t34.5 -225.5t113.5 -197.5h-61q-81 87 -119.5 186.5t-38.5 236.5z" />
    <glyph glyph-name="parenright.cap" horiz-adv-x="348" 
d="M275 386q0 -137 -38.5 -236.5t-119.5 -186.5h-62q79 100 113.5 197.5t34.5 225.5t-34.5 225.5t-113.5 197.5h62q81 -87 119.5 -186.5t38.5 -236.5z" />
    <glyph glyph-name="bracketleft.cap" horiz-adv-x="348" 
d="M84 -37v846h210v-47h-142v-752h142v-47h-210z" />
    <glyph glyph-name="bracketright.cap" horiz-adv-x="348" 
d="M265 809v-846h-211v47h142v752h-142v47h211z" />
    <glyph glyph-name="braceleft.cap" horiz-adv-x="348" 
d="M27 362v48q100 8 100 115v138q0 77 41.5 111.5t129.5 34.5v-46q-55 0 -79.5 -25.5t-24.5 -87.5v-139q0 -105 -96 -125q96 -20 96 -125v-139q0 -63 24.5 -88t79.5 -25v-46q-88 0 -129.5 34.5t-41.5 111.5v138q0 107 -100 115z" />
    <glyph glyph-name="braceright.cap" horiz-adv-x="348" 
d="M321 410v-48q-100 -8 -100 -115v-138q0 -78 -41.5 -112t-129.5 -34v46q55 0 79.5 25.5t24.5 87.5v139q0 105 96 125q-96 20 -96 125v139q0 63 -24.5 88t-79.5 25v46q88 0 129.5 -34t41.5 -112v-138q0 -107 100 -115z" />
    <glyph glyph-name="guilsinglleft.cap" horiz-adv-x="294" 
d="M174 221l-130 165l130 165h67l-99 -165l99 -165h-67z" />
    <glyph glyph-name="guilsinglright.cap" horiz-adv-x="294" 
d="M121 551l130 -165l-130 -165h-67l99 165l-99 165h67z" />
    <glyph glyph-name="guillemotleft.cap" horiz-adv-x="450" 
d="M174 221l-130 165l130 165h60l-99 -165l99 -165h-60zM336 221l-130 165l130 165h61l-99 -165l99 -165h-61z" />
    <glyph glyph-name="guillemotright.cap" horiz-adv-x="450" 
d="M114 551l130 -165l-130 -165h-60l99 165l-99 165h60zM277 551l130 -165l-130 -165h-61l99 165l-99 165h61z" />
    <glyph glyph-name="A.superior" horiz-adv-x="416" 
d="M7 350l181 400l49 7l171 -407h-73l-46 116h-161l-47 -116h-74zM210 670l-65 -154h126z" />
    <glyph glyph-name="B.superior" horiz-adv-x="346" 
d="M298 657q0 -61 -58 -88q75 -24 75 -100q0 -53 -41.5 -86t-110.5 -33h-109v402h116q62 0 95 -26.5t33 -68.5zM118 535v-132h46q42 0 63.5 19.5t21.5 50.5q0 28 -20.5 45t-57.5 17h-53zM118 699v-117h48q33 0 51 17.5t18 44.5q0 24 -18 39.5t-51 15.5h-48z" />
    <glyph glyph-name="C.superior" horiz-adv-x="397" 
d="M362 723l-7 -75h-3q-40 48 -115 48q-60 0 -99 -42t-39 -103q0 -64 38.5 -104.5t99.5 -40.5q73 0 126 59h3l-7 -83q-55 -39 -128 -39q-88 0 -144 57.5t-56 151.5q0 85 57.5 146t144.5 61q77 0 129 -36z" />
    <glyph glyph-name="D.superior" horiz-adv-x="411" 
d="M158 350h-104v402h105q104 0 163 -53.5t59 -142.5q0 -99 -57.5 -152.5t-165.5 -53.5zM119 692v-282h42q74 0 113 37.5t39 108.5q0 59 -40 97.5t-111 38.5h-43z" />
    <glyph glyph-name="E.superior" horiz-adv-x="314" 
d="M119 694v-108h138v-55h-138v-123h162v-58h-227v402h225v-58h-160z" />
    <glyph glyph-name="F.superior" horiz-adv-x="303" 
d="M281 752v-58h-162v-110h149v-58h-149v-176h-65v402h227z" />
    <glyph glyph-name="G.superior" horiz-adv-x="412" 
d="M376 539v-146q-64 -50 -146 -50q-89 0 -144 56.5t-55 149.5q0 88 56 149t149 61q71 0 125 -35l-7 -72h-3q-46 46 -115 46q-62 0 -99.5 -41t-37.5 -108t37 -107t97 -40q48 0 77 27v110h66z" />
    <glyph glyph-name="H.superior" horiz-adv-x="426" 
d="M119 350h-65v402h65v-163h188v163h65v-402h-65v179h-188v-179z" />
    <glyph glyph-name="I.superior" horiz-adv-x="173" 
d="M119 350h-65v402h65v-402z" />
    <glyph glyph-name="J.superior" horiz-adv-x="174" 
d="M54 752h66v-330q0 -127 -42 -173l-90 -22l-2 5q39 30 53.5 68t14.5 117v335z" />
    <glyph glyph-name="K.superior" horiz-adv-x="394" 
d="M119 350h-65v402h65v-187l166 187h88l-184 -196l199 -206h-91l-178 195v-195z" />
    <glyph glyph-name="L.superior" horiz-adv-x="326" 
d="M54 350v402h65v-342h193v-60h-258z" />
    <glyph glyph-name="M.superior" horiz-adv-x="558" 
d="M54 350v402h75l148 -311l153 311h74v-402h-62v298l-145 -298h-38l-142 298v-298h-63z" />
    <glyph glyph-name="N.superior" horiz-adv-x="469" 
d="M352 752h63v-402h-54l-243 296v-296h-64v402h54l244 -296v296z" />
    <glyph glyph-name="O.superior" horiz-adv-x="455" 
d="M356 551q0 64 -36.5 106t-92.5 42t-92 -42t-36 -106q0 -65 36 -106.5t92 -41.5t92.5 41.5t36.5 106.5zM424 551q0 -91 -55.5 -150t-141.5 -59t-141 59t-55 150t55.5 150t140.5 59q86 0 141.5 -59t55.5 -150z" />
    <glyph glyph-name="P.superior" horiz-adv-x="328" 
d="M119 350h-65v402h102q71 0 111 -32.5t40 -90.5q0 -134 -162 -134h-26v-145zM119 696v-145h31q93 0 93 74q0 34 -23 52.5t-66 18.5h-35z" />
    <glyph glyph-name="Q.superior" horiz-adv-x="458" 
d="M228 350q-24 0 -47 6v-1q6 -2 48 -19.5t66 -23.5q39 -10 83 -10l-20 -65q-43 3 -86 19q-32 12 -79.5 36t-55.5 27q-27 11 -51 16l29 54q-38 29 -61 72.5t-23 93.5q0 89 55.5 147t141.5 58q87 0 143 -58.5t56 -148.5q0 -88 -56 -145.5t-143 -57.5zM357 553q0 63 -36.5 104
t-92.5 41t-91.5 -40t-35.5 -103t36.5 -106t90.5 -43q56 0 92.5 41.5t36.5 105.5z" />
    <glyph glyph-name="R.superior" horiz-adv-x="366" 
d="M53 350v402h113q69 0 107 -30.5t38 -85.5q0 -83 -90 -112l138 -174h-80l-123 161h-37v-161h-66zM119 696v-140h8q116 0 116 73q0 67 -85 67h-39z" />
    <glyph glyph-name="S.superior" horiz-adv-x="302" 
d="M39 443q51 -42 102 -42q31 0 48.5 14t17.5 39q0 23 -17 41t-62 43q-52 27 -71.5 54t-19.5 68q0 43 32.5 71.5t83.5 28.5q48 0 92 -19v-73q-52 34 -88 34q-26 0 -40 -12.5t-14 -32.5q0 -21 14.5 -36t63.5 -41q51 -26 72 -54.5t21 -70.5q0 -51 -38 -82t-99 -31
q-57 0 -94 22l-7 79h3z" />
    <glyph glyph-name="T.superior" horiz-adv-x="362" 
d="M214 350h-65v342h-135v60h335v-60h-135v-342z" />
    <glyph glyph-name="U.superior" horiz-adv-x="412" 
d="M51 752h66v-248q0 -48 25 -72.5t64 -24.5q40 0 65 24.5t25 72.5v248h65v-250q0 -80 -42.5 -119.5t-112.5 -39.5t-112.5 39t-42.5 118v252z" />
    <glyph glyph-name="V.superior" horiz-adv-x="415" 
d="M7 752h76l120 -311l129 311h76l-178 -402h-55z" />
    <glyph glyph-name="W.superior" horiz-adv-x="610" 
d="M383 350l-80 199l-83 -199h-49l-164 402h76l116 -311l75 178l-53 133h75l113 -305l123 305h71l-171 -402h-49z" />
    <glyph glyph-name="X.superior" horiz-adv-x="415" 
d="M11 350l154 209l-147 193h86l104 -144l99 144h83l-145 -191l158 -211h-86l-114 162l-115 -162h-77z" />
    <glyph glyph-name="Y.superior" horiz-adv-x="382" 
d="M217 350h-65v182l-147 220h80l102 -162l110 162h81l-161 -221v-181z" />
    <glyph glyph-name="Z.superior" horiz-adv-x="388" 
d="M352 350h-349l251 340h-211l5 62h327l-255 -340h243z" />
    <glyph glyph-name="b.superior" horiz-adv-x="416" 
d="M190 338q-49 0 -84 21l-46 -18v510l63 13v-195q45 33 97 33q70 0 116.5 -47t46.5 -125q0 -87 -52 -139.5t-141 -52.5zM205 648q-53 0 -82 -32v-213q26 -16 64 -16q60 0 95.5 36.5t35.5 100.5q0 56 -31 90t-82 34z" />
    <glyph glyph-name="c.superior" horiz-adv-x="353" 
d="M326 443l-10 -74q-46 -31 -110 -31q-80 0 -127 47.5t-47 129.5t50 134.5t137 52.5q59 0 102 -28l-11 -62q-36 31 -89 31q-58 0 -90.5 -34.5t-32.5 -93.5q0 -52 30 -85.5t84 -33.5q67 0 111 47h3z" />
    <glyph glyph-name="d.superior" horiz-adv-x="417" 
d="M297 339l2 35q-45 -36 -107 -36q-74 0 -117 49.5t-43 124.5q0 82 52 136t127 54q42 0 83 -21v170l63 13v-508zM208 391q54 0 86 29v208q-29 20 -75 20q-52 0 -86 -37t-34 -98q0 -55 29 -88.5t80 -33.5z" />
    <glyph glyph-name="e.superior" horiz-adv-x="359" 
d="M209 501q-58 -15 -118 -24q9 -39 36.5 -61.5t71.5 -22.5q71 0 113 53h3l-4 -69q-47 -39 -117 -39q-78 0 -120 47t-42 116q0 79 53 140.5t133 61.5q50 0 78 -25.5t28 -65.5q0 -82 -115 -111zM203 653q-46 0 -79.5 -42t-35.5 -95q53 7 104 23q68 21 68 65q0 23 -15.5 36
t-41.5 13z" />
    <glyph glyph-name="f.superior" horiz-adv-x="247" 
d="M143 702v-12h95v-54h-95v-286h-64v286h-67v54h67v22q0 103 69 134l95 18v-33q-58 -13 -79 -42t-21 -87z" />
    <glyph glyph-name="g.superior" horiz-adv-x="373" 
d="M178 698q43 0 79 -21q34 47 89 47v-54q-32 0 -56 -20q27 -32 27 -68q0 -80 -103 -107q-16 -4 -43.5 -9t-35.5 -7q-31 -7 -31 -21t40 -22q14 -3 58 -9.5t58 -9.5q80 -16 80 -84q0 -54 -51 -91t-125 -37q-61 0 -97 30t-36 72q0 55 62 87q-56 19 -56 52q0 35 75 62
q-68 32 -68 93q0 49 38 83t96 34zM233 349q-12 3 -48 8t-54 8q-51 -25 -51 -66q0 -26 24 -44.5t65 -18.5q47 0 77.5 21t30.5 49q0 34 -44 43zM100 577q0 -44 50 -67q6 -3 17 -3t21 3q68 15 68 68q0 29 -22 49.5t-58 20.5q-33 0 -54.5 -20t-21.5 -51z" />
    <glyph glyph-name="h.superior" horiz-adv-x="409" 
d="M60 350v500l63 14v-232q54 65 122 65q53 0 81.5 -29t28.5 -85v-233h-64v212q0 40 -16 58.5t-51 18.5q-50 0 -81 -42q-20 -26 -20 -62v-185h-63z" />
    <glyph glyph-name="i.superior" horiz-adv-x="182" 
d="M60 683l63 13v-346h-63v333zM91 857q18 0 29 -11.5t11 -29.5t-11 -29t-28 -11q-19 0 -30 10.5t-11 29.5q0 18 11 29.5t29 11.5z" />
    <glyph glyph-name="j.superior" horiz-adv-x="182" 
d="M59 683l63 13v-357q0 -93 -35 -131l-89 -23l-4 10q35 22 50 55t15 89v344zM90 857q18 0 29.5 -11.5t11.5 -29.5t-11.5 -29t-28.5 -11q-19 0 -30 10.5t-11 29.5q0 18 11.5 29.5t28.5 11.5z" />
    <glyph glyph-name="k.superior" horiz-adv-x="379" 
d="M123 864v-324l145 150h86l-159 -155l201 -185h-91l-182 178v-178h-63v500z" />
    <glyph glyph-name="l.superior" horiz-adv-x="183" 
d="M123 864v-514h-63v500z" />
    <glyph glyph-name="m.superior" horiz-adv-x="596" 
d="M480 350v215q0 35 -16.5 54.5t-45.5 19.5q-46 0 -74 -43q-10 -18 -11 -39v-207h-63v215q0 35 -16.5 54.5t-45.5 19.5q-48 0 -74 -44q-11 -17 -11 -45v-200h-63v340h63v-50q35 57 102 57q74 0 99 -66q40 66 111 66q53 0 80.5 -31.5t27.5 -85.5v-230h-63z" />
    <glyph glyph-name="p.superior" horiz-adv-x="414" 
d="M60 690h63v-10q41 19 86 19q75 0 123.5 -47.5t48.5 -128.5q0 -84 -48.5 -134.5t-132.5 -50.5q-45 0 -77 18v-157l-63 -14v505zM196 647q-47 0 -73 -19v-221q28 -20 71 -20q56 0 88.5 36t32.5 97q0 58 -32 92.5t-87 34.5z" />
    <glyph glyph-name="q.superior" horiz-adv-x="418" 
d="M358 693v-493l-63 -15v182q-41 -28 -98 -28q-75 0 -120 48t-45 129q0 85 50.5 135.5t133.5 50.5q45 0 84 -15zM212 393q55 0 83 25v218q-30 14 -71 14q-59 0 -92 -35.5t-33 -96.5q0 -58 29.5 -91.5t83.5 -33.5z" />
    <glyph glyph-name="r.superior" horiz-adv-x="263" 
d="M254 693v-66h-11q-54 0 -91 -23q-29 -18 -29 -62v-192h-63v340h63v-58q43 62 114 62q11 0 17 -1z" />
    <glyph glyph-name="s.superior" horiz-adv-x="308" 
d="M35 372l4 62q45 -47 112 -47q66 0 66 48q0 27 -29 43q-15 8 -46.5 19.5t-43.5 17.5q-34 17 -47.5 38t-13.5 53q0 41 30.5 68.5t81.5 27.5q61 0 112 -31l-15 -59q-40 40 -95 40q-27 0 -41 -12t-14 -31q0 -28 32 -44q9 -4 39.5 -15.5t43.5 -18.5q65 -31 65 -94
q0 -45 -33.5 -72t-92.5 -27q-69 0 -115 34z" />
    <glyph glyph-name="t.superior" horiz-adv-x="251" 
d="M12 690h65v103l63 13v-116h101v-54h-101v-171q0 -48 11 -68.5t46 -39.5v-6l-72 -8q-25 13 -36.5 38t-11.5 77v178h-65v54z" />
    <glyph glyph-name="u.superior" horiz-adv-x="405" 
d="M54 690h63v-216q0 -73 68 -73q52 0 88 54q10 18 10 38v197h63v-334l-63 -15v67q-49 -66 -120 -66q-109 0 -109 118v230z" />
    <glyph glyph-name="v.superior" horiz-adv-x="346" 
d="M5 690h69l91 -269l107 269h69l-147 -340h-62z" />
    <glyph glyph-name="w.superior" horiz-adv-x="547" 
d="M245 690h58l69 -270l103 270h67l-143 -340h-60l-68 249l-83 -249h-61l-122 340h67l85 -269z" />
    <glyph glyph-name="x.superior" horiz-adv-x="381" 
d="M362 690l-139 -163l141 -177h-76l-101 132l-109 -132h-75l149 173l-132 167h81l89 -123l97 123h75z" />
    <glyph glyph-name="y.superior" horiz-adv-x="354" 
d="M43 188q61 71 102 165l-140 337h69l102 -262l106 262h66l-149 -349q-46 -107 -81 -156h-75v3z" />
    <glyph glyph-name="z.superior" horiz-adv-x="363" 
d="M329 350h-318l224 283h-195l6 57h301l-226 -283h217z" />
    <glyph glyph-name="zero.numerator" horiz-adv-x="375" 
d="M187 350q-68 0 -109 54t-41 152t41 152t109 54t109.5 -54t41.5 -152q0 -97 -41.5 -151.5t-109.5 -54.5zM187 405q41 0 64 39t23 112t-23 112t-64 39q-40 0 -63 -39t-23 -112q0 -72 23 -111.5t63 -39.5z" />
    <glyph glyph-name="one.numerator" horiz-adv-x="264" 
d="M171 360h-64v338l-90 -3l9 57h145v-392z" />
    <glyph glyph-name="two.numerator" horiz-adv-x="348" 
d="M220 498q-45 -45 -99 -82h190l-7 -56h-269v49q68 46 132 113q61 64 61 120q0 27 -18 44t-51 17q-57 0 -111 -43l10 72q40 30 110 30q61 0 93.5 -31t32.5 -79q0 -79 -74 -154z" />
    <glyph glyph-name="three.numerator" horiz-adv-x="346" 
d="M284 664q0 -30 -17.5 -54.5t-48.5 -36.5q84 -26 84 -102q0 -56 -42 -88.5t-110 -32.5q-72 0 -110 21l-3 64q46 -29 111 -29q42 0 66 18.5t24 47.5q0 30 -23.5 48t-65.5 18q-48 0 -85 -10l13 63q26 -2 50 -2q43 0 68 16.5t25 47.5q0 23 -19 38t-54 15q-55 0 -90 -23l14 64
q34 15 89 15q58 0 91 -27.5t33 -70.5z" />
    <glyph glyph-name="four.numerator" horiz-adv-x="360" 
d="M211 360v104h-205v33l194 255h70v-236h72v-52h-72v-104h-59zM71 516h140v182z" />
    <glyph glyph-name="five.numerator" horiz-adv-x="353" 
d="M305 752l-8 -53h-173l-10 -79q8 2 34 2q72 0 113 -35t41 -87q0 -73 -58 -113.5t-168 -40.5q-23 0 -35 2l8 60q19 -4 49 -4q68 0 104.5 25t36.5 66q0 34 -28 55.5t-81 21.5q-41 0 -77 -9l24 189h228z" />
    <glyph glyph-name="six.numerator" horiz-adv-x="354" 
d="M287 704q-79 -7 -127.5 -42t-64.5 -91q37 34 90 34q60 0 98 -33.5t38 -91.5q0 -55 -39 -92.5t-101 -37.5q-71 0 -109.5 43t-38.5 121q0 100 65.5 169.5t199.5 80.5zM178 560q-57 0 -92 -41v-8q0 -52 25.5 -79.5t73.5 -27.5q33 0 55.5 23t22.5 55q0 34 -24 56t-61 22z" />
    <glyph glyph-name="seven.numerator" horiz-adv-x="327" 
d="M86 360q51 159 136 336l-205 -4l24 60h264q-109 -244 -146 -392h-73z" />
    <glyph glyph-name="eight.numerator" horiz-adv-x="373" 
d="M332 464q0 -48 -39 -81t-109 -33q-68 0 -105 30t-37 81q0 70 79 99q-67 29 -67 96q0 43 37.5 74.5t92.5 31.5q59 0 93 -29.5t34 -72.5q0 -57 -64 -90q41 -13 63 -40.5t22 -65.5zM269 466q0 59 -95 77q-34 -9 -53 -31t-19 -48t22.5 -44t59.5 -18q41 0 63 18t22 46z
M114 658q0 -29 17.5 -45.5t62.5 -29.5q58 23 58 71q0 24 -19 40.5t-49 16.5t-50 -15.5t-20 -37.5z" />
    <glyph glyph-name="nine.numerator" horiz-adv-x="359" 
d="M116 343l-39 49q135 51 170 130q-28 -17 -64 -17q-67 0 -108 34t-41 93q0 56 37 93t98 37q71 0 111 -43t40 -120q0 -175 -204 -256zM193 552q42 0 68 19q2 18 2 29q0 51 -25 80t-70 29q-34 0 -55.5 -22.5t-21.5 -56.5t28.5 -56t73.5 -22z" />
    <glyph glyph-name="zero.denominator" horiz-adv-x="375" 
d="M187 -10q-68 0 -109 54t-41 152t41 152t109 54t109.5 -54t41.5 -152q0 -97 -41.5 -151.5t-109.5 -54.5zM187 45q41 0 64 39t23 112t-23 112t-64 39q-40 0 -63 -39t-23 -112q0 -72 23 -111.5t63 -39.5z" />
    <glyph glyph-name="one.denominator" horiz-adv-x="264" 
d="M171 0h-64v338l-90 -3l9 57h145v-392z" />
    <glyph glyph-name="two.denominator" horiz-adv-x="348" 
d="M220 138q-45 -45 -99 -82h190l-7 -56h-269v49q68 46 132 113q61 64 61 120q0 27 -18 44t-51 17q-57 0 -111 -43l10 72q40 30 110 30q61 0 93.5 -31t32.5 -79q0 -79 -74 -154z" />
    <glyph glyph-name="three.denominator" horiz-adv-x="346" 
d="M284 304q0 -30 -17.5 -54.5t-48.5 -36.5q84 -26 84 -102q0 -56 -42 -88.5t-110 -32.5q-72 0 -110 21l-3 64q46 -29 111 -29q42 0 66 18.5t24 47.5q0 30 -23.5 48t-65.5 18q-48 0 -85 -10l13 63q26 -2 50 -2q43 0 68 16.5t25 47.5q0 23 -19 38t-54 15q-55 0 -90 -23l14 64
q35 15 89 15q58 0 91 -27.5t33 -70.5z" />
    <glyph glyph-name="four.denominator" horiz-adv-x="360" 
d="M211 0v104h-205v33l194 255h70v-236h72v-52h-72v-104h-59zM71 156h140v182z" />
    <glyph glyph-name="five.denominator" horiz-adv-x="353" 
d="M305 392l-8 -53h-173l-10 -79q8 2 34 2q72 0 113 -35t41 -87q0 -73 -58 -113.5t-168 -40.5q-23 0 -35 2l8 60q19 -4 49 -4q68 0 104.5 25t36.5 66q0 34 -28 55.5t-81 21.5q-41 0 -77 -9l24 189h228z" />
    <glyph glyph-name="six.denominator" horiz-adv-x="354" 
d="M287 344q-79 -7 -127.5 -42t-64.5 -91q37 34 90 34q60 0 98 -33.5t38 -91.5q0 -55 -39 -92.5t-101 -37.5q-71 0 -109.5 43t-38.5 121q0 100 65.5 169.5t199.5 80.5zM178 200q-57 0 -92 -41v-8q0 -52 25.5 -79.5t73.5 -27.5q33 0 55.5 23t22.5 55q0 34 -24 56t-61 22z" />
    <glyph glyph-name="seven.denominator" horiz-adv-x="327" 
d="M86 0q51 159 136 336l-205 -4l24 60h264q-109 -244 -146 -392h-73z" />
    <glyph glyph-name="eight.denominator" horiz-adv-x="373" 
d="M332 104q0 -48 -39 -81t-109 -33q-68 0 -105 30t-37 81q0 70 79 99q-67 29 -67 96q0 43 37.5 74.5t92.5 31.5q59 0 93 -29.5t34 -72.5q0 -57 -64 -90q41 -13 63 -40.5t22 -65.5zM269 106q0 59 -95 77q-34 -9 -53 -31t-19 -48t22.5 -44t59.5 -18q41 0 63 18t22 46z
M114 298q0 -29 17.5 -45.5t62.5 -29.5q58 23 58 71q0 24 -19 40.5t-49 16.5t-50 -15.5t-20 -37.5z" />
    <glyph glyph-name="nine.denominator" horiz-adv-x="359" 
d="M116 -17l-39 49q135 51 170 130q-28 -17 -64 -17q-67 0 -108 34t-41 93q0 56 37 93t98 37q71 0 111 -43t40 -120q0 -175 -204 -256zM193 192q42 0 68 19q2 18 2 29q0 51 -25 80t-70 29q-34 0 -55.5 -22.5t-21.5 -56.5t28.5 -56t73.5 -22z" />
    <glyph glyph-name="zero.scprop" horiz-adv-x="553" 
d="M276 -15q-100 0 -160 71.5t-60 202.5t60 201.5t160 70.5q101 0 161 -70.5t60 -201.5t-60 -202.5t-161 -71.5zM276 54q63 0 99 53.5t36 151.5q0 99 -36 151t-99 52t-98.5 -52t-35.5 -151q0 -98 36 -151.5t98 -53.5z" />
    <glyph glyph-name="one.scprop" horiz-adv-x="318" 
d="M220 0h-84v442l-104 -4l11 80h177v-518z" />
    <glyph glyph-name="two.scprop" horiz-adv-x="492" 
d="M298 184q-55 -55 -126 -109h258l-8 -75h-365v64q89 67 177 151q48 48 66.5 82.5t18.5 72.5t-26.5 63t-72.5 25q-83 0 -153 -53l15 90q63 37 155 37q79 0 122 -42t43 -106q0 -51 -24 -98t-80 -102z" />
    <glyph glyph-name="three.scprop" horiz-adv-x="474" 
d="M384 399q0 -42 -23 -75t-66 -48q107 -36 107 -135q0 -70 -53 -112.5t-139 -42.5q-97 0 -147 27l-3 77q59 -34 138 -34q56 0 88.5 25.5t32.5 65.5q0 39 -31.5 63.5t-87.5 24.5q-67 0 -112 -9l14 75q19 -3 68 -3q61 0 96 22.5t35 64.5q0 33 -25 54.5t-69 21.5
q-76 0 -129 -34l17 83q51 21 128 21q76 0 118.5 -37t42.5 -95z" />
    <glyph glyph-name="four.scprop" horiz-adv-x="528" 
d="M310 0v134h-280v43l266 341h91v-316h85v-68h-85v-134h-77zM117 202h193v248z" />
    <glyph glyph-name="five.scprop" horiz-adv-x="463" 
d="M383 518l-10 -65h-203l-15 -119q20 2 42 2q94 0 146 -45t52 -115q0 -103 -80.5 -156.5t-235.5 -53.5q-19 0 -27 1l10 75q21 -3 50 -3q97 0 150 35.5t53 97.5q0 45 -37.5 74t-104.5 29q-49 0 -99 -8l30 251h279z" />
    <glyph glyph-name="six.scprop" horiz-adv-x="521" 
d="M405 475q-104 -7 -170.5 -55.5t-90.5 -125.5q53 42 127 42q83 0 134.5 -46.5t51.5 -124.5q0 -75 -55 -127t-142 -52q-100 0 -153 58t-53 161q0 89 38 163.5t122 126t203 58.5zM253 279q-71 0 -122 -46q-1 -10 -1 -30q0 -72 34.5 -111t96.5 -39q47 0 80 32.5t33 80.5
q0 50 -34 81.5t-87 31.5z" />
    <glyph glyph-name="seven.scprop" horiz-adv-x="439" 
d="M49 518h356q-140 -313 -181 -518h-93q59 216 174 447l-285 -4z" />
    <glyph glyph-name="eight.scprop" horiz-adv-x="519" 
d="M450 137q0 -65 -50 -107.5t-138 -42.5q-94 0 -143.5 40t-49.5 107q0 87 112 127q-92 41 -92 130q0 59 49.5 99.5t123.5 40.5q78 0 123 -38.5t45 -97.5q0 -82 -90 -125q110 -41 110 -133zM371 142q0 38 -27 61t-89 38q-52 -12 -80.5 -39t-28.5 -61q0 -39 29.5 -63
t86.5 -24q52 0 80.5 25t28.5 63zM166 387q0 -37 22.5 -58.5t81.5 -39.5q42 16 63.5 38t21.5 56q0 36 -25.5 59.5t-67.5 23.5t-69 -22.5t-27 -56.5z" />
    <glyph glyph-name="nine.scprop" horiz-adv-x="500" 
d="M182 -22l-57 59q164 68 213 176q-40 -26 -96 -26q-85 0 -137.5 46t-52.5 124q0 73 52 124t134 51q93 0 146.5 -56.5t53.5 -157.5q0 -228 -256 -340zM258 244q60 0 99 33q3 20 3 41q0 69 -32 106.5t-92 37.5q-45 0 -73.5 -29.5t-28.5 -75.5q0 -50 34.5 -81.5t89.5 -31.5z
" />
    <glyph glyph-name="zero.sctab" horiz-adv-x="479" 
d="M240 -15q-98 0 -156.5 71.5t-58.5 202.5t58.5 201.5t156.5 70.5q97 0 155.5 -70.5t58.5 -201.5t-58.5 -202.5t-155.5 -71.5zM240 54q60 0 94.5 53t34.5 152q0 98 -34.5 150.5t-94.5 52.5q-61 0 -95.5 -52t-34.5 -151t34.5 -152t95.5 -53z" />
    <glyph glyph-name="one.sctab" horiz-adv-x="479" 
d="M108 0v75h109v367l-104 -4l11 80h177v-443h106v-75h-299z" />
    <glyph glyph-name="two.sctab" horiz-adv-x="479" 
d="M292 184q-55 -55 -126 -109h258l-8 -75h-365v64q89 67 177 151q48 48 66.5 82.5t18.5 72.5t-26.5 63t-72.5 25q-83 0 -153 -53l15 90q63 37 155 37q79 0 122 -42t43 -106q0 -51 -24 -98t-80 -102z" />
    <glyph glyph-name="three.sctab" horiz-adv-x="479" 
d="M390 399q0 -42 -23 -75t-66 -48q107 -36 107 -135q0 -70 -53 -112.5t-139 -42.5q-97 0 -147 27l-3 77q60 -34 138 -34q56 0 88.5 25.5t32.5 65.5q0 39 -31.5 63.5t-87.5 24.5q-67 0 -112 -9l14 75q19 -3 68 -3q61 0 96 22.5t35 64.5q0 33 -25 54.5t-69 21.5
q-76 0 -129 -34l17 83q51 21 128 21q76 0 118.5 -37t42.5 -95z" />
    <glyph glyph-name="four.sctab" horiz-adv-x="479" 
d="M297 0v134h-280v43l266 341h91v-316h85v-68h-85v-134h-77zM104 202h193v248z" />
    <glyph glyph-name="five.sctab" horiz-adv-x="479" 
d="M399 518l-10 -65h-203l-15 -119q20 2 42 2q94 0 146 -45t52 -115q0 -103 -80.5 -156.5t-235.5 -53.5q-19 0 -27 1l10 75q21 -3 50 -3q97 0 150 35.5t53 97.5q0 45 -37.5 74t-104.5 29q-49 0 -99 -8l30 251h279z" />
    <glyph glyph-name="six.sctab" horiz-adv-x="479" 
d="M389 475q-104 -7 -170.5 -55.5t-90.5 -125.5q53 42 127 42q83 0 134.5 -46.5t51.5 -124.5q0 -75 -55 -127t-142 -52q-100 0 -153 58t-53 161q0 89 38 163.5t122 126t203 58.5zM237 279q-71 0 -122 -46q-1 -10 -1 -30q0 -72 34.5 -111t96.5 -39q47 0 80 32.5t33 80.5
q0 50 -34 81.5t-87 31.5z" />
    <glyph glyph-name="seven.sctab" horiz-adv-x="479" 
d="M63 518h362q-142 -320 -181 -518h-93q56 207 174 447l-291 -4z" />
    <glyph glyph-name="eight.sctab" horiz-adv-x="479" 
d="M430 137q0 -65 -50 -107.5t-138 -42.5q-94 0 -143.5 40t-49.5 107q0 87 112 127q-92 41 -92 130q0 59 49.5 99.5t123.5 40.5q78 0 123 -38.5t45 -97.5q0 -82 -90 -125q110 -41 110 -133zM351 142q0 38 -27 61t-89 38q-52 -12 -80.5 -39t-28.5 -61q0 -39 29.5 -63
t86.5 -24q52 0 80.5 25t28.5 63zM146 387q0 -37 22.5 -58.5t81.5 -39.5q42 16 63.5 38t21.5 56q0 36 -25.5 59.5t-67.5 23.5t-69 -22.5t-27 -56.5z" />
    <glyph glyph-name="nine.sctab" horiz-adv-x="479" 
d="M173 -22l-57 59q164 68 213 176q-40 -26 -96 -26q-85 0 -137.5 46t-52.5 124q0 73 52 124t134 51q93 0 146.5 -56.5t53.5 -157.5q0 -228 -256 -340zM249 244q60 0 99 33q3 20 3 41q0 69 -32 106.5t-92 37.5q-45 0 -73.5 -29.5t-28.5 -75.5q0 -50 34.5 -81.5t89.5 -31.5z
" />
    <glyph glyph-name="a.sc" horiz-adv-x="561" 
d="M468 0l-74 173h-222l-79 -173h-89l243 513l76 12l234 -525h-89zM287 429l-89 -192h172z" />
    <glyph glyph-name="b.sc" horiz-adv-x="514" 
d="M351 280q107 -30 107 -133q0 -67 -52 -107t-141 -40h-172v518h174q80 0 122.5 -35t42.5 -91q0 -36 -21.5 -66.5t-59.5 -45.5zM177 241v-174h82q53 0 83 24t30 61q0 39 -29 64t-81 25h-85zM177 453v-152h85q40 0 64 24t24 57q0 31 -24 51t-67 20h-82z" />
    <glyph glyph-name="c.sc" horiz-adv-x="538" 
d="M492 132l-11 -102q-66 -43 -161 -43q-120 0 -197 74.5t-77 196.5q0 120 75 196.5t192 76.5q103 0 172 -41l-12 -90h-3q-48 53 -151 53q-84 0 -135.5 -54t-51.5 -141q0 -89 55.5 -141t141.5 -52q93 0 160 67h3z" />
    <glyph glyph-name="d.sc" horiz-adv-x="589" 
d="M253 0h-160v518h162q137 0 212.5 -68.5t75.5 -180.5q0 -131 -74 -200t-216 -69zM177 452v-384h72q101 0 154.5 50.5t53.5 148.5q0 80 -54.5 132.5t-151.5 52.5h-74z" />
    <glyph glyph-name="e.sc" horiz-adv-x="474" 
d="M177 444v-137h206v-74h-206v-159h237v-74h-321v518h311v-74h-227z" />
    <glyph glyph-name="f.sc" horiz-adv-x="440" 
d="M174 440v-149h208v-78h-208v-213h-81v518h320v-78h-239z" />
    <glyph glyph-name="g.sc" horiz-adv-x="577" 
d="M517 254v-186q-81 -81 -204 -81q-118 0 -192.5 75t-74.5 198q0 117 74.5 194t197.5 77q106 0 181 -51l-16 -86h-3q-62 63 -160 63q-87 0 -138 -55.5t-51 -142.5q0 -92 52.5 -145.5t136.5 -53.5q68 0 113 43v151h84z" />
    <glyph glyph-name="h.sc" horiz-adv-x="630" 
d="M177 0h-84v518h84v-207h276v207h83v-518h-83v236h-276v-236z" />
    <glyph glyph-name="i.sc" horiz-adv-x="270" 
d="M177 0h-84v518h84v-518z" />
    <glyph glyph-name="j.sc" horiz-adv-x="270" 
d="M95 518h84v-397q0 -113 -18 -178t-61 -108l-131 -36l-4 11q74 43 102 107.5t28 197.5v403z" />
    <glyph glyph-name="k.sc" horiz-adv-x="591" 
d="M177 0h-84v518h84v-243l261 243h116l-281 -250l311 -268h-120l-287 257v-257z" />
    <glyph glyph-name="l.sc" horiz-adv-x="465" 
d="M93 0v518h84v-443h278v-75h-362z" />
    <glyph glyph-name="m.sc" horiz-adv-x="780" 
d="M687 0h-75v387l-202 -387h-46l-196 384v-384h-75v518h88l207 -404l211 404h88v-518z" />
    <glyph glyph-name="n.sc" horiz-adv-x="681" 
d="M93 518h77l337 -397v397h80v-518h-73l-340 401v-401h-81v518z" />
    <glyph glyph-name="o.sc" horiz-adv-x="617" 
d="M486 256q0 88 -50.5 145.5t-127.5 57.5t-127 -57t-50 -146q0 -86 50 -142t127 -56q78 0 128 56t50 142zM571 256q0 -119 -73.5 -195t-189.5 -76t-189 76t-73 195q0 122 73 198.5t189 76.5q117 0 190 -76.5t73 -198.5z" />
    <glyph glyph-name="p.sc" horiz-adv-x="479" 
d="M177 0h-84v518h148q99 0 153 -40.5t54 -118.5q0 -86 -56 -130t-162 -44h-53v-185zM177 454v-201h57q128 0 128 106q0 46 -34 70.5t-98 24.5h-53z" />
    <glyph glyph-name="q.sc" horiz-adv-x="598" 
d="M299 -1q-32 0 -57 7v-2q76 -37 132.5 -55t126.5 -21l-27 -78q-58 6 -115.5 27t-146.5 69q-33 18 -75 34l35 56q-57 36 -91.5 98t-34.5 136q0 112 72 186.5t181 74.5t181 -74t72 -187q0 -117 -72 -194t-181 -77zM467 270q0 82 -47.5 135.5t-120.5 53.5q-74 0 -121 -53.5
t-47 -135.5q0 -83 48.5 -140.5t119.5 -57.5q74 0 121 55.5t47 142.5z" />
    <glyph glyph-name="r.sc" horiz-adv-x="531" 
d="M93 0v518h180q86 0 131.5 -37.5t45.5 -110.5q0 -112 -113 -149l185 -221h-107l-159 206q-17 -2 -52 -2h-27v-204h-84zM177 453v-191h23q84 0 125 24.5t41 79.5q0 42 -28 64.5t-81 22.5h-80z" />
    <glyph glyph-name="s.sc" horiz-adv-x="457" 
d="M54 115q72 -56 167 -56q48 0 75 20.5t27 55.5q0 33 -24.5 55t-85.5 43q-81 27 -116 63.5t-35 95.5q0 60 46 99.5t121 39.5q81 0 143 -28v-88q-68 48 -140 48q-44 0 -67 -19t-23 -49t22.5 -49.5t82.5 -41.5q84 -31 120 -69t36 -96q0 -73 -52 -112.5t-138 -39.5
q-96 0 -150 30z" />
    <glyph glyph-name="t.sc" horiz-adv-x="495" 
d="M290 0h-84v443h-194v75h472v-75h-194v-443z" />
    <glyph glyph-name="u.sc" horiz-adv-x="605" 
d="M87 518h84v-315q0 -70 36.5 -105.5t94.5 -35.5t95 35.5t37 105.5v315h84v-315q0 -108 -60.5 -163t-155.5 -55q-94 0 -154.5 55t-60.5 163v315z" />
    <glyph glyph-name="v.sc" horiz-adv-x="561" 
d="M9 518h92l175 -418l185 418h92l-243 -518h-70z" />
    <glyph glyph-name="w.sc" horiz-adv-x="792" 
d="M497 0l-103 264l-109 -264h-69l-207 518h90l154 -410l103 253l-60 157h88l149 -411l162 411h88l-216 -518h-70z" />
    <glyph glyph-name="x.sc" horiz-adv-x="596" 
d="M5 0l238 276l-197 242h104l143 -187l149 187h104l-204 -242l234 -276h-104l-180 222l-183 -222h-104z" />
    <glyph glyph-name="y.sc" horiz-adv-x="548" 
d="M544 518l-235 -299v-219h-83v221l-222 297h100l164 -230l174 230h102z" />
    <glyph glyph-name="z.sc" horiz-adv-x="548" 
d="M510 0h-496l351 441h-319l8 77h463l-353 -441h359z" />
    <glyph glyph-name="agrave.sc" horiz-adv-x="561" 
d="M468 0l-74 173h-222l-79 -173h-89l243 513l76 12l234 -525h-89zM287 429l-89 -192h172zM296 610l-134 162h97l80 -162h-43z" />
    <glyph glyph-name="aacute.sc" horiz-adv-x="561" 
d="M468 0l-74 173h-222l-79 -173h-89l243 513l76 12l234 -525h-89zM287 429l-89 -192h172zM413 772l-134 -162h-43l80 162h97z" />
    <glyph glyph-name="acircumflex.sc" horiz-adv-x="561" 
d="M468 0l-74 173h-222l-79 -173h-89l243 513l76 12l234 -525h-89zM287 429l-89 -192h172zM372 610l-85 93l-83 -93h-48l105 162h54l105 -162h-48z" />
    <glyph glyph-name="atilde.sc" horiz-adv-x="561" 
d="M468 0l-74 173h-222l-79 -173h-89l243 513l76 12l234 -525h-89zM287 429l-89 -192h172zM231 672q-21 0 -35 -15t-16 -38l-35 7q5 54 30 85.5t60 31.5q23 0 65 -17t57 -17q21 0 34.5 15t16.5 39l35 -8q-6 -55 -30.5 -86t-59.5 -31q-23 0 -65 17t-57 17z" />
    <glyph glyph-name="adieresis.sc" horiz-adv-x="561" 
d="M468 0l-74 173h-222l-79 -173h-89l243 513l76 12l234 -525h-89zM287 429l-89 -192h172zM196 737q22 0 36 -14t14 -36t-13.5 -35.5t-35.5 -13.5q-23 0 -36.5 13t-13.5 36t13.5 36.5t35.5 13.5zM378 737q22 0 36 -13.5t14 -36.5q0 -22 -13.5 -35.5t-35.5 -13.5
q-23 0 -36.5 13t-13.5 36q0 22 13.5 36t35.5 14z" />
    <glyph glyph-name="amacron.sc" horiz-adv-x="561" 
d="M468 0l-74 173h-222l-79 -173h-89l243 513l76 12l234 -525h-89zM287 429l-89 -192h172zM421 719v-64h-267v64h267z" />
    <glyph glyph-name="abreve.sc" horiz-adv-x="561" 
d="M468 0l-74 173h-222l-79 -173h-89l243 513l76 12l234 -525h-89zM287 429l-89 -192h172zM288 679q80 0 80 86h43q0 -66 -29.5 -107t-93.5 -41q-124 0 -124 148h43q0 -86 81 -86z" />
    <glyph glyph-name="aring.sc" horiz-adv-x="561" 
d="M468 0l-74 173h-222l-79 -173h-89l243 513l76 12l234 -525h-89zM287 429l-89 -192h172zM188 696q0 41 29 70.5t70 29.5t70.5 -29.5t29.5 -70.5t-29.5 -70t-70.5 -29t-70 29.5t-29 69.5zM231 696q0 -23 16.5 -39.5t39.5 -16.5q24 0 40.5 16.5t16.5 39.5q0 24 -16.5 40.5
t-40.5 16.5q-23 0 -39.5 -16.5t-16.5 -40.5z" />
    <glyph glyph-name="aogonek.sc" horiz-adv-x="561" 
d="M369 -150q0 35 21 67t78 83l-74 173h-222l-79 -173h-89l243 513l76 12l234 -525q-68 -42 -92 -74t-24 -65q0 -16 10.5 -26.5t29.5 -10.5q38 0 63 29h3l-6 -71q-29 -19 -75 -19q-45 0 -71 22.5t-26 64.5zM287 429l-89 -192h172z" />
    <glyph glyph-name="ae.sc" horiz-adv-x="721" 
d="M424 450v-146h206v-68h-206v-168h237v-68h-320v168h-174l-97 -168h-91l302 518h370v-68h-227zM330 450l-127 -219h138v219h-11z" />
    <glyph glyph-name="cacute.sc" horiz-adv-x="538" 
d="M492 132l-11 -102q-66 -43 -161 -43q-120 0 -197 74.5t-77 196.5q0 120 75 196.5t192 76.5q103 0 172 -41l-12 -90h-3q-48 53 -151 53q-84 0 -135.5 -54t-51.5 -141q0 -89 55.5 -141t141.5 -52q93 0 160 67h3zM424 772l-134 -162h-43l80 162h97z" />
    <glyph glyph-name="ccircumflex.sc" horiz-adv-x="538" 
d="M492 132l-11 -102q-66 -43 -161 -43q-120 0 -197 74.5t-77 196.5q0 120 75 196.5t192 76.5q103 0 172 -41l-12 -90h-3q-48 53 -151 53q-84 0 -135.5 -54t-51.5 -141q0 -89 55.5 -141t141.5 -52q93 0 160 67h3zM383 610l-85 93l-83 -93h-48l105 162h54l105 -162h-48z" />
    <glyph glyph-name="ccaron.sc" horiz-adv-x="538" 
d="M492 132l-11 -102q-66 -43 -161 -43q-120 0 -197 74.5t-77 196.5q0 120 75 196.5t192 76.5q103 0 172 -41l-12 -90h-3q-48 53 -151 53q-84 0 -135.5 -54t-51.5 -141q0 -89 55.5 -141t141.5 -52q93 0 160 67h3zM167 772h48l84 -94l84 94h48l-105 -162h-54z" />
    <glyph glyph-name="ccedilla.sc" horiz-adv-x="538" 
d="M492 132l-11 -102q-60 -40 -153 -43l-23 -45q10 2 22 2q39 0 62 -20.5t23 -54.5q0 -39 -31.5 -64.5t-80.5 -25.5q-52 0 -81 23l5 53q22 -28 71 -28q28 0 42 11t14 28q0 39 -56 39q-25 0 -45 -5l-2 2l40 87q-108 9 -175 82.5t-67 186.5q0 120 75 196.5t192 76.5
q103 0 172 -41l-12 -90h-3q-48 53 -151 53q-84 0 -135.5 -54t-51.5 -141q0 -89 55.5 -141t141.5 -52q93 0 160 67h3z" />
    <glyph glyph-name="cdotaccent.sc" horiz-adv-x="538" 
d="M492 132l-11 -102q-66 -43 -161 -43q-120 0 -197 74.5t-77 196.5q0 120 75 196.5t192 76.5q103 0 172 -41l-12 -90h-3q-48 53 -151 53q-84 0 -135.5 -54t-51.5 -141q0 -89 55.5 -141t141.5 -52q93 0 160 67h3zM298 744q25 0 40 -15t15 -39t-15 -39t-39 -15
q-25 0 -39.5 14.5t-14.5 39.5q0 24 14.5 39t38.5 15z" />
    <glyph glyph-name="dcaron.sc" horiz-adv-x="589" 
d="M253 0h-160v518h162q137 0 212.5 -68.5t75.5 -180.5q0 -131 -74 -200t-216 -69zM177 452v-384h72q101 0 154.5 50.5t53.5 148.5q0 80 -54.5 132.5t-151.5 52.5h-74zM138 772h48l84 -94l84 94h48l-105 -162h-54z" />
    <glyph glyph-name="dcroat.sc" horiz-adv-x="589" 
d="M253 0h-160v238h-66v57h66v223h162q137 0 212.5 -68.5t75.5 -180.5q0 -131 -74 -200t-216 -69zM177 452v-157h114v-57h-114v-170h72q101 0 154.5 50.5t53.5 148.5q0 80 -54.5 132.5t-151.5 52.5h-74z" />
    <glyph glyph-name="eth.sc" horiz-adv-x="589" 
d="M253 0h-160v238h-66v57h66v223h162q137 0 212.5 -68.5t75.5 -180.5q0 -131 -74 -200t-216 -69zM177 452v-157h114v-57h-114v-170h72q101 0 154.5 50.5t53.5 148.5q0 80 -54.5 132.5t-151.5 52.5h-74z" />
    <glyph glyph-name="egrave.sc" horiz-adv-x="474" 
d="M177 444v-137h206v-74h-206v-159h237v-74h-321v518h311v-74h-227zM258 610l-134 162h97l80 -162h-43z" />
    <glyph glyph-name="eacute.sc" horiz-adv-x="474" 
d="M177 444v-137h206v-74h-206v-159h237v-74h-321v518h311v-74h-227zM375 772l-134 -162h-43l80 162h97z" />
    <glyph glyph-name="ecircumflex.sc" horiz-adv-x="474" 
d="M177 444v-137h206v-74h-206v-159h237v-74h-321v518h311v-74h-227zM334 610l-85 93l-83 -93h-48l105 162h54l105 -162h-48z" />
    <glyph glyph-name="edieresis.sc" horiz-adv-x="474" 
d="M177 444v-137h206v-74h-206v-159h237v-74h-321v518h311v-74h-227zM158 737q22 0 36 -14t14 -36t-13.5 -35.5t-35.5 -13.5q-23 0 -36.5 13t-13.5 36t13.5 36.5t35.5 13.5zM340 737q22 0 36 -13.5t14 -36.5q0 -22 -13.5 -35.5t-35.5 -13.5q-23 0 -36.5 13t-13.5 36
q0 22 13.5 36t35.5 14z" />
    <glyph glyph-name="emacron.sc" horiz-adv-x="474" 
d="M177 444v-137h206v-74h-206v-159h237v-74h-321v518h311v-74h-227zM383 719v-64h-267v64h267z" />
    <glyph glyph-name="ebreve.sc" horiz-adv-x="474" 
d="M177 444v-137h206v-74h-206v-159h237v-74h-321v518h311v-74h-227zM250 679q80 0 80 86h43q0 -66 -29.5 -107t-93.5 -41q-124 0 -124 148h43q0 -86 81 -86z" />
    <glyph glyph-name="edotaccent.sc" horiz-adv-x="474" 
d="M177 444v-137h206v-74h-206v-159h237v-74h-321v518h311v-74h-227zM248 744q25 0 40 -15t15 -39t-15 -39t-39 -15q-25 0 -39.5 14.5t-14.5 39.5q0 24 14.5 39t38.5 15z" />
    <glyph glyph-name="ecaron.sc" horiz-adv-x="474" 
d="M177 444v-137h206v-74h-206v-159h237v-74h-321v518h311v-74h-227zM118 772h48l84 -94l84 94h48l-105 -162h-54z" />
    <glyph glyph-name="eogonek.sc" horiz-adv-x="474" 
d="M332 0h-239v518h311v-74h-227v-137h206v-74h-206v-159h237v-74q-64 -44 -86 -75t-22 -64q0 -16 10 -26.5t29 -10.5q38 0 64 29h3l-6 -71q-31 -19 -76 -19t-71 23t-26 64q0 34 21.5 66.5t77.5 83.5z" />
    <glyph glyph-name="gcircumflex.sc" horiz-adv-x="577" 
d="M517 254v-186q-81 -81 -204 -81q-118 0 -192.5 75t-74.5 198q0 117 74.5 194t197.5 77q106 0 181 -51l-16 -86h-3q-62 63 -160 63q-87 0 -138 -55.5t-51 -142.5q0 -92 52.5 -145.5t136.5 -53.5q68 0 113 43v151h84zM388 610l-85 93l-83 -93h-48l105 162h54l105 -162h-48z
" />
    <glyph glyph-name="gbreve.sc" horiz-adv-x="577" 
d="M517 254v-186q-81 -81 -204 -81q-118 0 -192.5 75t-74.5 198q0 117 74.5 194t197.5 77q106 0 181 -51l-16 -86h-3q-62 63 -160 63q-87 0 -138 -55.5t-51 -142.5q0 -92 52.5 -145.5t136.5 -53.5q68 0 113 43v151h84zM304 679q80 0 80 86h43q0 -66 -29.5 -107t-93.5 -41
q-124 0 -124 148h43q0 -86 81 -86z" />
    <glyph glyph-name="gdotaccent.sc" horiz-adv-x="577" 
d="M517 254v-186q-81 -81 -204 -81q-118 0 -192.5 75t-74.5 198q0 117 74.5 194t197.5 77q106 0 181 -51l-16 -86h-3q-62 63 -160 63q-87 0 -138 -55.5t-51 -142.5q0 -92 52.5 -145.5t136.5 -53.5q68 0 113 43v151h84zM302 744q25 0 40 -15t15 -39t-15 -39t-39 -15
q-25 0 -39.5 14.5t-14.5 39.5q0 24 14.5 39t38.5 15z" />
    <glyph glyph-name="gcommaaccent.sc" horiz-adv-x="577" 
d="M517 254v-186q-81 -81 -204 -81q-118 0 -192.5 75t-74.5 198q0 117 74.5 194t197.5 77q106 0 181 -51l-16 -86h-3q-62 63 -160 63q-87 0 -138 -55.5t-51 -142.5q0 -92 52.5 -145.5t136.5 -53.5q68 0 113 43v151h84zM348 -63q13 -23 13 -54q0 -27 -18 -54.5t-65 -65.5h-49
q62 70 62 117q0 18 -13 40z" />
    <glyph glyph-name="hcircumflex.sc" horiz-adv-x="630" 
d="M177 0h-84v518h84v-207h276v207h83v-518h-83v236h-276v-236zM399 610l-85 93l-83 -93h-48l105 162h54l105 -162h-48z" />
    <glyph glyph-name="hbar.sc" horiz-adv-x="630" 
d="M177 0h-84v381h-66v56h66v81h84v-81h276v81h83v-81h67v-56h-67v-381h-83v236h-276v-236zM177 311h276v70h-276v-70z" />
    <glyph glyph-name="igrave.sc" horiz-adv-x="270" 
d="M177 0h-84v518h84v-518zM143 610l-134 162h97l80 -162h-43z" />
    <glyph glyph-name="iacute.sc" horiz-adv-x="270" 
d="M177 0h-84v518h84v-518zM260 772l-134 -162h-43l80 162h97z" />
    <glyph glyph-name="icircumflex.sc" horiz-adv-x="270" 
d="M177 0h-84v518h84v-518zM219 610l-85 93l-83 -93h-48l105 162h54l105 -162h-48z" />
    <glyph glyph-name="itilde.sc" horiz-adv-x="270" 
d="M88 666q-21 0 -35 -15t-16 -38l-35 7q5 54 30 85.5t60 31.5q19 0 54.5 -17t47.5 -17q21 0 34.5 15t16.5 39l35 -8q-6 -55 -30.5 -86t-59.5 -31q-19 0 -54.5 17t-47.5 17zM177 0h-84v518h84v-518z" />
    <glyph glyph-name="idieresis.sc" horiz-adv-x="270" 
d="M53 731q23 0 36.5 -13.5t13.5 -36.5q0 -22 -13.5 -35.5t-35.5 -13.5q-23 0 -36.5 13.5t-13.5 35.5t13.5 36t35.5 14zM215 731q23 0 36.5 -13.5t13.5 -36.5q0 -22 -13.5 -35.5t-35.5 -13.5t-35.5 13t-13.5 36t13 36.5t35 13.5zM177 0h-84v518h84v-518z" />
    <glyph glyph-name="imacron.sc" horiz-adv-x="270" 
d="M251 713v-64h-233v64h233zM177 0h-84v518h84v-518z" />
    <glyph glyph-name="ibreve.sc" horiz-adv-x="270" 
d="M177 0h-84v518h84v-518zM135 679q80 0 80 86h43q0 -66 -29.5 -107t-93.5 -41q-124 0 -124 148h43q0 -86 81 -86z" />
    <glyph glyph-name="idotaccent.sc" horiz-adv-x="270" 
d="M177 0h-84v518h84v-518zM134 744q25 0 40 -15t15 -39t-15 -39t-39 -15q-25 0 -39.5 14.5t-14.5 39.5q0 24 14.5 39t38.5 15z" />
    <glyph glyph-name="iogonek.sc" horiz-adv-x="270" 
d="M177 0q-48 -39 -65.5 -71t-17.5 -68q0 -16 9.5 -26.5t26.5 -10.5q41 0 66 28h3l-5 -70q-31 -19 -76 -19t-71 23t-26 64q0 34 15.5 66.5t56.5 83.5v518h84v-518z" />
    <glyph glyph-name="ij.sc" horiz-adv-x="514" 
d="M177 0h-84v518h84v-518zM338 518h84v-397q0 -113 -18 -178t-61 -108l-131 -36l-4 11q74 43 102 107.5t28 197.5v403z" />
    <glyph glyph-name="jcircumflex.sc" horiz-adv-x="262" 
d="M90 518h84v-397q0 -113 -18 -178t-61 -108l-131 -36l-4 11q74 43 102 107.5t28 197.5v403zM216 610l-85 93l-83 -93h-48l105 162h54l105 -162h-48z" />
    <glyph glyph-name="kcommaaccent.sc" horiz-adv-x="591" 
d="M177 0h-84v518h84v-243l261 243h116l-281 -250l311 -268h-120l-287 257v-257zM337 -63q13 -23 13 -54q0 -27 -18 -54.5t-65 -65.5h-49q62 70 62 117q0 18 -13 40z" />
    <glyph glyph-name="lacute.sc" horiz-adv-x="465" 
d="M93 0v518h84v-443h278v-75h-362zM293 772l-134 -162h-43l80 162h97z" />
    <glyph glyph-name="lcaron.sc" horiz-adv-x="465" 
d="M93 0v518h84v-443h278v-75h-362zM338 527q13 -27 13 -61q0 -56 -69 -133h-39q40 77 40 127q0 24 -12 50z" />
    <glyph glyph-name="lcommaaccent.sc" horiz-adv-x="465" 
d="M93 0v518h84v-443h278v-75h-362zM307 -63q13 -23 13 -54q0 -27 -18 -54.5t-65 -65.5h-49q62 70 62 117q0 18 -13 40z" />
    <glyph glyph-name="ldot.sc" horiz-adv-x="465" 
d="M93 0v518h84v-443h278v-75h-362zM364 380q25 0 40 -15t15 -39t-15 -39t-39 -15q-25 0 -39.5 14.5t-14.5 39.5q0 24 14.5 39t38.5 15z" />
    <glyph glyph-name="lslash.sc" horiz-adv-x="465" 
d="M93 0v200l-66 -43v75l66 43v243h84v-187l122 80v-74l-122 -81v-181h278v-75h-362z" />
    <glyph glyph-name="nacute.sc" horiz-adv-x="681" 
d="M93 518h77l337 -397v397h80v-518h-73l-340 401v-401h-81v518zM466 772l-134 -162h-43l80 162h97z" />
    <glyph glyph-name="ncaron.sc" horiz-adv-x="681" 
d="M93 518h77l337 -397v397h80v-518h-73l-340 401v-401h-81v518zM209 772h48l84 -94l84 94h48l-105 -162h-54z" />
    <glyph glyph-name="ntilde.sc" horiz-adv-x="681" 
d="M93 518h77l337 -397v397h80v-518h-73l-340 401v-401h-81v518zM284 672q-21 0 -35 -15t-16 -38l-35 7q5 54 30 85.5t60 31.5q23 0 65 -17t57 -17q21 0 34.5 15t16.5 39l35 -8q-6 -55 -30.5 -86t-59.5 -31q-23 0 -65 17t-57 17z" />
    <glyph glyph-name="ncommaaccent.sc" horiz-adv-x="681" 
d="M93 518h77l337 -397v397h80v-518h-73l-340 401v-401h-81v518zM375 -63q13 -23 13 -54q0 -27 -18 -54.5t-65 -65.5h-49q62 70 62 117q0 18 -13 40z" />
    <glyph glyph-name="eng.sc" horiz-adv-x="681" 
d="M587 518v-580q0 -82 -39 -128.5t-109 -46.5q-40 0 -74 17l-8 79q26 -25 71 -25q37 0 58 28t21 81v64l-333 397v-404h-81v518h77l337 -401v401h80z" />
    <glyph glyph-name="ograve.sc" horiz-adv-x="617" 
d="M486 256q0 88 -50.5 145.5t-127.5 57.5t-127 -57t-50 -146q0 -86 50 -142t127 -56q78 0 128 56t50 142zM571 256q0 -119 -73.5 -195t-189.5 -76t-189 76t-73 195q0 122 73 198.5t189 76.5q117 0 190 -76.5t73 -198.5zM317 610l-134 162h97l80 -162h-43z" />
    <glyph glyph-name="oacute.sc" horiz-adv-x="617" 
d="M486 256q0 88 -50.5 145.5t-127.5 57.5t-127 -57t-50 -146q0 -86 50 -142t127 -56q78 0 128 56t50 142zM571 256q0 -119 -73.5 -195t-189.5 -76t-189 76t-73 195q0 122 73 198.5t189 76.5q117 0 190 -76.5t73 -198.5zM434 772l-134 -162h-43l80 162h97z" />
    <glyph glyph-name="ocircumflex.sc" horiz-adv-x="617" 
d="M486 256q0 88 -50.5 145.5t-127.5 57.5t-127 -57t-50 -146q0 -86 50 -142t127 -56q78 0 128 56t50 142zM571 256q0 -119 -73.5 -195t-189.5 -76t-189 76t-73 195q0 122 73 198.5t189 76.5q117 0 190 -76.5t73 -198.5zM393 610l-85 93l-83 -93h-48l105 162h54l105 -162
h-48z" />
    <glyph glyph-name="otilde.sc" horiz-adv-x="617" 
d="M486 256q0 88 -50.5 145.5t-127.5 57.5t-127 -57t-50 -146q0 -86 50 -142t127 -56q78 0 128 56t50 142zM571 256q0 -119 -73.5 -195t-189.5 -76t-189 76t-73 195q0 122 73 198.5t189 76.5q117 0 190 -76.5t73 -198.5zM252 672q-21 0 -35 -15t-16 -38l-35 7q5 54 30 85.5
t60 31.5q23 0 65 -17t57 -17q21 0 34.5 15t16.5 39l35 -8q-6 -55 -30.5 -86t-59.5 -31q-23 0 -65 17t-57 17z" />
    <glyph glyph-name="odieresis.sc" horiz-adv-x="617" 
d="M486 256q0 88 -50.5 145.5t-127.5 57.5t-127 -57t-50 -146q0 -86 50 -142t127 -56q78 0 128 56t50 142zM571 256q0 -119 -73.5 -195t-189.5 -76t-189 76t-73 195q0 122 73 198.5t189 76.5q117 0 190 -76.5t73 -198.5zM217 737q22 0 36 -14t14 -36t-13.5 -35.5
t-35.5 -13.5q-23 0 -36.5 13t-13.5 36t13.5 36.5t35.5 13.5zM399 737q23 0 36.5 -13.5t13.5 -36.5q0 -22 -13.5 -35.5t-35.5 -13.5q-23 0 -36.5 13t-13.5 36q0 22 13.5 36t35.5 14z" />
    <glyph glyph-name="omacron.sc" horiz-adv-x="617" 
d="M486 256q0 88 -50.5 145.5t-127.5 57.5t-127 -57t-50 -146q0 -86 50 -142t127 -56q78 0 128 56t50 142zM571 256q0 -119 -73.5 -195t-189.5 -76t-189 76t-73 195q0 122 73 198.5t189 76.5q117 0 190 -76.5t73 -198.5zM442 719v-64h-267v64h267z" />
    <glyph glyph-name="obreve.sc" horiz-adv-x="617" 
d="M486 256q0 88 -50.5 145.5t-127.5 57.5t-127 -57t-50 -146q0 -86 50 -142t127 -56q78 0 128 56t50 142zM571 256q0 -119 -73.5 -195t-189.5 -76t-189 76t-73 195q0 122 73 198.5t189 76.5q117 0 190 -76.5t73 -198.5zM309 679q80 0 80 86h43q0 -66 -29.5 -107t-93.5 -41
q-124 0 -124 148h43q0 -86 81 -86z" />
    <glyph glyph-name="ohungarumlaut.sc" horiz-adv-x="617" 
d="M486 256q0 88 -50.5 145.5t-127.5 57.5t-127 -57t-50 -146q0 -86 50 -142t127 -56q78 0 128 56t50 142zM571 256q0 -119 -73.5 -195t-189.5 -76t-189 76t-73 195q0 122 73 198.5t189 76.5q117 0 190 -76.5t73 -198.5zM275 772h92l-116 -162h-41zM404 772h92l-116 -162
h-41z" />
    <glyph glyph-name="oslash.sc" horiz-adv-x="617" 
d="M571 256q0 -119 -73.5 -195t-189.5 -76q-78 0 -139 36l-22 -27l-57 17l34 44q-78 78 -78 201q0 122 73 198.5t189 76.5q82 0 145 -40l28 37l57 -18l-42 -54q75 -77 75 -200zM131 256q0 -82 44 -135l232 307q-43 31 -99 31q-77 0 -127 -57t-50 -146zM486 256q0 79 -41 134
l-230 -305q39 -27 93 -27q78 0 128 56t50 142z" />
    <glyph glyph-name="oe.sc" horiz-adv-x="757" 
d="M460 450v-146h206v-68h-206v-168h237v-68h-378q-120 0 -196.5 72t-76.5 187q0 114 76.5 186.5t196.5 72.5h368v-68h-227zM132 259q0 -85 54.5 -138t142.5 -53h47v382h-47q-88 0 -142.5 -52.5t-54.5 -138.5z" />
    <glyph glyph-name="racute.sc" horiz-adv-x="531" 
d="M93 0v518h180q86 0 131.5 -37.5t45.5 -110.5q0 -112 -113 -149l185 -221h-107l-159 206q-17 -2 -52 -2h-27v-204h-84zM177 453v-191h23q84 0 125 24.5t41 79.5q0 42 -28 64.5t-81 22.5h-80zM386 772l-134 -162h-43l80 162h97z" />
    <glyph glyph-name="rcaron.sc" horiz-adv-x="531" 
d="M93 0v518h180q86 0 131.5 -37.5t45.5 -110.5q0 -112 -113 -149l185 -221h-107l-159 206q-17 -2 -52 -2h-27v-204h-84zM177 453v-191h23q84 0 125 24.5t41 79.5q0 42 -28 64.5t-81 22.5h-80zM128 772h48l84 -94l84 94h48l-105 -162h-54z" />
    <glyph glyph-name="rcommaaccent.sc" horiz-adv-x="531" 
d="M93 0v518h180q86 0 131.5 -37.5t45.5 -110.5q0 -112 -113 -149l185 -221h-107l-159 206q-17 -2 -52 -2h-27v-204h-84zM177 453v-191h23q84 0 125 24.5t41 79.5q0 42 -28 64.5t-81 22.5h-80zM311 -63q13 -23 13 -54q0 -27 -18 -54.5t-65 -65.5h-49q62 70 62 117
q0 18 -13 40z" />
    <glyph glyph-name="sacute.sc" horiz-adv-x="457" 
d="M54 115q72 -56 167 -56q48 0 75 20.5t27 55.5q0 33 -24.5 55t-85.5 43q-81 27 -116 63.5t-35 95.5q0 60 46 99.5t121 39.5q81 0 143 -28v-88q-68 48 -140 48q-44 0 -67 -19t-23 -49t22.5 -49.5t82.5 -41.5q84 -31 120 -69t36 -96q0 -73 -52 -112.5t-138 -39.5
q-96 0 -150 30zM355 772l-134 -162h-43l80 162h97z" />
    <glyph glyph-name="scaron.sc" horiz-adv-x="457" 
d="M54 115q72 -56 167 -56q48 0 75 20.5t27 55.5q0 33 -24.5 55t-85.5 43q-81 27 -116 63.5t-35 95.5q0 60 46 99.5t121 39.5q81 0 143 -28v-88q-68 48 -140 48q-44 0 -67 -19t-23 -49t22.5 -49.5t82.5 -41.5q84 -31 120 -69t36 -96q0 -73 -52 -112.5t-138 -39.5
q-96 0 -150 30zM98 772h48l84 -94l84 94h48l-105 -162h-54z" />
    <glyph glyph-name="scircumflex.sc" horiz-adv-x="457" 
d="M54 115q72 -56 167 -56q48 0 75 20.5t27 55.5q0 33 -24.5 55t-85.5 43q-81 27 -116 63.5t-35 95.5q0 60 46 99.5t121 39.5q81 0 143 -28v-88q-68 48 -140 48q-44 0 -67 -19t-23 -49t22.5 -49.5t82.5 -41.5q84 -31 120 -69t36 -96q0 -73 -52 -112.5t-138 -39.5
q-96 0 -150 30zM314 610l-85 93l-83 -93h-48l105 162h54l105 -162h-48z" />
    <glyph glyph-name="scedilla.sc" horiz-adv-x="457" 
d="M54 115q72 -56 167 -56q48 0 75 20.5t27 55.5q0 33 -24.5 55t-85.5 43q-81 27 -116 63.5t-35 95.5q0 60 46 99.5t121 39.5q81 0 143 -28v-88q-68 48 -140 48q-44 0 -67 -19t-23 -49t22.5 -49.5t82.5 -41.5q84 -31 120 -69t36 -96q0 -67 -43.5 -105.5t-116.5 -44.5
l-24 -47q10 2 22 2q39 0 62 -20.5t23 -54.5q0 -39 -31.5 -64.5t-80.5 -25.5q-52 0 -81 23l5 53q22 -28 71 -28q28 0 42 11t14 28q0 39 -56 39q-25 0 -45 -5l-2 2l39 85q-91 3 -138 30z" />
    <glyph glyph-name="uni0219.sc" horiz-adv-x="457" 
d="M54 115q72 -56 167 -56q48 0 75 20.5t27 55.5q0 33 -24.5 55t-85.5 43q-81 27 -116 63.5t-35 95.5q0 60 46 99.5t121 39.5q81 0 143 -28v-88q-68 48 -140 48q-44 0 -67 -19t-23 -49t22.5 -49.5t82.5 -41.5q84 -31 120 -69t36 -96q0 -73 -52 -112.5t-138 -39.5
q-96 0 -150 30zM264 -63q13 -23 13 -54q0 -27 -18 -54.5t-65 -65.5h-49q62 70 62 117q0 18 -13 40z" />
    <glyph glyph-name="tcaron.sc" horiz-adv-x="495" 
d="M290 0h-84v443h-194v75h472v-75h-194v-443zM116 772h48l84 -94l84 94h48l-105 -162h-54z" />
    <glyph glyph-name="uni0163.sc" horiz-adv-x="495" 
d="M290 0h-84v443h-194v75h472v-75h-194v-443zM284 -63q13 -23 13 -54q0 -27 -18 -54.5t-65 -65.5h-49q62 70 62 117q0 18 -13 40z" />
    <glyph glyph-name="uni021B.sc" horiz-adv-x="495" 
d="M290 0h-84v443h-194v75h472v-75h-194v-443zM284 -63q13 -23 13 -54q0 -27 -18 -54.5t-65 -65.5h-49q62 70 62 117q0 18 -13 40z" />
    <glyph glyph-name="tbar.sc" horiz-adv-x="495" 
d="M290 0h-84v226h-94v56h94v161h-194v75h472v-75h-194v-161h93v-56h-93v-226z" />
    <glyph glyph-name="ugrave.sc" horiz-adv-x="605" 
d="M87 518h84v-315q0 -70 36.5 -105.5t94.5 -35.5t95 35.5t37 105.5v315h84v-315q0 -108 -60.5 -163t-155.5 -55q-94 0 -154.5 55t-60.5 163v315zM311 610l-134 162h97l80 -162h-43z" />
    <glyph glyph-name="uacute.sc" horiz-adv-x="605" 
d="M87 518h84v-315q0 -70 36.5 -105.5t94.5 -35.5t95 35.5t37 105.5v315h84v-315q0 -108 -60.5 -163t-155.5 -55q-94 0 -154.5 55t-60.5 163v315zM428 772l-134 -162h-43l80 162h97z" />
    <glyph glyph-name="ucircumflex.sc" horiz-adv-x="605" 
d="M87 518h84v-315q0 -70 36.5 -105.5t94.5 -35.5t95 35.5t37 105.5v315h84v-315q0 -108 -60.5 -163t-155.5 -55q-94 0 -154.5 55t-60.5 163v315zM387 610l-85 93l-83 -93h-48l105 162h54l105 -162h-48z" />
    <glyph glyph-name="utilde.sc" horiz-adv-x="605" 
d="M87 518h84v-315q0 -70 36.5 -105.5t94.5 -35.5t95 35.5t37 105.5v315h84v-315q0 -108 -60.5 -163t-155.5 -55q-94 0 -154.5 55t-60.5 163v315zM246 672q-21 0 -35 -15t-16 -38l-35 7q5 54 30 85.5t60 31.5q23 0 65 -17t57 -17q21 0 34.5 15t16.5 39l35 -8
q-6 -55 -30.5 -86t-59.5 -31q-23 0 -65 17t-57 17z" />
    <glyph glyph-name="udieresis.sc" horiz-adv-x="605" 
d="M87 518h84v-315q0 -70 36.5 -105.5t94.5 -35.5t95 35.5t37 105.5v315h84v-315q0 -108 -60.5 -163t-155.5 -55q-94 0 -154.5 55t-60.5 163v315zM211 737q22 0 36 -14t14 -36t-13.5 -35.5t-35.5 -13.5q-23 0 -36.5 13t-13.5 36t13.5 36.5t35.5 13.5zM393 737
q23 0 36.5 -13.5t13.5 -36.5q0 -22 -13.5 -35.5t-35.5 -13.5q-23 0 -36.5 13t-13.5 36q0 22 13.5 36t35.5 14z" />
    <glyph glyph-name="umacron.sc" horiz-adv-x="605" 
d="M87 518h84v-315q0 -70 36.5 -105.5t94.5 -35.5t95 35.5t37 105.5v315h84v-315q0 -108 -60.5 -163t-155.5 -55q-94 0 -154.5 55t-60.5 163v315zM436 719v-64h-267v64h267z" />
    <glyph glyph-name="ubreve.sc" horiz-adv-x="605" 
d="M87 518h84v-315q0 -70 36.5 -105.5t94.5 -35.5t95 35.5t37 105.5v315h84v-315q0 -108 -60.5 -163t-155.5 -55q-94 0 -154.5 55t-60.5 163v315zM303 679q80 0 80 86h43q0 -66 -29.5 -107t-93.5 -41q-124 0 -124 148h43q0 -86 81 -86z" />
    <glyph glyph-name="uring.sc" horiz-adv-x="605" 
d="M87 518h84v-315q0 -70 36.5 -105.5t94.5 -35.5t95 35.5t37 105.5v315h84v-315q0 -108 -60.5 -163t-155.5 -55q-94 0 -154.5 55t-60.5 163v315zM203 696q0 41 29 70.5t70 29.5t70.5 -29.5t29.5 -70.5t-29.5 -70t-70.5 -29q-40 0 -69.5 29.5t-29.5 69.5zM246 696
q0 -23 16.5 -39.5t39.5 -16.5q24 0 40.5 16.5t16.5 39.5q0 24 -16.5 40.5t-40.5 16.5q-23 0 -39.5 -16.5t-16.5 -40.5z" />
    <glyph glyph-name="uhungarumlaut.sc" horiz-adv-x="605" 
d="M87 518h84v-315q0 -70 36.5 -105.5t94.5 -35.5t95 35.5t37 105.5v315h84v-315q0 -108 -60.5 -163t-155.5 -55q-94 0 -154.5 55t-60.5 163v315zM269 772h92l-116 -162h-41zM398 772h92l-116 -162h-41z" />
    <glyph glyph-name="uogonek.sc" horiz-adv-x="605" 
d="M441 -218q-31 -19 -75 -19q-46 0 -72 22.5t-26 64.5q0 34 19 64.5t68 75.5q-23 -5 -53 -5q-94 0 -154.5 55t-60.5 163v315h84v-315q0 -70 36.5 -105.5t94.5 -35.5t95 35.5t37 105.5v315h84v-315q0 -106 -63 -166q-70 -70 -92 -105t-22 -71q0 -16 10 -26.5t29 -10.5
q39 0 64 29h3z" />
    <glyph glyph-name="wgrave.sc" horiz-adv-x="792" 
d="M497 0l-103 264l-109 -264h-69l-207 518h90l154 -410l103 253l-60 157h88l149 -411l162 411h88l-216 -518h-70zM401 610l-134 162h97l80 -162h-43z" />
    <glyph glyph-name="wacute.sc" horiz-adv-x="792" 
d="M497 0l-103 264l-109 -264h-69l-207 518h90l154 -410l103 253l-60 157h88l149 -411l162 411h88l-216 -518h-70zM518 772l-134 -162h-43l80 162h97z" />
    <glyph glyph-name="wcircumflex.sc" horiz-adv-x="792" 
d="M497 0l-103 264l-109 -264h-69l-207 518h90l154 -410l103 253l-60 157h88l149 -411l162 411h88l-216 -518h-70zM477 610l-85 93l-83 -93h-48l105 162h54l105 -162h-48z" />
    <glyph glyph-name="wdieresis.sc" horiz-adv-x="792" 
d="M497 0l-103 264l-109 -264h-69l-207 518h90l154 -410l103 253l-60 157h88l149 -411l162 411h88l-216 -518h-70zM301 737q22 0 36 -14t14 -36t-13.5 -35.5t-35.5 -13.5q-23 0 -36.5 13t-13.5 36t13.5 36.5t35.5 13.5zM483 737q23 0 36.5 -13.5t13.5 -36.5
q0 -22 -13.5 -35.5t-35.5 -13.5q-23 0 -36.5 13t-13.5 36q0 22 13.5 36t35.5 14z" />
    <glyph glyph-name="ygrave.sc" horiz-adv-x="548" 
d="M544 518l-235 -299v-219h-83v221l-222 297h100l164 -230l174 230h102zM282 610l-134 162h97l80 -162h-43z" />
    <glyph glyph-name="yacute.sc" horiz-adv-x="548" 
d="M544 518l-235 -299v-219h-83v221l-222 297h100l164 -230l174 230h102zM399 772l-134 -162h-43l80 162h97z" />
    <glyph glyph-name="ycircumflex.sc" horiz-adv-x="548" 
d="M544 518l-235 -299v-219h-83v221l-222 297h100l164 -230l174 230h102zM358 610l-85 93l-83 -93h-48l105 162h54l105 -162h-48z" />
    <glyph glyph-name="ydieresis.sc" horiz-adv-x="548" 
d="M544 518l-235 -299v-219h-83v221l-222 297h100l164 -230l174 230h102zM182 737q22 0 36 -14t14 -36t-13.5 -35.5t-35.5 -13.5q-23 0 -36.5 13t-13.5 36t13.5 36.5t35.5 13.5zM364 737q22 0 36 -13.5t14 -36.5q0 -22 -13.5 -35.5t-35.5 -13.5q-23 0 -36.5 13t-13.5 36
q0 22 13.5 36t35.5 14z" />
    <glyph glyph-name="zacute.sc" horiz-adv-x="548" 
d="M510 0h-496l351 441h-319l8 77h463l-353 -441h359zM396 772l-134 -162h-43l80 162h97z" />
    <glyph glyph-name="zcaron.sc" horiz-adv-x="548" 
d="M510 0h-496l351 441h-319l8 77h463l-353 -441h359zM139 772h48l84 -94l84 94h48l-105 -162h-54z" />
    <glyph glyph-name="zdotaccent.sc" horiz-adv-x="548" 
d="M510 0h-496l351 441h-319l8 77h463l-353 -441h359zM269 744q25 0 40 -15t15 -39t-15 -39t-39 -15q-25 0 -39.5 14.5t-14.5 39.5q0 24 14.5 39t38.5 15z" />
    <glyph glyph-name="germandbls.sc" horiz-adv-x="618" 
d="M522 476l-103 -176q72 -8 111.5 -49t39.5 -105q0 -67 -49.5 -112.5t-132.5 -45.5q-74 0 -120 27l-8 87h3q44 -41 120 -41q50 0 78.5 25.5t28.5 64.5q0 44 -34 68t-100 24q-30 0 -52 -5l-1 3l116 198q-42 20 -95 20q-67 0 -110 -43.5t-43 -120.5v-295h-83v306
q0 101 66 163t170 62q113 0 198 -55z" />
    <glyph glyph-name="thorn.sc" horiz-adv-x="479" 
d="M177 0h-84v518h84v-93h64q99 0 153 -40t54 -117q0 -85 -56 -128.5t-162 -43.5h-53v-96zM177 361v-197h57q128 0 128 104q0 45 -34.5 69t-97.5 24h-53z" />
    <glyph glyph-name="fi.sc" horiz-adv-x="710" 
d="M174 440v-149h208v-78h-208v-213h-81v518h320v-78h-239zM617 0h-84v518h84v-518z" />
    <glyph glyph-name="fl.sc" horiz-adv-x="905" 
d="M174 440v-149h208v-78h-208v-213h-81v518h320v-78h-239zM533 0v518h84v-443h278v-75h-362z" />
    <glyph glyph-name="ampersand.sc" horiz-adv-x="626" 
d="M330 226l-5 74q29 12 122.5 22t136.5 29l5 -74q-31 -14 -95 -21q7 -31 7 -59q0 -101 -60 -157.5t-171 -56.5q-95 0 -150.5 51.5t-55.5 130.5q0 102 98 143q-42 36 -42 95q0 56 49.5 91.5t126.5 35.5q60 0 102 -13l-12 -79q-37 21 -95 21q-49 0 -76 -20.5t-27 -54.5
q0 -50 42 -89q-91 -42 -91 -121q0 -51 36.5 -84.5t101.5 -33.5q77 0 118 36t41 104q0 25 -8 54q-60 -7 -98 -24z" />
    <glyph glyph-name="exclam.sc" horiz-adv-x="268" 
d="M132 86q22 0 36 -13.5t14 -35.5t-13.5 -35.5t-35.5 -13.5t-35.5 13.5t-13.5 35.5t13 35.5t35 13.5zM87 513l103 14q-12 -208 -43 -367l-32 5q-26 154 -28 348z" />
    <glyph glyph-name="question.sc" horiz-adv-x="350" 
d="M114 86q22 0 35.5 -13.5t13.5 -35.5t-13 -35.5t-35 -13.5t-35.5 13.5t-13.5 35.5t13 35.5t35 13.5zM145 162l-66 -13v131q75 3 116.5 30.5t41.5 73.5q0 40 -29.5 60.5t-81.5 20.5q-45 0 -74 -13l14 71q28 8 68 8q81 0 130 -36.5t49 -107.5q0 -64 -45 -104t-123 -53v-68z
" />
    <glyph glyph-name="exclamdown.sc" horiz-adv-x="268" 
d="M135 434q-22 0 -35.5 13.5t-13.5 35.5t13.5 35t34.5 13q23 0 36 -13t13 -35t-13 -35.5t-35 -13.5zM181 3l-103 -14q9 197 43 367l32 -5q26 -154 28 -348z" />
    <glyph glyph-name="questiondown.sc" horiz-adv-x="350" 
d="M236 434q-22 0 -36 13.5t-14 35.5t13.5 35t35.5 13t35.5 -13t13.5 -35t-13 -35.5t-35 -13.5zM205 358l66 13v-132q-75 -3 -116.5 -30t-41.5 -73q0 -40 30 -61t81 -21q42 0 74 13l-14 -71q-35 -8 -68 -8q-80 0 -129.5 37t-49.5 108q0 64 45 104t123 52v69z" />
    <glyph glyph-name="percent.sc" horiz-adv-x="694" 
d="M547 518l-337 -518h-63l336 518h64zM159 240q-54 0 -84.5 30t-30.5 88q0 62 43.5 111t103.5 49q54 0 84.5 -30t30.5 -88q0 -61 -43.5 -110.5t-103.5 -49.5zM191 468q-39 0 -65 -33.5t-26 -79.5q0 -64 60 -64q38 0 63.5 33t25.5 79q0 65 -58 65zM503 0q-54 0 -84.5 30
t-30.5 88q0 62 43.5 111t103.5 49q54 0 84.5 -30t30.5 -88q0 -61 -43.5 -110.5t-103.5 -49.5zM535 228q-38 0 -64 -33.5t-26 -79.5q0 -64 59 -64q38 0 64 33t26 79q0 65 -59 65z" />
    <glyph glyph-name="perthousand.sc" horiz-adv-x="999" 
d="M549 518l-337 -518h-65l336 518h66zM159 240q-54 0 -84.5 30t-30.5 88q0 62 43.5 111t103.5 49q54 0 84.5 -30t30.5 -88q0 -61 -43.5 -110.5t-103.5 -49.5zM191 468q-39 0 -65 -33.5t-26 -79.5q0 -64 60 -64q38 0 63.5 33t25.5 79q0 65 -58 65zM505 0q-54 0 -84.5 30
t-30.5 88q0 62 43.5 111t103.5 49q54 0 84.5 -30t30.5 -88q0 -61 -43.5 -110.5t-103.5 -49.5zM537 228q-38 0 -64 -33.5t-26 -79.5q0 -64 59 -64q38 0 64 33t26 79q0 65 -59 65zM808 0q-54 0 -84.5 30.5t-30.5 87.5q0 61 43.5 110.5t103.5 49.5q54 0 85 -30.5t31 -87.5
q0 -61 -44 -110.5t-104 -49.5zM840 228q-38 0 -64 -33.5t-26 -79.5q0 -64 59 -64q38 0 64 33t26 79q0 65 -59 65z" />
    <glyph glyph-name="dollar.sc" horiz-adv-x="479" 
d="M261 612v-81q67 -3 124 -29v-85q-57 41 -124 49v-170q86 -30 121.5 -67.5t35.5 -95.5q0 -64 -42.5 -101.5t-114.5 -45.5v-76h-49v74q-93 3 -145 35l-6 90q69 -55 151 -60v193q-79 26 -112 60.5t-33 92.5q0 52 40 90.5t105 45.5v81h49zM349 131q0 31 -20.5 53.5
t-67.5 40.5v-176q42 4 65 26t23 56zM136 397q0 -28 16.5 -47t59.5 -37v154q-38 -4 -57 -23t-19 -47z" />
    <glyph glyph-name="Euro.sc" horiz-adv-x="479" 
d="M14 297l17 49h43q21 88 85.5 136.5t159.5 48.5q82 0 137 -25l-22 -68q-46 26 -112 26q-135 0 -171 -118h251l-17 -49h-243q-2 -24 -2 -37q0 -22 1 -32h221l-17 -49h-195q35 -124 180 -124q74 0 125 47h3l-10 -86q-50 -29 -121 -29q-101 0 -167.5 50t-86.5 142h-70l17 49
h46q-1 10 -1 32q0 25 1 37h-52z" />
    <glyph glyph-name="cent.sc" horiz-adv-x="479" 
d="M389 609l-29 -115q50 -12 91 -40l-20 -76q-41 33 -89 46l-84 -338h14q107 0 178 79h3l-15 -97q-29 -23 -75.5 -38t-94.5 -15q-19 0 -28 1l-26 -106h-55l29 115q-74 21 -115.5 80t-41.5 146q0 112 67.5 181.5t187.5 69.5q14 0 21 -1l27 108h55zM105 251q0 -55 25.5 -96
t74.5 -59l84 336h-8q-85 0 -130.5 -48t-45.5 -133z" />
    <glyph glyph-name="sterling.sc" horiz-adv-x="479" 
d="M352 296l-17 -58q-37 3 -126 5q9 -40 9 -67q0 -46 -15 -79q9 -4 29 -13.5t32 -15t31.5 -10.5t38.5 -5q51 0 94 50h3l1 -77q-41 -42 -95 -42q-43 0 -102 29.5t-63 30.5q-45 -52 -84 -52q-21 0 -34 13t-13 34q0 27 32.5 48.5t78.5 21.5h3q9 24 9 57q0 32 -14 76
q-53 -4 -89 -11l17 63l52 4q-22 60 -22 100q0 59 41 96t109 37q75 0 146 -47l-21 -72q-59 51 -123 51q-39 0 -60.5 -20.5t-21.5 -54.5q0 -36 14 -87h16q49 0 144 -5z" />
    <glyph glyph-name="florin.sc" horiz-adv-x="479" 
d="M23 -48l-2 78q23 -23 64 -23q40 0 63 38.5t35 127.5l12 89h-106v58h114l3 17q14 102 56 148t115 46q49 0 83 -24l-10 -69q-25 26 -63 26q-43 0 -65 -30.5t-33 -104.5l-2 -9h136v-58h-144l-15 -104q-17 -118 -59 -170t-110 -52q-42 0 -72 16z" />
    <glyph glyph-name="yen.sc" horiz-adv-x="479" 
d="M457 211v-57h-182v-154h-84v154h-169v57h169l-52 86h-117v57h83l-97 164h88l138 -252l149 252h89l-106 -164h91v-57h-127l-55 -86h182z" />
    <glyph glyph-name="uni20B9.sc" horiz-adv-x="479" 
d="M35 326l24 57h224q-14 79 -141 79h-107l24 56h380l-24 -56h-99q39 -31 45 -79h78l-24 -57h-58q-23 -95 -157 -128l192 -198h-113l-221 234v4q104 10 155 30.5t65 57.5h-243z" />
    <glyph glyph-name="uni20BA.sc" horiz-adv-x="479" 
d="M40 283v60l60 28v147h79v-114l131 58v-61l-131 -58v-70l131 59v-60l-131 -59v-143q13 -3 29 -3q68 0 117 38.5t66 108.5l68 -43q-24 -84 -92 -131.5t-163 -47.5q-57 0 -104 15v174l-60 -28v60l60 28v70z" />
    <glyph glyph-name="zero.onumprop" horiz-adv-x="624" 
d="M312 -15q-118 0 -188 71.5t-70 202.5t70 201.5t188 70.5q117 0 187.5 -70.5t70.5 -201.5t-70.5 -202.5t-187.5 -71.5zM312 54q79 0 125 53t46 152t-45.5 151t-125.5 52t-126 -52.5t-46 -150.5q0 -99 46 -152t126 -53z" />
    <glyph glyph-name="one.onumprop" horiz-adv-x="354" 
d="M233 0h-85v442l-102 -4l10 80h177v-518z" />
    <glyph glyph-name="two.onumprop" horiz-adv-x="505" 
d="M313 190q-56 -56 -146 -115h288l-8 -75h-405v64q127 79 207 159q47 46 65 77.5t18 70.5q0 38 -27.5 62t-75.5 24q-86 0 -160 -55l15 92q66 37 162 37q81 0 125 -41t44 -105q0 -52 -23 -95t-79 -100z" />
    <glyph glyph-name="three.onumprop" horiz-adv-x="515" 
d="M328 194q131 -44 131 -169q0 -97 -69 -154t-187 -57q-92 0 -155 28l-4 82q64 -35 152 -35q82 0 129.5 37.5t47.5 99.5q0 56 -41.5 89.5t-115.5 33.5q-75 0 -122 -11l16 86q33 -3 77 -3q80 0 125 34t45 96q0 47 -33 77t-92 30q-83 0 -142 -38l16 91q56 20 134 20
q95 0 148.5 -47.5t53.5 -123.5q0 -55 -30 -99t-84 -67z" />
    <glyph glyph-name="four.onumprop" horiz-adv-x="598" 
d="M376 -187v187h-337v63l336 455h81v-445h101v-73h-101v-187h-80zM119 73h257v347z" />
    <glyph glyph-name="five.onumprop" horiz-adv-x="477" 
d="M422 518l-11 -76h-243l-25 -188q15 3 40 3q116 0 181.5 -54t65.5 -142q0 -118 -92.5 -184.5t-263.5 -66.5q-22 0 -41 3l12 85q28 -5 59 -5q118 0 180.5 44t62.5 120q0 59 -47.5 95.5t-137.5 36.5q-58 0 -104 -13l43 342h321z" />
    <glyph glyph-name="six.onumprop" horiz-adv-x="599" 
d="M501 683q-150 -8 -241.5 -89t-119.5 -210q73 65 177 65q105 0 169.5 -61.5t64.5 -163.5t-67 -170t-175 -68q-122 0 -188.5 79t-66.5 208q0 99 29 184.5t84.5 152.5t144.5 108.5t203 47.5zM301 384q-101 0 -171 -70q-1 -13 -1 -39q0 -99 48 -156t132 -57q67 0 111 46
t44 117t-45 115t-118 44z" />
    <glyph glyph-name="seven.onumprop" horiz-adv-x="531" 
d="M51 518h435q-169 -410 -232 -705h-101q40 151 103 321.5t124 302.5l-356 -8z" />
    <glyph glyph-name="eight.onumprop" horiz-adv-x="601" 
d="M540 190q0 -85 -66 -144t-172 -59q-110 0 -175.5 55t-65.5 144q0 71 43.5 122t125.5 78q-80 37 -112.5 84t-32.5 109q0 79 62 136t158 57q100 0 158.5 -53.5t58.5 -133.5q0 -132 -144 -193q82 -37 122 -85.5t40 -116.5zM453 196q0 54 -38 90.5t-123 67.5
q-73 -23 -111.5 -64.5t-38.5 -95.5q0 -56 44 -93.5t112 -37.5q71 0 113 38t42 95zM170 578q0 -55 33.5 -90.5t111.5 -65.5q127 54 127 153q0 54 -37.5 88.5t-97.5 34.5t-98.5 -35t-38.5 -85z" />
    <glyph glyph-name="nine.onumprop" horiz-adv-x="593" 
d="M189 -213l-57 71q236 96 301 247q-60 -30 -136 -30q-111 0 -179 61t-68 166q0 97 65.5 163t167.5 66q123 0 191 -76.5t68 -204.5q0 -157 -86.5 -270t-266.5 -193zM311 137q84 0 143 34q7 35 7 78q0 96 -49 151.5t-131 55.5q-63 0 -105.5 -44t-42.5 -111q0 -73 49 -118.5
t129 -45.5z" />
    <glyph glyph-name="zero.onumtab" 
d="M293 -15q-107 0 -171.5 71.5t-64.5 202.5t64.5 201.5t171.5 70.5t171.5 -70.5t64.5 -201.5t-64.5 -202.5t-171.5 -71.5zM293 54q71 0 111.5 53t40.5 152t-40.5 151t-111.5 52t-111.5 -52.5t-40.5 -150.5q0 -99 40.5 -152t111.5 -53z" />
    <glyph glyph-name="one.onumtab" 
d="M490 0h-372v75h143v367l-146 -4l10 80h221v-443h144v-75z" />
    <glyph glyph-name="two.onumtab" 
d="M356 185q-56 -54 -145 -110h295l-8 -75h-418v64q123 71 213 153q52 48 71.5 80.5t19.5 73.5q0 38 -28.5 62t-78.5 24q-91 0 -167 -56l15 89q68 41 169 41q83 0 128 -41t45 -105q0 -54 -25 -99t-86 -101z" />
    <glyph glyph-name="three.onumtab" 
d="M359 194q130 -43 130 -169q0 -97 -69.5 -154t-188.5 -57q-93 0 -156 28l-4 82q64 -35 153 -35q83 0 131.5 37.5t48.5 99.5q0 56 -42.5 89.5t-118.5 33.5q-75 0 -122 -11l16 86q33 -3 78 -3q81 0 127 33.5t46 96.5q0 47 -34 77t-94 30q-84 0 -143 -38l16 91q56 20 135 20
q96 0 150 -48t54 -124q0 -55 -30 -98.5t-83 -66.5z" />
    <glyph glyph-name="four.onumtab" 
d="M368 -187v187h-330v63l335 455h75v-445h101v-73h-101v-187h-80zM114 73h254v343z" />
    <glyph glyph-name="five.onumtab" 
d="M477 518l-11 -76h-262l-25 -189q16 4 53 4q120 0 187 -54t67 -142q0 -118 -95.5 -184.5t-271.5 -66.5q-20 0 -50 4l11 84q38 -5 70 -5q123 0 188 44t65 120q0 59 -50 95.5t-145 36.5q-63 0 -114 -13l42 342h341z" />
    <glyph glyph-name="six.onumtab" 
d="M492 683q-147 -8 -237 -89t-118 -210q71 65 171 65q102 0 164.5 -61.5t62.5 -163.5t-65.5 -170t-170.5 -68q-118 0 -183 79t-65 208q0 99 28.5 184.5t83.5 152.5t143 108.5t199 47.5zM292 384q-98 0 -165 -70q-1 -13 -1 -39q0 -98 46.5 -155.5t127.5 -57.5q64 0 106 46
t42 117t-43.5 115t-112.5 44z" />
    <glyph glyph-name="seven.onumtab" 
d="M73 518h442q-172 -418 -232 -705h-101q40 153 103.5 324t123.5 300l-363 -8z" />
    <glyph glyph-name="eight.onumtab" 
d="M526 190q0 -85 -64.5 -144t-167.5 -59q-107 0 -170.5 55t-63.5 144q0 71 42.5 122t121.5 78q-77 37 -108.5 84.5t-31.5 108.5q0 79 60.5 136t153.5 57q97 0 153.5 -53.5t56.5 -133.5q0 -132 -139 -193q157 -74 157 -202zM439 196q0 54 -36 90.5t-118 67.5
q-70 -23 -107 -64.5t-37 -95.5q0 -56 42 -93.5t108 -37.5q68 0 108 38t40 95zM169 578q0 -55 32 -90.5t106 -65.5q120 54 120 153q0 54 -35.5 88.5t-92.5 34.5t-93.5 -35t-36.5 -85z" />
    <glyph glyph-name="nine.onumtab" 
d="M186 -213l-57 71q236 96 301 247q-60 -30 -136 -30q-111 0 -179 61t-68 166q0 97 65.5 163t167.5 66q123 0 191 -76.5t68 -204.5q0 -157 -86.5 -270t-266.5 -193zM308 137q84 0 143 34q7 35 7 78q0 96 -49 151.5t-131 55.5q-63 0 -105.5 -44t-42.5 -111q0 -73 49 -118.5
t129 -45.5z" />
    <glyph glyph-name="zero.prop" horiz-adv-x="673" 
d="M335 -16q-124 0 -195 102.5t-71 291.5q0 190 73.5 290t195.5 100q126 0 196.5 -99.5t70.5 -292.5q0 -187 -73.5 -289.5t-196.5 -102.5zM335 61q88 0 135.5 80t47.5 238q0 155 -47.5 235t-133.5 80q-85 0 -133 -80t-48 -234q0 -156 47 -237.5t132 -81.5z" />
    <glyph glyph-name="one.prop" horiz-adv-x="382" 
d="M251 0h-85v676l-118 -9l14 85h189v-752z" />
    <glyph glyph-name="two.prop" horiz-adv-x="577" 
d="M88 716q87 49 196 49q102 0 162 -57t60 -145q0 -66 -24.5 -120t-81.5 -123q-41 -48 -112 -119.5t-127 -122.5h371l-9 -78h-486v45q67 60 156.5 153.5t145.5 164.5q43 54 61.5 94.5t18.5 88.5q0 61 -39.5 99t-113.5 38q-106 0 -197 -70z" />
    <glyph glyph-name="three.prop" horiz-adv-x="567" 
d="M357 395q144 -49 144 -188q0 -101 -76 -160.5t-205 -59.5q-88 0 -155 28l-5 87q64 -35 153 -35q93 0 146.5 39.5t53.5 104.5q0 63 -47 100.5t-133 37.5q-79 0 -132 -10l20 88q36 -3 83 -3q90 0 142 36t52 103q0 55 -39 90t-109 35q-88 0 -151 -39l17 94q60 22 141 22
q106 0 166 -53t60 -138q0 -60 -33 -106.5t-93 -72.5z" />
    <glyph glyph-name="four.prop" horiz-adv-x="641" 
d="M416 0v223h-393v59l382 470h92v-455h101v-74h-101v-223h-81zM115 297h301v371z" />
    <glyph glyph-name="five.prop" horiz-adv-x="582" 
d="M510 752l-11 -76h-316l-26 -197q22 2 47 2q143 0 223.5 -66.5t80.5 -176.5q0 -135 -106 -209.5t-301 -74.5q-20 0 -38 3l8 84q36 -4 61 -4q139 0 215 52t76 143q0 81 -61 129t-180 48q-58 0 -111 -9l45 352h394z" />
    <glyph glyph-name="six.prop" horiz-adv-x="634" 
d="M531 693q-158 -9 -253.5 -91.5t-123.5 -212.5q76 67 188 67q109 0 175.5 -64t66.5 -170q0 -101 -71 -168.5t-181 -67.5q-126 0 -195.5 82t-69.5 219q0 98 30 183.5t88 153t151 109t211 47.5zM326 389q-109 0 -181 -69q-1 -11 -1 -34q0 -103 51 -162.5t139 -59.5
q72 0 118.5 45t46.5 115q0 74 -48 119.5t-125 45.5z" />
    <glyph glyph-name="seven.prop" horiz-adv-x="550" 
d="M50 752h462q-159 -431 -217 -752h-103q40 166 100.5 353t114.5 318l-387 -8z" />
    <glyph glyph-name="eight.prop" horiz-adv-x="613" 
d="M546 190q0 -85 -66 -144t-172 -59q-110 0 -175.5 55t-65.5 144q0 71 43.5 122t125.5 78q-80 37 -112.5 84t-32.5 109q0 79 62 136t158 57q100 0 158.5 -53.5t58.5 -133.5q0 -132 -144 -193q82 -37 122 -85.5t40 -116.5zM459 196q0 54 -38 90.5t-123 67.5
q-73 -23 -111.5 -64.5t-38.5 -95.5q0 -56 44 -93.5t112 -37.5q71 0 113 38t42 95zM176 578q0 -55 33.5 -90.5t111.5 -65.5q127 54 127 153q0 54 -37.5 88.5t-97.5 34.5t-98.5 -35t-38.5 -85z" />
    <glyph glyph-name="nine.prop" horiz-adv-x="629" 
d="M209 -23l-59 71q254 105 313 289q-62 -37 -148 -37q-119 0 -192 64t-73 173q0 99 68.5 167t174.5 68q126 0 197 -83t71 -221q0 -167 -86.5 -287.5t-265.5 -203.5zM329 365q91 0 149 35q5 37 5 69q0 104 -53 164.5t-141 60.5q-68 0 -111 -44t-43 -114q0 -76 53 -123.5
t141 -47.5z" />
    <glyph glyph-name="ampersand.salt" horiz-adv-x="767" 
d="M631 351l76 -27q-43 -118 -107 -193l124 -131h-105l-72 77q-104 -90 -243 -90q-114 0 -177 54.5t-63 149.5q0 67 37 117.5t130 107.5q-51 57 -72.5 100.5t-21.5 90.5q0 72 51.5 122.5t132.5 50.5q83 0 130.5 -46.5t47.5 -114.5q0 -59 -35.5 -108t-122.5 -103l206 -220
q58 72 84 163zM311 63q100 0 183 70l-219 235q-71 -46 -98.5 -84t-27.5 -84q0 -64 42 -100.5t120 -36.5zM217 609q0 -36 16.5 -69t63.5 -85q74 45 99 80t25 82q0 39 -27.5 66.5t-71.5 27.5q-49 0 -77 -28t-28 -74z" />
    <glyph glyph-name="comma.salt" horiz-adv-x="247" 
d="M203 96l-111 -228h-61l90 228h82z" />
    <glyph glyph-name="semicolon.salt" horiz-adv-x="245" 
d="M122 490q24 0 39 -15t15 -40q0 -23 -14.5 -38t-38.5 -15q-25 0 -39.5 14.5t-14.5 38.5q0 25 14.5 40t38.5 15zM175 96l-111 -228h-61l90 228h82z" />
    <glyph glyph-name="quoteleft.salt" horiz-adv-x="203" 
d="M22 530l111 229h61l-90 -229h-82z" />
    <glyph glyph-name="quoteright.salt" horiz-adv-x="203" 
d="M190 758l-111 -228h-61l90 228h82z" />
    <glyph glyph-name="quotesinglbase.salt" horiz-adv-x="247" 
d="M203 96l-111 -228h-61l90 228h82z" />
    <glyph glyph-name="quotedblleft.salt" horiz-adv-x="344" 
d="M181 530l111 229h61l-90 -229h-82zM20 530l111 229h61l-90 -229h-82z" />
    <glyph glyph-name="quotedblright.salt" horiz-adv-x="344" 
d="M354 758l-111 -228h-61l90 228h82zM192 758l-111 -228h-61l90 228h82z" />
    <glyph glyph-name="quotedblbase.salt" horiz-adv-x="411" 
d="M364 96l-111 -228h-61l90 228h82zM203 96l-111 -228h-61l90 228h82z" />
    <glyph glyph-name="A.salt" horiz-adv-x="757" 
d="M656 0l-116 257h-323l-115 -257h-95l373 786h4l367 -786h-95zM379 621l-133 -293h265z" />
    <glyph glyph-name="G.salt" horiz-adv-x="778" 
d="M440 704q-133 0 -213 -90t-80 -230q0 -144 81 -231t211 -87q115 0 184 63v181h-187v80h275v-308q-114 -95 -275 -95q-168 0 -273.5 109.5t-105.5 287.5q0 170 105 285.5t277 115.5q143 0 245 -71l-12 -101h-3q-90 91 -229 91z" />
    <glyph glyph-name="J.salt" horiz-adv-x="436" 
d="M339 772v-517q0 -122 -63.5 -190.5t-174.5 -68.5q-42 0 -77 13l-8 94q32 -29 86 -29q70 0 111 48t41 138v512h85z" />
    <glyph glyph-name="M.salt" horiz-adv-x="984" 
d="M795 790l122 -790h-86l-77 530l-254 -557h-6l-261 560l-79 -533h-87l126 788h4l299 -643l295 645h4z" />
    <glyph glyph-name="N.salt" horiz-adv-x="843" 
d="M102 0v786h4l550 -608v594h85v-798h-4l-550 610v-584h-85z" />
    <glyph glyph-name="V.salt" horiz-adv-x="707" 
d="M7 772h97l245 -604l254 604h97l-351 -798h-4z" />
    <glyph glyph-name="W.salt" horiz-adv-x="1083" 
d="M7 772h95l217 -588l224 610h4l203 -611l231 589h95l-326 -804h-4l-203 599l-226 -599h-4z" />
    <glyph glyph-name="a.sc.salt" horiz-adv-x="551" 
d="M456 0l-73 165h-211l-77 -165h-91l277 545h4l262 -545h-91zM281 401l-81 -171h159z" />
    <glyph glyph-name="g.sc.salt" horiz-adv-x="579" 
d="M321 457q-87 0 -138.5 -55.5t-51.5 -142.5q0 -91 53 -145t137 -54q70 0 116 43v104h-116v74h198v-216q-81 -78 -204 -78q-118 0 -193.5 75t-75.5 198q0 116 75 193.5t198 77.5q108 0 181 -51l-15 -86h-3q-62 63 -161 63z" />
    <glyph glyph-name="j.sc.salt" horiz-adv-x="376" 
d="M290 518v-312q0 -99 -51.5 -156t-141.5 -57q-47 0 -76 14l-8 89q32 -26 77 -26q54 0 85 37t31 106v305h84z" />
    <glyph glyph-name="m.sc.salt" horiz-adv-x="729" 
d="M592 542l80 -542h-82l-43 304l-176 -330h-6l-182 333l-44 -307h-82l82 541h3l226 -418l221 419h3z" />
    <glyph glyph-name="n.sc.salt" horiz-adv-x="673" 
d="M577 -24l-400 379v-355h-84v537h3l400 -382v363h84v-542h-3z" />
    <glyph glyph-name="v.sc.salt" horiz-adv-x="518" 
d="M9 518h89l158 -373l163 373h90l-252 -543h-4z" />
    <glyph glyph-name="w.sc.salt" horiz-adv-x="779" 
d="M534 -32l-144 375l-159 -375h-4l-218 550h86l139 -364l155 383h6l141 -385l148 366h86l-232 -550h-4z" />
    <glyph glyph-name="a.salt" horiz-adv-x="592" 
d="M516 10l-81 -24q-8 25 -10 53q-63 -51 -150 -51q-104 0 -165 70.5t-61 177.5q0 121 70 194t183 73q71 0 133 -33l70 10v-375q0 -54 11 -95zM291 59q87 0 132 54v281q-44 38 -114 38q-82 0 -128.5 -52t-46.5 -142q0 -80 42 -129.5t115 -49.5z" />
    <glyph glyph-name="e.salt" horiz-adv-x="543" 
d="M489 234l-363 -9q4 -82 50.5 -126.5t121.5 -44.5q106 0 174 75h4l-11 -90q-63 -56 -174 -56q-107 0 -174.5 64.5t-67.5 190.5q0 112 65.5 188t170.5 76q95 0 151 -59.5t56 -157.5q0 -29 -3 -51zM284 436q-63 0 -104 -42t-51 -113l287 8q0 65 -34.5 106t-97.5 41z" />
    <glyph glyph-name="g.salt" horiz-adv-x="596" 
d="M89 -187l-5 91q68 -70 179 -70q164 0 164 159v35q-61 -43 -146 -43q-105 0 -168.5 68.5t-63.5 183.5q0 121 71 193.5t189 72.5q73 0 131 -25l69 12v-499q0 -103 -64 -165.5t-178 -62.5q-113 0 -178 50zM299 56q83 0 128 41v313q-46 22 -108 22q-86 0 -135.5 -52
t-49.5 -141q0 -85 44.5 -134t120.5 -49z" />
    <glyph glyph-name="v.salt" horiz-adv-x="480" 
d="M9 485h89l132 -351l153 351h88l-245 -517h-3z" />
    <glyph glyph-name="w.salt" horiz-adv-x="755" 
d="M9 485h88l122 -351l159 379h4l134 -375l142 347h88l-231 -525h-4l-136 361l-158 -368h-4z" />
    <glyph glyph-name="ae.salt" horiz-adv-x="821" 
d="M767 236l-346 -9q4 -82 47.5 -125t116.5 -43q101 0 166 73h3l-11 -90q-59 -54 -166 -54q-133 0 -192 96q-41 -42 -97.5 -68.5t-114.5 -26.5q-63 0 -98.5 31.5t-35.5 85.5q0 114 141 154q67 20 163 24v46q0 48 -26.5 72.5t-74.5 24.5q-86 0 -146 -57h-3v78q68 50 160 50
q120 0 151 -90q62 90 168 90q91 0 144.5 -58.5t53.5 -154.5q0 -28 -3 -49zM570 432q-58 0 -97.5 -39.5t-48.5 -110.5l270 7q0 64 -32 103.5t-92 39.5zM343 123v108q-88 -5 -144 -21q-75 -21 -75 -84q0 -33 19 -52.5t57 -19.5q82 0 143 69z" />
    <glyph glyph-name="oe.salt" horiz-adv-x="900" 
d="M847 236l-347 -10q4 -82 48 -127t116 -45q102 0 165 74h4l-10 -89q-59 -56 -167 -56q-139 0 -196 109q-60 -109 -184 -109q-100 0 -163.5 72t-63.5 194q0 115 64.5 184.5t162.5 69.5q62 0 111.5 -29.5t77.5 -84.5q28 53 76.5 83t109.5 30q91 0 145 -59.5t54 -157.5
q0 -7 -3 -49zM276 54q65 0 103 51.5t38 143.5q0 79 -39 131.5t-102 52.5t-102.5 -50.5t-39.5 -133.5q0 -88 37.5 -141.5t104.5 -53.5zM650 436q-59 0 -98.5 -42t-48.5 -113l271 8q0 65 -32.5 106t-91.5 41z" />
    <glyph glyph-name="Agrave.salt" horiz-adv-x="757" 
d="M656 0l-116 257h-323l-115 -257h-95l373 786h4l367 -786h-95zM379 621l-133 -293h265zM389 826l-130 131h103l78 -131h-51z" />
    <glyph glyph-name="Aacute.salt" horiz-adv-x="757" 
d="M656 0l-116 257h-323l-115 -257h-95l373 786h4l367 -786h-95zM379 621l-133 -293h265zM505 957l-130 -131h-51l78 131h103z" />
    <glyph glyph-name="Acircumflex.salt" horiz-adv-x="757" 
d="M656 0l-116 257h-323l-115 -257h-95l373 786h4l367 -786h-95zM379 621l-133 -293h265zM471 826l-90 76l-87 -76h-52l102 131h77l101 -131h-51z" />
    <glyph glyph-name="Atilde.salt" horiz-adv-x="757" 
d="M656 0l-116 257h-323l-115 -257h-95l373 786h4l367 -786h-95zM379 621l-133 -293h265zM322 868q-21 0 -35 -15t-16 -38l-35 8q5 54 29 85t58 31q24 0 68 -17t60 -17q44 0 51 54l35 -8q-5 -54 -29 -85.5t-58 -31.5q-24 0 -68 17t-60 17z" />
    <glyph glyph-name="Adieresis.salt" horiz-adv-x="757" 
d="M656 0l-116 257h-323l-115 -257h-95l373 786h4l367 -786h-95zM379 621l-133 -293h265zM281 943q23 0 37 -14.5t14 -36.5q0 -23 -14 -37t-36 -14q-23 0 -37 14t-14 37t14 37t36 14zM483 943q23 0 37 -14.5t14 -36.5t-14 -36.5t-36 -14.5q-24 0 -37.5 14t-13.5 37t14 37
t36 14z" />
    <glyph glyph-name="Amacron.salt" horiz-adv-x="757" 
d="M656 0l-116 257h-323l-115 -257h-95l373 786h4l367 -786h-95zM379 621l-133 -293h265zM522 913v-61h-280v61h280z" />
    <glyph glyph-name="Abreve.salt" horiz-adv-x="757" 
d="M656 0l-116 257h-323l-115 -257h-95l373 786h4l367 -786h-95zM379 621l-133 -293h265zM383 885q75 0 80 72h43q0 -55 -30 -93t-93 -38q-65 0 -94.5 37.5t-29.5 93.5h43q5 -72 81 -72z" />
    <glyph glyph-name="Aring.salt" horiz-adv-x="757" 
d="M656 0l-116 257h-323l-115 -257h-95l373 786h4l367 -786h-95zM379 621l-133 -293h265zM284 906q0 40 29 69t69 29t69 -29t29 -69t-29 -69t-69 -29t-69 29t-29 69zM324 906q0 -23 17 -40.5t41 -17.5t41 17.5t17 40.5q0 24 -17 41t-41 17t-41 -17t-17 -41z" />
    <glyph glyph-name="Aogonek.salt" horiz-adv-x="757" 
d="M556 -150q0 35 21.5 67.5t78.5 82.5l-116 257h-323l-115 -257h-95l373 786h4l367 -786q-122 -62 -122 -139q0 -16 10 -26.5t29 -10.5q38 0 64 29h3l-6 -71q-31 -19 -76 -19t-71 23t-26 64zM379 621l-133 -293h265z" />
    <glyph glyph-name="Gcircumflex.salt" horiz-adv-x="778" 
d="M440 704q-133 0 -213 -90t-80 -230q0 -144 81 -231t211 -87q115 0 184 63v181h-187v80h275v-308q-114 -95 -275 -95q-168 0 -273.5 109.5t-105.5 287.5q0 170 105 285.5t277 115.5q143 0 245 -71l-12 -101h-3q-90 91 -229 91zM514 824l-90 76l-87 -76h-52l102 131h77
l101 -131h-51z" />
    <glyph glyph-name="Gbreve.salt" horiz-adv-x="778" 
d="M440 704q-133 0 -213 -90t-80 -230q0 -144 81 -231t211 -87q115 0 184 63v181h-187v80h275v-308q-114 -95 -275 -95q-168 0 -273.5 109.5t-105.5 287.5q0 170 105 285.5t277 115.5q143 0 245 -71l-12 -101h-3q-90 91 -229 91zM426 883q75 0 80 72h43q0 -55 -30 -93
t-93 -38q-65 0 -94.5 37.5t-29.5 93.5h43q5 -72 81 -72z" />
    <glyph glyph-name="Gdotaccent.salt" horiz-adv-x="778" 
d="M440 704q-133 0 -213 -90t-80 -230q0 -144 81 -231t211 -87q115 0 184 63v181h-187v80h275v-308q-114 -95 -275 -95q-168 0 -273.5 109.5t-105.5 287.5q0 170 105 285.5t277 115.5q143 0 245 -71l-12 -101h-3q-90 91 -229 91zM424 941q24 0 38.5 -14.5t14.5 -37.5
t-14.5 -37.5t-37.5 -14.5q-24 0 -38 14t-14 38q0 23 14 37.5t37 14.5z" />
    <glyph glyph-name="Gcommaaccent.salt" horiz-adv-x="778" 
d="M440 704q-133 0 -213 -90t-80 -230q0 -144 81 -231t211 -87q115 0 184 63v181h-187v80h275v-308q-114 -95 -275 -95q-168 0 -273.5 109.5t-105.5 287.5q0 170 105 285.5t277 115.5q143 0 245 -71l-12 -101h-3q-90 91 -229 91zM470 -63q13 -23 13 -54q0 -27 -18 -54.5
t-65 -65.5h-49q62 70 62 117q0 18 -13 40z" />
    <glyph glyph-name="IJ.salt" horiz-adv-x="691" 
d="M187 0h-85v772h85v-772zM595 772v-517q0 -122 -63.5 -190.5t-174.5 -68.5q-42 0 -77 13l-8 94q32 -29 86 -29q70 0 111 48t41 138v512h85z" />
    <glyph glyph-name="Jcircumflex.salt" horiz-adv-x="436" 
d="M339 772v-517q0 -122 -63.5 -190.5t-174.5 -68.5q-42 0 -77 13l-8 94q32 -29 86 -29q70 0 111 48t41 138v512h85zM386 824l-90 76l-87 -76h-52l102 131h77l101 -131h-51z" />
    <glyph glyph-name="Nacute.salt" horiz-adv-x="843" 
d="M102 0v786h4l550 -608v594h85v-798h-4l-550 610v-584h-85zM535 955l-130 -131h-51l78 131h103z" />
    <glyph glyph-name="Ncaron.salt" horiz-adv-x="843" 
d="M102 0v786h4l550 -608v594h85v-798h-4l-550 610v-584h-85zM271 955h52l89 -76l88 76h51l-101 -131h-77z" />
    <glyph glyph-name="Ntilde.salt" horiz-adv-x="843" 
d="M102 0v786h4l550 -608v594h85v-798h-4l-550 610v-584h-85zM352 866q-21 0 -35 -15t-16 -38l-35 8q5 54 29 85t58 31q24 0 68 -17t60 -17q44 0 51 54l35 -8q-5 -54 -29 -85.5t-58 -31.5q-24 0 -68 17t-60 17z" />
    <glyph glyph-name="Ncommaaccent.salt" horiz-adv-x="843" 
d="M102 0v786h4l550 -608v594h85v-798h-4l-550 610v-584h-85zM457 -63q13 -23 13 -54q0 -27 -18 -54.5t-65 -65.5h-49q62 70 62 117q0 18 -13 40z" />
    <glyph glyph-name="Eng.salt" horiz-adv-x="843" 
d="M102 0v786h4l550 -608v594h85v-819q0 -89 -44.5 -139.5t-123.5 -50.5q-48 0 -87 21l-11 89q36 -33 88 -33q43 0 68 31.5t25 91.5v101l-469 520v-584h-85z" />
    <glyph glyph-name="Wgrave.salt" horiz-adv-x="1083" 
d="M7 772h95l217 -588l224 610h4l203 -611l231 589h95l-326 -804h-4l-203 599l-226 -599h-4zM550 826l-130 131h103l78 -131h-51z" />
    <glyph glyph-name="Wacute.salt" horiz-adv-x="1083" 
d="M7 772h95l217 -588l224 610h4l203 -611l231 589h95l-326 -804h-4l-203 599l-226 -599h-4zM666 957l-130 -131h-51l78 131h103z" />
    <glyph glyph-name="Wcircumflex.salt" horiz-adv-x="1083" 
d="M7 772h95l217 -588l224 610h4l203 -611l231 589h95l-326 -804h-4l-203 599l-226 -599h-4zM632 826l-90 76l-87 -76h-52l102 131h77l101 -131h-51z" />
    <glyph glyph-name="Wdieresis.salt" horiz-adv-x="1083" 
d="M7 772h95l217 -588l224 610h4l203 -611l231 589h95l-326 -804h-4l-203 599l-226 -599h-4zM441 943q23 0 37 -14.5t14 -36.5q0 -23 -14 -37t-36 -14q-23 0 -37 14t-14 37t14 37t36 14zM643 943q23 0 37 -14.5t14 -36.5t-14 -36.5t-36 -14.5q-24 0 -37.5 14t-13.5 37t14 37
t36 14z" />
    <glyph glyph-name="agrave.sc.salt" horiz-adv-x="551" 
d="M456 0l-73 165h-211l-77 -165h-91l277 545h4l262 -545h-91zM281 401l-81 -171h159zM291 610l-134 162h97l80 -162h-43z" />
    <glyph glyph-name="aacute.sc.salt" horiz-adv-x="551" 
d="M456 0l-73 165h-211l-77 -165h-91l277 545h4l262 -545h-91zM281 401l-81 -171h159zM409 772l-134 -162h-43l80 162h97z" />
    <glyph glyph-name="acircumflex.sc.salt" horiz-adv-x="551" 
d="M456 0l-73 165h-211l-77 -165h-91l277 545h4l262 -545h-91zM281 401l-81 -171h159zM367 610l-85 93l-83 -93h-48l105 162h54l105 -162h-48z" />
    <glyph glyph-name="atilde.sc.salt" horiz-adv-x="551" 
d="M456 0l-73 165h-211l-77 -165h-91l277 545h4l262 -545h-91zM281 401l-81 -171h159zM226 672q-21 0 -35 -15t-16 -38l-35 7q5 54 30 85.5t60 31.5q23 0 65 -17t57 -17q21 0 34.5 15t16.5 39l35 -8q-6 -55 -30.5 -86t-59.5 -31q-23 0 -65 17t-57 17z" />
    <glyph glyph-name="adieresis.sc.salt" horiz-adv-x="551" 
d="M456 0l-73 165h-211l-77 -165h-91l277 545h4l262 -545h-91zM281 401l-81 -171h159zM192 737q22 0 36 -14t14 -36t-13.5 -35.5t-35.5 -13.5q-23 0 -36.5 13t-13.5 36t13.5 36.5t35.5 13.5zM374 737q22 0 36 -13.5t14 -36.5q0 -22 -13.5 -35.5t-35.5 -13.5q-23 0 -36.5 13
t-13.5 36q0 22 13.5 36t35.5 14z" />
    <glyph glyph-name="amacron.sc.salt" horiz-adv-x="551" 
d="M456 0l-73 165h-211l-77 -165h-91l277 545h4l262 -545h-91zM281 401l-81 -171h159zM416 719v-64h-267v64h267z" />
    <glyph glyph-name="abreve.sc.salt" horiz-adv-x="551" 
d="M456 0l-73 165h-211l-77 -165h-91l277 545h4l262 -545h-91zM281 401l-81 -171h159zM283 679q80 0 80 86h43q0 -66 -29.5 -107t-93.5 -41q-124 0 -124 148h43q0 -86 81 -86z" />
    <glyph glyph-name="aring.sc.salt" horiz-adv-x="551" 
d="M456 0l-73 165h-211l-77 -165h-91l277 545h4l262 -545h-91zM281 401l-81 -171h159zM184 696q0 41 29 70.5t70 29.5t70.5 -29.5t29.5 -70.5t-29.5 -70t-70.5 -29t-70 29.5t-29 69.5zM227 696q0 -23 16.5 -39.5t39.5 -16.5q24 0 40.5 16.5t16.5 39.5q0 24 -16.5 40.5
t-40.5 16.5q-23 0 -39.5 -16.5t-16.5 -40.5z" />
    <glyph glyph-name="aogonek.sc.salt" horiz-adv-x="551" 
d="M357 -150q0 34 21.5 66.5t77.5 83.5l-73 165h-211l-77 -165h-91l277 545h4l262 -545q-68 -42 -92.5 -73.5t-24.5 -65.5q0 -16 10 -26.5t29 -10.5q38 0 64 29h3l-6 -71q-31 -19 -76 -19t-71 23t-26 64zM281 401l-81 -171h159z" />
    <glyph glyph-name="gcircumflex.sc.salt" horiz-adv-x="579" 
d="M321 457q-87 0 -138.5 -55.5t-51.5 -142.5q0 -91 53 -145t137 -54q70 0 116 43v104h-116v74h198v-216q-81 -78 -204 -78q-118 0 -193.5 75t-75.5 198q0 116 75 193.5t198 77.5q108 0 181 -51l-15 -86h-3q-62 63 -161 63zM388 610l-85 93l-83 -93h-48l105 162h54l105 -162
h-48z" />
    <glyph glyph-name="gbreve.sc.salt" horiz-adv-x="579" 
d="M321 457q-87 0 -138.5 -55.5t-51.5 -142.5q0 -91 53 -145t137 -54q70 0 116 43v104h-116v74h198v-216q-81 -78 -204 -78q-118 0 -193.5 75t-75.5 198q0 116 75 193.5t198 77.5q108 0 181 -51l-15 -86h-3q-62 63 -161 63zM304 679q80 0 80 86h43q0 -66 -29.5 -107
t-93.5 -41q-124 0 -124 148h43q0 -86 81 -86z" />
    <glyph glyph-name="gdotaccent.sc.salt" horiz-adv-x="579" 
d="M321 457q-87 0 -138.5 -55.5t-51.5 -142.5q0 -91 53 -145t137 -54q70 0 116 43v104h-116v74h198v-216q-81 -78 -204 -78q-118 0 -193.5 75t-75.5 198q0 116 75 193.5t198 77.5q108 0 181 -51l-15 -86h-3q-62 63 -161 63zM302 744q25 0 40 -15t15 -39t-15 -39t-39 -15
q-25 0 -39.5 14.5t-14.5 39.5q0 24 14.5 39t38.5 15z" />
    <glyph glyph-name="gcommaaccent.sc.salt" horiz-adv-x="579" 
d="M321 457q-87 0 -138.5 -55.5t-51.5 -142.5q0 -91 53 -145t137 -54q70 0 116 43v104h-116v74h198v-216q-81 -78 -204 -78q-118 0 -193.5 75t-75.5 198q0 116 75 193.5t198 77.5q108 0 181 -51l-15 -86h-3q-62 63 -161 63zM348 -63q13 -23 13 -54q0 -27 -18 -54.5
t-65 -65.5h-49q62 70 62 117q0 18 -13 40z" />
    <glyph glyph-name="ij.sc.salt" horiz-adv-x="612" 
d="M175 0h-84v518h84v-518zM526 518v-312q0 -99 -51.5 -156t-141.5 -57q-47 0 -76 14l-8 89q32 -26 77 -26q54 0 85 37t31 106v305h84z" />
    <glyph glyph-name="jcircumflex.sc.salt" horiz-adv-x="376" 
d="M290 518v-312q0 -99 -51.5 -156t-141.5 -57q-47 0 -76 14l-8 89q32 -26 77 -26q54 0 85 37t31 106v305h84zM332 610l-85 93l-83 -93h-48l105 162h54l105 -162h-48z" />
    <glyph glyph-name="nacute.sc.salt" horiz-adv-x="673" 
d="M577 -24l-400 379v-355h-84v537h3l400 -382v363h84v-542h-3zM455 772l-134 -162h-43l80 162h97z" />
    <glyph glyph-name="ncaron.sc.salt" horiz-adv-x="673" 
d="M577 -24l-400 379v-355h-84v537h3l400 -382v363h84v-542h-3zM198 772h48l84 -94l84 94h48l-105 -162h-54z" />
    <glyph glyph-name="ntilde.sc.salt" horiz-adv-x="673" 
d="M577 -24l-400 379v-355h-84v537h3l400 -382v363h84v-542h-3zM273 672q-21 0 -35 -15t-16 -38l-35 7q5 54 30 85.5t60 31.5q23 0 65 -17t57 -17q21 0 34.5 15t16.5 39l35 -8q-6 -55 -30.5 -86t-59.5 -31q-23 0 -65 17t-57 17z" />
    <glyph glyph-name="ncommaaccent.sc.salt" horiz-adv-x="673" 
d="M577 -24l-400 379v-355h-84v537h3l400 -382v363h84v-542h-3zM377 -63q13 -23 13 -54q0 -27 -18 -54.5t-65 -65.5h-49q62 70 62 117q0 18 -13 40z" />
    <glyph glyph-name="eng.sc.salt" horiz-adv-x="673" 
d="M496 -57v110l-319 302v-355h-84v537h3l400 -382v363h84v-580q0 -82 -40 -128.5t-112 -46.5q-40 0 -74 17l-8 79q26 -25 71 -25q37 0 58 28t21 81z" />
    <glyph glyph-name="wgrave.sc.salt" horiz-adv-x="779" 
d="M534 -32l-144 375l-159 -375h-4l-218 550h86l139 -364l155 383h6l141 -385l148 366h86l-232 -550h-4zM398 610l-134 162h97l80 -162h-43z" />
    <glyph glyph-name="wacute.sc.salt" horiz-adv-x="779" 
d="M534 -32l-144 375l-159 -375h-4l-218 550h86l139 -364l155 383h6l141 -385l148 366h86l-232 -550h-4zM516 772l-134 -162h-43l80 162h97z" />
    <glyph glyph-name="wcircumflex.sc.salt" horiz-adv-x="779" 
d="M534 -32l-144 375l-159 -375h-4l-218 550h86l139 -364l155 383h6l141 -385l148 366h86l-232 -550h-4zM474 610l-85 93l-83 -93h-48l105 162h54l105 -162h-48z" />
    <glyph glyph-name="wdieresis.sc.salt" horiz-adv-x="779" 
d="M534 -32l-144 375l-159 -375h-4l-218 550h86l139 -364l155 383h6l141 -385l148 366h86l-232 -550h-4zM299 737q22 0 36 -14t14 -36t-13.5 -35.5t-35.5 -13.5q-23 0 -36.5 13t-13.5 36t13.5 36.5t35.5 13.5zM481 737q23 0 36.5 -13.5t13.5 -36.5q0 -22 -13.5 -35.5
t-35.5 -13.5q-23 0 -36.5 13t-13.5 36q0 22 13.5 36t35.5 14z" />
    <glyph glyph-name="agrave.salt" horiz-adv-x="592" 
d="M516 10l-81 -24q-8 25 -10 53q-63 -51 -150 -51q-104 0 -165 70.5t-61 177.5q0 121 70 194t183 73q71 0 133 -33l70 10v-375q0 -54 11 -95zM291 59q87 0 132 54v281q-44 38 -114 38q-82 0 -128.5 -52t-46.5 -142q0 -80 42 -129.5t115 -49.5zM304 577l-134 162h97l80 -162
h-43z" />
    <glyph glyph-name="aacute.salt" horiz-adv-x="592" 
d="M516 10l-81 -24q-8 25 -10 53q-63 -51 -150 -51q-104 0 -165 70.5t-61 177.5q0 121 70 194t183 73q71 0 133 -33l70 10v-375q0 -54 11 -95zM291 59q87 0 132 54v281q-44 38 -114 38q-82 0 -128.5 -52t-46.5 -142q0 -80 42 -129.5t115 -49.5zM421 739l-134 -162h-43
l80 162h97z" />
    <glyph glyph-name="acircumflex.salt" horiz-adv-x="592" 
d="M516 10l-81 -24q-8 25 -10 53q-63 -51 -150 -51q-104 0 -165 70.5t-61 177.5q0 121 70 194t183 73q71 0 133 -33l70 10v-375q0 -54 11 -95zM291 59q87 0 132 54v281q-44 38 -114 38q-82 0 -128.5 -52t-46.5 -142q0 -80 42 -129.5t115 -49.5zM380 577l-85 93l-83 -93h-48
l105 162h54l105 -162h-48z" />
    <glyph glyph-name="atilde.salt" horiz-adv-x="592" 
d="M516 10l-81 -24q-8 25 -10 53q-63 -51 -150 -51q-104 0 -165 70.5t-61 177.5q0 121 70 194t183 73q71 0 133 -33l70 10v-375q0 -54 11 -95zM291 59q87 0 132 54v281q-44 38 -114 38q-82 0 -128.5 -52t-46.5 -142q0 -80 42 -129.5t115 -49.5zM239 639q-21 0 -35 -15
t-16 -38l-35 7q5 54 30 85.5t60 31.5q23 0 65 -17t57 -17q21 0 34.5 15t16.5 39l35 -8q-6 -55 -30.5 -86t-59.5 -31q-23 0 -65 17t-57 17z" />
    <glyph glyph-name="adieresis.salt" horiz-adv-x="592" 
d="M516 10l-81 -24q-8 25 -10 53q-63 -51 -150 -51q-104 0 -165 70.5t-61 177.5q0 121 70 194t183 73q71 0 133 -33l70 10v-375q0 -54 11 -95zM291 59q87 0 132 54v281q-44 38 -114 38q-82 0 -128.5 -52t-46.5 -142q0 -80 42 -129.5t115 -49.5zM204 704q22 0 36 -14t14 -36
t-13.5 -35.5t-35.5 -13.5q-23 0 -36.5 13t-13.5 36t13.5 36.5t35.5 13.5zM386 704q22 0 36 -14t14 -36t-13.5 -35.5t-35.5 -13.5q-23 0 -36.5 13t-13.5 36q0 22 13.5 36t35.5 14z" />
    <glyph glyph-name="amacron.salt" horiz-adv-x="592" 
d="M516 10l-81 -24q-8 25 -10 53q-63 -51 -150 -51q-104 0 -165 70.5t-61 177.5q0 121 70 194t183 73q71 0 133 -33l70 10v-375q0 -54 11 -95zM291 59q87 0 132 54v281q-44 38 -114 38q-82 0 -128.5 -52t-46.5 -142q0 -80 42 -129.5t115 -49.5zM429 686v-64h-267v64h267z
" />
    <glyph glyph-name="abreve.salt" horiz-adv-x="592" 
d="M516 10l-81 -24q-8 25 -10 53q-63 -51 -150 -51q-104 0 -165 70.5t-61 177.5q0 121 70 194t183 73q71 0 133 -33l70 10v-375q0 -54 11 -95zM291 59q87 0 132 54v281q-44 38 -114 38q-82 0 -128.5 -52t-46.5 -142q0 -80 42 -129.5t115 -49.5zM296 646q80 0 80 86h43
q0 -66 -29.5 -107t-93.5 -41q-124 0 -124 148h43q0 -86 81 -86z" />
    <glyph glyph-name="aring.salt" horiz-adv-x="592" 
d="M516 10l-81 -24q-8 25 -10 53q-63 -51 -150 -51q-104 0 -165 70.5t-61 177.5q0 121 70 194t183 73q71 0 133 -33l70 10v-375q0 -54 11 -95zM291 59q87 0 132 54v281q-44 38 -114 38q-82 0 -128.5 -52t-46.5 -142q0 -80 42 -129.5t115 -49.5zM196 663q0 41 29 70.5
t70 29.5t70.5 -29.5t29.5 -70.5t-29.5 -70t-70.5 -29t-70 29t-29 70zM239 663q0 -23 16.5 -39.5t39.5 -16.5q24 0 40.5 16.5t16.5 39.5q0 24 -16.5 40.5t-40.5 16.5q-23 0 -39.5 -16.5t-16.5 -40.5z" />
    <glyph glyph-name="aogonek.salt" horiz-adv-x="592" 
d="M516 10q-65 -51 -88 -83.5t-23 -65.5q0 -16 10 -26.5t29 -10.5q38 0 64 29h3l-6 -71q-31 -19 -76 -19t-71 23t-26 64q0 34 21 66.5t77 85.5q-5 22 -5 37q-63 -51 -150 -51q-104 0 -165 70.5t-61 177.5q0 121 70 194t183 73q71 0 133 -33l70 10v-375q0 -54 11 -95zM291 59
q87 0 132 54v281q-44 38 -114 38q-82 0 -128.5 -52t-46.5 -142q0 -80 42 -129.5t115 -49.5z" />
    <glyph glyph-name="egrave.salt" horiz-adv-x="543" 
d="M489 234l-363 -9q4 -82 50.5 -126.5t121.5 -44.5q106 0 174 75h4l-11 -90q-63 -56 -174 -56q-107 0 -174.5 64.5t-67.5 190.5q0 112 65.5 188t170.5 76q95 0 151 -59.5t56 -157.5q0 -29 -3 -51zM284 436q-63 0 -104 -42t-51 -113l287 8q0 65 -34.5 106t-97.5 41zM288 577
l-134 162h97l80 -162h-43z" />
    <glyph glyph-name="eacute.salt" horiz-adv-x="543" 
d="M489 234l-363 -9q4 -82 50.5 -126.5t121.5 -44.5q106 0 174 75h4l-11 -90q-63 -56 -174 -56q-107 0 -174.5 64.5t-67.5 190.5q0 112 65.5 188t170.5 76q95 0 151 -59.5t56 -157.5q0 -29 -3 -51zM284 436q-63 0 -104 -42t-51 -113l287 8q0 65 -34.5 106t-97.5 41zM406 739
l-134 -162h-43l80 162h97z" />
    <glyph glyph-name="ecircumflex.salt" horiz-adv-x="543" 
d="M489 234l-363 -9q4 -82 50.5 -126.5t121.5 -44.5q106 0 174 75h4l-11 -90q-63 -56 -174 -56q-107 0 -174.5 64.5t-67.5 190.5q0 112 65.5 188t170.5 76q95 0 151 -59.5t56 -157.5q0 -29 -3 -51zM284 436q-63 0 -104 -42t-51 -113l287 8q0 65 -34.5 106t-97.5 41zM364 577
l-85 93l-83 -93h-48l105 162h54l105 -162h-48z" />
    <glyph glyph-name="edieresis.salt" horiz-adv-x="543" 
d="M489 234l-363 -9q4 -82 50.5 -126.5t121.5 -44.5q106 0 174 75h4l-11 -90q-63 -56 -174 -56q-107 0 -174.5 64.5t-67.5 190.5q0 112 65.5 188t170.5 76q95 0 151 -59.5t56 -157.5q0 -29 -3 -51zM284 436q-63 0 -104 -42t-51 -113l287 8q0 65 -34.5 106t-97.5 41zM189 704
q22 0 36 -14t14 -36t-13.5 -35.5t-35.5 -13.5q-23 0 -36.5 13t-13.5 36t13.5 36.5t35.5 13.5zM371 704q23 0 36.5 -14t13.5 -36t-13.5 -35.5t-35.5 -13.5q-23 0 -36.5 13t-13.5 36q0 22 13.5 36t35.5 14z" />
    <glyph glyph-name="emacron.salt" horiz-adv-x="543" 
d="M489 234l-363 -9q4 -82 50.5 -126.5t121.5 -44.5q106 0 174 75h4l-11 -90q-63 -56 -174 -56q-107 0 -174.5 64.5t-67.5 190.5q0 112 65.5 188t170.5 76q95 0 151 -59.5t56 -157.5q0 -29 -3 -51zM284 436q-63 0 -104 -42t-51 -113l287 8q0 65 -34.5 106t-97.5 41zM413 686
v-64h-267v64h267z" />
    <glyph glyph-name="ebreve.salt" horiz-adv-x="543" 
d="M489 234l-363 -9q4 -82 50.5 -126.5t121.5 -44.5q106 0 174 75h4l-11 -90q-63 -56 -174 -56q-107 0 -174.5 64.5t-67.5 190.5q0 112 65.5 188t170.5 76q95 0 151 -59.5t56 -157.5q0 -29 -3 -51zM284 436q-63 0 -104 -42t-51 -113l287 8q0 65 -34.5 106t-97.5 41zM280 646
q80 0 80 86h43q0 -66 -29.5 -107t-93.5 -41q-124 0 -124 148h43q0 -86 81 -86z" />
    <glyph glyph-name="edotaccent.salt" horiz-adv-x="543" 
d="M489 234l-363 -9q4 -82 50.5 -126.5t121.5 -44.5q106 0 174 75h4l-11 -90q-63 -56 -174 -56q-107 0 -174.5 64.5t-67.5 190.5q0 112 65.5 188t170.5 76q95 0 151 -59.5t56 -157.5q0 -29 -3 -51zM284 436q-63 0 -104 -42t-51 -113l287 8q0 65 -34.5 106t-97.5 41zM279 711
q25 0 40 -15t15 -39t-15 -39t-39 -15q-25 0 -39.5 14.5t-14.5 39.5q0 24 14.5 39t38.5 15z" />
    <glyph glyph-name="ecaron.salt" horiz-adv-x="543" 
d="M489 234l-363 -9q4 -82 50.5 -126.5t121.5 -44.5q106 0 174 75h4l-11 -90q-63 -56 -174 -56q-107 0 -174.5 64.5t-67.5 190.5q0 112 65.5 188t170.5 76q95 0 151 -59.5t56 -157.5q0 -29 -3 -51zM284 436q-63 0 -104 -42t-51 -113l287 8q0 65 -34.5 106t-97.5 41zM148 739
h48l84 -94l84 94h48l-105 -162h-54z" />
    <glyph glyph-name="eogonek.salt" horiz-adv-x="543" 
d="M476 129l-11 -90q-75 -68 -100 -104t-25 -74q0 -16 10 -26.5t29 -10.5q39 0 64 29h3l-6 -71q-31 -19 -75 -19q-46 0 -72 22.5t-26 64.5q0 33 17 63.5t61 73.5q-23 -4 -54 -4q-107 0 -174.5 64.5t-67.5 190.5q0 112 65.5 188t170.5 76q95 0 151 -59.5t56 -157.5
q0 -29 -3 -50l-363 -9q4 -83 50 -127.5t122 -44.5q106 0 174 75h4zM284 436q-63 0 -104.5 -43t-51.5 -113l288 7q0 66 -34.5 107.5t-97.5 41.5z" />
    </font>
</defs>
</svg>
