<?xml version="1.0" standalone="no"?>
<!DOCTYPE svg PUBLIC "-//W3C//DTD SVG 1.1//EN" "http://www.w3.org/Graphics/SVG/1.1/DTD/svg11.dtd" >
<svg xmlns="http://www.w3.org/2000/svg" xmlns:xlink="http://www.w3.org/1999/xlink" version="1.1">
<metadata>
Created by FontForge 20150318 at Thu Jul  2 14:35:51 2015
 By uniteet7
Copyright (c) 2013 Monotype GmbH.
</metadata>
<defs>
<font id="LinotypeMetroNovaProMedium" horiz-adv-x="604" >
  <font-face 
    font-family="LinotypeMetroNovaProMedium"
    font-weight="500"
    font-stretch="normal"
    units-per-em="1000"
    panose-1="2 12 6 4 2 2 3 2 2 3"
    ascent="770"
    descent="-230"
    x-height="490"
    cap-height="772"
    bbox="-222 -237 1161 1010"
    underline-thickness="50"
    underline-position="-50"
    unicode-range="U+000D-FB02"
  />
<missing-glyph horiz-adv-x="561" 
d="M199 97q24 0 39.5 -14.5t15.5 -38.5q0 -25 -15 -40t-39 -15q-25 0 -40.5 15t-15.5 40q0 24 15.5 38.5t39.5 14.5zM238 181l-83 -17v161q88 4 138 37.5t50 87.5q0 45 -33 72t-89 27q-44 0 -83 -15l14 87q36 10 83 10q90 0 146 -46t56 -128q0 -75 -54 -126t-145 -66v-84z
M0 -128v870h561v-870h-561zM71 672v-730h419v730h-419z" />
    <glyph glyph-name=".notdef" horiz-adv-x="561" 
d="M199 97q24 0 39.5 -14.5t15.5 -38.5q0 -25 -15 -40t-39 -15q-25 0 -40.5 15t-15.5 40q0 24 15.5 38.5t39.5 14.5zM238 181l-83 -17v161q88 4 138 37.5t50 87.5q0 45 -33 72t-89 27q-44 0 -83 -15l14 87q36 10 83 10q90 0 146 -46t56 -128q0 -75 -54 -126t-145 -66v-84z
M0 -128v870h561v-870h-561zM71 672v-730h419v730h-419z" />
    <glyph glyph-name=".null" horiz-adv-x="0" 
 />
    <glyph glyph-name="nonmarkingreturn" horiz-adv-x="333" 
 />
    <glyph glyph-name="CR" unicode="&#xd;" horiz-adv-x="220" 
 />
    <glyph glyph-name="space" unicode=" " horiz-adv-x="220" 
 />
    <glyph glyph-name="exclam" unicode="!" horiz-adv-x="298" 
d="M145 118q30 0 48.5 -18.5t18.5 -47.5t-18.5 -47.5t-47.5 -18.5q-30 0 -48 18t-18 48q0 29 18 47.5t47 18.5zM83 760l137 21q-11 -295 -62 -566l-27 5q-20 110 -33 260.5t-15 279.5z" />
    <glyph glyph-name="quotedbl" unicode="&#x22;" horiz-adv-x="378" 
d="M303 520l-56 -10q-23 127 -23 241h103q0 -101 -24 -231zM131 520l-56 -10q-23 127 -23 241h103q0 -101 -24 -231z" />
    <glyph glyph-name="numbersign" unicode="#" horiz-adv-x="598" 
d="M89 470l11 79h80l53 203h79l-54 -203h151l53 203h79l-54 -203h81l-11 -79h-90l-48 -183h91l-12 -79h-100l-54 -208h-78l54 208h-151l-54 -208h-78l54 208h-61l12 79h69l48 183h-70zM238 470l-48 -183h150l48 183h-150z" />
    <glyph glyph-name="dollar" unicode="$" 
d="M329 839v-70q90 -4 161 -37v-122q-79 55 -161 66v-256q118 -50 165.5 -104.5t47.5 -135.5q0 -83 -58 -135t-155 -64v-131h-64v127q-117 3 -195 58l-9 137q92 -87 204 -97v265q-113 48 -156.5 100t-43.5 133q0 77 54.5 131t145.5 64v71h64zM442 175q0 43 -25 75.5
t-88 62.5v-238q53 6 83 32.5t30 67.5zM165 574q0 -41 21.5 -69.5t78.5 -56.5v228q-49 -7 -74.5 -34.5t-25.5 -67.5z" />
    <glyph glyph-name="percent" unicode="%" horiz-adv-x="793" 
d="M668 752l-459 -752h-78l458 752h79zM191 379q-62 0 -99.5 40t-37.5 112q0 77 53 139.5t126 62.5q63 0 100 -40t37 -112q0 -78 -52.5 -140t-126.5 -62zM230 663q-44 0 -73 -41t-29 -98q0 -37 17 -56.5t49 -19.5q44 0 73.5 41.5t29.5 98.5q0 75 -67 75zM559 19
q-62 0 -99.5 40t-37.5 112q0 77 53 139.5t126 62.5q63 0 100 -40t37 -112q0 -78 -52.5 -140t-126.5 -62zM598 303q-44 0 -73 -41t-29 -98q0 -37 17 -56.5t49 -19.5q44 0 73.5 41.5t29.5 98.5q0 75 -67 75z" />
    <glyph glyph-name="ampersand" unicode="&#x26;" horiz-adv-x="813" 
d="M413 320l7 133q208 12 366 66l-2 -127q-87 -8 -131 -14q12 -46 12 -90q0 -136 -87 -220.5t-230 -84.5q-131 0 -210 71t-79 179q0 155 151 224q-72 59 -72 136q0 83 70 134.5t177 51.5q73 0 141 -17l-12 -124q-53 25 -126 25q-64 0 -102.5 -31.5t-38.5 -78.5
q0 -33 13.5 -58.5t52.5 -56.5v-3q-140 -66 -140 -181q0 -69 49.5 -114.5t131.5 -45.5q99 0 155 53.5t56 146.5q0 32 -9 68q-90 -19 -143 -42z" />
    <glyph glyph-name="quotesingle" unicode="'" horiz-adv-x="206" 
d="M131 520l-56 -10q-23 127 -23 241h103q0 -101 -24 -231z" />
    <glyph glyph-name="parenleft" unicode="(" horiz-adv-x="356" 
d="M69 349q0 146 38.5 253t119.5 200h77q-76 -107 -109.5 -211.5t-33.5 -241.5t33.5 -241.5t109.5 -211.5h-77q-81 93 -119.5 200t-38.5 253z" />
    <glyph glyph-name="parenright" unicode=")" horiz-adv-x="356" 
d="M287 349q0 -146 -38.5 -253t-119.5 -200h-77q76 107 109.5 211.5t33.5 241.5t-33.5 241.5t-109.5 211.5h77q81 -93 119.5 -200t38.5 -253z" />
    <glyph glyph-name="asterisk" unicode="*" horiz-adv-x="456" 
d="M228 757q41 0 41 -27q0 -37 -32 -121h-18q-31 82 -31 121q0 27 40 27zM228 371q-40 0 -40 28q0 40 31 120h18q32 -83 32 -120q0 -28 -41 -28zM54 633q0 15 12.5 33.5t27.5 18.5q7 0 13 -3q39 -25 88 -88l-9 -16q-89 16 -120 33q-12 6 -12 22zM94 444q-14 0 -27 18.5
t-13 33.5q0 16 12 22q31 17 120 33l9 -16q-49 -63 -88 -88q-6 -3 -13 -3zM403 497q0 -15 -13 -34t-28 -19q-6 0 -12 3q-36 22 -89 88l9 16q91 -16 120 -33q13 -9 13 -21zM362 685q14 0 27.5 -18.5t13.5 -33.5t-13 -22q-29 -17 -120 -33l-9 16q53 66 89 88q6 3 12 3z" />
    <glyph glyph-name="plus" unicode="+" horiz-adv-x="587" 
d="M247 493h93v-187h191v-96h-191v-187h-93v187h-191v96h191v187z" />
    <glyph glyph-name="comma" unicode="," horiz-adv-x="257" 
d="M147 127q48 -41 48 -115q0 -56 -35 -95.5t-93 -60.5l-13 23q57 32 57 92q0 57 -55 95z" />
    <glyph glyph-name="hyphen" unicode="-" horiz-adv-x="324" 
d="M289 316v-96h-254v96h254z" />
    <glyph glyph-name="period" unicode="." horiz-adv-x="254" 
d="M126 118q30 0 48.5 -18.5t18.5 -47.5t-18 -47.5t-48 -18.5t-48 18t-18 48q0 29 18 47.5t47 18.5z" />
    <glyph glyph-name="slash" unicode="/" horiz-adv-x="448" 
d="M427 780l-309 -810h-96l308 810h97z" />
    <glyph glyph-name="zero" unicode="0" 
d="M298 -16q-123 0 -193 103.5t-70 291.5t74 288.5t196 100.5q126 0 194.5 -99t68.5 -292q0 -186 -73 -289.5t-197 -103.5zM298 84q154 0 154 297q0 143 -39 217t-111 74q-71 0 -111 -74t-40 -215q0 -145 38.5 -222t108.5 -77z" />
    <glyph glyph-name="one" unicode="1" 
d="M372 0h-115v651l-125 -13l20 114h220v-752z" />
    <glyph glyph-name="two" unicode="2" 
d="M97 718q86 47 199 47q102 0 163 -57t61 -146q0 -67 -24.5 -121.5t-81.5 -123.5q-80 -96 -209 -215h346l-12 -102h-498v53q71 66 155 157t136 159q72 91 72 165q0 54 -35 87.5t-102 33.5q-102 0 -195 -68z" />
    <glyph glyph-name="three" unicode="3" 
d="M375 396q139 -51 139 -185q0 -105 -75.5 -164.5t-207.5 -59.5q-89 0 -159 27l-6 114q64 -34 154 -34q83 0 130 33.5t47 90.5q0 56 -42 88.5t-118 32.5q-75 0 -132 -12l26 112q36 -3 82 -3q80 0 125.5 32t45.5 91q0 46 -34.5 75.5t-93.5 29.5q-90 0 -154 -41l21 119
q66 23 143 23q108 0 169.5 -52t61.5 -137q0 -121 -122 -180z" />
    <glyph glyph-name="four" unicode="4" 
d="M373 0v232h-358v76l345 444h122v-423h91v-97h-91v-232h-109zM124 329h249v317z" />
    <glyph glyph-name="five" unicode="5" 
d="M527 752l-14 -101h-303l-22 -168q7 1 32 1q141 0 222 -66t81 -175q0 -137 -104.5 -213.5t-295.5 -76.5q-27 0 -57 5l10 110q33 -6 74 -6q126 0 194 46t68 129q0 70 -56.5 112.5t-166.5 42.5q-57 0 -112 -11l46 371h404z" />
    <glyph glyph-name="six" unicode="6" 
d="M508 666q-143 -5 -232.5 -74t-120.5 -184q70 54 167 54q110 0 177 -64t67 -170q0 -104 -73.5 -173t-185.5 -69q-129 0 -199 81.5t-70 215.5q0 213 127.5 350t361.5 147zM297 379q-94 0 -157 -60q-1 -12 -1 -36q0 -90 45 -142.5t123 -52.5q64 0 105 40t41 102
q0 67 -43 108t-113 41z" />
    <glyph glyph-name="seven" unicode="7" 
d="M69 752h474q-152 -423 -217 -752h-139q99 367 218 642l-373 -9z" />
    <glyph glyph-name="eight" unicode="8" 
d="M550 193q0 -86 -70 -146t-178 -60q-113 0 -181 55.5t-68 145.5q0 142 163 200q-75 37 -106 82t-31 105q0 79 64 138t165 59q105 0 165.5 -55t60.5 -134q0 -127 -137 -187q77 -38 115 -86t38 -117zM435 203q0 47 -34.5 81t-108.5 61q-131 -47 -131 -142q0 -49 38 -82.5
t97 -33.5q63 0 101 32.5t38 83.5zM191 571q0 -46 30.5 -77.5t97.5 -57.5q109 49 109 133q0 47 -32.5 77t-84.5 30q-53 0 -86.5 -30t-33.5 -75z" />
    <glyph glyph-name="nine" unicode="9" 
d="M207 -26l-81 96q230 90 298 249q-53 -24 -115 -24q-123 0 -199 64t-76 172q0 101 70.5 170.5t179.5 69.5q129 0 201 -83t72 -218q0 -168 -85 -288.5t-265 -207.5zM331 373q68 0 116 24q6 35 6 73q0 91 -47.5 145.5t-125.5 54.5q-59 0 -97 -39.5t-38 -100.5
q0 -68 50.5 -112.5t135.5 -44.5z" />
    <glyph glyph-name="colon" unicode=":" horiz-adv-x="254" 
d="M126 501q30 0 48.5 -18.5t18.5 -47.5t-18 -47.5t-48 -18.5t-48 18t-18 48q0 29 18 47.5t47 18.5zM126 118q30 0 48.5 -18.5t18.5 -47.5t-18 -47.5t-48 -18.5t-48 18t-18 48q0 29 18 47.5t47 18.5z" />
    <glyph glyph-name="semicolon" unicode=";" horiz-adv-x="254" 
d="M146 127q48 -41 48 -115q0 -56 -35 -95.5t-93 -60.5l-13 23q57 32 57 92q0 57 -55 95zM126 501q30 0 48.5 -18.5t18.5 -47.5t-18 -47.5t-48 -18.5t-48 18t-18 48q0 29 18 47.5t47 18.5z" />
    <glyph glyph-name="less" unicode="&#x3c;" horiz-adv-x="587" 
d="M529 408l-387 -151l387 -150v-87l-470 189v97l470 189v-87z" />
    <glyph glyph-name="equal" unicode="=" horiz-adv-x="587" 
d="M542 397v-85h-497v85h497zM542 204v-85h-497v85h497z" />
    <glyph glyph-name="greater" unicode="&#x3e;" horiz-adv-x="587" 
d="M59 20v87l385 150l-385 151v87l470 -189v-97z" />
    <glyph glyph-name="question" unicode="?" horiz-adv-x="471" 
d="M136 118q29 0 47.5 -18.5t18.5 -47.5t-18 -47.5t-47 -18.5q-31 0 -49 18t-18 48q0 29 18.5 47.5t47.5 18.5zM182 227l-98 -21v198q110 5 173 47.5t63 111.5q0 58 -42 92.5t-114 34.5q-56 0 -101 -17l17 102q45 13 101 13q112 0 181.5 -57t69.5 -160q0 -93 -68 -156.5
t-182 -82.5v-105z" />
    <glyph glyph-name="at" unicode="@" horiz-adv-x="915" 
d="M669 450l-54 -272q-5 -32 -5 -51q0 -35 38 -35q61 0 101 52t40 142q0 132 -89 216t-229 84q-153 0 -249.5 -104t-96.5 -256q0 -156 97 -248t245 -92q135 0 223 68l34 -71q-104 -71 -258 -71q-185 0 -302.5 112.5t-117.5 301.5q0 118 52.5 217t150.5 158t222 59
q170 0 284 -102.5t114 -269.5q0 -129 -69 -202.5t-171 -73.5q-101 0 -111 77q-57 -71 -146 -71q-66 0 -103 44t-37 123q0 121 67.5 204t158.5 83q41 0 71.5 -21t42.5 -52l10 51h87zM559 335q-10 27 -34 44.5t-57 17.5q-61 0 -103 -58t-42 -140q0 -49 21.5 -76.5t62.5 -27.5
q72 0 121 76z" />
    <glyph glyph-name="A" unicode="A" horiz-adv-x="773" 
d="M4 0l347 768l88 14l330 -782h-131l-93 233h-314l-96 -233h-131zM392 623l-127 -299h247z" />
    <glyph glyph-name="B" unicode="B" horiz-adv-x="641" 
d="M558 589q0 -53 -28.5 -98.5t-83.5 -70.5q144 -47 144 -191q0 -103 -80 -166t-210 -63h-204v772h216q117 0 181.5 -51t64.5 -132zM212 356v-261h87q83 0 127 38t44 98q0 55 -41 90t-114 35h-103zM212 678v-234h90q69 0 105.5 35.5t36.5 88.5q0 48 -35.5 79t-102.5 31h-94z
" />
    <glyph glyph-name="C" unicode="C" horiz-adv-x="743" 
d="M684 716l-12 -137h-3q-80 94 -222 94q-120 0 -197.5 -83t-77.5 -204q0 -127 75.5 -206.5t196.5 -79.5q146 0 246 116h3l-13 -153q-104 -76 -246 -76q-169 0 -276 110.5t-107 290.5q0 163 110.5 280t277.5 117q147 0 245 -69z" />
    <glyph glyph-name="D" unicode="D" horiz-adv-x="769" 
d="M290 0h-194v772h196q200 0 312.5 -103t112.5 -273q0 -190 -110 -293t-317 -103zM212 666v-559h83q147 0 225 74.5t78 214.5q0 117 -80 193.5t-221 76.5h-85z" />
    <glyph glyph-name="E" unicode="E" horiz-adv-x="582" 
d="M212 669v-219h271v-97h-271v-251h317v-102h-433v772h428v-103h-312z" />
    <glyph glyph-name="F" unicode="F" horiz-adv-x="561" 
d="M529 772v-103h-317v-220h291v-102h-291v-347h-116v772h433z" />
    <glyph glyph-name="G" unicode="G" horiz-adv-x="773" 
d="M712 361v-276q-124 -98 -279 -98q-170 0 -276 108.5t-106 286.5q0 169 106.5 286t283.5 117q140 0 243 -68l-13 -134h-3q-88 94 -225 94q-124 0 -197.5 -81.5t-73.5 -212.5q0 -132 73 -211t192 -79q97 0 155 52v216h120z" />
    <glyph glyph-name="H" unicode="H" horiz-adv-x="796" 
d="M212 0h-116v772h116v-318h372v318h115v-772h-115v348h-372v-348z" />
    <glyph glyph-name="I" unicode="I" horiz-adv-x="308" 
d="M212 0h-116v772h116v-772z" />
    <glyph glyph-name="J" unicode="J" horiz-adv-x="308" 
d="M97 772h116v-636q0 -130 -19 -207t-63 -126l-162 -40l-4 11q76 56 104 128t28 224v646z" />
    <glyph glyph-name="K" unicode="K" horiz-adv-x="728" 
d="M212 0h-116v772h116v-362l328 362h155l-359 -376l389 -396h-161l-352 376v-376z" />
    <glyph glyph-name="L" unicode="L" horiz-adv-x="606" 
d="M96 0v772h116v-665h376v-107h-492z" />
    <glyph glyph-name="M" unicode="M" horiz-adv-x="1047" 
d="M96 0v772h128l296 -603l302 603h128v-772h-112v568l-283 -568h-68l-278 567v-567h-113z" />
    <glyph glyph-name="N" unicode="N" horiz-adv-x="880" 
d="M671 772h113v-772h-97l-478 588v-588h-113v772h98l477 -585v585z" />
    <glyph glyph-name="O" unicode="O" horiz-adv-x="853" 
d="M682 386q0 127 -72 210t-183 83q-112 0 -184 -83t-72 -210q0 -128 72 -210.5t184 -82.5t183.5 82.5t71.5 210.5zM802 386q0 -175 -106 -288t-269 -113q-165 0 -270.5 113t-105.5 288t106 288t270 113t269.5 -113t105.5 -288z" />
    <glyph glyph-name="P" unicode="P" horiz-adv-x="606" 
d="M212 0h-116v772h190q134 0 210.5 -62t76.5 -173q0 -126 -79 -190t-229 -64h-53v-283zM212 672v-288h63q184 0 184 148q0 67 -46.5 103.5t-131.5 36.5h-69z" />
    <glyph glyph-name="Q" unicode="Q" horiz-adv-x="858" 
d="M427 0q-43 0 -92 13v-1q19 -7 64 -27t86.5 -36t78.5 -26q66 -18 150 -21l-36 -114q-83 7 -163 36q-60 23 -147 67t-110 54q-55 23 -97 32l53 97q-75 56 -119 140t-44 182q0 170 106 280.5t270 110.5q167 0 273.5 -111.5t106.5 -284.5q0 -171 -107 -281t-273 -110z
M683 391q0 125 -72 205.5t-184 80.5q-110 0 -181 -79.5t-71 -201.5q0 -126 73.5 -211.5t178.5 -85.5q112 0 184 82.5t72 209.5z" />
    <glyph glyph-name="R" unicode="R" horiz-adv-x="677" 
d="M94 0v772h211q130 0 202.5 -57.5t72.5 -162.5q0 -80 -47.5 -135t-133.5 -81l274 -336h-147l-246 315q-15 -1 -47 -1h-23v-314h-116zM210 672v-278h17q233 0 233 147q0 63 -43.5 97t-125.5 34h-81z" />
    <glyph glyph-name="S" unicode="S" horiz-adv-x="561" 
d="M65 171q94 -82 197 -82q62 0 98 29.5t36 80.5q0 46 -33.5 82t-122.5 83q-100 53 -138.5 103.5t-38.5 129.5q0 82 61.5 136t158.5 54q94 0 176 -37v-130q-92 64 -168 64q-53 0 -81.5 -26t-28.5 -65q0 -45 29 -74.5t123 -77.5q100 -51 141 -106.5t41 -135.5
q0 -98 -72.5 -156.5t-189.5 -58.5q-109 0 -179 44l-12 143h3z" />
    <glyph glyph-name="T" unicode="T" horiz-adv-x="671" 
d="M393 0h-115v665h-263v107h640v-107h-262v-665z" />
    <glyph glyph-name="U" unicode="U" horiz-adv-x="769" 
d="M90 772h116v-478q0 -96 50 -145.5t128 -49.5t128.5 49.5t50.5 145.5v478h116v-483q0 -152 -81 -227.5t-214 -75.5q-132 0 -213 74.5t-81 222.5v489z" />
    <glyph glyph-name="V" unicode="V" horiz-adv-x="770" 
d="M4 772h134l239 -612l255 612h134l-341 -772h-98z" />
    <glyph glyph-name="W" unicode="W" horiz-adv-x="1165" 
d="M750 0l-170 422l-174 -422h-89l-313 772h134l229 -612l162 390l-88 222h133l220 -600l243 600h124l-325 -772h-86z" />
    <glyph glyph-name="X" unicode="X" horiz-adv-x="772" 
d="M11 0l300 400l-284 372h153l204 -281l200 281h147l-280 -367l305 -405h-153l-226 314l-229 -314h-137z" />
    <glyph glyph-name="Y" unicode="Y" horiz-adv-x="710" 
d="M401 0h-116v361l-285 411h142l205 -314l221 314h142l-309 -410v-362z" />
    <glyph glyph-name="Z" unicode="Z" horiz-adv-x="724" 
d="M664 0h-667l493 660h-417l11 112h622l-500 -660h479z" />
    <glyph glyph-name="bracketleft" unicode="[" horiz-adv-x="356" 
d="M79 -104v906h231v-59h-142v-788h142v-59h-231z" />
    <glyph glyph-name="backslash" unicode="\" horiz-adv-x="465" 
d="M339 -30l-309 810h97l308 -810h-96z" />
    <glyph glyph-name="bracketright" unicode="]" horiz-adv-x="356" 
d="M277 802v-906h-231v59h142v788h-142v59h231z" />
    <glyph glyph-name="asciicircum" unicode="^" horiz-adv-x="467" 
d="M347 410l-114 235l-114 -235h-93l151 315h112l152 -315h-94z" />
    <glyph glyph-name="underscore" unicode="_" horiz-adv-x="500" 
d="M500 -71v-69h-500v69h500z" />
    <glyph glyph-name="grave" unicode="`" horiz-adv-x="208" 
d="M149 573l-144 171h120l76 -171h-52z" />
    <glyph glyph-name="a" unicode="a" horiz-adv-x="510" 
d="M91 358v97q70 49 165 49q181 0 181 -178v-316l-107 -23v69q-78 -68 -166 -68q-60 0 -95 30.5t-35 84.5q0 97 113 148q76 34 183 47v28q0 86 -93 86q-85 0 -143 -54h-3zM330 136v104q-79 -11 -128 -35q-54 -27 -54 -74q0 -58 64 -58q68 0 118 63z" />
    <glyph glyph-name="b" unicode="b" horiz-adv-x="606" 
d="M281 -17q-70 0 -116 30l-84 -26v770l110 23v-316q61 43 135 43q101 0 168.5 -67.5t67.5 -180.5q0 -126 -76 -201t-205 -75zM297 417q-67 0 -106 -41v-289q33 -20 83 -20q81 0 127.5 48.5t46.5 134.5q0 76 -41 121.5t-110 45.5z" />
    <glyph glyph-name="c" unicode="c" horiz-adv-x="505" 
d="M469 150l-16 -124q-64 -43 -158 -43q-116 0 -183.5 68t-67.5 186q0 119 72.5 194.5t199.5 75.5q88 0 144 -37l-15 -107q-53 45 -126 45q-75 0 -118 -46t-43 -125q0 -68 40 -111.5t112 -43.5q91 0 156 68h3z" />
    <glyph glyph-name="d" unicode="d" horiz-adv-x="608" 
d="M424 -16l2 50q-63 -51 -152 -51q-106 0 -168 71.5t-62 178.5q0 118 74.5 196t184.5 78q62 0 113 -26v277l110 22v-770zM305 74q71 0 111 37v280q-37 25 -97 25q-71 0 -116 -49.5t-45 -130.5q0 -74 39 -118t108 -44z" />
    <glyph glyph-name="e" unicode="e" horiz-adv-x="517" 
d="M307 218q-63 -18 -163 -32q11 -50 47.5 -79.5t96.5 -29.5q101 0 165 77h3l-7 -115q-67 -56 -169 -56q-115 0 -176.5 67.5t-61.5 166.5q0 114 78 202.5t194 88.5q73 0 114.5 -36.5t41.5 -93.5q0 -58 -39 -97t-124 -63zM288 427q-57 0 -100 -54.5t-48 -127.5q78 13 132 30
q88 27 88 87q0 30 -19 47.5t-53 17.5z" />
    <glyph glyph-name="f" unicode="f" horiz-adv-x="365" 
d="M219 538v-48h134v-92h-134v-398h-110v398h-92v92h92v70q0 153 102 195l149 25v-53q-81 -17 -111 -60.5t-30 -128.5z" />
    <glyph glyph-name="g" unicode="g" horiz-adv-x="535" 
d="M255 503q61 0 114 -28q52 69 132 69v-92q-44 0 -76 -24q35 -45 35 -93q0 -119 -155 -158q-19 -5 -56 -11.5t-50 -9.5q-37 -9 -37 -26t52 -28q20 -4 80 -13t80 -13q119 -23 119 -123q0 -80 -75.5 -135t-183.5 -55q-87 0 -139.5 43t-52.5 104q0 75 83 121q-79 25 -79 75
q0 51 109 94q-99 48 -99 134q0 70 57 119.5t142 49.5zM327 -7q-15 3 -64 10t-79 13q-59 -30 -59 -82q0 -36 31.5 -60t86.5 -24q61 0 101.5 26t40.5 62q0 43 -58 55zM153 327q0 -60 67 -90q8 -5 19 -5t28 4q87 24 87 91q0 38 -28.5 65t-74.5 27q-42 0 -70 -25.5t-28 -66.5z
" />
    <glyph glyph-name="h" unicode="h" horiz-adv-x="595" 
d="M81 0v758l110 22v-367q80 90 172 90q76 0 117 -42.5t41 -124.5v-336h-110v298q0 104 -88 104q-64 0 -103 -51q-29 -36 -29 -87v-264h-110z" />
    <glyph glyph-name="i" unicode="i" horiz-adv-x="273" 
d="M81 479l110 23v-502h-110v479zM136 737q30 0 48.5 -18.5t18.5 -48.5q0 -29 -18.5 -47.5t-47.5 -18.5q-30 0 -48 18t-18 48t18 48.5t47 18.5z" />
    <glyph glyph-name="j" unicode="j" horiz-adv-x="273" 
d="M81 479l110 23v-514q0 -135 -49 -189l-150 -36l-6 15q50 31 72.5 80t22.5 128v493zM135 737q30 0 48.5 -18.5t18.5 -48.5q0 -29 -18.5 -47.5t-47.5 -18.5q-30 0 -48 18t-18 48t18 48.5t47 18.5z" />
    <glyph glyph-name="k" unicode="k" horiz-adv-x="563" 
d="M191 780v-504l197 214h144l-228 -224l281 -266h-158l-236 252v-252h-110v757z" />
    <glyph glyph-name="l" unicode="l" horiz-adv-x="273" 
d="M191 780v-780h-110v757z" />
    <glyph glyph-name="m" unicode="m" horiz-adv-x="871" 
d="M688 0v304q0 46 -21.5 72t-59.5 26q-61 0 -95 -54q-17 -24 -18 -59v-289h-110v304q0 47 -21 72.5t-60 25.5q-62 0 -95 -56q-17 -24 -17 -65v-281h-110v490h110v-66q51 79 146 79q53 0 89.5 -25.5t53.5 -67.5q60 93 161 93q76 0 116.5 -46t40.5 -121v-336h-110z" />
    <glyph glyph-name="n" unicode="n" horiz-adv-x="595" 
d="M81 0v490h110v-77q80 90 172 90q76 0 117 -42.5t41 -124.5v-336h-110v298q0 104 -88 104q-63 0 -103 -51q-29 -36 -29 -87v-264h-110z" />
    <glyph glyph-name="o" unicode="o" horiz-adv-x="593" 
d="M296 74q65 0 102 45.5t37 129.5q0 77 -37.5 122.5t-101.5 45.5t-101 -45.5t-37 -122.5q0 -79 36.5 -127t101.5 -48zM296 -17q-111 0 -181.5 71.5t-70.5 194.5q0 118 71 188t181 70q111 0 182 -68t71 -190q0 -128 -72.5 -197t-180.5 -69z" />
    <glyph glyph-name="p" unicode="p" horiz-adv-x="602" 
d="M81 490h110v-10q53 23 116 23q109 0 180 -69t71 -185q0 -121 -71 -193.5t-192 -72.5q-58 0 -104 23v-219l-110 -24v727zM283 417q-60 0 -92 -24v-302q35 -24 90 -24q75 0 119 48t44 130q0 78 -43.5 125t-117.5 47z" />
    <glyph glyph-name="q" unicode="q" horiz-adv-x="608" 
d="M527 490v-703l-110 -24v259q-57 -38 -135 -38q-108 0 -173 69t-65 186q0 123 73 195.5t194 72.5q62 0 107 -17h109zM311 77q69 0 106 31v294q-36 19 -93 19q-78 0 -122 -48t-44 -130q0 -78 40.5 -122t112.5 -44z" />
    <glyph glyph-name="r" unicode="r" horiz-adv-x="387" 
d="M375 496v-115q-8 1 -24 1q-63 0 -107 -22q-31 -15 -42 -33.5t-11 -50.5v-276h-110v490h110v-81q65 89 155 89q15 0 29 -2z" />
    <glyph glyph-name="s" unicode="s" horiz-adv-x="447" 
d="M49 31l7 110q67 -69 164 -69q82 0 82 51q0 34 -39 54q-20 10 -62.5 26.5t-60.5 25.5q-50 25 -70.5 57.5t-20.5 81.5q0 60 45.5 99.5t120.5 39.5q92 0 165 -41l-26 -105q-26 26 -64.5 41.5t-71.5 15.5q-67 0 -67 -46q0 -35 40 -54q14 -7 56 -23.5t60 -24.5
q53 -25 74.5 -59t21.5 -83q0 -66 -48.5 -105.5t-134.5 -39.5q-102 0 -171 48z" />
    <glyph glyph-name="t" unicode="t" horiz-adv-x="374" 
d="M17 490h92v144l110 21v-165h140v-92h-140v-233q0 -68 16 -98t64 -57v-8l-121 -14q-36 17 -52.5 53t-16.5 110v247h-92v92z" />
    <glyph glyph-name="u" unicode="u" horiz-adv-x="589" 
d="M73 490h110v-304q0 -96 89 -96q70 0 113 70q13 22 13 52v278h110v-480l-110 -23v90q-68 -89 -168 -89q-77 0 -117 44t-40 127v331z" />
    <glyph glyph-name="v" unicode="v" horiz-adv-x="514" 
d="M4 490h119l123 -370l145 370h119l-212 -490h-110z" />
    <glyph glyph-name="w" unicode="w" horiz-adv-x="805" 
d="M353 490h101l94 -370l139 370h114l-206 -490h-106l-91 322l-111 -322h-107l-176 490h114l116 -370z" />
    <glyph glyph-name="x" unicode="x" horiz-adv-x="555" 
d="M533 490l-199 -234l202 -256h-132l-133 178l-142 -178h-127l210 247l-189 243h138l116 -164l128 164h128z" />
    <glyph glyph-name="y" unicode="y" horiz-adv-x="523" 
d="M58 -234q88 96 150 235l-204 489h120l136 -359l145 359h114l-214 -503q-64 -150 -116 -224h-131v3z" />
    <glyph glyph-name="z" unicode="z" horiz-adv-x="522" 
d="M473 0h-464l309 390h-264l10 100h440l-313 -390h299z" />
    <glyph glyph-name="braceleft" unicode="{" horiz-adv-x="356" 
d="M24 321v58q100 8 100 115v157q0 80 45 115.5t140 35.5v-56q-51 0 -74 -24.5t-23 -83.5v-161q0 -105 -101 -127q101 -22 101 -128v-160q0 -60 22.5 -84t74.5 -24v-56q-95 0 -140 35.5t-45 115.5v157q0 107 -100 115z" />
    <glyph glyph-name="bar" unicode="|" horiz-adv-x="276" 
d="M181 -110h-87v902h87v-902z" />
    <glyph glyph-name="braceright" unicode="}" horiz-adv-x="356" 
d="M332 379v-58q-100 -8 -100 -115v-157q0 -80 -45 -115.5t-140 -35.5v56q51 0 74 24t23 84v160q0 106 101 128q-101 22 -101 127v161q0 59 -23 83.5t-74 24.5v56q95 0 140 -35.5t45 -115.5v-157q0 -107 100 -115z" />
    <glyph glyph-name="asciitilde" unicode="~" horiz-adv-x="582" 
d="M557 263q-50 -99 -141 -99q-38 0 -79.5 23t-82 46t-76.5 23q-64 0 -107 -82l-47 99q53 100 147 100q47 0 122 -46.5t116 -46.5q64 0 107 83z" />
    <glyph glyph-name="uni00A0" unicode="&#xa0;" horiz-adv-x="220" 
 />
    <glyph glyph-name="exclamdown" unicode="&#xa1;" horiz-adv-x="298" 
d="M152 364q-29 0 -47.5 18.5t-18.5 48.5q0 29 18 47.5t47 18.5q31 0 49 -18t18 -48t-18.5 -48.5t-47.5 -18.5zM215 -216l-137 -21q11 282 62 513l27 -4q43 -217 48 -488z" />
    <glyph glyph-name="cent" unicode="&#xa2;" 
d="M493 666l-42 -169q38 -8 72 -28l-14 -110q-40 33 -81 45l-81 -327h7q101 0 170 78h3l-16 -121q-29 -21 -75.5 -36t-95.5 -15h-16l-37 -153h-67l40 163q-84 20 -130 84t-46 160q0 120 74.5 195t207.5 75q14 0 21 -1l40 160h66zM186 237q0 -53 25.5 -92.5t72.5 -56.5
l80 325q-85 0 -131.5 -47t-46.5 -129z" />
    <glyph glyph-name="sterling" unicode="&#xa3;" 
d="M469 429l-23 -87q-69 4 -180 4h-7q15 -75 15 -118q0 -45 -12 -81q12 -5 38 -18t42 -20.5t41 -14t48 -6.5q72 0 128 71h3l-6 -119q-54 -56 -127 -56q-40 0 -77.5 14.5t-76 37.5t-54.5 30q-60 -74 -116 -74q-31 0 -48.5 19.5t-17.5 49.5q0 45 40 76t105 31h8q5 25 5 51
q0 57 -22 125q-69 -5 -122 -13l28 94q41 4 64 5q-33 95 -33 147q0 86 57.5 140.5t152.5 54.5q103 0 198 -62l-28 -106q-77 69 -161 69q-54 0 -82.5 -29.5t-28.5 -81.5q0 -50 18 -129h27q92 0 204 -4z" />
    <glyph glyph-name="currency" unicode="&#xa4;" 
d="M46 118l72 72q-36 55 -36 123q0 67 36 122l-72 72l61 61l72 -72q53 36 122 36q66 0 122 -37l73 73l61 -61l-73 -73q37 -55 37 -121t-37 -122l73 -73l-61 -61l-73 73q-54 -37 -122 -37q-67 0 -122 36l-72 -72zM169 313q0 -55 38.5 -94t93.5 -39t94 39t39 94t-39 93.5
t-94 38.5t-93.5 -38.5t-38.5 -93.5z" />
    <glyph glyph-name="yen" unicode="&#xa5;" 
d="M549 318v-68h-190v-250h-114v250h-190v68h190l-48 94h-142v68h107l-139 272h117l162 -346l160 346h118l-139 -272h108v-68h-142l-48 -94h190z" />
    <glyph glyph-name="brokenbar" unicode="&#xa6;" horiz-adv-x="276" 
d="M181 -110h-87v322h87v-322zM181 470h-87v322h87v-322z" />
    <glyph glyph-name="section" unicode="&#xa7;" horiz-adv-x="490" 
d="M28 338q0 45 29 80t83 41q-79 55 -79 133q0 59 51.5 101.5t135.5 42.5q101 0 177 -44l-11 -101h-3q-81 66 -169 66q-40 0 -63 -18t-23 -46q0 -40 49 -74q27 -18 83.5 -46t83.5 -46q49 -32 69.5 -63t20.5 -77t-29.5 -80.5t-83.5 -40.5q80 -57 80 -134q0 -57 -52 -100
t-134 -43q-107 0 -170 49l-10 109h3q79 -79 182 -79q40 0 63.5 18t23.5 46q0 45 -59 81q-25 15 -79 40.5t-82 43.5q-46 29 -66.5 61.5t-20.5 79.5zM109 351q0 -49 84 -100q74 -45 122 -45q32 0 49.5 20t17.5 48q0 51 -85 100q-82 45 -120 45q-34 0 -51 -20.5t-17 -47.5z" />
    <glyph glyph-name="dieresis" unicode="&#xa8;" horiz-adv-x="333" 
d="M68 713q26 0 42.5 -16t16.5 -43q0 -26 -16 -42t-42 -16q-27 0 -43 16t-16 42q0 27 16 43t42 16zM264 713q26 0 42.5 -16t16.5 -43q0 -26 -16 -42t-42 -16q-27 0 -43 16t-16 42q0 27 16 43t42 16z" />
    <glyph glyph-name="copyright" unicode="&#xa9;" horiz-adv-x="893" 
d="M45 385q0 167 117.5 284.5t283.5 117.5t284 -117.5t118 -284.5q0 -166 -117.5 -283t-284.5 -117t-284 117t-117 283zM111 385q0 -138 98.5 -236t236.5 -98q139 0 237.5 98t98.5 236q0 139 -98.5 237.5t-237.5 98.5q-138 0 -236.5 -98.5t-98.5 -237.5zM631 292l-14 -102
q-64 -52 -161 -52q-109 0 -172.5 65.5t-63.5 178.5q0 115 65.5 186.5t183.5 71.5q91 0 154 -44l-14 -88q-60 55 -138 55q-81 0 -124.5 -48t-43.5 -133q0 -73 41.5 -120t117.5 -47q98 0 166 77h3z" />
    <glyph glyph-name="ordfeminine" unicode="&#xaa;" horiz-adv-x="356" 
d="M63 599v69q47 34 115 34q128 0 128 -125v-220l-77 -17v47q-53 -46 -115 -46q-42 0 -66.5 21t-24.5 60q0 69 79 104q54 23 127 31v20q0 28 -16.5 43.5t-47.5 15.5q-57 0 -99 -37h-3zM229 445v72q-51 -6 -88 -24t-37 -51q0 -40 44 -40q46 0 81 43z" />
    <glyph glyph-name="guillemotleft" unicode="&#xab;" horiz-adv-x="475" 
d="M169 82l-130 165l130 165h79l-99 -165l99 -165h-79zM347 82l-130 165l130 165h79l-99 -165l99 -165h-79z" />
    <glyph glyph-name="logicalnot" unicode="&#xac;" horiz-adv-x="587" 
d="M60 395h465v-314h-96v223h-369v91z" />
    <glyph glyph-name="uni00AD" unicode="&#xad;" horiz-adv-x="324" 
d="M289 316v-96h-254v96h254z" />
    <glyph glyph-name="registered" unicode="&#xae;" horiz-adv-x="592" 
d="M34 525q0 109 76 185.5t186 76.5t186 -76.5t76 -185.5t-76 -185.5t-186 -76.5t-186 76.5t-76 185.5zM85 525q0 -87 62 -149t149 -62t149 62t62 149t-62 149t-149 62t-149 -62t-62 -149zM193 374v312h83q122 0 122 -102q0 -68 -65 -95l89 -115h-67l-73 103q-12 -2 -39 -2
v-101h-50zM243 637v-113q101 0 101 59q0 54 -71 54h-30z" />
    <glyph glyph-name="macron" unicode="&#xaf;" horiz-adv-x="296" 
d="M286 695v-81h-276v81h276z" />
    <glyph glyph-name="degree" unicode="&#xb0;" horiz-adv-x="347" 
d="M39 643q0 56 39 95t95 39q55 0 94.5 -39t39.5 -95t-39 -95t-95 -39q-55 0 -94.5 39.5t-39.5 94.5zM99 643q0 -31 21.5 -52.5t52.5 -21.5t53 21.5t22 52.5t-22 53t-53 22t-52.5 -22t-21.5 -53z" />
    <glyph glyph-name="plusminus" unicode="&#xb1;" horiz-adv-x="587" 
d="M542 363v-80h-202v-134h-88v134h-207v80h207v140h88v-140h202zM542 107v-79h-497v79h497z" />
    <glyph glyph-name="twosuperior" unicode="&#xb2;" horiz-adv-x="355" 
d="M230 600q-44 -42 -93 -75h184l-9 -67h-275v60q66 45 123 102q61 62 61 113q0 24 -17 39.5t-48 15.5q-56 0 -109 -42l10 85q44 29 113 29q64 0 98 -31.5t34 -81.5q0 -76 -72 -147z" />
    <glyph glyph-name="threesuperior" unicode="&#xb3;" horiz-adv-x="351" 
d="M290 763q0 -30 -18 -55t-50 -37q86 -25 86 -100q0 -57 -43 -90t-114 -33q-69 0 -109 18l-4 78q45 -27 111 -27q37 0 58.5 16t21.5 41t-21 40.5t-59 15.5q-49 0 -84 -10l14 73q26 -2 49 -2q83 0 83 55q0 20 -17.5 33t-49.5 13q-53 0 -88 -23l17 77q36 14 91 14
q59 0 92.5 -27t33.5 -70z" />
    <glyph glyph-name="acute" unicode="&#xb4;" horiz-adv-x="208" 
d="M203 744l-144 -171h-51l75 171h120z" />
    <glyph glyph-name="mu" unicode="&#xb5;" horiz-adv-x="571" 
d="M259 -12q-61 0 -80 51v-253l-108 -23v727h108v-294q0 -101 85 -101q63 0 105 57q23 30 23 70v268h107v-480l-107 -23v84q-22 -39 -57 -61t-76 -22z" />
    <glyph glyph-name="paragraph" unicode="&#xb6;" horiz-adv-x="619" 
d="M198 772h372v-74h-92v-830h-80v830h-119v-830h-81v543q-82 0 -130 49t-48 131q0 83 48 132t130 49z" />
    <glyph glyph-name="periodcentered" unicode="&#xb7;" horiz-adv-x="254" 
d="M126 328q30 0 48.5 -18.5t18.5 -47.5t-18 -47.5t-48 -18.5t-48 18t-18 48q0 29 18 47.5t47 18.5z" />
    <glyph glyph-name="cedilla" unicode="&#xb8;" horiz-adv-x="222" 
d="M89 9h47l-34 -65q10 2 21 2q41 0 65 -21t24 -56q0 -40 -33.5 -66.5t-85.5 -26.5q-53 0 -83 25l5 56q23 -26 72 -26q50 0 50 35q0 36 -53 36q-29 0 -45 -6l-2 3z" />
    <glyph glyph-name="onesuperior" unicode="&#xb9;" horiz-adv-x="272" 
d="M183 458h-79v326l-90 -3l10 69h159v-392z" />
    <glyph glyph-name="ordmasculine" unicode="&#xba;" horiz-adv-x="414" 
d="M207 403q44 0 69.5 31.5t25.5 89.5q0 53 -26 84.5t-69 31.5q-44 0 -70 -31.5t-26 -84.5q0 -55 25.5 -88t70.5 -33zM207 338q-78 0 -127.5 50.5t-49.5 135.5q0 82 50 131t127 49t127 -47.5t50 -132.5q0 -89 -51 -137.5t-126 -48.5z" />
    <glyph glyph-name="guillemotright" unicode="&#xbb;" horiz-adv-x="475" 
d="M128 412l130 -165l-130 -165h-79l99 165l-99 165h79zM306 412l130 -165l-130 -165h-79l99 165l-99 165h79z" />
    <glyph glyph-name="onequarter" unicode="&#xbc;" horiz-adv-x="832" 
d="M687 780l-519 -810h-79l518 810h80zM196 360h-79v326l-90 -3l10 69h159v-392zM658 0v99h-203v42l192 251h83v-232h68v-61h-68v-99h-72zM528 160h130v170z" />
    <glyph glyph-name="onehalf" unicode="&#xbd;" horiz-adv-x="832" 
d="M667 780l-519 -810h-79l518 810h80zM190 360h-79v326l-90 -3l10 69h159v-392zM684 142q-44 -42 -93 -75h184l-9 -67h-275v60q66 45 123 102q61 62 61 113q0 24 -17 39.5t-48 15.5q-56 0 -109 -42l10 85q44 29 113 29q64 0 98 -31.5t34 -81.5q0 -76 -72 -147z" />
    <glyph glyph-name="threequarters" unicode="&#xbe;" horiz-adv-x="832" 
d="M720 780l-519 -810h-79l518 810h80zM668 0v99h-203v42l192 251h83v-232h68v-61h-68v-99h-72zM538 160h130v170zM293 665q0 -30 -18 -55t-50 -37q86 -25 86 -100q0 -57 -43 -90t-114 -33q-68 0 -109 18l-4 78q45 -27 111 -27q37 0 58.5 16t21.5 41t-21 40.5t-59 15.5
q-49 0 -84 -10l14 73q26 -2 49 -2q83 0 83 55q0 20 -17.5 33t-49.5 13q-53 0 -88 -23l17 77q36 14 91 14q59 0 92.5 -27t33.5 -70z" />
    <glyph glyph-name="questiondown" unicode="&#xbf;" horiz-adv-x="445" 
d="M310 364q-30 0 -48.5 18.5t-18.5 48.5q0 29 18 47.5t48 18.5t48 -18t18 -48t-18 -48.5t-47 -18.5zM263 265l98 21v-165q-98 -6 -154 -46.5t-56 -105.5q0 -50 35 -79t96 -29q53 0 95 16l-12 -101q-43 -13 -101 -13q-100 0 -162.5 51.5t-62.5 146.5q0 90 61 152t163 80v72z
" />
    <glyph glyph-name="Agrave" unicode="&#xc0;" horiz-adv-x="773" 
d="M4 0l347 768l88 14l330 -782h-131l-93 233h-314l-96 -233h-131zM392 623l-127 -299h247zM397 819l-136 141h122l76 -141h-62z" />
    <glyph glyph-name="Aacute" unicode="&#xc1;" horiz-adv-x="773" 
d="M4 0l347 768l88 14l330 -782h-131l-93 233h-314l-96 -233h-131zM392 623l-127 -299h247zM537 960l-137 -141h-61l75 141h123z" />
    <glyph glyph-name="Acircumflex" unicode="&#xc2;" horiz-adv-x="773" 
d="M4 0l347 768l88 14l330 -782h-131l-93 233h-314l-96 -233h-131zM392 623l-127 -299h247zM487 819l-89 78l-88 -78h-59l100 141h95l101 -141h-60z" />
    <glyph glyph-name="Atilde" unicode="&#xc3;" horiz-adv-x="773" 
d="M4 0l347 768l88 14l330 -782h-131l-93 233h-314l-96 -233h-131zM392 623l-127 -299h247zM335 860q-21 0 -36 -15t-17 -37l-41 9q6 60 32 95t63 35q25 0 70.5 -17t62.5 -17q22 0 35.5 14.5t16.5 37.5l41 -10q-5 -60 -31 -94.5t-63 -34.5q-25 0 -70.5 17t-62.5 17z" />
    <glyph glyph-name="Adieresis" unicode="&#xc4;" horiz-adv-x="773" 
d="M4 0l347 768l88 14l330 -782h-131l-93 233h-314l-96 -233h-131zM392 623l-127 -299h247zM291 953q27 0 44 -17t17 -44q0 -26 -16.5 -43t-43.5 -17q-28 0 -44.5 16.5t-16.5 43.5t16.5 44t43.5 17zM506 953q27 0 44 -17t17 -44q0 -26 -16.5 -43t-43.5 -17q-28 0 -44.5 16.5
t-16.5 43.5t16.5 44t43.5 17z" />
    <glyph glyph-name="Aring" unicode="&#xc5;" horiz-adv-x="773" 
d="M4 0l347 768l88 14l330 -782h-131l-93 233h-314l-96 -233h-131zM392 623l-127 -299h247zM297 905q0 42 30 72t72 30q41 0 71.5 -30t30.5 -72q0 -41 -30.5 -71.5t-71.5 -30.5q-42 0 -72 30.5t-30 71.5zM341 905q0 -23 17 -40.5t41 -17.5q23 0 40.5 17.5t17.5 40.5
q0 24 -17.5 41t-40.5 17q-24 0 -41 -17t-17 -41z" />
    <glyph glyph-name="AE" unicode="&#xc6;" horiz-adv-x="932" 
d="M570 668v-218h263v-97h-263v-251h309v-102h-426v263h-219l-137 -263h-123l404 772h501v-104h-309zM445 668l-161 -310h169v310h-8z" />
    <glyph glyph-name="Ccedilla" unicode="&#xc7;" horiz-adv-x="743" 
d="M684 716l-12 -137h-3q-80 94 -222 94q-120 0 -197.5 -83t-77.5 -204q0 -127 75.5 -206.5t196.5 -79.5q146 0 246 116h3l-13 -153q-98 -71 -231 -76l-22 -43q10 2 21 2q41 0 65 -21t24 -56q0 -40 -33.5 -66.5t-85.5 -26.5q-53 0 -83 25l5 56q23 -26 72 -26q50 0 50 35
q0 36 -53 36q-29 0 -45 -6l-2 3l42 89q-157 10 -255 119t-98 281q0 163 110.5 280t277.5 117q147 0 245 -69z" />
    <glyph glyph-name="Egrave" unicode="&#xc8;" horiz-adv-x="582" 
d="M212 669v-219h271v-97h-271v-251h317v-102h-433v772h428v-103h-312zM307 819l-136 141h122l76 -141h-62z" />
    <glyph glyph-name="Eacute" unicode="&#xc9;" horiz-adv-x="582" 
d="M212 669v-219h271v-97h-271v-251h317v-102h-433v772h428v-103h-312zM447 960l-137 -141h-61l75 141h123z" />
    <glyph glyph-name="Ecircumflex" unicode="&#xca;" horiz-adv-x="582" 
d="M212 669v-219h271v-97h-271v-251h317v-102h-433v772h428v-103h-312zM398 819l-89 78l-88 -78h-59l100 141h95l101 -141h-60z" />
    <glyph glyph-name="Edieresis" unicode="&#xcb;" horiz-adv-x="582" 
d="M212 669v-219h271v-97h-271v-251h317v-102h-433v772h428v-103h-312zM201 953q27 0 44 -17t17 -44q0 -26 -16.5 -43t-43.5 -17q-28 0 -44.5 16.5t-16.5 43.5t16.5 44t43.5 17zM416 953q27 0 44 -17t17 -44q0 -26 -16.5 -43t-43.5 -17q-28 0 -44.5 16.5t-16.5 43.5t16.5 44
t43.5 17z" />
    <glyph glyph-name="Igrave" unicode="&#xcc;" horiz-adv-x="308" 
d="M212 0h-116v772h116v-772zM152 819l-136 141h122l76 -141h-62z" />
    <glyph glyph-name="Iacute" unicode="&#xcd;" horiz-adv-x="308" 
d="M212 0h-116v772h116v-772zM292 960l-137 -141h-61l75 141h123z" />
    <glyph glyph-name="Icircumflex" unicode="&#xce;" horiz-adv-x="308" 
d="M212 0h-116v772h116v-772zM242 819l-89 78l-88 -78h-59l100 141h95l101 -141h-60z" />
    <glyph glyph-name="Idieresis" unicode="&#xcf;" horiz-adv-x="308" 
d="M212 0h-116v772h116v-772zM45 953q27 0 44 -17t17 -44q0 -26 -16.5 -43t-43.5 -17q-28 0 -44.5 16.5t-16.5 43.5t16.5 44t43.5 17zM260 953q27 0 44 -17t17 -44q0 -26 -16.5 -43t-43.5 -17q-28 0 -44.5 16.5t-16.5 43.5t16.5 44t43.5 17z" />
    <glyph glyph-name="Eth" unicode="&#xd0;" horiz-adv-x="769" 
d="M290 0h-194v348h-64v91h64v333h196q200 0 312.5 -103t112.5 -273q0 -190 -110 -293t-317 -103zM212 666v-227h156v-91h-156v-241h83q147 0 225 74.5t78 214.5q0 117 -80 193.5t-221 76.5h-85z" />
    <glyph glyph-name="Ntilde" unicode="&#xd1;" horiz-adv-x="880" 
d="M671 772h113v-772h-97l-478 588v-588h-113v772h98l477 -585v585zM376 860q-21 0 -36 -15t-17 -37l-41 9q6 60 32 95t63 35q25 0 70.5 -17t62.5 -17q22 0 35.5 14.5t16.5 37.5l41 -10q-5 -60 -31 -94.5t-63 -34.5q-25 0 -70.5 17t-62.5 17z" />
    <glyph glyph-name="Ograve" unicode="&#xd2;" horiz-adv-x="853" 
d="M682 386q0 127 -72 210t-183 83q-112 0 -184 -83t-72 -210q0 -128 72 -210.5t184 -82.5t183.5 82.5t71.5 210.5zM802 386q0 -175 -106 -288t-269 -113q-165 0 -270.5 113t-105.5 288t106 288t270 113t269.5 -113t105.5 -288zM425 819l-136 141h122l76 -141h-62z" />
    <glyph glyph-name="Oacute" unicode="&#xd3;" horiz-adv-x="853" 
d="M682 386q0 127 -72 210t-183 83q-112 0 -184 -83t-72 -210q0 -128 72 -210.5t184 -82.5t183.5 82.5t71.5 210.5zM802 386q0 -175 -106 -288t-269 -113q-165 0 -270.5 113t-105.5 288t106 288t270 113t269.5 -113t105.5 -288zM565 960l-137 -141h-61l75 141h123z" />
    <glyph glyph-name="Ocircumflex" unicode="&#xd4;" horiz-adv-x="853" 
d="M682 386q0 127 -72 210t-183 83q-112 0 -184 -83t-72 -210q0 -128 72 -210.5t184 -82.5t183.5 82.5t71.5 210.5zM802 386q0 -175 -106 -288t-269 -113q-165 0 -270.5 113t-105.5 288t106 288t270 113t269.5 -113t105.5 -288zM515 819l-89 78l-88 -78h-59l100 141h95
l101 -141h-60z" />
    <glyph glyph-name="Otilde" unicode="&#xd5;" horiz-adv-x="853" 
d="M682 386q0 127 -72 210t-183 83q-112 0 -184 -83t-72 -210q0 -128 72 -210.5t184 -82.5t183.5 82.5t71.5 210.5zM802 386q0 -175 -106 -288t-269 -113q-165 0 -270.5 113t-105.5 288t106 288t270 113t269.5 -113t105.5 -288zM362 860q-21 0 -36 -15t-17 -37l-41 9
q6 60 32 95t63 35q25 0 70.5 -17t62.5 -17q22 0 35.5 14.5t16.5 37.5l41 -10q-5 -60 -31 -94.5t-63 -34.5q-25 0 -70.5 17t-62.5 17z" />
    <glyph glyph-name="Odieresis" unicode="&#xd6;" horiz-adv-x="853" 
d="M682 386q0 127 -72 210t-183 83q-112 0 -184 -83t-72 -210q0 -128 72 -210.5t184 -82.5t183.5 82.5t71.5 210.5zM802 386q0 -175 -106 -288t-269 -113q-165 0 -270.5 113t-105.5 288t106 288t270 113t269.5 -113t105.5 -288zM318 953q27 0 44 -17t17 -44q0 -26 -16.5 -43
t-43.5 -17q-28 0 -44.5 16.5t-16.5 43.5t16.5 44t43.5 17zM533 953q27 0 44 -17t17 -44q0 -26 -16.5 -43t-43.5 -17q-28 0 -44.5 16.5t-16.5 43.5t16.5 44t43.5 17z" />
    <glyph glyph-name="multiply" unicode="&#xd7;" horiz-adv-x="587" 
d="M64 92l167 167l-177 177l63 63l177 -177l177 177l63 -63l-177 -177l167 -167l-63 -63l-167 167l-167 -167z" />
    <glyph glyph-name="Oslash" unicode="&#xd8;" horiz-adv-x="853" 
d="M802 386q0 -175 -106 -288t-269 -113q-123 0 -216 65l-45 -58l-75 26l64 82q-104 112 -104 286q0 175 106 288t270 113q120 0 212 -64l45 57l77 -25l-64 -82q105 -113 105 -287zM682 386q0 112 -59 193l-342 -439q64 -47 146 -47q112 0 183.5 82.5t71.5 210.5zM171 386
q0 -111 57 -192l341 439q-63 46 -142 46q-112 0 -184 -83t-72 -210z" />
    <glyph glyph-name="Ugrave" unicode="&#xd9;" horiz-adv-x="769" 
d="M90 772h116v-478q0 -96 50 -145.5t128 -49.5t128.5 49.5t50.5 145.5v478h116v-483q0 -152 -81 -227.5t-214 -75.5q-132 0 -213 74.5t-81 222.5v489zM382 819l-136 141h122l76 -141h-62z" />
    <glyph glyph-name="Uacute" unicode="&#xda;" horiz-adv-x="769" 
d="M90 772h116v-478q0 -96 50 -145.5t128 -49.5t128.5 49.5t50.5 145.5v478h116v-483q0 -152 -81 -227.5t-214 -75.5q-132 0 -213 74.5t-81 222.5v489zM523 960l-137 -141h-61l75 141h123z" />
    <glyph glyph-name="Ucircumflex" unicode="&#xdb;" horiz-adv-x="769" 
d="M90 772h116v-478q0 -96 50 -145.5t128 -49.5t128.5 49.5t50.5 145.5v478h116v-483q0 -152 -81 -227.5t-214 -75.5q-132 0 -213 74.5t-81 222.5v489zM473 819l-89 78l-88 -78h-59l100 141h95l101 -141h-60z" />
    <glyph glyph-name="Udieresis" unicode="&#xdc;" horiz-adv-x="769" 
d="M90 772h116v-478q0 -96 50 -145.5t128 -49.5t128.5 49.5t50.5 145.5v478h116v-483q0 -152 -81 -227.5t-214 -75.5q-132 0 -213 74.5t-81 222.5v489zM276 953q27 0 44 -17t17 -44q0 -26 -16.5 -43t-43.5 -17q-28 0 -44.5 16.5t-16.5 43.5t16.5 44t43.5 17zM491 953
q27 0 44 -17t17 -44q0 -26 -16.5 -43t-43.5 -17q-28 0 -44.5 16.5t-16.5 43.5t16.5 44t43.5 17z" />
    <glyph glyph-name="Yacute" unicode="&#xdd;" horiz-adv-x="710" 
d="M401 0h-116v361l-285 411h142l205 -314l221 314h142l-309 -410v-362zM494 960l-137 -141h-61l75 141h123z" />
    <glyph glyph-name="Thorn" unicode="&#xde;" horiz-adv-x="600" 
d="M212 0h-116v772h116v-125h74q134 0 210.5 -61.5t76.5 -172.5q0 -126 -78.5 -190t-229.5 -64h-53v-159zM212 547v-288h63q184 0 184 148q0 67 -46.5 103.5t-131.5 36.5h-69z" />
    <glyph glyph-name="germandbls" unicode="&#xdf;" horiz-adv-x="618" 
d="M525 607q0 -124 -148 -190q95 -31 148 -90t53 -139q0 -91 -56.5 -148t-155.5 -57q-77 0 -119 32l-13 112h3q37 -49 111 -49q58 0 87.5 30.5t29.5 83.5q0 61 -51.5 106t-153.5 64v90q80 23 117 61.5t37 83.5q0 44 -25 67t-71 23q-59 0 -94 -43t-35 -119v-525h-111v530
q0 110 67.5 180t177.5 70q94 0 148 -47.5t54 -125.5z" />
    <glyph glyph-name="agrave" unicode="&#xe0;" horiz-adv-x="510" 
d="M91 358v97q70 49 165 49q181 0 181 -178v-316l-107 -23v69q-78 -68 -166 -68q-60 0 -95 30.5t-35 84.5q0 97 113 148q76 34 183 47v28q0 86 -93 86q-85 0 -143 -54h-3zM330 136v104q-79 -11 -128 -35q-54 -27 -54 -74q0 -58 64 -58q68 0 118 63zM259 584l-144 171h120
l76 -171h-52z" />
    <glyph glyph-name="aacute" unicode="&#xe1;" horiz-adv-x="510" 
d="M91 358v97q70 49 165 49q181 0 181 -178v-316l-107 -23v69q-78 -68 -166 -68q-60 0 -95 30.5t-35 84.5q0 97 113 148q76 34 183 47v28q0 86 -93 86q-85 0 -143 -54h-3zM330 136v104q-79 -11 -128 -35q-54 -27 -54 -74q0 -58 64 -58q68 0 118 63zM395 755l-144 -171h-51
l75 171h120z" />
    <glyph glyph-name="acircumflex" unicode="&#xe2;" horiz-adv-x="510" 
d="M91 358v97q70 49 165 49q181 0 181 -178v-316l-107 -23v69q-78 -68 -166 -68q-60 0 -95 30.5t-35 84.5q0 97 113 148q76 34 183 47v28q0 86 -93 86q-85 0 -143 -54h-3zM330 136v104q-79 -11 -128 -35q-54 -27 -54 -74q0 -58 64 -58q68 0 118 63zM339 584l-84 96l-84 -96
h-57l105 171h72l105 -171h-57z" />
    <glyph glyph-name="atilde" unicode="&#xe3;" horiz-adv-x="510" 
d="M91 358v97q70 49 165 49q181 0 181 -178v-316l-107 -23v69q-78 -68 -166 -68q-60 0 -95 30.5t-35 84.5q0 97 113 148q76 34 183 47v28q0 86 -93 86q-85 0 -143 -54h-3zM330 136v104q-79 -11 -128 -35q-54 -27 -54 -74q0 -58 64 -58q68 0 118 63zM197 644q-21 0 -35 -14.5
t-18 -37.5l-41 10q6 60 33.5 94.5t66.5 34.5q23 0 65 -17t57 -17q21 0 35 14.5t17 37.5l42 -9q-6 -60 -33.5 -95t-66.5 -35q-23 0 -65 17t-57 17z" />
    <glyph glyph-name="adieresis" unicode="&#xe4;" horiz-adv-x="510" 
d="M91 358v97q70 49 165 49q181 0 181 -178v-316l-107 -23v69q-78 -68 -166 -68q-60 0 -95 30.5t-35 84.5q0 97 113 148q76 34 183 47v28q0 86 -93 86q-85 0 -143 -54h-3zM330 136v104q-79 -11 -128 -35q-54 -27 -54 -74q0 -58 64 -58q68 0 118 63zM157 724q26 0 42.5 -16
t16.5 -43q0 -26 -16 -42t-42 -16q-27 0 -43 16t-16 42q0 27 16 43t42 16zM353 724q26 0 42.5 -16t16.5 -43q0 -26 -16 -42t-42 -16q-27 0 -43 16t-16 42q0 27 16 43t42 16z" />
    <glyph glyph-name="aring" unicode="&#xe5;" horiz-adv-x="510" 
d="M91 358v97q70 49 165 49q181 0 181 -178v-316l-107 -23v69q-78 -68 -166 -68q-60 0 -95 30.5t-35 84.5q0 97 113 148q76 34 183 47v28q0 86 -93 86q-85 0 -143 -54h-3zM330 136v104q-79 -11 -128 -35q-54 -27 -54 -74q0 -58 64 -58q68 0 118 63zM151 673q0 42 30.5 73
t73.5 31q42 0 73 -31t31 -73q0 -43 -31 -73.5t-73 -30.5q-43 0 -73.5 30.5t-30.5 73.5zM199 673q0 -23 16.5 -39.5t39.5 -16.5t39.5 16.5t16.5 39.5t-16.5 39.5t-39.5 16.5t-39.5 -16.5t-16.5 -39.5z" />
    <glyph glyph-name="ae" unicode="&#xe6;" horiz-adv-x="777" 
d="M91 453q68 52 165 52q112 0 145 -83q69 80 184 80q70 0 107.5 -35.5t37.5 -91.5q0 -54 -42.5 -94t-131.5 -55q-56 -11 -134 -16q10 -134 134 -134q46 0 88 21t70 59h3l-7 -115q-65 -58 -165 -58q-123 0 -178 83q-92 -83 -191 -83q-66 0 -104 32.5t-38 89.5q0 111 137 154
q64 20 157 26v41q0 42 -23.5 64.5t-66.5 22.5q-84 0 -144 -60h-3v100zM210 70q72 0 128 62q-10 39 -10 90v3q-73 -5 -120 -21q-61 -20 -61 -70q0 -28 16.5 -46t46.5 -18zM556 423q-52 0 -89 -44.5t-45 -111.5q68 8 115 19q42 9 62.5 30.5t20.5 48.5q0 26 -17 42t-47 16z" />
    <glyph glyph-name="ccedilla" unicode="&#xe7;" horiz-adv-x="505" 
d="M469 150l-16 -124q-56 -38 -146 -43l-20 -39q10 2 21 2q41 0 65 -21t24 -56q0 -40 -33.5 -66.5t-85.5 -26.5q-53 0 -83 25l5 56q23 -26 72 -26q50 0 50 35q0 36 -53 36q-29 0 -45 -6l-2 3l40 86q-102 10 -160 76.5t-58 175.5q0 119 72.5 194.5t199.5 75.5q88 0 144 -37
l-15 -107q-53 45 -126 45q-75 0 -118 -46t-43 -125q0 -68 40 -111.5t112 -43.5q91 0 156 68h3z" />
    <glyph glyph-name="egrave" unicode="&#xe8;" horiz-adv-x="517" 
d="M307 218q-63 -18 -163 -32q11 -50 47.5 -79.5t96.5 -29.5q101 0 165 77h3l-7 -115q-67 -56 -169 -56q-115 0 -176.5 67.5t-61.5 166.5q0 114 78 202.5t194 88.5q73 0 114.5 -36.5t41.5 -93.5q0 -58 -39 -97t-124 -63zM288 427q-57 0 -100 -54.5t-48 -127.5q78 13 132 30
q88 27 88 87q0 30 -19 47.5t-53 17.5zM286 584l-144 171h120l76 -171h-52z" />
    <glyph glyph-name="eacute" unicode="&#xe9;" horiz-adv-x="517" 
d="M307 218q-63 -18 -163 -32q11 -50 47.5 -79.5t96.5 -29.5q101 0 165 77h3l-7 -115q-67 -56 -169 -56q-115 0 -176.5 67.5t-61.5 166.5q0 114 78 202.5t194 88.5q73 0 114.5 -36.5t41.5 -93.5q0 -58 -39 -97t-124 -63zM288 427q-57 0 -100 -54.5t-48 -127.5q78 13 132 30
q88 27 88 87q0 30 -19 47.5t-53 17.5zM422 755l-144 -171h-51l75 171h120z" />
    <glyph glyph-name="ecircumflex" unicode="&#xea;" horiz-adv-x="517" 
d="M307 218q-63 -18 -163 -32q11 -50 47.5 -79.5t96.5 -29.5q101 0 165 77h3l-7 -115q-67 -56 -169 -56q-115 0 -176.5 67.5t-61.5 166.5q0 114 78 202.5t194 88.5q73 0 114.5 -36.5t41.5 -93.5q0 -58 -39 -97t-124 -63zM288 427q-57 0 -100 -54.5t-48 -127.5q78 13 132 30
q88 27 88 87q0 30 -19 47.5t-53 17.5zM366 584l-84 96l-84 -96h-57l105 171h72l105 -171h-57z" />
    <glyph glyph-name="edieresis" unicode="&#xeb;" horiz-adv-x="517" 
d="M307 218q-63 -18 -163 -32q11 -50 47.5 -79.5t96.5 -29.5q101 0 165 77h3l-7 -115q-67 -56 -169 -56q-115 0 -176.5 67.5t-61.5 166.5q0 114 78 202.5t194 88.5q73 0 114.5 -36.5t41.5 -93.5q0 -58 -39 -97t-124 -63zM288 427q-57 0 -100 -54.5t-48 -127.5q78 13 132 30
q88 27 88 87q0 30 -19 47.5t-53 17.5zM184 724q26 0 42.5 -16t16.5 -43q0 -26 -16 -42t-42 -16q-27 0 -43 16t-16 42q0 27 16 43t42 16zM380 724q26 0 42.5 -16t16.5 -43q0 -26 -16 -42t-42 -16q-27 0 -43 16t-16 42q0 27 16 43t42 16z" />
    <glyph glyph-name="igrave" unicode="&#xec;" horiz-adv-x="273" 
d="M81 479l110 23v-502h-110v479zM140 584l-144 171h120l76 -171h-52z" />
    <glyph glyph-name="iacute" unicode="&#xed;" horiz-adv-x="273" 
d="M81 479l110 23v-502h-110v479zM276 755l-144 -171h-51l75 171h120z" />
    <glyph glyph-name="icircumflex" unicode="&#xee;" horiz-adv-x="273" 
d="M81 479l110 23v-502h-110v479zM220 584l-84 96l-84 -96h-57l105 171h72l105 -171h-57z" />
    <glyph glyph-name="idieresis" unicode="&#xef;" horiz-adv-x="273" 
d="M45 713q26 0 42.5 -16t16.5 -43q0 -26 -16 -42t-42 -16q-28 0 -43.5 16t-15.5 42q0 27 16 43t42 16zM221 713q26 0 42.5 -16t16.5 -43q0 -26 -16 -42t-42 -16q-28 0 -43.5 16t-15.5 42q0 27 16 43t42 16zM81 479l110 23v-502h-110v479z" />
    <glyph glyph-name="eth" unicode="&#xf0;" horiz-adv-x="588" 
d="M117 575l-4 62l140 45q-46 36 -106 58v2l113 43q56 -24 105 -67l121 39l5 -62l-78 -25q131 -154 131 -377q0 -145 -69 -227.5t-193 -82.5q-106 0 -172 73t-66 183q0 122 67 194.5t175 72.5q62 0 114 -30q-34 92 -95 159zM433 280q0 40 -7 92q-49 49 -121 49
q-66 0 -106.5 -50.5t-40.5 -131.5q0 -73 35 -120.5t92 -47.5q70 0 109 55.5t39 153.5z" />
    <glyph glyph-name="ntilde" unicode="&#xf1;" horiz-adv-x="595" 
d="M81 0v490h110v-77q80 90 172 90q76 0 117 -42.5t41 -124.5v-336h-110v298q0 104 -88 104q-63 0 -103 -51q-29 -36 -29 -87v-264h-110zM240 644q-21 0 -35 -14.5t-18 -37.5l-41 10q6 60 33.5 94.5t66.5 34.5q23 0 65 -17t57 -17q21 0 35 14.5t17 37.5l42 -9
q-6 -60 -33.5 -95t-66.5 -35q-23 0 -65 17t-57 17z" />
    <glyph glyph-name="ograve" unicode="&#xf2;" horiz-adv-x="593" 
d="M296 74q65 0 102 45.5t37 129.5q0 77 -37.5 122.5t-101.5 45.5t-101 -45.5t-37 -122.5q0 -79 36.5 -127t101.5 -48zM296 -17q-111 0 -181.5 71.5t-70.5 194.5q0 118 71 188t181 70q111 0 182 -68t71 -190q0 -128 -72.5 -197t-180.5 -69zM301 584l-144 171h120l76 -171
h-52z" />
    <glyph glyph-name="oacute" unicode="&#xf3;" horiz-adv-x="593" 
d="M296 74q65 0 102 45.5t37 129.5q0 77 -37.5 122.5t-101.5 45.5t-101 -45.5t-37 -122.5q0 -79 36.5 -127t101.5 -48zM296 -17q-111 0 -181.5 71.5t-70.5 194.5q0 118 71 188t181 70q111 0 182 -68t71 -190q0 -128 -72.5 -197t-180.5 -69zM437 755l-144 -171h-51l75 171
h120z" />
    <glyph glyph-name="ocircumflex" unicode="&#xf4;" horiz-adv-x="593" 
d="M296 74q65 0 102 45.5t37 129.5q0 77 -37.5 122.5t-101.5 45.5t-101 -45.5t-37 -122.5q0 -79 36.5 -127t101.5 -48zM296 -17q-111 0 -181.5 71.5t-70.5 194.5q0 118 71 188t181 70q111 0 182 -68t71 -190q0 -128 -72.5 -197t-180.5 -69zM381 584l-84 96l-84 -96h-57
l105 171h72l105 -171h-57z" />
    <glyph glyph-name="otilde" unicode="&#xf5;" horiz-adv-x="593" 
d="M296 74q65 0 102 45.5t37 129.5q0 77 -37.5 122.5t-101.5 45.5t-101 -45.5t-37 -122.5q0 -79 36.5 -127t101.5 -48zM296 -17q-111 0 -181.5 71.5t-70.5 194.5q0 118 71 188t181 70q111 0 182 -68t71 -190q0 -128 -72.5 -197t-180.5 -69zM239 644q-21 0 -35 -14.5
t-18 -37.5l-41 10q6 60 33.5 94.5t66.5 34.5q23 0 65 -17t57 -17q21 0 35 14.5t17 37.5l42 -9q-6 -60 -33.5 -95t-66.5 -35q-23 0 -65 17t-57 17z" />
    <glyph glyph-name="odieresis" unicode="&#xf6;" horiz-adv-x="593" 
d="M296 74q65 0 102 45.5t37 129.5q0 77 -37.5 122.5t-101.5 45.5t-101 -45.5t-37 -122.5q0 -79 36.5 -127t101.5 -48zM296 -17q-111 0 -181.5 71.5t-70.5 194.5q0 118 71 188t181 70q111 0 182 -68t71 -190q0 -128 -72.5 -197t-180.5 -69zM199 724q26 0 42.5 -16t16.5 -43
q0 -26 -16 -42t-42 -16q-27 0 -43 16t-16 42q0 27 16 43t42 16zM395 724q26 0 42.5 -16t16.5 -43q0 -26 -16 -42t-42 -16q-27 0 -43 16t-16 42q0 27 16 43t42 16z" />
    <glyph glyph-name="divide" unicode="&#xf7;" horiz-adv-x="587" 
d="M542 301v-85h-497v85h497zM293 154q27 0 43.5 -16t16.5 -43q0 -26 -16 -42t-42 -16q-27 0 -43 15.5t-16 42.5t15.5 43t41.5 16zM293 479q27 0 43.5 -16t16.5 -43q0 -26 -16 -42t-42 -16q-27 0 -43 16t-16 42q0 27 15.5 43t41.5 16z" />
    <glyph glyph-name="oslash" unicode="&#xf8;" horiz-adv-x="593" 
d="M296 -17q-67 0 -123 28l-27 -38l-59 17l39 53q-82 74 -82 206q0 118 71 188t181 70q70 0 124 -27l27 38l60 -17l-38 -54q80 -70 80 -198t-72.5 -197t-180.5 -69zM158 249q0 -74 31 -120l178 269q-32 19 -71 19q-64 0 -101 -45.5t-37 -122.5zM296 74q65 0 102 45.5
t37 129.5q0 67 -30 111l-178 -268q29 -18 69 -18z" />
    <glyph glyph-name="ugrave" unicode="&#xf9;" horiz-adv-x="589" 
d="M73 490h110v-304q0 -96 89 -96q70 0 113 70q13 22 13 52v278h110v-480l-110 -23v90q-68 -89 -168 -89q-77 0 -117 44t-40 127v331zM295 584l-144 171h120l76 -171h-52z" />
    <glyph glyph-name="uacute" unicode="&#xfa;" horiz-adv-x="589" 
d="M73 490h110v-304q0 -96 89 -96q70 0 113 70q13 22 13 52v278h110v-480l-110 -23v90q-68 -89 -168 -89q-77 0 -117 44t-40 127v331zM431 755l-144 -171h-51l75 171h120z" />
    <glyph glyph-name="ucircumflex" unicode="&#xfb;" horiz-adv-x="589" 
d="M73 490h110v-304q0 -96 89 -96q70 0 113 70q13 22 13 52v278h110v-480l-110 -23v90q-68 -89 -168 -89q-77 0 -117 44t-40 127v331zM375 584l-84 96l-84 -96h-57l105 171h72l105 -171h-57z" />
    <glyph glyph-name="udieresis" unicode="&#xfc;" horiz-adv-x="589" 
d="M73 490h110v-304q0 -96 89 -96q70 0 113 70q13 22 13 52v278h110v-480l-110 -23v90q-68 -89 -168 -89q-77 0 -117 44t-40 127v331zM192 724q26 0 42.5 -16t16.5 -43q0 -26 -16 -42t-42 -16q-27 0 -43 16t-16 42q0 27 16 43t42 16zM388 724q26 0 42.5 -16t16.5 -43
q0 -26 -16 -42t-42 -16q-27 0 -43 16t-16 42q0 27 16 43t42 16z" />
    <glyph glyph-name="yacute" unicode="&#xfd;" horiz-adv-x="523" 
d="M58 -234q88 96 150 235l-204 489h120l136 -359l145 359h114l-214 -503q-64 -150 -116 -224h-131v3zM405 755l-144 -171h-51l75 171h120z" />
    <glyph glyph-name="thorn" unicode="&#xfe;" horiz-adv-x="602" 
d="M81 757l110 23v-300q53 23 116 23q109 0 180 -69t71 -185q0 -121 -71 -193.5t-192 -72.5q-58 0 -104 23v-219l-110 -24v994zM283 417q-60 0 -92 -24v-302q35 -24 90 -24q75 0 119 48t44 130q0 78 -43.5 125t-117.5 47z" />
    <glyph glyph-name="ydieresis" unicode="&#xff;" horiz-adv-x="523" 
d="M58 -234q88 96 150 235l-204 489h120l136 -359l145 359h114l-214 -503q-64 -150 -116 -224h-131v3zM166 724q26 0 42.5 -16t16.5 -43q0 -26 -16 -42t-42 -16q-27 0 -43 16t-16 42q0 27 16 43t42 16zM362 724q26 0 42.5 -16t16.5 -43q0 -26 -16 -42t-42 -16q-27 0 -43 16
t-16 42q0 27 16 43t42 16z" />
    <glyph glyph-name="Amacron" unicode="&#x100;" horiz-adv-x="773" 
d="M4 0l347 768l88 14l330 -782h-131l-93 233h-314l-96 -233h-131zM392 623l-127 -299h247zM548 921v-75h-298v75h298z" />
    <glyph glyph-name="amacron" unicode="&#x101;" horiz-adv-x="510" 
d="M91 358v97q70 49 165 49q181 0 181 -178v-316l-107 -23v69q-78 -68 -166 -68q-60 0 -95 30.5t-35 84.5q0 97 113 148q76 34 183 47v28q0 86 -93 86q-85 0 -143 -54h-3zM330 136v104q-79 -11 -128 -35q-54 -27 -54 -74q0 -58 64 -58q68 0 118 63zM393 706v-81h-276v81h276
z" />
    <glyph glyph-name="Abreve" unicode="&#x102;" horiz-adv-x="773" 
d="M4 0l347 768l88 14l330 -782h-131l-93 233h-314l-96 -233h-131zM392 623l-127 -299h247zM398 889q77 0 82 74h49q0 -61 -31.5 -102.5t-99.5 -41.5q-69 0 -99.5 41t-30.5 103h49q5 -74 81 -74z" />
    <glyph glyph-name="abreve" unicode="&#x103;" horiz-adv-x="510" 
d="M91 358v97q70 49 165 49q181 0 181 -178v-316l-107 -23v69q-78 -68 -166 -68q-60 0 -95 30.5t-35 84.5q0 97 113 148q76 34 183 47v28q0 86 -93 86q-85 0 -143 -54h-3zM330 136v104q-79 -11 -128 -35q-54 -27 -54 -74q0 -58 64 -58q68 0 118 63zM255 665q82 0 82 86h49
q0 -162 -131 -162q-130 0 -130 162h49q0 -86 81 -86z" />
    <glyph glyph-name="Aogonek" unicode="&#x104;" horiz-adv-x="773" 
d="M4 0l347 768l88 14l330 -782q-69 -23 -101.5 -55.5t-32.5 -69.5q0 -16 10.5 -26.5t29.5 -10.5q41 0 68 31h3l-7 -85q-36 -21 -86 -21q-51 0 -81 24.5t-30 68.5q0 35 21.5 67.5t74.5 76.5l-93 233h-314l-96 -233h-131zM392 623l-127 -299h247z" />
    <glyph glyph-name="aogonek" unicode="&#x105;" horiz-adv-x="510" 
d="M91 358v97q70 49 165 49q181 0 181 -178v-316q-64 -39 -88.5 -70t-24.5 -65q0 -16 10.5 -26.5t29.5 -10.5q41 0 68 31h3l-7 -85q-36 -21 -86 -21q-51 0 -81 24.5t-30 68.5q0 35 22 67t77 77v56q-78 -68 -166 -68q-60 0 -95 30.5t-35 84.5q0 97 113 148q76 34 183 47v28
q0 86 -93 86q-85 0 -143 -54h-3zM330 136v104q-79 -11 -128 -35q-54 -27 -54 -74q0 -58 64 -58q68 0 118 63z" />
    <glyph glyph-name="Cacute" unicode="&#x106;" horiz-adv-x="743" 
d="M684 716l-12 -137h-3q-80 94 -222 94q-120 0 -197.5 -83t-77.5 -204q0 -127 75.5 -206.5t196.5 -79.5q146 0 246 116h3l-13 -153q-104 -76 -246 -76q-169 0 -276 110.5t-107 290.5q0 163 110.5 280t277.5 117q147 0 245 -69zM562 960l-137 -141h-61l75 141h123z" />
    <glyph glyph-name="cacute" unicode="&#x107;" horiz-adv-x="505" 
d="M469 150l-16 -124q-64 -43 -158 -43q-116 0 -183.5 68t-67.5 186q0 119 72.5 194.5t199.5 75.5q88 0 144 -37l-15 -107q-53 45 -126 45q-75 0 -118 -46t-43 -125q0 -68 40 -111.5t112 -43.5q91 0 156 68h3zM428 755l-144 -171h-51l75 171h120z" />
    <glyph glyph-name="Ccircumflex" unicode="&#x108;" horiz-adv-x="743" 
d="M684 716l-12 -137h-3q-80 94 -222 94q-120 0 -197.5 -83t-77.5 -204q0 -127 75.5 -206.5t196.5 -79.5q146 0 246 116h3l-13 -153q-104 -76 -246 -76q-169 0 -276 110.5t-107 290.5q0 163 110.5 280t277.5 117q147 0 245 -69zM513 819l-89 78l-88 -78h-59l100 141h95
l101 -141h-60z" />
    <glyph glyph-name="ccircumflex" unicode="&#x109;" horiz-adv-x="505" 
d="M469 150l-16 -124q-64 -43 -158 -43q-116 0 -183.5 68t-67.5 186q0 119 72.5 194.5t199.5 75.5q88 0 144 -37l-15 -107q-53 45 -126 45q-75 0 -118 -46t-43 -125q0 -68 40 -111.5t112 -43.5q91 0 156 68h3zM372 584l-84 96l-84 -96h-57l105 171h72l105 -171h-57z" />
    <glyph glyph-name="Cdotaccent" unicode="&#x10a;" horiz-adv-x="743" 
d="M684 716l-12 -137h-3q-80 94 -222 94q-120 0 -197.5 -83t-77.5 -204q0 -127 75.5 -206.5t196.5 -79.5q146 0 246 116h3l-13 -153q-104 -76 -246 -76q-169 0 -276 110.5t-107 290.5q0 163 110.5 280t277.5 117q147 0 245 -69zM423 954q29 0 46.5 -18t17.5 -46
q0 -27 -17.5 -44.5t-45.5 -17.5q-29 0 -46 16.5t-17 45.5t17 46.5t45 17.5z" />
    <glyph glyph-name="cdotaccent" unicode="&#x10b;" horiz-adv-x="505" 
d="M469 150l-16 -124q-64 -43 -158 -43q-116 0 -183.5 68t-67.5 186q0 119 72.5 194.5t199.5 75.5q88 0 144 -37l-15 -107q-53 45 -126 45q-75 0 -118 -46t-43 -125q0 -68 40 -111.5t112 -43.5q91 0 156 68h3zM287 736q29 0 47.5 -18.5t18.5 -47.5t-18 -47.5t-47 -18.5
q-31 0 -49 18t-18 48q0 29 18.5 47.5t47.5 18.5z" />
    <glyph glyph-name="Ccaron" unicode="&#x10c;" horiz-adv-x="743" 
d="M684 716l-12 -137h-3q-80 94 -222 94q-120 0 -197.5 -83t-77.5 -204q0 -127 75.5 -206.5t196.5 -79.5q146 0 246 116h3l-13 -153q-104 -76 -246 -76q-169 0 -276 110.5t-107 290.5q0 163 110.5 280t277.5 117q147 0 245 -69zM276 960h59l89 -79l88 79h60l-101 -141h-95z
" />
    <glyph glyph-name="ccaron" unicode="&#x10d;" horiz-adv-x="505" 
d="M469 150l-16 -124q-64 -43 -158 -43q-116 0 -183.5 68t-67.5 186q0 119 72.5 194.5t199.5 75.5q88 0 144 -37l-15 -107q-53 45 -126 45q-75 0 -118 -46t-43 -125q0 -68 40 -111.5t112 -43.5q91 0 156 68h3zM147 755h57l84 -96l84 96h57l-105 -171h-72z" />
    <glyph glyph-name="Dcaron" unicode="&#x10e;" horiz-adv-x="769" 
d="M290 0h-194v772h196q200 0 312.5 -103t112.5 -273q0 -190 -110 -293t-317 -103zM212 666v-559h83q147 0 225 74.5t78 214.5q0 117 -80 193.5t-221 76.5h-85zM184 960h59l89 -79l88 79h60l-101 -141h-95z" />
    <glyph glyph-name="dcaron" unicode="&#x10f;" horiz-adv-x="608" 
d="M424 -16l2 50q-63 -51 -152 -51q-106 0 -168 71.5t-62 178.5q0 118 74.5 196t184.5 78q62 0 113 -26v277l110 22v-770zM305 74q71 0 111 37v280q-37 25 -97 25q-71 0 -116 -49.5t-45 -130.5q0 -74 39 -118t108 -44zM667 781q13 -27 13 -61q0 -59 -74 -138h-45
q35 78 35 127q0 26 -12 52z" />
    <glyph glyph-name="Dcroat" unicode="&#x110;" horiz-adv-x="769" 
d="M290 0h-194v348h-64v91h64v333h196q200 0 312.5 -103t112.5 -273q0 -190 -110 -293t-317 -103zM212 666v-227h156v-91h-156v-241h83q147 0 225 74.5t78 214.5q0 117 -80 193.5t-221 76.5h-85z" />
    <glyph glyph-name="dcroat" unicode="&#x111;" horiz-adv-x="608" 
d="M424 -16l2 50q-63 -51 -152 -51q-106 0 -168 71.5t-62 178.5q0 118 74.5 196t184.5 78q62 0 113 -26v119h-159v68h159v90l110 22v-112h55v-68h-55v-590zM305 74q71 0 111 37v280q-37 25 -97 25q-71 0 -116 -49.5t-45 -130.5q0 -74 39 -118t108 -44z" />
    <glyph glyph-name="Emacron" unicode="&#x112;" horiz-adv-x="582" 
d="M212 669v-219h271v-97h-271v-251h317v-102h-433v772h428v-103h-312zM458 921v-75h-298v75h298z" />
    <glyph glyph-name="emacron" unicode="&#x113;" horiz-adv-x="517" 
d="M307 218q-63 -18 -163 -32q11 -50 47.5 -79.5t96.5 -29.5q101 0 165 77h3l-7 -115q-67 -56 -169 -56q-115 0 -176.5 67.5t-61.5 166.5q0 114 78 202.5t194 88.5q73 0 114.5 -36.5t41.5 -93.5q0 -58 -39 -97t-124 -63zM288 427q-57 0 -100 -54.5t-48 -127.5q78 13 132 30
q88 27 88 87q0 30 -19 47.5t-53 17.5zM420 706v-81h-276v81h276z" />
    <glyph glyph-name="Ebreve" unicode="&#x114;" horiz-adv-x="582" 
d="M212 669v-219h271v-97h-271v-251h317v-102h-433v772h428v-103h-312zM308 889q77 0 82 74h49q0 -61 -32 -102.5t-99 -41.5q-69 0 -99.5 41t-30.5 103h49q5 -74 81 -74z" />
    <glyph glyph-name="ebreve" unicode="&#x115;" horiz-adv-x="517" 
d="M307 218q-63 -18 -163 -32q11 -50 47.5 -79.5t96.5 -29.5q101 0 165 77h3l-7 -115q-67 -56 -169 -56q-115 0 -176.5 67.5t-61.5 166.5q0 114 78 202.5t194 88.5q73 0 114.5 -36.5t41.5 -93.5q0 -58 -39 -97t-124 -63zM288 427q-57 0 -100 -54.5t-48 -127.5q78 13 132 30
q88 27 88 87q0 30 -19 47.5t-53 17.5zM282 665q82 0 82 86h49q0 -162 -131 -162q-130 0 -130 162h49q0 -86 81 -86z" />
    <glyph glyph-name="Edotaccent" unicode="&#x116;" horiz-adv-x="582" 
d="M212 669v-219h271v-97h-271v-251h317v-102h-433v772h428v-103h-312zM308 954q28 0 46 -18t18 -46q0 -27 -17.5 -44.5t-45.5 -17.5q-29 0 -46 16.5t-17 45.5t17 46.5t45 17.5z" />
    <glyph glyph-name="edotaccent" unicode="&#x117;" horiz-adv-x="517" 
d="M307 218q-63 -18 -163 -32q11 -50 47.5 -79.5t96.5 -29.5q101 0 165 77h3l-7 -115q-67 -56 -169 -56q-115 0 -176.5 67.5t-61.5 166.5q0 114 78 202.5t194 88.5q73 0 114.5 -36.5t41.5 -93.5q0 -58 -39 -97t-124 -63zM288 427q-57 0 -100 -54.5t-48 -127.5q78 13 132 30
q88 27 88 87q0 30 -19 47.5t-53 17.5zM282 736q29 0 47.5 -18.5t18.5 -47.5t-18 -47.5t-47 -18.5q-31 0 -49 18t-18 48q0 29 18.5 47.5t47.5 18.5z" />
    <glyph glyph-name="Eogonek" unicode="&#x118;" horiz-adv-x="582" 
d="M418 0h-322v772h428v-103h-312v-219h271v-97h-271v-251h317v-102h-1q-63 -33 -88 -62.5t-25 -62.5q0 -16 10.5 -26.5t30.5 -10.5q40 0 67 31h3l-7 -85q-35 -21 -86 -21t-81 24.5t-30 68.5q0 35 21.5 67t74.5 77z" />
    <glyph glyph-name="eogonek" unicode="&#x119;" horiz-adv-x="517" 
d="M239 -149q0 38 20.5 69t66.5 68q-25 -5 -46 -5q-115 0 -176.5 67.5t-61.5 166.5q0 114 78 202.5t194 88.5q73 0 114.5 -36.5t41.5 -93.5q0 -116 -163 -160q-73 -20 -163 -32q11 -50 47.5 -79.5t96.5 -29.5q101 0 165 77h3l-7 -115q-71 -66 -93.5 -98.5t-22.5 -65.5
q0 -16 10 -26.5t27 -10.5q41 0 70 30h3l-6 -84q-36 -21 -87 -21q-52 0 -81.5 23t-29.5 65zM288 427q-58 0 -101 -55.5t-47 -128.5q77 11 132 31q88 29 88 88q0 30 -19 47.5t-53 17.5z" />
    <glyph glyph-name="Ecaron" unicode="&#x11a;" horiz-adv-x="582" 
d="M212 669v-219h271v-97h-271v-251h317v-102h-433v772h428v-103h-312zM161 960h59l89 -79l88 79h60l-101 -141h-95z" />
    <glyph glyph-name="ecaron" unicode="&#x11b;" horiz-adv-x="517" 
d="M307 218q-63 -18 -163 -32q11 -50 47.5 -79.5t96.5 -29.5q101 0 165 77h3l-7 -115q-67 -56 -169 -56q-115 0 -176.5 67.5t-61.5 166.5q0 114 78 202.5t194 88.5q73 0 114.5 -36.5t41.5 -93.5q0 -58 -39 -97t-124 -63zM288 427q-57 0 -100 -54.5t-48 -127.5q78 13 132 30
q88 27 88 87q0 30 -19 47.5t-53 17.5zM141 755h57l84 -96l84 96h57l-105 -171h-72z" />
    <glyph glyph-name="Gcircumflex" unicode="&#x11c;" horiz-adv-x="773" 
d="M712 361v-276q-124 -98 -279 -98q-170 0 -276 108.5t-106 286.5q0 169 106.5 286t283.5 117q140 0 243 -68l-13 -134h-3q-88 94 -225 94q-124 0 -197.5 -81.5t-73.5 -212.5q0 -132 73 -211t192 -79q97 0 155 52v216h120zM514 819l-89 78l-88 -78h-59l100 141h95l101 -141
h-60z" />
    <glyph glyph-name="gcircumflex" unicode="&#x11d;" horiz-adv-x="535" 
d="M255 503q61 0 114 -28q52 69 132 69v-92q-44 0 -76 -24q35 -45 35 -93q0 -119 -155 -158q-19 -5 -56 -11.5t-50 -9.5q-37 -9 -37 -26t52 -28q20 -4 80 -13t80 -13q119 -23 119 -123q0 -80 -75.5 -135t-183.5 -55q-87 0 -139.5 43t-52.5 104q0 75 83 121q-79 25 -79 75
q0 51 109 94q-99 48 -99 134q0 70 57 119.5t142 49.5zM327 -7q-15 3 -64 10t-79 13q-59 -30 -59 -82q0 -36 31.5 -60t86.5 -24q61 0 101.5 26t40.5 62q0 43 -58 55zM153 327q0 -60 67 -90q8 -5 19 -5t28 4q87 24 87 91q0 38 -28.5 65t-74.5 27q-42 0 -70 -25.5t-28 -66.5z
M344 584l-84 96l-84 -96h-57l105 171h72l105 -171h-57z" />
    <glyph glyph-name="Gbreve" unicode="&#x11e;" horiz-adv-x="773" 
d="M712 361v-276q-124 -98 -279 -98q-170 0 -276 108.5t-106 286.5q0 169 106.5 286t283.5 117q140 0 243 -68l-13 -134h-3q-88 94 -225 94q-124 0 -197.5 -81.5t-73.5 -212.5q0 -132 73 -211t192 -79q97 0 155 52v216h120zM425 889q77 0 82 74h49q0 -61 -32 -102.5
t-99 -41.5q-69 0 -99.5 41t-30.5 103h49q5 -74 81 -74z" />
    <glyph glyph-name="gbreve" unicode="&#x11f;" horiz-adv-x="535" 
d="M255 503q61 0 114 -28q52 69 132 69v-92q-44 0 -76 -24q35 -45 35 -93q0 -119 -155 -158q-19 -5 -56 -11.5t-50 -9.5q-37 -9 -37 -26t52 -28q20 -4 80 -13t80 -13q119 -23 119 -123q0 -80 -75.5 -135t-183.5 -55q-87 0 -139.5 43t-52.5 104q0 75 83 121q-79 25 -79 75
q0 51 109 94q-99 48 -99 134q0 70 57 119.5t142 49.5zM327 -7q-15 3 -64 10t-79 13q-59 -30 -59 -82q0 -36 31.5 -60t86.5 -24q61 0 101.5 26t40.5 62q0 43 -58 55zM153 327q0 -60 67 -90q8 -5 19 -5t28 4q87 24 87 91q0 38 -28.5 65t-74.5 27q-42 0 -70 -25.5t-28 -66.5z
M260 665q82 0 82 86h49q0 -162 -131 -162q-130 0 -130 162h49q0 -86 81 -86z" />
    <glyph glyph-name="Gdotaccent" unicode="&#x120;" horiz-adv-x="773" 
d="M712 361v-276q-124 -98 -279 -98q-170 0 -276 108.5t-106 286.5q0 169 106.5 286t283.5 117q140 0 243 -68l-13 -134h-3q-88 94 -225 94q-124 0 -197.5 -81.5t-73.5 -212.5q0 -132 73 -211t192 -79q97 0 155 52v216h120zM424 954q28 0 46 -18t18 -46q0 -27 -17.5 -44.5
t-45.5 -17.5q-29 0 -46 16.5t-17 45.5t17 46.5t45 17.5z" />
    <glyph glyph-name="gdotaccent" unicode="&#x121;" horiz-adv-x="535" 
d="M255 503q61 0 114 -28q52 69 132 69v-92q-44 0 -76 -24q35 -45 35 -93q0 -119 -155 -158q-19 -5 -56 -11.5t-50 -9.5q-37 -9 -37 -26t52 -28q20 -4 80 -13t80 -13q119 -23 119 -123q0 -80 -75.5 -135t-183.5 -55q-87 0 -139.5 43t-52.5 104q0 75 83 121q-79 25 -79 75
q0 51 109 94q-99 48 -99 134q0 70 57 119.5t142 49.5zM327 -7q-15 3 -64 10t-79 13q-59 -30 -59 -82q0 -36 31.5 -60t86.5 -24q61 0 101.5 26t40.5 62q0 43 -58 55zM153 327q0 -60 67 -90q8 -5 19 -5t28 4q87 24 87 91q0 38 -28.5 65t-74.5 27q-42 0 -70 -25.5t-28 -66.5z
M260 736q29 0 47.5 -18.5t18.5 -47.5t-18 -47.5t-47 -18.5q-31 0 -49 18t-18 48q0 29 18.5 47.5t47.5 18.5z" />
    <glyph glyph-name="Gcommaaccent" unicode="&#x122;" horiz-adv-x="773" 
d="M712 361v-276q-124 -98 -279 -98q-170 0 -276 108.5t-106 286.5q0 169 106.5 286t283.5 117q140 0 243 -68l-13 -134h-3q-88 94 -225 94q-124 0 -197.5 -81.5t-73.5 -212.5q0 -132 73 -211t192 -79q97 0 155 52v216h120zM475 -58q14 -26 14 -57q0 -29 -19 -56.5
t-69 -65.5h-58q58 69 58 117q0 21 -14 42z" />
    <glyph glyph-name="gcommaaccent" unicode="&#x123;" horiz-adv-x="535" 
d="M255 503q61 0 114 -28q52 69 132 69v-92q-44 0 -76 -24q35 -45 35 -93q0 -119 -155 -158q-19 -5 -56 -11.5t-50 -9.5q-37 -9 -37 -26t52 -28q20 -4 80 -13t80 -13q119 -23 119 -123q0 -80 -75.5 -135t-183.5 -55q-87 0 -139.5 43t-52.5 104q0 75 83 121q-79 25 -79 75
q0 51 109 94q-99 48 -99 134q0 70 57 119.5t142 49.5zM327 -7q-15 3 -64 10t-79 13q-59 -30 -59 -82q0 -36 31.5 -60t86.5 -24q61 0 101.5 26t40.5 62q0 43 -58 55zM153 327q0 -60 67 -90q8 -5 19 -5t28 4q87 24 87 91q0 38 -28.5 65t-74.5 27q-42 0 -70 -25.5t-28 -66.5z
M201 579q-14 28 -14 57q0 53 88 122h58q-58 -67 -58 -117q0 -22 14 -42z" />
    <glyph glyph-name="Hcircumflex" unicode="&#x124;" horiz-adv-x="796" 
d="M212 0h-116v772h116v-318h372v318h115v-772h-115v348h-372v-348zM486 819l-89 78l-88 -78h-59l100 141h95l101 -141h-60z" />
    <glyph glyph-name="hcircumflex" unicode="&#x125;" horiz-adv-x="595" 
d="M81 0v758l110 22v-367q80 90 172 90q76 0 117 -42.5t41 -124.5v-336h-110v298q0 104 -88 104q-64 0 -103 -51q-29 -36 -29 -87v-264h-110zM370 819l-89 78l-88 -78h-59l100 141h95l101 -141h-60z" />
    <glyph glyph-name="Hbar" unicode="&#x126;" horiz-adv-x="801" 
d="M212 0h-116v588h-64v69h64v115h116v-115h372v115h115v-115h65v-69h-65v-588h-115v348h-372v-348zM212 454h372v134h-372v-134z" />
    <glyph glyph-name="hbar" unicode="&#x127;" horiz-adv-x="595" 
d="M81 0v600h-54v68h54v90l110 22v-112h160v-68h-160v-187q80 90 172 90q76 0 117 -42.5t41 -124.5v-336h-110v298q0 104 -88 104q-64 0 -103 -51q-29 -36 -29 -87v-264h-110z" />
    <glyph glyph-name="Itilde" unicode="&#x128;" horiz-adv-x="308" 
d="M212 0h-116v772h116v-772zM89 860q-21 0 -36 -15t-17 -37l-41 9q6 60 32 95t63 35q25 0 70.5 -17t62.5 -17q22 0 35.5 14.5t16.5 37.5l41 -10q-5 -60 -31 -94.5t-63 -34.5q-25 0 -70.5 17t-62.5 17z" />
    <glyph glyph-name="itilde" unicode="&#x129;" horiz-adv-x="273" 
d="M85 633q-21 0 -35.5 -15t-16.5 -37l-42 10q6 60 33.5 94.5t66.5 34.5q19 0 54.5 -17t47.5 -17q21 0 35 14.5t18 37.5l41 -9q-6 -60 -33.5 -95t-66.5 -35q-19 0 -54.5 17t-47.5 17zM81 479l110 23v-502h-110v479z" />
    <glyph glyph-name="Imacron" unicode="&#x12a;" horiz-adv-x="308" 
d="M212 0h-116v772h116v-772zM303 921v-75h-298v75h298z" />
    <glyph glyph-name="imacron" unicode="&#x12b;" horiz-adv-x="273" 
d="M81 479l110 23v-502h-110v479zM273 706v-81h-276v81h276z" />
    <glyph glyph-name="Ibreve" unicode="&#x12c;" horiz-adv-x="308" 
d="M212 0h-116v772h116v-772zM153 889q77 0 82 74h49q0 -61 -32 -102.5t-99 -41.5q-69 0 -99.5 41t-30.5 103h49q5 -74 81 -74z" />
    <glyph glyph-name="ibreve" unicode="&#x12d;" horiz-adv-x="273" 
d="M81 479l110 23v-502h-110v479zM135 665q82 0 82 86h49q0 -162 -131 -162q-130 0 -130 162h49q0 -86 81 -86z" />
    <glyph glyph-name="Iogonek" unicode="&#x12e;" horiz-adv-x="308" 
d="M212 0q-54 -33 -75.5 -61.5t-21.5 -63.5q0 -16 10 -26.5t27 -10.5q41 0 70 30h3l-7 -84q-34 -21 -86 -21q-51 0 -81 24.5t-30 68.5q0 34 17 66.5t58 77.5v772h116v-772z" />
    <glyph glyph-name="iogonek" unicode="&#x12f;" horiz-adv-x="273" 
d="M81 479l110 23v-502q-88 -52 -88 -125q0 -16 10 -26.5t27 -10.5q43 0 70 30h3l-6 -84q-36 -21 -87 -21t-81 24.5t-30 68.5q0 34 16 66.5t56 77.5v479zM136 737q30 0 48.5 -18.5t18.5 -48.5q0 -29 -18.5 -47.5t-47.5 -18.5q-30 0 -48 18t-18 48t18 48.5t47 18.5z" />
    <glyph glyph-name="Idotaccent" unicode="&#x130;" horiz-adv-x="308" 
d="M212 0h-116v772h116v-772zM152 954q28 0 46 -18t18 -46q0 -27 -17.5 -44.5t-45.5 -17.5q-29 0 -46 16.5t-17 45.5t17 46.5t45 17.5z" />
    <glyph glyph-name="dotlessi" unicode="&#x131;" horiz-adv-x="273" 
d="M81 479l110 23v-502h-110v479z" />
    <glyph glyph-name="IJ" unicode="&#x132;" horiz-adv-x="586" 
d="M212 0h-116v772h116v-772zM375 772h116v-636q0 -130 -19 -207t-63 -126l-162 -40l-4 11q76 56 104 128t28 224v646z" />
    <glyph glyph-name="ij" unicode="&#x133;" horiz-adv-x="503" 
d="M81 479l110 23v-502h-110v479zM136 737q30 0 48.5 -18.5t18.5 -48.5q0 -29 -18.5 -47.5t-47.5 -18.5q-30 0 -48 18t-18 48t18 48.5t47 18.5zM312 479l110 23v-514q0 -135 -49 -189l-150 -36l-6 15q50 31 72.5 80t22.5 128v493zM366 737q30 0 48.5 -18.5t18.5 -48.5
q0 -29 -18.5 -47.5t-47.5 -18.5q-30 0 -48 18t-18 48t18 48.5t47 18.5z" />
    <glyph glyph-name="Jcircumflex" unicode="&#x134;" horiz-adv-x="308" 
d="M97 772h116v-636q0 -130 -19 -207t-63 -126l-162 -40l-4 11q76 56 104 128t28 224v646zM243 819l-89 78l-88 -78h-59l100 141h95l101 -141h-60z" />
    <glyph glyph-name="jcircumflex" unicode="&#x135;" horiz-adv-x="268" 
d="M81 479l110 23v-514q0 -135 -49 -189l-150 -36l-6 15q50 31 72.5 80t22.5 128v493zM220 584l-84 96l-84 -96h-57l105 171h72l105 -171h-57z" />
    <glyph glyph-name="Kcommaaccent" unicode="&#x136;" horiz-adv-x="728" 
d="M212 0h-116v772h116v-362l328 362h155l-359 -376l389 -396h-161l-352 376v-376zM417 -58q14 -26 14 -57q0 -29 -19 -56.5t-69 -65.5h-58q58 69 58 117q0 21 -14 42z" />
    <glyph glyph-name="kcommaaccent" unicode="&#x137;" horiz-adv-x="563" 
d="M191 780v-504l197 214h144l-228 -224l281 -266h-158l-236 252v-252h-110v757zM336 -58q14 -26 14 -57q0 -29 -19 -56.5t-69 -65.5h-58q58 69 58 117q0 21 -14 42z" />
    <glyph glyph-name="kgreenlandic" unicode="&#x138;" horiz-adv-x="563" 
d="M191 490v-214l197 214h144l-228 -224l281 -266h-158l-236 252v-252h-110v490h110z" />
    <glyph glyph-name="Lacute" unicode="&#x139;" horiz-adv-x="606" 
d="M96 0v772h116v-665h376v-107h-492zM319 960l-137 -141h-61l75 141h123z" />
    <glyph glyph-name="lacute" unicode="&#x13a;" horiz-adv-x="273" 
d="M191 780v-780h-110v757zM273 960l-137 -141h-61l75 141h123z" />
    <glyph glyph-name="Lcommaaccent" unicode="&#x13b;" horiz-adv-x="606" 
d="M96 0v772h116v-665h376v-107h-492zM384 -58q14 -26 14 -57q0 -29 -19 -56.5t-69 -65.5h-58q58 69 58 117q0 21 -14 42z" />
    <glyph glyph-name="lcommaaccent" unicode="&#x13c;" horiz-adv-x="273" 
d="M191 780v-780h-110v757zM178 -58q14 -26 14 -57q0 -29 -19 -56.5t-69 -65.5h-58q58 69 58 117q0 21 -14 42z" />
    <glyph glyph-name="Lcaron" unicode="&#x13d;" horiz-adv-x="606" 
d="M96 0v772h116v-665h376v-107h-492zM382 781q13 -27 13 -61q0 -59 -74 -138h-45q35 78 35 127q0 26 -12 52z" />
    <glyph glyph-name="lcaron" unicode="&#x13e;" horiz-adv-x="273" 
d="M191 780v-780h-110v757zM332 781q13 -27 13 -61q0 -59 -74 -138h-45q35 78 35 127q0 26 -12 52z" />
    <glyph glyph-name="Ldot" unicode="&#x13f;" horiz-adv-x="606" 
d="M96 0v772h116v-665h376v-107h-492zM454 538q28 0 46 -18t18 -46q0 -27 -17.5 -44.5t-45.5 -17.5q-29 0 -46 16.5t-17 45.5t17 46.5t45 17.5z" />
    <glyph glyph-name="ldot" unicode="&#x140;" horiz-adv-x="393" 
d="M191 780v-780h-110v757zM330 463q29 0 47.5 -18.5t18.5 -47.5t-18 -47.5t-47 -18.5q-31 0 -49 18t-18 48q0 29 18.5 47.5t47.5 18.5z" />
    <glyph glyph-name="Lslash" unicode="&#x141;" horiz-adv-x="606" 
d="M96 0v313l-64 -42v93l64 42v366h116v-290l148 98v-93l-148 -98v-282h376v-107h-492z" />
    <glyph glyph-name="lslash" unicode="&#x142;" horiz-adv-x="298" 
d="M204 780v-306l66 43v-93l-66 -43v-381h-110v310l-66 -42v91l66 43v355z" />
    <glyph glyph-name="Nacute" unicode="&#x143;" horiz-adv-x="880" 
d="M671 772h113v-772h-97l-478 588v-588h-113v772h98l477 -585v585zM578 960l-137 -141h-61l75 141h123z" />
    <glyph glyph-name="nacute" unicode="&#x144;" horiz-adv-x="595" 
d="M81 0v490h110v-77q80 90 172 90q76 0 117 -42.5t41 -124.5v-336h-110v298q0 104 -88 104q-63 0 -103 -51q-29 -36 -29 -87v-264h-110zM438 755l-144 -171h-51l75 171h120z" />
    <glyph glyph-name="Ncommaaccent" unicode="&#x145;" horiz-adv-x="880" 
d="M671 772h113v-772h-97l-478 588v-588h-113v772h98l477 -585v585zM481 -58q14 -26 14 -57q0 -29 -19 -56.5t-69 -65.5h-58q58 69 58 117q0 21 -14 42z" />
    <glyph glyph-name="ncommaaccent" unicode="&#x146;" horiz-adv-x="595" 
d="M81 0v490h110v-77q80 90 172 90q76 0 117 -42.5t41 -124.5v-336h-110v298q0 104 -88 104q-63 0 -103 -51q-29 -36 -29 -87v-264h-110zM343 -58q14 -26 14 -57q0 -29 -19 -56.5t-69 -65.5h-58q58 69 58 117q0 21 -14 42z" />
    <glyph glyph-name="Ncaron" unicode="&#x147;" horiz-adv-x="880" 
d="M671 772h113v-772h-97l-478 588v-588h-113v772h98l477 -585v585zM291 960h59l89 -79l88 79h60l-101 -141h-95z" />
    <glyph glyph-name="ncaron" unicode="&#x148;" horiz-adv-x="595" 
d="M81 0v490h110v-77q80 90 172 90q76 0 117 -42.5t41 -124.5v-336h-110v298q0 104 -88 104q-63 0 -103 -51q-29 -36 -29 -87v-264h-110zM157 755h57l84 -96l84 96h57l-105 -171h-72z" />
    <glyph glyph-name="napostrophe" unicode="&#x149;" horiz-adv-x="595" 
d="M81 0v490h110v-77q80 90 172 90q76 0 117 -42.5t41 -124.5v-336h-110v298q0 104 -88 104q-63 0 -103 -51q-29 -36 -29 -87v-264h-110zM131 781q13 -27 13 -61q0 -59 -74 -138h-45q35 78 35 127q0 26 -12 52z" />
    <glyph glyph-name="Eng" unicode="&#x14a;" horiz-adv-x="880" 
d="M784 772v-813q0 -91 -48 -143.5t-133 -52.5q-49 0 -94 21l-14 113q35 -32 85 -32q41 0 64.5 29t23.5 83v46l-459 565v-588h-113v772h98l477 -585v585h113z" />
    <glyph glyph-name="eng" unicode="&#x14b;" horiz-adv-x="595" 
d="M81 0v490h110v-77q80 90 172 90q76 0 117 -42.5t41 -124.5v-386q0 -88 -43.5 -137.5t-122.5 -49.5q-37 0 -65 14l-11 91q25 -19 58 -19q35 0 54.5 26.5t19.5 75.5v347q0 104 -88 104q-64 0 -103 -51q-29 -36 -29 -87v-264h-110z" />
    <glyph glyph-name="Omacron" unicode="&#x14c;" horiz-adv-x="853" 
d="M682 386q0 127 -72 210t-183 83q-112 0 -184 -83t-72 -210q0 -128 72 -210.5t184 -82.5t183.5 82.5t71.5 210.5zM802 386q0 -175 -106 -288t-269 -113q-165 0 -270.5 113t-105.5 288t106 288t270 113t269.5 -113t105.5 -288zM576 921v-75h-298v75h298z" />
    <glyph glyph-name="omacron" unicode="&#x14d;" horiz-adv-x="593" 
d="M296 74q65 0 102 45.5t37 129.5q0 77 -37.5 122.5t-101.5 45.5t-101 -45.5t-37 -122.5q0 -79 36.5 -127t101.5 -48zM296 -17q-111 0 -181.5 71.5t-70.5 194.5q0 118 71 188t181 70q111 0 182 -68t71 -190q0 -128 -72.5 -197t-180.5 -69zM435 706v-81h-276v81h276z" />
    <glyph glyph-name="Obreve" unicode="&#x14e;" horiz-adv-x="853" 
d="M682 386q0 127 -72 210t-183 83q-112 0 -184 -83t-72 -210q0 -128 72 -210.5t184 -82.5t183.5 82.5t71.5 210.5zM802 386q0 -175 -106 -288t-269 -113q-165 0 -270.5 113t-105.5 288t106 288t270 113t269.5 -113t105.5 -288zM426 889q77 0 82 74h49q0 -61 -31.5 -102.5
t-99.5 -41.5q-69 0 -99.5 41t-30.5 103h49q5 -74 81 -74z" />
    <glyph glyph-name="obreve" unicode="&#x14f;" horiz-adv-x="593" 
d="M296 74q65 0 102 45.5t37 129.5q0 77 -37.5 122.5t-101.5 45.5t-101 -45.5t-37 -122.5q0 -79 36.5 -127t101.5 -48zM296 -17q-111 0 -181.5 71.5t-70.5 194.5q0 118 71 188t181 70q111 0 182 -68t71 -190q0 -128 -72.5 -197t-180.5 -69zM297 665q82 0 82 86h49
q0 -162 -131 -162q-130 0 -130 162h49q0 -86 81 -86z" />
    <glyph glyph-name="Ohungarumlaut" unicode="&#x150;" horiz-adv-x="853" 
d="M682 386q0 127 -72 210t-183 83q-112 0 -184 -83t-72 -210q0 -128 72 -210.5t184 -82.5t183.5 82.5t71.5 210.5zM802 386q0 -175 -106 -288t-269 -113q-165 0 -270.5 113t-105.5 288t106 288t270 113t269.5 -113t105.5 -288zM386 960h115l-131 -141h-57zM530 960h114
l-130 -141h-58z" />
    <glyph glyph-name="ohungarumlaut" unicode="&#x151;" horiz-adv-x="593" 
d="M296 74q65 0 102 45.5t37 129.5q0 77 -37.5 122.5t-101.5 45.5t-101 -45.5t-37 -122.5q0 -79 36.5 -127t101.5 -48zM296 -17q-111 0 -181.5 71.5t-70.5 194.5q0 118 71 188t181 70q111 0 182 -68t71 -190q0 -128 -72.5 -197t-180.5 -69zM246 755h112l-119 -171h-50z
M388 755h113l-119 -171h-50z" />
    <glyph glyph-name="OE" unicode="&#x152;" horiz-adv-x="983" 
d="M620 668v-218h264v-97h-264v-251h310v-102h-497q-164 0 -273 109t-109 277t109.5 277t272.5 109h497v-104h-310zM171 386q0 -123 76 -203.5t187 -80.5h70v567h-70q-112 0 -187.5 -79.5t-75.5 -203.5z" />
    <glyph glyph-name="oe" unicode="&#x153;" horiz-adv-x="868" 
d="M276 508q62 0 110.5 -30.5t76.5 -85.5q35 53 87.5 84.5t114.5 31.5q73 0 114.5 -36.5t41.5 -93.5q0 -118 -158 -160q-70 -20 -163 -33q24 -108 139 -108q100 0 165 76h3l-7 -114q-67 -56 -169 -56q-124 0 -182 93q-61 -93 -173 -93q-102 0 -167 72t-65 194q0 117 66 188
t166 71zM282 74q57 0 90 47t33 130q0 70 -34.5 118t-88.5 48t-89 -46.5t-35 -121.5q0 -78 32.5 -126.5t91.5 -48.5zM638 427q-55 0 -97 -55.5t-46 -128.5q70 10 132 31q84 28 84 88q0 30 -19.5 47.5t-53.5 17.5z" />
    <glyph glyph-name="Racute" unicode="&#x154;" horiz-adv-x="677" 
d="M94 0v772h211q130 0 202.5 -57.5t72.5 -162.5q0 -80 -47.5 -135t-133.5 -81l274 -336h-147l-246 315q-15 -1 -47 -1h-23v-314h-116zM210 672v-278h17q233 0 233 147q0 63 -43.5 97t-125.5 34h-81zM446 960l-137 -141h-61l75 141h123z" />
    <glyph glyph-name="racute" unicode="&#x155;" horiz-adv-x="387" 
d="M375 496v-115q-8 1 -24 1q-63 0 -107 -22q-31 -15 -42 -33.5t-11 -50.5v-276h-110v490h110v-81q65 89 155 89q15 0 29 -2zM361 755l-144 -171h-51l75 171h120z" />
    <glyph glyph-name="Rcommaaccent" unicode="&#x156;" horiz-adv-x="677" 
d="M94 0v772h211q130 0 202.5 -57.5t72.5 -162.5q0 -80 -47.5 -135t-133.5 -81l274 -336h-147l-246 315q-15 -1 -47 -1h-23v-314h-116zM210 672v-278h17q233 0 233 147q0 63 -43.5 97t-125.5 34h-81zM388 -58q14 -26 14 -57q0 -29 -19 -56.5t-69 -65.5h-58q58 69 58 117
q0 21 -14 42z" />
    <glyph glyph-name="rcommaaccent" unicode="&#x157;" horiz-adv-x="387" 
d="M375 496v-115q-8 1 -24 1q-63 0 -107 -22q-31 -15 -42 -33.5t-11 -50.5v-276h-110v490h110v-81q65 89 155 89q15 0 29 -2zM178 -58q14 -26 14 -57q0 -29 -19 -56.5t-69 -65.5h-58q58 69 58 117q0 21 -14 42z" />
    <glyph glyph-name="Rcaron" unicode="&#x158;" horiz-adv-x="677" 
d="M94 0v772h211q130 0 202.5 -57.5t72.5 -162.5q0 -80 -47.5 -135t-133.5 -81l274 -336h-147l-246 315q-15 -1 -47 -1h-23v-314h-116zM210 672v-278h17q233 0 233 147q0 63 -43.5 97t-125.5 34h-81zM159 960h59l89 -79l88 79h60l-101 -141h-95z" />
    <glyph glyph-name="rcaron" unicode="&#x159;" horiz-adv-x="387" 
d="M375 496v-115q-8 1 -24 1q-63 0 -107 -22q-31 -15 -42 -33.5t-11 -50.5v-276h-110v490h110v-81q65 89 155 89q15 0 29 -2zM80 755h57l84 -96l84 96h57l-105 -171h-72z" />
    <glyph glyph-name="Sacute" unicode="&#x15a;" horiz-adv-x="561" 
d="M65 171q94 -82 197 -82q62 0 98 29.5t36 80.5q0 46 -33.5 82t-122.5 83q-100 53 -138.5 103.5t-38.5 129.5q0 82 61.5 136t158.5 54q94 0 176 -37v-130q-92 64 -168 64q-53 0 -81.5 -26t-28.5 -65q0 -45 29 -74.5t123 -77.5q100 -51 141 -106.5t41 -135.5
q0 -98 -72.5 -156.5t-189.5 -58.5q-109 0 -179 44l-12 143h3zM421 960l-137 -141h-61l75 141h123z" />
    <glyph glyph-name="sacute" unicode="&#x15b;" horiz-adv-x="447" 
d="M49 31l7 110q67 -69 164 -69q82 0 82 51q0 34 -39 54q-20 10 -62.5 26.5t-60.5 25.5q-50 25 -70.5 57.5t-20.5 81.5q0 60 45.5 99.5t120.5 39.5q92 0 165 -41l-26 -105q-26 26 -64.5 41.5t-71.5 15.5q-67 0 -67 -46q0 -35 40 -54q14 -7 56 -23.5t60 -24.5
q53 -25 74.5 -59t21.5 -83q0 -66 -48.5 -105.5t-134.5 -39.5q-102 0 -171 48zM375 755l-144 -171h-51l75 171h120z" />
    <glyph glyph-name="Scircumflex" unicode="&#x15c;" horiz-adv-x="561" 
d="M65 171q94 -82 197 -82q62 0 98 29.5t36 80.5q0 46 -33.5 82t-122.5 83q-100 53 -138.5 103.5t-38.5 129.5q0 82 61.5 136t158.5 54q94 0 176 -37v-130q-92 64 -168 64q-53 0 -81.5 -26t-28.5 -65q0 -45 29 -74.5t123 -77.5q100 -51 141 -106.5t41 -135.5
q0 -98 -72.5 -156.5t-189.5 -58.5q-109 0 -179 44l-12 143h3zM371 819l-89 78l-88 -78h-59l100 141h95l101 -141h-60z" />
    <glyph glyph-name="scircumflex" unicode="&#x15d;" horiz-adv-x="447" 
d="M49 31l7 110q67 -69 164 -69q82 0 82 51q0 34 -39 54q-20 10 -62.5 26.5t-60.5 25.5q-50 25 -70.5 57.5t-20.5 81.5q0 60 45.5 99.5t120.5 39.5q92 0 165 -41l-26 -105q-26 26 -64.5 41.5t-71.5 15.5q-67 0 -67 -46q0 -35 40 -54q14 -7 56 -23.5t60 -24.5
q53 -25 74.5 -59t21.5 -83q0 -66 -48.5 -105.5t-134.5 -39.5q-102 0 -171 48zM319 584l-84 96l-84 -96h-57l105 171h72l105 -171h-57z" />
    <glyph glyph-name="Scedilla" unicode="&#x15e;" horiz-adv-x="561" 
d="M65 171q94 -82 197 -82q62 0 98 29.5t36 80.5q0 46 -33.5 82t-122.5 83q-100 53 -138.5 103.5t-38.5 129.5q0 82 61.5 136t158.5 54q94 0 176 -37v-130q-92 64 -168 64q-53 0 -81.5 -26t-28.5 -65q0 -45 29 -74.5t123 -77.5q100 -51 141 -106.5t41 -135.5
q0 -91 -62.5 -148t-166.5 -65l-21 -42q10 2 21 2q41 0 65 -21t24 -56q0 -40 -33.5 -66.5t-85.5 -26.5q-53 0 -83 25l5 56q23 -26 72 -26q50 0 50 35q0 36 -53 36q-29 0 -45 -6l-2 3l40 85q-101 3 -166 44l-12 143h3z" />
    <glyph glyph-name="scedilla" unicode="&#x15f;" horiz-adv-x="447" 
d="M49 31l7 110q67 -69 164 -69q82 0 82 51q0 34 -39 54q-20 10 -62.5 26.5t-60.5 25.5q-50 25 -70.5 57.5t-20.5 81.5q0 60 45.5 99.5t120.5 39.5q92 0 165 -41l-26 -105q-26 26 -64.5 41.5t-71.5 15.5q-67 0 -67 -46q0 -35 40 -54q14 -7 56 -23.5t60 -24.5
q53 -25 74.5 -59t21.5 -83q0 -61 -42 -99.5t-117 -44.5l-21 -40q10 2 21 2q41 0 65 -21t24 -56q0 -40 -33.5 -66.5t-85.5 -26.5q-53 0 -83 25l5 56q23 -26 72 -26q50 0 50 35q0 36 -53 36q-29 0 -45 -6l-2 3l40 85q-87 4 -149 47z" />
    <glyph glyph-name="Scaron" unicode="&#x160;" horiz-adv-x="561" 
d="M65 171q94 -82 197 -82q62 0 98 29.5t36 80.5q0 46 -33.5 82t-122.5 83q-100 53 -138.5 103.5t-38.5 129.5q0 82 61.5 136t158.5 54q94 0 176 -37v-130q-92 64 -168 64q-53 0 -81.5 -26t-28.5 -65q0 -45 29 -74.5t123 -77.5q100 -51 141 -106.5t41 -135.5
q0 -98 -72.5 -156.5t-189.5 -58.5q-109 0 -179 44l-12 143h3zM134 960h59l89 -79l88 79h60l-101 -141h-95z" />
    <glyph glyph-name="scaron" unicode="&#x161;" horiz-adv-x="447" 
d="M49 31l7 110q67 -69 164 -69q82 0 82 51q0 34 -39 54q-20 10 -62.5 26.5t-60.5 25.5q-50 25 -70.5 57.5t-20.5 81.5q0 60 45.5 99.5t120.5 39.5q92 0 165 -41l-26 -105q-26 26 -64.5 41.5t-71.5 15.5q-67 0 -67 -46q0 -35 40 -54q14 -7 56 -23.5t60 -24.5
q53 -25 74.5 -59t21.5 -83q0 -66 -48.5 -105.5t-134.5 -39.5q-102 0 -171 48zM94 755h57l84 -96l84 96h57l-105 -171h-72z" />
    <glyph glyph-name="uni0162" unicode="&#x162;" horiz-adv-x="671" 
d="M393 0h-115v665h-263v107h640v-107h-262v-665zM379 -58q14 -26 14 -57q0 -29 -19 -56.5t-69 -65.5h-58q58 69 58 117q0 21 -14 42z" />
    <glyph glyph-name="uni0163" unicode="&#x163;" horiz-adv-x="374" 
d="M15 490h92v144l110 21v-165h140v-92h-140v-233q0 -68 16 -98t64 -57v-8l-121 -14q-36 17 -52.5 53t-16.5 110v247h-92v92zM238 -58q14 -26 14 -57q0 -29 -19 -56.5t-69 -65.5h-58q58 69 58 117q0 21 -14 42z" />
    <glyph glyph-name="Tcaron" unicode="&#x164;" horiz-adv-x="671" 
d="M393 0h-115v665h-263v107h640v-107h-262v-665zM187 960h59l89 -79l88 79h60l-101 -141h-95z" />
    <glyph glyph-name="tcaron" unicode="&#x165;" horiz-adv-x="374" 
d="M15 490h92v144l110 21v-165h140v-92h-140v-233q0 -68 16 -98t64 -57v-8l-121 -14q-36 17 -52.5 53t-16.5 110v247h-92v92zM379 781q13 -27 13 -61q0 -59 -74 -138h-45q35 78 35 127q0 26 -12 52z" />
    <glyph glyph-name="Tbar" unicode="&#x166;" horiz-adv-x="671" 
d="M393 0h-115v393h-109v91h109v181h-263v107h640v-107h-262v-181h109v-91h-109v-393z" />
    <glyph glyph-name="tbar" unicode="&#x167;" horiz-adv-x="374" 
d="M15 490h92v144l110 21v-165h140v-92h-140v-123h124v-69h-124v-41q0 -68 16 -98t64 -57v-8l-121 -14q-36 17 -52.5 53t-16.5 110v55h-79v69h79v123h-92v92z" />
    <glyph glyph-name="Utilde" unicode="&#x168;" horiz-adv-x="769" 
d="M90 772h116v-478q0 -96 50 -145.5t128 -49.5t128.5 49.5t50.5 145.5v478h116v-483q0 -152 -81 -227.5t-214 -75.5q-132 0 -213 74.5t-81 222.5v489zM320 860q-21 0 -36 -15t-17 -37l-41 9q6 60 32 95t63 35q25 0 70.5 -17t62.5 -17q22 0 35.5 14.5t16.5 37.5l41 -10
q-5 -60 -31 -94.5t-63 -34.5q-25 0 -70.5 17t-62.5 17z" />
    <glyph glyph-name="utilde" unicode="&#x169;" horiz-adv-x="589" 
d="M73 490h110v-304q0 -96 89 -96q70 0 113 70q13 22 13 52v278h110v-480l-110 -23v90q-68 -89 -168 -89q-77 0 -117 44t-40 127v331zM233 644q-21 0 -35 -14.5t-18 -37.5l-41 10q6 60 33.5 94.5t66.5 34.5q23 0 65 -17t57 -17q21 0 35 14.5t17 37.5l42 -9q-6 -60 -33.5 -95
t-66.5 -35q-23 0 -65 17t-57 17z" />
    <glyph glyph-name="Umacron" unicode="&#x16a;" horiz-adv-x="769" 
d="M90 772h116v-478q0 -96 50 -145.5t128 -49.5t128.5 49.5t50.5 145.5v478h116v-483q0 -152 -81 -227.5t-214 -75.5q-132 0 -213 74.5t-81 222.5v489zM533 921v-75h-298v75h298z" />
    <glyph glyph-name="umacron" unicode="&#x16b;" horiz-adv-x="589" 
d="M73 490h110v-304q0 -96 89 -96q70 0 113 70q13 22 13 52v278h110v-480l-110 -23v90q-68 -89 -168 -89q-77 0 -117 44t-40 127v331zM428 706v-81h-276v81h276z" />
    <glyph glyph-name="Ubreve" unicode="&#x16c;" horiz-adv-x="769" 
d="M90 772h116v-478q0 -96 50 -145.5t128 -49.5t128.5 49.5t50.5 145.5v478h116v-483q0 -152 -81 -227.5t-214 -75.5q-132 0 -213 74.5t-81 222.5v489zM384 889q77 0 82 74h49q0 -61 -32 -102.5t-99 -41.5q-69 0 -99.5 41t-30.5 103h49q5 -74 81 -74z" />
    <glyph glyph-name="ubreve" unicode="&#x16d;" horiz-adv-x="589" 
d="M73 490h110v-304q0 -96 89 -96q70 0 113 70q13 22 13 52v278h110v-480l-110 -23v90q-68 -89 -168 -89q-77 0 -117 44t-40 127v331zM290 665q82 0 82 86h49q0 -162 -131 -162q-130 0 -130 162h49q0 -86 81 -86z" />
    <glyph glyph-name="Uring" unicode="&#x16e;" horiz-adv-x="769" 
d="M90 772h116v-478q0 -96 50 -145.5t128 -49.5t128.5 49.5t50.5 145.5v478h116v-483q0 -152 -81 -227.5t-214 -75.5q-132 0 -213 74.5t-81 222.5v489zM283 905q0 42 30 72t72 30q41 0 71.5 -30t30.5 -72q0 -41 -30.5 -71.5t-71.5 -30.5q-42 0 -72 30.5t-30 71.5zM327 905
q0 -23 17 -40.5t41 -17.5q23 0 40.5 17.5t17.5 40.5q0 24 -17.5 41t-40.5 17q-24 0 -41 -17t-17 -41z" />
    <glyph glyph-name="uring" unicode="&#x16f;" horiz-adv-x="589" 
d="M73 490h110v-304q0 -96 89 -96q70 0 113 70q13 22 13 52v278h110v-480l-110 -23v90q-68 -89 -168 -89q-77 0 -117 44t-40 127v331zM187 673q0 42 30.5 73t73.5 31q42 0 73 -31t31 -73q0 -43 -31 -73.5t-73 -30.5q-43 0 -73.5 30.5t-30.5 73.5zM235 673q0 -23 16.5 -39.5
t39.5 -16.5t39.5 16.5t16.5 39.5t-16.5 39.5t-39.5 16.5t-39.5 -16.5t-16.5 -39.5z" />
    <glyph glyph-name="Uhungarumlaut" unicode="&#x170;" horiz-adv-x="769" 
d="M90 772h116v-478q0 -96 50 -145.5t128 -49.5t128.5 49.5t50.5 145.5v478h116v-483q0 -152 -81 -227.5t-214 -75.5q-132 0 -213 74.5t-81 222.5v489zM344 960h115l-131 -141h-57zM488 960h114l-130 -141h-58z" />
    <glyph glyph-name="uhungarumlaut" unicode="&#x171;" horiz-adv-x="589" 
d="M73 490h110v-304q0 -96 89 -96q70 0 113 70q13 22 13 52v278h110v-480l-110 -23v90q-68 -89 -168 -89q-77 0 -117 44t-40 127v331zM240 755h112l-119 -171h-50zM382 755h113l-119 -171h-50z" />
    <glyph glyph-name="Uogonek" unicode="&#x172;" horiz-adv-x="769" 
d="M574 -216q-36 -21 -87 -21t-81 24.5t-30 68.5q0 35 19 66.5t68 71.5q-37 -8 -79 -8q-132 0 -213 74.5t-81 222.5v489h116v-478q0 -96 50 -145.5t128 -49.5t128.5 49.5t50.5 145.5v478h116v-483q0 -150 -88 -235q-77 -74 -99 -108t-22 -71q0 -16 10.5 -26.5t29.5 -10.5
q41 0 67 31h3z" />
    <glyph glyph-name="uogonek" unicode="&#x173;" horiz-adv-x="589" 
d="M398 0v77q-68 -89 -168 -89q-77 0 -117 44t-40 127v331h110v-304q0 -96 89 -96q70 0 113 70q13 22 13 52v278h110v-490q-63 -33 -88 -62.5t-25 -62.5q0 -16 10.5 -26.5t30.5 -10.5q40 0 67 31h3l-7 -85q-35 -21 -86 -21t-81 24.5t-30 68.5q0 35 21.5 67t74.5 77z" />
    <glyph glyph-name="Wcircumflex" unicode="&#x174;" horiz-adv-x="1165" 
d="M750 0l-170 422l-174 -422h-89l-313 772h134l229 -612l162 390l-88 222h133l220 -600l243 600h124l-325 -772h-86zM638 819l-89 78l-88 -78h-59l100 141h95l101 -141h-60z" />
    <glyph glyph-name="wcircumflex" unicode="&#x175;" horiz-adv-x="805" 
d="M353 490h101l94 -370l139 370h114l-206 -490h-106l-91 322l-111 -322h-107l-176 490h114l116 -370zM487 584l-84 96l-84 -96h-57l105 171h72l105 -171h-57z" />
    <glyph glyph-name="Ycircumflex" unicode="&#x176;" horiz-adv-x="710" 
d="M401 0h-116v361l-285 411h142l205 -314l221 314h142l-309 -410v-362zM444 819l-89 78l-88 -78h-59l100 141h95l101 -141h-60z" />
    <glyph glyph-name="ycircumflex" unicode="&#x177;" horiz-adv-x="523" 
d="M58 -234q88 96 150 235l-204 489h120l136 -359l145 359h114l-214 -503q-64 -150 -116 -224h-131v3zM349 584l-84 96l-84 -96h-57l105 171h72l105 -171h-57z" />
    <glyph glyph-name="Ydieresis" unicode="&#x178;" horiz-adv-x="710" 
d="M401 0h-116v361l-285 411h142l205 -314l221 314h142l-309 -410v-362zM247 953q27 0 44 -17t17 -44q0 -26 -16.5 -43t-43.5 -17q-28 0 -44.5 16.5t-16.5 43.5t16.5 44t43.5 17zM462 953q27 0 44 -17t17 -44q0 -26 -16.5 -43t-43.5 -17q-28 0 -44.5 16.5t-16.5 43.5
t16.5 44t43.5 17z" />
    <glyph glyph-name="Zacute" unicode="&#x179;" horiz-adv-x="724" 
d="M664 0h-667l493 660h-417l11 112h622l-500 -660h479zM494 960l-137 -141h-61l75 141h123z" />
    <glyph glyph-name="zacute" unicode="&#x17a;" horiz-adv-x="522" 
d="M473 0h-464l309 390h-264l10 100h440l-313 -390h299zM402 755l-144 -171h-51l75 171h120z" />
    <glyph glyph-name="Zdotaccent" unicode="&#x17b;" horiz-adv-x="724" 
d="M664 0h-667l493 660h-417l11 112h622l-500 -660h479zM354 954q28 0 46 -18t18 -46q0 -27 -17.5 -44.5t-45.5 -17.5q-29 0 -46 16.5t-17 45.5t17 46.5t45 17.5z" />
    <glyph glyph-name="zdotaccent" unicode="&#x17c;" horiz-adv-x="522" 
d="M473 0h-464l309 390h-264l10 100h440l-313 -390h299zM262 736q29 0 47.5 -18.5t18.5 -47.5t-18 -47.5t-47 -18.5q-31 0 -49 18t-18 48q0 29 18.5 47.5t47.5 18.5z" />
    <glyph glyph-name="Zcaron" unicode="&#x17d;" horiz-adv-x="724" 
d="M664 0h-667l493 660h-417l11 112h622l-500 -660h479zM207 960h59l89 -79l88 79h60l-101 -141h-95z" />
    <glyph glyph-name="zcaron" unicode="&#x17e;" horiz-adv-x="522" 
d="M473 0h-464l309 390h-264l10 100h440l-313 -390h299zM121 755h57l84 -96l84 96h57l-105 -171h-72z" />
    <glyph glyph-name="florin" unicode="&#x192;" 
d="M41 7q21 -20 64 -20q42 0 65.5 41t38.5 139l35 218h-102v94h116l13 79q18 112 65.5 163t126.5 51q57 0 94 -27l-19 -101q-23 28 -60 28q-43 0 -66 -31t-35 -107l-9 -55h135v-94h-149l-38 -237q-22 -138 -70 -199.5t-125 -61.5q-45 0 -71 16z" />
    <glyph glyph-name="uni0218" unicode="&#x218;" horiz-adv-x="561" 
d="M65 171q94 -82 197 -82q62 0 98 29.5t36 80.5q0 46 -33.5 82t-122.5 83q-100 53 -138.5 103.5t-38.5 129.5q0 82 61.5 136t158.5 54q94 0 176 -37v-130q-92 64 -168 64q-53 0 -81.5 -26t-28.5 -65q0 -45 29 -74.5t123 -77.5q100 -51 141 -106.5t41 -135.5
q0 -98 -72.5 -156.5t-189.5 -58.5q-109 0 -179 44l-12 143h3zM315 -58q14 -26 14 -57q0 -29 -19 -56.5t-69 -65.5h-58q58 69 58 117q0 21 -14 42z" />
    <glyph glyph-name="uni0219" unicode="&#x219;" horiz-adv-x="447" 
d="M49 31l7 110q67 -69 164 -69q82 0 82 51q0 34 -39 54q-20 10 -62.5 26.5t-60.5 25.5q-50 25 -70.5 57.5t-20.5 81.5q0 60 45.5 99.5t120.5 39.5q92 0 165 -41l-26 -105q-26 26 -64.5 41.5t-71.5 15.5q-67 0 -67 -46q0 -35 40 -54q14 -7 56 -23.5t60 -24.5
q53 -25 74.5 -59t21.5 -83q0 -66 -48.5 -105.5t-134.5 -39.5q-102 0 -171 48zM273 -58q14 -26 14 -57q0 -29 -19 -56.5t-69 -65.5h-58q58 69 58 117q0 21 -14 42z" />
    <glyph glyph-name="uni021A" unicode="&#x21a;" horiz-adv-x="671" 
d="M393 0h-115v665h-263v107h640v-107h-262v-665zM379 -58q14 -26 14 -57q0 -29 -19 -56.5t-69 -65.5h-58q58 69 58 117q0 21 -14 42z" />
    <glyph glyph-name="uni021B" unicode="&#x21b;" horiz-adv-x="374" 
d="M15 490h92v144l110 21v-165h140v-92h-140v-233q0 -68 16 -98t64 -57v-8l-121 -14q-36 17 -52.5 53t-16.5 110v247h-92v92zM238 -58q14 -26 14 -57q0 -29 -19 -56.5t-69 -65.5h-58q58 69 58 117q0 21 -14 42z" />
    <glyph glyph-name="dotlessj" unicode="&#x237;" horiz-adv-x="273" 
d="M81 479l110 23v-514q0 -135 -49 -189l-150 -36l-6 15q50 31 72.5 80t22.5 128v493z" />
    <glyph glyph-name="circumflex" unicode="&#x2c6;" horiz-adv-x="296" 
d="M232 573l-84 96l-84 -96h-57l105 171h72l105 -171h-57z" />
    <glyph glyph-name="caron" unicode="&#x2c7;" horiz-adv-x="296" 
d="M7 744h57l84 -96l84 96h57l-105 -171h-72z" />
    <glyph glyph-name="uni02C9" unicode="&#x2c9;" horiz-adv-x="334" 
d="M286 695v-81h-276v81h276z" />
    <glyph glyph-name="breve" unicode="&#x2d8;" horiz-adv-x="281" 
d="M140 654q82 0 82 86h49q0 -162 -131 -162q-130 0 -130 162h49q0 -86 81 -86z" />
    <glyph glyph-name="dotaccent" unicode="&#x2d9;" horiz-adv-x="152" 
d="M76 725q29 0 47.5 -18.5t18.5 -47.5t-18 -47.5t-47 -18.5q-31 0 -49 18t-18 48q0 29 18.5 47.5t47.5 18.5z" />
    <glyph glyph-name="ring" unicode="&#x2da;" horiz-adv-x="228" 
d="M10 662q0 42 30.5 73t73.5 31q42 0 73 -31t31 -73q0 -43 -31 -73.5t-73 -30.5q-43 0 -73.5 30.5t-30.5 73.5zM58 662q0 -23 16.5 -39.5t39.5 -16.5t39.5 16.5t16.5 39.5t-16.5 39.5t-39.5 16.5t-39.5 -16.5t-16.5 -39.5z" />
    <glyph glyph-name="ogonek" unicode="&#x2db;" horiz-adv-x="226" 
d="M106 0v18h110v-18q-63 -33 -88 -62.5t-25 -62.5q0 -16 10.5 -26.5t30.5 -10.5q40 0 67 31h3l-7 -85q-35 -21 -86 -21t-81 24.5t-30 68.5q0 35 21.5 67t74.5 77z" />
    <glyph glyph-name="tilde" unicode="&#x2dc;" horiz-adv-x="336" 
d="M104 633q-21 0 -35 -14.5t-18 -37.5l-41 10q6 60 33.5 94.5t66.5 34.5q23 0 65 -17t57 -17q21 0 35 14.5t17 37.5l42 -9q-6 -60 -33.5 -95t-66.5 -35q-23 0 -65 17t-57 17z" />
    <glyph glyph-name="hungarumlaut" unicode="&#x2dd;" horiz-adv-x="325" 
d="M65 744h112l-119 -171h-50zM207 744h113l-119 -171h-50z" />
    <glyph glyph-name="uni0394" unicode="&#x394;" horiz-adv-x="758" 
d="M748 0h-739l337 751l72 8zM383 615l-232 -524h457z" />
    <glyph glyph-name="uni03A9" unicode="&#x3a9;" horiz-adv-x="794" 
d="M33 0l-14 98h213q-59 60 -102 138q-67 117 -67 230q0 142 88.5 231.5t245.5 89.5t245.5 -89.5t88.5 -231.5q0 -116 -67 -230q-43 -78 -102 -138h213l-14 -98h-311v95q73 71 126 172q46 89 46 190q0 100 -58 162.5t-167 62.5q-111 0 -170.5 -62.5t-59.5 -162.5
q0 -99 46 -190q54 -101 132 -172v-95h-312z" />
    <glyph glyph-name="uni03BC" unicode="&#x3bc;" horiz-adv-x="571" 
d="M259 -12q-61 0 -80 51v-253l-108 -23v727h108v-294q0 -101 85 -101q63 0 105 57q23 30 23 70v268h107v-480l-107 -23v84q-22 -39 -57 -61t-76 -22z" />
    <glyph glyph-name="pi" unicode="&#x3c0;" horiz-adv-x="617" 
d="M29 490h555v-89h-115v-232q0 -49 13.5 -68t45.5 -19q31 0 58 20l-7 -91q-39 -18 -84 -18q-65 0 -94.5 32.5t-29.5 110.5v265h-149v-223q0 -113 -50 -178h-108q32 39 46 80t14 98v223h-95v89z" />
    <glyph glyph-name="Wgrave" unicode="&#x1e80;" horiz-adv-x="1165" 
d="M750 0l-170 422l-174 -422h-89l-313 772h134l229 -612l162 390l-88 222h133l220 -600l243 600h124l-325 -772h-86zM548 819l-136 141h122l76 -141h-62z" />
    <glyph glyph-name="wgrave" unicode="&#x1e81;" horiz-adv-x="805" 
d="M353 490h101l94 -370l139 370h114l-206 -490h-106l-91 322l-111 -322h-107l-176 490h114l116 -370zM407 584l-144 171h120l76 -171h-52z" />
    <glyph glyph-name="Wacute" unicode="&#x1e82;" horiz-adv-x="1165" 
d="M750 0l-170 422l-174 -422h-89l-313 772h134l229 -612l162 390l-88 222h133l220 -600l243 600h124l-325 -772h-86zM688 960l-137 -141h-61l75 141h123z" />
    <glyph glyph-name="wacute" unicode="&#x1e83;" horiz-adv-x="805" 
d="M353 490h101l94 -370l139 370h114l-206 -490h-106l-91 322l-111 -322h-107l-176 490h114l116 -370zM543 755l-144 -171h-51l75 171h120z" />
    <glyph glyph-name="Wdieresis" unicode="&#x1e84;" horiz-adv-x="1165" 
d="M750 0l-170 422l-174 -422h-89l-313 772h134l229 -612l162 390l-88 222h133l220 -600l243 600h124l-325 -772h-86zM442 953q27 0 44 -17t17 -44q0 -26 -16.5 -43t-43.5 -17q-28 0 -44.5 16.5t-16.5 43.5t16.5 44t43.5 17zM657 953q27 0 44 -17t17 -44q0 -26 -16.5 -43
t-43.5 -17q-28 0 -44.5 16.5t-16.5 43.5t16.5 44t43.5 17z" />
    <glyph glyph-name="wdieresis" unicode="&#x1e85;" horiz-adv-x="805" 
d="M353 490h101l94 -370l139 370h114l-206 -490h-106l-91 322l-111 -322h-107l-176 490h114l116 -370zM304 724q26 0 42.5 -16t16.5 -43q0 -26 -16 -42t-42 -16q-27 0 -43 16t-16 42q0 27 16 43t42 16zM500 724q26 0 42.5 -16t16.5 -43q0 -26 -16 -42t-42 -16q-27 0 -43 16
t-16 42q0 27 16 43t42 16z" />
    <glyph glyph-name="germandblS" unicode="&#x1e9e;" horiz-adv-x="753" 
d="M671 709l-175 -268q103 -14 157 -74.5t54 -146.5q0 -109 -70 -173t-184 -64q-90 0 -143 28l-12 127h3q50 -52 144 -52q72 0 111 36.5t39 97.5q0 59 -48 99t-141 40q-45 0 -78 -9l-2 2l198 303q-50 24 -115 24q-95 0 -152.5 -55.5t-57.5 -156.5v-467h-116v472
q0 141 91.5 226.5t239.5 85.5t257 -75z" />
    <glyph glyph-name="Ygrave" unicode="&#x1ef2;" horiz-adv-x="710" 
d="M401 0h-116v361l-285 411h142l205 -314l221 314h142l-309 -410v-362zM353 819l-136 141h122l76 -141h-62z" />
    <glyph glyph-name="ygrave" unicode="&#x1ef3;" horiz-adv-x="523" 
d="M58 -234q88 96 150 235l-204 489h120l136 -359l145 359h114l-214 -503q-64 -150 -116 -224h-131v3zM269 584l-144 171h120l76 -171h-52z" />
    <glyph glyph-name="endash" unicode="&#x2013;" horiz-adv-x="600" 
d="M575 305v-74h-550v74h550z" />
    <glyph glyph-name="emdash" unicode="&#x2014;" horiz-adv-x="1000" 
d="M975 305v-74h-950v74h950z" />
    <glyph glyph-name="quoteleft" unicode="&#x2018;" horiz-adv-x="206" 
d="M82 508q-48 41 -48 115q0 56 35 95.5t93 60.5l13 -23q-57 -32 -57 -92q0 -57 55 -95z" />
    <glyph glyph-name="quoteright" unicode="&#x2019;" horiz-adv-x="206" 
d="M124 779q48 -41 48 -115q0 -56 -35 -95.5t-93 -60.5l-13 23q57 32 57 92q0 57 -55 95z" />
    <glyph glyph-name="quotesinglbase" unicode="&#x201a;" horiz-adv-x="257" 
d="M147 127q48 -41 48 -115q0 -56 -35 -95.5t-93 -60.5l-13 23q57 32 57 92q0 57 -55 95z" />
    <glyph glyph-name="quotedblleft" unicode="&#x201c;" horiz-adv-x="378" 
d="M260 508q-48 41 -48 115q0 56 35 95.5t93 60.5l13 -23q-57 -32 -57 -92q0 -57 55 -95zM82 508q-48 41 -48 115q0 56 35 95.5t93 60.5l13 -23q-57 -32 -57 -92q0 -57 55 -95z" />
    <glyph glyph-name="quotedblright" unicode="&#x201d;" horiz-adv-x="378" 
d="M296 779q48 -41 48 -115q0 -56 -35 -95.5t-93 -60.5l-13 23q57 32 57 92q0 57 -55 95zM118 779q48 -41 48 -115q0 -56 -35 -95.5t-93 -60.5l-13 23q57 32 57 92q0 57 -55 95z" />
    <glyph glyph-name="quotedblbase" unicode="&#x201e;" horiz-adv-x="435" 
d="M325 127q48 -41 48 -115q0 -56 -35 -95.5t-93 -60.5l-13 23q57 32 57 92q0 57 -55 95zM147 127q48 -41 48 -115q0 -56 -35 -95.5t-93 -60.5l-13 23q57 32 57 92q0 57 -55 95z" />
    <glyph glyph-name="dagger" unicode="&#x2020;" horiz-adv-x="469" 
d="M177 735h115l-22 -211l175 17v-102l-175 16l20 -152q-22 -201 -22 -415h-67q0 214 -22 415l19 152l-174 -16v102l174 -17z" />
    <glyph glyph-name="daggerdbl" unicode="&#x2021;" horiz-adv-x="493" 
d="M304 -112h-115l22 205l-175 -17v102l175 -16l-20 150l20 149l-175 -17v102l175 -16l-22 205h115l-21 -205l174 16v-102l-174 17l19 -149l-19 -150l174 16v-102l-174 17z" />
    <glyph glyph-name="bullet" unicode="&#x2022;" horiz-adv-x="316" 
d="M42 400q0 48 34 82t82 34q47 0 82 -34.5t35 -81.5q0 -48 -34.5 -82.5t-82.5 -34.5q-49 0 -82.5 34t-33.5 83z" />
    <glyph glyph-name="ellipsis" unicode="&#x2026;" horiz-adv-x="800" 
d="M399 118q30 0 48.5 -18.5t18.5 -47.5t-18 -47.5t-48 -18.5t-48 18t-18 48q0 29 18 47.5t47 18.5zM672 118q30 0 48.5 -18.5t18.5 -47.5t-18 -47.5t-48 -18.5t-48 18t-18 48q0 29 18 47.5t47 18.5zM126 118q30 0 48.5 -18.5t18.5 -47.5t-18 -47.5t-48 -18.5t-48 18t-18 48
q0 29 18 47.5t47 18.5z" />
    <glyph glyph-name="perthousand" unicode="&#x2030;" horiz-adv-x="1158" 
d="M668 752l-459 -752h-78l458 752h79zM191 379q-62 0 -99.5 40t-37.5 112q0 77 53 139.5t126 62.5q63 0 100 -40t37 -112q0 -78 -52.5 -140t-126.5 -62zM230 663q-44 0 -73 -41t-29 -98q0 -37 17 -56.5t49 -19.5q44 0 73.5 41.5t29.5 98.5q0 75 -67 75zM559 19
q-62 0 -99.5 40t-37.5 112q0 77 53 139.5t126 62.5q63 0 100 -40t37 -112q0 -78 -52.5 -140t-126.5 -62zM598 303q-44 0 -73 -41t-29 -98q0 -37 17 -56.5t49 -19.5q44 0 73.5 41.5t29.5 98.5q0 75 -67 75zM925 19q-63 0 -100 40t-37 112q0 77 52.5 139.5t126.5 62.5
q63 0 100 -40t37 -112q0 -78 -52.5 -140t-126.5 -62zM964 303q-44 0 -73.5 -41t-29.5 -98q0 -76 67 -76q44 0 73 41.5t29 98.5q0 75 -66 75z" />
    <glyph glyph-name="guilsinglleft" unicode="&#x2039;" horiz-adv-x="308" 
d="M169 82l-130 165l130 165h90l-99 -165l99 -165h-90z" />
    <glyph glyph-name="guilsinglright" unicode="&#x203a;" horiz-adv-x="308" 
d="M139 412l130 -165l-130 -165h-90l99 165l-99 165h90z" />
    <glyph glyph-name="fraction" unicode="&#x2044;" horiz-adv-x="154" 
d="M376 780l-519 -810h-79l518 810h80z" />
    <glyph glyph-name="zero.superior" unicode="&#x2070;" horiz-adv-x="387" 
d="M193 448q-72 0 -115.5 54t-43.5 152t43.5 152t115.5 54t115.5 -54t43.5 -152t-43.5 -152t-115.5 -54zM193 514q37 0 58.5 36.5t21.5 103.5t-21.5 103t-58.5 36t-58 -36t-21 -103t21 -103.5t58 -36.5z" />
    <glyph glyph-name="four.superior" unicode="&#x2074;" horiz-adv-x="373" 
d="M215 458v99h-203v42l192 251h83v-232h68v-61h-68v-99h-72zM85 618h130v170z" />
    <glyph glyph-name="five.superior" unicode="&#x2075;" horiz-adv-x="355" 
d="M309 850l-10 -63h-168l-9 -70q7 2 29 2q72 0 113.5 -35t41.5 -87q0 -72 -58 -112.5t-167 -40.5q-13 0 -41 2l10 72q20 -5 54 -5q60 0 92.5 21.5t32.5 58.5q0 30 -26.5 49t-75.5 19q-41 0 -76 -9l25 198h233z" />
    <glyph glyph-name="six.superior" unicode="&#x2076;" horiz-adv-x="357" 
d="M286 790q-139 -10 -177 -111q31 24 78 24q62 0 100 -33t38 -91q0 -55 -39.5 -93t-103.5 -38q-72 0 -111 43t-39 121q0 100 65.5 169.5t201.5 80.5zM178 653q-50 0 -81 -31v-13q0 -96 88 -96q30 0 50 20t20 49q0 31 -21.5 51t-55.5 20z" />
    <glyph glyph-name="seven.superior" unicode="&#x2077;" horiz-adv-x="331" 
d="M79 458q55 164 132 324l-197 -4l28 72h270q-108 -240 -144 -392h-89z" />
    <glyph glyph-name="eight.superior" unicode="&#x2078;" horiz-adv-x="378" 
d="M338 564q0 -49 -40 -82.5t-112 -33.5q-69 0 -108 31t-39 82q0 67 74 98q-62 29 -62 92q0 45 39 77t96 32q61 0 96 -30t35 -75q0 -54 -59 -87q80 -28 80 -104zM262 568q0 53 -84 70q-31 -9 -48 -28.5t-17 -43.5t20 -40.5t53 -16.5q37 0 56.5 16.5t19.5 42.5zM124 752
q0 -25 16 -40t55 -27q52 19 52 63q0 22 -17 37t-44 15q-26 0 -44 -14t-18 -34z" />
    <glyph glyph-name="nine.superior" unicode="&#x2079;" horiz-adv-x="363" 
d="M118 441l-47 59q117 42 157 105q-18 -6 -39 -6q-70 0 -113 35t-43 95q0 56 37 93.5t100 37.5q72 0 113 -43.5t41 -118.5q0 -178 -206 -257zM203 651q27 0 47 9q4 16 4 38q0 46 -22 72.5t-62 26.5q-31 0 -50.5 -20t-19.5 -50q0 -34 28.5 -55t74.5 -21z" />
    <glyph glyph-name="n.superior" unicode="&#x207f;" horiz-adv-x="415" 
d="M56 350v342h80v-53q54 62 119 62q52 0 81 -30t29 -87v-234h-79v208q0 70 -61 70q-43 0 -70 -34q-19 -23 -19 -60v-184h-80z" />
    <glyph glyph-name="zero.inferior" unicode="&#x2080;" horiz-adv-x="387" 
d="M193 -152q-72 0 -115.5 54t-43.5 152t43.5 152t115.5 54t115.5 -54t43.5 -152t-43.5 -152t-115.5 -54zM193 -86q37 0 58.5 36.5t21.5 103.5t-21.5 103t-58.5 36t-58 -36t-21 -103t21 -103.5t58 -36.5z" />
    <glyph glyph-name="one.inferior" unicode="&#x2081;" horiz-adv-x="272" 
d="M183 -142h-79v326l-90 -3l10 69h159v-392z" />
    <glyph glyph-name="two.inferior" unicode="&#x2082;" horiz-adv-x="355" 
d="M230 0q-44 -42 -93 -75h184l-9 -67h-275v60q66 45 123 102q61 62 61 113q0 24 -17 39.5t-48 15.5q-56 0 -109 -42l10 85q44 29 113 29q64 0 98 -31.5t34 -81.5q0 -76 -72 -147z" />
    <glyph glyph-name="three.inferior" unicode="&#x2083;" horiz-adv-x="351" 
d="M290 163q0 -30 -18 -55t-50 -37q86 -25 86 -100q0 -57 -43 -90t-114 -33q-69 0 -109 18l-4 78q45 -27 111 -27q37 0 58.5 16t21.5 41t-21 40.5t-59 15.5q-49 0 -84 -10l14 73q26 -2 49 -2q83 0 83 55q0 20 -17.5 33t-49.5 13q-53 0 -88 -23l17 77q36 14 91 14
q59 0 92.5 -27t33.5 -70z" />
    <glyph glyph-name="four.inferior" unicode="&#x2084;" horiz-adv-x="368" 
d="M210 -142v99h-203v42l192 251h83v-232h68v-61h-68v-99h-72zM80 18h130v170z" />
    <glyph glyph-name="five.inferior" unicode="&#x2085;" horiz-adv-x="355" 
d="M309 250l-10 -63h-168l-9 -70q7 2 29 2q72 0 113.5 -35t41.5 -87q0 -72 -58 -112.5t-167 -40.5q-13 0 -41 2l10 72q20 -5 54 -5q60 0 92.5 21.5t32.5 58.5q0 30 -26.5 49t-75.5 19q-41 0 -76 -9l25 198h233z" />
    <glyph glyph-name="six.inferior" unicode="&#x2086;" horiz-adv-x="357" 
d="M286 190q-139 -10 -177 -111q31 24 78 24q62 0 100 -33t38 -91q0 -55 -39.5 -93t-103.5 -38q-72 0 -111 43t-39 121q0 100 65.5 169.5t201.5 80.5zM178 53q-50 0 -81 -31v-13q0 -96 88 -96q30 0 50 20t20 49q0 31 -21.5 51t-55.5 20z" />
    <glyph glyph-name="seven.inferior" unicode="&#x2087;" horiz-adv-x="331" 
d="M79 -142q55 164 132 324l-197 -4l28 72h270q-108 -240 -144 -392h-89z" />
    <glyph glyph-name="eight.inferior" unicode="&#x2088;" horiz-adv-x="378" 
d="M338 -36q0 -49 -40 -82.5t-112 -33.5q-69 0 -108 31t-39 82q0 67 74 98q-62 29 -62 92q0 45 39 77t96 32q61 0 96 -30t35 -75q0 -54 -59 -87q80 -28 80 -104zM262 -32q0 53 -84 70q-31 -9 -48 -28.5t-17 -43.5t20 -40.5t53 -16.5q37 0 56.5 16.5t19.5 42.5zM124 152
q0 -25 16 -40t55 -27q52 19 52 63q0 22 -17 37t-44 15q-26 0 -44 -14t-18 -34z" />
    <glyph glyph-name="nine.inferior" unicode="&#x2089;" horiz-adv-x="363" 
d="M118 -159l-47 59q117 42 157 105q-18 -6 -39 -6q-70 0 -113 35t-43 95q0 56 37 93.5t100 37.5q72 0 113 -43.5t41 -118.5q0 -178 -206 -257zM203 51q27 0 47 9q4 16 4 38q0 46 -22 72.5t-62 26.5q-31 0 -50.5 -20t-19.5 -50q0 -34 28.5 -55t74.5 -21z" />
    <glyph glyph-name="Euro" unicode="&#x20ac;" 
d="M26 426l17 71h40q29 129 117.5 198.5t225.5 69.5q86 0 143 -27l-23 -95q-44 28 -123 28q-90 0 -148.5 -45t-82.5 -129h319l-17 -71h-316q-2 -34 -2 -53q0 -22 1 -32h297l-16 -70h-272q43 -183 241 -183q88 0 148 44l-13 -115q-56 -28 -139 -28q-146 0 -234.5 70.5
t-111.5 211.5h-57l16 70h34v30q0 37 2 55h-46z" />
    <glyph glyph-name="uni20B9" unicode="&#x20b9;" 
d="M40 487l31 76h283q-20 113 -172 113h-142l31 76h479l-31 -76h-119q50 -41 61 -113h89l-31 -76h-60q-25 -142 -207 -188l240 -299h-147l-265 346v3q131 14 194 47t78 91h-312z" />
    <glyph glyph-name="uni20BA" unicode="&#x20ba;" 
d="M49 413v87l68 36v216h111v-165l155 82v-87l-155 -82v-96l155 82v-86l-155 -83v-214q13 -4 32 -4q77 0 134 54.5t78 153.5l100 -59q-32 -121 -117.5 -190t-205.5 -69q-78 0 -132 20v257l-68 -36v87l68 36v96z" />
    <glyph glyph-name="afii61289" unicode="&#x2113;" horiz-adv-x="402" 
d="M353 31q-19 -21 -54 -33.5t-67 -12.5q-77 0 -111.5 36t-34.5 124v56l-44 -41l-18 70l62 62v297q0 95 41 143t110 48q62 0 96.5 -42t34.5 -117q0 -76 -47 -156t-159 -191v-107q0 -58 18.5 -80t62.5 -22q63 0 114 57h3zM162 589v-220q72 79 101 135.5t29 110.5
q0 43 -16 66.5t-44 23.5q-70 0 -70 -116z" />
    <glyph glyph-name="trademark" unicode="&#x2122;" horiz-adv-x="928" 
d="M227 350h-82v327h-130v75h342v-75h-130v-327zM408 350v402h91l143 -289l144 289h91v-402h-78v271l-135 -271h-44l-133 271v-271h-79z" />
    <glyph glyph-name="Omega" unicode="&#x2126;" horiz-adv-x="794" 
d="M33 0l-14 98h213q-59 60 -102 138q-67 117 -67 230q0 142 88.5 231.5t245.5 89.5t245.5 -89.5t88.5 -231.5q0 -116 -67 -230q-43 -78 -102 -138h213l-14 -98h-311v95q73 71 126 172q46 89 46 190q0 100 -58 162.5t-167 62.5q-111 0 -170.5 -62.5t-59.5 -162.5
q0 -99 46 -190q54 -101 132 -172v-95h-312z" />
    <glyph glyph-name="estimated" unicode="&#x212e;" horiz-adv-x="830" 
d="M415 671q156 0 267 -99.5t111 -247.5h-608q-10 0 -10 -11v-197q47 -51 110 -78.5t130 -27.5q73 0 139 32.5t113 88.5h57q-56 -68 -138 -105t-171 -37q-100 0 -186 42.5t-139.5 121.5t-53.5 177q0 145 110.5 243t268.5 98zM415 650q-70 0 -133 -28.5t-107 -78.5v-185
q0 -11 10 -11h461q9 0 9 11v184q-44 51 -108 79.5t-132 28.5z" />
    <glyph glyph-name="partialdiff" unicode="&#x2202;" horiz-adv-x="567" 
d="M286 468q89 0 147 -66q-1 132 -49.5 205.5t-134.5 73.5q-81 0 -133 -60h-3l-8 96q56 55 156 55q120 0 191 -98t71 -272q0 -194 -79 -306.5t-207 -112.5q-92 0 -147 58.5t-55 152.5q0 126 69 200t182 74zM248 79q69 0 117.5 61.5t62.5 171.5q-55 73 -137 73
q-71 0 -113.5 -48t-42.5 -126q0 -61 29.5 -96.5t83.5 -35.5z" />
    <glyph glyph-name="Delta" unicode="&#x2206;" horiz-adv-x="758" 
d="M748 0h-739l337 751l72 8zM383 615l-232 -524h457z" />
    <glyph glyph-name="product" unicode="&#x220f;" horiz-adv-x="703" 
d="M180 -220h-98v952h540v-952h-97v860h-345v-860z" />
    <glyph glyph-name="summation" unicode="&#x2211;" horiz-adv-x="538" 
d="M513 -220h-494l298 476l-298 476h494v-86h-335l245 -390l-245 -390h335v-86z" />
    <glyph glyph-name="minus" unicode="&#x2212;" horiz-adv-x="587" 
d="M542 306v-96h-497v96h497z" />
    <glyph glyph-name="uni2215" unicode="&#x2215;" horiz-adv-x="154" 
d="M376 780l-519 -810h-79l518 810h80z" />
    <glyph glyph-name="uni2219" unicode="&#x2219;" horiz-adv-x="254" 
d="M126 328q30 0 48.5 -18.5t18.5 -47.5t-18 -47.5t-48 -18.5t-48 18t-18 48q0 29 18 47.5t47 18.5z" />
    <glyph glyph-name="radical" unicode="&#x221a;" horiz-adv-x="587" 
d="M262 -99l-134 402l-97 -35l-30 83l172 63l125 -378l208 854h74l-240 -989h-78z" />
    <glyph glyph-name="infinity" unicode="&#x221e;" horiz-adv-x="587" 
d="M170 393q78 0 132 -82q51 82 124 82q60 0 96.5 -38t36.5 -98q0 -62 -36.5 -97.5t-92.5 -35.5q-79 0 -133 83q-22 -35 -54 -59t-69 -24q-61 0 -97.5 38.5t-36.5 98.5q0 62 36.5 97t93.5 35zM170 191q61 0 99 65q-41 73 -95 73q-30 0 -50 -19t-20 -49q0 -33 17.5 -51.5
t48.5 -18.5zM430 327q-63 0 -99 -65q37 -73 95 -73q30 0 49.5 19t19.5 49q0 32 -17 51t-48 19z" />
    <glyph glyph-name="integral" unicode="&#x222b;" horiz-adv-x="459" 
d="M185 21v495q0 122 41 179t129 57q52 0 85 -21l-15 -98q-28 30 -67 30q-46 0 -65.5 -34.5t-19.5 -114.5v-482q0 -132 -42 -192t-133 -60q-48 0 -79 24l18 93q29 -30 65 -30q46 0 64.5 35t18.5 119z" />
    <glyph glyph-name="approxequal" unicode="&#x2248;" horiz-adv-x="587" 
d="M549 368q-49 -88 -136 -88q-46 0 -120.5 43.5t-116.5 43.5q-63 0 -98 -55l-40 74q44 72 136 72q46 0 121.5 -43.5t116.5 -43.5q56 0 96 66zM549 151q-45 -73 -136 -73q-46 0 -120.5 43.5t-116.5 43.5q-58 0 -96 -66l-42 70q49 88 136 88q46 0 121.5 -43.5t116.5 -43.5
q60 0 98 55z" />
    <glyph glyph-name="notequal" unicode="&#x2260;" horiz-adv-x="587" 
d="M542 204v-85h-293l-49 -80h-88l49 80h-116v85h168l66 108h-234v85h286l50 81h88l-50 -81h123v-85h-175l-66 -108h241z" />
    <glyph glyph-name="lessequal" unicode="&#x2264;" horiz-adv-x="587" 
d="M542 428l-414 -106l414 -104v-82l-497 138v97l497 138v-81zM542 102v-80h-497v80h497z" />
    <glyph glyph-name="greaterequal" unicode="&#x2265;" horiz-adv-x="587" 
d="M45 136v82l415 105l-415 105v81l497 -138v-97zM542 102v-80h-497v80h497z" />
    <glyph glyph-name="lozenge" unicode="&#x25ca;" horiz-adv-x="521" 
d="M39 390l187 390h68l187 -390l-187 -390h-68zM122 391l138 -288l138 288l-138 286z" />
    <glyph glyph-name="commaaccent" unicode="&#xf6c3;" horiz-adv-x="161" 
d="M137 -58q14 -26 14 -57q0 -29 -19 -56.5t-69 -65.5h-58q58 69 58 117q0 21 -14 42z" />
    <glyph glyph-name="uniF8FF" unicode="&#xf8ff;" horiz-adv-x="561" 
d="M199 97q24 0 39.5 -14.5t15.5 -38.5q0 -25 -15 -40t-39 -15q-25 0 -40.5 15t-15.5 40q0 24 15.5 38.5t39.5 14.5zM238 181l-83 -17v161q88 4 138 37.5t50 87.5q0 45 -33 72t-89 27q-44 0 -83 -15l14 87q36 10 83 10q90 0 146 -46t56 -128q0 -75 -54 -126t-145 -66v-84z
M0 -128v870h561v-870h-561zM71 672v-730h419v730h-419z" />
    <glyph glyph-name="fi" unicode="&#xfb01;" horiz-adv-x="638" 
d="M219 538v-48h134v-92h-134v-398h-110v398h-92v92h92v70q0 153 102 195l149 25v-53q-81 -17 -111 -60.5t-30 -128.5zM446 479l110 23v-502h-110v479zM501 737q30 0 48.5 -18.5t18.5 -48.5q0 -29 -18.5 -47.5t-47.5 -18.5q-30 0 -48 18t-18 48t18 48.5t47 18.5z" />
    <glyph glyph-name="fl" unicode="&#xfb02;" horiz-adv-x="638" 
d="M219 538v-48h134v-92h-134v-398h-110v398h-92v92h92v70q0 153 102 195l149 25v-53q-81 -17 -111 -60.5t-30 -128.5zM556 780v-780h-110v757z" />
    <glyph glyph-name="NULL" horiz-adv-x="0" 
 />
    <glyph glyph-name="caron.alt" horiz-adv-x="139" 
d="M116 781q13 -27 13 -61q0 -59 -74 -138h-45q35 78 35 127q0 26 -12 52z" />
    <glyph glyph-name="commaaccent.alt" horiz-adv-x="161" 
d="M24 568q-14 28 -14 57q0 53 88 122h58q-58 -67 -58 -117q0 -22 14 -42z" />
    <glyph glyph-name="grave.cap" horiz-adv-x="209" 
d="M141 819l-136 141h122l76 -141h-62z" />
    <glyph glyph-name="acute.cap" horiz-adv-x="209" 
d="M205 960l-137 -141h-61l75 141h123z" />
    <glyph glyph-name="circumflex.cap" horiz-adv-x="312" 
d="M244 819l-89 78l-88 -78h-59l100 141h95l101 -141h-60z" />
    <glyph glyph-name="tilde.cap" horiz-adv-x="341" 
d="M104 860q-21 0 -36 -15t-17 -37l-41 9q6 60 32 95t63 35q25 0 70.5 -17t62.5 -17q22 0 35.5 14.5t16.5 37.5l41 -10q-5 -60 -31 -94.5t-63 -34.5q-25 0 -70.5 17t-62.5 17z" />
    <glyph glyph-name="dieresis.cap" horiz-adv-x="356" 
d="M70 953q27 0 44 -17t17 -44q0 -26 -16.5 -43t-43.5 -17q-28 0 -44.5 16.5t-16.5 43.5t16.5 44t43.5 17zM285 953q27 0 44 -17t17 -44q0 -26 -16.5 -43t-43.5 -17q-28 0 -44.5 16.5t-16.5 43.5t16.5 44t43.5 17z" />
    <glyph glyph-name="macron.cap" horiz-adv-x="318" 
d="M308 921v-75h-298v75h298z" />
    <glyph glyph-name="breve.cap" horiz-adv-x="281" 
d="M140 889q77 0 82 74h49q0 -61 -31.5 -102.5t-99.5 -41.5q-69 0 -99.5 41t-30.5 103h49q5 -74 81 -74z" />
    <glyph glyph-name="ring.cap" horiz-adv-x="224" 
d="M10 905q0 42 30 72t72 30q41 0 71.5 -30t30.5 -72q0 -41 -30.5 -71.5t-71.5 -30.5q-42 0 -72 30.5t-30 71.5zM54 905q0 -23 17 -40.5t41 -17.5q23 0 40.5 17.5t17.5 40.5q0 24 -17.5 41t-40.5 17q-24 0 -41 -17t-17 -41z" />
    <glyph glyph-name="hungarumlaut.cap" horiz-adv-x="343" 
d="M80 960h115l-131 -141h-57zM224 960h114l-130 -141h-58z" />
    <glyph glyph-name="dotaccent.cap" horiz-adv-x="146" 
d="M72 954q28 0 46 -18t18 -46q0 -27 -17.5 -44.5t-45.5 -17.5q-29 0 -46 16.5t-17 45.5t17 46.5t45 17.5z" />
    <glyph glyph-name="caron.cap" horiz-adv-x="312" 
d="M8 960h59l89 -79l88 79h60l-101 -141h-95z" />
    <glyph glyph-name="questiondown.cap" horiz-adv-x="471" 
d="M359 651q-30 0 -48.5 18.5t-18.5 47.5t18.5 47.5t47.5 18.5q30 0 48 -18t18 -48q0 -29 -18 -47.5t-47 -18.5zM312 542l98 21v-193q-110 -5 -172.5 -47.5t-62.5 -111.5q0 -58 42 -92.5t114 -34.5q55 0 101 17l-18 -102q-43 -13 -101 -13q-111 0 -180.5 57t-69.5 160
q0 93 68 156.5t181 82.5v100z" />
    <glyph glyph-name="exclamdown.cap" horiz-adv-x="298" 
d="M152 649q-29 0 -47.5 18.5t-18.5 47.5t18 47.5t47 18.5q31 0 49 -18t18 -48q0 -29 -18.5 -47.5t-47.5 -18.5zM215 7l-137 -21q11 306 62 566l27 -5q43 -244 48 -540z" />
    <glyph glyph-name="periodcenterd.cap" horiz-adv-x="254" 
d="M126 452q30 0 48.5 -18.5t18.5 -47.5t-18 -47.5t-48 -18.5t-48 18t-18 48q0 29 18 47.5t47 18.5z" />
    <glyph glyph-name="hyphen.cap" horiz-adv-x="324" 
d="M289 434v-96h-254v96h254z" />
    <glyph glyph-name="endash.cap" horiz-adv-x="600" 
d="M575 423v-74h-550v74h550z" />
    <glyph glyph-name="emdash.cap" horiz-adv-x="1000" 
d="M975 423v-74h-950v74h950z" />
    <glyph glyph-name="uni00AD.cap" horiz-adv-x="324" 
d="M289 434v-96h-254v96h254z" />
    <glyph glyph-name="parenleft.cap" horiz-adv-x="356" 
d="M69 386q0 137 38.5 237t119.5 186h77q-76 -100 -109.5 -197.5t-33.5 -225.5t33.5 -225.5t109.5 -197.5h-77q-81 86 -119.5 186t-38.5 237z" />
    <glyph glyph-name="parenright.cap" horiz-adv-x="356" 
d="M287 386q0 -137 -38.5 -237t-119.5 -186h-77q76 100 109.5 197.5t33.5 225.5t-33.5 225.5t-109.5 197.5h77q81 -86 119.5 -186t38.5 -237z" />
    <glyph glyph-name="bracketleft.cap" horiz-adv-x="356" 
d="M79 -37v846h231v-59h-142v-728h142v-59h-231z" />
    <glyph glyph-name="bracketright.cap" horiz-adv-x="356" 
d="M277 809v-846h-231v59h142v728h-142v59h231z" />
    <glyph glyph-name="braceleft.cap" horiz-adv-x="356" 
d="M24 357v58q100 8 100 115v128q0 80 45 115.5t140 35.5v-56q-51 0 -74 -24.5t-23 -83.5v-132q0 -105 -101 -127q101 -22 101 -128v-131q0 -60 22.5 -84t74.5 -24v-56q-95 0 -140 35.5t-45 115.5v128q0 107 -100 115z" />
    <glyph glyph-name="braceright.cap" horiz-adv-x="356" 
d="M332 415v-58q-100 -8 -100 -115v-128q0 -80 -45 -115.5t-140 -35.5v56q51 0 74 24.5t23 83.5v131q0 106 101 128q-101 22 -101 127v132q0 60 -22.5 84t-74.5 24v56q95 0 140 -35.5t45 -115.5v-128q0 -107 100 -115z" />
    <glyph glyph-name="guilsinglleft.cap" horiz-adv-x="308" 
d="M169 221l-130 165l130 165h90l-99 -165l99 -165h-90z" />
    <glyph glyph-name="guilsinglright.cap" horiz-adv-x="308" 
d="M139 551l130 -165l-130 -165h-90l99 165l-99 165h90z" />
    <glyph glyph-name="guillemotleft.cap" horiz-adv-x="475" 
d="M169 221l-130 165l130 165h79l-99 -165l99 -165h-79zM347 221l-130 165l130 165h79l-99 -165l99 -165h-79z" />
    <glyph glyph-name="guillemotright.cap" horiz-adv-x="475" 
d="M128 551l130 -165l-130 -165h-79l99 165l-99 165h79zM306 551l130 -165l-130 -165h-79l99 165l-99 165h79z" />
    <glyph glyph-name="A.superior" horiz-adv-x="424" 
d="M6 350l181 400l59 9l172 -409h-92l-39 98h-152l-37 -98h-92zM213 650l-57 -141h111z" />
    <glyph glyph-name="B.superior" horiz-adv-x="354" 
d="M308 657q0 -61 -57 -88q75 -26 75 -100q0 -53 -43 -86t-113 -33h-119v402h126q63 0 97 -26.5t34 -68.5zM130 529v-114h41q37 0 55 16.5t18 43.5q0 24 -18 39t-50 15h-46zM130 687v-102h40q29 0 44.5 15t15.5 39q0 21 -15 34.5t-43 13.5h-42z" />
    <glyph glyph-name="C.superior" horiz-adv-x="397" 
d="M361 723l-7 -93h-3q-41 51 -113 51q-56 0 -90.5 -37t-34.5 -93q0 -57 34.5 -93t90.5 -36q73 0 124 62h3l-7 -102q-55 -39 -128 -39q-90 0 -146 57t-56 152q0 85 57.5 146t146.5 61q76 0 129 -36z" />
    <glyph glyph-name="D.superior" horiz-adv-x="415" 
d="M165 350h-114v402h115q104 0 162.5 -53.5t58.5 -142.5q0 -99 -57 -152.5t-165 -53.5zM132 677v-252h37q66 0 100.5 33.5t34.5 97.5q0 52 -35.5 86.5t-98.5 34.5h-38z" />
    <glyph glyph-name="E.superior" horiz-adv-x="320" 
d="M132 681v-89h130v-68h-130v-103h154v-71h-235v402h233v-71h-152z" />
    <glyph glyph-name="F.superior" horiz-adv-x="307" 
d="M286 752v-71h-154v-96h140v-71h-140v-164h-81v402h235z" />
    <glyph glyph-name="G.superior" horiz-adv-x="409" 
d="M377 542v-152q-67 -47 -148 -47q-90 0 -145.5 56t-55.5 149q0 87 56.5 149t152.5 62q68 0 125 -33l-9 -90h-3q-45 48 -112 48q-57 0 -91 -37t-34 -99q0 -60 32.5 -96t87.5 -36q39 0 62 20v106h82z" />
    <glyph glyph-name="H.superior" horiz-adv-x="432" 
d="M132 350h-81v402h81v-156h168v156h82v-402h-82v171h-168v-171z" />
    <glyph glyph-name="I.superior" horiz-adv-x="183" 
d="M132 350h-81v402h81v-402z" />
    <glyph glyph-name="J.superior" horiz-adv-x="184" 
d="M51 752h82v-329q0 -126 -43 -173l-106 -23l-2 5q40 31 54.5 69t14.5 117v334z" />
    <glyph glyph-name="K.superior" horiz-adv-x="409" 
d="M132 350h-81v402h81v-183l153 183h108l-176 -195l189 -207h-111l-163 191v-191z" />
    <glyph glyph-name="L.superior" horiz-adv-x="327" 
d="M51 350v402h81v-327h182v-75h-263z" />
    <glyph glyph-name="M.superior" horiz-adv-x="571" 
d="M51 350v402h91l143 -289l144 289h91v-402h-78v271l-135 -271h-44l-133 271v-271h-79z" />
    <glyph glyph-name="N.superior" horiz-adv-x="473" 
d="M343 752h79v-402h-65l-227 270v-270h-79v402h65l227 -270v270z" />
    <glyph glyph-name="O.superior" horiz-adv-x="455" 
d="M343 551q0 58 -32.5 96t-82.5 38q-51 0 -83.5 -38t-32.5 -96t32.5 -96t83.5 -38q50 0 82.5 38t32.5 96zM427 551q0 -91 -56 -150t-143 -59q-88 0 -144 59t-56 150t56 150t144 59q87 0 143 -59t56 -150z" />
    <glyph glyph-name="P.superior" horiz-adv-x="340" 
d="M132 350h-81v402h114q72 0 113 -33.5t41 -93.5q0 -139 -165 -139h-22v-136zM132 683v-128h27q81 0 81 65q0 30 -20 46.5t-57 16.5h-31z" />
    <glyph glyph-name="Q.superior" horiz-adv-x="459" 
d="M229 351q-23 0 -46 6v-1q51 -24 108 -36q48 -10 91 -10l-24 -80q-44 3 -92 19q-31 11 -79.5 33.5t-56.5 26.5q-30 12 -52 16l34 67q-84 62 -84 160q0 91 56.5 149.5t144.5 58.5t145 -58.5t57 -149.5q0 -88 -57 -144.5t-145 -56.5zM344 552q0 57 -32.5 94t-82.5 37
t-82 -37t-32 -94t32.5 -95.5t81.5 -38.5q50 0 82.5 38.5t32.5 95.5z" />
    <glyph glyph-name="R.superior" horiz-adv-x="374" 
d="M51 350v402h120q71 0 111 -31.5t40 -89.5q0 -79 -83 -112l131 -169h-98l-112 153h-28v-153h-81zM132 683v-126h7q99 0 99 65q0 61 -77 61h-29z" />
    <glyph glyph-name="S.superior" horiz-adv-x="302" 
d="M38 460q54 -45 104 -45q52 0 52 42q0 20 -15 35.5t-59 40.5q-51 29 -69 56t-18 68q0 45 34 74t87 29q47 0 96 -18v-89q-59 36 -92 36q-20 0 -31.5 -10t-11.5 -26q0 -18 13.5 -30.5t61.5 -38.5q49 -27 68.5 -55t19.5 -71q0 -52 -39 -84t-102 -32q-58 0 -94 21l-8 97h3z
" />
    <glyph glyph-name="T.superior" horiz-adv-x="372" 
d="M227 350h-82v327h-130v75h342v-75h-130v-327z" />
    <glyph glyph-name="U.superior" horiz-adv-x="417" 
d="M48 752h81v-244q0 -42 22 -63.5t57 -21.5q36 0 58 21.5t22 63.5v244h81v-248q0 -81 -44 -121t-117 -40q-72 0 -116 40t-44 120v249z" />
    <glyph glyph-name="V.superior" horiz-adv-x="425" 
d="M6 752h95l108 -288l115 288h96l-178 -402h-68z" />
    <glyph glyph-name="W.superior" horiz-adv-x="632" 
d="M393 350l-79 188l-81 -188h-60l-167 402h94l109 -289l69 160l-53 129h95l104 -279l115 279h88l-174 -402h-60z" />
    <glyph glyph-name="X.superior" horiz-adv-x="424" 
d="M10 350l150 207l-146 195h107l91 -132l86 132h103l-142 -190l157 -212h-107l-102 151l-103 -151h-94z" />
    <glyph glyph-name="Y.superior" horiz-adv-x="390" 
d="M228 350h-81v179l-143 223h99l88 -149l96 149h99l-158 -222v-180z" />
    <glyph glyph-name="Z.superior" horiz-adv-x="390" 
d="M355 350h-355l233 323h-193l7 79h336l-238 -324h224z" />
    <glyph glyph-name="b.superior" horiz-adv-x="424" 
d="M197 338q-53 0 -87 22l-54 -19v507l80 16v-190q39 30 92 30q71 0 118.5 -47t47.5 -126q0 -88 -53.5 -140.5t-143.5 -52.5zM208 640q-46 0 -72 -28v-200q23 -14 56 -14q55 0 87.5 33.5t32.5 92.5q0 52 -28.5 84t-75.5 32z" />
    <glyph glyph-name="c.superior" horiz-adv-x="352" 
d="M326 456l-11 -88q-45 -30 -110 -30q-80 0 -127.5 48t-47.5 130q0 83 50.5 135.5t139.5 52.5q59 0 100 -26l-10 -77q-37 32 -87 32q-52 0 -82 -31.5t-30 -85.5q0 -47 28 -77t77 -30q64 0 107 47h3z" />
    <glyph glyph-name="d.superior" horiz-adv-x="425" 
d="M294 339l2 35q-44 -36 -105 -36q-74 0 -117.5 50t-43.5 125q0 83 52 137t129 54q41 0 78 -19v163l79 16v-507zM213 403q48 0 76 25v194q-24 17 -66 17q-49 0 -80 -34t-31 -90q0 -52 26.5 -82t74.5 -30z" />
    <glyph glyph-name="e.superior" horiz-adv-x="361" 
d="M215 503q-58 -16 -113 -24q17 -74 99 -74q70 0 115 53h3l-6 -81q-47 -39 -118 -39q-80 0 -123 47.5t-43 116.5q0 79 54.5 141t135.5 62q51 0 80 -26t29 -66q0 -80 -113 -110zM200 646q-39 0 -68.5 -37.5t-32.5 -89.5q50 9 89 22q61 21 61 60q0 21 -13 33t-36 12z" />
    <glyph glyph-name="f.superior" horiz-adv-x="255" 
d="M154 701v-9h93v-66h-93v-276h-79v276h-63v66h63v19q0 107 72 135l105 18v-37q-57 -13 -77.5 -41.5t-20.5 -84.5z" />
    <glyph glyph-name="g.superior" horiz-adv-x="372" 
d="M177 701q45 0 80 -19q36 48 93 48v-66q-30 0 -53 -16q24 -30 24 -64q0 -84 -108 -110q-16 -4 -42.5 -9t-30.5 -6q-26 -6 -26 -18q0 -11 36 -19q16 -3 58 -9.5t53 -8.5q83 -17 83 -87q0 -56 -53 -94t-128 -38q-61 0 -97.5 30t-36.5 72q0 53 57 84q-55 18 -55 52
q0 37 76 67q-68 33 -68 93q0 49 39.5 83.5t98.5 34.5zM227 345q-10 2 -44 7t-55 9q-40 -23 -40 -56q0 -25 22 -41.5t60 -16.5q42 0 69.5 18t27.5 42q0 29 -40 38zM108 578q0 -41 46 -62q12 -3 14 -3q9 0 18 3q59 16 59 62q0 26 -19.5 44.5t-50.5 18.5q-30 0 -48.5 -17.5
t-18.5 -45.5z" />
    <glyph glyph-name="h.superior" horiz-adv-x="415" 
d="M56 350v498l80 16v-225q54 62 119 62q52 0 81 -30t29 -87v-234h-79v208q0 70 -61 70q-43 0 -70 -34q-19 -23 -19 -60v-184h-80z" />
    <glyph glyph-name="i.superior" horiz-adv-x="191" 
d="M56 684l79 16v-350h-79v334zM96 865q21 0 34 -13.5t13 -34.5q0 -20 -13 -33t-33 -13q-22 0 -35 12.5t-13 33.5t13 34.5t34 13.5z" />
    <glyph glyph-name="j.superior" horiz-adv-x="191" 
d="M56 684l79 16v-358q0 -94 -35 -132l-106 -25l-4 10q66 41 66 145v344zM94 865q22 0 35 -13.5t13 -34.5q0 -20 -13 -33t-34 -13t-34 12.5t-13 33.5t13 34.5t33 13.5z" />
    <glyph glyph-name="k.superior" horiz-adv-x="394" 
d="M136 864v-320l134 148h104l-153 -157l189 -185h-112l-162 174v-174h-80v498z" />
    <glyph glyph-name="l.superior" horiz-adv-x="192" 
d="M136 864v-514h-80v498z" />
    <glyph glyph-name="m.superior" horiz-adv-x="609" 
d="M480 350v212q0 31 -15 48.5t-41 17.5q-42 0 -65 -36q-12 -20 -12 -47v-195h-79v212q0 31 -15 48.5t-41 17.5q-42 0 -65 -37q-11 -18 -11 -46v-195h-80v342h80v-46q35 55 101 55q72 0 100 -64q41 64 111 64q54 0 82 -32t28 -84v-235h-78z" />
    <glyph glyph-name="p.superior" horiz-adv-x="420" 
d="M56 692h80v-6q37 15 79 15q76 0 125.5 -48t49.5 -129q0 -85 -49.5 -135.5t-133.5 -50.5q-39 0 -71 15v-152l-80 -16v507zM197 639q-39 0 -61 -16v-208q23 -17 60 -17q52 0 82 32.5t30 90.5q0 54 -29.5 86t-81.5 32z" />
    <glyph glyph-name="q.superior" horiz-adv-x="424" 
d="M368 692v-490l-79 -17v180q-41 -26 -93 -26q-75 0 -120.5 48.5t-45.5 129.5q0 85 51 136t136 51q40 0 73 -12h78zM217 405q49 0 72 22v203q-27 12 -63 12q-54 0 -84 -32.5t-30 -90.5q0 -53 27.5 -83.5t77.5 -30.5z" />
    <glyph glyph-name="r.superior" horiz-adv-x="271" 
d="M263 696v-82q-6 1 -18 1q-40 0 -71 -13q-38 -16 -38 -59v-193h-80v342h80v-56q41 62 107 62q10 0 20 -2z" />
    <glyph glyph-name="s.superior" horiz-adv-x="312" 
d="M34 372l6 74q46 -49 114 -49q55 0 55 40q0 23 -26 37q-14 7 -45 19.5t-40 16.5q-35 18 -49.5 40.5t-14.5 56.5q0 42 32 69.5t84 27.5q67 0 116 -29l-17 -70q-41 39 -96 39q-46 0 -46 -35q0 -24 27 -38q10 -5 39.5 -16t41.5 -17q67 -32 67 -99q0 -46 -34 -73.5t-94 -27.5
q-72 0 -120 34z" />
    <glyph glyph-name="t.superior" horiz-adv-x="261" 
d="M12 692h64v100l79 15v-115h96v-66h-96v-161q0 -48 11 -69t44 -39v-6l-86 -9q-25 12 -36.5 37t-11.5 76v171h-64v66z" />
    <glyph glyph-name="u.superior" horiz-adv-x="411" 
d="M50 692h80v-212q0 -66 60 -66q47 0 77 48q9 17 9 37v193h79v-335l-79 -17v63q-48 -62 -116 -62q-110 0 -110 120v231z" />
    <glyph glyph-name="v.superior" horiz-adv-x="361" 
d="M2 692h86l84 -256l101 256h85l-148 -342h-79z" />
    <glyph glyph-name="w.superior" horiz-adv-x="564" 
d="M246 692h72l66 -258l96 258h81l-143 -342h-77l-62 235l-76 -235h-78l-123 342h82l80 -256z" />
    <glyph glyph-name="x.superior" horiz-adv-x="387" 
d="M373 692l-138 -163l140 -179h-95l-91 122l-97 -122h-91l147 173l-132 169h99l79 -113l88 113h91z" />
    <glyph glyph-name="y.superior" horiz-adv-x="367" 
d="M40 188q61 64 104 163l-142 341h86l94 -248l101 248h81l-150 -351q-45 -105 -80 -156h-94v3z" />
    <glyph glyph-name="z.superior" horiz-adv-x="365" 
d="M330 350h-325l213 271h-181l8 71h307l-215 -271h205z" />
    <glyph glyph-name="zero.numerator" horiz-adv-x="387" 
d="M193 350q-72 0 -115.5 54t-43.5 152t43.5 152t115.5 54t115.5 -54t43.5 -152t-43.5 -152t-115.5 -54zM193 416q37 0 58.5 36.5t21.5 103.5t-21.5 103t-58.5 36t-58 -36t-21 -103t21 -103.5t58 -36.5z" />
    <glyph glyph-name="one.numerator" horiz-adv-x="272" 
d="M183 360h-79v326l-90 -3l10 69h159v-392z" />
    <glyph glyph-name="two.numerator" horiz-adv-x="355" 
d="M230 502q-44 -42 -93 -75h184l-9 -67h-275v60q66 45 123 102q61 62 61 113q0 24 -17 39.5t-48 15.5q-56 0 -109 -42l10 85q44 29 113 29q64 0 98 -31.5t34 -81.5q0 -76 -72 -147z" />
    <glyph glyph-name="three.numerator" horiz-adv-x="351" 
d="M290 665q0 -30 -18 -55t-50 -37q86 -25 86 -100q0 -57 -43 -90t-114 -33q-69 0 -109 18l-4 78q45 -27 111 -27q37 0 58.5 16t21.5 41t-21 40.5t-59 15.5q-49 0 -84 -10l14 73q26 -2 49 -2q83 0 83 55q0 20 -17.5 33t-49.5 13q-53 0 -88 -23l17 77q36 14 91 14
q59 0 92.5 -27t33.5 -70z" />
    <glyph glyph-name="four.numerator" horiz-adv-x="368" 
d="M210 360v99h-203v42l192 251h83v-232h68v-61h-68v-99h-72zM80 520h130v170z" />
    <glyph glyph-name="five.numerator" horiz-adv-x="355" 
d="M309 752l-10 -63h-168l-9 -70q7 2 29 2q72 0 113.5 -35t41.5 -87q0 -72 -58 -112.5t-167 -40.5q-13 0 -41 2l10 72q20 -5 54 -5q60 0 92.5 21.5t32.5 58.5q0 30 -26.5 49t-75.5 19q-41 0 -76 -9l25 198h233z" />
    <glyph glyph-name="six.numerator" horiz-adv-x="357" 
d="M286 692q-139 -10 -177 -111q31 24 78 24q62 0 100 -33t38 -91q0 -55 -39.5 -93t-103.5 -38q-72 0 -111 43t-39 121q0 100 65.5 169.5t201.5 80.5zM178 555q-50 0 -81 -31v-13q0 -96 88 -96q30 0 50 20t20 49q0 31 -21.5 51t-55.5 20z" />
    <glyph glyph-name="seven.numerator" horiz-adv-x="331" 
d="M79 360q55 164 132 324l-197 -4l28 72h270q-108 -240 -144 -392h-89z" />
    <glyph glyph-name="eight.numerator" horiz-adv-x="378" 
d="M338 466q0 -49 -40 -82.5t-112 -33.5q-69 0 -108 31t-39 82q0 67 74 98q-62 29 -62 92q0 45 39 77t96 32q61 0 96 -30t35 -75q0 -54 -59 -87q80 -28 80 -104zM262 470q0 53 -84 70q-31 -9 -48 -28.5t-17 -43.5t20 -40.5t53 -16.5q37 0 56.5 16.5t19.5 42.5zM124 654
q0 -25 16 -40t55 -27q52 19 52 63q0 22 -17 37t-44 15q-26 0 -44 -14t-18 -34z" />
    <glyph glyph-name="nine.numerator" horiz-adv-x="363" 
d="M118 343l-47 59q117 42 157 105q-18 -6 -39 -6q-70 0 -113 35t-43 95q0 56 37 93.5t100 37.5q72 0 113 -43.5t41 -118.5q0 -178 -206 -257zM203 553q27 0 47 9q4 16 4 38q0 46 -22 72.5t-62 26.5q-31 0 -50.5 -20t-19.5 -50q0 -34 28.5 -55t74.5 -21z" />
    <glyph glyph-name="zero.denominator" horiz-adv-x="387" 
d="M193 -10q-72 0 -115.5 54t-43.5 152t43.5 152t115.5 54t115.5 -54t43.5 -152t-43.5 -152t-115.5 -54zM193 56q37 0 58.5 36.5t21.5 103.5t-21.5 103t-58.5 36t-58 -36t-21 -103t21 -103.5t58 -36.5z" />
    <glyph glyph-name="one.denominator" horiz-adv-x="272" 
d="M183 0h-79v326l-90 -3l10 69h159v-392z" />
    <glyph glyph-name="two.denominator" horiz-adv-x="355" 
d="M230 142q-44 -42 -93 -75h184l-9 -67h-275v60q66 45 123 102q61 62 61 113q0 24 -17 39.5t-48 15.5q-56 0 -109 -42l10 85q44 29 113 29q64 0 98 -31.5t34 -81.5q0 -76 -72 -147z" />
    <glyph glyph-name="three.denominator" horiz-adv-x="351" 
d="M290 305q0 -30 -18 -55t-50 -37q86 -25 86 -100q0 -57 -43 -90t-114 -33q-69 0 -109 18l-4 78q45 -27 111 -27q37 0 58.5 16t21.5 41t-21 40.5t-59 15.5q-49 0 -84 -10l14 73q26 -2 49 -2q83 0 83 55q0 20 -17.5 33t-49.5 13q-53 0 -88 -23l17 77q36 14 91 14
q59 0 92.5 -27t33.5 -70z" />
    <glyph glyph-name="four.denominator" horiz-adv-x="368" 
d="M210 0v99h-203v42l192 251h83v-232h68v-61h-68v-99h-72zM80 160h130v170z" />
    <glyph glyph-name="five.denominator" horiz-adv-x="355" 
d="M309 392l-10 -63h-168l-9 -70q7 2 29 2q72 0 113.5 -35t41.5 -87q0 -72 -58 -112.5t-167 -40.5q-13 0 -41 2l10 72q20 -5 54 -5q60 0 92.5 21.5t32.5 58.5q0 30 -26.5 49t-75.5 19q-41 0 -76 -9l25 198h233z" />
    <glyph glyph-name="six.denominator" horiz-adv-x="357" 
d="M286 332q-139 -10 -177 -111q31 24 78 24q62 0 100 -33t38 -91q0 -55 -39.5 -93t-103.5 -38q-72 0 -111 43t-39 121q0 100 65.5 169.5t201.5 80.5zM178 195q-50 0 -81 -31v-13q0 -96 88 -96q30 0 50 20t20 49q0 31 -21.5 51t-55.5 20z" />
    <glyph glyph-name="seven.denominator" horiz-adv-x="331" 
d="M79 0q55 164 132 324l-197 -4l28 72h270q-108 -240 -144 -392h-89z" />
    <glyph glyph-name="eight.denominator" horiz-adv-x="378" 
d="M338 106q0 -49 -40 -82.5t-112 -33.5q-69 0 -108 31t-39 82q0 67 74 98q-62 29 -62 92q0 45 39 77t96 32q61 0 96 -30t35 -75q0 -54 -59 -87q80 -28 80 -104zM262 110q0 53 -84 70q-31 -9 -48 -28.5t-17 -43.5t20 -40.5t53 -16.5q37 0 56.5 16.5t19.5 42.5zM124 294
q0 -25 16 -40t55 -27q52 19 52 63q0 22 -17 37t-44 15q-26 0 -44 -14t-18 -34z" />
    <glyph glyph-name="nine.denominator" horiz-adv-x="363" 
d="M118 -17l-47 59q117 42 157 105q-18 -6 -39 -6q-70 0 -113 35t-43 95q0 56 37 93.5t100 37.5q72 0 113 -43.5t41 -118.5q0 -178 -206 -257zM203 193q27 0 47 9q4 16 4 38q0 46 -22 72.5t-62 26.5q-31 0 -50.5 -20t-19.5 -50q0 -34 28.5 -55t74.5 -21z" />
    <glyph glyph-name="zero.scprop" horiz-adv-x="571" 
d="M285 -15q-107 0 -171.5 72.5t-64.5 203.5q0 132 64.5 203.5t171.5 71.5q108 0 172.5 -71.5t64.5 -203.5q0 -131 -64.5 -203.5t-172.5 -72.5zM285 76q56 0 88.5 48t32.5 137q0 90 -32 137t-89 47q-56 0 -88 -47t-32 -137q0 -89 32 -137t88 -48z" />
    <glyph glyph-name="one.scprop" horiz-adv-x="342" 
d="M251 0h-113v421l-115 -5l14 107h214v-523z" />
    <glyph glyph-name="two.scprop" horiz-adv-x="494" 
d="M311 193q-40 -40 -112 -95h241l-10 -98h-377v84q95 70 169 141q77 74 77 135q0 36 -24 58.5t-67 22.5q-82 0 -147 -49l17 110q64 35 158 35q83 0 128.5 -44t45.5 -110q0 -97 -99 -190z" />
    <glyph glyph-name="three.scprop" horiz-adv-x="475" 
d="M390 403q0 -91 -91 -125q109 -36 109 -133q0 -72 -54 -115.5t-143 -43.5q-98 0 -151 26l-3 100q58 -34 136 -34q49 0 76.5 21t27.5 54q0 34 -27.5 55t-77.5 21q-64 0 -108 -9l17 91q19 -3 66 -3q52 0 82 18.5t30 53.5q0 28 -21.5 46t-60.5 18q-75 0 -125 -34l20 105
q54 21 131 21q78 0 122.5 -37.5t44.5 -95.5z" />
    <glyph glyph-name="four.scprop" horiz-adv-x="545" 
d="M304 0v125h-274v59l257 339h120v-312h82v-86h-82v-125h-103zM133 211h171v227z" />
    <glyph glyph-name="five.scprop" horiz-adv-x="468" 
d="M393 523l-12 -83h-194l-14 -105q7 1 30 1q96 0 148.5 -45t52.5 -115q0 -103 -80.5 -156.5t-235.5 -53.5q-15 0 -39 2l13 96q20 -5 58 -5q86 0 132 30t46 83q0 39 -34 64.5t-95 25.5q-53 0 -99 -9l33 270h290z" />
    <glyph glyph-name="six.scprop" horiz-adv-x="523" 
d="M407 454q-94 -5 -155.5 -45t-87.5 -106q47 32 111 32q86 0 139.5 -46t53.5 -123q0 -76 -58 -128t-149 -52q-105 0 -160 58.5t-55 162.5q0 89 40 164t127.5 127t209.5 57zM247 266q-57 0 -99 -34q-1 -9 -1 -27q0 -65 29.5 -99.5t83.5 -34.5q40 0 68.5 27.5t28.5 68.5
q0 44 -30.5 71.5t-79.5 27.5z" />
    <glyph glyph-name="seven.scprop" horiz-adv-x="441" 
d="M52 523h363q-136 -316 -175 -523h-122q56 204 168 431l-269 -5z" />
    <glyph glyph-name="eight.scprop" horiz-adv-x="519" 
d="M458 141q0 -67 -52.5 -110.5t-144.5 -43.5q-96 0 -148 41t-52 110q0 84 104 124q-86 43 -86 130q0 61 52 102.5t130 41.5q83 0 130.5 -39t47.5 -101q0 -80 -85 -123q104 -41 104 -132zM355 150q0 34 -23.5 54.5t-75.5 33.5q-46 -12 -70 -35t-24 -52q0 -35 25.5 -57
t73.5 -22q45 0 69.5 22t24.5 56zM179 383q0 -32 20 -51t71 -35q71 28 71 82q0 32 -22 52.5t-58 20.5q-35 0 -58.5 -20t-23.5 -49z" />
    <glyph glyph-name="nine.scprop" horiz-adv-x="500" 
d="M188 -25l-77 76q142 59 197 147q-30 -11 -67 -11q-89 0 -143.5 45.5t-54.5 122.5q0 76 55 129t141 53q97 0 152.5 -57t55.5 -159q0 -232 -259 -346zM266 254q44 0 72 18q5 25 5 47q0 60 -28 93.5t-78 33.5q-38 0 -61.5 -24.5t-23.5 -64.5q0 -46 31.5 -74.5t82.5 -28.5z
" />
    <glyph glyph-name="zero.sctab" horiz-adv-x="493" 
d="M246 -15q-102 0 -163.5 72t-61.5 204t61.5 203.5t163.5 71.5q103 0 164.5 -71.5t61.5 -203.5t-62 -204t-164 -72zM246 76q53 0 82.5 48t29.5 137t-29.5 136.5t-82.5 47.5q-52 0 -81.5 -47t-29.5 -137q0 -89 29.5 -137t81.5 -48z" />
    <glyph glyph-name="one.sctab" horiz-adv-x="493" 
d="M96 0v97h117v324l-115 -5l14 107h214v-426h110v-97h-340z" />
    <glyph glyph-name="two.sctab" horiz-adv-x="493" 
d="M310 193q-40 -40 -112 -95h241l-10 -98h-377v84q95 70 169 141q77 74 77 135q0 36 -24 58.5t-67 22.5q-82 0 -147 -49l17 110q64 35 158 35q83 0 128.5 -44t45.5 -110q0 -97 -99 -190z" />
    <glyph glyph-name="three.sctab" horiz-adv-x="493" 
d="M402 403q0 -91 -91 -125q109 -36 109 -133q0 -72 -54 -115.5t-143 -43.5q-98 0 -151 26l-3 100q58 -34 136 -34q49 0 76.5 21t27.5 54q0 34 -27.5 55t-77.5 21q-64 0 -108 -9l17 91q19 -3 66 -3q52 0 82 18.5t30 53.5q0 28 -21.5 46t-60.5 18q-75 0 -125 -34l20 105
q54 21 131 21q78 0 122.5 -37.5t44.5 -95.5z" />
    <glyph glyph-name="four.sctab" horiz-adv-x="493" 
d="M289 0v125h-274v59l257 339h120v-312h82v-86h-82v-125h-103zM118 211h171v227z" />
    <glyph glyph-name="five.sctab" horiz-adv-x="493" 
d="M412 523l-12 -83h-194l-14 -105q7 1 30 1q96 0 148.5 -45t52.5 -115q0 -103 -80.5 -156.5t-235.5 -53.5q-15 0 -39 2l13 96q20 -5 58 -5q86 0 132 30t46 83q0 39 -34 64.5t-95 25.5q-52 0 -99 -9l33 270h290z" />
    <glyph glyph-name="six.sctab" horiz-adv-x="493" 
d="M397 454q-94 -5 -155.5 -45t-87.5 -106q47 32 111 32q86 0 139.5 -46t53.5 -123q0 -76 -58 -128t-149 -52q-105 0 -160 58.5t-55 162.5q0 89 40 164t127.5 127t209.5 57zM237 266q-57 0 -99 -34q-1 -9 -1 -27q0 -65 29.5 -99.5t83.5 -34.5q40 0 68.5 27.5t28.5 68.5
q0 44 -30.5 71.5t-79.5 27.5z" />
    <glyph glyph-name="seven.sctab" horiz-adv-x="493" 
d="M67 523h374q-136 -316 -175 -523h-122q53 195 168 431l-280 -5z" />
    <glyph glyph-name="eight.sctab" horiz-adv-x="493" 
d="M445 141q0 -67 -52.5 -110.5t-144.5 -43.5q-96 0 -148 41t-52 110q0 84 104 124q-86 43 -86 130q0 61 52 102.5t130 41.5q83 0 130.5 -39t47.5 -101q0 -80 -85 -123q104 -41 104 -132zM342 150q0 34 -23.5 54.5t-75.5 33.5q-46 -12 -70 -35t-24 -52q0 -35 25.5 -57
t73.5 -22q45 0 69.5 22t24.5 56zM166 383q0 -32 20 -51t71 -35q71 28 71 82q0 32 -22 52.5t-58 20.5q-35 0 -58.5 -20t-23.5 -49z" />
    <glyph glyph-name="nine.sctab" horiz-adv-x="493" 
d="M187 -25l-77 76q142 59 197 147q-30 -11 -67 -11q-89 0 -143.5 45.5t-54.5 122.5q0 76 55 129t141 53q97 0 152.5 -57t55.5 -159q0 -232 -259 -346zM265 254q43 0 72 18q5 25 5 47q0 60 -28 93.5t-78 33.5q-38 0 -61.5 -24.5t-23.5 -64.5q0 -46 31.5 -74.5t82.5 -28.5z
" />
    <glyph glyph-name="a.sc" horiz-adv-x="588" 
d="M467 0l-62 150h-216l-69 -150h-117l244 516l101 15l237 -531h-118zM300 406l-81 -176h157z" />
    <glyph glyph-name="b.sc" horiz-adv-x="533" 
d="M378 281q107 -30 107 -133q0 -68 -54.5 -108t-148.5 -40h-195v523h197q85 0 130 -35.5t45 -92.5q0 -36 -21.5 -67.5t-59.5 -46.5zM200 233v-153h71q46 0 72 22t26 55q0 34 -25.5 55t-70.5 21h-73zM200 445v-138h72q36 0 56.5 21t20.5 50t-21 48t-58 19h-70z" />
    <glyph glyph-name="c.sc" horiz-adv-x="539" 
d="M497 157l-15 -128q-64 -42 -163 -42q-122 0 -199 75t-77 198q0 121 77 198.5t196 77.5q102 0 173 -41l-15 -115h-3q-45 54 -144 54q-76 0 -122 -48t-46 -126q0 -80 49.5 -125.5t126.5 -45.5q91 0 159 68h3z" />
    <glyph glyph-name="d.sc" horiz-adv-x="605" 
d="M270 0h-183v523h185q138 0 214 -69.5t76 -183.5q0 -132 -74.5 -201t-217.5 -69zM200 430v-336h61q185 0 185 174q0 71 -48.5 116.5t-134.5 45.5h-63z" />
    <glyph glyph-name="e.sc" horiz-adv-x="480" 
d="M200 429v-113h192v-92h-192v-130h223v-94h-336v523h326v-94h-213z" />
    <glyph glyph-name="f.sc" horiz-adv-x="446" 
d="M194 424v-133h197v-96h-197v-195h-107v523h335v-99h-228z" />
    <glyph glyph-name="g.sc" horiz-adv-x="581" 
d="M528 259v-191q-86 -81 -213 -81q-120 0 -196 74t-76 200q0 119 76.5 197t204.5 78q108 0 183 -50l-20 -109h-3q-60 63 -157 63q-77 0 -123.5 -50.5t-46.5 -129.5q0 -83 46.5 -131t122.5 -48q53 0 89 31v147h113z" />
    <glyph glyph-name="h.sc" horiz-adv-x="650" 
d="M200 0h-113v523h113v-199h250v199h113v-523h-113v225h-250v-225z" />
    <glyph glyph-name="i.sc" horiz-adv-x="287" 
d="M200 0h-113v523h113v-523z" />
    <glyph glyph-name="j.sc" horiz-adv-x="287" 
d="M89 523h113v-401q0 -113 -18 -178t-60 -108l-161 -40l-4 11q74 43 102 107.5t28 197.5v411z" />
    <glyph glyph-name="k.sc" horiz-adv-x="619" 
d="M200 0h-113v523h113v-239l237 239h151l-267 -251l296 -272h-154l-263 252v-252z" />
    <glyph glyph-name="l.sc" horiz-adv-x="476" 
d="M87 0v523h113v-424h266v-99h-379z" />
    <glyph glyph-name="m.sc" horiz-adv-x="795" 
d="M708 0h-98v346l-189 -346h-53l-183 342v-342h-98v523h105l204 -379l207 379h105v-523z" />
    <glyph glyph-name="n.sc" horiz-adv-x="691" 
d="M87 523h95l315 -365v365h107v-523h-92l-318 369v-369h-107v523z" />
    <glyph glyph-name="o.sc" horiz-adv-x="627" 
d="M471 260q0 79 -44.5 130.5t-112.5 51.5q-69 0 -113 -51t-44 -131q0 -79 44 -130.5t113 -51.5t113 51.5t44 130.5zM584 260q0 -122 -74.5 -198.5t-195.5 -76.5q-122 0 -196.5 76t-74.5 199q0 124 74.5 200t196.5 76q121 0 195.5 -76t74.5 -200z" />
    <glyph glyph-name="p.sc" horiz-adv-x="503" 
d="M200 0h-113v523h170q104 0 161.5 -43t57.5 -125q0 -91 -59.5 -138.5t-170.5 -47.5h-46v-169zM200 437v-178h46q114 0 114 92q0 86 -118 86h-42z" />
    <glyph glyph-name="q.sc" horiz-adv-x="609" 
d="M305 -1q-28 0 -55 6v-2q142 -66 263 -71l-34 -101q-107 11 -270 98q-42 22 -86 38l44 73q-57 37 -90.5 98.5t-33.5 133.5q0 114 74.5 189t187.5 75t187.5 -75t74.5 -189q0 -118 -74.5 -195.5t-187.5 -77.5zM453 272q0 75 -41.5 122.5t-106.5 47.5q-66 0 -107 -47.5
t-41 -122.5q0 -77 42.5 -128.5t105.5 -51.5q65 0 106.5 50.5t41.5 129.5z" />
    <glyph glyph-name="r.sc" horiz-adv-x="550" 
d="M87 0v523h204q89 0 137 -40t48 -117q0 -112 -110 -152l176 -214h-141l-143 195q-10 -1 -31 -1h-27v-194h-113zM200 437v-169h20q73 0 108 20.5t35 68.5q0 38 -25 59t-72 21h-66z" />
    <glyph glyph-name="s.sc" horiz-adv-x="463" 
d="M49 139q79 -58 173 -58q86 0 86 61q0 27 -21.5 45t-76.5 36q-83 28 -118.5 65.5t-35.5 98.5q0 66 49 107.5t130 41.5q83 0 147 -27v-111q-71 50 -143 50q-39 0 -58 -15.5t-19 -40.5t20 -41.5t74 -35.5q86 -31 122 -69t36 -98q0 -78 -54.5 -119.5t-144.5 -41.5
q-98 0 -154 29z" />
    <glyph glyph-name="t.sc" horiz-adv-x="516" 
d="M314 0h-112v424h-189v99h490v-99h-189v-424z" />
    <glyph glyph-name="u.sc" horiz-adv-x="624" 
d="M81 523h112v-310q0 -63 33.5 -95t85.5 -32t85.5 32t33.5 95v310h113v-310q0 -114 -65.5 -171.5t-166.5 -57.5t-166 57.5t-65 171.5v310z" />
    <glyph glyph-name="v.sc" horiz-adv-x="584" 
d="M4 523h125l158 -388l168 388h125l-248 -523h-93z" />
    <glyph glyph-name="w.sc" horiz-adv-x="835" 
d="M514 0l-99 246l-105 -246h-91l-215 523h121l144 -382l96 230l-60 152h119l138 -379l150 379h119l-224 -523h-93z" />
    <glyph glyph-name="x.sc" horiz-adv-x="611" 
d="M2 0l234 277l-195 246h136l126 -173l131 173h136l-202 -246l230 -277h-136l-161 204l-163 -204h-136z" />
    <glyph glyph-name="y.sc" horiz-adv-x="570" 
d="M571 523l-236 -305v-218h-113v219l-222 304h132l148 -228l157 228h134z" />
    <glyph glyph-name="z.sc" horiz-adv-x="554" 
d="M519 0h-509l323 420h-294l10 103h481l-325 -421h331z" />
    <glyph glyph-name="agrave.sc" horiz-adv-x="588" 
d="M467 0l-62 150h-216l-69 -150h-117l244 516l101 15l237 -531h-118zM300 406l-81 -176h157zM305 617l-144 171h120l76 -171h-52z" />
    <glyph glyph-name="aacute.sc" horiz-adv-x="588" 
d="M467 0l-62 150h-216l-69 -150h-117l244 516l101 15l237 -531h-118zM300 406l-81 -176h157zM441 788l-144 -171h-51l75 171h120z" />
    <glyph glyph-name="acircumflex.sc" horiz-adv-x="588" 
d="M467 0l-62 150h-216l-69 -150h-117l244 516l101 15l237 -531h-118zM300 406l-81 -176h157zM385 617l-84 96l-84 -96h-57l105 171h72l105 -171h-57z" />
    <glyph glyph-name="atilde.sc" horiz-adv-x="588" 
d="M467 0l-62 150h-216l-69 -150h-117l244 516l101 15l237 -531h-118zM300 406l-81 -176h157zM243 677q-21 0 -35 -14.5t-18 -37.5l-41 10q6 60 33.5 94.5t66.5 34.5q23 0 65 -17t57 -17q21 0 35 14.5t17 37.5l42 -9q-6 -60 -33.5 -95t-66.5 -35q-23 0 -65 17t-57 17z" />
    <glyph glyph-name="adieresis.sc" horiz-adv-x="588" 
d="M467 0l-62 150h-216l-69 -150h-117l244 516l101 15l237 -531h-118zM300 406l-81 -176h157zM202 757q26 0 42.5 -16t16.5 -43q0 -26 -16 -42t-42 -16q-27 0 -43 16t-16 42q0 27 16 43t42 16zM398 757q26 0 42.5 -16t16.5 -43q0 -26 -16 -42t-42 -16q-27 0 -43 16t-16 42
q0 27 16 43t42 16z" />
    <glyph glyph-name="amacron.sc" horiz-adv-x="588" 
d="M467 0l-62 150h-216l-69 -150h-117l244 516l101 15l237 -531h-118zM300 406l-81 -176h157zM438 739v-81h-276v81h276z" />
    <glyph glyph-name="abreve.sc" horiz-adv-x="588" 
d="M467 0l-62 150h-216l-69 -150h-117l244 516l101 15l237 -531h-118zM300 406l-81 -176h157zM300 698q82 0 82 86h49q0 -162 -131 -162q-130 0 -130 162h49q0 -86 81 -86z" />
    <glyph glyph-name="aring.sc" horiz-adv-x="588" 
d="M467 0l-62 150h-216l-69 -150h-117l244 516l101 15l237 -531h-118zM300 406l-81 -176h157zM197 706q0 42 30.5 73t73.5 31q42 0 73 -31t31 -73q0 -43 -31 -73.5t-73 -30.5q-43 0 -73.5 30.5t-30.5 73.5zM245 706q0 -23 16.5 -39.5t39.5 -16.5t39.5 16.5t16.5 39.5
t-16.5 39.5t-39.5 16.5t-39.5 -16.5t-16.5 -39.5z" />
    <glyph glyph-name="aogonek.sc" horiz-adv-x="588" 
d="M371 -144q0 35 21.5 67t74.5 77l-62 150h-216l-69 -150h-117l244 516l101 15l237 -531q-67 -31 -93.5 -61t-26.5 -64q0 -37 40 -37t67 31h3l-7 -85q-34 -21 -86 -21q-51 0 -81 24.5t-30 68.5zM300 406l-81 -176h157z" />
    <glyph glyph-name="ae.sc" horiz-adv-x="755" 
d="M476 429v-113h192v-92h-192v-130h223v-94h-336v156h-175l-90 -156h-120l304 523h407v-94h-213zM345 429l-111 -193h129v193h-18z" />
    <glyph glyph-name="cacute.sc" horiz-adv-x="539" 
d="M497 157l-15 -128q-64 -42 -163 -42q-122 0 -199 75t-77 198q0 121 77 198.5t196 77.5q102 0 173 -41l-15 -115h-3q-45 54 -144 54q-76 0 -122 -48t-46 -126q0 -80 49.5 -125.5t126.5 -45.5q91 0 159 68h3zM442 788l-144 -171h-51l75 171h120z" />
    <glyph glyph-name="ccircumflex.sc" horiz-adv-x="539" 
d="M497 157l-15 -128q-64 -42 -163 -42q-122 0 -199 75t-77 198q0 121 77 198.5t196 77.5q102 0 173 -41l-15 -115h-3q-45 54 -144 54q-76 0 -122 -48t-46 -126q0 -80 49.5 -125.5t126.5 -45.5q91 0 159 68h3zM386 617l-84 96l-84 -96h-57l105 171h72l105 -171h-57z" />
    <glyph glyph-name="ccaron.sc" horiz-adv-x="539" 
d="M497 157l-15 -128q-64 -42 -163 -42q-122 0 -199 75t-77 198q0 121 77 198.5t196 77.5q102 0 173 -41l-15 -115h-3q-45 54 -144 54q-76 0 -122 -48t-46 -126q0 -80 49.5 -125.5t126.5 -45.5q91 0 159 68h3zM161 788h57l84 -96l84 96h57l-105 -171h-72z" />
    <glyph glyph-name="ccedilla.sc" horiz-adv-x="539" 
d="M497 157l-15 -128q-59 -38 -152 -42l-22 -43q10 2 21 2q41 0 65 -21t24 -56q0 -40 -33.5 -66.5t-85.5 -26.5q-53 0 -83 25l5 56q23 -26 72 -26q50 0 50 35q0 36 -53 36q-28 0 -45 -6l-2 3l42 90q-109 11 -175.5 84t-66.5 187q0 121 77 198.5t196 77.5q102 0 173 -41
l-15 -115h-3q-45 54 -144 54q-76 0 -122 -48t-46 -126q0 -80 49.5 -125.5t126.5 -45.5q91 0 159 68h3z" />
    <glyph glyph-name="cdotaccent.sc" horiz-adv-x="539" 
d="M497 157l-15 -128q-64 -42 -163 -42q-122 0 -199 75t-77 198q0 121 77 198.5t196 77.5q102 0 173 -41l-15 -115h-3q-45 54 -144 54q-76 0 -122 -48t-46 -126q0 -80 49.5 -125.5t126.5 -45.5q91 0 159 68h3zM301 769q29 0 47.5 -18.5t18.5 -47.5t-18 -47.5t-47 -18.5
q-31 0 -49 18t-18 48q0 29 18.5 47.5t47.5 18.5z" />
    <glyph glyph-name="dcaron.sc" horiz-adv-x="605" 
d="M270 0h-183v523h185q138 0 214 -69.5t76 -183.5q0 -132 -74.5 -201t-217.5 -69zM200 430v-336h61q185 0 185 174q0 71 -48.5 116.5t-134.5 45.5h-63zM140 788h57l84 -96l84 96h57l-105 -171h-72z" />
    <glyph glyph-name="dcroat.sc" horiz-adv-x="605" 
d="M270 0h-183v233h-64v68h64v222h185q138 0 214 -69.5t76 -183.5q0 -132 -74.5 -201t-217.5 -69zM200 430v-129h99v-68h-99v-139h61q185 0 185 174q0 71 -48.5 116.5t-134.5 45.5h-63z" />
    <glyph glyph-name="eth.sc" horiz-adv-x="605" 
d="M270 0h-183v233h-64v68h64v222h185q138 0 214 -69.5t76 -183.5q0 -132 -74.5 -201t-217.5 -69zM200 430v-129h99v-68h-99v-139h61q185 0 185 174q0 71 -48.5 116.5t-134.5 45.5h-63z" />
    <glyph glyph-name="egrave.sc" horiz-adv-x="480" 
d="M200 429v-113h192v-92h-192v-130h223v-94h-336v523h326v-94h-213zM255 617l-144 171h120l76 -171h-52z" />
    <glyph glyph-name="eacute.sc" horiz-adv-x="480" 
d="M200 429v-113h192v-92h-192v-130h223v-94h-336v523h326v-94h-213zM391 788l-144 -171h-51l75 171h120z" />
    <glyph glyph-name="ecircumflex.sc" horiz-adv-x="480" 
d="M200 429v-113h192v-92h-192v-130h223v-94h-336v523h326v-94h-213zM335 617l-84 96l-84 -96h-57l105 171h72l105 -171h-57z" />
    <glyph glyph-name="edieresis.sc" horiz-adv-x="480" 
d="M200 429v-113h192v-92h-192v-130h223v-94h-336v523h326v-94h-213zM153 757q26 0 42.5 -16t16.5 -43q0 -26 -16 -42t-42 -16q-27 0 -43 16t-16 42q0 27 16 43t42 16zM349 757q26 0 42.5 -16t16.5 -43q0 -26 -16 -42t-42 -16q-27 0 -43 16t-16 42q0 27 16 43t42 16z" />
    <glyph glyph-name="emacron.sc" horiz-adv-x="480" 
d="M200 429v-113h192v-92h-192v-130h223v-94h-336v523h326v-94h-213zM389 739v-81h-276v81h276z" />
    <glyph glyph-name="ebreve.sc" horiz-adv-x="480" 
d="M200 429v-113h192v-92h-192v-130h223v-94h-336v523h326v-94h-213zM251 698q82 0 82 86h49q0 -162 -131 -162q-130 0 -130 162h49q0 -86 81 -86z" />
    <glyph glyph-name="edotaccent.sc" horiz-adv-x="480" 
d="M200 429v-113h192v-92h-192v-130h223v-94h-336v523h326v-94h-213zM251 769q29 0 47.5 -18.5t18.5 -47.5t-18 -47.5t-47 -18.5q-31 0 -49 18t-18 48q0 29 18.5 47.5t47.5 18.5z" />
    <glyph glyph-name="ecaron.sc" horiz-adv-x="480" 
d="M200 429v-113h192v-92h-192v-130h223v-94h-336v523h326v-94h-213zM110 788h57l84 -96l84 96h57l-105 -171h-72z" />
    <glyph glyph-name="eogonek.sc" horiz-adv-x="480" 
d="M312 0h-225v523h326v-94h-213v-113h192v-92h-192v-130h223v-94h-1q-63 -33 -88 -62.5t-25 -62.5q0 -16 10.5 -26.5t30.5 -10.5q40 0 67 31h3l-7 -85q-34 -21 -86 -21q-51 0 -81 24.5t-30 68.5q0 35 21.5 67t74.5 77z" />
    <glyph glyph-name="gcircumflex.sc" horiz-adv-x="581" 
d="M528 259v-191q-86 -81 -213 -81q-120 0 -196 74t-76 200q0 119 76.5 197t204.5 78q108 0 183 -50l-20 -109h-3q-60 63 -157 63q-77 0 -123.5 -50.5t-46.5 -129.5q0 -83 46.5 -131t122.5 -48q53 0 89 31v147h113zM394 617l-84 96l-84 -96h-57l105 171h72l105 -171h-57z
" />
    <glyph glyph-name="gbreve.sc" horiz-adv-x="581" 
d="M528 259v-191q-86 -81 -213 -81q-120 0 -196 74t-76 200q0 119 76.5 197t204.5 78q108 0 183 -50l-20 -109h-3q-60 63 -157 63q-77 0 -123.5 -50.5t-46.5 -129.5q0 -83 46.5 -131t122.5 -48q53 0 89 31v147h113zM309 698q82 0 82 86h49q0 -162 -131 -162q-130 0 -130 162
h49q0 -86 81 -86z" />
    <glyph glyph-name="gdotaccent.sc" horiz-adv-x="581" 
d="M528 259v-191q-86 -81 -213 -81q-120 0 -196 74t-76 200q0 119 76.5 197t204.5 78q108 0 183 -50l-20 -109h-3q-60 63 -157 63q-77 0 -123.5 -50.5t-46.5 -129.5q0 -83 46.5 -131t122.5 -48q53 0 89 31v147h113zM309 769q29 0 47.5 -18.5t18.5 -47.5t-18 -47.5t-47 -18.5
q-31 0 -49 18t-18 48q0 29 18.5 47.5t47.5 18.5z" />
    <glyph glyph-name="gcommaaccent.sc" horiz-adv-x="581" 
d="M528 259v-191q-86 -81 -213 -81q-120 0 -196 74t-76 200q0 119 76.5 197t204.5 78q108 0 183 -50l-20 -109h-3q-60 63 -157 63q-77 0 -123.5 -50.5t-46.5 -129.5q0 -83 46.5 -131t122.5 -48q53 0 89 31v147h113zM357 -58q14 -26 14 -57q0 -29 -19 -56.5t-69 -65.5h-58
q58 69 58 117q0 21 -14 42z" />
    <glyph glyph-name="hcircumflex.sc" horiz-adv-x="650" 
d="M200 0h-113v523h113v-199h250v199h113v-523h-113v225h-250v-225zM409 617l-84 96l-84 -96h-57l105 171h72l105 -171h-57z" />
    <glyph glyph-name="hbar.sc" horiz-adv-x="650" 
d="M200 0h-113v385h-64v68h64v70h113v-70h250v70h113v-70h65v-68h-65v-385h-113v225h-250v-225zM200 324h250v61h-250v-61z" />
    <glyph glyph-name="igrave.sc" horiz-adv-x="287" 
d="M200 0h-113v523h113v-523zM147 617l-144 171h120l76 -171h-52z" />
    <glyph glyph-name="iacute.sc" horiz-adv-x="287" 
d="M200 0h-113v523h113v-523zM283 788l-144 -171h-51l75 171h120z" />
    <glyph glyph-name="icircumflex.sc" horiz-adv-x="287" 
d="M200 0h-113v523h113v-523zM227 617l-84 96l-84 -96h-57l105 171h72l105 -171h-57z" />
    <glyph glyph-name="itilde.sc" horiz-adv-x="287" 
d="M95 666q-21 0 -35.5 -15t-16.5 -37l-42 10q7 60 34.5 94.5t66.5 34.5q18 0 53.5 -17t48.5 -17q21 0 34.5 14.5t17.5 37.5l41 -9q-6 -60 -33.5 -95t-66.5 -35q-18 0 -53.5 17t-48.5 17zM200 0h-113v523h113v-523z" />
    <glyph glyph-name="idieresis.sc" horiz-adv-x="287" 
d="M55 746q26 0 42.5 -16t16.5 -43q0 -26 -16 -42t-42 -16q-27 0 -43 16t-16 42q0 27 16 43t42 16zM231 746q26 0 42.5 -16t16.5 -43q0 -26 -16 -42t-42 -16q-27 0 -43 16t-16 42q0 27 16 43t42 16zM200 0h-113v523h113v-523z" />
    <glyph glyph-name="imacron.sc" horiz-adv-x="287" 
d="M267 728v-81h-247v81h247zM200 0h-113v523h113v-523z" />
    <glyph glyph-name="ibreve.sc" horiz-adv-x="287" 
d="M200 0h-113v523h113v-523zM143 698q82 0 82 86h49q0 -162 -131 -162q-130 0 -130 162h49q0 -86 81 -86z" />
    <glyph glyph-name="idotaccent.sc" horiz-adv-x="287" 
d="M200 0h-113v523h113v-523zM143 769q29 0 47.5 -18.5t18.5 -47.5t-18 -47.5t-47 -18.5q-31 0 -49 18t-18 48q0 29 18.5 47.5t47.5 18.5z" />
    <glyph glyph-name="iogonek.sc" horiz-adv-x="287" 
d="M200 0q-91 -53 -91 -125q0 -16 10 -26.5t27 -10.5q43 0 70 30h3l-6 -84q-36 -21 -87 -21t-81 24.5t-30 68.5q0 34 16 66.5t56 77.5v523h113v-523z" />
    <glyph glyph-name="ij.sc" horiz-adv-x="552" 
d="M200 0h-113v523h113v-523zM354 523h113v-401q0 -113 -18 -178t-60 -108l-161 -40l-4 11q74 43 102 107.5t28 197.5v411z" />
    <glyph glyph-name="jcircumflex.sc" horiz-adv-x="282" 
d="M85 523h113v-401q0 -113 -18 -178t-60 -108l-161 -40l-4 11q74 43 102 107.5t28 197.5v411zM226 617l-84 96l-84 -96h-57l105 171h72l105 -171h-57z" />
    <glyph glyph-name="kcommaaccent.sc" horiz-adv-x="619" 
d="M200 0h-113v523h113v-239l237 239h151l-267 -251l296 -272h-154l-263 252v-252zM362 -58q14 -26 14 -57q0 -29 -19 -56.5t-69 -65.5h-58q58 69 58 117q0 21 -14 42z" />
    <glyph glyph-name="lacute.sc" horiz-adv-x="476" 
d="M87 0v523h113v-424h266v-99h-379zM318 788l-144 -171h-51l75 171h120z" />
    <glyph glyph-name="lcaron.sc" horiz-adv-x="476" 
d="M87 0v523h113v-424h266v-99h-379zM365 532q13 -27 13 -61q0 -59 -74 -138h-45q35 78 35 127q0 26 -12 52z" />
    <glyph glyph-name="lcommaaccent.sc" horiz-adv-x="476" 
d="M87 0v523h113v-424h266v-99h-379zM315 -58q14 -26 14 -57q0 -29 -19 -56.5t-69 -65.5h-58q58 69 58 117q0 21 -14 42z" />
    <glyph glyph-name="ldot.sc" horiz-adv-x="476" 
d="M87 0v523h113v-424h266v-99h-379zM378 404q29 0 47.5 -18.5t18.5 -47.5t-18 -47.5t-47 -18.5q-31 0 -49 18t-18 48q0 29 18.5 47.5t47.5 18.5z" />
    <glyph glyph-name="lslash.sc" horiz-adv-x="476" 
d="M87 0v192l-64 -42v93l64 42v238h113v-164l123 82v-93l-123 -82v-167h266v-99h-379z" />
    <glyph glyph-name="nacute.sc" horiz-adv-x="691" 
d="M87 523h95l315 -365v365h107v-523h-92l-318 369v-369h-107v523zM486 788l-144 -171h-51l75 171h120z" />
    <glyph glyph-name="ncaron.sc" horiz-adv-x="691" 
d="M87 523h95l315 -365v365h107v-523h-92l-318 369v-369h-107v523zM205 788h57l84 -96l84 96h57l-105 -171h-72z" />
    <glyph glyph-name="ntilde.sc" horiz-adv-x="691" 
d="M87 523h95l315 -365v365h107v-523h-92l-318 369v-369h-107v523zM288 677q-21 0 -35 -14.5t-18 -37.5l-41 10q6 60 33.5 94.5t66.5 34.5q23 0 65 -17t57 -17q21 0 35 14.5t17 37.5l42 -9q-6 -60 -33.5 -95t-66.5 -35q-23 0 -65 17t-57 17z" />
    <glyph glyph-name="ncommaaccent.sc" horiz-adv-x="691" 
d="M87 523h95l315 -365v365h107v-523h-92l-318 369v-369h-107v523zM387 -58q14 -26 14 -57q0 -29 -19 -56.5t-69 -65.5h-58q58 69 58 117q0 21 -14 42z" />
    <glyph glyph-name="eng.sc" horiz-adv-x="691" 
d="M604 523v-574q0 -87 -43 -136.5t-120 -49.5q-45 0 -84 18l-10 99q27 -26 71 -26q37 0 58 26.5t21 76.5v59l-303 353v-369h-107v523h95l315 -365v365h107z" />
    <glyph glyph-name="ograve.sc" horiz-adv-x="627" 
d="M471 260q0 79 -44.5 130.5t-112.5 51.5q-69 0 -113 -51t-44 -131q0 -79 44 -130.5t113 -51.5t113 51.5t44 130.5zM584 260q0 -122 -74.5 -198.5t-195.5 -76.5q-122 0 -196.5 76t-74.5 199q0 124 74.5 200t196.5 76q121 0 195.5 -76t74.5 -200zM318 617l-144 171h120
l76 -171h-52z" />
    <glyph glyph-name="oacute.sc" horiz-adv-x="627" 
d="M471 260q0 79 -44.5 130.5t-112.5 51.5q-69 0 -113 -51t-44 -131q0 -79 44 -130.5t113 -51.5t113 51.5t44 130.5zM584 260q0 -122 -74.5 -198.5t-195.5 -76.5q-122 0 -196.5 76t-74.5 199q0 124 74.5 200t196.5 76q121 0 195.5 -76t74.5 -200zM454 788l-144 -171h-51
l75 171h120z" />
    <glyph glyph-name="ocircumflex.sc" horiz-adv-x="627" 
d="M471 260q0 79 -44.5 130.5t-112.5 51.5q-69 0 -113 -51t-44 -131q0 -79 44 -130.5t113 -51.5t113 51.5t44 130.5zM584 260q0 -122 -74.5 -198.5t-195.5 -76.5q-122 0 -196.5 76t-74.5 199q0 124 74.5 200t196.5 76q121 0 195.5 -76t74.5 -200zM398 617l-84 96l-84 -96
h-57l105 171h72l105 -171h-57z" />
    <glyph glyph-name="otilde.sc" horiz-adv-x="627" 
d="M471 260q0 79 -44.5 130.5t-112.5 51.5q-69 0 -113 -51t-44 -131q0 -79 44 -130.5t113 -51.5t113 51.5t44 130.5zM584 260q0 -122 -74.5 -198.5t-195.5 -76.5q-122 0 -196.5 76t-74.5 199q0 124 74.5 200t196.5 76q121 0 195.5 -76t74.5 -200zM256 677q-21 0 -35 -14.5
t-18 -37.5l-41 10q6 60 33.5 94.5t66.5 34.5q23 0 65 -17t57 -17q21 0 35 14.5t17 37.5l42 -9q-6 -60 -33.5 -95t-66.5 -35q-23 0 -65 17t-57 17z" />
    <glyph glyph-name="odieresis.sc" horiz-adv-x="627" 
d="M471 260q0 79 -44.5 130.5t-112.5 51.5q-69 0 -113 -51t-44 -131q0 -79 44 -130.5t113 -51.5t113 51.5t44 130.5zM584 260q0 -122 -74.5 -198.5t-195.5 -76.5q-122 0 -196.5 76t-74.5 199q0 124 74.5 200t196.5 76q121 0 195.5 -76t74.5 -200zM215 757q26 0 42.5 -16
t16.5 -43q0 -26 -16 -42t-42 -16q-27 0 -43 16t-16 42q0 27 16 43t42 16zM411 757q26 0 42.5 -16t16.5 -43q0 -26 -16 -42t-42 -16q-27 0 -43 16t-16 42q0 27 16 43t42 16z" />
    <glyph glyph-name="omacron.sc" horiz-adv-x="627" 
d="M471 260q0 79 -44.5 130.5t-112.5 51.5q-69 0 -113 -51t-44 -131q0 -79 44 -130.5t113 -51.5t113 51.5t44 130.5zM584 260q0 -122 -74.5 -198.5t-195.5 -76.5q-122 0 -196.5 76t-74.5 199q0 124 74.5 200t196.5 76q121 0 195.5 -76t74.5 -200zM451 739v-81h-276v81h276z
" />
    <glyph glyph-name="obreve.sc" horiz-adv-x="627" 
d="M471 260q0 79 -44.5 130.5t-112.5 51.5q-69 0 -113 -51t-44 -131q0 -79 44 -130.5t113 -51.5t113 51.5t44 130.5zM584 260q0 -122 -74.5 -198.5t-195.5 -76.5q-122 0 -196.5 76t-74.5 199q0 124 74.5 200t196.5 76q121 0 195.5 -76t74.5 -200zM313 698q82 0 82 86h49
q0 -162 -131 -162q-130 0 -130 162h49q0 -86 81 -86z" />
    <glyph glyph-name="ohungarumlaut.sc" horiz-adv-x="627" 
d="M471 260q0 79 -44.5 130.5t-112.5 51.5q-69 0 -113 -51t-44 -131q0 -79 44 -130.5t113 -51.5t113 51.5t44 130.5zM584 260q0 -122 -74.5 -198.5t-195.5 -76.5q-122 0 -196.5 76t-74.5 199q0 124 74.5 200t196.5 76q121 0 195.5 -76t74.5 -200zM263 788h112l-119 -171h-50
zM405 788h113l-119 -171h-50z" />
    <glyph glyph-name="oslash.sc" horiz-adv-x="627" 
d="M584 260q0 -122 -74.5 -198.5t-195.5 -76.5q-79 0 -143 35l-22 -27l-66 19l36 47q-76 78 -76 201q0 124 74.5 200t196.5 76q83 0 145 -37l28 35l67 -18l-44 -57q74 -76 74 -199zM157 260q0 -67 32 -115l210 271q-37 26 -85 26q-69 0 -113 -51t-44 -131zM471 260
q0 66 -31 112l-209 -270q38 -24 83 -24q69 0 113 51.5t44 130.5z" />
    <glyph glyph-name="oe.sc" horiz-adv-x="773" 
d="M493 441v-131h192v-80h-192v-150h223v-80h-395q-123 0 -200.5 72t-77.5 189t77.5 189.5t200.5 72.5h385v-82h-213zM157 261q0 -82 50 -131.5t131 -49.5h42v362h-42q-82 0 -131.5 -49.5t-49.5 -131.5z" />
    <glyph glyph-name="racute.sc" horiz-adv-x="550" 
d="M87 0v523h204q89 0 137 -40t48 -117q0 -112 -110 -152l176 -214h-141l-143 195q-10 -1 -31 -1h-27v-194h-113zM200 437v-169h20q73 0 108 20.5t35 68.5q0 38 -25 59t-72 21h-66zM407 788l-144 -171h-51l75 171h120z" />
    <glyph glyph-name="rcaron.sc" horiz-adv-x="550" 
d="M87 0v523h204q89 0 137 -40t48 -117q0 -112 -110 -152l176 -214h-141l-143 195q-10 -1 -31 -1h-27v-194h-113zM200 437v-169h20q73 0 108 20.5t35 68.5q0 38 -25 59t-72 21h-66zM126 788h57l84 -96l84 96h57l-105 -171h-72z" />
    <glyph glyph-name="rcommaaccent.sc" horiz-adv-x="550" 
d="M87 0v523h204q89 0 137 -40t48 -117q0 -112 -110 -152l176 -214h-141l-143 195q-10 -1 -31 -1h-27v-194h-113zM200 437v-169h20q73 0 108 20.5t35 68.5q0 38 -25 59t-72 21h-66zM326 -58q14 -26 14 -57q0 -29 -19 -56.5t-69 -65.5h-58q58 69 58 117q0 21 -14 42z" />
    <glyph glyph-name="sacute.sc" horiz-adv-x="463" 
d="M49 139q79 -58 173 -58q86 0 86 61q0 27 -21.5 45t-76.5 36q-83 28 -118.5 65.5t-35.5 98.5q0 66 49 107.5t130 41.5q83 0 147 -27v-111q-71 50 -143 50q-39 0 -58 -15.5t-19 -40.5t20 -41.5t74 -35.5q86 -31 122 -69t36 -98q0 -78 -54.5 -119.5t-144.5 -41.5
q-98 0 -154 29zM373 788l-144 -171h-51l75 171h120z" />
    <glyph glyph-name="scaron.sc" horiz-adv-x="463" 
d="M49 139q79 -58 173 -58q86 0 86 61q0 27 -21.5 45t-76.5 36q-83 28 -118.5 65.5t-35.5 98.5q0 66 49 107.5t130 41.5q83 0 147 -27v-111q-71 50 -143 50q-39 0 -58 -15.5t-19 -40.5t20 -41.5t74 -35.5q86 -31 122 -69t36 -98q0 -78 -54.5 -119.5t-144.5 -41.5
q-98 0 -154 29zM92 788h57l84 -96l84 96h57l-105 -171h-72z" />
    <glyph glyph-name="scircumflex.sc" horiz-adv-x="463" 
d="M49 139q79 -58 173 -58q86 0 86 61q0 27 -21.5 45t-76.5 36q-83 28 -118.5 65.5t-35.5 98.5q0 66 49 107.5t130 41.5q83 0 147 -27v-111q-71 50 -143 50q-39 0 -58 -15.5t-19 -40.5t20 -41.5t74 -35.5q86 -31 122 -69t36 -98q0 -78 -54.5 -119.5t-144.5 -41.5
q-98 0 -154 29zM317 617l-84 96l-84 -96h-57l105 171h72l105 -171h-57z" />
    <glyph glyph-name="scedilla.sc" horiz-adv-x="463" 
d="M49 139q79 -58 173 -58q86 0 86 61q0 27 -21.5 45t-76.5 36q-83 28 -118.5 65.5t-35.5 98.5q0 66 49 107.5t130 41.5q83 0 147 -27v-111q-71 50 -143 50q-39 0 -58 -15.5t-19 -40.5t20 -41.5t74 -35.5q86 -31 122 -69t36 -98q0 -70 -44.5 -110.5t-120.5 -48.5l-23 -45
q10 2 21 2q41 0 65 -21t24 -56q0 -40 -33.5 -66.5t-85.5 -26.5q-53 0 -83 25l5 56q23 -26 72 -26q50 0 50 35q0 36 -53 36q-28 0 -45 -6l-2 3l41 88q-93 3 -141 29z" />
    <glyph glyph-name="uni0219.sc" horiz-adv-x="463" 
d="M49 139q79 -58 173 -58q86 0 86 61q0 27 -21.5 45t-76.5 36q-83 28 -118.5 65.5t-35.5 98.5q0 66 49 107.5t130 41.5q83 0 147 -27v-111q-71 50 -143 50q-39 0 -58 -15.5t-19 -40.5t20 -41.5t74 -35.5q86 -31 122 -69t36 -98q0 -78 -54.5 -119.5t-144.5 -41.5
q-98 0 -154 29zM275 -58q14 -26 14 -57q0 -29 -19 -56.5t-69 -65.5h-58q58 69 58 117q0 21 -14 42z" />
    <glyph glyph-name="tcaron.sc" horiz-adv-x="516" 
d="M314 0h-112v424h-189v99h490v-99h-189v-424zM117 788h57l84 -96l84 96h57l-105 -171h-72z" />
    <glyph glyph-name="uni0163.sc" horiz-adv-x="516" 
d="M314 0h-112v424h-189v99h490v-99h-189v-424zM302 -58q14 -26 14 -57q0 -29 -19 -56.5t-69 -65.5h-58q58 69 58 117q0 21 -14 42z" />
    <glyph glyph-name="uni021B.sc" horiz-adv-x="516" 
d="M314 0h-112v424h-189v99h490v-99h-189v-424zM302 -58q14 -26 14 -57q0 -29 -19 -56.5t-69 -65.5h-58q58 69 58 117q0 21 -14 42z" />
    <glyph glyph-name="tbar.sc" horiz-adv-x="516" 
d="M314 0h-112v215h-89v68h89v141h-189v99h490v-99h-189v-141h89v-68h-89v-215z" />
    <glyph glyph-name="ugrave.sc" horiz-adv-x="624" 
d="M81 523h112v-310q0 -63 33.5 -95t85.5 -32t85.5 32t33.5 95v310h113v-310q0 -114 -65.5 -171.5t-166.5 -57.5t-166 57.5t-65 171.5v310zM316 617l-144 171h120l76 -171h-52z" />
    <glyph glyph-name="uacute.sc" horiz-adv-x="624" 
d="M81 523h112v-310q0 -63 33.5 -95t85.5 -32t85.5 32t33.5 95v310h113v-310q0 -114 -65.5 -171.5t-166.5 -57.5t-166 57.5t-65 171.5v310zM452 788l-144 -171h-51l75 171h120z" />
    <glyph glyph-name="ucircumflex.sc" horiz-adv-x="624" 
d="M81 523h112v-310q0 -63 33.5 -95t85.5 -32t85.5 32t33.5 95v310h113v-310q0 -114 -65.5 -171.5t-166.5 -57.5t-166 57.5t-65 171.5v310zM396 617l-84 96l-84 -96h-57l105 171h72l105 -171h-57z" />
    <glyph glyph-name="utilde.sc" horiz-adv-x="624" 
d="M81 523h112v-310q0 -63 33.5 -95t85.5 -32t85.5 32t33.5 95v310h113v-310q0 -114 -65.5 -171.5t-166.5 -57.5t-166 57.5t-65 171.5v310zM254 677q-21 0 -35 -14.5t-18 -37.5l-41 10q6 60 33.5 94.5t66.5 34.5q23 0 65 -17t57 -17q21 0 35 14.5t17 37.5l42 -9
q-6 -60 -33.5 -95t-66.5 -35q-23 0 -65 17t-57 17z" />
    <glyph glyph-name="udieresis.sc" horiz-adv-x="624" 
d="M81 523h112v-310q0 -63 33.5 -95t85.5 -32t85.5 32t33.5 95v310h113v-310q0 -114 -65.5 -171.5t-166.5 -57.5t-166 57.5t-65 171.5v310zM214 757q26 0 42.5 -16t16.5 -43q0 -26 -16 -42t-42 -16q-27 0 -43 16t-16 42q0 27 16 43t42 16zM410 757q26 0 42.5 -16t16.5 -43
q0 -26 -16 -42t-42 -16q-27 0 -43 16t-16 42q0 27 16 43t42 16z" />
    <glyph glyph-name="umacron.sc" horiz-adv-x="624" 
d="M81 523h112v-310q0 -63 33.5 -95t85.5 -32t85.5 32t33.5 95v310h113v-310q0 -114 -65.5 -171.5t-166.5 -57.5t-166 57.5t-65 171.5v310zM450 739v-81h-276v81h276z" />
    <glyph glyph-name="ubreve.sc" horiz-adv-x="624" 
d="M81 523h112v-310q0 -63 33.5 -95t85.5 -32t85.5 32t33.5 95v310h113v-310q0 -114 -65.5 -171.5t-166.5 -57.5t-166 57.5t-65 171.5v310zM312 698q82 0 82 86h49q0 -162 -131 -162q-130 0 -130 162h49q0 -86 81 -86z" />
    <glyph glyph-name="uring.sc" horiz-adv-x="624" 
d="M81 523h112v-310q0 -63 33.5 -95t85.5 -32t85.5 32t33.5 95v310h113v-310q0 -114 -65.5 -171.5t-166.5 -57.5t-166 57.5t-65 171.5v310zM208 706q0 42 30.5 73t73.5 31q42 0 73 -31t31 -73q0 -43 -31 -73.5t-73 -30.5q-43 0 -73.5 30.5t-30.5 73.5zM256 706
q0 -23 16.5 -39.5t39.5 -16.5t39.5 16.5t16.5 39.5t-16.5 39.5t-39.5 16.5t-39.5 -16.5t-16.5 -39.5z" />
    <glyph glyph-name="uhungarumlaut.sc" horiz-adv-x="624" 
d="M81 523h112v-310q0 -63 33.5 -95t85.5 -32t85.5 32t33.5 95v310h113v-310q0 -114 -65.5 -171.5t-166.5 -57.5t-166 57.5t-65 171.5v310zM261 788h112l-119 -171h-50zM403 788h113l-119 -171h-50z" />
    <glyph glyph-name="uogonek.sc" horiz-adv-x="624" 
d="M471 -216q-36 -21 -86 -21q-51 0 -81 24.5t-30 68.5q0 34 19 64.5t66 68.5q-20 -5 -47 -5q-101 0 -166 57.5t-65 171.5v310h112v-310q0 -63 33.5 -95t85.5 -32t85.5 32t33.5 95v310h113v-310q0 -112 -70 -175q-64 -61 -85.5 -94.5t-21.5 -68.5q0 -16 10.5 -26.5
t29.5 -10.5q41 0 68 31h3z" />
    <glyph glyph-name="wgrave.sc" horiz-adv-x="835" 
d="M514 0l-99 246l-105 -246h-91l-215 523h121l144 -382l96 230l-60 152h119l138 -379l150 379h119l-224 -523h-93zM416 617l-144 171h120l76 -171h-52z" />
    <glyph glyph-name="wacute.sc" horiz-adv-x="835" 
d="M514 0l-99 246l-105 -246h-91l-215 523h121l144 -382l96 230l-60 152h119l138 -379l150 379h119l-224 -523h-93zM552 788l-144 -171h-51l75 171h120z" />
    <glyph glyph-name="wcircumflex.sc" horiz-adv-x="835" 
d="M514 0l-99 246l-105 -246h-91l-215 523h121l144 -382l96 230l-60 152h119l138 -379l150 379h119l-224 -523h-93zM496 617l-84 96l-84 -96h-57l105 171h72l105 -171h-57z" />
    <glyph glyph-name="wdieresis.sc" horiz-adv-x="835" 
d="M514 0l-99 246l-105 -246h-91l-215 523h121l144 -382l96 230l-60 152h119l138 -379l150 379h119l-224 -523h-93zM313 757q26 0 42.5 -16t16.5 -43q0 -26 -16 -42t-42 -16q-27 0 -43 16t-16 42q0 27 16 43t42 16zM509 757q26 0 42.5 -16t16.5 -43q0 -26 -16 -42t-42 -16
q-27 0 -43 16t-16 42q0 27 16 43t42 16z" />
    <glyph glyph-name="ygrave.sc" horiz-adv-x="570" 
d="M571 523l-236 -305v-218h-113v219l-222 304h132l148 -228l157 228h134zM289 617l-144 171h120l76 -171h-52z" />
    <glyph glyph-name="yacute.sc" horiz-adv-x="570" 
d="M571 523l-236 -305v-218h-113v219l-222 304h132l148 -228l157 228h134zM425 788l-144 -171h-51l75 171h120z" />
    <glyph glyph-name="ycircumflex.sc" horiz-adv-x="570" 
d="M571 523l-236 -305v-218h-113v219l-222 304h132l148 -228l157 228h134zM369 617l-84 96l-84 -96h-57l105 171h72l105 -171h-57z" />
    <glyph glyph-name="ydieresis.sc" horiz-adv-x="570" 
d="M571 523l-236 -305v-218h-113v219l-222 304h132l148 -228l157 228h134zM186 757q26 0 42.5 -16t16.5 -43q0 -26 -16 -42t-42 -16q-27 0 -43 16t-16 42q0 27 16 43t42 16zM382 757q26 0 42.5 -16t16.5 -43q0 -26 -16 -42t-42 -16q-27 0 -43 16t-16 42q0 27 16 43t42 16z
" />
    <glyph glyph-name="zacute.sc" horiz-adv-x="554" 
d="M519 0h-509l323 420h-294l10 103h481l-325 -421h331zM415 788l-144 -171h-51l75 171h120z" />
    <glyph glyph-name="zcaron.sc" horiz-adv-x="554" 
d="M519 0h-509l323 420h-294l10 103h481l-325 -421h331zM134 788h57l84 -96l84 96h57l-105 -171h-72z" />
    <glyph glyph-name="zdotaccent.sc" horiz-adv-x="554" 
d="M519 0h-509l323 420h-294l10 103h481l-325 -421h331zM274 769q29 0 47.5 -18.5t18.5 -47.5t-18 -47.5t-47 -18.5q-31 0 -49 18t-18 48q0 29 18.5 47.5t47.5 18.5z" />
    <glyph glyph-name="germandbls.sc" horiz-adv-x="630" 
d="M540 479l-94 -171q66 -10 103 -52t37 -105q0 -69 -51.5 -116t-136.5 -47q-74 0 -120 24l-10 106h3q42 -37 114 -37q45 0 70.5 22t25.5 56q0 38 -30 59t-88 21q-38 0 -58 -7l-1 3l107 192q-37 15 -77 15q-61 0 -100 -39t-39 -108v-295h-113v306q0 103 70.5 166.5
t181.5 63.5q115 0 206 -57z" />
    <glyph glyph-name="thorn.sc" horiz-adv-x="503" 
d="M200 0h-113v523h113v-89h57q104 0 161.5 -42t57.5 -122q0 -89 -59 -134t-171 -45h-46v-91zM200 354v-177h45q114 0 114 93q0 84 -118 84h-41z" />
    <glyph glyph-name="fi.sc" horiz-adv-x="734" 
d="M194 424v-133h197v-96h-197v-195h-107v523h335v-99h-228zM646 0h-113v523h113v-523z" />
    <glyph glyph-name="fl.sc" horiz-adv-x="922" 
d="M194 424v-133h197v-96h-197v-195h-107v523h335v-99h-228zM533 0v523h113v-424h266v-99h-379z" />
    <glyph glyph-name="ampersand.sc" horiz-adv-x="622" 
d="M322 216l1 97q135 8 262 48l-1 -94q-56 -6 -88 -10q7 -33 7 -59q0 -101 -61 -158t-171 -57q-97 0 -154.5 52t-57.5 131q0 102 98 143q-44 38 -44 96q0 56 51 92.5t129 36.5q63 0 105 -13l-13 -98q-36 21 -95 21q-44 0 -68 -18.5t-24 -49.5q0 -45 41 -81q-83 -42 -83 -113
q0 -46 32.5 -76t91.5 -30q66 0 102.5 32t36.5 89q0 23 -6 45q-57 -14 -91 -26z" />
    <glyph glyph-name="exclam.sc" horiz-adv-x="278" 
d="M137 101q26 0 42 -16t16 -42q0 -25 -15.5 -40.5t-41.5 -15.5q-27 0 -42.5 15t-15.5 41t15.5 42t41.5 16zM74 517l138 15q-13 -201 -57 -370l-39 5q-17 67 -29 166.5t-13 183.5z" />
    <glyph glyph-name="question.sc" horiz-adv-x="353" 
d="M116 101q26 0 42 -16t16 -42q0 -25 -15.5 -40.5t-41.5 -15.5t-41.5 15t-15.5 41t15.5 42t40.5 16zM155 166l-82 -15v133q72 3 111.5 27.5t39.5 67.5q0 36 -27 55t-75 19q-45 0 -76 -14l15 88q36 9 75 9q84 0 135 -38t51 -112q0 -66 -44.5 -106.5t-122.5 -54.5v-59z" />
    <glyph glyph-name="exclamdown.sc" horiz-adv-x="278" 
d="M141 421q-26 0 -42 16t-16 42q0 25 16 41t41 16q27 0 42.5 -15.5t15.5 -41.5t-15.5 -42t-41.5 -16zM204 3l-137 -15q11 194 57 369l38 -4q17 -67 29 -166.5t13 -183.5z" />
    <glyph glyph-name="questiondown.sc" horiz-adv-x="353" 
d="M237 421q-26 0 -42 16t-16 42q0 25 15.5 41t41.5 16t42 -15.5t16 -41.5t-15.5 -42t-41.5 -16zM198 357l83 15v-134q-73 -3 -112.5 -27.5t-39.5 -67.5q0 -36 27 -55t75 -19q45 0 76 14l-15 -88q-36 -9 -75 -9q-84 0 -135 38t-51 112q0 66 44.5 106.5t122.5 54.5v60z" />
    <glyph glyph-name="percent.sc" horiz-adv-x="700" 
d="M558 523l-340 -523h-76l339 523h77zM158 240q-56 0 -87.5 31t-31.5 89q0 62 44.5 112.5t106.5 50.5q56 0 87.5 -31t31.5 -90q0 -62 -45 -112t-106 -50zM190 464q-36 0 -60.5 -30.5t-24.5 -74.5q0 -60 54 -60q36 0 60 30.5t24 74.5q0 60 -53 60zM511 0q-56 0 -87.5 31
t-31.5 89q0 62 44.5 112.5t106.5 50.5q56 0 87 -31t31 -90q0 -62 -44.5 -112t-105.5 -50zM543 224q-36 0 -60.5 -30.5t-24.5 -74.5q0 -60 54 -60q36 0 59.5 30.5t23.5 74.5q0 60 -52 60z" />
    <glyph glyph-name="perthousand.sc" horiz-adv-x="1007" 
d="M560 523l-340 -523h-78l339 523h79zM158 240q-56 0 -87.5 31t-31.5 89q0 62 44.5 112.5t106.5 50.5q56 0 87.5 -31t31.5 -90q0 -62 -45 -112t-106 -50zM190 464q-36 0 -60.5 -30.5t-24.5 -74.5q0 -60 54 -60q36 0 60 30.5t24 74.5q0 60 -53 60zM512 0q-56 0 -87.5 31
t-31.5 89q0 62 44.5 112.5t106.5 50.5q56 0 87.5 -31t31.5 -90q0 -62 -45 -112t-106 -50zM544 224q-36 0 -60.5 -30.5t-24.5 -74.5q0 -60 54 -60q36 0 60 30.5t24 74.5q0 60 -53 60zM817 0q-56 0 -87 31t-31 89q0 63 44.5 113t105.5 50q56 0 87.5 -31t31.5 -90
q0 -62 -45 -112t-106 -50zM849 224q-36 0 -60 -30.5t-24 -74.5q0 -60 53 -60q36 0 60 30.5t24 74.5q0 60 -53 60z" />
    <glyph glyph-name="dollar.sc" horiz-adv-x="493" 
d="M273 614v-78q67 -4 127 -29v-105q-59 42 -127 51v-148q90 -30 126 -68.5t36 -98.5q0 -65 -43.5 -103.5t-118.5 -47.5v-77h-59v74q-94 3 -150 36l-6 111q72 -56 156 -64v167q-84 28 -118.5 64t-34.5 96q0 54 42.5 94t110.5 47v79h59zM348 136q0 26 -17 44.5t-58 34.5v-148
q75 9 75 69zM148 395q0 -23 14.5 -39t51.5 -31v130q-66 -9 -66 -60z" />
    <glyph glyph-name="Euro.sc" horiz-adv-x="493" 
d="M14 294l18 57h46q22 88 88.5 136.5t164.5 48.5q82 0 142 -26l-27 -84q-42 25 -109 25q-121 0 -157 -100h241l-19 -57h-235q-1 -10 -1 -32q0 -20 1 -29h215l-19 -57h-184q38 -104 166 -104q74 0 127 48h3l-12 -104q-52 -29 -124 -29q-103 0 -171.5 49t-90.5 140h-74l18 57
h48q-1 9 -1 29q0 21 1 32h-55z" />
    <glyph glyph-name="cent.sc" horiz-adv-x="493" 
d="M402 609l-28 -111q50 -11 88 -38l-25 -96q-40 32 -85 43l-75 -301h3q107 0 178 77h3l-18 -119q-68 -49 -169 -49h-19l-26 -105h-66l28 115q-75 22 -117 81.5t-42 146.5q0 114 70 184t194 70h13l26 102h67zM127 253q0 -46 22.5 -82.5t64.5 -53.5l73 298
q-77 0 -118.5 -42.5t-41.5 -119.5z" />
    <glyph glyph-name="sterling.sc" horiz-adv-x="493" 
d="M370 303l-22 -72q-53 4 -125 6q7 -35 7 -59q0 -39 -10 -68q4 -2 21.5 -10.5t25 -11t22 -8t28 -7.5t27.5 -2q53 0 97 50h3l-4 -99q-41 -38 -93 -38q-32 0 -61.5 11t-59.5 28t-42 22q-46 -53 -91 -53q-25 0 -40.5 15.5t-15.5 39.5q0 32 34.5 56.5t84.5 24.5h3q4 22 4 38
q0 32 -13 69q-56 -4 -93 -11l21 76q16 2 48 4q-19 54 -19 91q0 62 44.5 101.5t119.5 39.5q74 0 146 -44l-24 -94q-58 50 -120 50q-38 0 -57.5 -18.5t-19.5 -49.5q0 -32 10 -72h11q85 0 153 -5z" />
    <glyph glyph-name="florin.sc" horiz-adv-x="493" 
d="M18 -47l2 97q25 -23 64 -23q38 0 60.5 36t32.5 119l9 71h-105v72h114l2 11q12 104 59.5 152t129.5 48q54 0 91 -27l-12 -83q-25 25 -63 25q-42 0 -63 -27.5t-30 -93.5l-1 -5h135v-72h-144l-12 -89q-30 -228 -189 -228q-48 0 -80 17z" />
    <glyph glyph-name="yen.sc" horiz-adv-x="493" 
d="M473 217v-67h-176v-150h-113v150h-165v67h165l-46 78h-119v68h79l-94 160h111l126 -237l136 237h113l-101 -160h84v-68h-127l-49 -78h176z" />
    <glyph glyph-name="uni20B9.sc" horiz-adv-x="493" 
d="M29 314l29 68h218q-19 73 -137 73h-110l29 68h400l-29 -68h-94q33 -29 41 -73h82l-29 -68h-55q-21 -90 -140 -129l175 -185h-148l-205 226v4q185 18 216 84h-243z" />
    <glyph glyph-name="uni20BA.sc" horiz-adv-x="493" 
d="M33 284v72l59 29v138h106v-95l121 54v-72l-121 -55v-67l121 55v-72l-121 -55v-125q7 -2 21 -2q61 0 106.5 36t63.5 105l88 -58q-26 -86 -96 -133.5t-168 -47.5q-72 0 -121 17v165l-59 -28v72l59 28v67z" />
    <glyph glyph-name="zero.onumprop" horiz-adv-x="642" 
d="M321 -15q-124 0 -198 72t-74 204q0 133 74 204t198 71t198 -71t74 -204q0 -132 -74 -204t-198 -72zM321 76q72 0 113.5 48t41.5 137q0 90 -41 137t-114 47t-114.5 -47.5t-41.5 -136.5t41.5 -137t114.5 -48z" />
    <glyph glyph-name="one.onumprop" horiz-adv-x="367" 
d="M260 0h-116v421l-112 -5l14 107h214v-523z" />
    <glyph glyph-name="two.onumprop" horiz-adv-x="503" 
d="M321 196q-46 -46 -124 -98h263l-11 -98h-410v84q114 70 193 146q42 41 58.5 69t16.5 61q0 35 -24.5 56t-68.5 21q-84 0 -152 -50l17 113q64 36 162 36q85 0 131 -43t46 -109q0 -51 -22 -93.5t-75 -94.5z" />
    <glyph glyph-name="three.onumprop" horiz-adv-x="519" 
d="M337 196q130 -44 130 -166q0 -101 -70 -158.5t-193 -57.5q-88 0 -159 27l-6 107q64 -34 154 -34q74 0 116 32t42 86q0 49 -37.5 78t-103.5 29q-78 0 -123 -12l19 110q34 -3 80 -3q72 0 112 29t40 83q0 41 -30 67t-81 26q-87 0 -146 -41l20 117q62 21 138 21q99 0 155 -48
t56 -127q0 -112 -113 -165z" />
    <glyph glyph-name="four.onumprop" horiz-adv-x="607" 
d="M365 -187v187h-333v79l323 444h118v-428h100v-95h-100v-187h-108zM133 95h232v317z" />
    <glyph glyph-name="five.onumprop" horiz-adv-x="487" 
d="M436 523l-15 -101h-233l-21 -159q12 2 27 2q116 0 182.5 -55t66.5 -146q0 -119 -94 -187.5t-263 -68.5q-31 0 -54 4l15 111q25 -5 66 -5q108 0 163.5 37.5t55.5 105.5q0 52 -42.5 84.5t-125.5 32.5q-59 0 -107 -13l44 358h335z" />
    <glyph glyph-name="six.onumprop" horiz-adv-x="607" 
d="M504 660q-138 -5 -223.5 -73.5t-116.5 -182.5q65 54 158 54q108 0 173 -62t65 -165q0 -104 -69.5 -174.5t-180.5 -70.5q-124 0 -192.5 80.5t-68.5 207.5q0 213 123 350t350 147zM297 376q-89 0 -148 -62q0 -6 -0.5 -17.5t-0.5 -17.5q0 -88 42.5 -140t115.5 -52
q60 0 98.5 41t38.5 105t-40 103.5t-106 39.5z" />
    <glyph glyph-name="seven.onumprop" horiz-adv-x="531" 
d="M48 523h449q-162 -416 -227 -710h-136q84 297 224 600l-342 -9z" />
    <glyph glyph-name="eight.onumprop" horiz-adv-x="607" 
d="M552 193q0 -86 -70 -146t-178 -60q-113 0 -181 55.5t-68 145.5q0 142 163 200q-75 37 -106 82t-31 105q0 79 64 138t165 59q105 0 165.5 -55t60.5 -134q0 -127 -137 -187q77 -38 115 -86t38 -117zM437 203q0 47 -34.5 81t-108.5 61q-131 -47 -131 -142q0 -49 38 -82.5
t97 -33.5q63 0 101 32.5t38 83.5zM193 571q0 -46 30.5 -77.5t97.5 -57.5q109 49 109 133q0 47 -32.5 77t-84.5 30q-53 0 -86.5 -30t-33.5 -75z" />
    <glyph glyph-name="nine.onumprop" horiz-adv-x="594" 
d="M198 -217l-78 96q213 85 282 210q-46 -16 -99 -16q-116 0 -188 61.5t-72 166.5q0 98 68.5 166.5t173.5 68.5q125 0 195.5 -78t70.5 -204q0 -159 -86 -273.5t-267 -197.5zM325 150q63 0 108 21q9 38 9 79q0 85 -43.5 135.5t-114.5 50.5q-56 0 -93 -38.5t-37 -97.5
q0 -66 46 -108t125 -42z" />
    <glyph glyph-name="zero.onumtab" 
d="M302 -15q-112 0 -179.5 72t-67.5 204t67 203.5t180 71.5q112 0 179.5 -71.5t67.5 -203.5t-67.5 -204t-179.5 -72zM302 76q63 0 99.5 48t36.5 137q0 90 -36 137t-100 47q-63 0 -99.5 -47.5t-36.5 -136.5t36.5 -137t99.5 -48z" />
    <glyph glyph-name="one.onumtab" 
d="M505 0h-393v98h139v323l-145 -5l14 107h246v-425h139v-98z" />
    <glyph glyph-name="two.onumtab" 
d="M371 186q-45 -41 -121 -88h273l-11 -98h-432v84q113 61 203 136q50 42 69.5 72.5t19.5 67.5q0 35 -26 56t-73 21q-88 0 -165 -51l17 109q71 41 176 41q88 0 135 -43t47 -109q0 -54 -26 -99t-86 -99z" />
    <glyph glyph-name="three.onumtab" 
d="M378 196q129 -44 129 -166q0 -101 -71.5 -158.5t-196.5 -57.5q-89 0 -159 27l-6 107q64 -34 154 -34q77 0 120.5 32t43.5 86q0 49 -39.5 78t-107.5 29q-78 0 -123 -12l19 110q34 -3 80 -3q74 0 115.5 29t41.5 83q0 41 -31 67t-85 26q-87 0 -146 -41l20 117q61 21 138 21
q102 0 159.5 -48.5t57.5 -127.5q0 -110 -113 -164z" />
    <glyph glyph-name="four.onumtab" 
d="M357 -187v187h-322v79l323 444h107v-428h100v-95h-100v-187h-108zM130 95h227v310z" />
    <glyph glyph-name="five.onumtab" 
d="M493 523l-14 -101h-253l-21 -160q15 3 43 3q118 0 185.5 -55t67.5 -146q0 -119 -96.5 -187.5t-270.5 -68.5q-39 0 -64 5l15 110q31 -5 76 -5q113 0 171 37.5t58 105.5q0 52 -45 84.5t-133 32.5q-65 0 -118 -13l45 358h354z" />
    <glyph glyph-name="six.onumtab" 
d="M501 660q-135 -5 -220 -73.5t-115 -181.5q64 53 153 53q105 0 169.5 -62t64.5 -165q0 -104 -68.5 -174.5t-177.5 -70.5q-122 0 -189 80.5t-67 207.5q0 213 122 350t346 147zM294 376q-87 0 -143 -62q-1 -11 -1 -35q0 -88 41 -140t113 -52q58 0 95 41t37 105t-39 103.5
t-103 39.5z" />
    <glyph glyph-name="seven.onumtab" 
d="M73 523h460q-165 -426 -227 -710h-135q84 297 224 600l-353 -9z" />
    <glyph glyph-name="eight.onumtab" 
d="M546 193q0 -86 -68.5 -146t-174.5 -60q-111 0 -178 55.5t-67 145.5q0 142 159 200q-73 37 -103 82t-30 105q0 79 63 138t162 59q102 0 161.5 -55t59.5 -134q0 -127 -134 -187q75 -38 112.5 -86.5t37.5 -116.5zM430 203q0 47 -33 81t-104 62q-127 -46 -127 -143
q0 -49 37 -82.5t94 -33.5q60 0 96.5 33t36.5 83zM196 571q0 -46 29 -77.5t93 -57.5q106 48 106 133q0 47 -31.5 77t-81.5 30q-51 0 -83 -30t-32 -75z" />
    <glyph glyph-name="nine.onumtab" 
d="M203 -217l-78 96q213 85 282 210q-46 -16 -99 -16q-116 0 -188 61.5t-72 166.5q0 98 68.5 166.5t173.5 68.5q125 0 195.5 -78t70.5 -204q0 -159 -86 -273.5t-267 -197.5zM330 150q63 0 108 21q9 38 9 79q0 85 -43.5 135.5t-114.5 50.5q-56 0 -93 -38.5t-37 -97.5
q0 -66 46 -108t125 -42z" />
    <glyph glyph-name="zero.prop" horiz-adv-x="691" 
d="M342 -16q-130 0 -204 103.5t-74 291.5t78 288.5t207 100.5q134 0 206 -99t72 -292q0 -186 -77 -289.5t-208 -103.5zM342 84q170 0 170 297q0 144 -43 217.5t-123 73.5q-79 0 -122.5 -73.5t-43.5 -215.5q0 -145 42.5 -222t119.5 -77z" />
    <glyph glyph-name="one.prop" horiz-adv-x="418" 
d="M286 0h-115v651l-125 -13l20 114h220v-752z" />
    <glyph glyph-name="two.prop" horiz-adv-x="590" 
d="M94 718q86 47 199 47q102 0 163 -57t61 -146q0 -67 -24.5 -121.5t-81.5 -123.5q-80 -96 -209 -215h346l-12 -102h-498v53q71 66 155 157t136 159q72 91 72 165q0 54 -35 87.5t-102 33.5q-102 0 -195 -68z" />
    <glyph glyph-name="three.prop" horiz-adv-x="572" 
d="M372 396q139 -51 139 -185q0 -105 -75.5 -164.5t-207.5 -59.5q-88 0 -159 27l-6 114q64 -34 154 -34q83 0 130 33.5t47 90.5q0 56 -42 88.5t-118 32.5q-75 0 -132 -12l26 112q36 -3 82 -3q80 0 125.5 32t45.5 91q0 46 -34.5 75.5t-93.5 29.5q-90 0 -154 -41l21 119
q66 23 143 23q108 0 169.5 -52t61.5 -137q0 -121 -122 -180z" />
    <glyph glyph-name="four.prop" horiz-adv-x="668" 
d="M410 0v212h-381v87l368 453h122v-443h100v-97h-100v-212h-109zM134 309h276v339z" />
    <glyph glyph-name="five.prop" horiz-adv-x="598" 
d="M526 752l-14 -101h-303l-22 -168q7 1 32 1q141 0 222 -66t81 -175q0 -137 -104.5 -213.5t-295.5 -76.5q-27 0 -57 5l10 110q33 -6 74 -6q126 0 194 46t68 129q0 70 -56.5 112.5t-166.5 42.5q-57 0 -112 -11l46 371h404z" />
    <glyph glyph-name="six.prop" horiz-adv-x="639" 
d="M531 666q-143 -5 -232.5 -74t-120.5 -184q70 54 167 54q110 0 177 -64t67 -170q0 -104 -73.5 -173t-185.5 -69q-129 0 -199 81.5t-70 215.5q0 213 127.5 350t361.5 147zM320 379q-94 0 -157 -60q-1 -12 -1 -36q0 -90 45 -142.5t123 -52.5q64 0 105 40t41 102
q0 67 -43 108t-113 41z" />
    <glyph glyph-name="seven.prop" horiz-adv-x="560" 
d="M53 752h474q-152 -423 -217 -752h-139q99 367 218 642l-373 -9z" />
    <glyph glyph-name="eight.prop" horiz-adv-x="619" 
d="M558 193q0 -86 -70 -146t-178 -60q-113 0 -181 55.5t-68 145.5q0 142 163 200q-75 37 -106 82t-31 105q0 79 64 138t165 59q105 0 165.5 -55t60.5 -134q0 -127 -137 -187q77 -38 115 -86t38 -117zM443 203q0 47 -34.5 81t-108.5 61q-131 -47 -131 -142q0 -49 38 -82.5
t97 -33.5q63 0 101 32.5t38 83.5zM199 571q0 -46 30.5 -77.5t97.5 -57.5q109 49 109 133q0 47 -32.5 77t-84.5 30q-53 0 -86.5 -30t-33.5 -75z" />
    <glyph glyph-name="nine.prop" horiz-adv-x="635" 
d="M224 -26l-81 96q230 90 298 249q-53 -24 -115 -24q-123 0 -199 64t-76 172q0 101 70.5 170.5t179.5 69.5q129 0 201 -83t72 -218q0 -168 -85 -288.5t-265 -207.5zM348 373q68 0 116 24q6 35 6 73q0 91 -47.5 145.5t-125.5 54.5q-59 0 -97 -39.5t-38 -100.5
q0 -68 50.5 -112.5t135.5 -44.5z" />
    <glyph glyph-name="ampersand.salt" horiz-adv-x="773" 
d="M618 356l101 -36q-41 -108 -105 -185l124 -135h-137l-60 65q-102 -78 -235 -78q-116 0 -181.5 56.5t-65.5 153.5q0 66 36 116t125 104q-46 55 -66.5 98t-20.5 88q0 73 54.5 125t139.5 52q88 0 138.5 -48t50.5 -118q0 -59 -34.5 -106.5t-119.5 -99.5l182 -198
q51 64 74 146zM316 88q82 0 156 53l-196 215q-58 -39 -81.5 -72t-23.5 -73q0 -58 37.5 -90.5t107.5 -32.5zM237 605q0 -33 14.5 -62.5t56.5 -75.5q63 39 85 70.5t22 73.5q0 34 -24 58.5t-63 24.5q-42 0 -66.5 -24.5t-24.5 -64.5z" />
    <glyph glyph-name="comma.salt" horiz-adv-x="257" 
d="M218 112l-118 -239h-80l93 239h105z" />
    <glyph glyph-name="semicolon.salt" horiz-adv-x="254" 
d="M126 490q30 0 48.5 -18.5t18.5 -47.5t-18 -47.5t-48 -18.5t-48 18t-18 48q0 29 18 47.5t47 18.5zM189 112l-118 -239h-80l93 239h105z" />
    <glyph glyph-name="quoteleft.salt" horiz-adv-x="228" 
d="M25 523l118 239h79l-93 -239h-104z" />
    <glyph glyph-name="quoteright.salt" horiz-adv-x="228" 
d="M220 762l-118 -239h-80l93 239h105z" />
    <glyph glyph-name="quotesinglbase.salt" horiz-adv-x="257" 
d="M218 112l-118 -239h-80l93 239h105z" />
    <glyph glyph-name="quotedblleft.salt" horiz-adv-x="378" 
d="M194 523l118 239h79l-93 -239h-104zM19 523l118 239h79l-93 -239h-104z" />
    <glyph glyph-name="quotedblright.salt" horiz-adv-x="378" 
d="M392 762l-118 -239h-80l93 239h105zM218 762l-118 -239h-80l93 239h105z" />
    <glyph glyph-name="quotedblbase.salt" horiz-adv-x="435" 
d="M392 112l-118 -239h-80l93 239h105zM218 112l-118 -239h-80l93 239h105z" />
    <glyph glyph-name="A.salt" horiz-adv-x="773" 
d="M641 0l-99 217h-313l-96 -217h-129l382 791h4l379 -791h-128zM383 575l-119 -268h242z" />
    <glyph glyph-name="G.salt" horiz-adv-x="773" 
d="M443 677q-124 0 -197.5 -81.5t-73.5 -212.5q0 -133 73.5 -212t194.5 -79q94 0 152 47v159h-170v108h290v-331q-113 -88 -278 -88q-170 0 -276.5 108.5t-106.5 286.5q0 169 106.5 286t283.5 117q140 0 243 -68l-13 -134h-3q-88 94 -225 94z" />
    <glyph glyph-name="J.salt" horiz-adv-x="456" 
d="M366 772v-511q0 -127 -68 -196.5t-185 -69.5q-53 0 -90 15l-9 124q39 -35 96 -35q65 0 102.5 43.5t37.5 125.5v504h116z" />
    <glyph glyph-name="M.salt" horiz-adv-x="993" 
d="M801 795l137 -795h-116l-72 460l-246 -488h-5l-254 491l-74 -463h-116l139 793h4l302 -591l297 593h4z" />
    <glyph glyph-name="N.salt" horiz-adv-x="856" 
d="M96 0v791h4l545 -547v528h115v-799h-4l-544 548v-521h-116z" />
    <glyph glyph-name="V.salt" horiz-adv-x="725" 
d="M4 772h134l219 -539l230 539h133l-363 -800h-4z" />
    <glyph glyph-name="W.salt" horiz-adv-x="1101" 
d="M4 772h129l197 -518l222 544h4l203 -547l209 521h128l-335 -805h-4l-205 534l-228 -534h-4z" />
    <glyph glyph-name="a.sc.salt" horiz-adv-x="571" 
d="M448 0l-61 137h-200l-64 -137h-120l288 551h4l273 -551h-120zM290 369l-72 -152h141z" />
    <glyph glyph-name="g.sc.salt" horiz-adv-x="584" 
d="M330 440q-78 0 -125.5 -50.5t-47.5 -129.5q0 -83 47.5 -131t124.5 -48q57 0 91 30v91h-103v92h214v-232q-86 -75 -213 -75q-121 0 -198 74.5t-77 199.5q0 119 77.5 197t206.5 78q108 0 183 -50l-20 -109h-3q-60 63 -157 63z" />
    <glyph glyph-name="j.sc.salt" horiz-adv-x="395" 
d="M316 523v-308q0 -103 -55 -162.5t-151 -59.5q-56 0 -90 17l-8 116q34 -31 81 -31q50 0 80 34.5t30 97.5v296h113z" />
    <glyph glyph-name="m.sc.salt" horiz-adv-x="731" 
d="M597 550l88 -550h-110l-38 256l-167 -285h-3l-172 289l-39 -260h-110l90 549h3l229 -387l225 388h4z" />
    <glyph glyph-name="n.sc.salt" horiz-adv-x="679" 
d="M589 -27l-389 336v-309h-113v543h3l389 -337v317h113v-550h-3z" />
    <glyph glyph-name="v.sc.salt" horiz-adv-x="531" 
d="M4 523h119l140 -327l144 327h120l-263 -551h-4z" />
    <glyph glyph-name="w.sc.salt" horiz-adv-x="790" 
d="M544 -32l-149 332l-163 -332h-4l-224 555h114l122 -314l156 334h4l142 -336l130 316h114l-238 -555h-4z" />
    <glyph glyph-name="a.salt" horiz-adv-x="605" 
d="M535 12l-109 -29q-8 25 -10 51q-61 -47 -145 -47q-105 0 -166 71t-61 180q0 122 71.5 196t187.5 74q71 0 129 -33l92 14v-375q0 -58 11 -102zM297 78q78 0 117 47v258q-37 32 -100 32q-73 0 -114.5 -47t-41.5 -129q0 -72 37.5 -116.5t101.5 -44.5z" />
    <glyph glyph-name="e.salt" horiz-adv-x="549" 
d="M498 232l-353 -10q7 -71 50.5 -108.5t113.5 -37.5q104 0 173 70h4l-11 -107q-63 -56 -178 -56q-113 0 -183 65t-70 193q0 112 67.5 189t174.5 77q99 0 157.5 -59.5t58.5 -157.5q0 -37 -4 -58zM284 422q-55 0 -91.5 -36.5t-45.5 -99.5l256 7q0 58 -30.5 93.5t-88.5 35.5z
" />
    <glyph glyph-name="g.salt" horiz-adv-x="608" 
d="M88 -191l-6 114q69 -69 181 -69q154 0 154 141v33q-60 -42 -140 -42q-105 0 -169 68.5t-64 184.5q0 121 72.5 195t191.5 74q71 0 130 -27l89 14v-499q0 -106 -68 -169.5t-189 -63.5q-114 0 -182 46zM305 78q73 0 112 38v279q-37 20 -94 20q-78 0 -121.5 -46.5
t-43.5 -127.5q0 -76 39.5 -119.5t107.5 -43.5z" />
    <glyph glyph-name="v.salt" horiz-adv-x="495" 
d="M4 490h118l117 -307l135 307h117l-257 -522h-4z" />
    <glyph glyph-name="w.salt" horiz-adv-x="777" 
d="M4 490h117l108 -299l157 327h4l140 -328l127 300h116l-242 -530h-4l-144 323l-161 -330h-4z" />
    <glyph glyph-name="ae.salt" horiz-adv-x="823" 
d="M773 234l-338 -9q5 -71 46.5 -108.5t109.5 -37.5q101 0 166 69h3l-11 -107q-62 -55 -172 -55q-131 0 -195 93q-95 -91 -215 -91q-63 0 -98 31.5t-35 85.5q0 117 147 160q63 18 149 24v36q0 87 -94 87q-84 0 -142 -55h-3v98q67 49 164 49q116 0 152 -79q61 79 161 79
q96 0 152 -59t56 -157q0 -32 -3 -54zM566 419q-51 0 -86 -35.5t-44 -98.5l241 6q0 59 -29 93.5t-82 34.5zM330 126v105q-74 -5 -122 -24q-60 -24 -60 -73q0 -62 64 -62q69 0 118 54z" />
    <glyph glyph-name="oe.salt" horiz-adv-x="909" 
d="M859 234l-338 -9q5 -72 46.5 -110.5t109.5 -38.5q102 0 165 69h4l-11 -107q-62 -55 -172 -55q-135 0 -194 98q-64 -98 -185 -98q-106 0 -173 72.5t-67 195.5q0 117 68 187t172 70q125 0 189 -102q61 101 181 101q96 0 152 -60t56 -159q0 -32 -3 -54zM284 74
q59 0 92.5 46.5t33.5 130.5q0 72 -35 119t-91 47t-91 -45t-35 -121q0 -80 33 -128.5t93 -48.5zM652 422q-52 0 -86.5 -37t-43.5 -100l241 6q0 60 -28.5 95.5t-82.5 35.5z" />
    <glyph glyph-name="Agrave.salt" horiz-adv-x="773" 
d="M641 0l-99 217h-313l-96 -217h-129l382 791h4l379 -791h-128zM383 575l-119 -268h242zM387 822l-136 141h122l76 -141h-62z" />
    <glyph glyph-name="Aacute.salt" horiz-adv-x="773" 
d="M641 0l-99 217h-313l-96 -217h-129l382 791h4l379 -791h-128zM383 575l-119 -268h242zM527 963l-137 -141h-61l75 141h123z" />
    <glyph glyph-name="Acircumflex.salt" horiz-adv-x="773" 
d="M641 0l-99 217h-313l-96 -217h-129l382 791h4l379 -791h-128zM383 575l-119 -268h242zM478 822l-89 78l-88 -78h-59l100 141h95l101 -141h-60z" />
    <glyph glyph-name="Atilde.salt" horiz-adv-x="773" 
d="M641 0l-99 217h-313l-96 -217h-129l382 791h4l379 -791h-128zM383 575l-119 -268h242zM325 863q-21 0 -36 -15t-17 -37l-41 9q6 60 32 95t63 35q25 0 70.5 -17t62.5 -17q22 0 35.5 14.5t16.5 37.5l41 -10q-5 -60 -31 -94.5t-63 -34.5q-25 0 -70.5 17t-62.5 17z" />
    <glyph glyph-name="Adieresis.salt" horiz-adv-x="773" 
d="M641 0l-99 217h-313l-96 -217h-129l382 791h4l379 -791h-128zM383 575l-119 -268h242zM281 956q27 0 44 -17t17 -44q0 -26 -16.5 -43t-43.5 -17q-28 0 -44.5 16.5t-16.5 43.5t16.5 44t43.5 17zM496 956q27 0 44 -17t17 -44q0 -26 -16.5 -43t-43.5 -17q-28 0 -44.5 16.5
t-16.5 43.5t16.5 44t43.5 17z" />
    <glyph glyph-name="Amacron.salt" horiz-adv-x="773" 
d="M641 0l-99 217h-313l-96 -217h-129l382 791h4l379 -791h-128zM383 575l-119 -268h242zM538 924v-75h-298v75h298z" />
    <glyph glyph-name="Abreve.salt" horiz-adv-x="773" 
d="M641 0l-99 217h-313l-96 -217h-129l382 791h4l379 -791h-128zM383 575l-119 -268h242zM388 892q77 0 82 74h49q0 -61 -31.5 -102.5t-99.5 -41.5q-69 0 -99.5 41t-30.5 103h49q5 -74 81 -74z" />
    <glyph glyph-name="Aring.salt" horiz-adv-x="773" 
d="M641 0l-99 217h-313l-96 -217h-129l382 791h4l379 -791h-128zM383 575l-119 -268h242zM287 908q0 42 30 72t72 30q41 0 71.5 -30t30.5 -72q0 -41 -30.5 -71.5t-71.5 -30.5q-42 0 -72 30.5t-30 71.5zM331 908q0 -23 17 -40.5t41 -17.5q23 0 40.5 17.5t17.5 40.5
q0 24 -17.5 41t-40.5 17q-24 0 -41 -17t-17 -41z" />
    <glyph glyph-name="Aogonek.salt" horiz-adv-x="773" 
d="M544 -144q0 35 22 67.5t75 76.5l-99 217h-313l-96 -217h-129l382 791h4l379 -791q-132 -44 -132 -125q0 -16 10.5 -26.5t30.5 -10.5q40 0 67 31h3l-7 -85q-35 -21 -86 -21t-81 24.5t-30 68.5zM383 575l-119 -268h242z" />
    <glyph glyph-name="Gcircumflex.salt" horiz-adv-x="773" 
d="M443 677q-124 0 -197.5 -81.5t-73.5 -212.5q0 -133 73.5 -212t194.5 -79q94 0 152 47v159h-170v108h290v-331q-113 -88 -278 -88q-170 0 -276.5 108.5t-106.5 286.5q0 169 106.5 286t283.5 117q140 0 243 -68l-13 -134h-3q-88 94 -225 94zM514 819l-89 78l-88 -78h-59
l100 141h95l101 -141h-60z" />
    <glyph glyph-name="Gbreve.salt" horiz-adv-x="773" 
d="M443 677q-124 0 -197.5 -81.5t-73.5 -212.5q0 -133 73.5 -212t194.5 -79q94 0 152 47v159h-170v108h290v-331q-113 -88 -278 -88q-170 0 -276.5 108.5t-106.5 286.5q0 169 106.5 286t283.5 117q140 0 243 -68l-13 -134h-3q-88 94 -225 94zM425 889q77 0 82 74h49
q0 -61 -32 -102.5t-99 -41.5q-69 0 -99.5 41t-30.5 103h49q5 -74 81 -74z" />
    <glyph glyph-name="Gdotaccent.salt" horiz-adv-x="773" 
d="M443 677q-124 0 -197.5 -81.5t-73.5 -212.5q0 -133 73.5 -212t194.5 -79q94 0 152 47v159h-170v108h290v-331q-113 -88 -278 -88q-170 0 -276.5 108.5t-106.5 286.5q0 169 106.5 286t283.5 117q140 0 243 -68l-13 -134h-3q-88 94 -225 94zM424 954q28 0 46 -18t18 -46
q0 -27 -17.5 -44.5t-45.5 -17.5q-29 0 -46 16.5t-17 45.5t17 46.5t45 17.5z" />
    <glyph glyph-name="Gcommaaccent.salt" horiz-adv-x="773" 
d="M443 677q-124 0 -197.5 -81.5t-73.5 -212.5q0 -133 73.5 -212t194.5 -79q94 0 152 47v159h-170v108h290v-331q-113 -88 -278 -88q-170 0 -276.5 108.5t-106.5 286.5q0 169 106.5 286t283.5 117q140 0 243 -68l-13 -134h-3q-88 94 -225 94zM476 -58q14 -26 14 -57
q0 -29 -19 -56.5t-69 -65.5h-58q58 69 58 117q0 21 -14 42z" />
    <glyph glyph-name="IJ.salt" horiz-adv-x="735" 
d="M212 0h-116v772h116v-772zM645 772v-511q0 -127 -68 -196.5t-185 -69.5q-53 0 -90 15l-9 124q39 -35 96 -35q65 0 102.5 43.5t37.5 125.5v504h116z" />
    <glyph glyph-name="Jcircumflex.salt" horiz-adv-x="456" 
d="M366 772v-511q0 -127 -68 -196.5t-185 -69.5q-53 0 -90 15l-9 124q39 -35 96 -35q65 0 102.5 43.5t37.5 125.5v504h116zM396 819l-89 78l-88 -78h-59l100 141h95l101 -141h-60z" />
    <glyph glyph-name="Nacute.salt" horiz-adv-x="856" 
d="M96 0v791h4l545 -547v528h115v-799h-4l-544 548v-521h-116zM551 960l-137 -141h-61l75 141h123z" />
    <glyph glyph-name="Ncaron.salt" horiz-adv-x="856" 
d="M96 0v791h4l545 -547v528h115v-799h-4l-544 548v-521h-116zM264 960h59l89 -79l88 79h60l-101 -141h-95z" />
    <glyph glyph-name="Ntilde.salt" horiz-adv-x="856" 
d="M96 0v791h4l545 -547v528h115v-799h-4l-544 548v-521h-116zM348 860q-21 0 -36 -15t-17 -37l-41 9q6 60 32 95t63 35q25 0 70.5 -17t62.5 -17q22 0 35.5 14.5t16.5 37.5l41 -10q-5 -60 -31 -94.5t-63 -34.5q-25 0 -70.5 17t-62.5 17z" />
    <glyph glyph-name="Ncommaaccent.salt" horiz-adv-x="856" 
d="M96 0v791h4l545 -547v528h115v-799h-4l-544 548v-521h-116zM477 -58q14 -26 14 -57q0 -29 -19 -56.5t-69 -65.5h-58q58 69 58 117q0 21 -14 42z" />
    <glyph glyph-name="Eng.salt" horiz-adv-x="856" 
d="M96 0v791h4l545 -547v528h115v-813q0 -91 -48 -143.5t-133 -52.5q-49 0 -93 21l-15 113q36 -32 86 -32q41 0 64.5 29t23.5 83v108l-433 436v-521h-116z" />
    <glyph glyph-name="Wgrave.salt" horiz-adv-x="1101" 
d="M4 772h129l197 -518l222 544h4l203 -547l209 521h128l-335 -805h-4l-205 534l-228 -534h-4zM551 822l-136 141h122l76 -141h-62z" />
    <glyph glyph-name="Wacute.salt" horiz-adv-x="1101" 
d="M4 772h129l197 -518l222 544h4l203 -547l209 521h128l-335 -805h-4l-205 534l-228 -534h-4zM691 963l-137 -141h-61l75 141h123z" />
    <glyph glyph-name="Wcircumflex.salt" horiz-adv-x="1101" 
d="M4 772h129l197 -518l222 544h4l203 -547l209 521h128l-335 -805h-4l-205 534l-228 -534h-4zM641 822l-89 78l-88 -78h-59l100 141h95l101 -141h-60z" />
    <glyph glyph-name="Wdieresis.salt" horiz-adv-x="1101" 
d="M4 772h129l197 -518l222 544h4l203 -547l209 521h128l-335 -805h-4l-205 534l-228 -534h-4zM444 956q27 0 44 -17t17 -44q0 -26 -16.5 -43t-43.5 -17q-28 0 -44.5 16.5t-16.5 43.5t16.5 44t43.5 17zM659 956q27 0 44 -17t17 -44q0 -26 -16.5 -43t-43.5 -17
q-28 0 -44.5 16.5t-16.5 43.5t16.5 44t43.5 17z" />
    <glyph glyph-name="agrave.sc.salt" horiz-adv-x="571" 
d="M448 0l-61 137h-200l-64 -137h-120l288 551h4l273 -551h-120zM290 369l-72 -152h141zM297 617l-144 171h120l76 -171h-52z" />
    <glyph glyph-name="aacute.sc.salt" horiz-adv-x="571" 
d="M448 0l-61 137h-200l-64 -137h-120l288 551h4l273 -551h-120zM290 369l-72 -152h141zM433 788l-144 -171h-51l75 171h120z" />
    <glyph glyph-name="acircumflex.sc.salt" horiz-adv-x="571" 
d="M448 0l-61 137h-200l-64 -137h-120l288 551h4l273 -551h-120zM290 369l-72 -152h141zM377 617l-84 96l-84 -96h-57l105 171h72l105 -171h-57z" />
    <glyph glyph-name="atilde.sc.salt" horiz-adv-x="571" 
d="M448 0l-61 137h-200l-64 -137h-120l288 551h4l273 -551h-120zM290 369l-72 -152h141zM235 677q-21 0 -35 -14.5t-18 -37.5l-41 10q6 60 33.5 94.5t66.5 34.5q23 0 65 -17t57 -17q21 0 35 14.5t17 37.5l42 -9q-6 -60 -33.5 -95t-66.5 -35q-23 0 -65 17t-57 17z" />
    <glyph glyph-name="adieresis.sc.salt" horiz-adv-x="571" 
d="M448 0l-61 137h-200l-64 -137h-120l288 551h4l273 -551h-120zM290 369l-72 -152h141zM195 757q26 0 42.5 -16t16.5 -43q0 -26 -16 -42t-42 -16q-27 0 -43 16t-16 42q0 27 16 43t42 16zM391 757q26 0 42.5 -16t16.5 -43q0 -26 -16 -42t-42 -16q-27 0 -43 16t-16 42
q0 27 16 43t42 16z" />
    <glyph glyph-name="amacron.sc.salt" horiz-adv-x="571" 
d="M448 0l-61 137h-200l-64 -137h-120l288 551h4l273 -551h-120zM290 369l-72 -152h141zM431 739v-81h-276v81h276z" />
    <glyph glyph-name="abreve.sc.salt" horiz-adv-x="571" 
d="M448 0l-61 137h-200l-64 -137h-120l288 551h4l273 -551h-120zM290 369l-72 -152h141zM293 698q82 0 82 86h49q0 -162 -131 -162q-130 0 -130 162h49q0 -86 81 -86z" />
    <glyph glyph-name="aring.sc.salt" horiz-adv-x="571" 
d="M448 0l-61 137h-200l-64 -137h-120l288 551h4l273 -551h-120zM290 369l-72 -152h141zM189 706q0 42 30.5 73t73.5 31q42 0 73 -31t31 -73q0 -43 -31 -73.5t-73 -30.5q-43 0 -73.5 30.5t-30.5 73.5zM237 706q0 -23 16.5 -39.5t39.5 -16.5t39.5 16.5t16.5 39.5t-16.5 39.5
t-39.5 16.5t-39.5 -16.5t-16.5 -39.5z" />
    <glyph glyph-name="aogonek.sc.salt" horiz-adv-x="571" 
d="M351 -144q0 35 21.5 67t75.5 77l-61 137h-200l-64 -137h-120l288 551h4l273 -551q-123 -56 -123 -125q0 -37 40 -37t67 31h3l-6 -85q-36 -21 -87 -21t-81 24.5t-30 68.5zM290 369l-72 -152h141z" />
    <glyph glyph-name="gcircumflex.sc.salt" horiz-adv-x="584" 
d="M330 440q-78 0 -125.5 -50.5t-47.5 -129.5q0 -83 47.5 -131t124.5 -48q57 0 91 30v91h-103v92h214v-232q-86 -75 -213 -75q-121 0 -198 74.5t-77 199.5q0 119 77.5 197t206.5 78q108 0 183 -50l-20 -109h-3q-60 63 -157 63zM394 617l-84 96l-84 -96h-57l105 171h72
l105 -171h-57z" />
    <glyph glyph-name="gbreve.sc.salt" horiz-adv-x="584" 
d="M330 440q-78 0 -125.5 -50.5t-47.5 -129.5q0 -83 47.5 -131t124.5 -48q57 0 91 30v91h-103v92h214v-232q-86 -75 -213 -75q-121 0 -198 74.5t-77 199.5q0 119 77.5 197t206.5 78q108 0 183 -50l-20 -109h-3q-60 63 -157 63zM309 698q82 0 82 86h49q0 -162 -131 -162
q-130 0 -130 162h49q0 -86 81 -86z" />
    <glyph glyph-name="gdotaccent.sc.salt" horiz-adv-x="584" 
d="M330 440q-78 0 -125.5 -50.5t-47.5 -129.5q0 -83 47.5 -131t124.5 -48q57 0 91 30v91h-103v92h214v-232q-86 -75 -213 -75q-121 0 -198 74.5t-77 199.5q0 119 77.5 197t206.5 78q108 0 183 -50l-20 -109h-3q-60 63 -157 63zM309 769q29 0 47.5 -18.5t18.5 -47.5
t-18 -47.5t-47 -18.5q-31 0 -49 18t-18 48q0 29 18.5 47.5t47.5 18.5z" />
    <glyph glyph-name="gcommaaccent.sc.salt" horiz-adv-x="584" 
d="M330 440q-78 0 -125.5 -50.5t-47.5 -129.5q0 -83 47.5 -131t124.5 -48q57 0 91 30v91h-103v92h214v-232q-86 -75 -213 -75q-121 0 -198 74.5t-77 199.5q0 119 77.5 197t206.5 78q108 0 183 -50l-20 -109h-3q-60 63 -157 63zM357 -58q14 -26 14 -57q0 -29 -19 -56.5
t-69 -65.5h-58q58 69 58 117q0 21 -14 42z" />
    <glyph glyph-name="ij.sc.salt" horiz-adv-x="649" 
d="M197 0h-113v523h113v-523zM570 523v-308q0 -103 -55 -162.5t-151 -59.5q-56 0 -90 17l-8 116q34 -31 81 -31q50 0 80 34.5t30 97.5v296h113z" />
    <glyph glyph-name="jcircumflex.sc.salt" horiz-adv-x="395" 
d="M316 523v-308q0 -103 -55 -162.5t-151 -59.5q-56 0 -90 17l-8 116q34 -31 81 -31q50 0 80 34.5t30 97.5v296h113zM343 617l-84 96l-84 -96h-57l105 171h72l105 -171h-57z" />
    <glyph glyph-name="nacute.sc.salt" horiz-adv-x="679" 
d="M589 -27l-389 336v-309h-113v543h3l389 -337v317h113v-550h-3zM468 788l-144 -171h-51l75 171h120z" />
    <glyph glyph-name="ncaron.sc.salt" horiz-adv-x="679" 
d="M589 -27l-389 336v-309h-113v543h3l389 -337v317h113v-550h-3zM187 788h57l84 -96l84 96h57l-105 -171h-72z" />
    <glyph glyph-name="ntilde.sc.salt" horiz-adv-x="679" 
d="M589 -27l-389 336v-309h-113v543h3l389 -337v317h113v-550h-3zM270 677q-21 0 -35 -14.5t-18 -37.5l-41 10q6 60 33.5 94.5t66.5 34.5q23 0 65 -17t57 -17q21 0 35 14.5t17 37.5l42 -9q-6 -60 -33.5 -95t-66.5 -35q-23 0 -65 17t-57 17z" />
    <glyph glyph-name="ncommaaccent.sc.salt" horiz-adv-x="679" 
d="M589 -27l-389 336v-309h-113v543h3l389 -337v317h113v-550h-3zM392 -58q14 -26 14 -57q0 -29 -19 -56.5t-69 -65.5h-58q58 69 58 117q0 21 -14 42z" />
    <glyph glyph-name="eng.sc.salt" horiz-adv-x="679" 
d="M479 -43v111l-279 241v-309h-113v543h3l389 -337v317h113v-574q0 -87 -44.5 -136.5t-123.5 -49.5q-44 0 -85 18l-10 99q27 -26 71 -26q37 0 58 26.5t21 76.5z" />
    <glyph glyph-name="wgrave.sc.salt" horiz-adv-x="790" 
d="M544 -32l-149 332l-163 -332h-4l-224 555h114l122 -314l156 334h4l142 -336l130 316h114l-238 -555h-4zM400 617l-144 171h120l76 -171h-52z" />
    <glyph glyph-name="wacute.sc.salt" horiz-adv-x="790" 
d="M544 -32l-149 332l-163 -332h-4l-224 555h114l122 -314l156 334h4l142 -336l130 316h114l-238 -555h-4zM536 788l-144 -171h-51l75 171h120z" />
    <glyph glyph-name="wcircumflex.sc.salt" horiz-adv-x="790" 
d="M544 -32l-149 332l-163 -332h-4l-224 555h114l122 -314l156 334h4l142 -336l130 316h114l-238 -555h-4zM480 617l-84 96l-84 -96h-57l105 171h72l105 -171h-57z" />
    <glyph glyph-name="wdieresis.sc.salt" horiz-adv-x="790" 
d="M544 -32l-149 332l-163 -332h-4l-224 555h114l122 -314l156 334h4l142 -336l130 316h114l-238 -555h-4zM298 757q26 0 42.5 -16t16.5 -43q0 -26 -16 -42t-42 -16q-27 0 -43 16t-16 42q0 27 16 43t42 16zM494 757q26 0 42.5 -16t16.5 -43q0 -26 -16 -42t-42 -16
q-27 0 -43 16t-16 42q0 27 16 43t42 16z" />
    <glyph glyph-name="agrave.salt" horiz-adv-x="605" 
d="M535 12l-109 -29q-8 25 -10 51q-61 -47 -145 -47q-105 0 -166 71t-61 180q0 122 71.5 196t187.5 74q71 0 129 -33l92 14v-375q0 -58 11 -102zM297 78q78 0 117 47v258q-37 32 -100 32q-73 0 -114.5 -47t-41.5 -129q0 -72 37.5 -116.5t101.5 -44.5zM304 584l-144 171h120
l76 -171h-52z" />
    <glyph glyph-name="aacute.salt" horiz-adv-x="605" 
d="M535 12l-109 -29q-8 25 -10 51q-61 -47 -145 -47q-105 0 -166 71t-61 180q0 122 71.5 196t187.5 74q71 0 129 -33l92 14v-375q0 -58 11 -102zM297 78q78 0 117 47v258q-37 32 -100 32q-73 0 -114.5 -47t-41.5 -129q0 -72 37.5 -116.5t101.5 -44.5zM440 755l-144 -171h-51
l75 171h120z" />
    <glyph glyph-name="acircumflex.salt" horiz-adv-x="605" 
d="M535 12l-109 -29q-8 25 -10 51q-61 -47 -145 -47q-105 0 -166 71t-61 180q0 122 71.5 196t187.5 74q71 0 129 -33l92 14v-375q0 -58 11 -102zM297 78q78 0 117 47v258q-37 32 -100 32q-73 0 -114.5 -47t-41.5 -129q0 -72 37.5 -116.5t101.5 -44.5zM384 584l-84 96
l-84 -96h-57l105 171h72l105 -171h-57z" />
    <glyph glyph-name="atilde.salt" horiz-adv-x="605" 
d="M535 12l-109 -29q-8 25 -10 51q-61 -47 -145 -47q-105 0 -166 71t-61 180q0 122 71.5 196t187.5 74q71 0 129 -33l92 14v-375q0 -58 11 -102zM297 78q78 0 117 47v258q-37 32 -100 32q-73 0 -114.5 -47t-41.5 -129q0 -72 37.5 -116.5t101.5 -44.5zM242 644
q-21 0 -35 -14.5t-18 -37.5l-41 10q6 60 33.5 94.5t66.5 34.5q23 0 65 -17t57 -17q21 0 35 14.5t17 37.5l42 -9q-6 -60 -33.5 -95t-66.5 -35q-23 0 -65 17t-57 17z" />
    <glyph glyph-name="adieresis.salt" horiz-adv-x="605" 
d="M535 12l-109 -29q-8 25 -10 51q-61 -47 -145 -47q-105 0 -166 71t-61 180q0 122 71.5 196t187.5 74q71 0 129 -33l92 14v-375q0 -58 11 -102zM297 78q78 0 117 47v258q-37 32 -100 32q-73 0 -114.5 -47t-41.5 -129q0 -72 37.5 -116.5t101.5 -44.5zM201 724q26 0 42.5 -16
t16.5 -43q0 -26 -16 -42t-42 -16q-27 0 -43 16t-16 42q0 27 16 43t42 16zM397 724q26 0 42.5 -16t16.5 -43q0 -26 -16 -42t-42 -16q-27 0 -43 16t-16 42q0 27 16 43t42 16z" />
    <glyph glyph-name="amacron.salt" horiz-adv-x="605" 
d="M535 12l-109 -29q-8 25 -10 51q-61 -47 -145 -47q-105 0 -166 71t-61 180q0 122 71.5 196t187.5 74q71 0 129 -33l92 14v-375q0 -58 11 -102zM297 78q78 0 117 47v258q-37 32 -100 32q-73 0 -114.5 -47t-41.5 -129q0 -72 37.5 -116.5t101.5 -44.5zM437 706v-81h-276v81
h276z" />
    <glyph glyph-name="abreve.salt" horiz-adv-x="605" 
d="M535 12l-109 -29q-8 25 -10 51q-61 -47 -145 -47q-105 0 -166 71t-61 180q0 122 71.5 196t187.5 74q71 0 129 -33l92 14v-375q0 -58 11 -102zM297 78q78 0 117 47v258q-37 32 -100 32q-73 0 -114.5 -47t-41.5 -129q0 -72 37.5 -116.5t101.5 -44.5zM299 665q82 0 82 86h49
q0 -162 -131 -162q-130 0 -130 162h49q0 -86 81 -86z" />
    <glyph glyph-name="aring.salt" horiz-adv-x="605" 
d="M535 12l-109 -29q-8 25 -10 51q-61 -47 -145 -47q-105 0 -166 71t-61 180q0 122 71.5 196t187.5 74q71 0 129 -33l92 14v-375q0 -58 11 -102zM297 78q78 0 117 47v258q-37 32 -100 32q-73 0 -114.5 -47t-41.5 -129q0 -72 37.5 -116.5t101.5 -44.5zM196 673q0 42 30.5 73
t73.5 31q42 0 73 -31t31 -73q0 -43 -31 -73.5t-73 -30.5q-43 0 -73.5 30.5t-30.5 73.5zM244 673q0 -23 16.5 -39.5t39.5 -16.5t39.5 16.5t16.5 39.5t-16.5 39.5t-39.5 16.5t-39.5 -16.5t-16.5 -39.5z" />
    <glyph glyph-name="aogonek.salt" horiz-adv-x="605" 
d="M535 12q-64 -41 -89.5 -72.5t-25.5 -64.5q0 -37 40 -37t67 31h3l-6 -85q-36 -21 -87 -21t-81 24.5t-30 68.5q0 35 21 67t74 77q-5 18 -5 34q-61 -47 -145 -47q-105 0 -166 71t-61 180q0 122 71.5 196t187.5 74q71 0 129 -33l92 14v-375q0 -58 11 -102zM297 78
q78 0 117 47v258q-37 32 -100 32q-73 0 -114.5 -47t-41.5 -129q0 -72 37.5 -116.5t101.5 -44.5z" />
    <glyph glyph-name="egrave.salt" horiz-adv-x="549" 
d="M498 232l-353 -10q7 -71 50.5 -108.5t113.5 -37.5q104 0 173 70h4l-11 -107q-63 -56 -178 -56q-113 0 -183 65t-70 193q0 112 67.5 189t174.5 77q99 0 157.5 -59.5t58.5 -157.5q0 -37 -4 -58zM284 422q-55 0 -91.5 -36.5t-45.5 -99.5l256 7q0 58 -30.5 93.5t-88.5 35.5z
M285 584l-144 171h120l76 -171h-52z" />
    <glyph glyph-name="eacute.salt" horiz-adv-x="549" 
d="M498 232l-353 -10q7 -71 50.5 -108.5t113.5 -37.5q104 0 173 70h4l-11 -107q-63 -56 -178 -56q-113 0 -183 65t-70 193q0 112 67.5 189t174.5 77q99 0 157.5 -59.5t58.5 -157.5q0 -37 -4 -58zM284 422q-55 0 -91.5 -36.5t-45.5 -99.5l256 7q0 58 -30.5 93.5t-88.5 35.5z
M421 755l-144 -171h-51l75 171h120z" />
    <glyph glyph-name="ecircumflex.salt" horiz-adv-x="549" 
d="M498 232l-353 -10q7 -71 50.5 -108.5t113.5 -37.5q104 0 173 70h4l-11 -107q-63 -56 -178 -56q-113 0 -183 65t-70 193q0 112 67.5 189t174.5 77q99 0 157.5 -59.5t58.5 -157.5q0 -37 -4 -58zM284 422q-55 0 -91.5 -36.5t-45.5 -99.5l256 7q0 58 -30.5 93.5t-88.5 35.5z
M365 584l-84 96l-84 -96h-57l105 171h72l105 -171h-57z" />
    <glyph glyph-name="edieresis.salt" horiz-adv-x="549" 
d="M498 232l-353 -10q7 -71 50.5 -108.5t113.5 -37.5q104 0 173 70h4l-11 -107q-63 -56 -178 -56q-113 0 -183 65t-70 193q0 112 67.5 189t174.5 77q99 0 157.5 -59.5t58.5 -157.5q0 -37 -4 -58zM284 422q-55 0 -91.5 -36.5t-45.5 -99.5l256 7q0 58 -30.5 93.5t-88.5 35.5z
M183 724q26 0 42.5 -16t16.5 -43q0 -26 -16 -42t-42 -16q-27 0 -43 16t-16 42q0 27 16 43t42 16zM379 724q26 0 42.5 -16t16.5 -43q0 -26 -16 -42t-42 -16q-27 0 -43 16t-16 42q0 27 16 43t42 16z" />
    <glyph glyph-name="emacron.salt" horiz-adv-x="549" 
d="M498 232l-353 -10q7 -71 50.5 -108.5t113.5 -37.5q104 0 173 70h4l-11 -107q-63 -56 -178 -56q-113 0 -183 65t-70 193q0 112 67.5 189t174.5 77q99 0 157.5 -59.5t58.5 -157.5q0 -37 -4 -58zM284 422q-55 0 -91.5 -36.5t-45.5 -99.5l256 7q0 58 -30.5 93.5t-88.5 35.5z
M419 706v-81h-276v81h276z" />
    <glyph glyph-name="ebreve.salt" horiz-adv-x="549" 
d="M498 232l-353 -10q7 -71 50.5 -108.5t113.5 -37.5q104 0 173 70h4l-11 -107q-63 -56 -178 -56q-113 0 -183 65t-70 193q0 112 67.5 189t174.5 77q99 0 157.5 -59.5t58.5 -157.5q0 -37 -4 -58zM284 422q-55 0 -91.5 -36.5t-45.5 -99.5l256 7q0 58 -30.5 93.5t-88.5 35.5z
M281 665q82 0 82 86h49q0 -162 -131 -162q-130 0 -130 162h49q0 -86 81 -86z" />
    <glyph glyph-name="edotaccent.salt" horiz-adv-x="549" 
d="M498 232l-353 -10q7 -71 50.5 -108.5t113.5 -37.5q104 0 173 70h4l-11 -107q-63 -56 -178 -56q-113 0 -183 65t-70 193q0 112 67.5 189t174.5 77q99 0 157.5 -59.5t58.5 -157.5q0 -37 -4 -58zM284 422q-55 0 -91.5 -36.5t-45.5 -99.5l256 7q0 58 -30.5 93.5t-88.5 35.5z
M281 736q29 0 47.5 -18.5t18.5 -47.5t-18 -47.5t-47 -18.5q-31 0 -49 18t-18 48q0 29 18.5 47.5t47.5 18.5z" />
    <glyph glyph-name="ecaron.salt" horiz-adv-x="549" 
d="M498 232l-353 -10q7 -71 50.5 -108.5t113.5 -37.5q104 0 173 70h4l-11 -107q-63 -56 -178 -56q-113 0 -183 65t-70 193q0 112 67.5 189t174.5 77q99 0 157.5 -59.5t58.5 -157.5q0 -37 -4 -58zM284 422q-55 0 -91.5 -36.5t-45.5 -99.5l256 7q0 58 -30.5 93.5t-88.5 35.5z
M140 755h57l84 -96l84 96h57l-105 -171h-72z" />
    <glyph glyph-name="eogonek.salt" horiz-adv-x="549" 
d="M486 146l-11 -107q-73 -55 -99.5 -90.5t-26.5 -73.5q0 -37 40 -37q41 0 67 31h3l-6 -85q-36 -21 -87 -21t-81 24.5t-30 68.5q0 61 74 128q-10 -1 -32 -1q-113 0 -183 65t-70 193q0 112 67.5 189t174.5 77q99 0 157.5 -59.5t58.5 -157.5q0 -36 -4 -57l-353 -10
q6 -71 50 -109t114 -38q104 0 173 70h4zM284 422q-55 0 -92 -38.5t-46 -100.5l257 7q0 60 -30.5 96t-88.5 36z" />
    </font>
</defs>
</svg>
