<?xml version="1.0" standalone="no"?>
<!DOCTYPE svg PUBLIC "-//W3C//DTD SVG 1.1//EN" "http://www.w3.org/Graphics/SVG/1.1/DTD/svg11.dtd" >
<svg xmlns="http://www.w3.org/2000/svg" xmlns:xlink="http://www.w3.org/1999/xlink" version="1.1">
<metadata>
Created by FontForge 20150318 at Fri Jun 19 11:00:57 2015
 By uniteet7
Copyright (c) 2013 Monotype GmbH.
</metadata>
<defs>
<font id="LinotypeMetroNovaProThin" horiz-adv-x="551" >
  <font-face 
    font-family="LinotypeMetroNovaProThin"
    font-weight="250"
    font-stretch="normal"
    units-per-em="1000"
    panose-1="2 12 3 4 2 2 3 2 2 3"
    ascent="770"
    descent="-230"
    x-height="475"
    cap-height="772"
    bbox="-193 -237 1066 992"
    underline-thickness="50"
    underline-position="-50"
    unicode-range="U+000D-FB02"
  />
<missing-glyph horiz-adv-x="493" 
d="M170 169l-20 -5v129q99 5 158 51.5t59 118.5q0 71 -48 109.5t-126 38.5q-34 0 -70 -13l9 25q29 8 61 8q87 0 141 -44t54 -124q0 -77 -60.5 -128.5t-157.5 -58.5v-107zM143 15q0 8 6 14t14 6q9 0 15 -6t6 -14q0 -9 -6 -15t-15 -6q-8 0 -14 6t-6 15zM0 -128v870h493v-870
h-493zM22 721v-828h449v828h-449z" />
    <glyph glyph-name=".notdef" horiz-adv-x="493" 
d="M170 169l-20 -5v129q99 5 158 51.5t59 118.5q0 71 -48 109.5t-126 38.5q-34 0 -70 -13l9 25q29 8 61 8q87 0 141 -44t54 -124q0 -77 -60.5 -128.5t-157.5 -58.5v-107zM143 15q0 8 6 14t14 6q9 0 15 -6t6 -14q0 -9 -6 -15t-15 -6q-8 0 -14 6t-6 15zM0 -128v870h493v-870
h-493zM22 721v-828h449v828h-449z" />
    <glyph glyph-name=".null" horiz-adv-x="0" 
 />
    <glyph glyph-name="nonmarkingreturn" horiz-adv-x="333" 
 />
    <glyph glyph-name="CR" unicode="&#xd;" horiz-adv-x="220" 
 />
    <glyph glyph-name="space" unicode=" " horiz-adv-x="220" 
 />
    <glyph glyph-name="exclam" unicode="!" horiz-adv-x="238" 
d="M112 766l25 12q-6 -379 -12 -554l-12 3q-1 144 -1 539zM97 16q0 10 6.5 16.5t16.5 6.5t16.5 -6.5t6.5 -16.5t-6.5 -16.5t-16.5 -6.5t-16.5 6.5t-6.5 16.5z" />
    <glyph glyph-name="quotedbl" unicode="&#x22;" horiz-adv-x="268" 
d="M196 549l-11 -2q-5 80 -5 197h21q0 -112 -5 -195zM83 549l-11 -2q-5 80 -5 197h21q0 -112 -5 -195z" />
    <glyph glyph-name="numbersign" unicode="#" horiz-adv-x="547" 
d="M95 494l4 19h81l62 239h22l-63 -239h202l62 239h22l-63 -239h84l-3 -19h-86l-62 -238h95l-4 -19h-96l-62 -237h-21l62 237h-202l-62 -237h-21l62 237h-69l3 19h71l62 238h-80zM196 494l-62 -238h202l62 238h-202z" />
    <glyph glyph-name="dollar" unicode="$" 
d="M273 839v-69q96 -1 174 -53v-27q-75 59 -174 61v-358l1 -1h3q215 -75 215 -227q0 -82 -60 -129.5t-159 -51.5v-134h-20v133q-128 2 -192 72l-3 33q74 -86 195 -86v377q-100 36 -143.5 83t-43.5 126q0 73 51.5 124.5t135.5 56.5v70h20zM471 165q0 136 -198 207v-370
q91 4 144.5 46t53.5 117zM87 588q0 -68 36 -110t130 -78v350q-75 -5 -120.5 -51t-45.5 -111z" />
    <glyph glyph-name="percent" unicode="%" horiz-adv-x="778" 
d="M633 752l-459 -752h-23l458 752h24zM185 400q-53 0 -84 33.5t-31 95.5q0 75 44.5 129t109.5 54q54 0 85 -33.5t31 -95.5q0 -76 -45 -129.5t-110 -53.5zM224 692q-56 0 -94.5 -49t-38.5 -115q0 -51 25 -79.5t69 -28.5q57 0 96 49t39 115q0 51 -25 79.5t-71 28.5zM553 40
q-53 0 -84 33.5t-31 95.5q0 75 44.5 129t109.5 54q54 0 85 -33.5t31 -95.5q0 -76 -45 -129.5t-110 -53.5zM592 332q-56 0 -94.5 -49t-38.5 -115q0 -51 25 -79.5t69 -28.5q57 0 96 49t39 115q0 51 -25 79.5t-71 28.5z" />
    <glyph glyph-name="ampersand" unicode="&#x26;" horiz-adv-x="771" 
d="M433 387l-9 18q25 17 82.5 24.5t127 18t116.5 33.5l7 -18q-45 -25 -137 -38q17 -65 17 -124q0 -153 -77 -235.5t-229 -82.5q-117 0 -187 71t-70 176q0 157 149 222q-69 56 -69 142q0 78 64.5 131t171.5 53q73 0 127 -19l-6 -21q-49 20 -121 20q-99 0 -157 -48t-58 -116
q0 -42 18.5 -75.5t66.5 -71.5q-165 -61 -165 -217q0 -97 64.5 -162t171.5 -65q143 0 214 77t71 220q0 59 -17 122l-28 -3.5t-29 -4t-25.5 -4t-26 -4.5t-21.5 -5t-20.5 -6.5t-15.5 -7.5z" />
    <glyph glyph-name="quotesingle" unicode="'" horiz-adv-x="155" 
d="M83 549l-11 -2q-5 80 -5 197h21q0 -112 -5 -195z" />
    <glyph glyph-name="parenleft" unicode="(" horiz-adv-x="331" 
d="M84 349q0 145 38 251t120 202h26q-85 -98 -124 -206.5t-39 -246.5t39 -246.5t124 -206.5h-26q-82 96 -120 202t-38 251z" />
    <glyph glyph-name="parenright" unicode=")" horiz-adv-x="331" 
d="M247 349q0 -145 -38 -251t-120 -202h-26q85 98 124 206.5t39 246.5t-39 246.5t-124 206.5h26q82 -96 120 -202t38 -251z" />
    <glyph glyph-name="asterisk" unicode="*" horiz-adv-x="451" 
d="M225 750q12 0 12 -17q0 -26 -6 -116h-11q-6 90 -6 116q0 17 11 17zM226 379q-12 0 -12 17q0 26 6 116h11q6 -90 6 -116q0 -17 -11 -17zM64 649q0 12 11 12q4 0 11 -4q13 -7 98 -63l-6 -10q-88 44 -103 53q-11 6 -11 12zM64 480q0 6 11 12q15 9 103 53l6 -10
q-85 -56 -98 -63q-7 -4 -11 -4q-11 0 -11 12zM387 480q0 -12 -11 -12q-4 0 -11 4q-13 7 -98 63l6 10q88 -44 103 -53q11 -6 11 -12zM387 649q0 -6 -11 -12q-15 -9 -103 -53l-6 10q85 56 98 63q7 4 11 4q11 0 11 -12z" />
    <glyph glyph-name="plus" unicode="+" 
d="M265 493h20v-225h224v-19h-224v-226h-20v226h-224v19h224v225z" />
    <glyph glyph-name="comma" unicode="," horiz-adv-x="225" 
d="M105 58q35 -31 35 -90q0 -66 -66 -113l-6 8q52 42 52 101q0 51 -32 77z" />
    <glyph glyph-name="hyphen" unicode="-" horiz-adv-x="324" 
d="M289 278v-19h-254v19h254z" />
    <glyph glyph-name="period" unicode="." horiz-adv-x="225" 
d="M89 16q0 10 6.5 16.5t16.5 6.5t16.5 -6.5t6.5 -16.5t-6.5 -16.5t-16.5 -6.5t-16.5 6.5t-6.5 16.5z" />
    <glyph glyph-name="slash" unicode="/" horiz-adv-x="397" 
d="M364 780l-310 -810h-21l309 810h22z" />
    <glyph glyph-name="zero" unicode="0" 
d="M277 -16q-104 0 -167.5 100.5t-63.5 290.5q0 192 62 292.5t167 100.5q103 0 167 -101t64 -291q0 -191 -62.5 -291.5t-166.5 -100.5zM277 4q95 0 151.5 96t56.5 276q0 179 -58 275.5t-152 96.5q-97 0 -152.5 -95.5t-55.5 -277.5q0 -180 57 -275.5t153 -95.5z" />
    <glyph glyph-name="one" unicode="1" 
d="M300 0h-21v733h-102l3 19h120v-752z" />
    <glyph glyph-name="two" unicode="2" 
d="M68 705q81 60 190 60q103 0 160.5 -56t57.5 -142q0 -64 -25.5 -117t-82.5 -122q-51 -63 -144.5 -156t-163.5 -153h429l-2 -19h-460v18q78 62 172.5 157.5t155.5 168.5q55 67 77.5 114.5t22.5 108.5q0 78 -51 128t-146 50q-108 0 -197 -71z" />
    <glyph glyph-name="three" unicode="3" 
d="M447 578q0 -65 -41 -118t-121 -71q87 -14 134 -64.5t47 -125.5q0 -95 -74.5 -153.5t-192.5 -58.5q-99 0 -157 30v24q65 -34 157 -34q111 0 178.5 54t67.5 138q0 80 -59 128t-168 48q-82 0 -130 -5l4 25q25 -1 86 -1q113 0 180.5 48.5t67.5 135.5q0 72 -51 119.5
t-143 47.5q-87 0 -144 -28l5 26q56 22 139 22q101 0 158 -53t57 -134z" />
    <glyph glyph-name="four" unicode="4" 
d="M413 0v265h-405v3l422 512h3v-496h79v-19h-79v-265h-20zM46 284h367v444z" />
    <glyph glyph-name="five" unicode="5" 
d="M471 752l-3 -19h-354l-34 -267q38 4 86 4q148 0 227.5 -64.5t79.5 -168.5q0 -129 -100 -202t-283 -73q-25 0 -32 1l2 20q8 -1 30 -1q174 0 268 67.5t94 187.5q0 97 -74 155t-213 58q-60 0 -108 -7l39 309h375z" />
    <glyph glyph-name="six" unicode="6" 
d="M480 751q-192 -16 -302 -130t-126 -277q93 98 231 98q107 0 173 -62t66 -167q0 -96 -65.5 -161.5t-171.5 -65.5q-121 0 -188.5 82t-67.5 227q0 89 28.5 170t83 147t143.5 108.5t201 51.5zM283 422q-136 0 -233 -105v-23q0 -136 61 -212t174 -76q97 0 156.5 59.5
t59.5 147.5q0 97 -59.5 153t-158.5 56z" />
    <glyph glyph-name="seven" unicode="7" 
d="M53 752h437q-72 -177 -133 -385t-87 -367h-20q26 158 86.5 363t125.5 370h-421z" />
    <glyph glyph-name="eight" unicode="8" 
d="M496 182q0 -82 -58.5 -138.5t-159.5 -56.5q-103 0 -163 53.5t-60 139.5q0 73 50.5 125t141.5 78q-85 32 -128.5 79t-43.5 125q0 76 58 128t143 52q90 0 143.5 -49.5t53.5 -127.5q0 -144 -166 -209q97 -36 143 -82t46 -117zM475 182q0 68 -46 109.5t-154 80.5
q-93 -23 -146 -73.5t-53 -118.5q0 -77 53.5 -125t148.5 -48q93 0 145 51t52 124zM96 587q0 -74 42 -116.5t142 -79.5q172 61 172 199q0 70 -47.5 113.5t-129.5 43.5q-76 0 -127.5 -46t-51.5 -114z" />
    <glyph glyph-name="nine" unicode="9" 
d="M151 -17l-11 17q155 70 238 163t102 220q-86 -72 -215 -72q-108 0 -175 64.5t-67 172.5q0 96 63 160t164 64q122 0 189.5 -82t67.5 -225q0 -329 -356 -482zM265 331q135 0 218 80q3 27 3 54q0 135 -61.5 211t-174.5 76q-93 0 -149.5 -58t-56.5 -146q0 -100 60.5 -158.5
t160.5 -58.5z" />
    <glyph glyph-name="colon" unicode=":" horiz-adv-x="225" 
d="M89 454q0 10 6.5 16.5t16.5 6.5t16.5 -6.5t6.5 -16.5t-6.5 -16.5t-16.5 -6.5t-16.5 6.5t-6.5 16.5zM89 16q0 10 6.5 16.5t16.5 6.5t16.5 -6.5t6.5 -16.5t-6.5 -16.5t-16.5 -6.5t-16.5 6.5t-6.5 16.5z" />
    <glyph glyph-name="semicolon" unicode=";" horiz-adv-x="225" 
d="M105 58q35 -31 35 -90q0 -66 -66 -113l-6 8q52 42 52 101q0 51 -32 77zM89 454q0 10 6.5 16.5t16.5 6.5t16.5 -6.5t6.5 -16.5t-6.5 -16.5t-16.5 -6.5t-16.5 6.5t-6.5 16.5z" />
    <glyph glyph-name="less" unicode="&#x3c;" 
d="M510 458l-452 -201l452 -200v-22l-470 209v27l470 209v-22z" />
    <glyph glyph-name="equal" unicode="=" 
d="M506 194v-19h-461v19h461zM506 342v-19h-461v19h461z" />
    <glyph glyph-name="greater" unicode="&#x3e;" 
d="M40 35v22l451 200l-451 201v22l470 -209v-27z" />
    <glyph glyph-name="question" unicode="?" horiz-adv-x="430" 
d="M110 212l-20 -6v158q125 7 199 65.5t74 149.5t-61 139.5t-161 48.5q-47 0 -82 -13l8 24q35 9 74 9q109 0 176 -54.5t67 -153.5q0 -95 -75.5 -159.5t-198.5 -73.5v-134zM81 16q0 10 6.5 16.5t16.5 6.5t16.5 -6.5t6.5 -16.5t-6.5 -16.5t-16.5 -6.5t-16.5 6.5t-6.5 16.5z
" />
    <glyph glyph-name="at" unicode="@" horiz-adv-x="881" 
d="M619 428l-58 -277q-5 -23 -5 -46q0 -62 62 -62q78 0 128 64.5t50 177.5q0 150 -101.5 241.5t-254.5 91.5q-156 0 -255 -114t-99 -279q0 -171 103.5 -270.5t268.5 -99.5q142 0 236 65l9 -20q-99 -65 -245 -65q-173 0 -283 105.5t-110 284.5q0 173 105 293t270 120
q161 0 269 -97.5t108 -255.5q0 -124 -57 -193t-142 -69q-82 0 -82 82q0 10 1 14q-25 -43 -66 -70.5t-88 -27.5q-65 0 -101 43t-36 121q0 112 62 188.5t147 76.5q49 0 81 -27.5t47 -70.5l16 76h20zM577 319q-31 111 -122 111q-76 0 -132 -71t-56 -174q0 -70 29.5 -107
t86.5 -37q93 0 159 118z" />
    <glyph glyph-name="A" unicode="A" horiz-adv-x="722" 
d="M12 0l348 770l23 5l327 -775h-21l-144 341h-358l-154 -341h-21zM372 750l-177 -390h342z" />
    <glyph glyph-name="B" unicode="B" horiz-adv-x="596" 
d="M502 589q0 -96 -93 -154q-27 -17 -58 -20q30 -1 60 -14q115 -48 115 -172q0 -103 -73.5 -166t-194.5 -63h-143v772h155q110 0 171 -51t61 -132zM135 405v-386h123q115 0 181 58.5t66 150.5q0 79 -58 128t-157 49h-155zM135 753v-329h159q85 0 136 49.5t51 116.5
q0 71 -54.5 117t-156.5 46h-135z" />
    <glyph glyph-name="C" unicode="C" horiz-adv-x="750" 
d="M677 715l-10 -24q-74 74 -229 74q-152 0 -254.5 -111t-102.5 -269q0 -172 97.5 -275t250.5 -103q154 0 256 90l-7 -34q-102 -76 -249 -76q-162 0 -265.5 110.5t-103.5 287.5q0 166 109 283t269 117q144 0 239 -70z" />
    <glyph glyph-name="D" unicode="D" horiz-adv-x="735" 
d="M248 0h-133v772h135q200 0 312.5 -103t112.5 -273q0 -190 -110 -293t-317 -103zM135 753v-734h114q196 0 300.5 98t104.5 279q0 161 -106 259t-298 98h-115z" />
    <glyph glyph-name="E" unicode="E" horiz-adv-x="562" 
d="M135 753v-337h321v-19h-321v-378h367v-19h-387v772h375v-19h-355z" />
    <glyph glyph-name="F" unicode="F" horiz-adv-x="547" 
d="M502 772v-19h-367v-320h341v-19h-341v-414h-20v772h387z" />
    <glyph glyph-name="G" unicode="G" horiz-adv-x="778" 
d="M698 344v-242q-109 -115 -268 -115q-162 0 -266 111.5t-104 288.5q0 174 102 286t262 112q150 0 250 -77l-8 -24q-97 81 -242 81q-152 0 -247.5 -107t-95.5 -271q0 -168 97.5 -274t251.5 -106q149 0 248 104v233h20z" />
    <glyph glyph-name="H" unicode="H" horiz-adv-x="757" 
d="M135 0h-20v772h20v-362h487v362h20v-772h-20v391h-487v-391z" />
    <glyph glyph-name="I" unicode="I" horiz-adv-x="250" 
d="M135 0h-20v772h20v-772z" />
    <glyph glyph-name="J" unicode="J" horiz-adv-x="247" 
d="M115 772h20v-654q0 -146 -23.5 -215.5t-68.5 -114.5l-54 -25l-4 8q73 48 101.5 122.5t28.5 224.5v654z" />
    <glyph glyph-name="K" unicode="K" horiz-adv-x="636" 
d="M585 0l-448 393l408 379h30l-407 -379l447 -393h-30zM135 0h-20v772h20v-772z" />
    <glyph glyph-name="L" unicode="L" horiz-adv-x="597" 
d="M115 0v772h20v-753h441v-19h-461z" />
    <glyph glyph-name="M" unicode="M" horiz-adv-x="970" 
d="M115 0v772h31l339 -746l339 746h31v-772h-20v747l-340 -747h-20l-340 748v-748h-20z" />
    <glyph glyph-name="N" unicode="N" horiz-adv-x="859" 
d="M724 772h20v-772h-30l-579 752v-752h-20v772h30l579 -753v753z" />
    <glyph glyph-name="O" unicode="O" horiz-adv-x="832" 
d="M751 386q0 167 -94 274t-241 107t-241 -107t-94 -274t94 -274t241 -107t241 107t94 274zM772 386q0 -175 -100 -288t-256 -113t-256 113t-100 288t100 288t256 113t256 -113t100 -288z" />
    <glyph glyph-name="P" unicode="P" horiz-adv-x="547" 
d="M135 0h-20v772h119q125 0 196.5 -55.5t71.5 -156.5q0 -111 -71 -168t-208 -57h-88v-335zM135 753v-399h88q258 0 258 206q0 93 -64 143t-183 50h-99z" />
    <glyph glyph-name="Q" unicode="Q" horiz-adv-x="833" 
d="M410 -1q-51 0 -99 17l-1 -2q28 -15 112 -65.5t124 -65.5q70 -27 134 -30l-8 -21q-72 6 -135 33q-60 26 -139.5 75t-106.5 62q-43 22 -86 38l18 23q-75 55 -119 146.5t-44 200.5q0 164 99 270.5t251 106.5q159 0 261 -109.5t102 -279.5q0 -175 -102 -287t-261 -112z
M752 398q0 162 -96 265.5t-246 103.5q-144 0 -236.5 -101t-92.5 -256q0 -164 97.5 -277.5t231.5 -113.5q150 0 246 107t96 272z" />
    <glyph glyph-name="R" unicode="R" horiz-adv-x="625" 
d="M115 0v772h165q114 0 176 -49.5t62 -141.5q0 -95 -54 -146t-162 -68l313 -367h-27l-309 364q-54 -6 -118 -6h-26v-358h-20zM135 753v-376h27q170 0 252.5 46.5t82.5 157.5q0 80 -55.5 126t-161.5 46h-145z" />
    <glyph glyph-name="S" unicode="S" horiz-adv-x="552" 
d="M61 69q64 -65 181 -65q99 0 158 46t59 129q0 137 -184 214q-110 47 -156 93.5t-46 129.5q0 72 53.5 121.5t140.5 49.5q85 0 152 -45v-30q-58 55 -152 55q-78 0 -125.5 -43.5t-47.5 -107.5q0 -71 38 -112t138 -85q109 -48 159.5 -106t50.5 -134q0 -92 -65.5 -143.5
t-172.5 -51.5q-53 0 -101.5 14.5t-75.5 38.5z" />
    <glyph glyph-name="T" unicode="T" horiz-adv-x="612" 
d="M316 0h-20v753h-288v19h596v-19h-288v-753z" />
    <glyph glyph-name="U" unicode="U" horiz-adv-x="741" 
d="M110 772h20v-496q0 -137 66 -203.5t174 -66.5t174.5 66t66.5 202v498h20v-498q0 -144 -72.5 -216t-188.5 -72t-188 72.5t-72 217.5v496z" />
    <glyph glyph-name="V" unicode="V" horiz-adv-x="706" 
d="M12 772h21l311 -750l329 750h21l-339 -772h-22z" />
    <glyph glyph-name="W" unicode="W" horiz-adv-x="1055" 
d="M719 0l-193 535l-203 -535h-22l-289 772h21l279 -745l204 535l-75 210h21l268 -745l292 745h21l-302 -772h-22z" />
    <glyph glyph-name="X" unicode="X" horiz-adv-x="709" 
d="M19 0l321 402l-284 370h25l272 -354l284 354h26l-297 -371l308 -401h-24l-297 385l-308 -385h-26z" />
    <glyph glyph-name="Y" unicode="Y" horiz-adv-x="665" 
d="M343 0h-20v352l-313 420h25l298 -400l297 400h25l-312 -421v-351z" />
    <glyph glyph-name="Z" unicode="Z" horiz-adv-x="712" 
d="M647 0h-629l596 753h-525l6 19h560l-598 -753h596z" />
    <glyph glyph-name="bracketleft" unicode="[" horiz-adv-x="331" 
d="M94 -104v906h166v-19h-146v-868h146v-19h-166z" />
    <glyph glyph-name="backslash" unicode="\" horiz-adv-x="391" 
d="M341 -30l-311 810h22l309 -810h-20z" />
    <glyph glyph-name="bracketright" unicode="]" horiz-adv-x="331" 
d="M237 802v-906h-166v19h146v868h-146v19h166z" />
    <glyph glyph-name="asciicircum" unicode="^" horiz-adv-x="438" 
d="M363 410l-144 300l-145 -300h-23l160 331h16l159 -331h-23z" />
    <glyph glyph-name="underscore" unicode="_" horiz-adv-x="500" 
d="M500 -71v-19h-500v19h500z" />
    <glyph glyph-name="grave" unicode="`" horiz-adv-x="148" 
d="M123 566l-115 142h29l103 -142h-17z" />
    <glyph glyph-name="a" unicode="a" horiz-adv-x="482" 
d="M99 405v25q60 55 150 55q70 0 105.5 -37.5t35.5 -106.5v-339l-20 -10v100q-88 -104 -195 -104q-56 0 -91 31t-35 84q0 88 109 135q84 36 212 48v55q0 124 -121 124q-88 0 -147 -60h-3zM370 121v145q-117 -8 -204 -47q-96 -43 -96 -116q0 -42 27.5 -68.5t77.5 -26.5
q108 0 195 113z" />
    <glyph glyph-name="b" unicode="b" horiz-adv-x="563" 
d="M244 -17q-80 0 -124 29l-20 -14v776l20 6v-349q71 62 161 62q96 0 159.5 -65.5t63.5 -175.5q0 -123 -70 -196t-190 -73zM281 473q-95 0 -161 -68v-369q46 -33 129 -33q108 0 171 68t63 181q0 99 -55 160t-147 61z" />
    <glyph glyph-name="c" unicode="c" horiz-adv-x="514" 
d="M470 77l-7 -34q-64 -60 -163 -60q-110 0 -173.5 66t-63.5 181q0 114 66.5 188.5t181.5 74.5q91 0 155 -46l-8 -23q-59 49 -147 49q-106 0 -166.5 -68t-60.5 -175q0 -99 56 -163t160 -64q98 0 167 74h3z" />
    <glyph glyph-name="d" unicode="d" horiz-adv-x="563" 
d="M443 -8v41q-74 -50 -161 -50q-103 0 -163 72t-60 181q0 111 70 184t171 73q75 0 143 -38v319l20 6v-778zM282 3q87 0 161 55v372q-63 43 -143 43q-93 0 -156.5 -67t-63.5 -170q0 -101 54.5 -167t147.5 -66z" />
    <glyph glyph-name="e" unicode="e" horiz-adv-x="501" 
d="M269 222q-88 -21 -193 -33q6 -84 59 -135t137 -51q100 0 157 73h3l2 -27q-64 -66 -162 -66q-105 0 -161 65t-56 162q0 111 71.5 197t179.5 86q65 0 101 -34.5t36 -88.5q0 -108 -174 -148zM306 473q-99 0 -164.5 -80.5t-65.5 -182.5q98 10 188 31q87 21 122.5 53t35.5 76
t-30 73.5t-86 29.5z" />
    <glyph glyph-name="f" unicode="f" horiz-adv-x="320" 
d="M154 475h150v-19h-150v-456h-20v456h-113v19h113v93q0 74 23 115.5t78 72.5l76 24v-15q-93 -29 -125 -73.5t-32 -123.5v-93z" />
    <glyph glyph-name="g" unicode="g" horiz-adv-x="528" 
d="M255 483q63 0 112 -32q45 58 111 58v-21q-55 0 -95 -49q53 -47 53 -113q0 -58 -41.5 -95t-111.5 -50q-21 -4 -58 -9t-51 -8q-73 -16 -73 -47q0 -32 76 -50q24 -6 96 -15.5t93 -14.5q52 -12 76 -38.5t24 -70.5q0 -69 -66 -117t-159 -48q-86 0 -137 42.5t-51 101.5
q0 80 78 125q20 11 40 17q-21 4 -35 9q-56 21 -56 59q0 46 85 65q11 2 25 4q-16 5 -33 15q-76 46 -76 122q0 67 50 113.5t124 46.5zM360 18q-17 4 -75.5 11.5t-88.5 12.5q-62 -24 -92 -55.5t-30 -79.5q0 -51 45.5 -87.5t121.5 -36.5q87 0 145.5 43.5t58.5 101.5q0 72 -85 90
zM101 323q0 -38 25 -69.5t68 -51.5q15 -7 33 -7q21 0 53 5q59 9 97 42.5t38 83.5q0 57 -43.5 97t-116.5 40q-67 0 -110.5 -40t-43.5 -100z" />
    <glyph glyph-name="h" unicode="h" horiz-adv-x="555" 
d="M100 0v774l20 6v-424q10 23 25 41q71 87 166 87q152 0 152 -169v-315h-20v311q0 153 -132 153q-89 0 -152 -80q-23 -29 -31 -52.5t-8 -59.5v-272h-20z" />
    <glyph glyph-name="i" unicode="i" horiz-adv-x="220" 
d="M100 472l20 6v-478h-20v472zM87 662q0 10 6.5 16.5t16.5 6.5t16.5 -6.5t6.5 -16.5t-6.5 -16.5t-16.5 -6.5t-16.5 6.5t-6.5 16.5z" />
    <glyph glyph-name="j" unicode="j" horiz-adv-x="220" 
d="M100 472l20 6v-509q0 -79 -14.5 -117.5t-43.5 -66.5l-47 -22l-4 8q54 37 71.5 77t17.5 121v503zM87 662q0 10 6.5 16.5t16.5 6.5t16.5 -6.5t6.5 -16.5t-6.5 -16.5t-16.5 -6.5t-16.5 6.5t-6.5 16.5z" />
    <glyph glyph-name="k" unicode="k" horiz-adv-x="479" 
d="M120 780v-518l264 213h33l-267 -213l321 -262h-32l-319 259v-259h-20v774z" />
    <glyph glyph-name="l" unicode="l" horiz-adv-x="220" 
d="M120 780v-780h-20v774z" />
    <glyph glyph-name="m" unicode="m" horiz-adv-x="800" 
d="M688 0v311q0 154 -124 154q-72 0 -119 -66q-30 -40 -31 -81v-318h-20v325q0 66 -33.5 103t-91.5 37q-63 0 -109 -52q-40 -45 -40 -104v-309h-20v475h20v-92q9 23 26 43q49 59 123 59q55 0 92 -30t48 -84q6 18 23 41q52 73 132 73q73 0 108.5 -46t35.5 -128v-311h-20z" />
    <glyph glyph-name="n" unicode="n" horiz-adv-x="555" 
d="M100 0v475h20v-119q10 23 25 41q71 87 166 87q152 0 152 -169v-315h-20v311q0 153 -132 153q-89 0 -152 -80q-23 -29 -31 -52.5t-8 -59.5v-272h-20z" />
    <glyph glyph-name="o" unicode="o" horiz-adv-x="549" 
d="M274 -17q-99 0 -157 70t-58 185t58 185t157 70q100 0 158 -70t58 -185t-58 -185t-158 -70zM274 3q91 0 143 64.5t52 170.5t-52 170.5t-143 64.5t-142.5 -64.5t-51.5 -170.5t51.5 -170.5t142.5 -64.5z" />
    <glyph glyph-name="p" unicode="p" horiz-adv-x="565" 
d="M100 475h20v-24q69 42 156 42q99 0 164.5 -68.5t65.5 -182.5q0 -118 -66.5 -188.5t-181.5 -70.5q-78 0 -138 35v-245l-20 -10v712zM275 473q-94 0 -155 -47v-383q58 -40 138 -40q105 0 166 65t61 174q0 105 -59.5 168t-150.5 63z" />
    <glyph glyph-name="q" unicode="q" horiz-adv-x="571" 
d="M471 479v-706l-20 -10v268q-68 -48 -164 -48q-104 0 -166 67.5t-62 181.5q0 119 68.5 189.5t183.5 70.5q74 0 140 -23zM287 4q99 0 164 51v391q-58 26 -140 26q-107 0 -169 -65.5t-62 -174.5q0 -105 56 -166.5t151 -61.5z" />
    <glyph glyph-name="r" unicode="r" horiz-adv-x="342" 
d="M326 480v-22q-122 -1 -182 -73q-24 -29 -24 -91v-294h-20v475h20v-95q6 12 17 25q66 75 189 75z" />
    <glyph glyph-name="s" unicode="s" horiz-adv-x="426" 
d="M50 37l4 28q55 -62 145 -62q71 0 109 30t38 82q0 62 -67 93q-26 12 -70 27t-67 26q-42 20 -59.5 43.5t-17.5 62.5q0 55 38 90t103 35q85 0 149 -55l-12 -22q-55 57 -137 57q-55 0 -87.5 -29t-32.5 -76q0 -32 15.5 -51.5t49.5 -35.5q21 -10 67.5 -26t67.5 -26
q45 -21 63 -47.5t18 -65.5q0 -61 -44.5 -96.5t-123.5 -35.5q-90 0 -149 54z" />
    <glyph glyph-name="t" unicode="t" horiz-adv-x="315" 
d="M21 475h97v167l20 6v-173h162v-19h-162v-294q0 -70 17 -102t70 -55v-3l-31 -4q-44 22 -60 55.5t-16 113.5v289h-97v19z" />
    <glyph glyph-name="u" unicode="u" horiz-adv-x="555" 
d="M92 475h20v-320q0 -73 33.5 -108t104.5 -35q50 0 95 29t75 76q16 26 16 57v301h20v-472l-20 -6v109q-34 -52 -83 -83t-103 -31q-158 0 -158 163v320z" />
    <glyph glyph-name="v" unicode="v" horiz-adv-x="430" 
d="M19 475h21l162 -451l188 451h21l-198 -475h-24z" />
    <glyph glyph-name="w" unicode="w" horiz-adv-x="705" 
d="M341 475h24l118 -450l182 450h21l-192 -475h-24l-118 446l-145 -446h-24l-164 475h21l155 -449z" />
    <glyph glyph-name="x" unicode="x" horiz-adv-x="514" 
d="M471 475l-206 -228l206 -247h-27l-193 232l-209 -232h-27l223 247l-189 228h27l176 -212l192 212h27z" />
    <glyph glyph-name="y" unicode="y" horiz-adv-x="445" 
d="M65 -237q72 80 146 250l-192 462h22l180 -436l184 436h22l-207 -488q-63 -148 -128 -224h-27z" />
    <glyph glyph-name="z" unicode="z" horiz-adv-x="513" 
d="M465 0h-424l386 456h-357l2 19h397l-387 -456h387z" />
    <glyph glyph-name="braceleft" unicode="{" horiz-adv-x="331" 
d="M32 340v20q52 4 76 36.5t24 82.5v187q0 72 34.5 104t106.5 32v-20q-64 0 -92.5 -26t-28.5 -90v-187q0 -107 -86 -129q86 -22 86 -129v-187q0 -64 28.5 -90t92.5 -26v-20q-72 0 -106.5 32t-34.5 104v187q0 50 -24 82.5t-76 36.5z" />
    <glyph glyph-name="bar" unicode="|" horiz-adv-x="232" 
d="M126 -110h-20v902h20v-902z" />
    <glyph glyph-name="braceright" unicode="}" horiz-adv-x="331" 
d="M299 360v-20q-52 -4 -76 -36.5t-24 -82.5v-187q0 -72 -34.5 -104t-106.5 -32v20q64 0 92.5 26t28.5 90v187q0 107 86 129q-86 22 -86 129v187q0 64 -28.5 90t-92.5 26v20q72 0 106.5 -32t34.5 -104v-187q0 -50 24 -82.5t76 -36.5z" />
    <glyph glyph-name="asciitilde" unicode="~" horiz-adv-x="553" 
d="M508 315l13 -15q-47 -92 -132 -92q-28 0 -59.5 16t-55 34.5t-53.5 34.5t-57 16q-78 0 -119 -87l-13 15q47 92 132 92q43 0 115 -50.5t110 -50.5q79 0 119 87z" />
    <glyph glyph-name="uni00A0" unicode="&#xa0;" horiz-adv-x="220" 
 />
    <glyph glyph-name="exclamdown" unicode="&#xa1;" horiz-adv-x="238" 
d="M125 -224l-25 -13q6 379 12 554l12 -2q1 -144 1 -539zM94 459q0 10 6.5 16.5t16.5 6.5t16.5 -6.5t6.5 -16.5t-6.5 -16.5t-16.5 -6.5t-16.5 6.5t-6.5 16.5z" />
    <glyph glyph-name="cent" unicode="&#xa2;" 
d="M433 666l-49 -180q61 -12 104 -42l-9 -22q-44 33 -100 45l-123 -459q24 -5 59 -5q106 0 178 72l-6 -32q-30 -26 -76 -43t-96 -17q-34 0 -64 6l-42 -159h-20l44 164q-79 20 -123.5 82t-44.5 154q0 116 68.5 189t189.5 73q23 0 42 -3l48 177h20zM86 230q0 -85 40 -141.5
t112 -76.5l122 458q-24 2 -37 2q-113 0 -175 -67t-62 -175z" />
    <glyph glyph-name="sterling" unicode="&#xa3;" 
d="M409 398l-3 -20q-76 4 -169 4q-42 0 -61 -1q26 -100 26 -160q0 -90 -36 -143q25 -4 62.5 -23t78 -35t81.5 -16q69 0 115 71l14 -20q-56 -71 -129 -71q-46 0 -91 18.5t-82.5 37.5t-62.5 21q-56 -69 -87 -69q-10 0 -16.5 7t-6.5 18q0 21 31.5 41.5t71.5 21.5q37 46 37 141
q0 60 -25 160q-29 -1 -92 -7l7 23q54 4 79 4q-2 6 -7.5 28t-8 30.5t-7 27.5t-6.5 29.5t-4.5 26.5t-3.5 29.5t-1 27.5q0 76 44 124t117 48q94 0 187 -77l-14 -18q-86 75 -173 75q-65 0 -102.5 -42t-37.5 -110q0 -64 36 -198h67q78 0 172 -4z" />
    <glyph glyph-name="currency" unicode="&#xa4;" horiz-adv-x="550" 
d="M56 110l74 74q-49 54 -49 129t49 129l-74 74l15 15l74 -74q56 49 129 49q75 0 129 -49l74 74l15 -15l-74 -74q50 -55 50 -129q0 -75 -50 -130l74 -73l-15 -15l-74 73q-54 -48 -129 -48t-129 49l-74 -74zM101 313q0 -71 51 -122t122 -51t122 51t51 122t-51 122t-122 51
t-122 -51t-51 -122z" />
    <glyph glyph-name="yen" unicode="&#xa5;" 
d="M494 313v-19h-207v-294h-20v294h-208v19h208l-57 103h-151v19h141l-173 317h22l228 -418l224 418h22l-171 -317h142v-19h-152l-55 -103h207z" />
    <glyph glyph-name="brokenbar" unicode="&#xa6;" horiz-adv-x="232" 
d="M126 -110h-20v322h20v-322zM126 470h-20v322h20v-322z" />
    <glyph glyph-name="section" unicode="&#xa7;" horiz-adv-x="483" 
d="M44 353q0 50 32 85.5t99 36.5q-52 29 -73.5 59t-21.5 71q0 57 45 94t119 37q97 0 170 -55l-3 -26q-72 61 -167 61q-66 0 -104.5 -31t-38.5 -80q0 -62 79 -110q27 -17 83 -43t84 -43q49 -31 70.5 -61.5t21.5 -75.5q0 -51 -33 -86.5t-99 -35.5q53 -32 75 -65t22 -75
q0 -51 -45 -86t-120 -35q-110 0 -170 68l-3 33q38 -45 78 -63t95 -18q68 0 106 29t38 72q0 68 -76 116q-29 18 -85.5 45.5t-83.5 44.5q-50 32 -72 62t-22 75zM65 351q0 -35 18 -62t68 -57q62 -37 94.5 -49.5t64.5 -12.5q55 0 81.5 30t26.5 74q0 67 -84 117q-108 64 -161 64
q-55 0 -81.5 -30t-26.5 -74z" />
    <glyph glyph-name="dieresis" unicode="&#xa8;" horiz-adv-x="230" 
d="M16 634q0 10 6.5 16.5t16.5 6.5t16.5 -6.5t6.5 -16.5t-6.5 -16.5t-16.5 -6.5t-16.5 6.5t-6.5 16.5zM168 634q0 10 6.5 16.5t16.5 6.5t16.5 -6.5t6.5 -16.5t-6.5 -16.5t-16.5 -6.5t-16.5 6.5t-6.5 16.5z" />
    <glyph glyph-name="copyright" unicode="&#xa9;" horiz-adv-x="893" 
d="M45 385q0 167 117.5 284.5t283.5 117.5t284 -117.5t118 -284.5q0 -166 -117.5 -283t-284.5 -117t-284 117t-117 283zM66 385q0 -157 111 -268t269 -111t269.5 111t111.5 268t-111.5 269t-269.5 112q-157 0 -268.5 -111.5t-111.5 -269.5zM624 219l-6 -33q-66 -55 -162 -55
q-112 0 -177.5 67.5t-65.5 183.5q0 118 67.5 192t188.5 74q90 0 153 -41l-8 -23q-63 44 -145 44q-112 0 -173.5 -68.5t-61.5 -177.5q0 -106 59.5 -168.5t162.5 -62.5q99 0 168 68z" />
    <glyph glyph-name="ordfeminine" unicode="&#xaa;" horiz-adv-x="337" 
d="M68 630v22q46 37 105 37q50 0 75.5 -26.5t25.5 -75.5v-235l-20 -7v61q-57 -62 -133 -62q-40 0 -64 21t-24 57q0 66 77 97q53 21 144 31v37q0 82 -81 82q-55 0 -102 -39h-3zM254 434v96q-82 -7 -137 -30q-63 -26 -63 -77q0 -27 17.5 -43t50.5 -16q77 0 132 70z" />
    <glyph glyph-name="guillemotleft" unicode="&#xab;" horiz-adv-x="395" 
d="M184 82l-130 165l130 165h20l-123 -165l123 -165h-20zM311 82l-130 165l130 165h20l-123 -165l123 -165h-20z" />
    <glyph glyph-name="logicalnot" unicode="&#xac;" 
d="M40 366h391v-256h-20v237h-371v19z" />
    <glyph glyph-name="uni00AD" unicode="&#xad;" horiz-adv-x="324" 
d="M289 278v-19h-254v19h254z" />
    <glyph glyph-name="registered" unicode="&#xae;" horiz-adv-x="621" 
d="M49 525q0 109 76.5 185.5t185.5 76.5t185.5 -76.5t76.5 -185.5t-76.5 -185.5t-185.5 -76.5t-185.5 76.5t-76.5 185.5zM69 525q0 -101 70.5 -171.5t171.5 -70.5t171.5 70.5t70.5 171.5t-70.5 171.5t-171.5 70.5t-171.5 -70.5t-70.5 -171.5zM213 374v312h75q115 0 115 -99
q0 -62 -77 -86l106 -127h-26l-102 122q-31 -6 -71 -6v-116h-20zM233 667v-158q149 0 149 78q0 80 -94 80h-55z" />
    <glyph glyph-name="macron" unicode="&#xaf;" horiz-adv-x="267" 
d="M257 643v-19h-247v19h247z" />
    <glyph glyph-name="degree" unicode="&#xb0;" horiz-adv-x="332" 
d="M47 651q0 49 34.5 84t84.5 35q49 0 84 -35t35 -84t-34.5 -84t-84.5 -35t-84.5 35t-34.5 84zM68 650q0 -41 28.5 -69.5t69.5 -28.5t70 28.5t29 69.5t-29 70t-70 29t-69.5 -29t-28.5 -70z" />
    <glyph glyph-name="plusminus" unicode="&#xb1;" 
d="M506 327v-19h-222v-181h-20v181h-219v19h219v176h20v-176h222zM506 68v-19h-461v19h461z" />
    <glyph glyph-name="twosuperior" unicode="&#xb2;" horiz-adv-x="331" 
d="M198 594q-66 -69 -134 -117h225l-4 -19h-253v16q81 56 152 134q41 43 55.5 75.5t14.5 71.5q0 38 -22.5 61.5t-66.5 23.5q-65 0 -113 -44l5 28q39 36 108 36q53 0 81.5 -29.5t28.5 -75.5q0 -43 -17 -79.5t-60 -81.5z" />
    <glyph glyph-name="threesuperior" unicode="&#xb3;" horiz-adv-x="335" 
d="M270 759q0 -67 -72 -92q41 -10 65.5 -37t24.5 -66q0 -54 -39 -85t-103 -31q-73 0 -110 26l-2 25q46 -31 112 -31q56 0 88.5 27t32.5 69q0 41 -35 66t-99 25q-40 0 -68 -4l6 27q36 -2 62 -2q54 0 85 21.5t31 61.5q0 35 -26 58t-72 23q-54 0 -91 -26l7 29q32 17 84 17
q56 0 87.5 -28.5t31.5 -72.5z" />
    <glyph glyph-name="acute" unicode="&#xb4;" horiz-adv-x="148" 
d="M140 708l-115 -142h-17l103 142h29z" />
    <glyph glyph-name="mu" unicode="&#xb5;" horiz-adv-x="546" 
d="M236 -8q-48 0 -82 19.5t-44 58.5v-296l-20 -11v712h20v-316q0 -147 126 -147q117 0 186 108q14 22 14 64v291h20v-472l-20 -6v111q-73 -116 -200 -116z" />
    <glyph glyph-name="paragraph" unicode="&#xb6;" horiz-adv-x="509" 
d="M176 772h270v-19h-92v-885h-20v885h-138v-885h-20v607q-67 0 -106.5 40.5t-39.5 108.5t39.5 108t106.5 40z" />
    <glyph glyph-name="periodcentered" unicode="&#xb7;" horiz-adv-x="226" 
d="M89 266q0 10 6.5 16.5t16.5 6.5t16.5 -6.5t6.5 -16.5t-6.5 -16.5t-16.5 -6.5t-16.5 6.5t-6.5 16.5z" />
    <glyph glyph-name="cedilla" unicode="&#xb8;" horiz-adv-x="193" 
d="M91 1h20l-39 -75q10 2 22 2q40 0 63.5 -19t23.5 -50q0 -33 -27 -54t-68 -21q-48 0 -76 24l2 27q19 -31 74 -31q33 0 53.5 15t20.5 40q0 23 -17.5 36.5t-48.5 13.5q-29 0 -52 -10l-1 2z" />
    <glyph glyph-name="onesuperior" unicode="&#xb9;" horiz-adv-x="244" 
d="M139 458h-20v373h-97l3 19h114v-392z" />
    <glyph glyph-name="ordmasculine" unicode="&#xba;" horiz-adv-x="384" 
d="M192 358q60 0 95.5 41.5t35.5 116.5t-35.5 116.5t-95.5 41.5t-95.5 -41.5t-35.5 -116.5t35.5 -116.5t95.5 -41.5zM192 338q-68 0 -110 47.5t-42 130.5t42 130.5t110 47.5t110 -47.5t42 -130.5t-42 -130.5t-110 -47.5z" />
    <glyph glyph-name="guillemotright" unicode="&#xbb;" horiz-adv-x="395" 
d="M211 412l130 -165l-130 -165h-20l123 165l-123 165h20zM84 412l130 -165l-130 -165h-20l123 165l-123 165h20z" />
    <glyph glyph-name="onequarter" unicode="&#xbc;" horiz-adv-x="796" 
d="M638 780l-519 -810h-22l518 810h23zM193 360h-20v373h-97l3 19h114v-392zM642 0v116h-219v3l236 293h3v-277h83v-19h-83v-116h-20zM460 135h182v225z" />
    <glyph glyph-name="onehalf" unicode="&#xbd;" horiz-adv-x="796" 
d="M619 780l-519 -810h-22l518 810h23zM177 360h-20v373h-97l3 19h114v-392zM635 136q-66 -69 -134 -117h225l-4 -19h-253v16q81 56 152 134q41 43 55.5 75.5t14.5 71.5q0 38 -22.5 61.5t-66.5 23.5q-65 0 -113 -44l5 28q39 36 108 36q53 0 81.5 -29.5t28.5 -75.5
q0 -43 -17 -79.5t-60 -81.5z" />
    <glyph glyph-name="threequarters" unicode="&#xbe;" horiz-adv-x="796" 
d="M692 780l-519 -810h-22l518 810h23zM664 0v116h-219v3l236 293h3v-277h83v-19h-83v-116h-20zM482 135h182v225zM281 661q0 -67 -72 -92q41 -10 65.5 -37t24.5 -66q0 -54 -39 -85t-103 -31q-73 0 -110 26l-2 25q46 -31 112 -31q56 0 88.5 27t32.5 69q0 41 -35 66t-99 25
q-40 0 -68 -4l6 27q36 -2 62 -2q54 0 85 21.5t31 61.5q0 35 -26 58t-72 23q-54 0 -91 -26l7 29q32 17 84 17q56 0 87.5 -28.5t31.5 -72.5z" />
    <glyph glyph-name="questiondown" unicode="&#xbf;" horiz-adv-x="412" 
d="M303 339l20 6v-158q-118 -7 -187 -65.5t-69 -149.5t56 -140t149 -49q47 0 82 13l-8 -24q-35 -9 -74 -9q-101 0 -163.5 55t-62.5 154q0 96 70.5 160t186.5 73v134zM285 459q0 10 6.5 16.5t16.5 6.5t16.5 -6.5t6.5 -16.5t-6.5 -16.5t-16.5 -6.5t-16.5 6.5t-6.5 16.5z" />
    <glyph glyph-name="Agrave" unicode="&#xc0;" horiz-adv-x="722" 
d="M12 0l348 770l23 5l327 -775h-21l-144 341h-358l-154 -341h-21zM372 750l-177 -390h342zM405 834l-118 111h34l103 -111h-19z" />
    <glyph glyph-name="Aacute" unicode="&#xc1;" horiz-adv-x="722" 
d="M12 0l348 770l23 5l327 -775h-21l-144 341h-358l-154 -341h-21zM372 750l-177 -390h342zM457 945l-118 -111h-19l103 111h34z" />
    <glyph glyph-name="Acircumflex" unicode="&#xc2;" horiz-adv-x="722" 
d="M12 0l348 770l23 5l327 -775h-21l-144 341h-358l-154 -341h-21zM372 750l-177 -390h342zM473 834l-101 92l-100 -92h-21l107 111h29l107 -111h-21z" />
    <glyph glyph-name="Atilde" unicode="&#xc3;" horiz-adv-x="722" 
d="M12 0l348 770l23 5l327 -775h-21l-144 341h-358l-154 -341h-21zM372 750l-177 -390h342zM251 848q4 39 22.5 60.5t45.5 21.5q23 0 63 -29t56 -29q22 0 36 18t17 47l15 -3q-4 -39 -22.5 -60.5t-45.5 -21.5q-23 0 -63 29t-56 29q-21 0 -36 -18.5t-17 -46.5z" />
    <glyph glyph-name="Adieresis" unicode="&#xc4;" horiz-adv-x="722" 
d="M12 0l348 770l23 5l327 -775h-21l-144 341h-358l-154 -341h-21zM372 750l-177 -390h342zM263 884q0 10 6.5 16.5t16.5 6.5t16.5 -6.5t6.5 -16.5t-6.5 -16.5t-16.5 -6.5t-16.5 6.5t-6.5 16.5zM435 884q0 10 6.5 16.5t16.5 6.5t16.5 -6.5t6.5 -16.5t-6.5 -16.5t-16.5 -6.5
t-16.5 6.5t-6.5 16.5z" />
    <glyph glyph-name="Aring" unicode="&#xc5;" horiz-adv-x="722" 
d="M12 0l348 770l23 5l327 -775h-21l-144 341h-358l-154 -341h-21zM372 750l-177 -390h342zM282 902q0 38 26 64t64 26t64 -26t26 -64t-26 -64t-64 -26t-64 26t-26 64zM301 902q0 -30 20.5 -50.5t50.5 -20.5t51 20.5t21 50.5t-21 51t-51 21t-50.5 -21t-20.5 -51z" />
    <glyph glyph-name="AE" unicode="&#xc6;" horiz-adv-x="829" 
d="M422 753v-337h301v-19h-301v-378h347v-19h-367v359h-210l-188 -359h-22l404 772h383v-19h-347zM398 753l-196 -375h200v375h-4z" />
    <glyph glyph-name="Ccedilla" unicode="&#xc7;" horiz-adv-x="750" 
d="M677 715l-10 -24q-74 74 -229 74q-152 0 -254.5 -111t-102.5 -269q0 -172 97.5 -275t250.5 -103q154 0 256 90l-7 -34q-100 -74 -247 -76l-31 -61q10 2 22 2q40 0 63.5 -19t23.5 -50q0 -33 -27 -54t-68 -21q-48 0 -76 24l2 27q19 -31 74 -31q33 0 53.5 15t20.5 40
q0 23 -17.5 36.5t-48.5 13.5q-29 0 -52 -10l-1 2l43 87q-156 6 -254 115t-98 282q0 166 109 283t269 117q144 0 239 -70z" />
    <glyph glyph-name="Egrave" unicode="&#xc8;" horiz-adv-x="562" 
d="M135 753v-337h321v-19h-321v-378h367v-19h-387v772h375v-19h-355zM335 834l-118 111h34l103 -111h-19z" />
    <glyph glyph-name="Eacute" unicode="&#xc9;" horiz-adv-x="562" 
d="M135 753v-337h321v-19h-321v-378h367v-19h-387v772h375v-19h-355zM387 945l-118 -111h-19l103 111h34z" />
    <glyph glyph-name="Ecircumflex" unicode="&#xca;" horiz-adv-x="562" 
d="M135 753v-337h321v-19h-321v-378h367v-19h-387v772h375v-19h-355zM403 834l-101 92l-100 -92h-21l107 111h29l107 -111h-21z" />
    <glyph glyph-name="Edieresis" unicode="&#xcb;" horiz-adv-x="562" 
d="M135 753v-337h321v-19h-321v-378h367v-19h-387v772h375v-19h-355zM193 884q0 10 6.5 16.5t16.5 6.5t16.5 -6.5t6.5 -16.5t-6.5 -16.5t-16.5 -6.5t-16.5 6.5t-6.5 16.5zM365 884q0 10 6.5 16.5t16.5 6.5t16.5 -6.5t6.5 -16.5t-6.5 -16.5t-16.5 -6.5t-16.5 6.5t-6.5 16.5z
" />
    <glyph glyph-name="Igrave" unicode="&#xcc;" horiz-adv-x="250" 
d="M135 0h-20v772h20v-772zM157 834l-118 111h34l103 -111h-19z" />
    <glyph glyph-name="Iacute" unicode="&#xcd;" horiz-adv-x="250" 
d="M135 0h-20v772h20v-772zM209 945l-118 -111h-19l103 111h34z" />
    <glyph glyph-name="Icircumflex" unicode="&#xce;" horiz-adv-x="250" 
d="M135 0h-20v772h20v-772zM225 834l-101 92l-100 -92h-21l107 111h29l107 -111h-21z" />
    <glyph glyph-name="Idieresis" unicode="&#xcf;" horiz-adv-x="250" 
d="M135 0h-20v772h20v-772zM15 884q0 10 6.5 16.5t16.5 6.5t16.5 -6.5t6.5 -16.5t-6.5 -16.5t-16.5 -6.5t-16.5 6.5t-6.5 16.5zM187 884q0 10 6.5 16.5t16.5 6.5t16.5 -6.5t6.5 -16.5t-6.5 -16.5t-16.5 -6.5t-16.5 6.5t-6.5 16.5z" />
    <glyph glyph-name="Eth" unicode="&#xd0;" horiz-adv-x="735" 
d="M248 0h-133v386h-72v19h72v367h135q200 0 312.5 -103t112.5 -273q0 -190 -110 -293t-317 -103zM135 753v-348h165v-19h-165v-367h114q196 0 300.5 98t104.5 279q0 161 -106 259t-298 98h-115z" />
    <glyph glyph-name="Ntilde" unicode="&#xd1;" horiz-adv-x="859" 
d="M724 772h20v-772h-30l-579 752v-752h-20v772h30l579 -753v753zM308 848q4 39 22.5 60.5t45.5 21.5q23 0 63 -29t56 -29q22 0 36 18t17 47l15 -3q-4 -39 -22.5 -60.5t-45.5 -21.5q-23 0 -63 29t-56 29q-21 0 -36 -18.5t-17 -46.5z" />
    <glyph glyph-name="Ograve" unicode="&#xd2;" horiz-adv-x="832" 
d="M751 386q0 167 -94 274t-241 107t-241 -107t-94 -274t94 -274t241 -107t241 107t94 274zM772 386q0 -175 -100 -288t-256 -113t-256 113t-100 288t100 288t256 113t256 -113t100 -288zM449 834l-118 111h34l103 -111h-19z" />
    <glyph glyph-name="Oacute" unicode="&#xd3;" horiz-adv-x="832" 
d="M751 386q0 167 -94 274t-241 107t-241 -107t-94 -274t94 -274t241 -107t241 107t94 274zM772 386q0 -175 -100 -288t-256 -113t-256 113t-100 288t100 288t256 113t256 -113t100 -288zM501 945l-118 -111h-19l103 111h34z" />
    <glyph glyph-name="Ocircumflex" unicode="&#xd4;" horiz-adv-x="832" 
d="M751 386q0 167 -94 274t-241 107t-241 -107t-94 -274t94 -274t241 -107t241 107t94 274zM772 386q0 -175 -100 -288t-256 -113t-256 113t-100 288t100 288t256 113t256 -113t100 -288zM517 834l-101 92l-100 -92h-21l107 111h29l107 -111h-21z" />
    <glyph glyph-name="Otilde" unicode="&#xd5;" horiz-adv-x="832" 
d="M751 386q0 167 -94 274t-241 107t-241 -107t-94 -274t94 -274t241 -107t241 107t94 274zM772 386q0 -175 -100 -288t-256 -113t-256 113t-100 288t100 288t256 113t256 -113t100 -288zM295 848q4 39 22.5 60.5t45.5 21.5q23 0 63 -29t56 -29q22 0 36 18t17 47l15 -3
q-4 -39 -22.5 -60.5t-45.5 -21.5q-23 0 -63 29t-56 29q-21 0 -36 -18.5t-17 -46.5z" />
    <glyph glyph-name="Odieresis" unicode="&#xd6;" horiz-adv-x="832" 
d="M751 386q0 167 -94 274t-241 107t-241 -107t-94 -274t94 -274t241 -107t241 107t94 274zM772 386q0 -175 -100 -288t-256 -113t-256 113t-100 288t100 288t256 113t256 -113t100 -288zM307 884q0 10 6.5 16.5t16.5 6.5t16.5 -6.5t6.5 -16.5t-6.5 -16.5t-16.5 -6.5
t-16.5 6.5t-6.5 16.5zM479 884q0 10 6.5 16.5t16.5 6.5t16.5 -6.5t6.5 -16.5t-6.5 -16.5t-16.5 -6.5t-16.5 6.5t-6.5 16.5z" />
    <glyph glyph-name="multiply" unicode="&#xd7;" 
d="M62 60l199 199l-209 209l14 14l209 -209l209 209l14 -14l-209 -209l199 -199l-14 -14l-199 199l-199 -199z" />
    <glyph glyph-name="Oslash" unicode="&#xd8;" horiz-adv-x="832" 
d="M772 386q0 -175 -100 -288t-256 -113q-126 0 -218 76l-48 -66l-21 5l54 74q-58 54 -90.5 135t-32.5 177q0 175 100 288t256 113q132 0 227 -84l54 74l21 -5l-61 -83q115 -113 115 -303zM81 386q0 -186 114 -295l436 595q-91 81 -215 81q-147 0 -241 -107t-94 -274z
M751 386q0 178 -106 286l-435 -595q88 -72 206 -72q147 0 241 107t94 274z" />
    <glyph glyph-name="Ugrave" unicode="&#xd9;" horiz-adv-x="741" 
d="M110 772h20v-496q0 -137 66 -203.5t174 -66.5t174.5 66t66.5 202v498h20v-498q0 -144 -72.5 -216t-188.5 -72t-188 72.5t-72 217.5v496zM403 834l-118 111h34l103 -111h-19z" />
    <glyph glyph-name="Uacute" unicode="&#xda;" horiz-adv-x="741" 
d="M110 772h20v-496q0 -137 66 -203.5t174 -66.5t174.5 66t66.5 202v498h20v-498q0 -144 -72.5 -216t-188.5 -72t-188 72.5t-72 217.5v496zM455 945l-118 -111h-19l103 111h34z" />
    <glyph glyph-name="Ucircumflex" unicode="&#xdb;" horiz-adv-x="741" 
d="M110 772h20v-496q0 -137 66 -203.5t174 -66.5t174.5 66t66.5 202v498h20v-498q0 -144 -72.5 -216t-188.5 -72t-188 72.5t-72 217.5v496zM471 834l-101 92l-100 -92h-21l107 111h29l107 -111h-21z" />
    <glyph glyph-name="Udieresis" unicode="&#xdc;" horiz-adv-x="741" 
d="M110 772h20v-496q0 -137 66 -203.5t174 -66.5t174.5 66t66.5 202v498h20v-498q0 -144 -72.5 -216t-188.5 -72t-188 72.5t-72 217.5v496zM261 884q0 10 6.5 16.5t16.5 6.5t16.5 -6.5t6.5 -16.5t-6.5 -16.5t-16.5 -6.5t-16.5 6.5t-6.5 16.5zM433 884q0 10 6.5 16.5
t16.5 6.5t16.5 -6.5t6.5 -16.5t-6.5 -16.5t-16.5 -6.5t-16.5 6.5t-6.5 16.5z" />
    <glyph glyph-name="Yacute" unicode="&#xdd;" horiz-adv-x="665" 
d="M343 0h-20v352l-313 420h25l298 -400l297 400h25l-312 -421v-351zM417 945l-118 -111h-19l103 111h34z" />
    <glyph glyph-name="Thorn" unicode="&#xde;" horiz-adv-x="540" 
d="M135 0h-20v772h20v-142h99q125 0 196.5 -56t71.5 -157q0 -111 -74 -167.5t-215 -56.5h-78v-193zM135 611v-399h78q268 0 268 205q0 93 -65 143.5t-182 50.5h-99z" />
    <glyph glyph-name="germandbls" unicode="&#xdf;" horiz-adv-x="565" 
d="M457 630q0 -67 -50 -124t-154 -94q118 -29 187 -92.5t69 -153.5q0 -81 -50.5 -132t-137.5 -51q-84 0 -129 47l-3 31h3q41 -58 129 -58q82 0 124.5 44.5t42.5 118.5q0 85 -68 144.5t-191 88.5v24q112 42 160 93.5t48 112.5q0 60 -36 95.5t-103 35.5q-80 0 -128.5 -62
t-48.5 -160v-538h-20v538q0 106 54.5 174t142.5 68q75 0 117 -41t42 -109z" />
    <glyph glyph-name="agrave" unicode="&#xe0;" horiz-adv-x="482" 
d="M99 405v25q60 55 150 55q70 0 105.5 -37.5t35.5 -106.5v-339l-20 -10v100q-88 -104 -195 -104q-56 0 -91 31t-35 84q0 88 109 135q84 36 212 48v55q0 124 -121 124q-88 0 -147 -60h-3zM370 121v145q-117 -8 -204 -47q-96 -43 -96 -116q0 -42 27.5 -68.5t77.5 -26.5
q108 0 195 113zM262 562l-115 142h29l103 -142h-17z" />
    <glyph glyph-name="aacute" unicode="&#xe1;" horiz-adv-x="482" 
d="M99 405v25q60 55 150 55q70 0 105.5 -37.5t35.5 -106.5v-339l-20 -10v100q-88 -104 -195 -104q-56 0 -91 31t-35 84q0 88 109 135q84 36 212 48v55q0 124 -121 124q-88 0 -147 -60h-3zM370 121v145q-117 -8 -204 -47q-96 -43 -96 -116q0 -42 27.5 -68.5t77.5 -26.5
q108 0 195 113zM331 704l-115 -142h-17l103 142h29z" />
    <glyph glyph-name="acircumflex" unicode="&#xe2;" horiz-adv-x="482" 
d="M99 405v25q60 55 150 55q70 0 105.5 -37.5t35.5 -106.5v-339l-20 -10v100q-88 -104 -195 -104q-56 0 -91 31t-35 84q0 88 109 135q84 36 212 48v55q0 124 -121 124q-88 0 -147 -60h-3zM370 121v145q-117 -8 -204 -47q-96 -43 -96 -116q0 -42 27.5 -68.5t77.5 -26.5
q108 0 195 113zM332 562l-94 121l-93 -121h-17l99 142h23l99 -142h-17z" />
    <glyph glyph-name="atilde" unicode="&#xe3;" horiz-adv-x="482" 
d="M99 405v25q60 55 150 55q70 0 105.5 -37.5t35.5 -106.5v-339l-20 -10v100q-88 -104 -195 -104q-56 0 -91 31t-35 84q0 88 109 135q84 36 212 48v55q0 124 -121 124q-88 0 -147 -60h-3zM370 121v145q-117 -8 -204 -47q-96 -43 -96 -116q0 -42 27.5 -68.5t77.5 -26.5
q108 0 195 113zM116 587q4 39 22.5 60.5t45.5 21.5q24 0 64.5 -29t56.5 -29q22 0 36 18t17 47l15 -3q-4 -39 -22.5 -60.5t-45.5 -21.5q-24 0 -64.5 29t-56.5 29q-21 0 -36 -18.5t-17 -46.5z" />
    <glyph glyph-name="adieresis" unicode="&#xe4;" horiz-adv-x="482" 
d="M99 405v25q60 55 150 55q70 0 105.5 -37.5t35.5 -106.5v-339l-20 -10v100q-88 -104 -195 -104q-56 0 -91 31t-35 84q0 88 109 135q84 36 212 48v55q0 124 -121 124q-88 0 -147 -60h-3zM370 121v145q-117 -8 -204 -47q-96 -43 -96 -116q0 -42 27.5 -68.5t77.5 -26.5
q108 0 195 113zM140 630q0 10 6.5 16.5t16.5 6.5t16.5 -6.5t6.5 -16.5t-6.5 -16.5t-16.5 -6.5t-16.5 6.5t-6.5 16.5zM292 630q0 10 6.5 16.5t16.5 6.5t16.5 -6.5t6.5 -16.5t-6.5 -16.5t-16.5 -6.5t-16.5 6.5t-6.5 16.5z" />
    <glyph glyph-name="aring" unicode="&#xe5;" horiz-adv-x="482" 
d="M99 405v25q60 55 150 55q70 0 105.5 -37.5t35.5 -106.5v-339l-20 -10v100q-88 -104 -195 -104q-56 0 -91 31t-35 84q0 88 109 135q84 36 212 48v55q0 124 -121 124q-88 0 -147 -60h-3zM370 121v145q-117 -8 -204 -47q-96 -43 -96 -116q0 -42 27.5 -68.5t77.5 -26.5
q108 0 195 113zM150 643q0 37 26 63.5t63 26.5t63.5 -26.5t26.5 -63.5t-26.5 -63t-63.5 -26t-63 26t-26 63zM169 643q0 -29 20.5 -49.5t49.5 -20.5q30 0 50.5 20.5t20.5 49.5q0 30 -20.5 50.5t-50.5 20.5q-29 0 -49.5 -20.5t-20.5 -50.5z" />
    <glyph glyph-name="ae" unicode="&#xe6;" horiz-adv-x="800" 
d="M372 254v87q0 124 -123 124q-88 0 -147 -62h-3v27q60 55 150 55q71 0 107 -37.5t36 -106.5v-17q27 74 84.5 118t137.5 44q60 0 94 -32t34 -80q0 -103 -157 -124q-92 -13 -193 -16v-4q0 -222 180 -222q97 0 156 73h3l2 -27q-68 -66 -161 -66q-134 0 -180 109
q-41 -47 -97 -78t-111 -31q-62 0 -98.5 32.5t-36.5 89.5q0 47 33.5 80t96.5 46q71 15 193 18zM184 8q50 0 105 31t95 80q-12 42 -12 95v20q-116 -2 -192 -18q-55 -12 -82.5 -40t-27.5 -66q0 -49 30 -75.5t84 -26.5zM614 466q-89 0 -151 -61.5t-70 -150.5q94 2 192 16
q136 19 136 103q0 43 -28.5 68t-78.5 25z" />
    <glyph glyph-name="ccedilla" unicode="&#xe7;" horiz-adv-x="514" 
d="M470 77l-7 -34q-64 -60 -163 -60l-29 -57q10 2 22 2q40 0 63.5 -19t23.5 -50q0 -33 -27 -54t-68 -21q-47 0 -76 24l2 27q19 -31 74 -31q33 0 53.5 15t20.5 40q0 23 -17.5 36.5t-48.5 13.5q-29 0 -52 -10l-1 2l41 83q-102 6 -160 71t-58 175q0 114 66.5 188.5t181.5 74.5
q91 0 155 -46l-8 -23q-59 49 -147 49q-106 0 -166.5 -68t-60.5 -175q0 -99 56 -163t160 -64q98 0 167 74h3z" />
    <glyph glyph-name="egrave" unicode="&#xe8;" horiz-adv-x="501" 
d="M269 222q-88 -21 -193 -33q6 -84 59 -135t137 -51q100 0 157 73h3l2 -27q-64 -66 -162 -66q-105 0 -161 65t-56 162q0 111 71.5 197t179.5 86q65 0 101 -34.5t36 -88.5q0 -108 -174 -148zM306 473q-99 0 -164.5 -80.5t-65.5 -182.5q98 10 188 31q87 21 122.5 53t35.5 76
t-30 73.5t-86 29.5zM305 562l-115 142h29l103 -142h-17z" />
    <glyph glyph-name="eacute" unicode="&#xe9;" horiz-adv-x="501" 
d="M269 222q-88 -21 -193 -33q6 -84 59 -135t137 -51q100 0 157 73h3l2 -27q-64 -66 -162 -66q-105 0 -161 65t-56 162q0 111 71.5 197t179.5 86q65 0 101 -34.5t36 -88.5q0 -108 -174 -148zM306 473q-99 0 -164.5 -80.5t-65.5 -182.5q98 10 188 31q87 21 122.5 53t35.5 76
t-30 73.5t-86 29.5zM374 704l-115 -142h-17l103 142h29z" />
    <glyph glyph-name="ecircumflex" unicode="&#xea;" horiz-adv-x="501" 
d="M269 222q-88 -21 -193 -33q6 -84 59 -135t137 -51q100 0 157 73h3l2 -27q-64 -66 -162 -66q-105 0 -161 65t-56 162q0 111 71.5 197t179.5 86q65 0 101 -34.5t36 -88.5q0 -108 -174 -148zM306 473q-99 0 -164.5 -80.5t-65.5 -182.5q98 10 188 31q87 21 122.5 53t35.5 76
t-30 73.5t-86 29.5zM375 562l-94 121l-93 -121h-17l99 142h23l99 -142h-17z" />
    <glyph glyph-name="edieresis" unicode="&#xeb;" horiz-adv-x="501" 
d="M269 222q-88 -21 -193 -33q6 -84 59 -135t137 -51q100 0 157 73h3l2 -27q-64 -66 -162 -66q-105 0 -161 65t-56 162q0 111 71.5 197t179.5 86q65 0 101 -34.5t36 -88.5q0 -108 -174 -148zM306 473q-99 0 -164.5 -80.5t-65.5 -182.5q98 10 188 31q87 21 122.5 53t35.5 76
t-30 73.5t-86 29.5zM183 630q0 10 6.5 16.5t16.5 6.5t16.5 -6.5t6.5 -16.5t-6.5 -16.5t-16.5 -6.5t-16.5 6.5t-6.5 16.5zM335 630q0 10 6.5 16.5t16.5 6.5t16.5 -6.5t6.5 -16.5t-6.5 -16.5t-16.5 -6.5t-16.5 6.5t-6.5 16.5z" />
    <glyph glyph-name="igrave" unicode="&#xec;" horiz-adv-x="220" 
d="M100 472l20 6v-478h-20v472zM132 562l-115 142h29l103 -142h-17z" />
    <glyph glyph-name="iacute" unicode="&#xed;" horiz-adv-x="220" 
d="M100 472l20 6v-478h-20v472zM201 704l-115 -142h-17l103 142h29z" />
    <glyph glyph-name="icircumflex" unicode="&#xee;" horiz-adv-x="220" 
d="M100 472l20 6v-478h-20v472zM202 562l-94 121l-93 -121h-17l99 142h23l99 -142h-17z" />
    <glyph glyph-name="idieresis" unicode="&#xef;" horiz-adv-x="220" 
d="M21 634q0 10 6.5 16.5t16.5 6.5t16.5 -6.5t6.5 -16.5t-6.5 -16.5t-16.5 -6.5t-16.5 6.5t-6.5 16.5zM153 634q0 10 6.5 16.5t16.5 6.5t16.5 -6.5t6.5 -16.5t-6.5 -16.5t-16.5 -6.5t-16.5 6.5t-6.5 16.5zM100 472l20 6v-478h-20v472z" />
    <glyph glyph-name="eth" unicode="&#xf0;" 
d="M144 622l-2 20l157 50q-51 46 -118 72l19 14q67 -30 121 -79l99 32l2 -19l-86 -28q73 -73 114.5 -178t41.5 -228q0 -136 -59 -215.5t-167 -79.5q-91 0 -149 69.5t-58 171.5q0 122 62.5 194.5t163.5 72.5q99 0 170 -74q-35 158 -140 260zM471 278q0 45 -9 106
q-76 87 -177 87q-93 0 -149 -66.5t-56 -180.5q0 -94 51.5 -157.5t134.5 -63.5q99 0 152 73.5t53 201.5z" />
    <glyph glyph-name="ntilde" unicode="&#xf1;" horiz-adv-x="555" 
d="M100 0v475h20v-119q10 23 25 41q71 87 166 87q152 0 152 -169v-315h-20v311q0 153 -132 153q-89 0 -152 -80q-23 -29 -31 -52.5t-8 -59.5v-272h-20zM159 587q4 39 22.5 60.5t45.5 21.5q24 0 64.5 -29t56.5 -29q22 0 36 18t17 47l15 -3q-4 -39 -22.5 -60.5t-45.5 -21.5
q-24 0 -64.5 29t-56.5 29q-21 0 -36 -18.5t-17 -46.5z" />
    <glyph glyph-name="ograve" unicode="&#xf2;" horiz-adv-x="549" 
d="M274 -17q-99 0 -157 70t-58 185t58 185t157 70q100 0 158 -70t58 -185t-58 -185t-158 -70zM274 3q91 0 143 64.5t52 170.5t-52 170.5t-143 64.5t-142.5 -64.5t-51.5 -170.5t51.5 -170.5t142.5 -64.5zM300 562l-115 142h29l103 -142h-17z" />
    <glyph glyph-name="oacute" unicode="&#xf3;" horiz-adv-x="549" 
d="M274 -17q-99 0 -157 70t-58 185t58 185t157 70q100 0 158 -70t58 -185t-58 -185t-158 -70zM274 3q91 0 143 64.5t52 170.5t-52 170.5t-143 64.5t-142.5 -64.5t-51.5 -170.5t51.5 -170.5t142.5 -64.5zM369 704l-115 -142h-17l103 142h29z" />
    <glyph glyph-name="ocircumflex" unicode="&#xf4;" horiz-adv-x="549" 
d="M274 -17q-99 0 -157 70t-58 185t58 185t157 70q100 0 158 -70t58 -185t-58 -185t-158 -70zM274 3q91 0 143 64.5t52 170.5t-52 170.5t-143 64.5t-142.5 -64.5t-51.5 -170.5t51.5 -170.5t142.5 -64.5zM370 562l-94 121l-93 -121h-17l99 142h23l99 -142h-17z" />
    <glyph glyph-name="otilde" unicode="&#xf5;" horiz-adv-x="549" 
d="M274 -17q-99 0 -157 70t-58 185t58 185t157 70q100 0 158 -70t58 -185t-58 -185t-158 -70zM274 3q91 0 143 64.5t52 170.5t-52 170.5t-143 64.5t-142.5 -64.5t-51.5 -170.5t51.5 -170.5t142.5 -64.5zM154 587q4 39 22.5 60.5t45.5 21.5q24 0 64.5 -29t56.5 -29
q22 0 36 18t17 47l15 -3q-4 -39 -22.5 -60.5t-45.5 -21.5q-24 0 -64.5 29t-56.5 29q-21 0 -36 -18.5t-17 -46.5z" />
    <glyph glyph-name="odieresis" unicode="&#xf6;" horiz-adv-x="549" 
d="M274 -17q-99 0 -157 70t-58 185t58 185t157 70q100 0 158 -70t58 -185t-58 -185t-158 -70zM274 3q91 0 143 64.5t52 170.5t-52 170.5t-143 64.5t-142.5 -64.5t-51.5 -170.5t51.5 -170.5t142.5 -64.5zM178 630q0 10 6.5 16.5t16.5 6.5t16.5 -6.5t6.5 -16.5t-6.5 -16.5
t-16.5 -6.5t-16.5 6.5t-6.5 16.5zM330 630q0 10 6.5 16.5t16.5 6.5t16.5 -6.5t6.5 -16.5t-6.5 -16.5t-16.5 -6.5t-16.5 6.5t-6.5 16.5z" />
    <glyph glyph-name="divide" unicode="&#xf7;" 
d="M506 268v-19h-461v19h461zM253 414q0 10 6.5 16.5t16.5 6.5t16.5 -6.5t6.5 -16.5t-6.5 -16.5t-16.5 -6.5t-16.5 6.5t-6.5 16.5zM253 103q0 10 6.5 16.5t16.5 6.5t16.5 -6.5t6.5 -16.5t-6.5 -16.5t-16.5 -6.5t-16.5 6.5t-6.5 16.5z" />
    <glyph glyph-name="oslash" unicode="&#xf8;" horiz-adv-x="549" 
d="M274 -17q-63 0 -112 30l-20 -35l-20 5l24 41q-87 68 -87 214q0 115 58 185t157 70q68 0 120 -36l23 41l20 -5l-27 -48q80 -69 80 -207q0 -115 -58 -185t-158 -70zM80 238q0 -135 76 -196l228 398q-47 33 -110 33q-91 0 -142.5 -64.5t-51.5 -170.5zM274 3q91 0 143 64.5
t52 170.5q0 125 -70 189l-227 -396q44 -28 102 -28z" />
    <glyph glyph-name="ugrave" unicode="&#xf9;" horiz-adv-x="555" 
d="M92 475h20v-320q0 -73 33.5 -108t104.5 -35q50 0 95 29t75 76q16 26 16 57v301h20v-472l-20 -6v109q-34 -52 -83 -83t-103 -31q-158 0 -158 163v320zM297 562l-115 142h29l103 -142h-17z" />
    <glyph glyph-name="uacute" unicode="&#xfa;" horiz-adv-x="555" 
d="M92 475h20v-320q0 -73 33.5 -108t104.5 -35q50 0 95 29t75 76q16 26 16 57v301h20v-472l-20 -6v109q-34 -52 -83 -83t-103 -31q-158 0 -158 163v320zM366 704l-115 -142h-17l103 142h29z" />
    <glyph glyph-name="ucircumflex" unicode="&#xfb;" horiz-adv-x="555" 
d="M92 475h20v-320q0 -73 33.5 -108t104.5 -35q50 0 95 29t75 76q16 26 16 57v301h20v-472l-20 -6v109q-34 -52 -83 -83t-103 -31q-158 0 -158 163v320zM367 562l-94 121l-93 -121h-17l99 142h23l99 -142h-17z" />
    <glyph glyph-name="udieresis" unicode="&#xfc;" horiz-adv-x="555" 
d="M92 475h20v-320q0 -73 33.5 -108t104.5 -35q50 0 95 29t75 76q16 26 16 57v301h20v-472l-20 -6v109q-34 -52 -83 -83t-103 -31q-158 0 -158 163v320zM175 630q0 10 6.5 16.5t16.5 6.5t16.5 -6.5t6.5 -16.5t-6.5 -16.5t-16.5 -6.5t-16.5 6.5t-6.5 16.5zM327 630
q0 10 6.5 16.5t16.5 6.5t16.5 -6.5t6.5 -16.5t-6.5 -16.5t-16.5 -6.5t-16.5 6.5t-6.5 16.5z" />
    <glyph glyph-name="yacute" unicode="&#xfd;" horiz-adv-x="445" 
d="M65 -237q72 80 146 250l-192 462h22l180 -436l184 436h22l-207 -488q-63 -148 -128 -224h-27zM313 704l-115 -142h-17l103 142h29z" />
    <glyph glyph-name="thorn" unicode="&#xfe;" horiz-adv-x="565" 
d="M100 774l20 6v-329q69 42 156 42q99 0 164.5 -68.5t65.5 -182.5q0 -118 -66.5 -188.5t-181.5 -70.5q-78 0 -138 35v-245l-20 -10v1011zM275 473q-94 0 -155 -47v-383q58 -40 138 -40q105 0 166 65t61 174q0 105 -59.5 168t-150.5 63z" />
    <glyph glyph-name="ydieresis" unicode="&#xff;" horiz-adv-x="445" 
d="M65 -237q72 80 146 250l-192 462h22l180 -436l184 436h22l-207 -488q-63 -148 -128 -224h-27zM122 630q0 10 6.5 16.5t16.5 6.5t16.5 -6.5t6.5 -16.5t-6.5 -16.5t-16.5 -6.5t-16.5 6.5t-6.5 16.5zM274 630q0 10 6.5 16.5t16.5 6.5t16.5 -6.5t6.5 -16.5t-6.5 -16.5
t-16.5 -6.5t-16.5 6.5t-6.5 16.5z" />
    <glyph glyph-name="Amacron" unicode="&#x100;" horiz-adv-x="722" 
d="M12 0l348 770l23 5l327 -775h-21l-144 341h-358l-154 -341h-21zM372 750l-177 -390h342zM491 883v-19h-239v19h239z" />
    <glyph glyph-name="amacron" unicode="&#x101;" horiz-adv-x="482" 
d="M99 405v25q60 55 150 55q70 0 105.5 -37.5t35.5 -106.5v-339l-20 -10v100q-88 -104 -195 -104q-56 0 -91 31t-35 84q0 88 109 135q84 36 212 48v55q0 124 -121 124q-88 0 -147 -60h-3zM370 121v145q-117 -8 -204 -47q-96 -43 -96 -116q0 -42 27.5 -68.5t77.5 -26.5
q108 0 195 113zM363 639v-19h-247v19h247z" />
    <glyph glyph-name="Abreve" unicode="&#x102;" horiz-adv-x="722" 
d="M12 0l348 770l23 5l327 -775h-21l-144 341h-358l-154 -341h-21zM372 750l-177 -390h342zM372 854q43 0 67.5 21t24.5 61h17q0 -48 -29.5 -75t-79.5 -27q-49 0 -78.5 27t-29.5 75h17q0 -40 24 -61t67 -21z" />
    <glyph glyph-name="abreve" unicode="&#x103;" horiz-adv-x="482" 
d="M99 405v25q60 55 150 55q70 0 105.5 -37.5t35.5 -106.5v-339l-20 -10v100q-88 -104 -195 -104q-56 0 -91 31t-35 84q0 88 109 135q84 36 212 48v55q0 124 -121 124q-88 0 -147 -60h-3zM370 121v145q-117 -8 -204 -47q-96 -43 -96 -116q0 -42 27.5 -68.5t77.5 -26.5
q108 0 195 113zM239 594q43 0 67.5 25.5t24.5 72.5h17q0 -55 -30 -86.5t-79 -31.5t-78.5 31.5t-29.5 86.5h17q0 -47 24.5 -72.5t66.5 -25.5z" />
    <glyph glyph-name="Aogonek" unicode="&#x104;" horiz-adv-x="722" 
d="M12 0l348 770l23 5l327 -775q-63 -68 -84 -102t-21 -64q0 -51 46 -51q33 0 54 22h1l-4 -28q-18 -14 -51 -14q-31 0 -49 18.5t-18 52.5q0 35 21.5 68.5t83.5 97.5l-144 341h-358l-154 -341h-21zM372 750l-177 -390h342z" />
    <glyph glyph-name="aogonek" unicode="&#x105;" horiz-adv-x="482" 
d="M370 0v92q-88 -104 -195 -104q-56 0 -91 31t-35 84q0 88 109 135q84 36 212 48v55q0 124 -121 124q-88 0 -147 -60h-3v25q60 55 150 55q70 0 105.5 -37.5t35.5 -106.5v-341q-64 -71 -84.5 -104t-20.5 -62q0 -51 46 -51q32 0 54 22h1l-4 -28q-18 -14 -51 -14
q-31 0 -49 18.5t-18 52.5q0 35 21.5 68.5t84.5 97.5zM370 121v145q-117 -8 -204 -47q-96 -43 -96 -116q0 -42 27.5 -68.5t77.5 -26.5q108 0 195 113z" />
    <glyph glyph-name="Cacute" unicode="&#x106;" horiz-adv-x="750" 
d="M677 715l-10 -24q-74 74 -229 74q-152 0 -254.5 -111t-102.5 -269q0 -172 97.5 -275t250.5 -103q154 0 256 90l-7 -34q-102 -76 -249 -76q-162 0 -265.5 110.5t-103.5 287.5q0 166 109 283t269 117q144 0 239 -70zM514 945l-118 -111h-19l103 111h34z" />
    <glyph glyph-name="cacute" unicode="&#x107;" horiz-adv-x="514" 
d="M470 77l-7 -34q-64 -60 -163 -60q-110 0 -173.5 66t-63.5 181q0 114 66.5 188.5t181.5 74.5q91 0 155 -46l-8 -23q-59 49 -147 49q-106 0 -166.5 -68t-60.5 -175q0 -99 56 -163t160 -64q98 0 167 74h3zM385 704l-115 -142h-17l103 142h29z" />
    <glyph glyph-name="Ccircumflex" unicode="&#x108;" horiz-adv-x="750" 
d="M677 715l-10 -24q-74 74 -229 74q-152 0 -254.5 -111t-102.5 -269q0 -172 97.5 -275t250.5 -103q154 0 256 90l-7 -34q-102 -76 -249 -76q-162 0 -265.5 110.5t-103.5 287.5q0 166 109 283t269 117q144 0 239 -70zM530 834l-101 92l-100 -92h-21l107 111h29l107 -111h-21
z" />
    <glyph glyph-name="ccircumflex" unicode="&#x109;" horiz-adv-x="514" 
d="M470 77l-7 -34q-64 -60 -163 -60q-110 0 -173.5 66t-63.5 181q0 114 66.5 188.5t181.5 74.5q91 0 155 -46l-8 -23q-59 49 -147 49q-106 0 -166.5 -68t-60.5 -175q0 -99 56 -163t160 -64q98 0 167 74h3zM386 562l-94 121l-93 -121h-17l99 142h23l99 -142h-17z" />
    <glyph glyph-name="Cdotaccent" unicode="&#x10a;" horiz-adv-x="750" 
d="M677 715l-10 -24q-74 74 -229 74q-152 0 -254.5 -111t-102.5 -269q0 -172 97.5 -275t250.5 -103q154 0 256 90l-7 -34q-102 -76 -249 -76q-162 0 -265.5 110.5t-103.5 287.5q0 166 109 283t269 117q144 0 239 -70zM409 885q0 8 6 14t14 6t14 -6t6 -14t-6 -14t-14 -6
t-14 6t-6 14z" />
    <glyph glyph-name="cdotaccent" unicode="&#x10b;" horiz-adv-x="514" 
d="M470 77l-7 -34q-64 -60 -163 -60q-110 0 -173.5 66t-63.5 181q0 114 66.5 188.5t181.5 74.5q91 0 155 -46l-8 -23q-59 49 -147 49q-106 0 -166.5 -68t-60.5 -175q0 -99 56 -163t160 -64q98 0 167 74h3zM269 630q0 10 6.5 16.5t16.5 6.5t16.5 -6.5t6.5 -16.5t-6.5 -16.5
t-16.5 -6.5t-16.5 6.5t-6.5 16.5z" />
    <glyph glyph-name="Ccaron" unicode="&#x10c;" horiz-adv-x="750" 
d="M677 715l-10 -24q-74 74 -229 74q-152 0 -254.5 -111t-102.5 -269q0 -172 97.5 -275t250.5 -103q154 0 256 90l-7 -34q-102 -76 -249 -76q-162 0 -265.5 110.5t-103.5 287.5q0 166 109 283t269 117q144 0 239 -70zM307 945h21l100 -93l101 93h21l-107 -111h-29z" />
    <glyph glyph-name="ccaron" unicode="&#x10d;" horiz-adv-x="514" 
d="M470 77l-7 -34q-64 -60 -163 -60q-110 0 -173.5 66t-63.5 181q0 114 66.5 188.5t181.5 74.5q91 0 155 -46l-8 -23q-59 49 -147 49q-106 0 -166.5 -68t-60.5 -175q0 -99 56 -163t160 -64q98 0 167 74h3zM182 704h17l93 -121l94 121h17l-99 -142h-23z" />
    <glyph glyph-name="Dcaron" unicode="&#x10e;" horiz-adv-x="735" 
d="M248 0h-133v772h135q200 0 312.5 -103t112.5 -273q0 -190 -110 -293t-317 -103zM135 753v-734h114q196 0 300.5 98t104.5 279q0 161 -106 259t-298 98h-115zM199 945h21l100 -93l101 93h21l-107 -111h-29z" />
    <glyph glyph-name="dcaron" unicode="&#x10f;" horiz-adv-x="563" 
d="M443 -8v41q-74 -50 -161 -50q-103 0 -163 72t-60 181q0 111 70 184t171 73q75 0 143 -38v319l20 6v-778zM282 3q87 0 161 55v372q-63 43 -143 43q-93 0 -156.5 -67t-63.5 -170q0 -101 54.5 -167t147.5 -66zM564 780q13 -27 13 -60q0 -50 -59 -123h-17q55 76 55 123
q0 27 -13 52z" />
    <glyph glyph-name="Dcroat" unicode="&#x110;" horiz-adv-x="735" 
d="M248 0h-133v386h-72v19h72v367h135q200 0 312.5 -103t112.5 -273q0 -190 -110 -293t-317 -103zM135 753v-348h165v-19h-165v-367h114q196 0 300.5 98t104.5 279q0 161 -106 259t-298 98h-115z" />
    <glyph glyph-name="dcroat" unicode="&#x111;" horiz-adv-x="563" 
d="M443 -8v41q-74 -50 -161 -50q-103 0 -163 72t-60 181q0 111 70 184t171 73q75 0 143 -38v165h-174v19h174v135l20 6v-141h62v-19h-62v-618zM282 3q87 0 161 55v372q-63 43 -143 43q-93 0 -156.5 -67t-63.5 -170q0 -101 54.5 -167t147.5 -66z" />
    <glyph glyph-name="Emacron" unicode="&#x112;" horiz-adv-x="562" 
d="M135 753v-337h321v-19h-321v-378h367v-19h-387v772h375v-19h-355zM421 883v-19h-239v19h239z" />
    <glyph glyph-name="emacron" unicode="&#x113;" horiz-adv-x="501" 
d="M269 222q-88 -21 -193 -33q6 -84 59 -135t137 -51q100 0 157 73h3l2 -27q-64 -66 -162 -66q-105 0 -161 65t-56 162q0 111 71.5 197t179.5 86q65 0 101 -34.5t36 -88.5q0 -108 -174 -148zM306 473q-99 0 -164.5 -80.5t-65.5 -182.5q98 10 188 31q87 21 122.5 53t35.5 76
t-30 73.5t-86 29.5zM406 639v-19h-247v19h247z" />
    <glyph glyph-name="Ebreve" unicode="&#x114;" horiz-adv-x="562" 
d="M135 753v-337h321v-19h-321v-378h367v-19h-387v772h375v-19h-355zM302 854q43 0 67.5 21t24.5 61h17q0 -48 -29.5 -75t-79.5 -27q-49 0 -78.5 27t-29.5 75h17q0 -40 24 -61t67 -21z" />
    <glyph glyph-name="ebreve" unicode="&#x115;" horiz-adv-x="501" 
d="M269 222q-88 -21 -193 -33q6 -84 59 -135t137 -51q100 0 157 73h3l2 -27q-64 -66 -162 -66q-105 0 -161 65t-56 162q0 111 71.5 197t179.5 86q65 0 101 -34.5t36 -88.5q0 -108 -174 -148zM306 473q-99 0 -164.5 -80.5t-65.5 -182.5q98 10 188 31q87 21 122.5 53t35.5 76
t-30 73.5t-86 29.5zM282 594q43 0 67.5 25.5t24.5 72.5h17q0 -55 -30 -86.5t-79 -31.5t-78.5 31.5t-29.5 86.5h17q0 -47 24.5 -72.5t66.5 -25.5z" />
    <glyph glyph-name="Edotaccent" unicode="&#x116;" horiz-adv-x="562" 
d="M135 753v-337h321v-19h-321v-378h367v-19h-387v772h375v-19h-355zM282 885q0 8 6 14t14 6t14 -6t6 -14t-6 -14t-14 -6t-14 6t-6 14z" />
    <glyph glyph-name="edotaccent" unicode="&#x117;" horiz-adv-x="501" 
d="M269 222q-88 -21 -193 -33q6 -84 59 -135t137 -51q100 0 157 73h3l2 -27q-64 -66 -162 -66q-105 0 -161 65t-56 162q0 111 71.5 197t179.5 86q65 0 101 -34.5t36 -88.5q0 -108 -174 -148zM306 473q-99 0 -164.5 -80.5t-65.5 -182.5q98 10 188 31q87 21 122.5 53t35.5 76
t-30 73.5t-86 29.5zM258 630q0 10 6.5 16.5t16.5 6.5t16.5 -6.5t6.5 -16.5t-6.5 -16.5t-16.5 -6.5t-16.5 6.5t-6.5 16.5z" />
    <glyph glyph-name="Eogonek" unicode="&#x118;" horiz-adv-x="562" 
d="M482 0h-367v772h375v-19h-355v-337h321v-19h-321v-378h367v-19q-64 -71 -84.5 -104t-20.5 -62q0 -51 46 -51q32 0 54 22h1l-4 -28q-18 -14 -51 -14q-31 0 -49 18.5t-18 52.5q0 35 21.5 68.5t84.5 97.5z" />
    <glyph glyph-name="eogonek" unicode="&#x119;" horiz-adv-x="501" 
d="M357 -237q-31 0 -49 18.5t-18 52.5q0 37 18.5 72.5t75.5 104.5q-53 -28 -112 -28q-105 0 -161 65t-56 162q0 111 71.5 197t179.5 86q65 0 101 -34.5t36 -88.5q0 -108 -174 -148q-88 -21 -193 -33q6 -84 59 -135t137 -51q100 0 157 73h3l2 -27q-75 -92 -99 -135t-24 -80
q0 -51 46 -51q32 0 54 22h1l-4 -28q-18 -14 -51 -14zM306 473q-99 0 -164.5 -80.5t-65.5 -182.5q98 10 188 31q87 21 122.5 53t35.5 76t-30 73.5t-86 29.5z" />
    <glyph glyph-name="Ecaron" unicode="&#x11a;" horiz-adv-x="562" 
d="M135 753v-337h321v-19h-321v-378h367v-19h-387v772h375v-19h-355zM180 945h21l100 -93l101 93h21l-107 -111h-29z" />
    <glyph glyph-name="ecaron" unicode="&#x11b;" horiz-adv-x="501" 
d="M269 222q-88 -21 -193 -33q6 -84 59 -135t137 -51q100 0 157 73h3l2 -27q-64 -66 -162 -66q-105 0 -161 65t-56 162q0 111 71.5 197t179.5 86q65 0 101 -34.5t36 -88.5q0 -108 -174 -148zM306 473q-99 0 -164.5 -80.5t-65.5 -182.5q98 10 188 31q87 21 122.5 53t35.5 76
t-30 73.5t-86 29.5zM171 704h17l93 -121l94 121h17l-99 -142h-23z" />
    <glyph glyph-name="Gcircumflex" unicode="&#x11c;" horiz-adv-x="778" 
d="M698 344v-242q-109 -115 -268 -115q-162 0 -266 111.5t-104 288.5q0 174 102 286t262 112q150 0 250 -77l-8 -24q-97 81 -242 81q-152 0 -247.5 -107t-95.5 -271q0 -168 97.5 -274t251.5 -106q149 0 248 104v233h20zM516 834l-101 92l-100 -92h-21l107 111h29l107 -111
h-21z" />
    <glyph glyph-name="gcircumflex" unicode="&#x11d;" horiz-adv-x="528" 
d="M255 483q63 0 112 -32q45 58 111 58v-21q-55 0 -95 -49q53 -47 53 -113q0 -58 -41.5 -95t-111.5 -50q-21 -4 -58 -9t-51 -8q-73 -16 -73 -47q0 -32 76 -50q24 -6 96 -15.5t93 -14.5q52 -12 76 -38.5t24 -70.5q0 -69 -66 -117t-159 -48q-86 0 -137 42.5t-51 101.5
q0 80 78 125q20 11 40 17q-21 4 -35 9q-56 21 -56 59q0 46 85 65q11 2 25 4q-16 5 -33 15q-76 46 -76 122q0 67 50 113.5t124 46.5zM360 18q-17 4 -75.5 11.5t-88.5 12.5q-62 -24 -92 -55.5t-30 -79.5q0 -51 45.5 -87.5t121.5 -36.5q87 0 145.5 43.5t58.5 101.5q0 72 -85 90
zM101 323q0 -38 25 -69.5t68 -51.5q15 -7 33 -7q21 0 53 5q59 9 97 42.5t38 83.5q0 57 -43.5 97t-116.5 40q-67 0 -110.5 -40t-43.5 -100zM362 562l-94 121l-93 -121h-17l99 142h23l99 -142h-17z" />
    <glyph glyph-name="Gbreve" unicode="&#x11e;" horiz-adv-x="778" 
d="M698 344v-242q-109 -115 -268 -115q-162 0 -266 111.5t-104 288.5q0 174 102 286t262 112q150 0 250 -77l-8 -24q-97 81 -242 81q-152 0 -247.5 -107t-95.5 -271q0 -168 97.5 -274t251.5 -106q149 0 248 104v233h20zM415 854q43 0 67.5 21t24.5 61h17q0 -48 -29.5 -75
t-79.5 -27q-49 0 -78.5 27t-29.5 75h17q0 -40 24 -61t67 -21z" />
    <glyph glyph-name="gbreve" unicode="&#x11f;" horiz-adv-x="528" 
d="M255 483q63 0 112 -32q45 58 111 58v-21q-55 0 -95 -49q53 -47 53 -113q0 -58 -41.5 -95t-111.5 -50q-21 -4 -58 -9t-51 -8q-73 -16 -73 -47q0 -32 76 -50q24 -6 96 -15.5t93 -14.5q52 -12 76 -38.5t24 -70.5q0 -69 -66 -117t-159 -48q-86 0 -137 42.5t-51 101.5
q0 80 78 125q20 11 40 17q-21 4 -35 9q-56 21 -56 59q0 46 85 65q11 2 25 4q-16 5 -33 15q-76 46 -76 122q0 67 50 113.5t124 46.5zM360 18q-17 4 -75.5 11.5t-88.5 12.5q-62 -24 -92 -55.5t-30 -79.5q0 -51 45.5 -87.5t121.5 -36.5q87 0 145.5 43.5t58.5 101.5q0 72 -85 90
zM101 323q0 -38 25 -69.5t68 -51.5q15 -7 33 -7q21 0 53 5q59 9 97 42.5t38 83.5q0 57 -43.5 97t-116.5 40q-67 0 -110.5 -40t-43.5 -100zM269 594q43 0 67.5 25.5t24.5 72.5h17q0 -55 -30 -86.5t-79 -31.5t-78.5 31.5t-29.5 86.5h17q0 -47 24.5 -72.5t66.5 -25.5z" />
    <glyph glyph-name="Gdotaccent" unicode="&#x120;" horiz-adv-x="778" 
d="M698 344v-242q-109 -115 -268 -115q-162 0 -266 111.5t-104 288.5q0 174 102 286t262 112q150 0 250 -77l-8 -24q-97 81 -242 81q-152 0 -247.5 -107t-95.5 -271q0 -168 97.5 -274t251.5 -106q149 0 248 104v233h20zM395 885q0 8 6 14t14 6t14 -6t6 -14t-6 -14t-14 -6
t-14 6t-6 14z" />
    <glyph glyph-name="gdotaccent" unicode="&#x121;" horiz-adv-x="528" 
d="M255 483q63 0 112 -32q45 58 111 58v-21q-55 0 -95 -49q53 -47 53 -113q0 -58 -41.5 -95t-111.5 -50q-21 -4 -58 -9t-51 -8q-73 -16 -73 -47q0 -32 76 -50q24 -6 96 -15.5t93 -14.5q52 -12 76 -38.5t24 -70.5q0 -69 -66 -117t-159 -48q-86 0 -137 42.5t-51 101.5
q0 80 78 125q20 11 40 17q-21 4 -35 9q-56 21 -56 59q0 46 85 65q11 2 25 4q-16 5 -33 15q-76 46 -76 122q0 67 50 113.5t124 46.5zM360 18q-17 4 -75.5 11.5t-88.5 12.5q-62 -24 -92 -55.5t-30 -79.5q0 -51 45.5 -87.5t121.5 -36.5q87 0 145.5 43.5t58.5 101.5q0 72 -85 90
zM101 323q0 -38 25 -69.5t68 -51.5q15 -7 33 -7q21 0 53 5q59 9 97 42.5t38 83.5q0 57 -43.5 97t-116.5 40q-67 0 -110.5 -40t-43.5 -100zM245 630q0 10 6.5 16.5t16.5 6.5t16.5 -6.5t6.5 -16.5t-6.5 -16.5t-16.5 -6.5t-16.5 6.5t-6.5 16.5z" />
    <glyph glyph-name="Gcommaaccent" unicode="&#x122;" horiz-adv-x="778" 
d="M698 344v-242q-109 -115 -268 -115q-162 0 -266 111.5t-104 288.5q0 174 102 286t262 112q150 0 250 -77l-8 -24q-97 81 -242 81q-152 0 -247.5 -107t-95.5 -271q0 -168 97.5 -274t251.5 -106q149 0 248 104v233h20zM446 -73q13 -22 13 -47q0 -49 -67 -117h-22
q38 40 53 65.5t15 51.5q0 20 -12 39z" />
    <glyph glyph-name="gcommaaccent" unicode="&#x123;" horiz-adv-x="528" 
d="M255 483q63 0 112 -32q45 58 111 58v-21q-55 0 -95 -49q53 -47 53 -113q0 -58 -41.5 -95t-111.5 -50q-21 -4 -58 -9t-51 -8q-73 -16 -73 -47q0 -32 76 -50q24 -6 96 -15.5t93 -14.5q52 -12 76 -38.5t24 -70.5q0 -69 -66 -117t-159 -48q-86 0 -137 42.5t-51 101.5
q0 80 78 125q20 11 40 17q-21 4 -35 9q-56 21 -56 59q0 46 85 65q11 2 25 4q-16 5 -33 15q-76 46 -76 122q0 67 50 113.5t124 46.5zM360 18q-17 4 -75.5 11.5t-88.5 12.5q-62 -24 -92 -55.5t-30 -79.5q0 -51 45.5 -87.5t121.5 -36.5q87 0 145.5 43.5t58.5 101.5q0 72 -85 90
zM101 323q0 -38 25 -69.5t68 -51.5q15 -7 33 -7q21 0 53 5q59 9 97 42.5t38 83.5q0 57 -43.5 97t-116.5 40q-67 0 -110.5 -40t-43.5 -100zM240 559q-13 22 -13 47q0 49 67 117h22q-68 -69 -68 -117q0 -20 12 -39z" />
    <glyph glyph-name="Hcircumflex" unicode="&#x124;" horiz-adv-x="757" 
d="M135 0h-20v772h20v-362h487v362h20v-772h-20v391h-487v-391zM479 834l-101 92l-100 -92h-21l107 111h29l107 -111h-21z" />
    <glyph glyph-name="hcircumflex" unicode="&#x125;" horiz-adv-x="555" 
d="M100 0v774l20 6v-424q10 23 25 41q71 87 166 87q152 0 152 -169v-315h-20v311q0 153 -132 153q-89 0 -152 -80q-23 -29 -31 -52.5t-8 -59.5v-272h-20zM352 834l-101 92l-100 -92h-21l107 111h29l107 -111h-21z" />
    <glyph glyph-name="Hbar" unicode="&#x126;" horiz-adv-x="757" 
d="M135 0h-20v590h-72v19h72v163h20v-163h487v163h20v-163h73v-19h-73v-590h-20v391h-487v-391zM135 410h487v180h-487v-180z" />
    <glyph glyph-name="hbar" unicode="&#x127;" horiz-adv-x="555" 
d="M100 0v620h-62v19h62v135l20 6v-141h175v-19h-175v-264q10 23 25 41q71 87 166 87q152 0 152 -169v-315h-20v311q0 153 -132 153q-89 0 -152 -80q-23 -29 -31 -52.5t-8 -59.5v-272h-20z" />
    <glyph glyph-name="Itilde" unicode="&#x128;" horiz-adv-x="250" 
d="M135 0h-20v772h20v-772zM3 848q4 39 22.5 60.5t45.5 21.5q23 0 63 -29t56 -29q22 0 36 18t17 47l15 -3q-4 -39 -22.5 -60.5t-45.5 -21.5q-23 0 -63 29t-56 29q-21 0 -36 -18.5t-17 -46.5z" />
    <glyph glyph-name="itilde" unicode="&#x129;" horiz-adv-x="220" 
d="M-2 591q4 39 22.5 60.5t45.5 21.5q20 0 54 -29t47 -29q21 0 34.5 18t16.5 47l17 -3q-4 -39 -22.5 -60.5t-45.5 -21.5q-19 0 -53 29t-48 29q-21 0 -35 -18.5t-16 -46.5zM100 472l20 6v-478h-20v472z" />
    <glyph glyph-name="Imacron" unicode="&#x12a;" horiz-adv-x="250" 
d="M135 0h-20v772h20v-772zM243 883v-19h-239v19h239z" />
    <glyph glyph-name="imacron" unicode="&#x12b;" horiz-adv-x="220" 
d="M223 640v-19h-227v19h227zM100 472l20 6v-478h-20v472z" />
    <glyph glyph-name="Ibreve" unicode="&#x12c;" horiz-adv-x="250" 
d="M135 0h-20v772h20v-772zM124 854q43 0 67.5 21t24.5 61h17q0 -48 -29.5 -75t-79.5 -27q-49 0 -78.5 27t-29.5 75h17q0 -40 24 -61t67 -21z" />
    <glyph glyph-name="ibreve" unicode="&#x12d;" horiz-adv-x="220" 
d="M100 472l20 6v-478h-20v472zM109 594q43 0 67.5 25.5t24.5 72.5h17q0 -55 -30 -86.5t-79 -31.5t-78.5 31.5t-29.5 86.5h17q0 -47 24.5 -72.5t66.5 -25.5z" />
    <glyph glyph-name="Iogonek" unicode="&#x12e;" horiz-adv-x="250" 
d="M135 0q-44 -69 -58 -102.5t-14 -63.5q0 -51 46 -51q33 0 54 22h1l-4 -28q-17 -14 -51 -14q-31 0 -49 18.5t-18 52.5q0 35 15 69t58 97v772h20v-772z" />
    <glyph glyph-name="iogonek" unicode="&#x12f;" horiz-adv-x="220" 
d="M100 472l20 6v-478q-44 -69 -58 -102.5t-14 -63.5q0 -51 46 -51q32 0 54 22h1l-4 -28q-17 -14 -51 -14q-31 0 -49 18.5t-18 52.5q0 35 15 69t58 97v472zM87 662q0 10 6.5 16.5t16.5 6.5t16.5 -6.5t6.5 -16.5t-6.5 -16.5t-16.5 -6.5t-16.5 6.5t-6.5 16.5z" />
    <glyph glyph-name="Idotaccent" unicode="&#x130;" horiz-adv-x="250" 
d="M135 0h-20v772h20v-772zM104 885q0 8 6 14t14 6t14 -6t6 -14t-6 -14t-14 -6t-14 6t-6 14z" />
    <glyph glyph-name="dotlessi" unicode="&#x131;" horiz-adv-x="220" 
d="M100 472l20 6v-478h-20v472z" />
    <glyph glyph-name="IJ" unicode="&#x132;" horiz-adv-x="450" 
d="M134 0h-20v772h20v-772zM319 772h20v-654q0 -146 -23.5 -215.5t-68.5 -114.5l-54 -25l-4 8q73 48 101.5 122.5t28.5 224.5v654z" />
    <glyph glyph-name="ij" unicode="&#x133;" horiz-adv-x="387" 
d="M100 472l20 6v-478h-20v472zM87 662q0 10 6.5 16.5t16.5 6.5t16.5 -6.5t6.5 -16.5t-6.5 -16.5t-16.5 -6.5t-16.5 6.5t-6.5 16.5zM267 472l20 6v-509q0 -79 -14.5 -117.5t-43.5 -66.5l-47 -22l-4 8q54 37 71.5 77t17.5 121v503zM254 662q0 10 6.5 16.5t16.5 6.5t16.5 -6.5
t6.5 -16.5t-6.5 -16.5t-16.5 -6.5t-16.5 6.5t-6.5 16.5z" />
    <glyph glyph-name="Jcircumflex" unicode="&#x134;" horiz-adv-x="247" 
d="M115 772h20v-654q0 -146 -23.5 -215.5t-68.5 -114.5l-54 -25l-4 8q73 48 101.5 122.5t28.5 224.5v654zM226 834l-101 92l-100 -92h-21l107 111h29l107 -111h-21z" />
    <glyph glyph-name="jcircumflex" unicode="&#x135;" horiz-adv-x="220" 
d="M100 472l20 6v-509q0 -79 -14.5 -117.5t-43.5 -66.5l-47 -22l-4 8q54 37 71.5 77t17.5 121v503zM202 562l-94 121l-93 -121h-17l99 142h23l99 -142h-17z" />
    <glyph glyph-name="Kcommaaccent" unicode="&#x136;" horiz-adv-x="636" 
d="M585 0l-448 393l408 379h30l-407 -379l447 -393h-30zM135 0h-20v772h20v-772zM363 -73q13 -22 13 -47q0 -49 -67 -117h-22q38 40 53 65.5t15 51.5q0 20 -12 39z" />
    <glyph glyph-name="kcommaaccent" unicode="&#x137;" horiz-adv-x="479" 
d="M120 780v-518l264 213h33l-267 -213l321 -262h-32l-319 259v-259h-20v774zM286 -73q13 -22 13 -47q0 -49 -67 -117h-22q38 40 53 65.5t15 51.5q0 20 -12 39z" />
    <glyph glyph-name="kgreenlandic" unicode="&#x138;" horiz-adv-x="479" 
d="M120 475v-213l264 213h33l-267 -213l353 -262h-32l-351 259v-259h-20v475h20z" />
    <glyph glyph-name="Lacute" unicode="&#x139;" horiz-adv-x="597" 
d="M115 0v772h20v-753h441v-19h-461zM248 945l-118 -111h-19l103 111h34z" />
    <glyph glyph-name="lacute" unicode="&#x13a;" horiz-adv-x="220" 
d="M120 780v-780h-20v774zM200 945l-118 -111h-19l103 111h34z" />
    <glyph glyph-name="Lcommaaccent" unicode="&#x13b;" horiz-adv-x="597" 
d="M115 0v772h20v-753h441v-19h-461zM361 -73q13 -22 13 -47q0 -49 -67 -117h-22q38 40 53 65.5t15 51.5q0 20 -12 39z" />
    <glyph glyph-name="lcommaaccent" unicode="&#x13c;" horiz-adv-x="220" 
d="M120 780v-780h-20v774zM125 -73q13 -22 13 -47q0 -49 -67 -117h-22q38 40 53 65.5t15 51.5q0 20 -12 39z" />
    <glyph glyph-name="Lcaron" unicode="&#x13d;" horiz-adv-x="597" 
d="M115 0v772h20v-753h441v-19h-461zM293 780q13 -27 13 -60q0 -50 -59 -123h-17q55 76 55 123q0 27 -13 52z" />
    <glyph glyph-name="lcaron" unicode="&#x13e;" horiz-adv-x="220" 
d="M120 780v-780h-20v774zM221 780q13 -27 13 -60q0 -50 -59 -123h-17q55 76 55 123q0 27 -13 52z" />
    <glyph glyph-name="Ldot" unicode="&#x13f;" horiz-adv-x="597" 
d="M115 0v772h20v-753h441v-19h-461zM403 455q0 8 6 14t14 6t14 -6t6 -14t-6 -14t-14 -6t-14 6t-6 14z" />
    <glyph glyph-name="ldot" unicode="&#x140;" horiz-adv-x="290" 
d="M120 780v-780h-20v774zM231 369q0 10 6.5 16.5t16.5 6.5t16.5 -6.5t6.5 -16.5t-6.5 -16.5t-16.5 -6.5t-16.5 6.5t-6.5 16.5z" />
    <glyph glyph-name="Lslash" unicode="&#x141;" horiz-adv-x="597" 
d="M115 0v386l-72 -47v22l72 47v364h20v-351l150 100v-22l-150 -100v-380h441v-19h-461z" />
    <glyph glyph-name="lslash" unicode="&#x142;" horiz-adv-x="238" 
d="M129 780v-355l76 51v-22l-76 -51v-403h-20v390l-76 -50v22l76 50v362z" />
    <glyph glyph-name="Nacute" unicode="&#x143;" horiz-adv-x="859" 
d="M724 772h20v-772h-30l-579 752v-752h-20v772h30l579 -753v753zM514 945l-118 -111h-19l103 111h34z" />
    <glyph glyph-name="nacute" unicode="&#x144;" horiz-adv-x="555" 
d="M100 0v475h20v-119q10 23 25 41q71 87 166 87q152 0 152 -169v-315h-20v311q0 153 -132 153q-89 0 -152 -80q-23 -29 -31 -52.5t-8 -59.5v-272h-20zM374 704l-115 -142h-17l103 142h29z" />
    <glyph glyph-name="Ncommaaccent" unicode="&#x145;" horiz-adv-x="859" 
d="M724 772h20v-772h-30l-579 752v-752h-20v772h30l579 -753v753zM445 -73q13 -22 13 -47q0 -49 -67 -117h-22q38 40 53 65.5t15 51.5q0 20 -12 39z" />
    <glyph glyph-name="ncommaaccent" unicode="&#x146;" horiz-adv-x="555" 
d="M100 0v475h20v-119q10 23 25 41q71 87 166 87q152 0 152 -169v-315h-20v311q0 153 -132 153q-89 0 -152 -80q-23 -29 -31 -52.5t-8 -59.5v-272h-20zM297 -73q13 -22 13 -47q0 -49 -67 -117h-22q38 40 53 65.5t15 51.5q0 20 -12 39z" />
    <glyph glyph-name="Ncaron" unicode="&#x147;" horiz-adv-x="859" 
d="M724 772h20v-772h-30l-579 752v-752h-20v772h30l579 -753v753zM307 945h21l100 -93l101 93h21l-107 -111h-29z" />
    <glyph glyph-name="ncaron" unicode="&#x148;" horiz-adv-x="555" 
d="M100 0v475h20v-119q10 23 25 41q71 87 166 87q152 0 152 -169v-315h-20v311q0 153 -132 153q-89 0 -152 -80q-23 -29 -31 -52.5t-8 -59.5v-272h-20zM171 704h17l93 -121l94 121h17l-99 -142h-23z" />
    <glyph glyph-name="napostrophe" unicode="&#x149;" horiz-adv-x="555" 
d="M100 0v475h20v-119q10 23 25 41q71 87 166 87q152 0 152 -169v-315h-20v311q0 153 -132 153q-89 0 -152 -80q-23 -29 -31 -52.5t-8 -59.5v-272h-20zM91 780q13 -27 13 -60q0 -50 -59 -123h-17q55 76 55 123q0 27 -13 52z" />
    <glyph glyph-name="Eng" unicode="&#x14a;" horiz-adv-x="859" 
d="M724 772h20v-835q0 -82 -36 -128t-102 -46q-48 0 -73 24l-3 30q31 -34 76 -34q55 0 86.5 40t31.5 114v50l-589 765v-752h-20v772h30l579 -753v753z" />
    <glyph glyph-name="eng" unicode="&#x14b;" horiz-adv-x="555" 
d="M100 0v475h20v-119q10 23 25 41q71 87 166 87q152 0 152 -169v-401q0 -72 -30 -111.5t-86 -39.5q-36 0 -56 17l-3 28q23 -25 59 -25q96 0 96 131v397q0 153 -132 153q-89 0 -152 -80q-23 -29 -31 -52.5t-8 -59.5v-272h-20z" />
    <glyph glyph-name="Omacron" unicode="&#x14c;" horiz-adv-x="832" 
d="M751 386q0 167 -94 274t-241 107t-241 -107t-94 -274t94 -274t241 -107t241 107t94 274zM772 386q0 -175 -100 -288t-256 -113t-256 113t-100 288t100 288t256 113t256 -113t100 -288zM535 883v-19h-239v19h239z" />
    <glyph glyph-name="omacron" unicode="&#x14d;" horiz-adv-x="549" 
d="M274 -17q-99 0 -157 70t-58 185t58 185t157 70q100 0 158 -70t58 -185t-58 -185t-158 -70zM274 3q91 0 143 64.5t52 170.5t-52 170.5t-143 64.5t-142.5 -64.5t-51.5 -170.5t51.5 -170.5t142.5 -64.5zM401 639v-19h-247v19h247z" />
    <glyph glyph-name="Obreve" unicode="&#x14e;" horiz-adv-x="832" 
d="M751 386q0 167 -94 274t-241 107t-241 -107t-94 -274t94 -274t241 -107t241 107t94 274zM772 386q0 -175 -100 -288t-256 -113t-256 113t-100 288t100 288t256 113t256 -113t100 -288zM416 854q43 0 67.5 21t24.5 61h17q0 -48 -29.5 -75t-79.5 -27q-49 0 -78.5 27
t-29.5 75h17q0 -40 24 -61t67 -21z" />
    <glyph glyph-name="obreve" unicode="&#x14f;" horiz-adv-x="549" 
d="M274 -17q-99 0 -157 70t-58 185t58 185t157 70q100 0 158 -70t58 -185t-58 -185t-158 -70zM274 3q91 0 143 64.5t52 170.5t-52 170.5t-143 64.5t-142.5 -64.5t-51.5 -170.5t51.5 -170.5t142.5 -64.5zM277 594q43 0 67.5 25.5t24.5 72.5h17q0 -55 -30 -86.5t-79 -31.5
t-78.5 31.5t-29.5 86.5h17q0 -47 24.5 -72.5t66.5 -25.5z" />
    <glyph glyph-name="Ohungarumlaut" unicode="&#x150;" horiz-adv-x="832" 
d="M751 386q0 167 -94 274t-241 107t-241 -107t-94 -274t94 -274t241 -107t241 107t94 274zM772 386q0 -175 -100 -288t-256 -113t-256 113t-100 288t100 288t256 113t256 -113t100 -288zM432 945h34l-105 -111h-21zM535 945h34l-105 -111h-21z" />
    <glyph glyph-name="ohungarumlaut" unicode="&#x151;" horiz-adv-x="549" 
d="M274 -17q-99 0 -157 70t-58 185t58 185t157 70q100 0 158 -70t58 -185t-58 -185t-158 -70zM274 3q91 0 143 64.5t52 170.5t-52 170.5t-143 64.5t-142.5 -64.5t-51.5 -170.5t51.5 -170.5t142.5 -64.5zM321 704l-102 -142h-19l92 142h29zM420 704l-102 -142h-19l92 142h29z
" />
    <glyph glyph-name="OE" unicode="&#x152;" horiz-adv-x="924" 
d="M517 753v-337h301v-19h-301v-378h347v-19h-437q-158 0 -262.5 109t-104.5 277t105 277t262 109h437v-19h-347zM81 386q0 -160 98.5 -263.5t247.5 -103.5h70v734h-70q-149 0 -247.5 -103.5t-98.5 -263.5z" />
    <glyph glyph-name="oe" unicode="&#x153;" horiz-adv-x="872" 
d="M260 492q75 0 127 -50.5t65 -140.5q24 83 84.5 137.5t141.5 54.5q65 0 101 -34.5t36 -88.5q0 -52 -40 -89t-134 -59q-83 -21 -183 -33q6 -82 56 -131.5t130 -49.5q100 0 157 73h3l2 -27q-64 -66 -162 -66q-82 0 -132.5 44t-66.5 116q-19 -79 -68.5 -119.5t-116.5 -40.5
q-90 0 -145.5 68.5t-55.5 188.5q0 113 56.5 180t144.5 67zM260 8q80 0 128.5 63.5t48.5 172.5q0 96 -49.5 162t-127.5 66q-79 0 -129.5 -63t-50.5 -164q0 -105 48.5 -171t131.5 -66zM678 473q-95 0 -157.5 -80.5t-62.5 -182.5q92 10 178 31q87 21 122.5 53t35.5 76t-30 73.5
t-86 29.5z" />
    <glyph glyph-name="Racute" unicode="&#x154;" horiz-adv-x="625" 
d="M115 0v772h165q114 0 176 -49.5t62 -141.5q0 -95 -54 -146t-162 -68l313 -367h-27l-309 364q-54 -6 -118 -6h-26v-358h-20zM135 753v-376h27q170 0 252.5 46.5t82.5 157.5q0 80 -55.5 126t-161.5 46h-145zM381 945l-118 -111h-19l103 111h34z" />
    <glyph glyph-name="racute" unicode="&#x155;" horiz-adv-x="342" 
d="M326 480v-22q-122 -1 -182 -73q-24 -29 -24 -91v-294h-20v475h20v-95q6 12 17 25q66 75 189 75zM306 704l-115 -142h-17l103 142h29z" />
    <glyph glyph-name="Rcommaaccent" unicode="&#x156;" horiz-adv-x="625" 
d="M115 0v772h165q114 0 176 -49.5t62 -141.5q0 -95 -54 -146t-162 -68l313 -367h-27l-309 364q-54 -6 -118 -6h-26v-358h-20zM135 753v-376h27q170 0 252.5 46.5t82.5 157.5q0 80 -55.5 126t-161.5 46h-145zM345 -73q13 -22 13 -47q0 -49 -67 -117h-22q38 40 53 65.5
t15 51.5q0 20 -12 39z" />
    <glyph glyph-name="rcommaaccent" unicode="&#x157;" horiz-adv-x="342" 
d="M326 480v-22q-122 -1 -182 -73q-24 -29 -24 -91v-294h-20v475h20v-95q6 12 17 25q66 75 189 75zM127 -73q13 -22 13 -47q0 -49 -67 -117h-22q38 40 53 65.5t15 51.5q0 20 -12 39z" />
    <glyph glyph-name="Rcaron" unicode="&#x158;" horiz-adv-x="625" 
d="M115 0v772h165q114 0 176 -49.5t62 -141.5q0 -95 -54 -146t-162 -68l313 -367h-27l-309 364q-54 -6 -118 -6h-26v-358h-20zM135 753v-376h27q170 0 252.5 46.5t82.5 157.5q0 80 -55.5 126t-161.5 46h-145zM174 945h21l100 -93l101 93h21l-107 -111h-29z" />
    <glyph glyph-name="rcaron" unicode="&#x159;" horiz-adv-x="342" 
d="M326 480v-22q-122 -1 -182 -73q-24 -29 -24 -91v-294h-20v475h20v-95q6 12 17 25q66 75 189 75zM103 704h17l93 -121l94 121h17l-99 -142h-23z" />
    <glyph glyph-name="Sacute" unicode="&#x15a;" horiz-adv-x="552" 
d="M61 69q64 -65 181 -65q99 0 158 46t59 129q0 137 -184 214q-110 47 -156 93.5t-46 129.5q0 72 53.5 121.5t140.5 49.5q85 0 152 -45v-30q-58 55 -152 55q-78 0 -125.5 -43.5t-47.5 -107.5q0 -71 38 -112t138 -85q109 -48 159.5 -106t50.5 -134q0 -92 -65.5 -143.5
t-172.5 -51.5q-53 0 -101.5 14.5t-75.5 38.5zM352 945l-118 -111h-19l103 111h34z" />
    <glyph glyph-name="sacute" unicode="&#x15b;" horiz-adv-x="426" 
d="M50 37l4 28q55 -62 145 -62q71 0 109 30t38 82q0 62 -67 93q-26 12 -70 27t-67 26q-42 20 -59.5 43.5t-17.5 62.5q0 55 38 90t103 35q85 0 149 -55l-12 -22q-55 57 -137 57q-55 0 -87.5 -29t-32.5 -76q0 -32 15.5 -51.5t49.5 -35.5q21 -10 67.5 -26t67.5 -26
q45 -21 63 -47.5t18 -65.5q0 -61 -44.5 -96.5t-123.5 -35.5q-90 0 -149 54zM302 704l-115 -142h-17l103 142h29z" />
    <glyph glyph-name="Scircumflex" unicode="&#x15c;" horiz-adv-x="552" 
d="M61 69q64 -65 181 -65q99 0 158 46t59 129q0 137 -184 214q-110 47 -156 93.5t-46 129.5q0 72 53.5 121.5t140.5 49.5q85 0 152 -45v-30q-58 55 -152 55q-78 0 -125.5 -43.5t-47.5 -107.5q0 -71 38 -112t138 -85q109 -48 159.5 -106t50.5 -134q0 -92 -65.5 -143.5
t-172.5 -51.5q-53 0 -101.5 14.5t-75.5 38.5zM368 834l-101 92l-100 -92h-21l107 111h29l107 -111h-21z" />
    <glyph glyph-name="scircumflex" unicode="&#x15d;" horiz-adv-x="426" 
d="M50 37l4 28q55 -62 145 -62q71 0 109 30t38 82q0 62 -67 93q-26 12 -70 27t-67 26q-42 20 -59.5 43.5t-17.5 62.5q0 55 38 90t103 35q85 0 149 -55l-12 -22q-55 57 -137 57q-55 0 -87.5 -29t-32.5 -76q0 -32 15.5 -51.5t49.5 -35.5q21 -10 67.5 -26t67.5 -26
q45 -21 63 -47.5t18 -65.5q0 -61 -44.5 -96.5t-123.5 -35.5q-90 0 -149 54zM303 562l-94 121l-93 -121h-17l99 142h23l99 -142h-17z" />
    <glyph glyph-name="Scedilla" unicode="&#x15e;" horiz-adv-x="552" 
d="M61 69q64 -65 181 -65q99 0 158 46t59 129q0 137 -184 214q-110 47 -156 93.5t-46 129.5q0 72 53.5 121.5t140.5 49.5q85 0 152 -45v-30q-58 55 -152 55q-78 0 -125.5 -43.5t-47.5 -107.5q0 -71 38 -112t138 -85q109 -48 159.5 -106t50.5 -134q0 -91 -63 -142t-166 -53
l-30 -58q10 2 22 2q40 0 63.5 -19t23.5 -50q0 -33 -27 -54t-68 -21q-47 0 -76 24l2 27q19 -31 74 -31q33 0 53.5 15t20.5 40q0 23 -17.5 36.5t-48.5 13.5q-29 0 -52 -10l-1 2l41 83q-51 2 -96 16t-70 37z" />
    <glyph glyph-name="scedilla" unicode="&#x15f;" horiz-adv-x="426" 
d="M50 37l4 28q55 -62 145 -62q71 0 109 30t38 82q0 62 -67 93q-26 12 -70 27t-67 26q-42 20 -59.5 43.5t-17.5 62.5q0 55 38 90t103 35q85 0 149 -55l-12 -22q-55 57 -137 57q-55 0 -87.5 -29t-32.5 -76q0 -32 15.5 -51.5t49.5 -35.5q21 -10 67.5 -26t67.5 -26
q45 -21 63 -47.5t18 -65.5q0 -61 -44.5 -96.5t-123.5 -35.5l-29 -57q10 2 22 2q40 0 63.5 -19t23.5 -50q0 -33 -27 -54t-68 -21q-48 0 -76 24l2 27q19 -31 74 -31q33 0 53.5 15t20.5 40q0 23 -17.5 36.5t-48.5 13.5q-29 0 -52 -10l-1 2l41 83q-79 6 -130 53z" />
    <glyph glyph-name="Scaron" unicode="&#x160;" horiz-adv-x="552" 
d="M61 69q64 -65 181 -65q99 0 158 46t59 129q0 137 -184 214q-110 47 -156 93.5t-46 129.5q0 72 53.5 121.5t140.5 49.5q85 0 152 -45v-30q-58 55 -152 55q-78 0 -125.5 -43.5t-47.5 -107.5q0 -71 38 -112t138 -85q109 -48 159.5 -106t50.5 -134q0 -92 -65.5 -143.5
t-172.5 -51.5q-53 0 -101.5 14.5t-75.5 38.5zM145 945h21l100 -93l101 93h21l-107 -111h-29z" />
    <glyph glyph-name="scaron" unicode="&#x161;" horiz-adv-x="426" 
d="M50 37l4 28q55 -62 145 -62q71 0 109 30t38 82q0 62 -67 93q-26 12 -70 27t-67 26q-42 20 -59.5 43.5t-17.5 62.5q0 55 38 90t103 35q85 0 149 -55l-12 -22q-55 57 -137 57q-55 0 -87.5 -29t-32.5 -76q0 -32 15.5 -51.5t49.5 -35.5q21 -10 67.5 -26t67.5 -26
q45 -21 63 -47.5t18 -65.5q0 -61 -44.5 -96.5t-123.5 -35.5q-90 0 -149 54zM99 704h17l93 -121l94 121h17l-99 -142h-23z" />
    <glyph glyph-name="uni0162" unicode="&#x162;" horiz-adv-x="612" 
d="M316 0h-20v753h-288v19h596v-19h-288v-753zM324 -73q13 -22 13 -47q0 -49 -67 -117h-22q38 40 53 65.5t15 51.5q0 20 -12 39z" />
    <glyph glyph-name="uni0163" unicode="&#x163;" horiz-adv-x="315" 
d="M21 475h97v167l20 6v-173h162v-19h-162v-294q0 -70 17 -102t70 -55v-3l-31 -4q-44 22 -60 55.5t-16 113.5v289h-97v19zM186 -73q13 -22 13 -47q0 -49 -67 -117h-22q38 40 53 65.5t15 51.5q0 20 -12 39z" />
    <glyph glyph-name="Tcaron" unicode="&#x164;" horiz-adv-x="612" 
d="M316 0h-20v753h-288v19h596v-19h-288v-753zM184 945h21l100 -93l101 93h21l-107 -111h-29z" />
    <glyph glyph-name="tcaron" unicode="&#x165;" horiz-adv-x="315" 
d="M21 475h97v167l20 6v-173h162v-19h-162v-294q0 -70 17 -102t70 -55v-3l-31 -4q-44 22 -60 55.5t-16 113.5v289h-97v19zM282 780q13 -27 13 -60q0 -50 -59 -123h-17q55 76 55 123q0 27 -13 52z" />
    <glyph glyph-name="Tbar" unicode="&#x166;" horiz-adv-x="612" 
d="M316 0h-20v505h-123v19h123v229h-288v19h596v-19h-288v-229h123v-19h-123v-505z" />
    <glyph glyph-name="tbar" unicode="&#x167;" horiz-adv-x="315" 
d="M21 475h97v167l20 6v-173h162v-19h-162v-181h154v-19h-154v-94q0 -70 17 -102t70 -55v-3l-31 -4q-44 22 -60 55.5t-16 113.5v89h-87v19h87v181h-97v19z" />
    <glyph glyph-name="Utilde" unicode="&#x168;" horiz-adv-x="741" 
d="M110 772h20v-496q0 -137 66 -203.5t174 -66.5t174.5 66t66.5 202v498h20v-498q0 -144 -72.5 -216t-188.5 -72t-188 72.5t-72 217.5v496zM249 848q4 39 22.5 60.5t45.5 21.5q23 0 63 -29t56 -29q22 0 36 18t17 47l15 -3q-4 -39 -22.5 -60.5t-45.5 -21.5q-23 0 -63 29
t-56 29q-21 0 -36 -18.5t-17 -46.5z" />
    <glyph glyph-name="utilde" unicode="&#x169;" horiz-adv-x="555" 
d="M92 475h20v-320q0 -73 33.5 -108t104.5 -35q50 0 95 29t75 76q16 26 16 57v301h20v-472l-20 -6v109q-34 -52 -83 -83t-103 -31q-158 0 -158 163v320zM151 587q4 39 22.5 60.5t45.5 21.5q24 0 64.5 -29t56.5 -29q22 0 36 18t17 47l15 -3q-4 -39 -22.5 -60.5t-45.5 -21.5
q-24 0 -64.5 29t-56.5 29q-21 0 -36 -18.5t-17 -46.5z" />
    <glyph glyph-name="Umacron" unicode="&#x16a;" horiz-adv-x="741" 
d="M110 772h20v-496q0 -137 66 -203.5t174 -66.5t174.5 66t66.5 202v498h20v-498q0 -144 -72.5 -216t-188.5 -72t-188 72.5t-72 217.5v496zM489 883v-19h-239v19h239z" />
    <glyph glyph-name="umacron" unicode="&#x16b;" horiz-adv-x="555" 
d="M92 475h20v-320q0 -73 33.5 -108t104.5 -35q50 0 95 29t75 76q16 26 16 57v301h20v-472l-20 -6v109q-34 -52 -83 -83t-103 -31q-158 0 -158 163v320zM398 639v-19h-247v19h247z" />
    <glyph glyph-name="Ubreve" unicode="&#x16c;" horiz-adv-x="741" 
d="M110 772h20v-496q0 -137 66 -203.5t174 -66.5t174.5 66t66.5 202v498h20v-498q0 -144 -72.5 -216t-188.5 -72t-188 72.5t-72 217.5v496zM370 854q43 0 67.5 21t24.5 61h17q0 -48 -29.5 -75t-79.5 -27q-49 0 -78.5 27t-29.5 75h17q0 -40 24 -61t67 -21z" />
    <glyph glyph-name="ubreve" unicode="&#x16d;" horiz-adv-x="555" 
d="M92 475h20v-320q0 -73 33.5 -108t104.5 -35q50 0 95 29t75 76q16 26 16 57v301h20v-472l-20 -6v109q-34 -52 -83 -83t-103 -31q-158 0 -158 163v320zM274 594q43 0 67.5 25.5t24.5 72.5h17q0 -55 -30 -86.5t-79 -31.5t-78.5 31.5t-29.5 86.5h17q0 -47 24.5 -72.5
t66.5 -25.5z" />
    <glyph glyph-name="Uring" unicode="&#x16e;" horiz-adv-x="741" 
d="M110 772h20v-496q0 -137 66 -203.5t174 -66.5t174.5 66t66.5 202v498h20v-498q0 -144 -72.5 -216t-188.5 -72t-188 72.5t-72 217.5v496zM280 902q0 38 26 64t64 26t64 -26t26 -64t-26 -64t-64 -26t-64 26t-26 64zM299 902q0 -30 20.5 -50.5t50.5 -20.5t51 20.5t21 50.5
t-21 51t-51 21t-50.5 -21t-20.5 -51z" />
    <glyph glyph-name="uring" unicode="&#x16f;" horiz-adv-x="555" 
d="M92 475h20v-320q0 -73 33.5 -108t104.5 -35q50 0 95 29t75 76q16 26 16 57v301h20v-472l-20 -6v109q-34 -52 -83 -83t-103 -31q-158 0 -158 163v320zM185 643q0 37 26 63.5t63 26.5t63.5 -26.5t26.5 -63.5t-26.5 -63t-63.5 -26t-63 26t-26 63zM204 643q0 -29 20.5 -49.5
t49.5 -20.5q30 0 50.5 20.5t20.5 49.5q0 30 -20.5 50.5t-50.5 20.5q-29 0 -49.5 -20.5t-20.5 -50.5z" />
    <glyph glyph-name="Uhungarumlaut" unicode="&#x170;" horiz-adv-x="741" 
d="M110 772h20v-496q0 -137 66 -203.5t174 -66.5t174.5 66t66.5 202v498h20v-498q0 -144 -72.5 -216t-188.5 -72t-188 72.5t-72 217.5v496zM386 945h34l-105 -111h-21zM489 945h34l-105 -111h-21z" />
    <glyph glyph-name="uhungarumlaut" unicode="&#x171;" horiz-adv-x="555" 
d="M92 475h20v-320q0 -73 33.5 -108t104.5 -35q50 0 95 29t75 76q16 26 16 57v301h20v-472l-20 -6v109q-34 -52 -83 -83t-103 -31q-158 0 -158 163v320zM318 704l-102 -142h-19l92 142h29zM417 704l-102 -142h-19l92 142h29z" />
    <glyph glyph-name="Uogonek" unicode="&#x172;" horiz-adv-x="741" 
d="M436 -237q-31 0 -49 18.5t-18 52.5q0 36 23 71t89 101q-52 -20 -111 -20q-116 0 -188 72.5t-72 217.5v496h20v-496q0 -137 66 -203.5t174 -66.5t174.5 66t66.5 202v498h20v-498q0 -140 -70 -213q-13 -14 -49.5 -50.5l-43.5 -43.5q-46 -51 -62 -79t-16 -54q0 -51 46 -51
q32 0 54 22h1l-4 -28q-18 -14 -51 -14z" />
    <glyph glyph-name="uogonek" unicode="&#x173;" horiz-adv-x="555" 
d="M436 0v106q-34 -52 -83 -83t-103 -31q-158 0 -158 163v320h20v-320q0 -73 33.5 -108t104.5 -35q50 0 95 29t75 76q16 26 16 57v301h20v-475q-64 -71 -84.5 -104t-20.5 -62q0 -51 46 -51q32 0 54 22h1l-4 -28q-18 -14 -51 -14q-31 0 -49 18.5t-18 52.5q0 35 21.5 68.5
t84.5 97.5z" />
    <glyph glyph-name="Wcircumflex" unicode="&#x174;" horiz-adv-x="1055" 
d="M719 0l-193 535l-203 -535h-22l-289 772h21l279 -745l204 535l-75 210h21l268 -745l292 745h21l-302 -772h-22zM618 834l-101 92l-100 -92h-21l107 111h29l107 -111h-21z" />
    <glyph glyph-name="wcircumflex" unicode="&#x175;" horiz-adv-x="705" 
d="M341 475h24l118 -450l182 450h21l-192 -475h-24l-118 446l-145 -446h-24l-164 475h21l155 -449zM445 562l-94 121l-93 -121h-17l99 142h23l99 -142h-17z" />
    <glyph glyph-name="Ycircumflex" unicode="&#x176;" horiz-adv-x="665" 
d="M343 0h-20v352l-313 420h25l298 -400l297 400h25l-312 -421v-351zM433 834l-101 92l-100 -92h-21l107 111h29l107 -111h-21z" />
    <glyph glyph-name="ycircumflex" unicode="&#x177;" horiz-adv-x="445" 
d="M65 -237q72 80 146 250l-192 462h22l180 -436l184 436h22l-207 -488q-63 -148 -128 -224h-27zM314 562l-94 121l-93 -121h-17l99 142h23l99 -142h-17z" />
    <glyph glyph-name="Ydieresis" unicode="&#x178;" horiz-adv-x="665" 
d="M343 0h-20v352l-313 420h25l298 -400l297 400h25l-312 -421v-351zM223 884q0 10 6.5 16.5t16.5 6.5t16.5 -6.5t6.5 -16.5t-6.5 -16.5t-16.5 -6.5t-16.5 6.5t-6.5 16.5zM395 884q0 10 6.5 16.5t16.5 6.5t16.5 -6.5t6.5 -16.5t-6.5 -16.5t-16.5 -6.5t-16.5 6.5t-6.5 16.5z
" />
    <glyph glyph-name="Zacute" unicode="&#x179;" horiz-adv-x="712" 
d="M647 0h-629l596 753h-525l6 19h560l-598 -753h596zM433 945l-118 -111h-19l103 111h34z" />
    <glyph glyph-name="zacute" unicode="&#x17a;" horiz-adv-x="513" 
d="M465 0h-424l386 456h-357l2 19h397l-387 -456h387zM355 704l-115 -142h-17l103 142h29z" />
    <glyph glyph-name="Zdotaccent" unicode="&#x17b;" horiz-adv-x="712" 
d="M647 0h-629l596 753h-525l6 19h560l-598 -753h596zM328 885q0 8 6 14t14 6t14 -6t6 -14t-6 -14t-14 -6t-14 6t-6 14z" />
    <glyph glyph-name="zdotaccent" unicode="&#x17c;" horiz-adv-x="513" 
d="M465 0h-424l386 456h-357l2 19h397l-387 -456h387zM239 630q0 10 6.5 16.5t16.5 6.5t16.5 -6.5t6.5 -16.5t-6.5 -16.5t-16.5 -6.5t-16.5 6.5t-6.5 16.5z" />
    <glyph glyph-name="Zcaron" unicode="&#x17d;" horiz-adv-x="712" 
d="M647 0h-629l596 753h-525l6 19h560l-598 -753h596zM226 945h21l100 -93l101 93h21l-107 -111h-29z" />
    <glyph glyph-name="zcaron" unicode="&#x17e;" horiz-adv-x="513" 
d="M465 0h-424l386 456h-357l2 19h397l-387 -456h387zM152 704h17l93 -121l94 121h17l-99 -142h-23z" />
    <glyph glyph-name="florin" unicode="&#x192;" 
d="M46 -51q22 -25 63 -25q40 0 64.5 42.5t40.5 144.5l56 348h-113v19h116l13 80q19 114 51 164t89 50q41 0 64 -19l1 -26q-28 25 -65 25q-51 0 -77 -45t-44 -156l-12 -73h136v-19h-139l-57 -356q-17 -107 -46 -153t-78 -46q-34 0 -56 15z" />
    <glyph glyph-name="uni0218" unicode="&#x218;" horiz-adv-x="552" 
d="M61 69q64 -65 181 -65q99 0 158 46t59 129q0 137 -184 214q-110 47 -156 93.5t-46 129.5q0 72 53.5 121.5t140.5 49.5q85 0 152 -45v-30q-58 55 -152 55q-78 0 -125.5 -43.5t-47.5 -107.5q0 -71 38 -112t138 -85q109 -48 159.5 -106t50.5 -134q0 -92 -65.5 -143.5
t-172.5 -51.5q-53 0 -101.5 14.5t-75.5 38.5zM266 -73q13 -22 13 -47q0 -49 -67 -117h-22q38 40 53 65.5t15 51.5q0 20 -12 39z" />
    <glyph glyph-name="uni0219" unicode="&#x219;" horiz-adv-x="426" 
d="M50 37l4 28q55 -62 145 -62q71 0 109 30t38 82q0 62 -67 93q-26 12 -70 27t-67 26q-42 20 -59.5 43.5t-17.5 62.5q0 55 38 90t103 35q85 0 149 -55l-12 -22q-55 57 -137 57q-55 0 -87.5 -29t-32.5 -76q0 -32 15.5 -51.5t49.5 -35.5q21 -10 67.5 -26t67.5 -26
q45 -21 63 -47.5t18 -65.5q0 -61 -44.5 -96.5t-123.5 -35.5q-90 0 -149 54zM215 -73q13 -22 13 -47q0 -49 -67 -117h-22q38 40 53 65.5t15 51.5q0 20 -12 39z" />
    <glyph glyph-name="uni021A" unicode="&#x21a;" horiz-adv-x="612" 
d="M316 0h-20v753h-288v19h596v-19h-288v-753zM324 -73q13 -22 13 -47q0 -49 -67 -117h-22q38 40 53 65.5t15 51.5q0 20 -12 39z" />
    <glyph glyph-name="uni021B" unicode="&#x21b;" horiz-adv-x="315" 
d="M21 475h97v167l20 6v-173h162v-19h-162v-294q0 -70 17 -102t70 -55v-3l-31 -4q-44 22 -60 55.5t-16 113.5v289h-97v19zM186 -73q13 -22 13 -47q0 -49 -67 -117h-22q38 40 53 65.5t15 51.5q0 20 -12 39z" />
    <glyph glyph-name="dotlessj" unicode="&#x237;" horiz-adv-x="220" 
d="M100 472l20 6v-509q0 -79 -14.5 -117.5t-43.5 -66.5l-47 -22l-4 8q54 37 71.5 77t17.5 121v503z" />
    <glyph glyph-name="circumflex" unicode="&#x2c6;" horiz-adv-x="237" 
d="M212 566l-94 121l-93 -121h-17l99 142h23l99 -142h-17z" />
    <glyph glyph-name="caron" unicode="&#x2c7;" horiz-adv-x="237" 
d="M8 708h17l93 -121l94 121h17l-99 -142h-23z" />
    <glyph glyph-name="uni02C9" unicode="&#x2c9;" horiz-adv-x="267" 
d="M257 643v-19h-247v19h247z" />
    <glyph glyph-name="breve" unicode="&#x2d8;" horiz-adv-x="237" 
d="M118 598q43 0 67.5 25.5t24.5 72.5h17q0 -55 -30 -86.5t-79 -31.5t-78.5 31.5t-29.5 86.5h17q0 -47 24.5 -72.5t66.5 -25.5z" />
    <glyph glyph-name="dotaccent" unicode="&#x2d9;" horiz-adv-x="73" 
d="M13 634q0 10 6.5 16.5t16.5 6.5t16.5 -6.5t6.5 -16.5t-6.5 -16.5t-16.5 -6.5t-16.5 6.5t-6.5 16.5z" />
    <glyph glyph-name="ring" unicode="&#x2da;" horiz-adv-x="199" 
d="M10 647q0 37 26 63.5t63 26.5t63.5 -26.5t26.5 -63.5t-26.5 -63t-63.5 -26t-63 26t-26 63zM29 647q0 -29 20.5 -49.5t49.5 -20.5q30 0 50.5 20.5t20.5 49.5q0 30 -20.5 50.5t-50.5 20.5q-29 0 -49.5 -20.5t-20.5 -50.5z" />
    <glyph glyph-name="ogonek" unicode="&#x2db;" horiz-adv-x="146" 
d="M116 0v11h20v-11q-64 -71 -84.5 -104t-20.5 -62q0 -51 46 -51q32 0 54 22h1l-4 -28q-18 -14 -51 -14q-31 0 -49 18.5t-18 52.5q0 35 21.5 68.5t84.5 97.5z" />
    <glyph glyph-name="tilde" unicode="&#x2dc;" horiz-adv-x="277" 
d="M10 591q4 39 22.5 60.5t45.5 21.5q24 0 64.5 -29t56.5 -29q22 0 36 18t17 47l15 -3q-4 -39 -22.5 -60.5t-45.5 -21.5q-24 0 -64.5 29t-56.5 29q-21 0 -36 -18.5t-17 -46.5z" />
    <glyph glyph-name="hungarumlaut" unicode="&#x2dd;" horiz-adv-x="242" 
d="M129 708l-102 -142h-19l92 142h29zM228 708l-102 -142h-19l92 142h29z" />
    <glyph glyph-name="uni0394" unicode="&#x394;" horiz-adv-x="714" 
d="M697 0h-680l337 751l15 3zM362 721l-316 -702h622z" />
    <glyph glyph-name="uni03A9" unicode="&#x3a9;" horiz-adv-x="789" 
d="M454 0v11q46 43 101 110.5t89 127.5q61 107 61 216q0 135 -81.5 218.5t-229.5 83.5t-229 -83.5t-81 -218.5q0 -109 61 -216q34 -60 89 -127.5t101 -110.5v-11h-304l-4 19h271q-105 105 -169 217q-66 115 -66 230q0 142 87.5 231.5t243.5 89.5t244 -89.5t88 -231.5
q0 -115 -66 -230q-62 -108 -169 -217h271l-4 -19h-304z" />
    <glyph glyph-name="uni03BC" unicode="&#x3bc;" horiz-adv-x="546" 
d="M236 -8q-48 0 -82 19.5t-44 58.5v-296l-20 -11v712h20v-316q0 -147 126 -147q117 0 186 108q14 22 14 64v291h20v-472l-20 -6v111q-73 -116 -200 -116z" />
    <glyph glyph-name="pi" unicode="&#x3c0;" horiz-adv-x="600" 
d="M37 475h511v-19h-132v-338q0 -61 15.5 -83t52.5 -22q41 0 73 27l-2 -26q-27 -21 -71 -21q-46 0 -67 28t-21 97v338h-227v-278q0 -113 -52 -178h-26q32 39 45 79.5t13 98.5v278h-112v19z" />
    <glyph glyph-name="Wgrave" unicode="&#x1e80;" horiz-adv-x="1055" 
d="M719 0l-193 535l-203 -535h-22l-289 772h21l279 -745l204 535l-75 210h21l268 -745l292 745h21l-302 -772h-22zM550 834l-118 111h34l103 -111h-19z" />
    <glyph glyph-name="wgrave" unicode="&#x1e81;" horiz-adv-x="705" 
d="M341 475h24l118 -450l182 450h21l-192 -475h-24l-118 446l-145 -446h-24l-164 475h21l155 -449zM375 562l-115 142h29l103 -142h-17z" />
    <glyph glyph-name="Wacute" unicode="&#x1e82;" horiz-adv-x="1055" 
d="M719 0l-193 535l-203 -535h-22l-289 772h21l279 -745l204 535l-75 210h21l268 -745l292 745h21l-302 -772h-22zM602 945l-118 -111h-19l103 111h34z" />
    <glyph glyph-name="wacute" unicode="&#x1e83;" horiz-adv-x="705" 
d="M341 475h24l118 -450l182 450h21l-192 -475h-24l-118 446l-145 -446h-24l-164 475h21l155 -449zM444 704l-115 -142h-17l103 142h29z" />
    <glyph glyph-name="Wdieresis" unicode="&#x1e84;" horiz-adv-x="1055" 
d="M719 0l-193 535l-203 -535h-22l-289 772h21l279 -745l204 535l-75 210h21l268 -745l292 745h21l-302 -772h-22zM408 884q0 10 6.5 16.5t16.5 6.5t16.5 -6.5t6.5 -16.5t-6.5 -16.5t-16.5 -6.5t-16.5 6.5t-6.5 16.5zM580 884q0 10 6.5 16.5t16.5 6.5t16.5 -6.5t6.5 -16.5
t-6.5 -16.5t-16.5 -6.5t-16.5 6.5t-6.5 16.5z" />
    <glyph glyph-name="wdieresis" unicode="&#x1e85;" horiz-adv-x="705" 
d="M341 475h24l118 -450l182 450h21l-192 -475h-24l-118 446l-145 -446h-24l-164 475h21l155 -449zM253 630q0 10 6.5 16.5t16.5 6.5t16.5 -6.5t6.5 -16.5t-6.5 -16.5t-16.5 -6.5t-16.5 6.5t-6.5 16.5zM405 630q0 10 6.5 16.5t16.5 6.5t16.5 -6.5t6.5 -16.5t-6.5 -16.5
t-16.5 -6.5t-16.5 6.5t-6.5 16.5z" />
    <glyph glyph-name="germandblS" unicode="&#x1e9e;" horiz-adv-x="719" 
d="M594 736l-211 -327h4q137 0 206 -63t69 -155q0 -89 -61.5 -148.5t-166.5 -59.5q-94 0 -149 42l-3 27h3q54 -49 149 -49q100 0 153.5 52.5t53.5 135.5q0 84 -62.5 141t-192.5 57q-22 0 -39 -3l-1 3l219 338q-68 37 -176 37q-116 0 -189.5 -73t-73.5 -194v-497h-20v497
q0 129 79.5 208t203.5 79q123 0 205 -48z" />
    <glyph glyph-name="Ygrave" unicode="&#x1ef2;" horiz-adv-x="665" 
d="M343 0h-20v352l-313 420h25l298 -400l297 400h25l-312 -421v-351zM365 834l-118 111h34l103 -111h-19z" />
    <glyph glyph-name="ygrave" unicode="&#x1ef3;" horiz-adv-x="445" 
d="M65 -237q72 80 146 250l-192 462h22l180 -436l184 436h22l-207 -488q-63 -148 -128 -224h-27zM244 562l-115 142h29l103 -142h-17z" />
    <glyph glyph-name="endash" unicode="&#x2013;" horiz-adv-x="600" 
d="M575 278v-19h-550v19h550z" />
    <glyph glyph-name="emdash" unicode="&#x2014;" horiz-adv-x="1000" 
d="M975 278v-19h-950v19h950z" />
    <glyph glyph-name="quoteleft" unicode="&#x2018;" horiz-adv-x="155" 
d="M73 547q-35 31 -35 90q0 66 66 113l6 -8q-52 -42 -52 -101q0 -51 32 -77z" />
    <glyph glyph-name="quoteright" unicode="&#x2019;" horiz-adv-x="155" 
d="M83 754q35 -32 35 -90q0 -66 -66 -113l-6 8q52 42 52 101q0 51 -32 77z" />
    <glyph glyph-name="quotesinglbase" unicode="&#x201a;" horiz-adv-x="225" 
d="M105 58q35 -31 35 -90q0 -66 -66 -113l-6 8q52 42 52 101q0 51 -32 77z" />
    <glyph glyph-name="quotedblleft" unicode="&#x201c;" horiz-adv-x="268" 
d="M204 547q-35 31 -35 90q0 66 66 113l6 -8q-52 -42 -52 -101q0 -51 32 -77zM73 547q-35 31 -35 90q0 66 66 113l6 -8q-52 -42 -52 -101q0 -51 32 -77z" />
    <glyph glyph-name="quotedblright" unicode="&#x201d;" horiz-adv-x="268" 
d="M196 754q35 -32 35 -90q0 -66 -66 -113l-6 8q52 42 52 101q0 51 -32 77zM65 754q35 -32 35 -90q0 -66 -66 -113l-6 8q52 42 52 101q0 51 -32 77z" />
    <glyph glyph-name="quotedblbase" unicode="&#x201e;" horiz-adv-x="356" 
d="M236 58q35 -31 35 -90q0 -66 -66 -113l-6 8q52 42 52 101q0 51 -32 77zM105 58q35 -31 35 -90q0 -66 -66 -113l-6 8q52 42 52 101q0 51 -32 77z" />
    <glyph glyph-name="dagger" unicode="&#x2020;" horiz-adv-x="425" 
d="M198 735h29l-7 -216l166 7v-28l-166 7l7 -173q-7 -170 -7 -444h-15q0 274 -7 444l7 173l-166 -7v28l166 -7z" />
    <glyph glyph-name="daggerdbl" unicode="&#x2021;" horiz-adv-x="457" 
d="M243 -112h-29l7 218l-166 -7v28l166 -7l-7 192l7 191l-166 -7v28l166 -7l-7 218h29l-7 -218l166 7v-28l-166 7l7 -191l-7 -192l166 7v-28l-166 7z" />
    <glyph glyph-name="bullet" unicode="&#x2022;" horiz-adv-x="294" 
d="M97 400q0 21 14.5 35.5t35.5 14.5t35.5 -14.5t14.5 -35.5t-14.5 -35.5t-35.5 -14.5t-35.5 14.5t-14.5 35.5z" />
    <glyph glyph-name="ellipsis" unicode="&#x2026;" horiz-adv-x="772" 
d="M362 16q0 10 6.5 16.5t16.5 6.5t16.5 -6.5t6.5 -16.5t-6.5 -16.5t-16.5 -6.5t-16.5 6.5t-6.5 16.5zM635 16q0 10 6.5 16.5t16.5 6.5t16.5 -6.5t6.5 -16.5t-6.5 -16.5t-16.5 -6.5t-16.5 6.5t-6.5 16.5zM89 16q0 10 6.5 16.5t16.5 6.5t16.5 -6.5t6.5 -16.5t-6.5 -16.5
t-16.5 -6.5t-16.5 6.5t-6.5 16.5z" />
    <glyph glyph-name="perthousand" unicode="&#x2030;" horiz-adv-x="1136" 
d="M633 752l-459 -752h-23l458 752h24zM185 400q-53 0 -84 33.5t-31 95.5q0 75 44.5 129t109.5 54q54 0 85 -33.5t31 -95.5q0 -76 -45 -129.5t-110 -53.5zM224 692q-56 0 -94.5 -49t-38.5 -115q0 -51 25 -79.5t69 -28.5q57 0 96 49t39 115q0 51 -25 79.5t-71 28.5zM553 40
q-53 0 -84 33.5t-31 95.5q0 75 44.5 129t109.5 54q54 0 85 -33.5t31 -95.5q0 -76 -45 -129.5t-110 -53.5zM592 332q-56 0 -94.5 -49t-38.5 -115q0 -51 25 -79.5t69 -28.5q57 0 96 49t39 115q0 51 -25 79.5t-71 28.5zM911 40q-53 0 -84 33.5t-31 95.5q0 75 44.5 129t109.5 54
q54 0 85 -33.5t31 -95.5q0 -76 -45 -129.5t-110 -53.5zM950 332q-56 0 -94.5 -49t-38.5 -115q0 -51 25 -79.5t69 -28.5q57 0 96 49t39 115q0 51 -25 79.5t-71 28.5z" />
    <glyph glyph-name="guilsinglleft" unicode="&#x2039;" horiz-adv-x="264" 
d="M184 82l-130 165l130 165h20l-123 -165l123 -165h-20z" />
    <glyph glyph-name="guilsinglright" unicode="&#x203a;" horiz-adv-x="264" 
d="M80 412l130 -165l-130 -165h-20l123 165l-123 165h20z" />
    <glyph glyph-name="fraction" unicode="&#x2044;" horiz-adv-x="155" 
d="M348 780l-519 -810h-22l518 810h23z" />
    <glyph glyph-name="zero.superior" unicode="&#x2070;" horiz-adv-x="345" 
d="M172 448q-59 0 -95.5 54t-36.5 152t36.5 152t95.5 54q60 0 96.5 -54t36.5 -152q0 -97 -37 -151.5t-96 -54.5zM172 468q51 0 81.5 48.5t30.5 137.5q0 90 -30.5 138t-81.5 48t-81 -48t-30 -138t30 -138t81 -48z" />
    <glyph glyph-name="four.superior" unicode="&#x2074;" horiz-adv-x="344" 
d="M223 458v116h-219v3l236 293h3v-277h83v-19h-83v-116h-20zM41 593h182v225z" />
    <glyph glyph-name="five.superior" unicode="&#x2075;" horiz-adv-x="348" 
d="M294 850l-2 -19h-198l-15 -121q23 5 52 5q78 0 119 -33t41 -88q0 -146 -229 -146q-15 0 -22 1l3 20q6 -1 19 -1q208 0 208 126q0 47 -34.5 74t-104.5 27q-37 0 -75 -8l20 163h218z" />
    <glyph glyph-name="six.superior" unicode="&#x2076;" horiz-adv-x="348" 
d="M291 841q-116 -11 -173 -67.5t-63 -141.5q42 71 125 71q59 0 96 -35t37 -93q0 -54 -37.5 -90.5t-97.5 -36.5q-69 0 -106 43t-37 121q0 100 64 169.5t196 80.5zM180 682q-85 0 -125 -82q5 -132 123 -132q52 0 83 30.5t31 76.5q0 50 -31 78.5t-81 28.5z" />
    <glyph glyph-name="seven.superior" unicode="&#x2077;" horiz-adv-x="317" 
d="M117 458q57 192 144 373h-239l9 19h259q-114 -243 -151 -392h-22z" />
    <glyph glyph-name="eight.superior" unicode="&#x2078;" horiz-adv-x="363" 
d="M316 557q0 -47 -36 -78t-101 -31q-63 0 -97.5 29t-34.5 77q0 81 102 107q-90 28 -90 98q0 42 34.5 71.5t85.5 29.5q55 0 85.5 -27.5t30.5 -69.5q0 -69 -83 -100q104 -25 104 -106zM295 557q0 38 -27 60.5t-89 33.5q-111 -21 -111 -97q0 -40 28 -63t83 -23q56 0 86 25.5
t30 63.5zM80 759q0 -34 23.5 -54t82.5 -35q88 28 88 93q0 34 -24.5 55.5t-70.5 21.5q-43 0 -71 -23.5t-28 -57.5z" />
    <glyph glyph-name="nine.superior" unicode="&#x2079;" horiz-adv-x="351" 
d="M104 448l-14 18q96 38 143.5 87.5t54.5 118.5q-44 -62 -121 -62q-59 0 -95.5 33t-36.5 90q0 55 35 91t94 36q69 0 107 -42.5t38 -122.5q0 -83 -49.5 -143.5t-155.5 -103.5zM167 631q76 0 122 71q-5 138 -125 138q-50 0 -79 -30t-29 -77q0 -49 30 -75.5t81 -26.5z" />
    <glyph glyph-name="n.superior" unicode="&#x207f;" horiz-adv-x="389" 
d="M69 350v332h20v-74q12 21 25 34q48 46 103 46q109 0 109 -115v-223h-20v223q0 95 -89 95q-64 0 -108 -61q-20 -28 -20 -68v-189h-20z" />
    <glyph glyph-name="zero.inferior" unicode="&#x2080;" horiz-adv-x="345" 
d="M172 -152q-59 0 -95.5 54t-36.5 152t36.5 152t95.5 54q60 0 96.5 -54t36.5 -152q0 -97 -37 -151.5t-96 -54.5zM172 -132q51 0 81.5 48.5t30.5 137.5q0 90 -30.5 138t-81.5 48t-81 -48t-30 -138t30 -138t81 -48z" />
    <glyph glyph-name="one.inferior" unicode="&#x2081;" horiz-adv-x="244" 
d="M139 -142h-20v373h-97l3 19h114v-392z" />
    <glyph glyph-name="two.inferior" unicode="&#x2082;" horiz-adv-x="331" 
d="M198 -6q-66 -69 -134 -117h225l-4 -19h-253v16q81 56 152 134q41 43 55.5 75.5t14.5 71.5q0 38 -22.5 61.5t-66.5 23.5q-65 0 -113 -44l5 28q39 36 108 36q53 0 81.5 -29.5t28.5 -75.5q0 -43 -17 -79.5t-60 -81.5z" />
    <glyph glyph-name="three.inferior" unicode="&#x2083;" horiz-adv-x="335" 
d="M270 159q0 -67 -72 -92q41 -10 65.5 -37t24.5 -66q0 -54 -39 -85t-103 -31q-73 0 -110 26l-2 25q46 -31 112 -31q56 0 88.5 27t32.5 69q0 41 -35 66t-99 25q-40 0 -68 -4l6 27q36 -2 62 -2q54 0 85 21.5t31 61.5q0 35 -26 58t-72 23q-54 0 -91 -26l7 29q32 17 84 17
q56 0 87.5 -28.5t31.5 -72.5z" />
    <glyph glyph-name="four.inferior" unicode="&#x2084;" horiz-adv-x="344" 
d="M220 -142v116h-219v3l236 293h3v-277h83v-19h-83v-116h-20zM38 -7h182v225z" />
    <glyph glyph-name="five.inferior" unicode="&#x2085;" horiz-adv-x="348" 
d="M294 250l-2 -19h-198l-15 -121q23 5 52 5q78 0 119 -33t41 -88q0 -146 -229 -146q-15 0 -22 1l3 20q6 -1 19 -1q208 0 208 126q0 47 -34.5 74t-104.5 27q-37 0 -75 -8l20 163h218z" />
    <glyph glyph-name="six.inferior" unicode="&#x2086;" horiz-adv-x="348" 
d="M291 241q-116 -11 -173 -67.5t-63 -141.5q42 71 125 71q59 0 96 -35t37 -93q0 -54 -37.5 -90.5t-97.5 -36.5q-69 0 -106 43t-37 121q0 100 64 169.5t196 80.5zM180 82q-85 0 -125 -82q5 -132 123 -132q52 0 83 30.5t31 76.5q0 50 -31 78.5t-81 28.5z" />
    <glyph glyph-name="seven.inferior" unicode="&#x2087;" horiz-adv-x="317" 
d="M117 -142q57 192 144 373h-239l9 19h259q-114 -243 -151 -392h-22z" />
    <glyph glyph-name="eight.inferior" unicode="&#x2088;" horiz-adv-x="363" 
d="M316 -43q0 -47 -36 -78t-101 -31q-63 0 -97.5 29t-34.5 77q0 81 102 107q-90 28 -90 98q0 42 34.5 71.5t85.5 29.5q55 0 85.5 -27.5t30.5 -69.5q0 -69 -83 -100q104 -25 104 -106zM295 -43q0 38 -27 60.5t-89 33.5q-111 -21 -111 -97q0 -40 28 -63t83 -23q56 0 86 25.5
t30 63.5zM80 159q0 -34 23.5 -54t82.5 -35q88 28 88 93q0 34 -24.5 55.5t-70.5 21.5q-43 0 -71 -23.5t-28 -57.5z" />
    <glyph glyph-name="nine.inferior" unicode="&#x2089;" horiz-adv-x="351" 
d="M104 -152l-14 18q96 38 143.5 87.5t54.5 118.5q-44 -62 -121 -62q-59 0 -95.5 33t-36.5 90q0 55 35 91t94 36q69 0 107 -42.5t38 -122.5q0 -83 -49.5 -143.5t-155.5 -103.5zM167 31q76 0 122 71q-5 138 -125 138q-50 0 -79 -30t-29 -77q0 -49 30 -75.5t81 -26.5z" />
    <glyph glyph-name="Euro" unicode="&#x20ac;" 
d="M24 445l4 19h42q19 140 99.5 220.5t208.5 80.5q90 0 145 -28l-5 -21q-50 29 -140 29q-119 0 -194 -75t-93 -206h367l-4 -19h-365q-3 -31 -3 -66q0 -24 2 -64h334l-4 -19h-328q33 -287 302 -287q74 0 132 41l-4 -29q-56 -32 -128 -32q-140 0 -223 76t-100 231h-46l4 19h40
q-2 40 -2 64q0 35 3 66h-44z" />
    <glyph glyph-name="uni20B9" unicode="&#x20b9;" 
d="M63 556l8 19h315q0 74 -53 116t-155 42h-115l8 19h411l-8 -19h-181q114 -40 114 -158h75l-8 -19h-68q-5 -89 -71.5 -134.5t-215.5 -62.5l309 -359h-28l-317 373v3q162 15 229.5 56.5t72.5 123.5h-322z" />
    <glyph glyph-name="uni20BA" unicode="&#x20ba;" 
d="M70 410v23l79 42v277h20v-267l186 100v-23l-186 -100v-116l186 100v-23l-186 -100v-303q26 -7 60 -7q101 0 172 67.5t89 181.5l19 -11q-20 -116 -96 -187t-184 -71q-44 0 -80 11v309l-79 -42v23l79 42v116z" />
    <glyph glyph-name="afii61289" unicode="&#x2113;" horiz-adv-x="385" 
d="M336 31q-45 -46 -113 -46q-58 0 -84 34.5t-26 118.5v114l-72 -69l-9 19l81 78v324q0 87 31 131.5t84 44.5q51 0 79.5 -38.5t28.5 -105.5q0 -83 -44.5 -168.5t-156.5 -193.5l-2 -2v-134q0 -76 20 -104.5t70 -28.5q65 0 115 56zM133 604v-304q102 101 142.5 181t40.5 155
q0 57 -23.5 90.5t-64.5 33.5q-44 0 -69.5 -38.5t-25.5 -117.5z" />
    <glyph glyph-name="trademark" unicode="&#x2122;" horiz-adv-x="824" 
d="M178 350h-20v383h-148v19h315v-19h-147v-383zM365 350v402h29l167 -377l174 377h27v-402h-20v372l-172 -372h-19l-166 375v-375h-20z" />
    <glyph glyph-name="Omega" unicode="&#x2126;" horiz-adv-x="789" 
d="M454 0v11q46 43 101 110.5t89 127.5q61 107 61 216q0 135 -81.5 218.5t-229.5 83.5t-229 -83.5t-81 -218.5q0 -109 61 -216q34 -60 89 -127.5t101 -110.5v-11h-304l-4 19h271q-105 105 -169 217q-66 115 -66 230q0 142 87.5 231.5t243.5 89.5t244 -89.5t88 -231.5
q0 -115 -66 -230q-62 -108 -169 -217h271l-4 -19h-304z" />
    <glyph glyph-name="estimated" unicode="&#x212e;" horiz-adv-x="830" 
d="M415 671q156 0 267 -99.5t111 -247.5h-608q-10 0 -10 -11v-197q47 -51 110 -78.5t130 -27.5q73 0 139 32.5t113 88.5h57q-56 -68 -138 -105t-171 -37q-100 0 -186 42.5t-139.5 121.5t-53.5 177q0 145 110.5 243t268.5 98zM415 650q-70 0 -133 -28.5t-107 -78.5v-185
q0 -11 10 -11h461q9 0 9 11v184q-44 51 -108 79.5t-132 28.5z" />
    <glyph glyph-name="partialdiff" unicode="&#x2202;" horiz-adv-x="558" 
d="M291 434q112 0 178 -90q2 36 2 58q0 166 -56.5 258t-154.5 92q-84 0 -132 -66l-3 27q49 59 135 59q106 0 169 -98t63 -272q0 -194 -75 -306.5t-196 -112.5q-76 0 -121 52.5t-45 136.5q0 120 65 191t171 71zM221 3q98 0 163.5 82t81.5 228q-64 101 -175 101
q-97 0 -156.5 -65t-59.5 -177q0 -76 39 -122.5t107 -46.5z" />
    <glyph glyph-name="Delta" unicode="&#x2206;" horiz-adv-x="714" 
d="M697 0h-680l337 751l15 3zM362 721l-316 -702h622z" />
    <glyph glyph-name="product" unicode="&#x220f;" horiz-adv-x="698" 
d="M121 -220h-20v952h496v-952h-20v933h-456v-933z" />
    <glyph glyph-name="summation" unicode="&#x2211;" horiz-adv-x="538" 
d="M506 -220h-472l318 476l-318 476h472v-19h-438l307 -457l-307 -457h438v-19z" />
    <glyph glyph-name="minus" unicode="&#x2212;" 
d="M506 268v-19h-461v19h461z" />
    <glyph glyph-name="uni2215" unicode="&#x2215;" horiz-adv-x="155" 
d="M348 780l-519 -810h-22l518 810h23z" />
    <glyph glyph-name="uni2219" unicode="&#x2219;" horiz-adv-x="226" 
d="M89 266q0 10 6.5 16.5t16.5 6.5t16.5 -6.5t6.5 -16.5t-6.5 -16.5t-16.5 -6.5t-16.5 6.5t-6.5 16.5z" />
    <glyph glyph-name="radical" unicode="&#x221a;" 
d="M264 -99l-149 470l-108 -39l-7 19l128 47l149 -474l238 966h20l-243 -989h-28z" />
    <glyph glyph-name="infinity" unicode="&#x221e;" 
d="M429 147q-81 0 -138 93q-21 -39 -56.5 -66t-76.5 -27q-51 0 -81 32t-30 82q0 52 30 81t77 29q80 0 137 -94q21 40 57 67t77 27q51 0 81 -32t30 -82q0 -52 -30 -81t-77 -29zM158 167q36 0 68.5 25t54.5 66q-29 47 -58 70t-69 23q-39 0 -62.5 -23t-23.5 -67q0 -42 23.5 -68
t66.5 -26zM425 351q-36 0 -68.5 -25t-54.5 -66q28 -47 57.5 -70t69.5 -23q39 0 62.5 23t23.5 67q0 42 -23.5 68t-66.5 26z" />
    <glyph glyph-name="integral" unicode="&#x222b;" horiz-adv-x="415" 
d="M198 -19v564q0 111 25 159t84 48q42 0 72 -27l-4 -26q-31 33 -68 33q-51 0 -70 -42t-19 -145v-564q0 -106 -26 -153.5t-86 -47.5q-43 0 -70 29l3 23q32 -32 67 -32q51 0 71.5 41t20.5 140z" />
    <glyph glyph-name="approxequal" unicode="&#x2248;" 
d="M510 393l13 -15q-47 -92 -132 -92q-29 0 -61.5 16t-56.5 34.5t-55 34.5t-59 16q-79 0 -119 -87l-13 15q47 92 132 92q29 0 61.5 -16t57 -34.5t55.5 -34.5t58 -16q79 0 119 87zM510 237l13 -15q-47 -92 -132 -92q-29 0 -61.5 16t-56.5 34.5t-55 34.5t-59 16
q-79 0 -119 -87l-13 15q47 92 132 92q29 0 61.5 -16t57 -34.5t55.5 -34.5t58 -16q79 0 119 87z" />
    <glyph glyph-name="notequal" unicode="&#x2260;" 
d="M506 194v-19h-274l-74 -121h-22l73 121h-164v19h176l78 129h-254v19h266l74 121h23l-74 -121h172v-19h-184l-79 -129h263z" />
    <glyph glyph-name="lessequal" unicode="&#x2264;" 
d="M506 482l-448 -167l448 -166v-20l-461 171v30l461 172v-20zM506 69v-19h-461v19h461z" />
    <glyph glyph-name="greaterequal" unicode="&#x2265;" 
d="M45 129v20l448 167l-448 166v20l461 -171v-30zM506 69v-19h-461v19h461z" />
    <glyph glyph-name="lozenge" unicode="&#x25ca;" horiz-adv-x="491" 
d="M47 390l187 390h23l187 -390l-187 -390h-23zM422 390l-177 367l-177 -367l177 -369z" />
    <glyph glyph-name="commaaccent" unicode="&#xf6c3;" horiz-adv-x="117" 
d="M94 -73q13 -22 13 -47q0 -49 -67 -117h-22q38 40 53 65.5t15 51.5q0 20 -12 39z" />
    <glyph glyph-name="uniF8FF" unicode="&#xf8ff;" horiz-adv-x="493" 
d="M170 169l-20 -5v129q99 5 158 51.5t59 118.5q0 71 -48 109.5t-126 38.5q-34 0 -70 -13l9 25q29 8 61 8q87 0 141 -44t54 -124q0 -77 -60.5 -128.5t-157.5 -58.5v-107zM143 15q0 8 6 14t14 6q9 0 15 -6t6 -14q0 -9 -6 -15t-15 -6q-8 0 -14 6t-6 15zM0 -128v870h493v-870
h-493zM22 721v-828h449v828h-449z" />
    <glyph glyph-name="fi" unicode="&#xfb01;" horiz-adv-x="539" 
d="M154 475h150v-19h-150v-456h-20v456h-113v19h113v93q0 74 23 115.5t78 72.5l76 24v-15q-93 -29 -125 -73.5t-32 -123.5v-93zM420 472l20 6v-478h-20v472zM407 662q0 10 6.5 16.5t16.5 6.5t16.5 -6.5t6.5 -16.5t-6.5 -16.5t-16.5 -6.5t-16.5 6.5t-6.5 16.5z" />
    <glyph glyph-name="fl" unicode="&#xfb02;" horiz-adv-x="539" 
d="M154 475h150v-19h-150v-456h-20v456h-113v19h113v93q0 74 23 115.5t78 72.5l76 24v-15q-93 -29 -125 -73.5t-32 -123.5v-93zM440 780v-780h-20v774z" />
    <glyph glyph-name="NULL" horiz-adv-x="0" 
 />
    <glyph glyph-name="caron.alt" horiz-adv-x="103" 
d="M76 780q13 -27 13 -60q0 -50 -59 -123h-17q55 76 55 123q0 27 -13 52z" />
    <glyph glyph-name="commaaccent.alt" horiz-adv-x="117" 
d="M29 563q-13 22 -13 47q0 49 67 117h22q-68 -69 -68 -117q0 -20 12 -39z" />
    <glyph glyph-name="grave.cap" horiz-adv-x="151" 
d="M125 834l-118 111h34l103 -111h-19z" />
    <glyph glyph-name="acute.cap" horiz-adv-x="151" 
d="M144 945l-118 -111h-19l103 111h34z" />
    <glyph glyph-name="circumflex.cap" horiz-adv-x="257" 
d="M229 834l-101 92l-100 -92h-21l107 111h29l107 -111h-21z" />
    <glyph glyph-name="tilde.cap" horiz-adv-x="275" 
d="M10 848q4 39 22.5 60.5t45.5 21.5q23 0 63 -29t56 -29q22 0 36 18t17 47l15 -3q-4 -39 -22.5 -60.5t-45.5 -21.5q-23 0 -63 29t-56 29q-21 0 -36 -18.5t-17 -46.5z" />
    <glyph glyph-name="dieresis.cap" horiz-adv-x="249" 
d="M15 884q0 10 6.5 16.5t16.5 6.5t16.5 -6.5t6.5 -16.5t-6.5 -16.5t-16.5 -6.5t-16.5 6.5t-6.5 16.5zM187 884q0 10 6.5 16.5t16.5 6.5t16.5 -6.5t6.5 -16.5t-6.5 -16.5t-16.5 -6.5t-16.5 6.5t-6.5 16.5z" />
    <glyph glyph-name="macron.cap" horiz-adv-x="259" 
d="M249 883v-19h-239v19h239z" />
    <glyph glyph-name="breve.cap" horiz-adv-x="237" 
d="M118 854q43 0 67.5 21t24.5 61h17q0 -48 -29.5 -75t-79.5 -27q-49 0 -78.5 27t-29.5 75h17q0 -40 24 -61t67 -21z" />
    <glyph glyph-name="ring.cap" horiz-adv-x="200" 
d="M10 902q0 38 26 64t64 26t64 -26t26 -64t-26 -64t-64 -26t-64 26t-26 64zM29 902q0 -30 20.5 -50.5t50.5 -20.5t51 20.5t21 50.5t-21 51t-51 21t-50.5 -21t-20.5 -51z" />
    <glyph glyph-name="hungarumlaut.cap" horiz-adv-x="244" 
d="M100 945h34l-105 -111h-21zM203 945h34l-105 -111h-21z" />
    <glyph glyph-name="dotaccent.cap" horiz-adv-x="75" 
d="M18 885q0 8 6 14t14 6t14 -6t6 -14t-6 -14t-14 -6t-14 6t-6 14z" />
    <glyph glyph-name="caron.cap" horiz-adv-x="257" 
d="M7 945h21l100 -93l101 93h21l-107 -111h-29z" />
    <glyph glyph-name="questiondown.cap" horiz-adv-x="430" 
d="M320 569l20 6v-158q-125 -7 -199 -65.5t-74 -149.5t61 -140t161 -49q47 0 82 13l-8 -24q-35 -9 -74 -9q-108 0 -175.5 55t-67.5 154q0 95 75.5 159.5t198.5 73.5v134zM349 755q0 -10 -6.5 -16.5t-16.5 -6.5t-16.5 6.5t-6.5 16.5t6.5 16.5t16.5 6.5t16.5 -6.5t6.5 -16.5z
" />
    <glyph glyph-name="exclamdown.cap" horiz-adv-x="238" 
d="M128 5l-25 -12q6 379 12 554l12 -3q1 -144 1 -539zM143 755q0 -10 -6.5 -16.5t-16.5 -6.5t-16.5 6.5t-6.5 16.5t6.5 16.5t16.5 6.5t16.5 -6.5t6.5 -16.5z" />
    <glyph glyph-name="periodcenterd.cap" horiz-adv-x="226" 
d="M89 386q0 10 6.5 16.5t16.5 6.5t16.5 -6.5t6.5 -16.5t-6.5 -16.5t-16.5 -6.5t-16.5 6.5t-6.5 16.5z" />
    <glyph glyph-name="hyphen.cap" horiz-adv-x="324" 
d="M289 395v-19h-254v19h254z" />
    <glyph glyph-name="endash.cap" horiz-adv-x="600" 
d="M575 395v-19h-550v19h550z" />
    <glyph glyph-name="emdash.cap" horiz-adv-x="1000" 
d="M975 395v-19h-950v19h950z" />
    <glyph glyph-name="uni00AD.cap" horiz-adv-x="324" 
d="M289 395v-19h-254v19h254z" />
    <glyph glyph-name="parenleft.cap" horiz-adv-x="331" 
d="M84 386q0 136 38 234.5t120 188.5h26q-85 -91 -124 -192.5t-39 -230.5t39 -230.5t124 -192.5h-26q-82 90 -120 188.5t-38 234.5z" />
    <glyph glyph-name="parenright.cap" horiz-adv-x="331" 
d="M247 386q0 -136 -38 -234.5t-120 -188.5h-26q85 91 124 192.5t39 230.5t-39 230.5t-124 192.5h26q82 -90 120 -188.5t38 -234.5z" />
    <glyph glyph-name="bracketleft.cap" horiz-adv-x="331" 
d="M94 -37v846h165v-19h-145v-808h145v-19h-165z" />
    <glyph glyph-name="bracketright.cap" horiz-adv-x="331" 
d="M237 809v-846h-166v19h146v808h-146v19h166z" />
    <glyph glyph-name="braceleft.cap" horiz-adv-x="331" 
d="M32 376v20q52 4 76 36.5t24 82.5v158q0 72 34.5 104t106.5 32v-20q-64 0 -92.5 -26t-28.5 -90v-158q0 -107 -86 -129q86 -22 86 -129v-158q0 -64 28.5 -90t92.5 -26v-20q-72 0 -106.5 32t-34.5 104v158q0 50 -24 82.5t-76 36.5z" />
    <glyph glyph-name="braceright.cap" horiz-adv-x="331" 
d="M299 396v-20q-52 -4 -76 -36.5t-24 -82.5v-158q0 -72 -34.5 -104t-106.5 -32v20q64 0 92.5 26t28.5 90v158q0 107 86 129q-86 22 -86 129v158q0 64 -28.5 90t-92.5 26v20q72 0 106.5 -32t34.5 -104v-158q0 -50 24 -82.5t76 -36.5z" />
    <glyph glyph-name="guilsinglleft.cap" horiz-adv-x="264" 
d="M184 221l-130 165l130 165h20l-123 -165l123 -165h-20z" />
    <glyph glyph-name="guilsinglright.cap" horiz-adv-x="264" 
d="M80 551l130 -165l-130 -165h-20l123 165l-123 165h20z" />
    <glyph glyph-name="guillemotleft.cap" horiz-adv-x="395" 
d="M184 221l-130 165l130 165h20l-123 -165l123 -165h-20zM311 221l-130 165l130 165h20l-123 -165l123 -165h-20z" />
    <glyph glyph-name="guillemotright.cap" horiz-adv-x="395" 
d="M211 551l130 -165l-130 -165h-20l123 165l-123 165h20zM84 551l130 -165l-130 -165h-20l123 165l-123 165h20z" />
    <glyph glyph-name="A.superior" horiz-adv-x="392" 
d="M11 350l181 400l19 3l170 -403h-21l-70 167h-183l-75 -167h-21zM202 727l-87 -191h167z" />
    <glyph glyph-name="B.superior" horiz-adv-x="324" 
d="M271 657q0 -30 -17.5 -55.5t-50.5 -37.5q37 -9 59 -34t22 -61q0 -54 -38.5 -86.5t-102.5 -32.5h-81v402h88q57 0 89 -26.5t32 -68.5zM82 553v-184h61q56 0 88 27.5t32 72.5q0 38 -28 61t-77 23h-76zM82 733v-161h73q45 0 70 25t25 60q0 34 -25.5 55t-74.5 21h-68z" />
    <glyph glyph-name="C.superior" horiz-adv-x="397" 
d="M362 721l-5 -22q-46 40 -120 40q-75 0 -126 -55t-51 -133q0 -85 48 -136.5t125 -51.5t133 48l-3 -27q-55 -41 -130 -41q-85 0 -139.5 57.5t-54.5 149.5q0 86 57 147.5t141 61.5q76 0 125 -38z" />
    <glyph glyph-name="D.superior" horiz-adv-x="400" 
d="M138 350h-76v402h77q104 0 163 -53.5t59 -142.5q0 -99 -57.5 -152.5t-165.5 -53.5zM82 733v-364h56q99 0 150.5 48t51.5 139q0 81 -52.5 129t-148.5 48h-57z" />
    <glyph glyph-name="E.superior" horiz-adv-x="299" 
d="M82 733v-164h162v-19h-162v-181h186v-19h-206v402h203v-19h-183z" />
    <glyph glyph-name="F.superior" horiz-adv-x="291" 
d="M268 752v-19h-186v-162h174v-19h-174v-202h-20v402h206z" />
    <glyph glyph-name="G.superior" horiz-adv-x="418" 
d="M374 531v-130q-60 -58 -140 -58q-86 0 -140.5 58t-54.5 150q0 90 54 149t139 59q80 0 129 -39l-5 -23q-50 42 -124 42q-77 0 -124.5 -53.5t-47.5 -134.5q0 -84 48 -136t125 -52q75 0 121 48v120h20z" />
    <glyph glyph-name="H.superior" horiz-adv-x="408" 
d="M82 350h-20v402h20v-183h244v183h19v-402h-19v200h-244v-200z" />
    <glyph glyph-name="I.superior" horiz-adv-x="144" 
d="M82 350h-20v402h20v-402z" />
    <glyph glyph-name="J.superior" horiz-adv-x="146" 
d="M64 752h20v-336q0 -127 -42 -173l-43 -16l-1 3q37 25 51.5 63.5t14.5 117.5v341z" />
    <glyph glyph-name="K.superior" horiz-adv-x="350" 
d="M82 350h-20v402h20v-197l207 197h29l-207 -197l226 -205h-29l-226 205v-205z" />
    <glyph glyph-name="L.superior" horiz-adv-x="322" 
d="M62 350v402h20v-383h224v-19h-244z" />
    <glyph glyph-name="M.superior" horiz-adv-x="521" 
d="M62 350v402h29l167 -377l174 377h27v-402h-20v372l-172 -372h-19l-166 375v-375h-20z" />
    <glyph glyph-name="N.superior" horiz-adv-x="459" 
d="M376 752h20v-402h-23l-291 373v-373h-20v402h24l290 -372v372z" />
    <glyph glyph-name="O.superior" horiz-adv-x="453" 
d="M393 551q0 83 -46.5 136t-119.5 53q-74 0 -120.5 -53t-46.5 -136t47 -136t120 -53t119.5 53t46.5 136zM414 551q0 -91 -52.5 -150t-134.5 -59t-135 59t-53 150t53 150t135 59t134.5 -59t52.5 -150z" />
    <glyph glyph-name="P.superior" horiz-adv-x="295" 
d="M82 350h-20v402h67q67 0 105.5 -29.5t38.5 -83.5q0 -119 -148 -119h-43v-170zM82 733v-194h43q65 0 96 24t31 76q0 45 -32 69.5t-91 24.5h-47z" />
    <glyph glyph-name="Q.superior" horiz-adv-x="454" 
d="M224 350q-30 0 -48 5q12 -6 37.5 -20t48.5 -25.5t45 -19.5q29 -11 59 -12l-6 -21q-37 4 -73 19q-31 13 -74.5 38.5t-55.5 31.5q-22 11 -46 19l13 19q-39 29 -62 75.5t-23 101.5q0 86 52.5 142.5t132.5 56.5q84 0 137.5 -57t53.5 -146q0 -91 -53.5 -149t-137.5 -58z
M395 557q0 80 -47.5 131.5t-123.5 51.5q-72 0 -118 -50.5t-46 -128.5q0 -79 49 -135t115 -56q76 0 123.5 52t47.5 135z" />
    <glyph glyph-name="R.superior" horiz-adv-x="344" 
d="M61 350v402h89q61 0 95 -26.5t34 -75.5q0 -91 -111 -112l162 -188h-26l-159 184q-15 -2 -50 -2h-14v-182h-20zM81 733v-182h14q163 0 163 100q0 82 -108 82h-69z" />
    <glyph glyph-name="S.superior" horiz-adv-x="304" 
d="M42 398q39 -36 99 -36q46 0 73.5 22t27.5 63q0 32 -20.5 56t-70.5 48q-57 27 -80.5 51.5t-23.5 65.5q0 39 29 65.5t75 26.5t81 -23v-26q-35 29 -81 29q-38 0 -60.5 -20.5t-22.5 -51.5q0 -34 18 -53.5t70 -43.5q56 -26 81.5 -55.5t25.5 -68.5q0 -49 -33.5 -77t-88.5 -28
q-63 0 -96 28z" />
    <glyph glyph-name="T.superior" horiz-adv-x="335" 
d="M178 350h-20v383h-148v19h315v-19h-147v-383z" />
    <glyph glyph-name="U.superior" horiz-adv-x="399" 
d="M61 752h20v-258q0 -67 32.5 -99t86.5 -32t86 31.5t32 99.5v258h20v-258q0 -76 -38 -113.5t-100 -37.5t-100.5 38t-38.5 113v258z" />
    <glyph glyph-name="V.superior" horiz-adv-x="385" 
d="M11 752h21l156 -377l165 377h21l-177 -402h-18z" />
    <glyph glyph-name="W.superior" horiz-adv-x="545" 
d="M356 350l-84 231l-89 -231h-18l-154 402h21l142 -374l88 229l-53 145h21l136 -375l147 375h21l-159 -402h-19z" />
    <glyph glyph-name="X.superior" horiz-adv-x="390" 
d="M13 350l166 209l-149 193h25l137 -177l141 177h25l-154 -193l162 -209h-25l-149 193l-154 -193h-25z" />
    <glyph glyph-name="Y.superior" horiz-adv-x="361" 
d="M187 350h-20v182l-158 220h25l143 -200l152 200h25l-167 -218v-184z" />
    <glyph glyph-name="Z.superior" horiz-adv-x="382" 
d="M344 350h-333l301 383h-261l3 19h298l-301 -383h297z" />
    <glyph glyph-name="b.superior" horiz-adv-x="394" 
d="M174 338q-47 0 -86 21l-19 -11v510l20 6v-211q51 41 108 41q68 0 112.5 -45.5t44.5 -122.5q0 -86 -48.5 -137t-131.5 -51zM197 674q-68 0 -108 -47v-245q37 -24 85 -24q75 0 117 45t42 123q0 69 -38.5 108.5t-97.5 39.5z" />
    <glyph glyph-name="c.superior" horiz-adv-x="357" 
d="M324 407l-5 -30q-45 -39 -113 -39q-77 0 -121.5 46.5t-44.5 126.5q0 79 46.5 131t126.5 52q65 0 108 -31l-8 -19q-41 30 -100 30q-71 0 -111.5 -46t-40.5 -117q0 -72 38.5 -112.5t106.5 -40.5q67 0 115 49h3z" />
    <glyph glyph-name="d.superior" horiz-adv-x="395" 
d="M306 339v33q-48 -34 -110 -34q-72 0 -114 48.5t-42 121.5q0 83 49.5 134.5t119.5 51.5q50 0 97 -25v189l20 6v-515zM196 358q68 0 110 38v250q-38 28 -97 28q-61 0 -104.5 -45.5t-43.5 -120.5q0 -65 35.5 -107.5t99.5 -42.5z" />
    <glyph glyph-name="e.superior" horiz-adv-x="353" 
d="M193 502q-59 -15 -131 -26q6 -52 38.5 -85t91.5 -33q71 0 111 52h3l1 -25q-42 -47 -115 -47t-112.5 46t-39.5 113q0 77 50.5 137.5t125.5 60.5q46 0 71.5 -24t25.5 -61q0 -78 -120 -108zM61 497v-1q77 12 126 25q60 16 82.5 37.5t22.5 51.5q0 29 -19.5 47t-56.5 18
q-67 0 -111 -54.5t-44 -123.5z" />
    <glyph glyph-name="f.superior" horiz-adv-x="224" 
d="M213 682v-19h-102v-313h-20v313h-77v19h77v34q0 92 63 130l64 18v-16q-61 -17 -84 -45.5t-23 -86.5v-34h102z" />
    <glyph glyph-name="g.superior" horiz-adv-x="373" 
d="M178 688q44 0 78 -23q31 44 80 44v-21q-39 0 -66 -34q36 -33 36 -78q0 -36 -23.5 -61.5t-62.5 -35.5q-23 -6 -58 -11.5t-41 -6.5q-45 -9 -45 -31q0 -20 50 -30q18 -4 67.5 -10.5t59.5 -8.5q75 -14 75 -80q0 -49 -46.5 -82.5t-113.5 -33.5q-60 0 -95.5 29.5t-35.5 70.5
q0 63 73 98q-55 14 -55 47q0 20 16 31.5t51 19.5q-65 33 -65 94q0 48 34.5 80.5t86.5 32.5zM250 361q-10 2 -28 4.5t-42 6t-39 5.5q-45 -18 -64 -39t-19 -53q0 -33 29 -56.5t81 -23.5q58 0 98.5 27.5t40.5 68.5q0 48 -57 60zM78 575q0 -49 54 -78q14 -7 32 -7q20 0 52 8
q31 8 50 28.5t19 49.5q0 37 -29 64.5t-78 27.5q-44 0 -72 -26.5t-28 -66.5z" />
    <glyph glyph-name="h.superior" horiz-adv-x="389" 
d="M69 350v508l20 6v-256q12 21 25 34q48 46 103 46q109 0 109 -115v-223h-20v223q0 95 -89 95q-64 0 -108 -61q-20 -28 -20 -68v-189h-20z" />
    <glyph glyph-name="i.superior" horiz-adv-x="156" 
d="M68 678l20 6v-334h-20v328zM77 833q21 0 21 -21q0 -20 -20 -20q-21 0 -21 20q0 21 20 21z" />
    <glyph glyph-name="j.superior" horiz-adv-x="156" 
d="M68 678l20 6v-355q0 -86 -39 -127l-40 -17l-2 5q36 25 48.5 54t12.5 88v346zM78 833q8 0 14.5 -6t6.5 -15t-6 -14.5t-14 -5.5q-21 0 -21 20q0 21 20 21z" />
    <glyph glyph-name="k.superior" horiz-adv-x="338" 
d="M89 864v-331l178 149h32l-181 -150l239 -182h-33l-235 180v-180h-20v508z" />
    <glyph glyph-name="l.superior" horiz-adv-x="158" 
d="M89 864v-514h-20v508z" />
    <glyph glyph-name="m.superior" horiz-adv-x="561" 
d="M479 350v217q0 101 -77 101q-59 0 -98 -60q-10 -16 -10 -44v-214h-20v225q0 43 -20.5 68t-57.5 25q-65 0 -98 -61q-9 -17 -9 -44v-213h-20v332h20v-57q41 63 107 63q36 0 60 -19.5t33 -53.5q45 73 113 73q48 0 72.5 -32t24.5 -89v-217h-20z" />
    <glyph glyph-name="p.superior" horiz-adv-x="396" 
d="M69 682h20v-18q45 27 105 27q70 0 116 -46.5t46 -125.5q0 -83 -47 -132t-128 -49q-52 0 -92 24v-167l-20 -10v497zM194 671q-66 0 -105 -29v-257q34 -27 92 -27q73 0 113.5 43t40.5 118q0 71 -39.5 111.5t-101.5 40.5z" />
    <glyph glyph-name="q.superior" horiz-adv-x="400" 
d="M331 685v-490l-20 -10v186q-44 -32 -112 -32q-72 0 -115.5 47t-43.5 126q0 83 48 132.5t128 49.5q48 0 95 -18zM199 359q72 0 112 34v261q-42 20 -95 20q-72 0 -113.5 -43.5t-41.5 -118.5q0 -71 37 -112t101 -41z" />
    <glyph glyph-name="r.superior" horiz-adv-x="240" 
d="M229 685v-20q-71 0 -106 -34t-35 -73v-208h-19v332h19v-67q12 20 26 32q43 36 115 38z" />
    <glyph glyph-name="s.superior" horiz-adv-x="298" 
d="M35 377l4 24q40 -43 101 -43q47 0 72 19t25 54q0 23 -9 37.5t-35 25.5q-13 6 -45 16.5t-47 17.5q-56 26 -56 78q0 38 26.5 63t71.5 25q58 0 105 -35l-8 -19q-42 34 -97 34q-36 0 -56.5 -19t-20.5 -49q0 -39 42 -59q13 -6 46 -17t47 -18q57 -27 57 -81q0 -43 -31.5 -68
t-86.5 -25q-64 0 -105 39z" />
    <glyph glyph-name="t.superior" horiz-adv-x="221" 
d="M14 682h67v114l20 6v-120h110v-19h-110v-197q0 -49 11 -71.5t47 -39.5v-4l-28 -4q-28 17 -39 41t-11 78v197h-67v19z" />
    <glyph glyph-name="u.superior" horiz-adv-x="388" 
d="M63 682h20v-224q0 -49 21.5 -71.5t68.5 -22.5q33 0 64.5 19t52.5 53q12 21 12 41v205h18v-327l-18 -10v76q-51 -77 -129 -77q-110 0 -110 114v224z" />
    <glyph glyph-name="v.superior" horiz-adv-x="305" 
d="M13 682h21l109 -310l128 310h21l-138 -332h-22z" />
    <glyph glyph-name="w.superior" horiz-adv-x="499" 
d="M239 682h22l84 -306l120 306h21l-131 -332h-22l-84 304l-103 -304h-22l-111 332h21l101 -306z" />
    <glyph glyph-name="x.superior" horiz-adv-x="361" 
d="M306 682h27l-143 -160l143 -172h-26l-131 157l-140 -157h-27l154 173l-131 159h26l119 -144z" />
    <glyph glyph-name="y.superior" horiz-adv-x="316" 
d="M49 185q49 64 98 177l-134 320h21l122 -297l126 297h21l-145 -341q-43 -100 -83 -156h-26z" />
    <glyph glyph-name="z.superior" horiz-adv-x="359" 
d="M325 350h-296l261 313h-242l2 19h281l-262 -313h259z" />
    <glyph glyph-name="zero.numerator" horiz-adv-x="345" 
d="M172 350q-59 0 -95.5 54t-36.5 152t36.5 152t95.5 54q60 0 96.5 -54t36.5 -152q0 -97 -37 -151.5t-96 -54.5zM172 370q51 0 81.5 48.5t30.5 137.5q0 90 -30.5 138t-81.5 48t-81 -48t-30 -138t30 -138t81 -48z" />
    <glyph glyph-name="one.numerator" horiz-adv-x="244" 
d="M139 360h-20v373h-97l3 19h114v-392z" />
    <glyph glyph-name="two.numerator" horiz-adv-x="331" 
d="M198 496q-66 -69 -134 -117h225l-4 -19h-253v16q81 56 152 134q41 43 55.5 75.5t14.5 71.5q0 38 -22.5 61.5t-66.5 23.5q-65 0 -113 -44l5 28q39 36 108 36q53 0 81.5 -29.5t28.5 -75.5q0 -43 -17 -79.5t-60 -81.5z" />
    <glyph glyph-name="three.numerator" horiz-adv-x="335" 
d="M270 661q0 -67 -72 -92q41 -10 65.5 -37t24.5 -66q0 -54 -39 -85t-103 -31q-73 0 -110 26l-2 25q46 -31 112 -31q56 0 88.5 27t32.5 69q0 41 -35 66t-99 25q-40 0 -68 -4l6 27q36 -2 62 -2q54 0 85 21.5t31 61.5q0 35 -26 58t-72 23q-54 0 -91 -26l7 29q32 17 84 17
q56 0 87.5 -28.5t31.5 -72.5z" />
    <glyph glyph-name="four.numerator" horiz-adv-x="344" 
d="M220 360v116h-219v3l236 293h3v-277h83v-19h-83v-116h-20zM38 495h182v225z" />
    <glyph glyph-name="five.numerator" horiz-adv-x="348" 
d="M294 752l-2 -19h-198l-15 -121q23 5 52 5q78 0 119 -33t41 -88q0 -146 -229 -146q-15 0 -22 1l3 20q6 -1 19 -1q208 0 208 126q0 47 -34.5 74t-104.5 27q-37 0 -75 -8l20 163h218z" />
    <glyph glyph-name="six.numerator" horiz-adv-x="348" 
d="M291 743q-116 -11 -173 -67.5t-63 -141.5q42 71 125 71q59 0 96 -35t37 -93q0 -54 -37.5 -90.5t-97.5 -36.5q-69 0 -106 43t-37 121q0 100 64 169.5t196 80.5zM180 584q-85 0 -125 -82q5 -132 123 -132q52 0 83 30.5t31 76.5q0 50 -31 78.5t-81 28.5z" />
    <glyph glyph-name="seven.numerator" horiz-adv-x="317" 
d="M117 360q57 192 144 373h-239l9 19h259q-114 -243 -151 -392h-22z" />
    <glyph glyph-name="eight.numerator" horiz-adv-x="363" 
d="M316 459q0 -47 -36 -78t-101 -31q-63 0 -97.5 29t-34.5 77q0 81 102 107q-90 28 -90 98q0 42 34.5 71.5t85.5 29.5q55 0 85.5 -27.5t30.5 -69.5q0 -69 -83 -100q104 -25 104 -106zM295 459q0 38 -27 60.5t-89 33.5q-111 -21 -111 -97q0 -40 28 -63t83 -23q56 0 86 25.5
t30 63.5zM80 661q0 -34 23.5 -54t82.5 -35q88 28 88 93q0 34 -24.5 55.5t-70.5 21.5q-43 0 -71 -23.5t-28 -57.5z" />
    <glyph glyph-name="nine.numerator" horiz-adv-x="351" 
d="M104 350l-14 18q96 38 143.5 87.5t54.5 118.5q-44 -62 -121 -62q-59 0 -95.5 33t-36.5 90q0 55 35 91t94 36q69 0 107 -42.5t38 -122.5q0 -83 -49.5 -143.5t-155.5 -103.5zM167 533q76 0 122 71q-5 138 -125 138q-50 0 -79 -30t-29 -77q0 -49 30 -75.5t81 -26.5z" />
    <glyph glyph-name="zero.denominator" horiz-adv-x="345" 
d="M172 -10q-59 0 -95.5 54t-36.5 152t36.5 152t95.5 54q60 0 96.5 -54t36.5 -152q0 -97 -37 -151.5t-96 -54.5zM172 10q51 0 81.5 48.5t30.5 137.5q0 90 -30.5 138t-81.5 48t-81 -48t-30 -138t30 -138t81 -48z" />
    <glyph glyph-name="one.denominator" horiz-adv-x="244" 
d="M139 0h-20v373h-97l3 19h114v-392z" />
    <glyph glyph-name="two.denominator" horiz-adv-x="331" 
d="M198 136q-66 -69 -134 -117h225l-4 -19h-253v16q81 56 152 134q41 43 55.5 75.5t14.5 71.5q0 38 -22.5 61.5t-66.5 23.5q-65 0 -113 -44l5 28q39 36 108 36q53 0 81.5 -29.5t28.5 -75.5q0 -43 -17 -79.5t-60 -81.5z" />
    <glyph glyph-name="three.denominator" horiz-adv-x="335" 
d="M270 301q0 -67 -72 -92q41 -10 65.5 -37t24.5 -66q0 -54 -39 -85t-103 -31q-73 0 -110 26l-2 25q46 -31 112 -31q56 0 88.5 27t32.5 69q0 41 -35 66t-99 25q-40 0 -68 -4l6 27q36 -2 62 -2q54 0 85 21.5t31 61.5q0 35 -26 58t-72 23q-54 0 -91 -26l7 29q32 17 84 17
q56 0 87.5 -28.5t31.5 -72.5z" />
    <glyph glyph-name="four.denominator" horiz-adv-x="344" 
d="M220 0v116h-219v3l236 293h3v-277h83v-19h-83v-116h-20zM38 135h182v225z" />
    <glyph glyph-name="five.denominator" horiz-adv-x="348" 
d="M294 392l-2 -19h-198l-15 -121q23 5 52 5q78 0 119 -33t41 -88q0 -146 -229 -146q-15 0 -22 1l3 20q6 -1 19 -1q208 0 208 126q0 47 -34.5 74t-104.5 27q-37 0 -75 -8l20 163h218z" />
    <glyph glyph-name="six.denominator" horiz-adv-x="348" 
d="M291 383q-116 -11 -173 -67.5t-63 -141.5q42 71 125 71q59 0 96 -35t37 -93q0 -54 -37.5 -90.5t-97.5 -36.5q-69 0 -106 43t-37 121q0 100 64 169.5t196 80.5zM180 224q-85 0 -125 -82q5 -132 123 -132q52 0 83 30.5t31 76.5q0 50 -31 78.5t-81 28.5z" />
    <glyph glyph-name="seven.denominator" horiz-adv-x="317" 
d="M117 0q57 192 144 373h-239l9 19h259q-114 -243 -151 -392h-22z" />
    <glyph glyph-name="eight.denominator" horiz-adv-x="363" 
d="M316 99q0 -47 -36 -78t-101 -31q-63 0 -97.5 29t-34.5 77q0 81 102 107q-90 28 -90 98q0 42 34.5 71.5t85.5 29.5q55 0 85.5 -27.5t30.5 -69.5q0 -69 -83 -100q104 -25 104 -106zM295 99q0 38 -27 60.5t-89 33.5q-111 -21 -111 -97q0 -40 28 -63t83 -23q56 0 86 25.5
t30 63.5zM80 301q0 -34 23.5 -54t82.5 -35q88 28 88 93q0 34 -24.5 55.5t-70.5 21.5q-43 0 -71 -23.5t-28 -57.5z" />
    <glyph glyph-name="nine.denominator" horiz-adv-x="351" 
d="M104 -10l-14 18q96 38 143.5 87.5t54.5 118.5q-44 -62 -121 -62q-59 0 -95.5 33t-36.5 90q0 55 35 91t94 36q69 0 107 -42.5t38 -122.5q0 -83 -49.5 -143.5t-155.5 -103.5zM167 173q76 0 122 71q-5 138 -125 138q-50 0 -79 -30t-29 -77q0 -49 30 -75.5t81 -26.5z" />
    <glyph glyph-name="zero.scprop" horiz-adv-x="514" 
d="M257 -16q-85 0 -136 70.5t-51 199.5q0 130 51 200.5t136 70.5q84 0 135 -70.5t51 -200.5q0 -129 -51 -199.5t-135 -70.5zM257 4q77 0 121 65t44 185q0 121 -44 186t-121 65t-121.5 -65t-44.5 -186q0 -120 44.5 -185t121.5 -65z" />
    <glyph glyph-name="one.scprop" horiz-adv-x="263" 
d="M152 0h-20v489h-80l4 19h96v-508z" />
    <glyph glyph-name="two.scprop" horiz-adv-x="487" 
d="M263 164q-85 -83 -165 -145h311l-2 -19h-341v17q84 67 184 163q66 64 90.5 109.5t24.5 98.5q0 49 -31.5 81.5t-92.5 32.5q-87 0 -159 -55l6 29q65 46 153 46q69 0 107 -38.5t38 -95.5q0 -58 -26 -106.5t-97 -117.5z" />
    <glyph glyph-name="three.scprop" horiz-adv-x="472" 
d="M370 393q0 -50 -32 -83.5t-87 -43.5q62 -7 99.5 -41.5t37.5 -90.5q0 -67 -50.5 -107.5t-131.5 -40.5q-89 0 -137 29l-1 25q54 -34 138 -34q73 0 117 34.5t44 93.5q0 55 -45 87.5t-126 32.5q-64 0 -99 -4l5 24q20 -1 74 -1q81 0 127 32t46 90q0 47 -32.5 77t-92.5 30
q-80 0 -132 -32l4 25q56 27 128 27q69 0 107.5 -36.5t38.5 -92.5z" />
    <glyph glyph-name="four.scprop" horiz-adv-x="490" 
d="M323 0v154h-298l315 383h3v-364h90v-19h-90v-154h-20zM65 173h258v313z" />
    <glyph glyph-name="five.scprop" horiz-adv-x="453" 
d="M361 508l-3 -19h-232l-21 -162q21 4 66 4q97 0 150.5 -43.5t53.5 -111.5q0 -100 -76 -152t-223 -52h-18l3 20h15q278 0 278 184q0 60 -47 97.5t-136 37.5q-44 0 -89 -8l26 205h253z" />
    <glyph glyph-name="six.scprop" horiz-adv-x="516" 
d="M400 527q-133 -13 -209.5 -84.5t-94.5 -178.5q60 74 165 74q78 0 126 -47.5t48 -127.5q0 -74 -49.5 -125.5t-128.5 -51.5q-90 0 -138 57t-48 157q0 138 84 235.5t249 112.5zM261 318q-107 0 -169 -85q-1 -11 -1 -33q0 -92 42.5 -143t123.5 -51q70 0 113.5 45.5
t43.5 111.5q0 72 -41.5 113.5t-111.5 41.5z" />
    <glyph glyph-name="seven.scprop" horiz-adv-x="434" 
d="M38 508h345q-160 -319 -201 -508h-22q57 223 192 489h-324z" />
    <glyph glyph-name="eight.scprop" horiz-adv-x="519" 
d="M433 128q0 -61 -45.5 -101t-125.5 -40q-82 0 -129 38t-47 100q0 50 36.5 85t104.5 52q-117 38 -117 131q0 55 43.5 93.5t108.5 38.5q69 0 109 -36t40 -92q0 -93 -116 -133q138 -35 138 -136zM412 128q0 48 -36.5 78t-115.5 47q-153 -33 -153 -128q0 -54 40.5 -86
t114.5 -32q71 0 110.5 34t39.5 87zM131 393q0 -46 29 -72.5t103 -48.5q127 39 127 125q0 48 -33.5 78t-94.5 30q-56 0 -93.5 -32.5t-37.5 -79.5z" />
    <glyph glyph-name="nine.scprop" horiz-adv-x="500" 
d="M164 -13l-9 20q114 47 171 108.5t68 147.5q-58 -76 -150 -76q-77 0 -124.5 48t-47.5 129q0 67 47 114t120 47q84 0 131.5 -55.5t47.5 -155.5q0 -111 -61 -191t-193 -136zM244 208q89 0 153 85q1 7 1 21q0 91 -41.5 141t-117.5 50q-65 0 -105.5 -41t-40.5 -100
q0 -73 41.5 -114.5t109.5 -41.5z" />
    <glyph glyph-name="zero.sctab" horiz-adv-x="449" 
d="M224 -16q-86 0 -138 70.5t-52 199.5t52 200t138 71t138.5 -70.5t52.5 -200.5q0 -129 -52.5 -199.5t-138.5 -70.5zM224 4q78 0 124 64.5t46 185.5t-46 186t-124 65q-77 0 -123 -65t-46 -186t46 -185.5t123 -64.5z" />
    <glyph glyph-name="one.sctab" horiz-adv-x="449" 
d="M133 0v19h94v470h-80l4 19h96v-489h97v-19h-211z" />
    <glyph glyph-name="two.sctab" horiz-adv-x="449" 
d="M246 164q-85 -83 -165 -145h311l-2 -19h-341v17q84 67 184 163q66 64 90.5 109.5t24.5 98.5q0 49 -31.5 81.5t-92.5 32.5q-87 0 -159 -55l6 29q65 46 153 46q69 0 107 -38.5t38 -95.5q0 -58 -26 -106.5t-97 -117.5z" />
    <glyph glyph-name="three.sctab" horiz-adv-x="449" 
d="M360 393q0 -50 -31 -83.5t-84 -43.5q60 -7 96.5 -41.5t36.5 -90.5q0 -67 -49 -107.5t-129 -40.5q-89 0 -137 29l-1 25q54 -34 138 -34q72 0 114.5 34.5t42.5 93.5q0 55 -43.5 87.5t-123.5 32.5q-64 0 -99 -4l5 24q20 -1 74 -1q79 0 124 32t45 90q0 47 -31 77t-90 30
q-80 0 -132 -32l4 25q56 27 128 27q67 0 104.5 -36.5t37.5 -92.5z" />
    <glyph glyph-name="four.sctab" horiz-adv-x="449" 
d="M315 0v154h-298l315 383h3v-364h90v-19h-90v-154h-20zM57 173h258v313z" />
    <glyph glyph-name="five.sctab" horiz-adv-x="449" 
d="M367 508l-3 -19h-228l-21 -162q21 4 66 4q96 0 148 -43.5t52 -111.5q0 -101 -75 -152.5t-220 -51.5h-18l3 20h15q274 0 274 184q0 60 -46 97.5t-133 37.5q-44 0 -89 -8l26 205h249z" />
    <glyph glyph-name="six.sctab" horiz-adv-x="449" 
d="M371 527q-133 -13 -209.5 -84.5t-94.5 -178.5q60 74 165 74q78 0 126 -47.5t48 -127.5q0 -74 -49.5 -125.5t-128.5 -51.5q-90 0 -138 57t-48 157q0 138 84 235.5t249 112.5zM232 318q-107 0 -169 -85q-1 -11 -1 -33q0 -92 42.5 -143t123.5 -51q70 0 113.5 45.5
t43.5 111.5q0 72 -41.5 113.5t-111.5 41.5z" />
    <glyph glyph-name="seven.sctab" horiz-adv-x="449" 
d="M49 508h341q-156 -317 -197 -508h-22q58 225 188 489h-320z" />
    <glyph glyph-name="eight.sctab" horiz-adv-x="449" 
d="M397 128q0 -61 -45.5 -101t-125.5 -40q-82 0 -129 38t-47 100q0 50 36.5 85t104.5 52q-117 38 -117 131q0 55 43.5 93.5t108.5 38.5q69 0 109 -36t40 -92q0 -93 -116 -133q138 -35 138 -136zM376 128q0 48 -36.5 78t-115.5 47q-153 -33 -153 -128q0 -54 40.5 -86
t114.5 -32q71 0 110.5 34t39.5 87zM95 393q0 -46 29 -72.5t103 -48.5q127 39 127 125q0 48 -33.5 78t-94.5 30q-56 0 -93.5 -32.5t-37.5 -79.5z" />
    <glyph glyph-name="nine.sctab" horiz-adv-x="449" 
d="M138 -13l-9 20q114 47 171 108.5t68 147.5q-58 -76 -150 -76q-77 0 -124.5 48t-47.5 129q0 67 47 114t120 47q84 0 131.5 -55.5t47.5 -155.5q0 -111 -61 -191t-193 -136zM218 208q89 0 153 85q1 7 1 21q0 91 -41.5 141t-117.5 50q-65 0 -105.5 -41t-40.5 -100
q0 -73 41.5 -114.5t109.5 -41.5z" />
    <glyph glyph-name="a.sc" horiz-adv-x="501" 
d="M472 0l-100 228h-236l-107 -228h-22l240 507l21 4l226 -511h-22zM258 486l-113 -239h218z" />
    <glyph glyph-name="b.sc" horiz-adv-x="471" 
d="M288 272q50 -6 81.5 -39.5t31.5 -88.5q0 -65 -48 -104.5t-126 -39.5h-120v508h122q68 0 107 -35.5t39 -88.5q0 -39 -24.5 -70.5t-62.5 -41.5zM127 261v-243h100q69 0 111 34.5t42 91.5q0 52 -37 84.5t-103 32.5h-113zM127 489v-209h113q51 0 82.5 31t31.5 73
q0 45 -32.5 75t-92.5 30h-102z" />
    <glyph glyph-name="c.sc" horiz-adv-x="541" 
d="M486 68l-3 -31q-69 -50 -167 -50q-114 0 -187.5 74.5t-73.5 195.5q0 116 72.5 190t183.5 74q101 0 168 -48l-6 -24q-55 52 -162 52q-105 0 -170 -68.5t-65 -175.5q0 -113 68 -181.5t172 -68.5q105 0 170 61z" />
    <glyph glyph-name="d.sc" horiz-adv-x="555" 
d="M215 0h-108v508h110q135 0 209 -67t74 -176q0 -129 -73 -197t-212 -68zM127 489v-470h88q264 0 264 246q0 101 -68 162.5t-194 61.5h-90z" />
    <glyph glyph-name="e.sc" horiz-adv-x="449" 
d="M127 489v-209h236v-19h-236v-242h267v-19h-287v508h277v-19h-257z" />
    <glyph glyph-name="f.sc" horiz-adv-x="444" 
d="M127 489v-209h236v-19h-236v-261h-20v508h287v-19h-267z" />
    <glyph glyph-name="g.sc" horiz-adv-x="572" 
d="M496 244v-176q-65 -81 -183 -81q-112 0 -185 76t-73 194q0 112 71 188t181 76q102 0 176 -57l-4 -25q-68 62 -172 62q-102 0 -166.5 -70t-64.5 -174q0 -109 66.5 -179.5t170.5 -70.5q50 0 95.5 19.5t67.5 49.5v168h20z" />
    <glyph glyph-name="h.sc" horiz-adv-x="584" 
d="M127 0h-20v508h20v-229h330v229h20v-508h-20v260h-330v-260z" />
    <glyph glyph-name="i.sc" horiz-adv-x="234" 
d="M127 0h-20v508h20v-508z" />
    <glyph glyph-name="j.sc" horiz-adv-x="233" 
d="M109 508h20v-387q0 -112 -19 -177.5t-63 -108.5l-64 -30l-4 8q73 43 101.5 109t28.5 199v387z" />
    <glyph glyph-name="k.sc" horiz-adv-x="528" 
d="M476 508l-315 -247l347 -261h-33l-346 261l314 247h33zM127 0h-20v508h20v-508z" />
    <glyph glyph-name="l.sc" horiz-adv-x="443" 
d="M107 0v508h20v-489h306v-19h-326z" />
    <glyph glyph-name="m.sc" horiz-adv-x="747" 
d="M640 0h-20v486l-239 -486h-21l-233 485v-485h-20v508h32l231 -485l238 485h32v-508z" />
    <glyph glyph-name="n.sc" horiz-adv-x="657" 
d="M107 508h31l392 -490v490h20v-508h-31l-392 489v-489h-20v508z" />
    <glyph glyph-name="o.sc" horiz-adv-x="599" 
d="M523 249q0 109 -63.5 180.5t-159.5 71.5t-160 -72t-64 -180q0 -104 64 -174t160 -70q95 0 159 70t64 174zM544 249q0 -112 -70.5 -188t-173.5 -76q-104 0 -174.5 76t-70.5 188q0 117 70.5 194.5t174.5 77.5t174 -77.5t70 -194.5z" />
    <glyph glyph-name="p.sc" horiz-adv-x="438" 
d="M127 0h-20v508h99q87 0 134.5 -36t47.5 -105q0 -151 -193 -151h-68v-216zM127 489v-254h68q172 0 172 132q0 122 -161 122h-79z" />
    <glyph glyph-name="q.sc" horiz-adv-x="578" 
d="M289 -1q-33 0 -61 9l-1 -2q15 -8 48 -25.5t49 -25t42.5 -18.5t52 -16.5t55.5 -8.5l-7 -20q-55 6 -105.5 25.5t-137.5 68.5q-26 16 -52 25l12 16q-58 34 -93.5 97.5t-35.5 140.5q0 110 66.5 183t167.5 73t167.5 -73t66.5 -183q0 -115 -66.5 -190.5t-167.5 -75.5zM502 265
q0 102 -60 169t-153 67q-92 0 -152.5 -67t-60.5 -169t63 -174t150 -72q92 0 152.5 69.5t60.5 176.5z" />
    <glyph glyph-name="r.sc" horiz-adv-x="489" 
d="M107 0v508h125q161 0 161 -131q0 -107 -127 -135l210 -242h-26l-205 238q-40 -6 -91 -6h-27v-232h-20zM127 489v-238h27q110 0 164 29t54 97q0 112 -140 112h-105z" />
    <glyph glyph-name="s.sc" horiz-adv-x="447" 
d="M64 54q57 -47 148 -47q68 0 109 28.5t41 84.5q0 47 -32.5 78.5t-109.5 57.5q-80 27 -113.5 59t-33.5 87q0 49 40.5 84t103.5 35q76 0 137 -35v-27q-58 42 -137 42q-55 0 -89 -29t-34 -70q0 -44 29.5 -72.5t104.5 -53.5q82 -27 118.5 -64.5t36.5 -91.5q0 -64 -47.5 -98.5
t-123.5 -34.5q-95 0 -145 38z" />
    <glyph glyph-name="t.sc" horiz-adv-x="456" 
d="M238 0h-20v489h-209v19h438v-19h-209v-489z" />
    <glyph glyph-name="u.sc" horiz-adv-x="562" 
d="M101 508h20v-329q0 -87 44.5 -129.5t115.5 -42.5q72 0 116 42t44 130v329h20v-329q0 -96 -50 -144t-130 -48q-79 0 -129.5 48t-50.5 144v329z" />
    <glyph glyph-name="v.sc" horiz-adv-x="512" 
d="M19 508h21l210 -483l222 483h21l-233 -508h-20z" />
    <glyph glyph-name="w.sc" horiz-adv-x="697" 
d="M460 0l-112 309l-118 -309h-20l-191 508h21l180 -479l117 309l-61 170h21l173 -479l188 479h21l-199 -508h-20z" />
    <glyph glyph-name="x.sc" horiz-adv-x="563" 
d="M86 508l187 -217l192 217h26l-205 -232l239 -276h-26l-226 261l-232 -261h-26l245 276l-200 232h26z" />
    <glyph glyph-name="y.sc" horiz-adv-x="498" 
d="M481 508l-227 -284v-224h-20v224l-217 284h25l202 -265l212 265h25z" />
    <glyph glyph-name="z.sc" horiz-adv-x="534" 
d="M490 0h-466l419 489h-381l2 19h423l-422 -489h428z" />
    <glyph glyph-name="agrave.sc" horiz-adv-x="501" 
d="M472 0l-100 228h-236l-107 -228h-22l240 507l21 4l226 -511h-22zM258 486l-113 -239h218zM281 595l-115 142h29l103 -142h-17z" />
    <glyph glyph-name="aacute.sc" horiz-adv-x="501" 
d="M472 0l-100 228h-236l-107 -228h-22l240 507l21 4l226 -511h-22zM258 486l-113 -239h218zM350 737l-115 -142h-17l103 142h29z" />
    <glyph glyph-name="acircumflex.sc" horiz-adv-x="501" 
d="M472 0l-100 228h-236l-107 -228h-22l240 507l21 4l226 -511h-22zM258 486l-113 -239h218zM351 595l-94 121l-93 -121h-17l99 142h23l99 -142h-17z" />
    <glyph glyph-name="atilde.sc" horiz-adv-x="501" 
d="M472 0l-100 228h-236l-107 -228h-22l240 507l21 4l226 -511h-22zM258 486l-113 -239h218zM135 620q4 39 22.5 60.5t45.5 21.5q24 0 64.5 -29t56.5 -29q22 0 36 18t17 47l15 -3q-4 -39 -22.5 -60.5t-45.5 -21.5q-24 0 -64.5 29t-56.5 29q-21 0 -36 -18.5t-17 -46.5z" />
    <glyph glyph-name="adieresis.sc" horiz-adv-x="501" 
d="M472 0l-100 228h-236l-107 -228h-22l240 507l21 4l226 -511h-22zM258 486l-113 -239h218zM159 663q0 10 6.5 16.5t16.5 6.5t16.5 -6.5t6.5 -16.5t-6.5 -16.5t-16.5 -6.5t-16.5 6.5t-6.5 16.5zM311 663q0 10 6.5 16.5t16.5 6.5t16.5 -6.5t6.5 -16.5t-6.5 -16.5t-16.5 -6.5
t-16.5 6.5t-6.5 16.5z" />
    <glyph glyph-name="amacron.sc" horiz-adv-x="501" 
d="M472 0l-100 228h-236l-107 -228h-22l240 507l21 4l226 -511h-22zM258 486l-113 -239h218zM382 672v-19h-247v19h247z" />
    <glyph glyph-name="abreve.sc" horiz-adv-x="501" 
d="M472 0l-100 228h-236l-107 -228h-22l240 507l21 4l226 -511h-22zM258 486l-113 -239h218zM258 627q43 0 67.5 25.5t24.5 72.5h17q0 -55 -30 -86.5t-79 -31.5t-78.5 31.5t-29.5 86.5h17q0 -47 24.5 -72.5t66.5 -25.5z" />
    <glyph glyph-name="aring.sc" horiz-adv-x="501" 
d="M472 0l-100 228h-236l-107 -228h-22l240 507l21 4l226 -511h-22zM258 486l-113 -239h218zM169 676q0 37 26 63.5t63 26.5t63.5 -26.5t26.5 -63.5t-26.5 -63t-63.5 -26t-63 26t-26 63zM188 676q0 -29 20.5 -49.5t49.5 -20.5q30 0 50.5 20.5t20.5 49.5q0 30 -20.5 50.5
t-50.5 20.5q-29 0 -49.5 -20.5t-20.5 -50.5z" />
    <glyph glyph-name="aogonek.sc" horiz-adv-x="501" 
d="M435 -237q-31 0 -49 18.5t-18 52.5t21 68t83 98l-100 228h-236l-107 -228h-22l240 507l21 4l226 -511q-63 -68 -84 -102t-21 -64q0 -51 46 -51q32 0 54 22h1l-4 -28q-18 -14 -51 -14zM258 486l-113 -239h218z" />
    <glyph glyph-name="ae.sc" horiz-adv-x="634" 
d="M-18 0l296 508h291v-19h-257v-209h236v-19h-236v-242h267v-19h-287v202h-171l-117 -202h-22zM289 489l-157 -268h160v268h-3z" />
    <glyph glyph-name="cacute.sc" horiz-adv-x="541" 
d="M486 68l-3 -31q-69 -50 -167 -50q-114 0 -187.5 74.5t-73.5 195.5q0 116 72.5 190t183.5 74q101 0 168 -48l-6 -24q-55 52 -162 52q-105 0 -170 -68.5t-65 -175.5q0 -113 68 -181.5t172 -68.5q105 0 170 61zM389 737l-115 -142h-17l103 142h29z" />
    <glyph glyph-name="ccircumflex.sc" horiz-adv-x="541" 
d="M486 68l-3 -31q-69 -50 -167 -50q-114 0 -187.5 74.5t-73.5 195.5q0 116 72.5 190t183.5 74q101 0 168 -48l-6 -24q-55 52 -162 52q-105 0 -170 -68.5t-65 -175.5q0 -113 68 -181.5t172 -68.5q105 0 170 61zM390 595l-94 121l-93 -121h-17l99 142h23l99 -142h-17z" />
    <glyph glyph-name="ccaron.sc" horiz-adv-x="541" 
d="M486 68l-3 -31q-69 -50 -167 -50q-114 0 -187.5 74.5t-73.5 195.5q0 116 72.5 190t183.5 74q101 0 168 -48l-6 -24q-55 52 -162 52q-105 0 -170 -68.5t-65 -175.5q0 -113 68 -181.5t172 -68.5q105 0 170 61zM186 737h17l93 -121l94 121h17l-99 -142h-23z" />
    <glyph glyph-name="ccedilla.sc" horiz-adv-x="541" 
d="M486 68l-3 -31q-67 -48 -162 -50l-31 -61q10 2 22 2q40 0 63.5 -19t23.5 -50q0 -33 -27 -54t-68 -21q-48 0 -76 24l2 27q19 -31 74 -31q33 0 53.5 15t20.5 40q0 23 -17.5 36.5t-48.5 13.5q-29 0 -52 -10l-1 2l43 86q-109 5 -178 79t-69 191q0 116 72.5 190t183.5 74
q101 0 168 -48l-6 -24q-55 52 -162 52q-105 0 -170 -68.5t-65 -175.5q0 -113 68 -181.5t172 -68.5q105 0 170 61z" />
    <glyph glyph-name="cdotaccent.sc" horiz-adv-x="541" 
d="M486 68l-3 -31q-69 -50 -167 -50q-114 0 -187.5 74.5t-73.5 195.5q0 116 72.5 190t183.5 74q101 0 168 -48l-6 -24q-55 52 -162 52q-105 0 -170 -68.5t-65 -175.5q0 -113 68 -181.5t172 -68.5q105 0 170 61zM273 663q0 10 6.5 16.5t16.5 6.5t16.5 -6.5t6.5 -16.5
t-6.5 -16.5t-16.5 -6.5t-16.5 6.5t-6.5 16.5z" />
    <glyph glyph-name="dcaron.sc" horiz-adv-x="555" 
d="M215 0h-108v508h110q135 0 209 -67t74 -176q0 -129 -73 -197t-212 -68zM127 489v-470h88q264 0 264 246q0 101 -68 162.5t-194 61.5h-90zM134 737h17l93 -121l94 121h17l-99 -142h-23z" />
    <glyph glyph-name="dcroat.sc" horiz-adv-x="565" 
d="M215 0h-108v255h-72v19h72v234h110q135 0 209 -67t74 -176q0 -129 -73 -197t-212 -68zM127 489v-215h145v-19h-145v-236h88q264 0 264 246q0 101 -68 162.5t-194 61.5h-90z" />
    <glyph glyph-name="eth.sc" horiz-adv-x="565" 
d="M215 0h-108v255h-72v19h72v234h110q135 0 209 -67t74 -176q0 -129 -73 -197t-212 -68zM127 489v-215h145v-19h-145v-236h88q264 0 264 246q0 101 -68 162.5t-194 61.5h-90z" />
    <glyph glyph-name="egrave.sc" horiz-adv-x="449" 
d="M127 489v-209h236v-19h-236v-242h267v-19h-287v508h277v-19h-257zM269 595l-115 142h29l103 -142h-17z" />
    <glyph glyph-name="eacute.sc" horiz-adv-x="449" 
d="M127 489v-209h236v-19h-236v-242h267v-19h-287v508h277v-19h-257zM338 737l-115 -142h-17l103 142h29z" />
    <glyph glyph-name="ecircumflex.sc" horiz-adv-x="449" 
d="M127 489v-209h236v-19h-236v-242h267v-19h-287v508h277v-19h-257zM339 595l-94 121l-93 -121h-17l99 142h23l99 -142h-17z" />
    <glyph glyph-name="edieresis.sc" horiz-adv-x="449" 
d="M127 489v-209h236v-19h-236v-242h267v-19h-287v508h277v-19h-257zM147 663q0 10 6.5 16.5t16.5 6.5t16.5 -6.5t6.5 -16.5t-6.5 -16.5t-16.5 -6.5t-16.5 6.5t-6.5 16.5zM299 663q0 10 6.5 16.5t16.5 6.5t16.5 -6.5t6.5 -16.5t-6.5 -16.5t-16.5 -6.5t-16.5 6.5t-6.5 16.5z
" />
    <glyph glyph-name="emacron.sc" horiz-adv-x="449" 
d="M127 489v-209h236v-19h-236v-242h267v-19h-287v508h277v-19h-257zM370 672v-19h-247v19h247z" />
    <glyph glyph-name="ebreve.sc" horiz-adv-x="449" 
d="M127 489v-209h236v-19h-236v-242h267v-19h-287v508h277v-19h-257zM246 627q43 0 67.5 25.5t24.5 72.5h17q0 -55 -30 -86.5t-79 -31.5t-78.5 31.5t-29.5 86.5h17q0 -47 24.5 -72.5t66.5 -25.5z" />
    <glyph glyph-name="edotaccent.sc" horiz-adv-x="449" 
d="M127 489v-209h236v-19h-236v-242h267v-19h-287v508h277v-19h-257zM222 663q0 10 6.5 16.5t16.5 6.5t16.5 -6.5t6.5 -16.5t-6.5 -16.5t-16.5 -6.5t-16.5 6.5t-6.5 16.5z" />
    <glyph glyph-name="ecaron.sc" horiz-adv-x="449" 
d="M127 489v-209h236v-19h-236v-242h267v-19h-287v508h277v-19h-257zM135 737h17l93 -121l94 121h17l-99 -142h-23z" />
    <glyph glyph-name="eogonek.sc" horiz-adv-x="449" 
d="M374 0h-267v508h277v-19h-257v-209h236v-19h-236v-242h267v-19q-64 -71 -84.5 -104t-20.5 -62q0 -51 46 -51q32 0 54 22h1l-4 -28q-18 -14 -51 -14q-31 0 -49 18.5t-18 52.5q0 35 21.5 68.5t84.5 97.5z" />
    <glyph glyph-name="gcircumflex.sc" horiz-adv-x="572" 
d="M496 244v-176q-65 -81 -183 -81q-112 0 -185 76t-73 194q0 112 71 188t181 76q102 0 176 -57l-4 -25q-68 62 -172 62q-102 0 -166.5 -70t-64.5 -174q0 -109 66.5 -179.5t170.5 -70.5q50 0 95.5 19.5t67.5 49.5v168h20zM386 595l-94 121l-93 -121h-17l99 142h23l99 -142
h-17z" />
    <glyph glyph-name="gbreve.sc" horiz-adv-x="572" 
d="M496 244v-176q-65 -81 -183 -81q-112 0 -185 76t-73 194q0 112 71 188t181 76q102 0 176 -57l-4 -25q-68 62 -172 62q-102 0 -166.5 -70t-64.5 -174q0 -109 66.5 -179.5t170.5 -70.5q50 0 95.5 19.5t67.5 49.5v168h20zM293 627q43 0 67.5 25.5t24.5 72.5h17
q0 -55 -30 -86.5t-79 -31.5t-78.5 31.5t-29.5 86.5h17q0 -47 24.5 -72.5t66.5 -25.5z" />
    <glyph glyph-name="gdotaccent.sc" horiz-adv-x="572" 
d="M496 244v-176q-65 -81 -183 -81q-112 0 -185 76t-73 194q0 112 71 188t181 76q102 0 176 -57l-4 -25q-68 62 -172 62q-102 0 -166.5 -70t-64.5 -174q0 -109 66.5 -179.5t170.5 -70.5q50 0 95.5 19.5t67.5 49.5v168h20zM269 663q0 10 6.5 16.5t16.5 6.5t16.5 -6.5
t6.5 -16.5t-6.5 -16.5t-16.5 -6.5t-16.5 6.5t-6.5 16.5z" />
    <glyph glyph-name="gcommaaccent.sc" horiz-adv-x="572" 
d="M496 244v-176q-65 -81 -183 -81q-112 0 -185 76t-73 194q0 112 71 188t181 76q102 0 176 -57l-4 -25q-68 62 -172 62q-102 0 -166.5 -70t-64.5 -174q0 -109 66.5 -179.5t170.5 -70.5q50 0 95.5 19.5t67.5 49.5v168h20zM329 -73q13 -22 13 -47q0 -49 -67 -117h-22
q38 40 53 65.5t15 51.5q0 20 -12 39z" />
    <glyph glyph-name="hcircumflex.sc" horiz-adv-x="584" 
d="M127 0h-20v508h20v-229h330v229h20v-508h-20v260h-330v-260zM384 595l-94 121l-93 -121h-17l99 142h23l99 -142h-17z" />
    <glyph glyph-name="hbar.sc" horiz-adv-x="584" 
d="M127 0h-20v377h-72v19h72v112h20v-112h330v112h20v-112h72v-19h-72v-377h-20v260h-330v-260zM127 279h330v98h-330v-98z" />
    <glyph glyph-name="igrave.sc" horiz-adv-x="234" 
d="M127 0h-20v508h20v-508zM139 595l-115 142h29l103 -142h-17z" />
    <glyph glyph-name="iacute.sc" horiz-adv-x="234" 
d="M127 0h-20v508h20v-508zM208 737l-115 -142h-17l103 142h29z" />
    <glyph glyph-name="icircumflex.sc" horiz-adv-x="234" 
d="M127 0h-20v508h20v-508zM209 595l-94 121l-93 -121h-17l99 142h23l99 -142h-17z" />
    <glyph glyph-name="itilde.sc" horiz-adv-x="234" 
d="M4 624q4 39 22.5 60.5t45.5 21.5q20 0 54 -29t47 -29q21 0 34.5 18t16.5 47l17 -3q-4 -39 -22.5 -60.5t-45.5 -21.5q-19 0 -53 29t-48 29q-21 0 -35 -18.5t-16 -46.5zM127 0h-20v508h20v-508z" />
    <glyph glyph-name="idieresis.sc" horiz-adv-x="234" 
d="M27 667q0 10 6.5 16.5t16.5 6.5t16.5 -6.5t6.5 -16.5t-6.5 -16.5t-16.5 -6.5t-16.5 6.5t-6.5 16.5zM159 667q0 10 6.5 16.5t16.5 6.5t16.5 -6.5t6.5 -16.5t-6.5 -16.5t-16.5 -6.5t-16.5 6.5t-6.5 16.5zM127 0h-20v508h20v-508z" />
    <glyph glyph-name="imacron.sc" horiz-adv-x="234" 
d="M218 677v-19h-203v19h203zM127 0h-20v508h20v-508z" />
    <glyph glyph-name="ibreve.sc" horiz-adv-x="234" 
d="M127 0h-20v508h20v-508zM116 627q43 0 67.5 25.5t24.5 72.5h17q0 -55 -30 -86.5t-79 -31.5t-78.5 31.5t-29.5 86.5h17q0 -47 24.5 -72.5t66.5 -25.5z" />
    <glyph glyph-name="idotaccent.sc" horiz-adv-x="234" 
d="M127 0h-20v508h20v-508zM92 663q0 10 6.5 16.5t16.5 6.5t16.5 -6.5t6.5 -16.5t-6.5 -16.5t-16.5 -6.5t-16.5 6.5t-6.5 16.5z" />
    <glyph glyph-name="iogonek.sc" horiz-adv-x="234" 
d="M127 0q-44 -69 -58 -102.5t-14 -63.5q0 -51 46 -51q32 0 54 22h1l-4 -28q-18 -14 -51 -14q-31 0 -49 18.5t-18 52.5q0 35 15 69t58 97v508h20v-508z" />
    <glyph glyph-name="ij.sc" horiz-adv-x="428" 
d="M127 0h-20v508h20v-508zM304 508h20v-387q0 -112 -19 -177.5t-63 -108.5l-64 -30l-4 8q73 43 101.5 109t28.5 199v387z" />
    <glyph glyph-name="jcircumflex.sc" horiz-adv-x="233" 
d="M109 508h20v-387q0 -112 -19 -177.5t-63 -108.5l-64 -30l-4 8q73 43 101.5 109t28.5 199v387zM211 595l-94 121l-93 -121h-17l99 142h23l99 -142h-17z" />
    <glyph glyph-name="kcommaaccent.sc" horiz-adv-x="528" 
d="M476 508l-315 -247l347 -261h-33l-346 261l314 247h33zM127 0h-20v508h20v-508zM280 -73q13 -22 13 -47q0 -49 -67 -117h-22q38 40 53 65.5t15 51.5q0 20 -12 39z" />
    <glyph glyph-name="lacute.sc" horiz-adv-x="443" 
d="M107 0v508h20v-489h306v-19h-326zM237 737l-115 -142h-17l103 142h29z" />
    <glyph glyph-name="lcaron.sc" horiz-adv-x="443" 
d="M107 0v508h20v-489h306v-19h-326zM274 516q13 -27 13 -60q0 -50 -59 -123h-17q55 76 55 123q0 27 -13 52z" />
    <glyph glyph-name="lcommaaccent.sc" horiz-adv-x="443" 
d="M107 0v508h20v-489h306v-19h-326zM286 -73q13 -22 13 -47q0 -49 -67 -117h-22q38 40 53 65.5t15 51.5q0 20 -12 39z" />
    <glyph glyph-name="ldot.sc" horiz-adv-x="443" 
d="M107 0v508h20v-489h306v-19h-326zM311 301q0 10 6.5 16.5t16.5 6.5t16.5 -6.5t6.5 -16.5t-6.5 -16.5t-16.5 -6.5t-16.5 6.5t-6.5 16.5z" />
    <glyph glyph-name="lslash.sc" horiz-adv-x="443" 
d="M107 0v225l-72 -47v24l72 47v259h20v-246l120 79v-24l-120 -79v-219h306v-19h-326z" />
    <glyph glyph-name="nacute.sc" horiz-adv-x="657" 
d="M107 508h31l392 -490v490h20v-508h-31l-392 489v-489h-20v508zM421 737l-115 -142h-17l103 142h29z" />
    <glyph glyph-name="ncaron.sc" horiz-adv-x="657" 
d="M107 508h31l392 -490v490h20v-508h-31l-392 489v-489h-20v508zM218 737h17l93 -121l94 121h17l-99 -142h-23z" />
    <glyph glyph-name="ntilde.sc" horiz-adv-x="657" 
d="M107 508h31l392 -490v490h20v-508h-31l-392 489v-489h-20v508zM206 620q4 39 22.5 60.5t45.5 21.5q24 0 64.5 -29t56.5 -29q22 0 36 18t17 47l15 -3q-4 -39 -22.5 -60.5t-45.5 -21.5q-24 0 -64.5 29t-56.5 29q-21 0 -36 -18.5t-17 -46.5z" />
    <glyph glyph-name="ncommaaccent.sc" horiz-adv-x="657" 
d="M107 508h31l392 -490v490h20v-508h-31l-392 489v-489h-20v508zM345 -73q13 -22 13 -47q0 -49 -67 -117h-22q38 40 53 65.5t15 51.5q0 20 -12 39z" />
    <glyph glyph-name="eng.sc" horiz-adv-x="657" 
d="M550 508v-594q0 -72 -30 -111.5t-86 -39.5q-32 0 -52 15l-4 29q21 -24 56 -24q96 0 96 131v72l-403 503v-489h-20v508h31l392 -490v490h20z" />
    <glyph glyph-name="ograve.sc" horiz-adv-x="599" 
d="M523 249q0 109 -63.5 180.5t-159.5 71.5t-160 -72t-64 -180q0 -104 64 -174t160 -70q95 0 159 70t64 174zM544 249q0 -112 -70.5 -188t-173.5 -76q-104 0 -174.5 76t-70.5 188q0 117 70.5 194.5t174.5 77.5t174 -77.5t70 -194.5zM323 595l-115 142h29l103 -142h-17z" />
    <glyph glyph-name="oacute.sc" horiz-adv-x="599" 
d="M523 249q0 109 -63.5 180.5t-159.5 71.5t-160 -72t-64 -180q0 -104 64 -174t160 -70q95 0 159 70t64 174zM544 249q0 -112 -70.5 -188t-173.5 -76q-104 0 -174.5 76t-70.5 188q0 117 70.5 194.5t174.5 77.5t174 -77.5t70 -194.5zM392 737l-115 -142h-17l103 142h29z" />
    <glyph glyph-name="ocircumflex.sc" horiz-adv-x="599" 
d="M523 249q0 109 -63.5 180.5t-159.5 71.5t-160 -72t-64 -180q0 -104 64 -174t160 -70q95 0 159 70t64 174zM544 249q0 -112 -70.5 -188t-173.5 -76q-104 0 -174.5 76t-70.5 188q0 117 70.5 194.5t174.5 77.5t174 -77.5t70 -194.5zM393 595l-94 121l-93 -121h-17l99 142h23
l99 -142h-17z" />
    <glyph glyph-name="otilde.sc" horiz-adv-x="599" 
d="M523 249q0 109 -63.5 180.5t-159.5 71.5t-160 -72t-64 -180q0 -104 64 -174t160 -70q95 0 159 70t64 174zM544 249q0 -112 -70.5 -188t-173.5 -76q-104 0 -174.5 76t-70.5 188q0 117 70.5 194.5t174.5 77.5t174 -77.5t70 -194.5zM177 620q4 39 22.5 60.5t45.5 21.5
q24 0 64.5 -29t56.5 -29q22 0 36 18t17 47l15 -3q-4 -39 -22.5 -60.5t-45.5 -21.5q-24 0 -64.5 29t-56.5 29q-21 0 -36 -18.5t-17 -46.5z" />
    <glyph glyph-name="odieresis.sc" horiz-adv-x="599" 
d="M523 249q0 109 -63.5 180.5t-159.5 71.5t-160 -72t-64 -180q0 -104 64 -174t160 -70q95 0 159 70t64 174zM544 249q0 -112 -70.5 -188t-173.5 -76q-104 0 -174.5 76t-70.5 188q0 117 70.5 194.5t174.5 77.5t174 -77.5t70 -194.5zM201 663q0 10 6.5 16.5t16.5 6.5
t16.5 -6.5t6.5 -16.5t-6.5 -16.5t-16.5 -6.5t-16.5 6.5t-6.5 16.5zM353 663q0 10 6.5 16.5t16.5 6.5t16.5 -6.5t6.5 -16.5t-6.5 -16.5t-16.5 -6.5t-16.5 6.5t-6.5 16.5z" />
    <glyph glyph-name="omacron.sc" horiz-adv-x="599" 
d="M523 249q0 109 -63.5 180.5t-159.5 71.5t-160 -72t-64 -180q0 -104 64 -174t160 -70q95 0 159 70t64 174zM544 249q0 -112 -70.5 -188t-173.5 -76q-104 0 -174.5 76t-70.5 188q0 117 70.5 194.5t174.5 77.5t174 -77.5t70 -194.5zM424 672v-19h-247v19h247z" />
    <glyph glyph-name="obreve.sc" horiz-adv-x="599" 
d="M523 249q0 109 -63.5 180.5t-159.5 71.5t-160 -72t-64 -180q0 -104 64 -174t160 -70q95 0 159 70t64 174zM544 249q0 -112 -70.5 -188t-173.5 -76q-104 0 -174.5 76t-70.5 188q0 117 70.5 194.5t174.5 77.5t174 -77.5t70 -194.5zM300 627q43 0 67.5 25.5t24.5 72.5h17
q0 -55 -30 -86.5t-79 -31.5t-78.5 31.5t-29.5 86.5h17q0 -47 24.5 -72.5t66.5 -25.5z" />
    <glyph glyph-name="ohungarumlaut.sc" horiz-adv-x="599" 
d="M523 249q0 109 -63.5 180.5t-159.5 71.5t-160 -72t-64 -180q0 -104 64 -174t160 -70q95 0 159 70t64 174zM544 249q0 -112 -70.5 -188t-173.5 -76q-104 0 -174.5 76t-70.5 188q0 117 70.5 194.5t174.5 77.5t174 -77.5t70 -194.5zM344 737l-102 -142h-19l92 142h29z
M443 737l-102 -142h-19l92 142h29z" />
    <glyph glyph-name="oslash.sc" horiz-adv-x="599" 
d="M544 249q0 -112 -70.5 -188t-173.5 -76q-79 0 -140 45l-22 -29l-19 7l26 34q-90 77 -90 207q0 117 70.5 194.5t174.5 77.5q91 0 158 -62l37 48l19 -7l-42 -55q72 -78 72 -196zM76 249q0 -120 81 -191l289 385q-61 58 -146 58q-96 0 -160 -72t-64 -180zM523 249
q0 106 -63 179l-288 -382q57 -41 128 -41q95 0 159 70t64 174z" />
    <glyph glyph-name="oe.sc" horiz-adv-x="721" 
d="M400 489l-1 -209h236v-19h-236l1 -242h266v-19h-340q-114 0 -188 72.5t-74 181.5t74.5 181.5t187.5 72.5h330v-19h-256zM85 254q0 -101 68 -168t173 -67h54v470h-54q-105 0 -173 -67t-68 -168z" />
    <glyph glyph-name="racute.sc" horiz-adv-x="489" 
d="M107 0v508h125q161 0 161 -131q0 -107 -127 -135l210 -242h-26l-205 238q-40 -6 -91 -6h-27v-232h-20zM127 489v-238h27q110 0 164 29t54 97q0 112 -140 112h-105zM338 737l-115 -142h-17l103 142h29z" />
    <glyph glyph-name="rcaron.sc" horiz-adv-x="489" 
d="M107 0v508h125q161 0 161 -131q0 -107 -127 -135l210 -242h-26l-205 238q-40 -6 -91 -6h-27v-232h-20zM127 489v-238h27q110 0 164 29t54 97q0 112 -140 112h-105zM135 737h17l93 -121l94 121h17l-99 -142h-23z" />
    <glyph glyph-name="rcommaaccent.sc" horiz-adv-x="489" 
d="M107 0v508h125q161 0 161 -131q0 -107 -127 -135l210 -242h-26l-205 238q-40 -6 -91 -6h-27v-232h-20zM127 489v-238h27q110 0 164 29t54 97q0 112 -140 112h-105zM276 -73q13 -22 13 -47q0 -49 -67 -117h-22q38 40 53 65.5t15 51.5q0 20 -12 39z" />
    <glyph glyph-name="sacute.sc" horiz-adv-x="447" 
d="M64 54q57 -47 148 -47q68 0 109 28.5t41 84.5q0 47 -32.5 78.5t-109.5 57.5q-80 27 -113.5 59t-33.5 87q0 49 40.5 84t103.5 35q76 0 137 -35v-27q-58 42 -137 42q-55 0 -89 -29t-34 -70q0 -44 29.5 -72.5t104.5 -53.5q82 -27 118.5 -64.5t36.5 -91.5q0 -64 -47.5 -98.5
t-123.5 -34.5q-95 0 -145 38zM315 737l-115 -142h-17l103 142h29z" />
    <glyph glyph-name="scaron.sc" horiz-adv-x="447" 
d="M64 54q57 -47 148 -47q68 0 109 28.5t41 84.5q0 47 -32.5 78.5t-109.5 57.5q-80 27 -113.5 59t-33.5 87q0 49 40.5 84t103.5 35q76 0 137 -35v-27q-58 42 -137 42q-55 0 -89 -29t-34 -70q0 -44 29.5 -72.5t104.5 -53.5q82 -27 118.5 -64.5t36.5 -91.5q0 -64 -47.5 -98.5
t-123.5 -34.5q-95 0 -145 38zM112 737h17l93 -121l94 121h17l-99 -142h-23z" />
    <glyph glyph-name="scircumflex.sc" horiz-adv-x="447" 
d="M64 54q57 -47 148 -47q68 0 109 28.5t41 84.5q0 47 -32.5 78.5t-109.5 57.5q-80 27 -113.5 59t-33.5 87q0 49 40.5 84t103.5 35q76 0 137 -35v-27q-58 42 -137 42q-55 0 -89 -29t-34 -70q0 -44 29.5 -72.5t104.5 -53.5q82 -27 118.5 -64.5t36.5 -91.5q0 -64 -47.5 -98.5
t-123.5 -34.5q-95 0 -145 38zM316 595l-94 121l-93 -121h-17l99 142h23l99 -142h-17z" />
    <glyph glyph-name="scedilla.sc" horiz-adv-x="447" 
d="M64 54q57 -47 148 -47q68 0 109 28.5t41 84.5q0 47 -32.5 78.5t-109.5 57.5q-80 27 -113.5 59t-33.5 87q0 49 40.5 84t103.5 35q76 0 137 -35v-27q-58 42 -137 42q-55 0 -89 -29t-34 -70q0 -44 29.5 -72.5t104.5 -53.5q82 -27 118.5 -64.5t36.5 -91.5q0 -61 -43 -95
t-114 -37l-32 -62q10 2 22 2q40 0 63.5 -19t23.5 -50q0 -33 -27 -54t-68 -21q-48 0 -76 24l2 27q19 -31 74 -31q33 0 53.5 15t20.5 40q0 23 -17.5 36.5t-48.5 13.5q-29 0 -52 -10l-1 2l43 86q-93 1 -139 38z" />
    <glyph glyph-name="uni0219.sc" horiz-adv-x="447" 
d="M64 54q57 -47 148 -47q68 0 109 28.5t41 84.5q0 47 -32.5 78.5t-109.5 57.5q-80 27 -113.5 59t-33.5 87q0 49 40.5 84t103.5 35q76 0 137 -35v-27q-58 42 -137 42q-55 0 -89 -29t-34 -70q0 -44 29.5 -72.5t104.5 -53.5q82 -27 118.5 -64.5t36.5 -91.5q0 -64 -47.5 -98.5
t-123.5 -34.5q-95 0 -145 38zM239 -73q13 -22 13 -47q0 -49 -67 -117h-22q38 40 53 65.5t15 51.5q0 20 -12 39z" />
    <glyph glyph-name="tcaron.sc" horiz-adv-x="456" 
d="M238 0h-20v489h-209v19h438v-19h-209v-489zM116 737h17l93 -121l94 121h17l-99 -142h-23z" />
    <glyph glyph-name="uni0163.sc" horiz-adv-x="456" 
d="M238 0h-20v489h-209v19h438v-19h-209v-489zM245 -73q13 -22 13 -47q0 -49 -67 -117h-22q38 40 53 65.5t15 51.5q0 20 -12 39z" />
    <glyph glyph-name="uni021B.sc" horiz-adv-x="456" 
d="M238 0h-20v489h-209v19h438v-19h-209v-489zM245 -73q13 -22 13 -47q0 -49 -67 -117h-22q38 40 53 65.5t15 51.5q0 20 -12 39z" />
    <glyph glyph-name="tbar.sc" horiz-adv-x="456" 
d="M238 0h-20v256h-102v19h102v214h-209v19h438v-19h-209v-214h103v-19h-103v-256z" />
    <glyph glyph-name="ugrave.sc" horiz-adv-x="562" 
d="M101 508h20v-329q0 -87 44.5 -129.5t115.5 -42.5q72 0 116 42t44 130v329h20v-329q0 -96 -50 -144t-130 -48q-79 0 -129.5 48t-50.5 144v329zM304 595l-115 142h29l103 -142h-17z" />
    <glyph glyph-name="uacute.sc" horiz-adv-x="562" 
d="M101 508h20v-329q0 -87 44.5 -129.5t115.5 -42.5q72 0 116 42t44 130v329h20v-329q0 -96 -50 -144t-130 -48q-79 0 -129.5 48t-50.5 144v329zM373 737l-115 -142h-17l103 142h29z" />
    <glyph glyph-name="ucircumflex.sc" horiz-adv-x="562" 
d="M101 508h20v-329q0 -87 44.5 -129.5t115.5 -42.5q72 0 116 42t44 130v329h20v-329q0 -96 -50 -144t-130 -48q-79 0 -129.5 48t-50.5 144v329zM374 595l-94 121l-93 -121h-17l99 142h23l99 -142h-17z" />
    <glyph glyph-name="utilde.sc" horiz-adv-x="562" 
d="M101 508h20v-329q0 -87 44.5 -129.5t115.5 -42.5q72 0 116 42t44 130v329h20v-329q0 -96 -50 -144t-130 -48q-79 0 -129.5 48t-50.5 144v329zM158 620q4 39 22.5 60.5t45.5 21.5q24 0 64.5 -29t56.5 -29q22 0 36 18t17 47l15 -3q-4 -39 -22.5 -60.5t-45.5 -21.5
q-24 0 -64.5 29t-56.5 29q-21 0 -36 -18.5t-17 -46.5z" />
    <glyph glyph-name="udieresis.sc" horiz-adv-x="562" 
d="M101 508h20v-329q0 -87 44.5 -129.5t115.5 -42.5q72 0 116 42t44 130v329h20v-329q0 -96 -50 -144t-130 -48q-79 0 -129.5 48t-50.5 144v329zM182 663q0 10 6.5 16.5t16.5 6.5t16.5 -6.5t6.5 -16.5t-6.5 -16.5t-16.5 -6.5t-16.5 6.5t-6.5 16.5zM334 663q0 10 6.5 16.5
t16.5 6.5t16.5 -6.5t6.5 -16.5t-6.5 -16.5t-16.5 -6.5t-16.5 6.5t-6.5 16.5z" />
    <glyph glyph-name="umacron.sc" horiz-adv-x="562" 
d="M101 508h20v-329q0 -87 44.5 -129.5t115.5 -42.5q72 0 116 42t44 130v329h20v-329q0 -96 -50 -144t-130 -48q-79 0 -129.5 48t-50.5 144v329zM405 672v-19h-247v19h247z" />
    <glyph glyph-name="ubreve.sc" horiz-adv-x="562" 
d="M101 508h20v-329q0 -87 44.5 -129.5t115.5 -42.5q72 0 116 42t44 130v329h20v-329q0 -96 -50 -144t-130 -48q-79 0 -129.5 48t-50.5 144v329zM281 627q43 0 67.5 25.5t24.5 72.5h17q0 -55 -30 -86.5t-79 -31.5t-78.5 31.5t-29.5 86.5h17q0 -47 24.5 -72.5t66.5 -25.5z
" />
    <glyph glyph-name="uring.sc" horiz-adv-x="562" 
d="M101 508h20v-329q0 -87 44.5 -129.5t115.5 -42.5q72 0 116 42t44 130v329h20v-329q0 -96 -50 -144t-130 -48q-79 0 -129.5 48t-50.5 144v329zM192 676q0 37 26 63.5t63 26.5t63.5 -26.5t26.5 -63.5t-26.5 -63t-63.5 -26t-63 26t-26 63zM211 676q0 -29 20.5 -49.5
t49.5 -20.5q30 0 50.5 20.5t20.5 49.5q0 30 -20.5 50.5t-50.5 20.5q-29 0 -49.5 -20.5t-20.5 -50.5z" />
    <glyph glyph-name="uhungarumlaut.sc" horiz-adv-x="562" 
d="M101 508h20v-329q0 -87 44.5 -129.5t115.5 -42.5q72 0 116 42t44 130v329h20v-329q0 -96 -50 -144t-130 -48q-79 0 -129.5 48t-50.5 144v329zM325 737l-102 -142h-19l92 142h29zM424 737l-102 -142h-19l92 142h29z" />
    <glyph glyph-name="uogonek.sc" horiz-adv-x="562" 
d="M324 -237q-31 0 -49 18.5t-18 52.5q0 38 20.5 73.5t76.5 91.5q-34 -12 -73 -12q-79 0 -129.5 48t-50.5 144v329h20v-329q0 -87 44.5 -129.5t115.5 -42.5q72 0 116 42t44 130v329h20v-329q0 -95 -56 -151q-78 -78 -102.5 -117.5t-24.5 -76.5q0 -51 46 -51q32 0 54 22h1
l-4 -28q-18 -14 -51 -14z" />
    <glyph glyph-name="wgrave.sc" horiz-adv-x="697" 
d="M460 0l-112 309l-118 -309h-20l-191 508h21l180 -479l117 309l-61 170h21l173 -479l188 479h21l-199 -508h-20zM374 595l-115 142h29l103 -142h-17z" />
    <glyph glyph-name="wacute.sc" horiz-adv-x="697" 
d="M460 0l-112 309l-118 -309h-20l-191 508h21l180 -479l117 309l-61 170h21l173 -479l188 479h21l-199 -508h-20zM443 737l-115 -142h-17l103 142h29z" />
    <glyph glyph-name="wcircumflex.sc" horiz-adv-x="697" 
d="M460 0l-112 309l-118 -309h-20l-191 508h21l180 -479l117 309l-61 170h21l173 -479l188 479h21l-199 -508h-20zM444 595l-94 121l-93 -121h-17l99 142h23l99 -142h-17z" />
    <glyph glyph-name="wdieresis.sc" horiz-adv-x="697" 
d="M460 0l-112 309l-118 -309h-20l-191 508h21l180 -479l117 309l-61 170h21l173 -479l188 479h21l-199 -508h-20zM252 663q0 10 6.5 16.5t16.5 6.5t16.5 -6.5t6.5 -16.5t-6.5 -16.5t-16.5 -6.5t-16.5 6.5t-6.5 16.5zM404 663q0 10 6.5 16.5t16.5 6.5t16.5 -6.5t6.5 -16.5
t-6.5 -16.5t-16.5 -6.5t-16.5 6.5t-6.5 16.5z" />
    <glyph glyph-name="ygrave.sc" horiz-adv-x="498" 
d="M481 508l-227 -284v-224h-20v224l-217 284h25l202 -265l212 265h25zM272 595l-115 142h29l103 -142h-17z" />
    <glyph glyph-name="yacute.sc" horiz-adv-x="498" 
d="M481 508l-227 -284v-224h-20v224l-217 284h25l202 -265l212 265h25zM341 737l-115 -142h-17l103 142h29z" />
    <glyph glyph-name="ycircumflex.sc" horiz-adv-x="498" 
d="M481 508l-227 -284v-224h-20v224l-217 284h25l202 -265l212 265h25zM342 595l-94 121l-93 -121h-17l99 142h23l99 -142h-17z" />
    <glyph glyph-name="ydieresis.sc" horiz-adv-x="498" 
d="M481 508l-227 -284v-224h-20v224l-217 284h25l202 -265l212 265h25zM150 663q0 10 6.5 16.5t16.5 6.5t16.5 -6.5t6.5 -16.5t-6.5 -16.5t-16.5 -6.5t-16.5 6.5t-6.5 16.5zM302 663q0 10 6.5 16.5t16.5 6.5t16.5 -6.5t6.5 -16.5t-6.5 -16.5t-16.5 -6.5t-16.5 6.5t-6.5 16.5
z" />
    <glyph glyph-name="zacute.sc" horiz-adv-x="534" 
d="M490 0h-466l419 489h-381l2 19h423l-422 -489h428zM352 737l-115 -142h-17l103 142h29z" />
    <glyph glyph-name="zcaron.sc" horiz-adv-x="534" 
d="M490 0h-466l419 489h-381l2 19h423l-422 -489h428zM149 737h17l93 -121l94 121h17l-99 -142h-23z" />
    <glyph glyph-name="zdotaccent.sc" horiz-adv-x="534" 
d="M490 0h-466l419 489h-381l2 19h423l-422 -489h428zM236 663q0 10 6.5 16.5t16.5 6.5t16.5 -6.5t6.5 -16.5t-6.5 -16.5t-16.5 -6.5t-16.5 6.5t-6.5 16.5z" />
    <glyph glyph-name="germandbls.sc" horiz-adv-x="593" 
d="M476 472l-128 -194q86 -1 136 -39.5t50 -103.5q0 -63 -45 -105t-122 -42q-81 0 -121 43l-3 29h3q41 -52 121 -52q68 0 107 36t39 91q0 57 -44.5 90t-124.5 33q-16 0 -32 -2l-1 2l135 206q-56 41 -143 41q-80 0 -131 -53.5t-51 -141.5v-310h-20v310q0 96 57 155.5
t145 59.5q99 0 173 -53z" />
    <glyph glyph-name="thorn.sc" horiz-adv-x="425" 
d="M127 0h-20v508h20v-106h79q87 0 134 -36t47 -105q0 -151 -192 -151h-68v-110zM127 383v-254h68q171 0 171 132q0 122 -160 122h-79z" />
    <glyph glyph-name="fi.sc" horiz-adv-x="659" 
d="M127 489v-209h236v-19h-236v-261h-20v508h287v-19h-267zM553 0h-20v508h20v-508z" />
    <glyph glyph-name="fl.sc" horiz-adv-x="868" 
d="M127 489v-209h236v-19h-236v-261h-20v508h287v-19h-267zM533 0v508h20v-489h306v-19h-326z" />
    <glyph glyph-name="ampersand.sc" horiz-adv-x="636" 
d="M341 248l-7 20q36 17 126 27.5t128 26.5l7 -18q-35 -17 -111 -26q12 -43 12 -84q0 -102 -56 -156.5t-166 -54.5q-92 0 -146 48.5t-54 121.5q0 108 98 152q-36 36 -36 95q0 56 44 90.5t121 34.5q54 0 97 -16l-5 -21q-36 17 -92 17q-68 0 -106 -28.5t-38 -76.5
q0 -58 44 -102q-107 -42 -107 -145q0 -65 48 -107.5t132 -42.5q201 0 201 191q0 45 -12 82q-84 -10 -122 -28z" />
    <glyph glyph-name="exclam.sc" horiz-adv-x="244" 
d="M116 506l25 9q-6 -255 -12 -360l-12 3q-1 90 -1 348zM99 16q0 10 6.5 16.5t16.5 6.5t16.5 -6.5t6.5 -16.5t-6.5 -16.5t-16.5 -6.5t-16.5 6.5t-6.5 16.5z" />
    <glyph glyph-name="question.sc" horiz-adv-x="342" 
d="M116 151l-20 -6v121q83 7 129.5 42t46.5 89q0 50 -39.5 77.5t-102.5 27.5q-37 0 -65 -11l8 24q24 7 57 7q72 0 117.5 -32.5t45.5 -92.5q0 -61 -48 -101t-129 -48v-97zM87 16q0 10 6.5 16.5t16.5 6.5t16.5 -6.5t6.5 -16.5t-6.5 -16.5t-16.5 -6.5t-16.5 6.5t-6.5 16.5z" />
    <glyph glyph-name="exclamdown.sc" horiz-adv-x="244" 
d="M128 1l-25 -9q6 255 12 360l12 -3q1 -90 1 -348zM98 492q0 10 6.5 16.5t16.5 6.5t16.5 -6.5t6.5 -16.5t-6.5 -16.5t-16.5 -6.5t-16.5 6.5t-6.5 16.5z" />
    <glyph glyph-name="questiondown.sc" horiz-adv-x="342" 
d="M227 364l20 6v-121q-83 -7 -129.5 -42t-46.5 -89q0 -50 39.5 -77.5t102.5 -27.5q37 0 65 11l-8 -24q-24 -7 -57 -7q-72 0 -117.5 32.5t-45.5 92.5q0 61 48 101t129 48v97zM210 492q0 10 6.5 16.5t16.5 6.5t16.5 -6.5t6.5 -16.5t-6.5 -16.5t-16.5 -6.5t-16.5 6.5
t-6.5 16.5z" />
    <glyph glyph-name="percent.sc" horiz-adv-x="680" 
d="M516 508l-330 -508h-22l329 508h23zM161 240q-51 0 -79 29t-28 84q0 59 41 107t98 48q50 0 78.5 -29t28.5 -84q0 -59 -41.5 -107t-97.5 -48zM193 488q-49 0 -83.5 -42t-34.5 -93q0 -93 86 -93q48 0 83 42t35 93q0 93 -86 93zM487 0q-51 0 -79 29t-28 84q0 59 41 107
t98 48q50 0 78.5 -29t28.5 -84q0 -59 -41.5 -107t-97.5 -48zM519 248q-49 0 -83.5 -42t-34.5 -93q0 -93 86 -93q48 0 83 42t35 93q0 93 -86 93z" />
    <glyph glyph-name="perthousand.sc" horiz-adv-x="982" 
d="M516 508l-330 -508h-22l329 508h23zM161 240q-51 0 -79 29t-28 84q0 59 41 107t98 48q50 0 78.5 -29t28.5 -84q0 -59 -41.5 -107t-97.5 -48zM193 488q-49 0 -83.5 -42t-34.5 -93q0 -93 86 -93q48 0 83 42t35 93q0 93 -86 93zM491 0q-51 0 -79 29t-28 84q0 59 41 107
t98 48q50 0 78.5 -29t28.5 -84q0 -59 -41.5 -107t-97.5 -48zM523 248q-49 0 -83.5 -42t-34.5 -93q0 -93 86 -93q48 0 83 42t35 93q0 93 -86 93zM789 0q-51 0 -79 29t-28 84q0 59 41 107t98 48q50 0 78.5 -29t28.5 -84q0 -59 -41.5 -107t-97.5 -48zM821 248q-49 0 -83.5 -42
t-34.5 -93q0 -93 86 -93q48 0 83 42t35 93q0 93 -86 93z" />
    <glyph glyph-name="dollar.sc" horiz-adv-x="449" 
d="M230 607v-82q65 -3 122 -36v-26q-54 39 -122 42v-226q78 -28 114 -65.5t36 -89.5q0 -63 -41 -99t-109 -40v-75h-19v74q-88 0 -138 39l-5 32q51 -51 143 -51v259q-68 25 -99.5 58.5t-31.5 81.5t36 83t95 38v83h19zM359 124q0 44 -30 75t-99 57v-252q59 5 94 35.5t35 84.5z
M101 403q0 -40 25 -67t85 -50v218q-50 -3 -80 -32t-30 -69z" />
    <glyph glyph-name="Euro.sc" horiz-adv-x="449" 
d="M14 302l7 19h42q15 97 75.5 150.5t153.5 53.5q75 0 125 -31l-8 -22q-42 33 -117 33q-85 0 -139 -48t-68 -136h268l-7 -19h-264q-2 -28 -2 -44q0 -14 2 -40h234l-7 -19h-225q13 -93 69.5 -142.5t146.5 -49.5q75 0 121 41l-4 -28q-43 -33 -117 -33q-99 0 -161 55t-76 157
h-55l7 19h46q-2 26 -2 40q0 30 2 44h-47z" />
    <glyph glyph-name="cent.sc" horiz-adv-x="449" 
d="M361 609l-34 -124q57 -13 99 -48l-6 -22q-44 37 -98 50l-116 -426q20 -4 49 -4q106 0 178 80l-5 -34q-71 -66 -173 -66q-26 0 -54 5l-30 -110h-20l31 114q-73 20 -113.5 77.5t-40.5 144.5q0 110 62 178t175 68q22 0 43 -3l33 120h20zM49 246q0 -79 36 -132t102 -71
l116 426q-19 3 -38 3q-104 0 -160 -62t-56 -164z" />
    <glyph glyph-name="sterling.sc" horiz-adv-x="449" 
d="M313 280l-4 -20q-60 4 -120 4h-18q20 -56 20 -93q0 -65 -32 -109q13 -4 65.5 -31t90.5 -27q50 0 90 49l11 -19q-44 -50 -101 -50q-44 0 -99 29.5t-72 31.5q-49 -53 -72 -53t-23 26q0 17 26 32.5t60 15.5h1q34 33 34 105q0 37 -20 92q-28 -1 -78 -7l7 22q41 4 64 5
q-32 82 -32 123q0 53 32.5 86t87.5 33q76 0 146 -54l-14 -18q-63 52 -132 52q-46 0 -72.5 -27.5t-26.5 -71.5q0 -37 31 -122h26q60 0 124 -4z" />
    <glyph glyph-name="florin.sc" horiz-adv-x="449" 
d="M34 -50l-10 34q25 -28 63 -28q42 0 67 46.5t42 151.5l22 137h-113v19h116l5 31q16 99 46.5 142.5t84.5 43.5q40 0 65 -19l-2 -27q-23 26 -63 26q-47 0 -71.5 -41t-40.5 -140l-3 -16h135v-19h-138l-24 -146q-19 -113 -48.5 -161t-79.5 -48q-32 0 -53 14z" />
    <glyph glyph-name="yen.sc" horiz-adv-x="449" 
d="M422 195v-20h-194v-175h-20v175h-181v20h181l-66 107h-115v19h104l-115 187h24l178 -291l191 291h24l-123 -187h112v-19h-124l-70 -107h194z" />
    <glyph glyph-name="uni20B9.sc" horiz-adv-x="449" 
d="M48 373l6 20h248q-3 44 -43 69.5t-112 25.5h-99l6 20h344l-6 -20h-137q66 -29 69 -95h74l-6 -20h-69q-4 -63 -53 -97.5t-155 -45.5l239 -230h-30l-251 243v4q124 10 174.5 39t54.5 87h-254z" />
    <glyph glyph-name="uni20BA.sc" horiz-adv-x="449" 
d="M54 289v22l62 27v170h20v-161l154 68v-22l-154 -68v-86l154 68v-22l-154 -68v-198q20 -4 47 -4q85 0 142.5 47t73.5 129l19 -12q-17 -83 -80.5 -133.5t-153.5 -50.5q-36 0 -68 8v205l-62 -27v22l62 27v86z" />
    <glyph glyph-name="zero.onumprop" horiz-adv-x="583" 
d="M292 -16q-104 0 -166 70.5t-62 199.5q0 130 62 200.5t166 70.5q103 0 165 -70.5t62 -200.5q0 -129 -62 -199.5t-165 -70.5zM292 4q95 0 150.5 64.5t55.5 185.5q0 122 -55.5 186.5t-150.5 64.5t-151 -64.5t-56 -186.5q0 -121 56 -185.5t151 -64.5z" />
    <glyph glyph-name="one.onumprop" horiz-adv-x="327" 
d="M176 0h-20v489h-80l4 19h96v-508z" />
    <glyph glyph-name="two.onumprop" horiz-adv-x="511" 
d="M298 187q-43 -43 -105 -91.5t-110 -76.5h362l-3 -19h-395v17q145 91 238 185q59 60 81 99t22 90q0 49 -34 80t-98 31q-101 0 -171 -59l7 31q69 48 164 48q72 0 112.5 -37t40.5 -94q0 -56 -25 -99.5t-86 -104.5z" />
    <glyph glyph-name="three.onumprop" horiz-adv-x="507" 
d="M423 358q0 -65 -36 -109.5t-97 -62.5q73 -12 112.5 -58t39.5 -113q0 -90 -66 -145.5t-171 -55.5q-98 0 -151 32v23q64 -35 151 -35q97 0 156.5 49.5t59.5 131.5q0 70 -50 113.5t-141 43.5q-71 0 -119 -6l6 28q21 -2 73 -2q97 0 154.5 43t57.5 123q0 63 -43 103.5
t-121 40.5q-79 0 -128 -27l5 23q47 24 123 24q87 0 136 -47.5t49 -116.5z" />
    <glyph glyph-name="four.onumprop" horiz-adv-x="581" 
d="M402 -187v187h-367l384 527h3v-508h104v-19h-104v-187h-20zM72 19h330v452z" />
    <glyph glyph-name="five.onumprop" horiz-adv-x="453" 
d="M391 508l-4 -19h-269l-32 -255q32 6 73 6q116 0 179.5 -53.5t63.5 -137.5q0 -114 -83 -173.5t-243 -59.5q-23 0 -40 1l3 21q18 -2 37 -2q305 0 305 213q0 76 -58 123.5t-164 47.5q-52 0 -97 -13l38 301h291z" />
    <glyph glyph-name="six.onumprop" horiz-adv-x="582" 
d="M494 737q-94 -8 -169.5 -45t-123.5 -93t-76 -121.5t-37 -139.5q89 92 218 92q100 0 162.5 -60t62.5 -162q0 -95 -62.5 -158.5t-162.5 -63.5q-115 0 -178.5 75t-63.5 210q0 87 25.5 167.5t76 149.5t136 114t196.5 54zM306 410q-127 0 -221 -99q-1 -14 -1 -40
q0 -126 57.5 -195.5t164.5 -69.5q91 0 147.5 57.5t56.5 144.5q0 93 -56 147.5t-148 54.5z" />
    <glyph glyph-name="seven.onumprop" horiz-adv-x="531" 
d="M55 508h407q-82 -174 -148.5 -362t-94.5 -333h-21q33 156 96.5 338t137.5 338h-391z" />
    <glyph glyph-name="eight.onumprop" horiz-adv-x="585" 
d="M517 182q0 -82 -58.5 -138.5t-159.5 -56.5q-103 0 -163 53.5t-60 139.5q0 73 50.5 125t141.5 78q-85 32 -128.5 79t-43.5 125q0 76 58 128t143 52q90 0 143.5 -49.5t53.5 -127.5q0 -144 -166 -209q97 -36 143 -82t46 -117zM496 182q0 68 -46 109.5t-154 80.5
q-93 -23 -146 -73.5t-53 -118.5q0 -77 53.5 -125t148.5 -48q93 0 145 51t52 124zM117 587q0 -74 42 -116.5t142 -79.5q172 61 172 199q0 70 -47.5 113.5t-129.5 43.5q-76 0 -127.5 -46t-51.5 -114z" />
    <glyph glyph-name="nine.onumprop" horiz-adv-x="589" 
d="M170 -206l-11 17q286 117 334 334q-86 -67 -210 -67q-97 0 -157 62t-60 165q0 94 59 157t155 63q116 0 179.5 -74.5t63.5 -207.5q0 -307 -353 -449zM283 98q134 0 215 78q5 37 5 67q0 125 -58 193.5t-165 68.5q-87 0 -140 -57t-53 -143q0 -95 53.5 -151t142.5 -56z" />
    <glyph glyph-name="zero.onumtab" 
d="M275 -16q-95 0 -153 70.5t-58 199.5t58 200t153 71q96 0 153.5 -70.5t57.5 -200.5q0 -129 -57.5 -199.5t-153.5 -70.5zM275 4q87 0 138.5 64.5t51.5 185.5q0 122 -51.5 186.5t-138.5 64.5t-138.5 -65t-51.5 -186t51.5 -185.5t138.5 -64.5z" />
    <glyph glyph-name="one.onumtab" 
d="M458 0h-326v19h152v470h-149l4 19h165v-489h154v-19z" />
    <glyph glyph-name="two.onumtab" 
d="M324 187q-42 -42 -102 -90.5t-106 -77.5h355l-3 -19h-388v17q140 91 231 185q58 59 79.5 98.5t21.5 90.5q0 49 -33.5 80t-96.5 31q-100 0 -167 -59l7 31q66 48 160 48q71 0 111 -37t40 -94q0 -56 -24 -99t-85 -105z" />
    <glyph glyph-name="three.onumtab" 
d="M434 358q0 -65 -36 -109.5t-97 -62.5q73 -12 112.5 -58t39.5 -113q0 -90 -66 -145.5t-171 -55.5q-98 0 -151 32v23q64 -35 151 -35q97 0 156.5 49.5t59.5 131.5q0 70 -50 113.5t-141 43.5q-71 0 -119 -6l6 28q21 -2 73 -2q97 0 154.5 43t57.5 123q0 63 -43.5 103.5
t-120.5 40.5q-79 0 -128 -27l5 23q46 24 123 24q87 0 136 -47.5t49 -116.5z" />
    <glyph glyph-name="four.onumtab" 
d="M392 -187v187h-367l384 527h3v-508h104v-19h-104v-187h-20zM62 19h330v452z" />
    <glyph glyph-name="five.onumtab" 
d="M443 508l-4 -19h-288l-32 -255q36 6 83 6q120 0 186 -53.5t66 -137.5q0 -114 -86 -173.5t-249 -59.5q-29 0 -50 2l3 21q22 -3 47 -3q314 0 314 213q0 76 -61 123.5t-170 47.5q-58 0 -107 -13l38 301h310z" />
    <glyph glyph-name="six.onumtab" 
d="M472 737q-91 -8 -164.5 -45t-120 -93t-73.5 -121.5t-36 -139.5q85 92 206 92q95 0 154 -60t59 -162q0 -95 -59.5 -158.5t-153.5 -63.5q-110 0 -170 75t-60 210q0 88 24.5 168t73.5 149t132.5 114t191.5 54zM284 410q-122 0 -209 -99q-1 -14 -1 -40q0 -127 54.5 -196
t155.5 -69q86 0 139 57.5t53 144.5q0 93 -52.5 147.5t-139.5 54.5z" />
    <glyph glyph-name="seven.onumtab" 
d="M72 508h403q-82 -174 -148.5 -362t-94.5 -333h-21q33 156 96.5 338t137.5 338h-387z" />
    <glyph glyph-name="eight.onumtab" 
d="M483 182q0 -82 -55.5 -138.5t-151.5 -56.5q-97 0 -153.5 53.5t-56.5 139.5q0 72 47 124.5t132 78.5q-78 31 -118 78.5t-40 125.5q0 76 54 128t133 52q84 0 135 -49.5t51 -127.5q0 -143 -155 -208q91 -36 134.5 -82.5t43.5 -117.5zM462 182q0 68 -43.5 109.5t-145.5 80.5
q-87 -23 -136.5 -73.5t-49.5 -118.5q0 -78 50 -125.5t139 -47.5q87 0 136.5 51t49.5 124zM108 587q0 -73 38.5 -115.5t131.5 -79.5q161 60 161 198q0 70 -44.5 113.5t-121.5 43.5q-70 0 -117.5 -46t-47.5 -114z" />
    <glyph glyph-name="nine.onumtab" 
d="M151 -206l-11 17q286 117 334 334q-86 -67 -210 -67q-97 0 -157 62t-60 165q0 94 59 157t155 63q116 0 179.5 -74.5t63.5 -207.5q0 -307 -353 -449zM264 98q134 0 215 78q5 37 5 67q0 125 -58 193.5t-165 68.5q-87 0 -140 -57t-53 -143q0 -95 53.5 -151t142.5 -56z" />
    <glyph glyph-name="zero.prop" horiz-adv-x="633" 
d="M318 -16q-108 0 -173.5 100.5t-65.5 290.5q0 192 64 292.5t173 100.5q107 0 173 -101t66 -291q0 -191 -64.5 -291.5t-172.5 -100.5zM318 5q99 0 157.5 94t58.5 277q0 182 -59.5 276.5t-158.5 94.5q-101 0 -158.5 -94t-57.5 -278q0 -182 59 -276t159 -94z" />
    <glyph glyph-name="one.prop" horiz-adv-x="323" 
d="M186 0h-21v733h-102l3 19h120v-752z" />
    <glyph glyph-name="two.prop" horiz-adv-x="549" 
d="M78 705q81 60 190 60q103 0 160.5 -56t57.5 -142q0 -64 -25.5 -117t-82.5 -122q-51 -63 -144.5 -156t-163.5 -153h429l-2 -19h-460v18q78 62 172.5 157.5t155.5 168.5q55 67 77.5 114.5t22.5 108.5q0 78 -51 128t-146 50q-108 0 -197 -71z" />
    <glyph glyph-name="three.prop" horiz-adv-x="556" 
d="M461 578q0 -65 -41 -118t-121 -71q87 -14 134 -64.5t47 -125.5q0 -95 -74.5 -153.5t-192.5 -58.5q-99 0 -157 30v24q65 -34 157 -34q111 0 178.5 54t67.5 138q0 80 -59 128t-168 48q-82 0 -130 -5l4 25q25 -1 86 -1q113 0 180.5 48.5t67.5 135.5q0 72 -51 119.5
t-143 47.5q-87 0 -144 -28l5 26q56 22 139 22q101 0 158 -53t57 -134z" />
    <glyph glyph-name="four.prop" horiz-adv-x="583" 
d="M430 0v247h-416l433 533h3v-514h79v-19h-79v-247h-20zM54 266h376v462z" />
    <glyph glyph-name="five.prop" horiz-adv-x="547" 
d="M477 752l-3 -19h-354l-34 -267q38 4 86 4q148 0 227.5 -64.5t79.5 -168.5q0 -129 -100 -202t-283 -73q-25 0 -32 1l2 20q8 -1 30 -1q174 0 268 67.5t94 187.5q0 97 -74 155t-213 58q-60 0 -108 -7l39 309h375z" />
    <glyph glyph-name="six.prop" horiz-adv-x="623" 
d="M534 751q-192 -16 -302 -130t-126 -277q93 98 231 98q107 0 173 -62t66 -167q0 -96 -65.5 -161.5t-171.5 -65.5q-121 0 -188.5 82t-67.5 227q0 89 28.5 170t83 147t143.5 108.5t201 51.5zM337 422q-136 0 -233 -105v-23q0 -136 61.5 -212t173.5 -76q97 0 156.5 59.5
t59.5 147.5q0 97 -59.5 153t-158.5 56z" />
    <glyph glyph-name="seven.prop" horiz-adv-x="469" 
d="M21 752h437q-72 -177 -133 -385t-87 -367h-20q26 158 86.5 363t125.5 370h-421z" />
    <glyph glyph-name="eight.prop" horiz-adv-x="600" 
d="M524 182q0 -82 -58.5 -138.5t-159.5 -56.5q-103 0 -163 53.5t-60 139.5q0 73 50.5 125t141.5 78q-85 32 -128.5 79t-43.5 125q0 76 58 128t143 52q90 0 143.5 -49.5t53.5 -127.5q0 -144 -166 -209q97 -36 143 -82t46 -117zM503 182q0 68 -46 109.5t-154 80.5
q-93 -23 -146 -73.5t-53 -118.5q0 -77 53.5 -125t148.5 -48q93 0 145 51t52 124zM124 587q0 -74 42 -116.5t142 -79.5q172 61 172 199q0 70 -47.5 113.5t-129.5 43.5q-76 0 -127.5 -46t-51.5 -114z" />
    <glyph glyph-name="nine.prop" horiz-adv-x="613" 
d="M181 -17l-11 17q155 70 238 163t102 220q-86 -72 -215 -72q-108 0 -175 64.5t-67 172.5q0 96 63 160t164 64q122 0 189.5 -82t67.5 -225q0 -329 -356 -482zM295 331q135 0 218 80q3 27 3 54q0 135 -61.5 211t-174.5 76q-93 0 -149.5 -58t-56.5 -146q0 -100 60.5 -158.5
t160.5 -58.5z" />
    <glyph glyph-name="ampersand.salt" horiz-adv-x="753" 
d="M661 338l19 -7q-43 -125 -110 -207l122 -124h-28l-107 109q-108 -122 -258 -122q-107 0 -166 50.5t-59 137.5q0 69 38 120t146 118q-66 68 -89.5 111t-23.5 92q0 70 44.5 117t117.5 47q72 0 113 -43.5t41 -107.5q0 -59 -37.5 -108.5t-134.5 -110.5l266 -270
q67 81 106 198zM299 7q137 0 243 117l-270 276q-104 -65 -140.5 -114t-36.5 -111q0 -79 52.5 -123.5t151.5 -44.5zM166 616q0 -42 23.5 -85t85.5 -107q94 58 129.5 104.5t35.5 100.5q0 56 -34.5 93.5t-98.5 37.5t-102.5 -41t-38.5 -103z" />
    <glyph glyph-name="comma.salt" horiz-adv-x="225" 
d="M171 61l-103 -205h-15l91 205h27z" />
    <glyph glyph-name="semicolon.salt" horiz-adv-x="226" 
d="M89 457q0 10 6.5 16.5t16.5 6.5t16.5 -6.5t6.5 -16.5t-6.5 -16.5t-16.5 -6.5t-16.5 6.5t-6.5 16.5zM145 61l-103 -205h-15l91 205h27z" />
    <glyph glyph-name="quoteleft.salt" horiz-adv-x="148" 
d="M16 546l103 205h15l-91 -205h-27z" />
    <glyph glyph-name="quoteright.salt" horiz-adv-x="148" 
d="M126 751l-103 -205h-15l91 205h27z" />
    <glyph glyph-name="quotesinglbase.salt" horiz-adv-x="225" 
d="M171 61l-103 -205h-15l91 205h27z" />
    <glyph glyph-name="quotedblleft.salt" horiz-adv-x="268" 
d="M153 546l103 205h15l-91 -205h-27zM21 546l103 205h15l-91 -205h-27z" />
    <glyph glyph-name="quotedblright.salt" horiz-adv-x="268" 
d="M270 751l-103 -205h-15l91 205h27zM138 751l-103 -205h-15l91 205h27z" />
    <glyph glyph-name="quotedblbase.salt" horiz-adv-x="356" 
d="M303 61l-103 -205h-15l91 205h27zM171 61l-103 -205h-15l91 205h27z" />
    <glyph glyph-name="A.salt" horiz-adv-x="722" 
d="M689 0l-149 341h-352l-155 -341h-21l355 778h2l341 -778h-21zM367 736l-171 -376h335z" />
    <glyph glyph-name="G.salt" horiz-adv-x="788" 
d="M434 765q-152 0 -247.5 -107t-95.5 -271q0 -168 97.5 -274t251.5 -106q150 0 248 100v229h-221v19h241v-257q-108 -111 -268 -111q-162 0 -266 111.5t-104 288.5q0 174 102 286t262 112q150 0 250 -77l-8 -24q-97 81 -242 81z" />
    <glyph glyph-name="J.salt" horiz-adv-x="392" 
d="M282 772v-530q0 -112 -55 -178t-153 -66q-27 0 -47 8l-5 25q20 -13 52 -13q90 0 139 60t49 164v530h20z" />
    <glyph glyph-name="M.salt" horiz-adv-x="945" 
d="M769 780l91 -780h-20l-82 700l-281 -725h-1l-286 726l-85 -701h-20l94 780h1l296 -755l292 755h1z" />
    <glyph glyph-name="N.salt" horiz-adv-x="813" 
d="M115 0v780h1l562 -751v743h20v-800h-1l-562 749v-721h-20z" />
    <glyph glyph-name="V.salt" horiz-adv-x="668" 
d="M12 772h21l296 -749l306 749h21l-326 -797h-1z" />
    <glyph glyph-name="W.salt" horiz-adv-x="1044" 
d="M12 772h21l259 -739l233 753h1l206 -752l279 738h21l-302 -797h-1l-205 744l-230 -744h-1z" />
    <glyph glyph-name="a.sc.salt" horiz-adv-x="507" 
d="M478 0l-102 228h-239l-108 -228h-22l253 533h2l238 -533h-22zM260 487l-114 -240h222z" />
    <glyph glyph-name="g.sc.salt" horiz-adv-x="580" 
d="M316 501q-102 0 -166.5 -70t-64.5 -174q0 -109 66.5 -179.5t170.5 -70.5q50 0 95 18t67 47v157h-142v19h162v-184q-65 -77 -182 -77q-112 0 -185 76t-73 194q0 112 71 188t181 76q102 0 176 -57l-4 -25q-68 62 -172 62z" />
    <glyph glyph-name="j.sc.salt" horiz-adv-x="335" 
d="M21 2l-6 28q21 -17 53 -17q69 0 107 45.5t38 127.5v322h20v-322q0 -90 -43.5 -141.5t-121.5 -51.5q-25 0 -47 9z" />
    <glyph glyph-name="m.sc.salt" horiz-adv-x="724" 
d="M581 525l63 -525h-20l-54 452l-205 -477h-1l-208 477l-55 -452h-20l64 523h1l218 -501l216 503h1z" />
    <glyph glyph-name="n.sc.salt" horiz-adv-x="660" 
d="M552 -24l-425 496v-472h-20v525h1l425 -497v480h20v-532h-1z" />
    <glyph glyph-name="v.sc.salt" horiz-adv-x="488" 
d="M19 508h22l200 -484l207 484h22l-228 -533h-1z" />
    <glyph glyph-name="w.sc.salt" horiz-adv-x="754" 
d="M520 -25l-143 484l-156 -485h-1l-201 534h22l178 -476l159 494h1l144 -492l190 474h22l-214 -533h-1z" />
    <glyph glyph-name="a.salt" horiz-adv-x="563" 
d="M475 5l-20 -9q-9 21 -11 57q-62 -67 -165 -67q-102 0 -161 71.5t-59 179.5q0 116 67.5 185.5t177.5 69.5q69 0 137 -30l23 9v-386q0 -48 11 -80zM279 6q104 0 165 74v355q-56 37 -140 37q-101 0 -162.5 -63.5t-61.5 -172.5q0 -98 53.5 -164t145.5 -66z" />
    <glyph glyph-name="e.salt" horiz-adv-x="529" 
d="M470 255l-390 -9v-16q0 -113 54.5 -169t143.5 -56q109 0 170 72h3l-7 -35q-59 -57 -166 -57q-97 0 -158 62t-61 183q0 111 62 186.5t161 75.5q87 0 138 -60t51 -158q0 -8 -1 -19zM282 472q-82 0 -136.5 -58.5t-63.5 -148.5l368 9q0 90 -45 144t-123 54z" />
    <glyph glyph-name="g.salt" horiz-adv-x="571" 
d="M471 479v-498q0 -99 -55 -158.5t-155 -59.5q-110 0 -169 61l-4 33q66 -74 173 -74q92 0 141 53.5t49 144.5v50q-68 -48 -164 -48q-104 0 -166 67.5t-62 181.5q0 119 68.5 189.5t183.5 70.5q74 0 140 -23zM287 4q99 0 164 51v391q-58 26 -140 26q-107 0 -169 -65.5
t-62 -174.5q0 -105 56 -166.5t151 -61.5z" />
    <glyph glyph-name="v.salt" horiz-adv-x="447" 
d="M19 475h22l168 -451l197 451h22l-220 -501h-1z" />
    <glyph glyph-name="w.salt" horiz-adv-x="708" 
d="M19 475h22l154 -442l164 460h1l137 -459l170 441h22l-194 -500h-1l-136 455l-163 -455h-1z" />
    <glyph glyph-name="ae.salt" horiz-adv-x="815" 
d="M756 252l-365 -10v-11q0 -115 49 -169t136 -54q101 0 158 69h3l-7 -35q-56 -54 -154 -54q-135 0 -183 114q-43 -51 -97.5 -82.5t-108.5 -31.5q-63 0 -100.5 33t-37.5 89q0 51 33 87t94 47q78 15 195 16v81q0 124 -121 124q-89 0 -148 -63h-3v27q61 56 151 56
q138 0 141 -138q11 37 39 70q60 68 149 68q82 0 130 -57t48 -151q0 -11 -1 -25zM383 125q-12 57 -12 116q-117 -2 -189 -16q-112 -24 -112 -115q0 -48 31 -75t86 -27q50 0 105 32.5t91 84.5zM579 465q-78 0 -129 -54.5t-58 -149.5l344 10v6q0 80 -41.5 134t-115.5 54z" />
    <glyph glyph-name="oe.salt" horiz-adv-x="880" 
d="M821 255l-364 -9v-15q0 -105 50 -164t133 -59q100 0 158 71h3l-6 -35q-56 -56 -155 -56q-73 0 -125.5 42t-69.5 125q-19 -82 -70 -124.5t-118 -42.5q-88 0 -143 68.5t-55 187.5q0 113 56 180.5t142 67.5q73 0 124 -46.5t67 -129.5q19 78 71 127t124 49q82 0 130.5 -59
t48.5 -156q0 -11 -1 -22zM257 8q78 0 128.5 60t50.5 176q0 107 -49.5 167.5t-129.5 60.5q-78 0 -127.5 -61.5t-49.5 -166.5q0 -111 48.5 -173.5t128.5 -62.5zM643 472q-75 0 -125.5 -59t-59.5 -148l343 9v3q0 89 -42.5 142t-115.5 53z" />
    <glyph glyph-name="Agrave.salt" horiz-adv-x="722" 
d="M689 0l-149 341h-352l-155 -341h-21l355 778h2l341 -778h-21zM367 736l-171 -376h335zM401 833l-118 111h34l103 -111h-19z" />
    <glyph glyph-name="Aacute.salt" horiz-adv-x="722" 
d="M689 0l-149 341h-352l-155 -341h-21l355 778h2l341 -778h-21zM367 736l-171 -376h335zM453 944l-118 -111h-19l103 111h34z" />
    <glyph glyph-name="Acircumflex.salt" horiz-adv-x="722" 
d="M689 0l-149 341h-352l-155 -341h-21l355 778h2l341 -778h-21zM367 736l-171 -376h335zM469 833l-101 92l-100 -92h-21l107 111h29l107 -111h-21z" />
    <glyph glyph-name="Atilde.salt" horiz-adv-x="722" 
d="M689 0l-149 341h-352l-155 -341h-21l355 778h2l341 -778h-21zM367 736l-171 -376h335zM247 847q4 39 22.5 60.5t45.5 21.5q23 0 63 -29t56 -29q22 0 36 18t17 47l15 -3q-4 -39 -22.5 -60.5t-45.5 -21.5q-23 0 -63 29t-56 29q-21 0 -36 -18.5t-17 -46.5z" />
    <glyph glyph-name="Adieresis.salt" horiz-adv-x="722" 
d="M689 0l-149 341h-352l-155 -341h-21l355 778h2l341 -778h-21zM367 736l-171 -376h335zM259 883q0 10 6.5 16.5t16.5 6.5t16.5 -6.5t6.5 -16.5t-6.5 -16.5t-16.5 -6.5t-16.5 6.5t-6.5 16.5zM431 883q0 10 6.5 16.5t16.5 6.5t16.5 -6.5t6.5 -16.5t-6.5 -16.5t-16.5 -6.5
t-16.5 6.5t-6.5 16.5z" />
    <glyph glyph-name="Amacron.salt" horiz-adv-x="722" 
d="M689 0l-149 341h-352l-155 -341h-21l355 778h2l341 -778h-21zM367 736l-171 -376h335zM487 882v-19h-239v19h239z" />
    <glyph glyph-name="Abreve.salt" horiz-adv-x="722" 
d="M689 0l-149 341h-352l-155 -341h-21l355 778h2l341 -778h-21zM367 736l-171 -376h335zM368 853q43 0 67.5 21t24.5 61h17q0 -48 -29.5 -75t-79.5 -27q-49 0 -78.5 27t-29.5 75h17q0 -40 24 -61t67 -21z" />
    <glyph glyph-name="Aring.salt" horiz-adv-x="722" 
d="M689 0l-149 341h-352l-155 -341h-21l355 778h2l341 -778h-21zM367 736l-171 -376h335zM278 901q0 37 26 63.5t64 26.5t64 -26.5t26 -63.5t-26 -63.5t-64 -26.5t-64 26.5t-26 63.5zM297 901q0 -30 20.5 -50.5t50.5 -20.5t51 20.5t21 50.5t-21 51t-51 21t-50.5 -21
t-20.5 -51z" />
    <glyph glyph-name="Aogonek.salt" horiz-adv-x="722" 
d="M651 -237q-31 0 -49 18.5t-18 52.5q0 35 21.5 68.5t83.5 97.5l-149 341h-352l-155 -341h-21l355 778h2l341 -778q-63 -68 -84 -102t-21 -64q0 -51 46 -51q32 0 54 22h1l-4 -28q-18 -14 -51 -14zM367 736l-171 -376h335z" />
    <glyph glyph-name="Gcircumflex.salt" horiz-adv-x="788" 
d="M434 765q-152 0 -247.5 -107t-95.5 -271q0 -168 97.5 -274t251.5 -106q150 0 248 100v229h-221v19h241v-257q-108 -111 -268 -111q-162 0 -266 111.5t-104 288.5q0 174 102 286t262 112q150 0 250 -77l-8 -24q-97 81 -242 81zM526 834l-101 92l-100 -92h-21l107 111h29
l107 -111h-21z" />
    <glyph glyph-name="Gbreve.salt" horiz-adv-x="788" 
d="M434 765q-152 0 -247.5 -107t-95.5 -271q0 -168 97.5 -274t251.5 -106q150 0 248 100v229h-221v19h241v-257q-108 -111 -268 -111q-162 0 -266 111.5t-104 288.5q0 174 102 286t262 112q150 0 250 -77l-8 -24q-97 81 -242 81zM425 854q43 0 67.5 21t24.5 61h17
q0 -48 -29.5 -75t-79.5 -27q-49 0 -78.5 27t-29.5 75h17q0 -40 24 -61t67 -21z" />
    <glyph glyph-name="Gdotaccent.salt" horiz-adv-x="788" 
d="M434 765q-152 0 -247.5 -107t-95.5 -271q0 -168 97.5 -274t251.5 -106q150 0 248 100v229h-221v19h241v-257q-108 -111 -268 -111q-162 0 -266 111.5t-104 288.5q0 174 102 286t262 112q150 0 250 -77l-8 -24q-97 81 -242 81zM405 885q0 8 6 14t14 6t14 -6t6 -14t-6 -14
t-14 -6t-14 6t-6 14z" />
    <glyph glyph-name="Gcommaaccent.salt" horiz-adv-x="788" 
d="M434 765q-152 0 -247.5 -107t-95.5 -271q0 -168 97.5 -274t251.5 -106q150 0 248 100v229h-221v19h241v-257q-108 -111 -268 -111q-162 0 -266 111.5t-104 288.5q0 174 102 286t262 112q150 0 250 -77l-8 -24q-97 81 -242 81zM455 -73q13 -22 13 -47q0 -49 -67 -117h-22
q38 40 53 65.5t15 51.5q0 20 -12 39z" />
    <glyph glyph-name="IJ.salt" horiz-adv-x="596" 
d="M134 0h-20v772h20v-772zM486 772v-530q0 -112 -55 -178t-153 -66q-27 0 -47 8l-5 25q20 -13 52 -13q90 0 139 60t49 164v530h20z" />
    <glyph glyph-name="Jcircumflex.salt" horiz-adv-x="392" 
d="M282 772v-530q0 -112 -55 -178t-153 -66q-27 0 -47 8l-5 25q20 -13 52 -13q90 0 139 60t49 164v530h20zM373 834l-101 92l-100 -92h-21l107 111h29l107 -111h-21z" />
    <glyph glyph-name="Nacute.salt" horiz-adv-x="813" 
d="M115 0v780h1l562 -751v743h20v-800h-1l-562 749v-721h-20zM497 945l-118 -111h-19l103 111h34z" />
    <glyph glyph-name="Ncaron.salt" horiz-adv-x="813" 
d="M115 0v780h1l562 -751v743h20v-800h-1l-562 749v-721h-20zM290 945h21l100 -93l101 93h21l-107 -111h-29z" />
    <glyph glyph-name="Ntilde.salt" horiz-adv-x="813" 
d="M115 0v780h1l562 -751v743h20v-800h-1l-562 749v-721h-20zM291 848q4 39 22.5 60.5t45.5 21.5q23 0 63 -29t56 -29q22 0 36 18t17 47l15 -3q-4 -39 -22.5 -60.5t-45.5 -21.5q-23 0 -63 29t-56 29q-21 0 -36 -18.5t-17 -46.5z" />
    <glyph glyph-name="Ncommaaccent.salt" horiz-adv-x="813" 
d="M115 0v780h1l562 -751v743h20v-800h-1l-562 749v-721h-20zM411 -73q13 -22 13 -47q0 -49 -67 -117h-22q38 40 53 65.5t15 51.5q0 20 -12 39z" />
    <glyph glyph-name="Eng.salt" horiz-adv-x="813" 
d="M115 0v780h1l562 -751v743h20v-835q0 -82 -36 -128t-102 -46q-48 0 -73 24l-3 30q31 -34 76 -34q55 0 86.5 40t31.5 114v61l-543 723v-721h-20z" />
    <glyph glyph-name="Wgrave.salt" horiz-adv-x="1044" 
d="M12 772h21l259 -739l233 753h1l206 -752l279 738h21l-302 -797h-1l-205 744l-230 -744h-1zM554 833l-118 111h34l103 -111h-19z" />
    <glyph glyph-name="Wacute.salt" horiz-adv-x="1044" 
d="M12 772h21l259 -739l233 753h1l206 -752l279 738h21l-302 -797h-1l-205 744l-230 -744h-1zM606 944l-118 -111h-19l103 111h34z" />
    <glyph glyph-name="Wcircumflex.salt" horiz-adv-x="1044" 
d="M12 772h21l259 -739l233 753h1l206 -752l279 738h21l-302 -797h-1l-205 744l-230 -744h-1zM622 833l-101 92l-100 -92h-21l107 111h29l107 -111h-21z" />
    <glyph glyph-name="Wdieresis.salt" horiz-adv-x="1044" 
d="M12 772h21l259 -739l233 753h1l206 -752l279 738h21l-302 -797h-1l-205 744l-230 -744h-1zM412 883q0 10 6.5 16.5t16.5 6.5t16.5 -6.5t6.5 -16.5t-6.5 -16.5t-16.5 -6.5t-16.5 6.5t-6.5 16.5zM584 883q0 10 6.5 16.5t16.5 6.5t16.5 -6.5t6.5 -16.5t-6.5 -16.5
t-16.5 -6.5t-16.5 6.5t-6.5 16.5z" />
    <glyph glyph-name="agrave.sc.salt" horiz-adv-x="507" 
d="M478 0l-102 228h-239l-108 -228h-22l253 533h2l238 -533h-22zM260 487l-114 -240h222zM284 595l-115 142h29l103 -142h-17z" />
    <glyph glyph-name="aacute.sc.salt" horiz-adv-x="507" 
d="M478 0l-102 228h-239l-108 -228h-22l253 533h2l238 -533h-22zM260 487l-114 -240h222zM353 737l-115 -142h-17l103 142h29z" />
    <glyph glyph-name="acircumflex.sc.salt" horiz-adv-x="507" 
d="M478 0l-102 228h-239l-108 -228h-22l253 533h2l238 -533h-22zM260 487l-114 -240h222zM354 595l-94 121l-93 -121h-17l99 142h23l99 -142h-17z" />
    <glyph glyph-name="atilde.sc.salt" horiz-adv-x="507" 
d="M478 0l-102 228h-239l-108 -228h-22l253 533h2l238 -533h-22zM260 487l-114 -240h222zM138 620q4 39 22.5 60.5t45.5 21.5q24 0 64.5 -29t56.5 -29q22 0 36 18t17 47l15 -3q-4 -39 -22.5 -60.5t-45.5 -21.5q-24 0 -64.5 29t-56.5 29q-21 0 -36 -18.5t-17 -46.5z" />
    <glyph glyph-name="adieresis.sc.salt" horiz-adv-x="507" 
d="M478 0l-102 228h-239l-108 -228h-22l253 533h2l238 -533h-22zM260 487l-114 -240h222zM162 663q0 10 6.5 16.5t16.5 6.5t16.5 -6.5t6.5 -16.5t-6.5 -16.5t-16.5 -6.5t-16.5 6.5t-6.5 16.5zM314 663q0 10 6.5 16.5t16.5 6.5t16.5 -6.5t6.5 -16.5t-6.5 -16.5t-16.5 -6.5
t-16.5 6.5t-6.5 16.5z" />
    <glyph glyph-name="amacron.sc.salt" horiz-adv-x="507" 
d="M478 0l-102 228h-239l-108 -228h-22l253 533h2l238 -533h-22zM260 487l-114 -240h222zM385 672v-19h-247v19h247z" />
    <glyph glyph-name="abreve.sc.salt" horiz-adv-x="507" 
d="M478 0l-102 228h-239l-108 -228h-22l253 533h2l238 -533h-22zM260 487l-114 -240h222zM261 627q43 0 67.5 25.5t24.5 72.5h17q0 -55 -30 -86.5t-79 -31.5t-78.5 31.5t-29.5 86.5h17q0 -47 24.5 -72.5t66.5 -25.5z" />
    <glyph glyph-name="aring.sc.salt" horiz-adv-x="507" 
d="M478 0l-102 228h-239l-108 -228h-22l253 533h2l238 -533h-22zM260 487l-114 -240h222zM172 676q0 37 26 63.5t63 26.5t63.5 -26.5t26.5 -63.5t-26.5 -63t-63.5 -26t-63 26t-26 63zM191 676q0 -29 20.5 -49.5t49.5 -20.5q30 0 50.5 20.5t20.5 49.5q0 30 -20.5 50.5
t-50.5 20.5q-29 0 -49.5 -20.5t-20.5 -50.5z" />
    <glyph glyph-name="aogonek.sc.salt" horiz-adv-x="507" 
d="M441 -237q-31 0 -49 18.5t-18 52.5t21 68t83 98l-102 228h-239l-108 -228h-22l253 533h2l238 -533q-63 -68 -84 -102t-21 -64q0 -51 46 -51q32 0 54 22h1l-4 -28q-18 -14 -51 -14zM260 487l-114 -240h222z" />
    <glyph glyph-name="gcircumflex.sc.salt" horiz-adv-x="580" 
d="M316 501q-102 0 -166.5 -70t-64.5 -174q0 -109 66.5 -179.5t170.5 -70.5q50 0 95 18t67 47v157h-142v19h162v-184q-65 -77 -182 -77q-112 0 -185 76t-73 194q0 112 71 188t181 76q102 0 176 -57l-4 -25q-68 62 -172 62zM395 595l-94 121l-93 -121h-17l99 142h23l99 -142
h-17z" />
    <glyph glyph-name="gbreve.sc.salt" horiz-adv-x="580" 
d="M316 501q-102 0 -166.5 -70t-64.5 -174q0 -109 66.5 -179.5t170.5 -70.5q50 0 95 18t67 47v157h-142v19h162v-184q-65 -77 -182 -77q-112 0 -185 76t-73 194q0 112 71 188t181 76q102 0 176 -57l-4 -25q-68 62 -172 62zM302 627q43 0 67.5 25.5t24.5 72.5h17
q0 -55 -30 -86.5t-79 -31.5t-78.5 31.5t-29.5 86.5h17q0 -47 24.5 -72.5t66.5 -25.5z" />
    <glyph glyph-name="gdotaccent.sc.salt" horiz-adv-x="580" 
d="M316 501q-102 0 -166.5 -70t-64.5 -174q0 -109 66.5 -179.5t170.5 -70.5q50 0 95 18t67 47v157h-142v19h162v-184q-65 -77 -182 -77q-112 0 -185 76t-73 194q0 112 71 188t181 76q102 0 176 -57l-4 -25q-68 62 -172 62zM278 663q0 10 6.5 16.5t16.5 6.5t16.5 -6.5
t6.5 -16.5t-6.5 -16.5t-16.5 -6.5t-16.5 6.5t-6.5 16.5z" />
    <glyph glyph-name="gcommaaccent.sc.salt" horiz-adv-x="580" 
d="M316 501q-102 0 -166.5 -70t-64.5 -174q0 -109 66.5 -179.5t170.5 -70.5q50 0 95 18t67 47v157h-142v19h162v-184q-65 -77 -182 -77q-112 0 -185 76t-73 194q0 112 71 188t181 76q102 0 176 -57l-4 -25q-68 62 -172 62zM338 -73q13 -22 13 -47q0 -49 -67 -117h-22
q38 40 53 65.5t15 51.5q0 20 -12 39z" />
    <glyph glyph-name="ij.sc.salt" horiz-adv-x="530" 
d="M127 0h-20v508h20v-508zM216 2l-6 28q21 -17 53 -17q69 0 107 45.5t38 127.5v322h20v-322q0 -90 -43.5 -141.5t-121.5 -51.5q-25 0 -47 9z" />
    <glyph glyph-name="jcircumflex.sc.salt" horiz-adv-x="335" 
d="M21 2l-6 28q21 -17 53 -17q69 0 107 45.5t38 127.5v322h20v-322q0 -90 -43.5 -141.5t-121.5 -51.5q-25 0 -47 9zM316 595l-94 121l-93 -121h-17l99 142h23l99 -142h-17z" />
    <glyph glyph-name="nacute.sc.salt" horiz-adv-x="660" 
d="M552 -24l-425 496v-472h-20v525h1l425 -497v480h20v-532h-1zM425 737l-115 -142h-17l103 142h29z" />
    <glyph glyph-name="ncaron.sc.salt" horiz-adv-x="660" 
d="M552 -24l-425 496v-472h-20v525h1l425 -497v480h20v-532h-1zM222 737h17l93 -121l94 121h17l-99 -142h-23z" />
    <glyph glyph-name="ntilde.sc.salt" horiz-adv-x="660" 
d="M552 -24l-425 496v-472h-20v525h1l425 -497v480h20v-532h-1zM210 620q4 39 22.5 60.5t45.5 21.5q24 0 64.5 -29t56.5 -29q22 0 36 18t17 47l15 -3q-4 -39 -22.5 -60.5t-45.5 -21.5q-24 0 -64.5 29t-56.5 29q-21 0 -36 -18.5t-17 -46.5z" />
    <glyph glyph-name="ncommaaccent.sc.salt" horiz-adv-x="660" 
d="M552 -24l-425 496v-472h-20v525h1l425 -497v480h20v-532h-1zM342 -73q13 -22 13 -47q0 -49 -67 -117h-22q38 40 53 65.5t15 51.5q0 20 -12 39z" />
    <glyph glyph-name="eng.sc.salt" horiz-adv-x="660" 
d="M437 -217q96 0 96 131v84l-406 474v-472h-20v525h1l425 -497v480h20v-594q0 -72 -30 -111.5t-86 -39.5q-33 0 -52 15l-4 29q21 -24 56 -24z" />
    <glyph glyph-name="wgrave.sc.salt" horiz-adv-x="754" 
d="M520 -25l-143 484l-156 -485h-1l-201 534h22l178 -476l159 494h1l144 -492l190 474h22l-214 -533h-1zM399 595l-115 142h29l103 -142h-17z" />
    <glyph glyph-name="wacute.sc.salt" horiz-adv-x="754" 
d="M520 -25l-143 484l-156 -485h-1l-201 534h22l178 -476l159 494h1l144 -492l190 474h22l-214 -533h-1zM468 737l-115 -142h-17l103 142h29z" />
    <glyph glyph-name="wcircumflex.sc.salt" horiz-adv-x="754" 
d="M520 -25l-143 484l-156 -485h-1l-201 534h22l178 -476l159 494h1l144 -492l190 474h22l-214 -533h-1zM469 595l-94 121l-93 -121h-17l99 142h23l99 -142h-17z" />
    <glyph glyph-name="wdieresis.sc.salt" horiz-adv-x="754" 
d="M520 -25l-143 484l-156 -485h-1l-201 534h22l178 -476l159 494h1l144 -492l190 474h22l-214 -533h-1zM277 663q0 10 6.5 16.5t16.5 6.5t16.5 -6.5t6.5 -16.5t-6.5 -16.5t-16.5 -6.5t-16.5 6.5t-6.5 16.5zM429 663q0 10 6.5 16.5t16.5 6.5t16.5 -6.5t6.5 -16.5t-6.5 -16.5
t-16.5 -6.5t-16.5 6.5t-6.5 16.5z" />
    <glyph glyph-name="agrave.salt" horiz-adv-x="563" 
d="M475 5l-20 -9q-9 21 -11 57q-62 -67 -165 -67q-102 0 -161 71.5t-59 179.5q0 116 67.5 185.5t177.5 69.5q69 0 137 -30l23 9v-386q0 -48 11 -80zM279 6q104 0 165 74v355q-56 37 -140 37q-101 0 -162.5 -63.5t-61.5 -172.5q0 -98 53.5 -164t145.5 -66zM310 562l-115 142
h29l103 -142h-17z" />
    <glyph glyph-name="aacute.salt" horiz-adv-x="563" 
d="M475 5l-20 -9q-9 21 -11 57q-62 -67 -165 -67q-102 0 -161 71.5t-59 179.5q0 116 67.5 185.5t177.5 69.5q69 0 137 -30l23 9v-386q0 -48 11 -80zM279 6q104 0 165 74v355q-56 37 -140 37q-101 0 -162.5 -63.5t-61.5 -172.5q0 -98 53.5 -164t145.5 -66zM379 704l-115 -142
h-17l103 142h29z" />
    <glyph glyph-name="acircumflex.salt" horiz-adv-x="563" 
d="M475 5l-20 -9q-9 21 -11 57q-62 -67 -165 -67q-102 0 -161 71.5t-59 179.5q0 116 67.5 185.5t177.5 69.5q69 0 137 -30l23 9v-386q0 -48 11 -80zM279 6q104 0 165 74v355q-56 37 -140 37q-101 0 -162.5 -63.5t-61.5 -172.5q0 -98 53.5 -164t145.5 -66zM380 562l-94 121
l-93 -121h-17l99 142h23l99 -142h-17z" />
    <glyph glyph-name="atilde.salt" horiz-adv-x="563" 
d="M475 5l-20 -9q-9 21 -11 57q-62 -67 -165 -67q-102 0 -161 71.5t-59 179.5q0 116 67.5 185.5t177.5 69.5q69 0 137 -30l23 9v-386q0 -48 11 -80zM279 6q104 0 165 74v355q-56 37 -140 37q-101 0 -162.5 -63.5t-61.5 -172.5q0 -98 53.5 -164t145.5 -66zM164 587
q4 39 22.5 60.5t45.5 21.5q24 0 64.5 -29t56.5 -29q22 0 36 18t17 47l15 -3q-4 -39 -22.5 -60.5t-45.5 -21.5q-24 0 -64.5 29t-56.5 29q-21 0 -36 -18.5t-17 -46.5z" />
    <glyph glyph-name="adieresis.salt" horiz-adv-x="563" 
d="M475 5l-20 -9q-9 21 -11 57q-62 -67 -165 -67q-102 0 -161 71.5t-59 179.5q0 116 67.5 185.5t177.5 69.5q69 0 137 -30l23 9v-386q0 -48 11 -80zM279 6q104 0 165 74v355q-56 37 -140 37q-101 0 -162.5 -63.5t-61.5 -172.5q0 -98 53.5 -164t145.5 -66zM188 630
q0 10 6.5 16.5t16.5 6.5t16.5 -6.5t6.5 -16.5t-6.5 -16.5t-16.5 -6.5t-16.5 6.5t-6.5 16.5zM340 630q0 10 6.5 16.5t16.5 6.5t16.5 -6.5t6.5 -16.5t-6.5 -16.5t-16.5 -6.5t-16.5 6.5t-6.5 16.5z" />
    <glyph glyph-name="amacron.salt" horiz-adv-x="563" 
d="M475 5l-20 -9q-9 21 -11 57q-62 -67 -165 -67q-102 0 -161 71.5t-59 179.5q0 116 67.5 185.5t177.5 69.5q69 0 137 -30l23 9v-386q0 -48 11 -80zM279 6q104 0 165 74v355q-56 37 -140 37q-101 0 -162.5 -63.5t-61.5 -172.5q0 -98 53.5 -164t145.5 -66zM411 639v-19h-247
v19h247z" />
    <glyph glyph-name="abreve.salt" horiz-adv-x="563" 
d="M475 5l-20 -9q-9 21 -11 57q-62 -67 -165 -67q-102 0 -161 71.5t-59 179.5q0 116 67.5 185.5t177.5 69.5q69 0 137 -30l23 9v-386q0 -48 11 -80zM279 6q104 0 165 74v355q-56 37 -140 37q-101 0 -162.5 -63.5t-61.5 -172.5q0 -98 53.5 -164t145.5 -66zM287 594
q43 0 67.5 25.5t24.5 72.5h17q0 -55 -30 -86.5t-79 -31.5t-78.5 31.5t-29.5 86.5h17q0 -47 24.5 -72.5t66.5 -25.5z" />
    <glyph glyph-name="aring.salt" horiz-adv-x="563" 
d="M475 5l-20 -9q-9 21 -11 57q-62 -67 -165 -67q-102 0 -161 71.5t-59 179.5q0 116 67.5 185.5t177.5 69.5q69 0 137 -30l23 9v-386q0 -48 11 -80zM279 6q104 0 165 74v355q-56 37 -140 37q-101 0 -162.5 -63.5t-61.5 -172.5q0 -98 53.5 -164t145.5 -66zM198 643
q0 37 26 63.5t63 26.5t63.5 -26.5t26.5 -63.5t-26.5 -63t-63.5 -26t-63 26t-26 63zM217 643q0 -29 20.5 -49.5t49.5 -20.5q30 0 50.5 20.5t20.5 49.5q0 30 -20.5 50.5t-50.5 20.5q-29 0 -49.5 -20.5t-20.5 -50.5z" />
    <glyph glyph-name="aogonek.salt" horiz-adv-x="563" 
d="M475 5q-66 -71 -88 -106t-22 -65q0 -51 46 -51q32 0 54 22h1l-4 -28q-18 -14 -51 -14q-31 0 -49 18.5t-18 52.5q0 35 22 70t86 98q-6 22 -8 51q-62 -67 -165 -67q-102 0 -161 71.5t-59 179.5q0 116 67.5 185.5t177.5 69.5q69 0 137 -30l23 9v-386q0 -48 11 -80zM279 6
q104 0 165 74v355q-56 37 -140 37q-101 0 -162.5 -63.5t-61.5 -172.5q0 -98 53.5 -164t145.5 -66z" />
    <glyph glyph-name="egrave.salt" horiz-adv-x="529" 
d="M470 255l-390 -9v-16q0 -113 54.5 -169t143.5 -56q109 0 170 72h3l-7 -35q-59 -57 -166 -57q-97 0 -158 62t-61 183q0 111 62 186.5t161 75.5q87 0 138 -60t51 -158q0 -8 -1 -19zM282 472q-82 0 -136.5 -58.5t-63.5 -148.5l368 9q0 90 -45 144t-123 54zM300 562l-115 142
h29l103 -142h-17z" />
    <glyph glyph-name="eacute.salt" horiz-adv-x="529" 
d="M470 255l-390 -9v-16q0 -113 54.5 -169t143.5 -56q109 0 170 72h3l-7 -35q-59 -57 -166 -57q-97 0 -158 62t-61 183q0 111 62 186.5t161 75.5q87 0 138 -60t51 -158q0 -8 -1 -19zM282 472q-82 0 -136.5 -58.5t-63.5 -148.5l368 9q0 90 -45 144t-123 54zM369 704
l-115 -142h-17l103 142h29z" />
    <glyph glyph-name="ecircumflex.salt" horiz-adv-x="529" 
d="M470 255l-390 -9v-16q0 -113 54.5 -169t143.5 -56q109 0 170 72h3l-7 -35q-59 -57 -166 -57q-97 0 -158 62t-61 183q0 111 62 186.5t161 75.5q87 0 138 -60t51 -158q0 -8 -1 -19zM282 472q-82 0 -136.5 -58.5t-63.5 -148.5l368 9q0 90 -45 144t-123 54zM370 562l-94 121
l-93 -121h-17l99 142h23l99 -142h-17z" />
    <glyph glyph-name="edieresis.salt" horiz-adv-x="529" 
d="M470 255l-390 -9v-16q0 -113 54.5 -169t143.5 -56q109 0 170 72h3l-7 -35q-59 -57 -166 -57q-97 0 -158 62t-61 183q0 111 62 186.5t161 75.5q87 0 138 -60t51 -158q0 -8 -1 -19zM282 472q-82 0 -136.5 -58.5t-63.5 -148.5l368 9q0 90 -45 144t-123 54zM178 630
q0 10 6.5 16.5t16.5 6.5t16.5 -6.5t6.5 -16.5t-6.5 -16.5t-16.5 -6.5t-16.5 6.5t-6.5 16.5zM330 630q0 10 6.5 16.5t16.5 6.5t16.5 -6.5t6.5 -16.5t-6.5 -16.5t-16.5 -6.5t-16.5 6.5t-6.5 16.5z" />
    <glyph glyph-name="emacron.salt" horiz-adv-x="529" 
d="M470 255l-390 -9v-16q0 -113 54.5 -169t143.5 -56q109 0 170 72h3l-7 -35q-59 -57 -166 -57q-97 0 -158 62t-61 183q0 111 62 186.5t161 75.5q87 0 138 -60t51 -158q0 -8 -1 -19zM282 472q-82 0 -136.5 -58.5t-63.5 -148.5l368 9q0 90 -45 144t-123 54zM401 639v-19h-247
v19h247z" />
    <glyph glyph-name="ebreve.salt" horiz-adv-x="529" 
d="M470 255l-390 -9v-16q0 -113 54.5 -169t143.5 -56q109 0 170 72h3l-7 -35q-59 -57 -166 -57q-97 0 -158 62t-61 183q0 111 62 186.5t161 75.5q87 0 138 -60t51 -158q0 -8 -1 -19zM282 472q-82 0 -136.5 -58.5t-63.5 -148.5l368 9q0 90 -45 144t-123 54zM277 594
q43 0 67.5 25.5t24.5 72.5h17q0 -55 -30 -86.5t-79 -31.5t-78.5 31.5t-29.5 86.5h17q0 -47 24.5 -72.5t66.5 -25.5z" />
    <glyph glyph-name="edotaccent.salt" horiz-adv-x="529" 
d="M470 255l-390 -9v-16q0 -113 54.5 -169t143.5 -56q109 0 170 72h3l-7 -35q-59 -57 -166 -57q-97 0 -158 62t-61 183q0 111 62 186.5t161 75.5q87 0 138 -60t51 -158q0 -8 -1 -19zM282 472q-82 0 -136.5 -58.5t-63.5 -148.5l368 9q0 90 -45 144t-123 54zM253 630
q0 10 6.5 16.5t16.5 6.5t16.5 -6.5t6.5 -16.5t-6.5 -16.5t-16.5 -6.5t-16.5 6.5t-6.5 16.5z" />
    </font>
</defs>
</svg>
