<?xml version="1.0" standalone="no"?>
<!DOCTYPE svg PUBLIC "-//W3C//DTD SVG 1.1//EN" "http://www.w3.org/Graphics/SVG/1.1/DTD/svg11.dtd" >
<svg xmlns="http://www.w3.org/2000/svg" xmlns:xlink="http://www.w3.org/1999/xlink" version="1.1">
<metadata>
Created by FontForge 20150318 at Wed Jun 17 08:28:06 2015
 By uniteet7
Copyright (c) 2013 Monotype GmbH.
</metadata>
<defs>
<font id="LinotypeMetroNovaProBold" horiz-adv-x="622" >
  <font-face 
    font-family="LinotypeMetroNovaProBold"
    font-weight="700"
    font-stretch="normal"
    units-per-em="1000"
    panose-1="2 12 8 4 2 2 3 2 2 3"
    ascent="770"
    descent="-230"
    x-height="494"
    cap-height="772"
    bbox="-231 -237 1196 1015"
    underline-thickness="50"
    underline-position="-50"
    unicode-range="U+000D-FB02"
  />
<missing-glyph horiz-adv-x="587" 
d="M217 115q28 0 46 -17.5t18 -45.5t-17.5 -46.5t-45.5 -18.5q-30 0 -48 18t-18 47q0 28 18 45.5t47 17.5zM264 184l-100 -20v170q85 4 132 33t47 79q0 39 -28.5 62t-79.5 23q-50 0 -87 -15l17 105q37 10 89 10q91 0 147.5 -46.5t56.5 -129.5q0 -74 -52.5 -125t-141.5 -67
v-79zM0 -128v870h587v-870h-587zM72 671v-728h443v728h-443z" />
    <glyph glyph-name=".notdef" horiz-adv-x="587" 
d="M217 115q28 0 46 -17.5t18 -45.5t-17.5 -46.5t-45.5 -18.5q-30 0 -48 18t-18 47q0 28 18 45.5t47 17.5zM264 184l-100 -20v170q85 4 132 33t47 79q0 39 -28.5 62t-79.5 23q-50 0 -87 -15l17 105q37 10 89 10q91 0 147.5 -46.5t56.5 -129.5q0 -74 -52.5 -125t-141.5 -67
v-79zM0 -128v870h587v-870h-587zM72 671v-728h443v728h-443z" />
    <glyph glyph-name=".null" horiz-adv-x="0" 
 />
    <glyph glyph-name="nonmarkingreturn" horiz-adv-x="333" 
 />
    <glyph glyph-name="CR" unicode="&#xd;" horiz-adv-x="220" 
 />
    <glyph glyph-name="space" unicode=" " horiz-adv-x="220" 
 />
    <glyph glyph-name="exclam" unicode="!" horiz-adv-x="315" 
d="M153 140q35 0 57 -21.5t22 -56.5q0 -34 -22 -56t-56 -22q-36 0 -57.5 21.5t-21.5 56.5q0 34 21.5 56t56.5 22zM74 760l170 22q-12 -299 -77 -569l-29 5q-26 110 -43.5 260.5t-20.5 281.5z" />
    <glyph glyph-name="quotedbl" unicode="&#x22;" horiz-adv-x="411" 
d="M337 511l-72 -12q-27 137 -27 255h125q0 -113 -26 -243zM147 511l-72 -12q-27 137 -27 255h125q0 -113 -26 -243z" />
    <glyph glyph-name="numbersign" unicode="#" horiz-adv-x="614" 
d="M87 466l14 94h81l50 192h95l-51 -192h135l50 192h95l-51 -192h81l-14 -94h-91l-45 -172h91l-14 -95h-102l-52 -199h-94l52 199h-135l-52 -199h-94l52 199h-60l13 95h71l45 172h-70zM252 466l-45 -172h134l45 172h-134z" />
    <glyph glyph-name="dollar" unicode="$" 
d="M344 839v-70q93 -6 160 -34v-147q-81 55 -160 67v-226q122 -54 168.5 -107.5t46.5 -137.5t-58 -136.5t-157 -66.5v-131h-75v127q-116 3 -195 54l-10 165q94 -84 205 -98v231q-118 52 -160.5 104.5t-42.5 135.5q0 77 55.5 133t147.5 66v71h75zM437 179q0 36 -20.5 63
t-72.5 54v-198q44 5 68.5 26.5t24.5 54.5zM188 570q0 -35 17.5 -59t63.5 -48v193q-39 -7 -60 -30t-21 -56z" />
    <glyph glyph-name="percent" unicode="%" horiz-adv-x="797" 
d="M676 752l-459 -752h-90l458 752h91zM194 375q-65 0 -103.5 41.5t-38.5 114.5q0 80 54 143t130 63q65 0 103 -41.5t38 -114.5q0 -80 -54 -143t-129 -63zM233 657q-41 0 -68.5 -39.5t-27.5 -93.5q0 -69 60 -69q41 0 68.5 39.5t27.5 93.5q0 33 -15.5 51t-44.5 18zM562 15
q-65 0 -103.5 41.5t-38.5 114.5q0 80 54 143t130 63q65 0 103 -41.5t38 -114.5q0 -80 -54 -143t-129 -63zM601 297q-41 0 -68.5 -39.5t-27.5 -93.5q0 -69 60 -69q41 0 68.5 39.5t27.5 93.5q0 33 -15.5 51t-44.5 18z" />
    <glyph glyph-name="ampersand" unicode="&#x26;" horiz-adv-x="826" 
d="M407 300l12 167q212 11 378 63l-5 -159q-67 -3 -129 -9q10 -34 10 -81q0 -130 -89.5 -214t-230.5 -84q-135 0 -216.5 71.5t-81.5 179.5q0 153 151 224q-72 59 -72 135q0 84 71.5 135t180.5 51q71 0 142 -17l-12 -152q-52 25 -123 25q-57 0 -91 -27.5t-34 -69.5
q0 -28 12.5 -51t47.5 -52v-4q-132 -65 -132 -168q0 -62 45 -102.5t119 -40.5q87 0 138.5 46t51.5 124q0 26 -7 54q-86 -18 -136 -44z" />
    <glyph glyph-name="quotesingle" unicode="'" horiz-adv-x="222" 
d="M147 511l-72 -12q-27 137 -27 255h125q0 -113 -26 -243z" />
    <glyph glyph-name="parenleft" unicode="(" horiz-adv-x="364" 
d="M65 349q0 146 38.5 253.5t119.5 199.5h92q-74 -106 -106 -211t-32 -242t32 -242t106 -211h-92q-81 92 -119.5 199.5t-38.5 253.5z" />
    <glyph glyph-name="parenright" unicode=")" horiz-adv-x="364" 
d="M299 349q0 -146 -38.5 -253.5t-119.5 -199.5h-93q75 106 107 210.5t32 242.5t-32 242.5t-107 210.5h93q81 -92 119.5 -199.5t38.5 -253.5z" />
    <glyph glyph-name="asterisk" unicode="*" horiz-adv-x="458" 
d="M229 760q47 0 47 -31q0 -39 -38 -122h-18q-38 83 -38 122q0 31 47 31zM229 369q-47 0 -47 31q0 39 38 122h18q38 -83 38 -122q0 -31 -47 -31zM51 629q0 17 15 39.5t32 22.5q7 0 14 -4q33 -19 86 -94l-9 -16q-90 8 -124 28q-14 8 -14 24zM98 438q-17 0 -32 22.5t-15 38.5
q0 17 14 25q34 20 124 28l9 -16q-53 -75 -86 -94q-7 -4 -14 -4zM407 500q0 -18 -15 -40t-32 -22q-7 0 -14 4q-33 19 -86 94l9 16q89 -8 125 -28q13 -8 13 -24zM360 691q17 0 32 -22t15 -40q0 -16 -13 -24q-36 -20 -125 -28l-9 16q53 75 86 94q7 4 14 4z" />
    <glyph glyph-name="plus" unicode="+" horiz-adv-x="598" 
d="M242 493h113v-176h183v-118h-183v-176h-113v176h-182v118h182v176z" />
    <glyph glyph-name="comma" unicode="," horiz-adv-x="267" 
d="M158 147q52 -44 52 -122q0 -63 -40.5 -105t-106.5 -62l-13 24q58 27 58 91q0 60 -62 102z" />
    <glyph glyph-name="hyphen" unicode="-" horiz-adv-x="324" 
d="M289 327v-118h-254v118h254z" />
    <glyph glyph-name="period" unicode="." horiz-adv-x="262" 
d="M131 140q35 0 56.5 -22t21.5 -56t-21.5 -56t-55.5 -22q-36 0 -57.5 21.5t-21.5 56.5q0 34 21.5 56t56.5 22z" />
    <glyph glyph-name="slash" unicode="/" horiz-adv-x="464" 
d="M445 780l-309 -810h-118l308 810h119z" />
    <glyph glyph-name="zero" unicode="0" 
d="M305 -16q-129 0 -200.5 104t-71.5 292q0 187 77.5 287.5t204.5 100.5q133 0 203 -98.5t70 -292.5q0 -184 -76.5 -288.5t-206.5 -104.5zM305 107q71 0 105 67t34 210q0 131 -34.5 199.5t-98.5 68.5t-99 -68.5t-35 -198.5q0 -135 33.5 -206.5t94.5 -71.5z" />
    <glyph glyph-name="one" unicode="1" 
d="M397 0h-144v627l-130 -16l25 141h249v-752z" />
    <glyph glyph-name="two" unicode="2" 
d="M103 720q90 45 202 45q102 0 164 -57.5t62 -147.5q0 -68 -24 -123t-82 -124q-77 -91 -180 -187h322l-14 -126h-510v60q165 162 281 314q64 85 64 148q0 49 -31 78t-91 29q-100 0 -193 -68z" />
    <glyph glyph-name="three" unicode="3" 
d="M394 396q133 -51 133 -182q0 -107 -75 -167t-209 -60q-88 0 -163 27l-8 140q65 -35 156 -35q73 0 114 27.5t41 77.5q0 48 -38 76.5t-104 28.5q-69 0 -132 -13l33 135q34 -3 81 -3q71 0 109.5 27.5t38.5 78.5q0 39 -29.5 63.5t-79.5 24.5q-89 0 -156 -45l25 145
q67 23 144 23q110 0 173 -50.5t63 -136.5q0 -120 -117 -182z" />
    <glyph glyph-name="four" unicode="4" 
d="M361 0v222h-343v99l328 431h150v-411h95v-119h-95v-222h-135zM140 341h221v286z" />
    <glyph glyph-name="five" unicode="5" 
d="M542 752l-17 -124h-289l-19 -141q2 0 8 0.5t9 0.5q139 0 221 -66t82 -175q0 -138 -103.5 -216t-290.5 -78q-34 0 -76 7l12 133q38 -7 87 -7q113 0 173.5 40.5t60.5 114.5q0 60 -52 97t-153 37q-61 0 -114 -12l49 389h412z" />
    <glyph glyph-name="six" unicode="6" 
d="M517 641q-130 -3 -213 -59.5t-117 -155.5q64 43 148 43q110 0 177.5 -65t67.5 -171q0 -107 -75.5 -177t-190.5 -70q-131 0 -201.5 82t-70.5 212q0 221 130.5 357t367.5 143zM302 369q-82 0 -136 -51q-1 -13 -1 -38q0 -76 39.5 -122t107.5 -46q57 0 92.5 34.5t35.5 90.5
q0 60 -37.5 96t-100.5 36z" />
    <glyph glyph-name="seven" unicode="7" 
d="M75 752h485q-148 -427 -216 -752h-174q105 354 220 615l-359 -11z" />
    <glyph glyph-name="eight" unicode="8" 
d="M567 197q0 -88 -73.5 -149t-183.5 -61q-116 0 -186 56t-70 147q0 139 158 199q-72 38 -101.5 81t-29.5 101q0 80 66 140.5t172 60.5q109 0 172 -56.5t63 -134.5q0 -121 -133 -181q74 -38 110 -86t36 -117zM425 210q0 79 -124 127q-115 -46 -115 -126q0 -42 33.5 -72
t82.5 -30q55 0 89 28t34 73zM220 565q0 -75 111 -116q92 45 92 114q0 41 -28 66.5t-73 25.5q-46 0 -74 -25.5t-28 -64.5z" />
    <glyph glyph-name="nine" unicode="9" 
d="M224 -28l-102 119q209 79 281 212q-37 -12 -80 -12q-128 0 -207 63.5t-79 171.5q0 102 73 173.5t184 71.5q131 0 205 -83.5t74 -216.5q0 -168 -84.5 -289t-264.5 -210zM351 381q48 0 85 14q8 38 8 75q0 79 -43 127.5t-110 48.5q-52 0 -84.5 -33.5t-32.5 -87.5
q0 -62 47.5 -103t129.5 -41z" />
    <glyph glyph-name="colon" unicode=":" horiz-adv-x="262" 
d="M131 507q35 0 56.5 -21.5t21.5 -56.5q0 -34 -21.5 -56t-55.5 -22q-36 0 -57.5 21.5t-21.5 56.5t21.5 56.5t56.5 21.5zM131 140q35 0 56.5 -22t21.5 -56t-21.5 -56t-55.5 -22q-36 0 -57.5 21.5t-21.5 56.5q0 34 21.5 56t56.5 22z" />
    <glyph glyph-name="semicolon" unicode=";" horiz-adv-x="262" 
d="M157 147q52 -44 52 -122q0 -63 -40.5 -105t-106.5 -62l-13 24q58 27 58 91q0 60 -62 102zM131 507q35 0 56.5 -21.5t21.5 -56.5q0 -34 -21.5 -56t-55.5 -22q-36 0 -57.5 21.5t-21.5 56.5t21.5 56.5t56.5 21.5z" />
    <glyph glyph-name="less" unicode="&#x3c;" horiz-adv-x="598" 
d="M534 395l-364 -138l364 -137v-104l-470 184v115l470 184v-104z" />
    <glyph glyph-name="equal" unicode="=" horiz-adv-x="598" 
d="M553 413v-103h-508v103h508zM553 207v-103h-508v103h508z" />
    <glyph glyph-name="greater" unicode="&#x3e;" horiz-adv-x="598" 
d="M64 16v104l364 137l-364 138v104l470 -184v-115z" />
    <glyph glyph-name="question" unicode="?" horiz-adv-x="483" 
d="M146 140q34 0 56 -22t22 -56t-21.5 -56t-55.5 -22q-36 0 -57.5 21.5t-21.5 56.5q0 34 22 56t56 22zM203 231l-120 -25v209q106 5 165.5 42.5t59.5 100.5q0 51 -37 80.5t-102 29.5q-59 0 -105 -18l20 125q46 13 109 13q113 0 183 -57.5t70 -161.5q0 -92 -66 -155.5
t-177 -83.5v-99z" />
    <glyph glyph-name="at" unicode="@" horiz-adv-x="925" 
d="M682 457l-53 -271q-6 -30 -6 -53q0 -29 34 -29q57 0 94.5 49t37.5 134q0 130 -86.5 211.5t-222.5 81.5q-152 0 -249 -102t-97 -251q0 -154 95 -244t240 -90q133 0 222 68l39 -83q-102 -72 -262 -72q-188 0 -307.5 114t-119.5 307q0 89 32 169.5t88.5 140.5t139.5 95
t179 35q173 0 289 -104.5t116 -273.5q0 -131 -73 -205.5t-179 -74.5t-120 72q-57 -64 -145 -64q-66 0 -103.5 44.5t-37.5 123.5q0 124 69 209t162 85q39 0 69 -19.5t42 -46.5l8 44h105zM555 339q-9 23 -31 37.5t-51 14.5q-57 0 -96.5 -54.5t-39.5 -132.5q0 -45 20 -70.5
t56 -25.5q65 0 110 66z" />
    <glyph glyph-name="A" unicode="A" horiz-adv-x="789" 
d="M2 0l347 768l107 16l331 -784h-164l-79 201h-299l-79 -201h-164zM397 585l-113 -274h220z" />
    <glyph glyph-name="B" unicode="B" horiz-adv-x="655" 
d="M575 589q0 -53 -28.5 -97.5t-81.5 -69.5q144 -49 144 -193q0 -103 -81.5 -166t-214.5 -63h-222v772h234q119 0 184.5 -51t65.5 -132zM235 342v-226h76q74 0 111.5 32t37.5 84q0 49 -36 79.5t-101 30.5h-88zM235 657v-208h69q65 0 97.5 31.5t32.5 79.5q0 41 -30.5 69
t-87.5 28h-81z" />
    <glyph glyph-name="C" unicode="C" horiz-adv-x="743" 
d="M684 716l-14 -171h-3q-35 47 -92.5 74t-127.5 27q-111 0 -180.5 -74.5t-69.5 -185.5q0 -115 69 -187t180 -72q145 0 244 127h3l-15 -191q-102 -76 -245 -76q-172 0 -279.5 110t-107.5 291q0 163 110.5 280t279.5 117q148 0 248 -69z" />
    <glyph glyph-name="D" unicode="D" horiz-adv-x="776" 
d="M303 0h-212v772h214q200 0 312.5 -103t112.5 -273q0 -190 -110 -293t-317 -103zM235 640v-507h74q133 0 202.5 67.5t69.5 195.5q0 106 -71.5 175t-198.5 69h-76z" />
    <glyph glyph-name="E" unicode="E" horiz-adv-x="591" 
d="M235 645v-185h256v-119h-256v-214h302v-127h-446v772h443v-127h-299z" />
    <glyph glyph-name="F" unicode="F" horiz-adv-x="568" 
d="M537 772v-127h-302v-194h276v-127h-276v-324h-144v772h446z" />
    <glyph glyph-name="G" unicode="G" horiz-adv-x="769" 
d="M713 366v-286q-129 -93 -282 -93q-172 0 -278.5 107.5t-106.5 286.5q0 168 108 286t290 118q136 0 240 -65l-15 -166h-3q-38 45 -95.5 71.5t-124.5 26.5q-114 0 -181.5 -74.5t-67.5 -196.5q0 -120 65.5 -192t174.5 -72q79 0 125 38v211h151z" />
    <glyph glyph-name="H" unicode="H" horiz-adv-x="807" 
d="M235 0h-144v772h144v-305h337v305h144v-772h-144v335h-337v-335z" />
    <glyph glyph-name="I" unicode="I" horiz-adv-x="326" 
d="M235 0h-144v772h144v-772z" />
    <glyph glyph-name="J" unicode="J" horiz-adv-x="326" 
d="M91 772h145v-633q0 -130 -19 -206.5t-63 -125.5l-192 -44l-4 11q76 59 104.5 131t28.5 224v643z" />
    <glyph glyph-name="K" unicode="K" horiz-adv-x="756" 
d="M235 0h-144v772h144v-354l304 354h191l-343 -376l370 -396h-198l-324 368v-368z" />
    <glyph glyph-name="L" unicode="L" horiz-adv-x="608" 
d="M91 0v772h144v-639h357v-133h-501z" />
    <glyph glyph-name="M" unicode="M" horiz-adv-x="1070" 
d="M91 0v772h153l289 -570l291 570h155v-772h-140v518l-265 -518h-80l-263 519v-519h-140z" />
    <glyph glyph-name="N" unicode="N" horiz-adv-x="886" 
d="M655 772h141v-772h-117l-447 539v-539h-141v772h117l447 -537v537z" />
    <glyph glyph-name="O" unicode="O" horiz-adv-x="854" 
d="M659 386q0 116 -66 192t-166 76q-102 0 -167.5 -76t-65.5 -192t66 -192t167 -76t166.5 76t65.5 192zM808 386q0 -175 -107.5 -288t-273.5 -113q-168 0 -274.5 113t-106.5 288t107 288t274 113t274 -113t107 -288z" />
    <glyph glyph-name="P" unicode="P" horiz-adv-x="626" 
d="M235 0h-144v772h211q137 0 215 -63.5t78 -177.5q0 -131 -80.5 -197t-233.5 -66h-46v-268zM235 648v-256h56q80 0 121.5 33.5t41.5 97.5q0 60 -40.5 92.5t-116.5 32.5h-62z" />
    <glyph glyph-name="Q" unicode="Q" horiz-adv-x="860" 
d="M429 1q-47 0 -90 12v-2q13 -4 93 -33t128 -41q72 -18 161 -20l-43 -141q-84 5 -172 36q-61 22 -153.5 65.5t-107.5 50.5q-48 19 -99 32l61 118q-73 55 -117 137.5t-44 175.5q0 173 108 284.5t275 111.5q169 0 277 -112t108 -286q0 -169 -108.5 -278.5t-276.5 -109.5z
M660 389q0 113 -65.5 187.5t-165.5 74.5t-164 -73.5t-64 -186.5q0 -115 65.5 -192t162.5 -77q101 0 166 75.5t65 191.5z" />
    <glyph glyph-name="R" unicode="R" horiz-adv-x="691" 
d="M90 0v772h224q135 0 210.5 -60t75.5 -169q0 -76 -45 -131.5t-125 -83.5l262 -328h-183l-228 301h-47v-301h-144zM234 648v-251h14q101 0 152 34t51 97q0 59 -40 89.5t-114 30.5h-63z" />
    <glyph glyph-name="S" unicode="S" horiz-adv-x="561" 
d="M61 201q101 -86 201 -86q52 0 81.5 24t29.5 67q0 39 -31 70.5t-116 79.5q-98 54 -133.5 105.5t-35.5 130.5q0 84 64 139.5t164 55.5q93 0 182 -35v-158q-103 66 -172 66q-43 0 -67.5 -21.5t-24.5 -52.5q0 -37 27 -63.5t119 -75.5q96 -52 134.5 -107t38.5 -136
q0 -99 -74.5 -159.5t-194.5 -60.5q-108 0 -180 42l-15 175h3z" />
    <glyph glyph-name="T" unicode="T" horiz-adv-x="689" 
d="M417 0h-145v639h-254v133h653v-133h-254v-639z" />
    <glyph glyph-name="U" unicode="U" horiz-adv-x="777" 
d="M84 772h145v-471q0 -86 45 -129.5t115 -43.5t114.5 43.5t44.5 129.5v471h145v-479q0 -153 -83.5 -230t-220.5 -77q-138 0 -221.5 74.5t-83.5 225.5v486z" />
    <glyph glyph-name="V" unicode="V" horiz-adv-x="790" 
d="M2 772h168l217 -571l232 571h168l-341 -772h-121z" />
    <glyph glyph-name="W" unicode="W" horiz-adv-x="1198" 
d="M759 0l-162 392l-166 -392h-110l-319 772h167l215 -573l149 348l-92 225h167l206 -554l227 554h155l-331 -772h-106z" />
    <glyph glyph-name="X" unicode="X" horiz-adv-x="787" 
d="M9 0l292 400l-282 372h190l184 -257l175 257h183l-274 -365l302 -407h-190l-205 292l-207 -292h-168z" />
    <glyph glyph-name="Y" unicode="Y" horiz-adv-x="724" 
d="M421 0h-145v365l-278 407h177l179 -287l195 287h177l-305 -407v-365z" />
    <glyph glyph-name="Z" unicode="Z" horiz-adv-x="727" 
d="M669 0h-677l460 631h-384l12 141h640l-469 -632h443z" />
    <glyph glyph-name="bracketleft" unicode="[" horiz-adv-x="364" 
d="M75 -104v906h251v-70h-142v-767h142v-69h-251z" />
    <glyph glyph-name="backslash" unicode="\" horiz-adv-x="487" 
d="M339 -30l-309 810h119l308 -810h-118z" />
    <glyph glyph-name="bracketright" unicode="]" horiz-adv-x="364" 
d="M289 802v-906h-251v69h142v767h-142v70h251z" />
    <glyph glyph-name="asciicircum" unicode="^" horiz-adv-x="476" 
d="M343 410l-106 220l-106 -220h-113l153 318h134l153 -318h-115z" />
    <glyph glyph-name="underscore" unicode="_" horiz-adv-x="500" 
d="M500 -71v-80h-500v80h500z" />
    <glyph glyph-name="grave" unicode="`" horiz-adv-x="226" 
d="M158 576l-153 179h142l71 -179h-60z" />
    <glyph glyph-name="a" unicode="a" horiz-adv-x="519" 
d="M89 346v116q71 47 169 47q193 0 193 -187v-310l-133 -27v62q-75 -60 -157 -60q-62 0 -96.5 30.5t-34.5 85.5q0 100 123 153q71 31 165 43v23q0 35 -21.5 55t-63.5 20q-84 0 -141 -51h-3zM318 139v98q-64 -10 -105 -33q-43 -26 -43 -65q0 -49 54 -49q57 0 94 49z" />
    <glyph glyph-name="b" unicode="b" horiz-adv-x="619" 
d="M292 -17q-74 0 -117 33l-99 -29v765l137 28v-307q53 38 126 38q103 0 172 -68t69 -181q0 -127 -78 -203t-210 -76zM301 402q-54 0 -88 -32v-268q29 -16 69 -16q73 0 114.5 42.5t41.5 121.5q0 70 -37.5 111t-99.5 41z" />
    <glyph glyph-name="c" unicode="c" horiz-adv-x="503" 
d="M469 172l-18 -148q-63 -41 -156 -41q-117 0 -186 69t-69 188q0 120 74 195.5t205 75.5q85 0 141 -34l-15 -133q-51 45 -121 45q-67 0 -105 -40t-38 -109q0 -60 36 -97.5t98 -37.5q90 0 151 67h3z" />
    <glyph glyph-name="d" unicode="d" horiz-adv-x="621" 
d="M419 -16l3 51q-61 -52 -150 -52q-107 0 -169.5 72t-62.5 181q0 118 75.5 196.5t188.5 78.5q58 0 104 -23v265l137 27v-768zM314 94q61 0 94 32v255q-32 20 -82 20q-65 0 -105 -44t-40 -119q0 -67 35 -105.5t98 -38.5z" />
    <glyph glyph-name="e" unicode="e" horiz-adv-x="520" 
d="M317 221q-81 -23 -155 -33q10 -41 42.5 -65.5t87.5 -24.5q100 0 168 78h3l-11 -138q-66 -55 -170 -55q-118 0 -181.5 68.5t-63.5 168.5q0 115 80.5 204t198.5 89q75 0 118 -37.5t43 -96.5q0 -115 -160 -158zM281 414q-45 0 -81.5 -47t-41.5 -115q53 10 107 28
q76 27 76 78q0 26 -16 41t-44 15z" />
    <glyph glyph-name="f" unicode="f" horiz-adv-x="379" 
d="M238 532v-38h130v-113h-130v-381h-137v381h-85v113h85v64q0 155 106 197l168 25v-59q-79 -17 -108 -60.5t-29 -128.5z" />
    <glyph glyph-name="g" unicode="g" horiz-adv-x="535" 
d="M255 509q62 0 114 -27q28 38 60.5 54.5t78.5 16.5v-111q-41 0 -71 -18q30 -41 30 -86q0 -122 -164 -163q-20 -5 -55 -11.5t-40 -7.5q-29 -7 -29 -21t46 -23q18 -3 75 -11.5t76 -12.5q66 -13 95.5 -44t29.5 -84q0 -84 -78.5 -140.5t-190.5 -56.5q-87 0 -140 43.5
t-53 104.5q0 71 75 114q-37 12 -57.5 32.5t-20.5 44.5q0 53 111 103q-98 46 -98 133q0 71 59 121t147 50zM317 -14q-16 3 -64 10t-75 12q-39 -24 -39 -65q0 -33 28 -53t77 -20q53 0 88 20.5t35 48.5q0 35 -50 47zM167 329q0 -53 59 -82q10 -4 16 -4q9 0 21 4q73 24 73 81
q0 33 -23.5 56.5t-62.5 23.5q-36 0 -59.5 -22t-23.5 -57z" />
    <glyph glyph-name="h" unicode="h" horiz-adv-x="607" 
d="M76 0v753l137 27v-355q42 44 81 63.5t86 19.5q78 0 118.5 -43t40.5 -126v-339h-137v292q0 91 -77 91q-53 0 -84 -39q-28 -31 -28 -82v-262h-137z" />
    <glyph glyph-name="i" unicode="i" horiz-adv-x="288" 
d="M76 481l137 28v-509h-137v481zM144 751q35 0 57 -22t22 -57q0 -34 -21.5 -55.5t-56.5 -21.5t-56.5 21t-21.5 56t21.5 57t55.5 22z" />
    <glyph glyph-name="j" unicode="j" horiz-adv-x="288" 
d="M76 481l137 28v-515q0 -135 -48 -191l-179 -40l-6 15q96 59 96 209v494zM143 751q35 0 57 -22t22 -57q0 -34 -22 -55.5t-56 -21.5q-36 0 -57.5 21t-21.5 56t21.5 57t56.5 22z" />
    <glyph glyph-name="k" unicode="k" horiz-adv-x="588" 
d="M213 780v-499l179 213h174l-218 -226l261 -268h-193l-203 248v-248h-137v752z" />
    <glyph glyph-name="l" unicode="l" horiz-adv-x="288" 
d="M213 780v-780h-137v752z" />
    <glyph glyph-name="m" unicode="m" horiz-adv-x="893" 
d="M688 0v298q0 41 -18.5 63t-52.5 22q-52 0 -81 -43q-16 -23 -17 -57v-283h-137v298q0 41 -19 63t-53 22q-51 0 -80 -44q-17 -25 -17 -66v-273h-137v494h137v-61q22 35 60 55t85 20q52 0 89 -24t55 -64q60 88 162 88q77 0 119 -45.5t42 -118.5v-344h-137z" />
    <glyph glyph-name="n" unicode="n" horiz-adv-x="607" 
d="M76 0v494h137v-69q42 44 81 63.5t86 19.5q76 0 117.5 -43t41.5 -126v-339h-137v292q0 91 -77 91q-53 0 -84 -39q-28 -31 -28 -82v-262h-137z" />
    <glyph glyph-name="o" unicode="o" horiz-adv-x="606" 
d="M303 94q57 0 89.5 40.5t32.5 117.5q0 67 -33 108.5t-89 41.5t-89 -40.5t-33 -109.5q0 -72 32 -115t90 -43zM303 -17q-116 0 -189.5 72.5t-73.5 196.5q0 119 74.5 189.5t188.5 70.5q116 0 190 -69.5t74 -190.5q0 -129 -76 -199t-188 -70z" />
    <glyph glyph-name="p" unicode="p" horiz-adv-x="613" 
d="M76 494h149q42 13 91 13q112 0 185 -69t73 -186q0 -123 -72.5 -196t-195.5 -73q-54 0 -93 19v-211l-137 -28v731zM285 404q-47 0 -72 -19v-281q25 -19 72 -19q68 0 107.5 43.5t39.5 119.5q0 71 -40 113.5t-107 42.5z" />
    <glyph glyph-name="q" unicode="q" horiz-adv-x="619" 
d="M544 494v-702l-137 -29v257q-55 -36 -127 -36q-110 0 -175 70t-65 188q0 123 74 196t197 73q56 0 101 -17h132zM320 97q56 0 87 26v268q-31 17 -79 17q-70 0 -108.5 -43.5t-38.5 -119.5q0 -69 36.5 -108.5t102.5 -39.5z" />
    <glyph glyph-name="r" unicode="r" horiz-adv-x="401" 
d="M390 501v-143q-20 4 -51 4q-66 0 -99 -24q-27 -20 -27 -61v-277h-137v494h137v-77q59 87 144 87q19 0 33 -3z" />
    <glyph glyph-name="s" unicode="s" horiz-adv-x="453" 
d="M49 31l7 127q33 -33 78.5 -52.5t89.5 -19.5q65 0 65 40q0 28 -34 46q-15 8 -55 24t-60 26q-52 26 -73.5 60.5t-21.5 85.5q0 62 47.5 102.5t125.5 40.5q99 0 170 -38l-28 -122q-26 25 -65 41t-71 16q-54 0 -54 -36q0 -30 33 -45q13 -6 53 -22.5t57 -24.5q55 -26 78 -62
t23 -86q0 -68 -50 -108.5t-138 -40.5q-107 0 -177 48z" />
    <glyph glyph-name="t" unicode="t" horiz-adv-x="391" 
d="M16 494h91v138l136 26v-164h133v-113h-133v-215q0 -68 16 -99t62 -56v-9l-147 -16q-35 17 -51 53t-16 107v235h-91v113z" />
    <glyph glyph-name="u" unicode="u" horiz-adv-x="599" 
d="M68 494h137v-297q0 -84 76 -84q60 0 94 58q12 22 12 51v272h137v-482l-137 -27v84q-66 -82 -163 -82q-77 0 -116.5 44.5t-39.5 128.5v334z" />
    <glyph glyph-name="v" unicode="v" horiz-adv-x="540" 
d="M0 494h147l112 -349l133 349h148l-214 -494h-141z" />
    <glyph glyph-name="w" unicode="w" horiz-adv-x="835" 
d="M356 494h125l87 -349l127 349h140l-207 -494h-135l-80 288l-100 -288h-136l-177 494h140l106 -350z" />
    <glyph glyph-name="x" unicode="x" horiz-adv-x="567" 
d="M550 494l-195 -235l199 -259h-163l-115 160l-124 -160h-154l206 248l-188 246h170l99 -146l111 146h154z" />
    <glyph glyph-name="y" unicode="y" horiz-adv-x="547" 
d="M55 -234q91 94 151 232l-206 496h148l124 -335l135 335h140l-217 -507q-65 -152 -114 -224h-161v3z" />
    <glyph glyph-name="z" unicode="z" horiz-adv-x="525" 
d="M475 0h-477l290 372h-239l13 122h451l-292 -371h275z" />
    <glyph glyph-name="braceleft" unicode="{" horiz-adv-x="364" 
d="M22 317v66q100 8 100 115v149q0 82 48 118.5t150 36.5v-66q-48 0 -69.5 -23.5t-21.5 -78.5v-154q0 -108 -106 -130q106 -22 106 -130v-154q0 -57 21.5 -79.5t69.5 -22.5v-66q-102 0 -150 36.5t-48 118.5v149q0 107 -100 115z" />
    <glyph glyph-name="bar" unicode="|" horiz-adv-x="289" 
d="M197 -110h-105v902h105v-902z" />
    <glyph glyph-name="braceright" unicode="}" horiz-adv-x="364" 
d="M342 383v-66q-100 -8 -100 -115v-149q0 -82 -48 -118.5t-151 -36.5v66q49 0 70.5 22.5t21.5 79.5v154q0 108 106 130q-106 22 -106 130v154q0 55 -21.5 78.5t-70.5 23.5v66q103 0 151 -36.5t48 -118.5v-149q0 -107 100 -115z" />
    <glyph glyph-name="asciitilde" unicode="~" horiz-adv-x="591" 
d="M568 252q-50 -101 -143 -101q-46 0 -122 45t-118 45q-64 0 -107 -80l-56 123q54 102 152 102q46 0 122 -45t117 -45q64 0 107 80z" />
    <glyph glyph-name="uni00A0" unicode="&#xa0;" horiz-adv-x="220" 
 />
    <glyph glyph-name="exclamdown" unicode="&#xa1;" horiz-adv-x="315" 
d="M162 344q-34 0 -56 22t-22 56t21.5 56t55.5 22q36 0 57.5 -21.5t21.5 -56.5q0 -34 -22 -56t-56 -22zM241 -215l-170 -22q14 282 78 512l29 -5q26 -98 43.5 -233t19.5 -252z" />
    <glyph glyph-name="cent" unicode="&#xa2;" horiz-adv-x="598" 
d="M501 666l-41 -166q36 -9 63 -24l-14 -134q-35 31 -77 45l-71 -290q94 1 162 78h3l-18 -142q-28 -21 -75 -35.5t-96 -14.5h-4l-37 -153h-77l39 162q-84 20 -131.5 85t-47.5 163q0 120 76.5 195.5t212.5 75.5h17l38 155h78zM205 240q0 -96 82 -130l70 287q-72 -2 -112 -44
t-40 -113z" />
    <glyph glyph-name="sterling" unicode="&#xa3;" 
d="M489 438l-29 -106q-68 4 -176 4q13 -57 13 -105q0 -33 -8 -65q6 -3 28 -14.5t32 -15.5t28.5 -11t35 -10t34.5 -3q75 0 132 72h3l-13 -148q-54 -52 -126 -52q-39 0 -74.5 13.5t-75.5 38t-53 30.5q-61 -74 -122 -74q-38 0 -58.5 22.5t-20.5 59.5q0 52 42 86t113 34h7
q2 16 2 27q0 47 -20 112q-64 -3 -131 -14l33 114l59 5q-31 80 -31 133q0 89 61.5 145t163.5 56q106 0 201 -58l-29 -130q-77 67 -159 67q-52 0 -78.5 -26.5t-26.5 -74.5q0 -50 13 -108h12q98 0 218 -4z" />
    <glyph glyph-name="currency" unicode="&#xa4;" 
d="M45 121l73 73q-33 53 -33 119q0 64 33 119l-73 73l74 74l73 -73q53 33 119 33q64 0 119 -33l73 73l75 -74l-74 -74q33 -53 33 -118q0 -64 -33 -119l74 -73l-75 -75l-74 73q-54 -32 -118 -32q-66 0 -119 32l-73 -73zM190 313q0 -50 35.5 -86t85.5 -36t86 36t36 86
q0 49 -36 85t-86 36t-85.5 -35.5t-35.5 -85.5z" />
    <glyph glyph-name="yen" unicode="&#xa5;" 
d="M567 320v-79h-184v-241h-143v241h-185v79h185l-46 92h-139v79h99l-131 261h144l144 -321l143 321h145l-131 -261h99v-79h-138l-46 -92h184z" />
    <glyph glyph-name="brokenbar" unicode="&#xa6;" horiz-adv-x="289" 
d="M197 -110h-105v322h105v-322zM197 470h-105v322h105v-322z" />
    <glyph glyph-name="section" unicode="&#xa7;" horiz-adv-x="493" 
d="M24 334q0 44 27.5 78t78.5 42q-74 52 -74 132q0 62 53 106t140 44q101 0 180 -41l-14 -122h-3q-86 69 -171 69q-33 0 -52 -15t-19 -38q0 -35 43 -63q27 -18 83.5 -47t83.5 -47q48 -31 68.5 -63t20.5 -78q0 -44 -27.5 -78.5t-79.5 -41.5q75 -56 75 -132q0 -60 -54 -105
t-139 -45q-108 0 -170 45l-11 128h3q80 -79 186 -79q32 0 51.5 15t19.5 38q0 41 -56 74q-23 14 -76.5 39t-82.5 43q-45 28 -64.5 60.5t-19.5 81.5zM119 351q0 -42 76 -90q72 -46 121 -46q27 0 42.5 17t15.5 42q0 44 -77 90q-82 46 -119 46q-29 0 -44 -17t-15 -42z" />
    <glyph glyph-name="dieresis" unicode="&#xa8;" horiz-adv-x="364" 
d="M77 728q30 0 49 -18.5t19 -48.5q0 -29 -18.5 -48t-48.5 -19q-31 0 -49.5 18t-18.5 49q0 30 18.5 48.5t48.5 18.5zM286 728q30 0 49 -18.5t19 -48.5q0 -29 -18.5 -48t-48.5 -19q-31 0 -49.5 18t-18.5 49q0 30 18.5 48.5t48.5 18.5z" />
    <glyph glyph-name="copyright" unicode="&#xa9;" horiz-adv-x="893" 
d="M45 385q0 167 117.5 284.5t283.5 117.5t284 -117.5t118 -284.5q0 -166 -117.5 -283t-284.5 -117t-284 117t-117 283zM120 385q0 -134 96 -229.5t230 -95.5q135 0 231 95.5t96 229.5q0 135 -96 231t-231 96q-134 0 -230 -96t-96 -231zM632 308l-15 -115q-62 -52 -161 -52
q-107 0 -170 64.5t-63 176.5q0 114 65 185t181 71q91 0 155 -45l-15 -103q-60 58 -137 58q-74 0 -113.5 -44t-39.5 -122q0 -65 38 -108t107 -43q100 0 165 77h3z" />
    <glyph glyph-name="ordfeminine" unicode="&#xaa;" horiz-adv-x="361" 
d="M61 592v80q49 33 119 33q134 0 134 -130v-216l-92 -20v44q-52 -42 -110 -42q-43 0 -67 21t-24 60q0 71 85 107q54 22 116 29v17q0 24 -15 38.5t-44 14.5q-57 0 -99 -36h-3zM222 447v68q-42 -6 -74 -23q-31 -16 -31 -45q0 -35 38 -35q40 0 67 35z" />
    <glyph glyph-name="guillemotleft" unicode="&#xab;" horiz-adv-x="500" 
d="M165 82l-130 165l130 165h96l-99 -165l99 -165h-96zM358 82l-130 165l130 165h97l-99 -165l99 -165h-97z" />
    <glyph glyph-name="logicalnot" unicode="&#xac;" horiz-adv-x="598" 
d="M67 404h487v-332h-118v221h-369v111z" />
    <glyph glyph-name="uni00AD" unicode="&#xad;" horiz-adv-x="324" 
d="M289 327v-118h-254v118h254z" />
    <glyph glyph-name="registered" unicode="&#xae;" horiz-adv-x="583" 
d="M30 525q0 109 76 185.5t186 76.5t186 -76.5t76 -185.5t-76 -185.5t-186 -76.5t-186 76.5t-76 185.5zM85 525q0 -85 60.5 -146t146.5 -61q85 0 145.5 61t60.5 146t-60.5 146t-145.5 61q-86 0 -146.5 -61t-60.5 -146zM187 374v312h85q61 0 93 -26.5t32 -76.5q0 -68 -63 -95
l82 -114h-71l-66 101q-12 -2 -37 -2v-99h-55zM242 633v-106q50 0 73 13t23 42q0 51 -69 51h-27z" />
    <glyph glyph-name="macron" unicode="&#xaf;" horiz-adv-x="305" 
d="M295 709v-96h-285v96h285z" />
    <glyph glyph-name="degree" unicode="&#xb0;" horiz-adv-x="351" 
d="M37 641q0 59 40.5 99t98.5 40q56 0 97 -40.5t41 -98.5t-40 -98t-98 -40t-98.5 40t-40.5 98zM104 641q0 -29 21 -50t51 -21q29 0 50 21t21 50q0 30 -21 51t-50 21q-30 0 -51 -21t-21 -51z" />
    <glyph glyph-name="plusminus" unicode="&#xb1;" horiz-adv-x="598" 
d="M553 372v-95h-198v-121h-105v121h-205v95h205v131h105v-131h198zM553 118v-95h-508v95h508z" />
    <glyph glyph-name="twosuperior" unicode="&#xb2;" horiz-adv-x="362" 
d="M239 603q-40 -39 -85 -67h176l-10 -78h-282v71q61 40 115 91q61 61 61 107q0 22 -16 35.5t-45 13.5q-57 0 -106 -41l10 97q44 28 114 28q68 0 103.5 -32t35.5 -83q0 -74 -71 -142z" />
    <glyph glyph-name="threesuperior" unicode="&#xb3;" horiz-adv-x="355" 
d="M296 765q0 -31 -19 -56.5t-52 -37.5q89 -25 89 -97q0 -58 -44.5 -92t-117.5 -34q-70 0 -109 16l-4 91q44 -26 111 -26q33 0 51.5 13.5t18.5 34.5t-19 34t-53 13q-46 0 -83 -10l17 82q24 -2 47 -2q73 0 73 47q0 17 -16 28.5t-45 11.5q-53 0 -85 -23l18 89q36 13 93 13
q60 0 94.5 -27t34.5 -68z" />
    <glyph glyph-name="acute" unicode="&#xb4;" horiz-adv-x="226" 
d="M221 755l-153 -179h-60l71 179h142z" />
    <glyph glyph-name="mu" unicode="&#xb5;" horiz-adv-x="578" 
d="M268 -13q-53 0 -68 47v-244l-134 -27v731h134v-287q0 -86 73 -86q49 0 80 40q26 28 26 71v262h133v-482l-133 -27v76q-39 -74 -111 -74z" />
    <glyph glyph-name="paragraph" unicode="&#xb6;" horiz-adv-x="652" 
d="M205 772h403v-87h-92v-817h-96v817h-119v-817h-96v530q-85 0 -135 50.5t-50 136.5t50 136.5t135 50.5z" />
    <glyph glyph-name="periodcentered" unicode="&#xb7;" horiz-adv-x="262" 
d="M131 338q35 0 56.5 -22t21.5 -56t-21.5 -56t-55.5 -22q-36 0 -57.5 21.5t-21.5 56.5q0 34 21.5 56t56.5 22z" />
    <glyph glyph-name="cedilla" unicode="&#xb8;" horiz-adv-x="231" 
d="M89 9h52l-32 -63q6 3 18 3q43 0 68.5 -22t25.5 -58q0 -41 -35 -68t-90 -27q-56 0 -86 25l6 60q24 -25 72 -25q22 0 33.5 9t11.5 22q0 33 -51 33q-27 0 -44 -5l-2 3z" />
    <glyph glyph-name="onesuperior" unicode="&#xb9;" horiz-adv-x="280" 
d="M196 458h-95v315l-89 -3l12 80h172v-392z" />
    <glyph glyph-name="ordmasculine" unicode="&#xba;" horiz-adv-x="421" 
d="M211 414q40 0 63 29t23 83q0 48 -23.5 76.5t-62.5 28.5q-40 0 -63.5 -28.5t-23.5 -76.5q0 -51 22.5 -81.5t64.5 -30.5zM211 338q-80 0 -131.5 51t-51.5 137q0 82 51.5 131t131.5 49t131.5 -48t51.5 -132q0 -90 -52.5 -139t-130.5 -49z" />
    <glyph glyph-name="guillemotright" unicode="&#xbb;" horiz-adv-x="500" 
d="M141 412l130 -165l-130 -165h-96l99 165l-99 165h96zM335 412l130 -165l-130 -165h-97l99 165l-99 165h97z" />
    <glyph glyph-name="onequarter" unicode="&#xbc;" horiz-adv-x="843" 
d="M700 780l-519 -810h-92l518 810h93zM223 360h-95v315l-89 -3l12 80h172v-392zM662 0v94h-201v50l190 248h96v-229h64v-69h-64v-94h-85zM539 163h123v159z" />
    <glyph glyph-name="onehalf" unicode="&#xbd;" horiz-adv-x="843" 
d="M678 780l-519 -810h-92l518 810h93zM219 360h-95v315l-89 -3l12 80h172v-392zM698 145q-40 -39 -85 -67h176l-10 -78h-282v71q61 40 115 91q61 61 61 107q0 22 -16 35.5t-45 13.5q-57 0 -106 -41l10 97q44 28 114 28q68 0 103.5 -32t35.5 -83q0 -74 -71 -142z" />
    <glyph glyph-name="threequarters" unicode="&#xbe;" horiz-adv-x="843" 
d="M726 780l-519 -810h-92l518 810h93zM669 0v94h-201v50l190 248h96v-229h64v-69h-64v-94h-85zM546 163h123v159zM297 667q0 -31 -19 -56.5t-52 -37.5q89 -25 89 -97q0 -58 -44.5 -92t-117.5 -34q-70 0 -109 16l-4 91q44 -26 111 -26q33 0 51.5 13.5t18.5 34.5t-19 34
t-53 13q-46 0 -83 -10l17 82q24 -2 47 -2q73 0 73 47q0 17 -16 28.5t-45 11.5q-53 0 -85 -23l18 89q36 13 93 13q60 0 94.5 -27t34.5 -68z" />
    <glyph glyph-name="questiondown" unicode="&#xbf;" horiz-adv-x="455" 
d="M310 344q-35 0 -57 21.5t-22 56.5q0 34 21.5 56t56.5 22t56.5 -21.5t21.5 -56.5t-21.5 -56.5t-55.5 -21.5zM252 257l120 26v-175q-93 -5 -145 -40t-52 -93q0 -43 29.5 -67.5t81.5 -24.5q56 0 98 16l-12 -123q-48 -13 -110 -13q-100 0 -162.5 52.5t-62.5 147.5
q0 89 58.5 150t156.5 80v64z" />
    <glyph glyph-name="Agrave" unicode="&#xc0;" horiz-adv-x="789" 
d="M2 0l347 768l107 16l331 -784h-164l-79 201h-299l-79 -201h-164zM397 585l-113 -274h220zM396 815l-142 149h142l73 -149h-73z" />
    <glyph glyph-name="Aacute" unicode="&#xc1;" horiz-adv-x="789" 
d="M2 0l347 768l107 16l331 -784h-164l-79 201h-299l-79 -201h-164zM397 585l-113 -274h220zM560 964l-143 -149h-72l73 149h142z" />
    <glyph glyph-name="Acircumflex" unicode="&#xc2;" horiz-adv-x="789" 
d="M2 0l347 768l107 16l331 -784h-164l-79 201h-299l-79 -201h-164zM397 585l-113 -274h220zM495 815l-89 80l-88 -80h-67l100 149h112l100 -149h-68z" />
    <glyph glyph-name="Atilde" unicode="&#xc3;" horiz-adv-x="789" 
d="M2 0l347 768l107 16l331 -784h-164l-79 201h-299l-79 -201h-164zM397 585l-113 -274h220zM338 853q-21 0 -36 -14t-17 -35l-48 10q6 66 34 104t68 38q26 0 73 -17t65 -17q22 0 36 14t17 36l48 -10q-6 -66 -34 -104.5t-68 -38.5q-26 0 -73 17t-65 17z" />
    <glyph glyph-name="Adieresis" unicode="&#xc4;" horiz-adv-x="789" 
d="M2 0l347 768l107 16l331 -784h-164l-79 201h-299l-79 -201h-164zM397 585l-113 -274h220zM293 965q31 0 51 -19.5t20 -51.5q0 -30 -19.5 -49.5t-50.5 -19.5q-32 0 -51.5 19t-19.5 50t19.5 51t50.5 20zM521 965q31 0 50.5 -19.5t19.5 -51.5q0 -30 -19 -49.5t-50 -19.5
q-32 0 -51.5 19t-19.5 50q0 32 19.5 51.5t50.5 19.5z" />
    <glyph glyph-name="Aring" unicode="&#xc5;" horiz-adv-x="789" 
d="M2 0l347 768l107 16l331 -784h-164l-79 201h-299l-79 -201h-164zM397 585l-113 -274h220zM301 906q0 43 31 74t74 31t74.5 -31t31.5 -74t-31.5 -74t-74.5 -31t-74 31t-31 74zM348 906q0 -23 17.5 -40.5t40.5 -17.5q24 0 41 17.5t17 40.5t-17 40.5t-41 17.5
q-23 0 -40.5 -17.5t-17.5 -40.5z" />
    <glyph glyph-name="AE" unicode="&#xc6;" horiz-adv-x="966" 
d="M614 644v-184h252v-119h-252v-214h298v-127h-443v235h-221l-122 -235h-154l404 772h536v-128h-298zM462 644l-153 -292h160v292h-7z" />
    <glyph glyph-name="Ccedilla" unicode="&#xc7;" horiz-adv-x="743" 
d="M684 716l-14 -171h-3q-35 47 -92.5 74t-127.5 27q-111 0 -180.5 -74.5t-69.5 -185.5q0 -115 69 -187t180 -72q145 0 244 127h3l-15 -191q-95 -70 -228 -75l-21 -42q6 3 18 3q43 0 68.5 -22t25.5 -58q0 -41 -35 -68t-90 -27q-56 0 -86 25l6 60q24 -25 72 -25q22 0 33.5 9
t11.5 22q0 33 -51 33q-27 0 -44 -5l-2 3l43 92q-159 11 -256 119.5t-97 280.5q0 163 110.5 280t279.5 117q148 0 248 -69z" />
    <glyph glyph-name="Egrave" unicode="&#xc8;" horiz-adv-x="591" 
d="M235 645v-185h256v-119h-256v-214h302v-127h-446v772h443v-127h-299zM300 815l-142 149h142l73 -149h-73z" />
    <glyph glyph-name="Eacute" unicode="&#xc9;" horiz-adv-x="591" 
d="M235 645v-185h256v-119h-256v-214h302v-127h-446v772h443v-127h-299zM464 964l-143 -149h-72l73 149h142z" />
    <glyph glyph-name="Ecircumflex" unicode="&#xca;" horiz-adv-x="591" 
d="M235 645v-185h256v-119h-256v-214h302v-127h-446v772h443v-127h-299zM399 815l-89 80l-88 -80h-67l100 149h112l100 -149h-68z" />
    <glyph glyph-name="Edieresis" unicode="&#xcb;" horiz-adv-x="591" 
d="M235 645v-185h256v-119h-256v-214h302v-127h-446v772h443v-127h-299zM197 965q31 0 51 -19.5t20 -51.5q0 -30 -19.5 -49.5t-50.5 -19.5q-32 0 -51.5 19t-19.5 50t19.5 51t50.5 20zM425 965q31 0 50.5 -19.5t19.5 -51.5q0 -30 -19 -49.5t-50 -19.5q-32 0 -51.5 19
t-19.5 50q0 32 19.5 51.5t50.5 19.5z" />
    <glyph glyph-name="Igrave" unicode="&#xcc;" horiz-adv-x="326" 
d="M235 0h-144v772h144v-772zM151 815l-142 149h142l73 -149h-73z" />
    <glyph glyph-name="Iacute" unicode="&#xcd;" horiz-adv-x="326" 
d="M235 0h-144v772h144v-772zM316 964l-143 -149h-72l73 149h142z" />
    <glyph glyph-name="Icircumflex" unicode="&#xce;" horiz-adv-x="326" 
d="M235 0h-144v772h144v-772zM251 815l-89 80l-88 -80h-67l100 149h112l100 -149h-68z" />
    <glyph glyph-name="Idieresis" unicode="&#xcf;" horiz-adv-x="326" 
d="M235 0h-144v772h144v-772zM48 965q32 0 51.5 -19.5t19.5 -51.5q0 -30 -19.5 -49.5t-50.5 -19.5q-32 0 -51.5 19t-19.5 50t19.5 51t50.5 20zM276 965q31 0 50.5 -19.5t19.5 -51.5q0 -30 -19 -49.5t-50 -19.5q-32 0 -51.5 19t-19.5 50q0 32 19.5 51.5t50.5 19.5z" />
    <glyph glyph-name="Eth" unicode="&#xd0;" horiz-adv-x="776" 
d="M303 0h-212v337h-63v111h63v324h214q200 0 312.5 -103t112.5 -273q0 -190 -110 -293t-317 -103zM235 640v-192h153v-111h-153v-204h74q133 0 202.5 67.5t69.5 195.5q0 106 -71.5 175t-198.5 69h-76z" />
    <glyph glyph-name="Ntilde" unicode="&#xd1;" horiz-adv-x="886" 
d="M655 772h141v-772h-117l-447 539v-539h-141v772h117l447 -537v537zM375 853q-21 0 -36 -14t-17 -35l-48 10q6 66 34 104t68 38q26 0 73 -17t65 -17q22 0 36 14t17 36l48 -10q-6 -66 -34 -104.5t-68 -38.5q-26 0 -73 17t-65 17z" />
    <glyph glyph-name="Ograve" unicode="&#xd2;" horiz-adv-x="854" 
d="M659 386q0 116 -66 192t-166 76q-102 0 -167.5 -76t-65.5 -192t66 -192t167 -76t166.5 76t65.5 192zM808 386q0 -175 -107.5 -288t-273.5 -113q-168 0 -274.5 113t-106.5 288t107 288t274 113t274 -113t107 -288zM416 815l-142 149h142l73 -149h-73z" />
    <glyph glyph-name="Oacute" unicode="&#xd3;" horiz-adv-x="854" 
d="M659 386q0 116 -66 192t-166 76q-102 0 -167.5 -76t-65.5 -192t66 -192t167 -76t166.5 76t65.5 192zM808 386q0 -175 -107.5 -288t-273.5 -113q-168 0 -274.5 113t-106.5 288t107 288t274 113t274 -113t107 -288zM580 964l-143 -149h-72l73 149h142z" />
    <glyph glyph-name="Ocircumflex" unicode="&#xd4;" horiz-adv-x="854" 
d="M659 386q0 116 -66 192t-166 76q-102 0 -167.5 -76t-65.5 -192t66 -192t167 -76t166.5 76t65.5 192zM808 386q0 -175 -107.5 -288t-273.5 -113q-168 0 -274.5 113t-106.5 288t107 288t274 113t274 -113t107 -288zM515 815l-89 80l-88 -80h-67l100 149h112l100 -149h-68z
" />
    <glyph glyph-name="Otilde" unicode="&#xd5;" horiz-adv-x="854" 
d="M659 386q0 116 -66 192t-166 76q-102 0 -167.5 -76t-65.5 -192t66 -192t167 -76t166.5 76t65.5 192zM808 386q0 -175 -107.5 -288t-273.5 -113q-168 0 -274.5 113t-106.5 288t107 288t274 113t274 -113t107 -288zM358 853q-21 0 -36 -14t-17 -35l-48 10q6 66 34 104
t68 38q26 0 73 -17t65 -17q22 0 36 14t17 36l48 -10q-6 -66 -34 -104.5t-68 -38.5q-26 0 -73 17t-65 17z" />
    <glyph glyph-name="Odieresis" unicode="&#xd6;" horiz-adv-x="854" 
d="M659 386q0 116 -66 192t-166 76q-102 0 -167.5 -76t-65.5 -192t66 -192t167 -76t166.5 76t65.5 192zM808 386q0 -175 -107.5 -288t-273.5 -113q-168 0 -274.5 113t-106.5 288t107 288t274 113t274 -113t107 -288zM313 965q31 0 51 -19.5t20 -51.5q0 -30 -19.5 -49.5
t-50.5 -19.5q-32 0 -51.5 19t-19.5 50t19.5 51t50.5 20zM541 965q31 0 50.5 -19.5t19.5 -51.5q0 -30 -19 -49.5t-50 -19.5q-32 0 -51.5 19t-19.5 50q0 32 19.5 51.5t50.5 19.5z" />
    <glyph glyph-name="multiply" unicode="&#xd7;" horiz-adv-x="598" 
d="M64 101l158 158l-168 168l78 77l167 -168l168 168l77 -77l-168 -168l158 -158l-77 -77l-158 157l-157 -157z" />
    <glyph glyph-name="Oslash" unicode="&#xd8;" horiz-adv-x="854" 
d="M808 386q0 -175 -107.5 -288t-273.5 -113q-122 0 -215 63l-45 -56l-88 31l66 83q-99 110 -99 280q0 175 107 288t274 113q118 0 212 -62l44 55l90 -30l-66 -83q101 -110 101 -281zM659 386q0 94 -46 164l-314 -392q55 -40 128 -40q101 0 166.5 76t65.5 192zM194 386
q0 -94 44 -163l314 392q-56 39 -125 39q-102 0 -167.5 -76t-65.5 -192z" />
    <glyph glyph-name="Ugrave" unicode="&#xd9;" horiz-adv-x="777" 
d="M84 772h145v-471q0 -86 45 -129.5t115 -43.5t114.5 43.5t44.5 129.5v471h145v-479q0 -153 -83.5 -230t-220.5 -77q-138 0 -221.5 74.5t-83.5 225.5v486zM377 815l-142 149h142l73 -149h-73z" />
    <glyph glyph-name="Uacute" unicode="&#xda;" horiz-adv-x="777" 
d="M84 772h145v-471q0 -86 45 -129.5t115 -43.5t114.5 43.5t44.5 129.5v471h145v-479q0 -153 -83.5 -230t-220.5 -77q-138 0 -221.5 74.5t-83.5 225.5v486zM542 964l-143 -149h-72l73 149h142z" />
    <glyph glyph-name="Ucircumflex" unicode="&#xdb;" horiz-adv-x="777" 
d="M84 772h145v-471q0 -86 45 -129.5t115 -43.5t114.5 43.5t44.5 129.5v471h145v-479q0 -153 -83.5 -230t-220.5 -77q-138 0 -221.5 74.5t-83.5 225.5v486zM477 815l-89 80l-88 -80h-67l100 149h112l100 -149h-68z" />
    <glyph glyph-name="Udieresis" unicode="&#xdc;" horiz-adv-x="777" 
d="M84 772h145v-471q0 -86 45 -129.5t115 -43.5t114.5 43.5t44.5 129.5v471h145v-479q0 -153 -83.5 -230t-220.5 -77q-138 0 -221.5 74.5t-83.5 225.5v486zM274 965q32 0 51.5 -19.5t19.5 -51.5q0 -30 -19.5 -49.5t-50.5 -19.5q-32 0 -51.5 19t-19.5 50t19.5 51t50.5 20z
M502 965q31 0 50.5 -19.5t19.5 -51.5q0 -30 -19 -49.5t-50 -19.5q-32 0 -51.5 19t-19.5 50q0 32 19.5 51.5t50.5 19.5z" />
    <glyph glyph-name="Yacute" unicode="&#xdd;" horiz-adv-x="724" 
d="M421 0h-145v365l-278 407h177l179 -287l195 287h177l-305 -407v-365zM515 964l-143 -149h-72l73 149h142z" />
    <glyph glyph-name="Thorn" unicode="&#xde;" horiz-adv-x="618" 
d="M235 0h-144v772h144v-120h67q137 0 215 -63.5t78 -177.5q0 -130 -80.5 -196t-233.5 -66h-46v-149zM235 529v-257h56q163 0 163 132q0 60 -41 92.5t-116 32.5h-62z" />
    <glyph glyph-name="germandbls" unicode="&#xdf;" horiz-adv-x="633" 
d="M545 601q0 -120 -137 -183q89 -30 139.5 -88.5t50.5 -134.5q0 -95 -58.5 -153.5t-159.5 -58.5q-76 0 -117 28l-15 134h3q33 -45 102 -45q52 0 78.5 26.5t26.5 73.5q0 55 -46 95t-143 56v110q70 17 104.5 51t34.5 75q0 79 -83 79q-53 0 -84.5 -37.5t-31.5 -103.5v-525
h-137v528q0 111 71.5 181.5t188.5 70.5q99 0 156 -49t57 -130z" />
    <glyph glyph-name="agrave" unicode="&#xe0;" horiz-adv-x="519" 
d="M89 346v116q71 47 169 47q193 0 193 -187v-310l-133 -27v62q-75 -60 -157 -60q-62 0 -96.5 30.5t-34.5 85.5q0 100 123 153q71 31 165 43v23q0 35 -21.5 55t-63.5 20q-84 0 -141 -51h-3zM318 139v98q-64 -10 -105 -33q-43 -26 -43 -65q0 -49 54 -49q57 0 94 49zM259 591
l-153 179h142l71 -179h-60z" />
    <glyph glyph-name="aacute" unicode="&#xe1;" horiz-adv-x="519" 
d="M89 346v116q71 47 169 47q193 0 193 -187v-310l-133 -27v62q-75 -60 -157 -60q-62 0 -96.5 30.5t-34.5 85.5q0 100 123 153q71 31 165 43v23q0 35 -21.5 55t-63.5 20q-84 0 -141 -51h-3zM318 139v98q-64 -10 -105 -33q-43 -26 -43 -65q0 -49 54 -49q57 0 94 49zM414 770
l-153 -179h-60l71 179h142z" />
    <glyph glyph-name="acircumflex" unicode="&#xe2;" horiz-adv-x="519" 
d="M89 346v116q71 47 169 47q193 0 193 -187v-310l-133 -27v62q-75 -60 -157 -60q-62 0 -96.5 30.5t-34.5 85.5q0 100 123 153q71 31 165 43v23q0 35 -21.5 55t-63.5 20q-84 0 -141 -51h-3zM318 139v98q-64 -10 -105 -33q-43 -26 -43 -65q0 -49 54 -49q57 0 94 49zM344 591
l-84 97l-84 -97h-66l106 179h88l106 -179h-66z" />
    <glyph glyph-name="atilde" unicode="&#xe3;" horiz-adv-x="519" 
d="M89 346v116q71 47 169 47q193 0 193 -187v-310l-133 -27v62q-75 -60 -157 -60q-62 0 -96.5 30.5t-34.5 85.5q0 100 123 153q71 31 165 43v23q0 35 -21.5 55t-63.5 20q-84 0 -141 -51h-3zM318 139v98q-64 -10 -105 -33q-43 -26 -43 -65q0 -49 54 -49q57 0 94 49zM200 648
q-21 0 -35 -14t-18 -36l-48 11q7 65 37 103.5t73 38.5q23 0 64.5 -17t57.5 -17q21 0 35.5 14t17.5 36l49 -11q-7 -65 -37 -103.5t-73 -38.5q-23 0 -65 17t-58 17z" />
    <glyph glyph-name="adieresis" unicode="&#xe4;" horiz-adv-x="519" 
d="M89 346v116q71 47 169 47q193 0 193 -187v-310l-133 -27v62q-75 -60 -157 -60q-62 0 -96.5 30.5t-34.5 85.5q0 100 123 153q71 31 165 43v23q0 35 -21.5 55t-63.5 20q-84 0 -141 -51h-3zM318 139v98q-64 -10 -105 -33q-43 -26 -43 -65q0 -49 54 -49q57 0 94 49zM155 743
q30 0 49 -18.5t19 -48.5q0 -29 -18.5 -48t-48.5 -19q-31 0 -49.5 18t-18.5 49q0 30 18.5 48.5t48.5 18.5zM364 743q30 0 49 -18.5t19 -48.5q0 -29 -18.5 -48t-48.5 -19q-31 0 -49.5 18t-18.5 49q0 30 18.5 48.5t48.5 18.5z" />
    <glyph glyph-name="aring" unicode="&#xe5;" horiz-adv-x="519" 
d="M89 346v116q71 47 169 47q193 0 193 -187v-310l-133 -27v62q-75 -60 -157 -60q-62 0 -96.5 30.5t-34.5 85.5q0 100 123 153q71 31 165 43v23q0 35 -21.5 55t-63.5 20q-84 0 -141 -51h-3zM318 139v98q-64 -10 -105 -33q-43 -26 -43 -65q0 -49 54 -49q57 0 94 49zM152 681
q0 44 32 76.5t76 32.5t76.5 -32.5t32.5 -76.5t-32.5 -76t-76.5 -32t-76 32.5t-32 75.5zM205 681q0 -23 16.5 -39t38.5 -16q23 0 39 16t16 39t-16 39t-39 16t-39 -16t-16 -39z" />
    <glyph glyph-name="ae" unicode="&#xe6;" horiz-adv-x="770" 
d="M89 459q70 52 170 52q105 0 143 -71q70 68 174 68q72 0 111.5 -37t39.5 -95q0 -55 -44 -95.5t-136 -58.5q-51 -11 -115 -16q13 -108 118 -108q47 0 89.5 21t69.5 58h3l-9 -138q-66 -56 -169 -56q-120 0 -175 78q-89 -78 -185 -78q-66 0 -105 32.5t-39 89.5q0 109 139 159
q61 21 146 29v29q0 37 -21.5 57t-59.5 20q-82 0 -142 -60h-3v120zM221 90q58 0 104 46q-10 39 -10 90v1q-50 -4 -99 -23q-47 -18 -47 -61q0 -23 13.5 -38t38.5 -15zM539 412q-42 0 -72 -40.5t-36 -102.5q38 5 87 19q73 20 73 75q0 21 -14 35t-38 14z" />
    <glyph glyph-name="ccedilla" unicode="&#xe7;" horiz-adv-x="503" 
d="M469 172l-18 -148q-56 -37 -141 -40l-19 -38q6 3 18 3q43 0 68.5 -22t25.5 -58q0 -41 -35 -68t-90 -27q-56 0 -86 25l6 60q24 -25 72 -25q22 0 33.5 9t11.5 22q0 33 -51 33q-27 0 -44 -5l-2 3l41 89q-102 11 -160.5 78t-58.5 177q0 120 74 195.5t205 75.5q85 0 141 -34
l-15 -133q-51 45 -121 45q-67 0 -105 -40t-38 -109q0 -60 36 -97.5t98 -37.5q90 0 151 67h3z" />
    <glyph glyph-name="egrave" unicode="&#xe8;" horiz-adv-x="520" 
d="M317 221q-81 -23 -155 -33q10 -41 42.5 -65.5t87.5 -24.5q100 0 168 78h3l-11 -138q-66 -55 -170 -55q-118 0 -181.5 68.5t-63.5 168.5q0 115 80.5 204t198.5 89q75 0 118 -37.5t43 -96.5q0 -115 -160 -158zM281 414q-45 0 -81.5 -47t-41.5 -115q53 10 107 28
q76 27 76 78q0 26 -16 41t-44 15zM280 591l-153 179h142l71 -179h-60z" />
    <glyph glyph-name="eacute" unicode="&#xe9;" horiz-adv-x="520" 
d="M317 221q-81 -23 -155 -33q10 -41 42.5 -65.5t87.5 -24.5q100 0 168 78h3l-11 -138q-66 -55 -170 -55q-118 0 -181.5 68.5t-63.5 168.5q0 115 80.5 204t198.5 89q75 0 118 -37.5t43 -96.5q0 -115 -160 -158zM281 414q-45 0 -81.5 -47t-41.5 -115q53 10 107 28
q76 27 76 78q0 26 -16 41t-44 15zM435 770l-153 -179h-60l71 179h142z" />
    <glyph glyph-name="ecircumflex" unicode="&#xea;" horiz-adv-x="520" 
d="M317 221q-81 -23 -155 -33q10 -41 42.5 -65.5t87.5 -24.5q100 0 168 78h3l-11 -138q-66 -55 -170 -55q-118 0 -181.5 68.5t-63.5 168.5q0 115 80.5 204t198.5 89q75 0 118 -37.5t43 -96.5q0 -115 -160 -158zM281 414q-45 0 -81.5 -47t-41.5 -115q53 10 107 28
q76 27 76 78q0 26 -16 41t-44 15zM365 591l-84 97l-84 -97h-66l106 179h88l106 -179h-66z" />
    <glyph glyph-name="edieresis" unicode="&#xeb;" horiz-adv-x="520" 
d="M317 221q-81 -23 -155 -33q10 -41 42.5 -65.5t87.5 -24.5q100 0 168 78h3l-11 -138q-66 -55 -170 -55q-118 0 -181.5 68.5t-63.5 168.5q0 115 80.5 204t198.5 89q75 0 118 -37.5t43 -96.5q0 -115 -160 -158zM281 414q-45 0 -81.5 -47t-41.5 -115q53 10 107 28
q76 27 76 78q0 26 -16 41t-44 15zM176 743q30 0 49 -18.5t19 -48.5q0 -29 -18.5 -48t-48.5 -19q-31 0 -49.5 18t-18.5 49q0 30 18.5 48.5t48.5 18.5zM385 743q30 0 49 -18.5t19 -48.5q0 -29 -18.5 -48t-48.5 -19q-31 0 -49.5 18t-18.5 49q0 30 18.5 48.5t48.5 18.5z" />
    <glyph glyph-name="igrave" unicode="&#xec;" horiz-adv-x="288" 
d="M76 481l137 28v-509h-137v481zM143 591l-153 179h142l71 -179h-60z" />
    <glyph glyph-name="iacute" unicode="&#xed;" horiz-adv-x="288" 
d="M76 481l137 28v-509h-137v481zM297 770l-153 -179h-60l71 179h142z" />
    <glyph glyph-name="icircumflex" unicode="&#xee;" horiz-adv-x="288" 
d="M76 481l137 28v-509h-137v481zM228 591l-84 97l-84 -97h-66l106 179h88l106 -179h-66z" />
    <glyph glyph-name="idieresis" unicode="&#xef;" horiz-adv-x="288" 
d="M45 728q30 0 49 -18.5t19 -48.5q0 -29 -18.5 -48t-48.5 -19q-31 0 -49.5 18t-18.5 49q0 30 18.5 48.5t48.5 18.5zM234 728q30 0 49 -18.5t19 -48.5q0 -29 -18.5 -48t-48.5 -19q-31 0 -49.5 18t-18.5 49q0 30 18.5 48.5t48.5 18.5zM76 481l137 28v-509h-137v481z" />
    <glyph glyph-name="eth" unicode="&#xf0;" horiz-adv-x="599" 
d="M109 563l-5 71l136 43q-52 39 -103 57v2l140 52q52 -23 103 -66l126 41l5 -71l-77 -25q126 -151 126 -370q0 -148 -72 -231t-202 -83q-109 0 -177.5 74.5t-68.5 185.5q0 122 68 194.5t178 72.5q51 0 94 -20q-30 75 -82 134zM420 280q0 50 -7 89q-41 39 -100 39
q-60 0 -96 -46t-36 -119q0 -66 30.5 -109.5t79.5 -43.5q62 0 95.5 50t33.5 140z" />
    <glyph glyph-name="ntilde" unicode="&#xf1;" horiz-adv-x="607" 
d="M76 0v494h137v-69q42 44 81 63.5t86 19.5q76 0 117.5 -43t41.5 -126v-339h-137v292q0 91 -77 91q-53 0 -84 -39q-28 -31 -28 -82v-262h-137zM242 648q-21 0 -35 -14t-18 -36l-48 11q7 65 37 103.5t73 38.5q23 0 64.5 -17t57.5 -17q21 0 35.5 14t17.5 36l49 -11
q-7 -65 -37 -103.5t-73 -38.5q-23 0 -65 17t-58 17z" />
    <glyph glyph-name="ograve" unicode="&#xf2;" horiz-adv-x="606" 
d="M303 94q57 0 89.5 40.5t32.5 117.5q0 67 -33 108.5t-89 41.5t-89 -40.5t-33 -109.5q0 -72 32 -115t90 -43zM303 -17q-116 0 -189.5 72.5t-73.5 196.5q0 119 74.5 189.5t188.5 70.5q116 0 190 -69.5t74 -190.5q0 -129 -76 -199t-188 -70zM303 591l-153 179h142l71 -179
h-60z" />
    <glyph glyph-name="oacute" unicode="&#xf3;" horiz-adv-x="606" 
d="M303 94q57 0 89.5 40.5t32.5 117.5q0 67 -33 108.5t-89 41.5t-89 -40.5t-33 -109.5q0 -72 32 -115t90 -43zM303 -17q-116 0 -189.5 72.5t-73.5 196.5q0 119 74.5 189.5t188.5 70.5q116 0 190 -69.5t74 -190.5q0 -129 -76 -199t-188 -70zM457 770l-153 -179h-60l71 179
h142z" />
    <glyph glyph-name="ocircumflex" unicode="&#xf4;" horiz-adv-x="606" 
d="M303 94q57 0 89.5 40.5t32.5 117.5q0 67 -33 108.5t-89 41.5t-89 -40.5t-33 -109.5q0 -72 32 -115t90 -43zM303 -17q-116 0 -189.5 72.5t-73.5 196.5q0 119 74.5 189.5t188.5 70.5q116 0 190 -69.5t74 -190.5q0 -129 -76 -199t-188 -70zM388 591l-84 97l-84 -97h-66
l106 179h88l106 -179h-66z" />
    <glyph glyph-name="otilde" unicode="&#xf5;" horiz-adv-x="606" 
d="M303 94q57 0 89.5 40.5t32.5 117.5q0 67 -33 108.5t-89 41.5t-89 -40.5t-33 -109.5q0 -72 32 -115t90 -43zM303 -17q-116 0 -189.5 72.5t-73.5 196.5q0 119 74.5 189.5t188.5 70.5q116 0 190 -69.5t74 -190.5q0 -129 -76 -199t-188 -70zM244 648q-21 0 -35 -14t-18 -36
l-48 11q7 65 37 103.5t73 38.5q23 0 64.5 -17t57.5 -17q21 0 35.5 14t17.5 36l49 -11q-7 -65 -37 -103.5t-73 -38.5q-23 0 -65 17t-58 17z" />
    <glyph glyph-name="odieresis" unicode="&#xf6;" horiz-adv-x="606" 
d="M303 94q57 0 89.5 40.5t32.5 117.5q0 67 -33 108.5t-89 41.5t-89 -40.5t-33 -109.5q0 -72 32 -115t90 -43zM303 -17q-116 0 -189.5 72.5t-73.5 196.5q0 119 74.5 189.5t188.5 70.5q116 0 190 -69.5t74 -190.5q0 -129 -76 -199t-188 -70zM199 743q30 0 49 -18.5t19 -48.5
q0 -29 -18.5 -48t-48.5 -19q-31 0 -49.5 18t-18.5 49q0 30 18.5 48.5t48.5 18.5zM408 743q30 0 49 -18.5t19 -48.5q0 -29 -18.5 -48t-48.5 -19q-31 0 -49.5 18t-18.5 49q0 30 18.5 48.5t48.5 18.5z" />
    <glyph glyph-name="divide" unicode="&#xf7;" horiz-adv-x="598" 
d="M553 310v-103h-508v103h508zM298 161q31 0 50 -18.5t19 -49.5t-18.5 -49t-47.5 -18q-32 0 -50.5 18t-18.5 49t18 49.5t48 18.5zM298 490q31 0 50 -18.5t19 -49.5q0 -30 -18 -48t-48 -18q-32 0 -50.5 17.5t-18.5 48.5t18 49.5t48 18.5z" />
    <glyph glyph-name="oslash" unicode="&#xf8;" horiz-adv-x="606" 
d="M303 -17q-73 0 -131 29l-29 -39l-67 19l43 57q-79 74 -79 203q0 119 74.5 189.5t188.5 70.5q70 0 129 -28l28 38l67 -19l-40 -55q80 -70 80 -196q0 -129 -76 -199t-188 -70zM303 94q57 0 89.5 40.5t32.5 117.5q0 50 -21 89l-163 -231q27 -16 62 -16zM181 252
q0 -57 20 -97l163 230q-26 17 -61 17q-56 0 -89 -40.5t-33 -109.5z" />
    <glyph glyph-name="ugrave" unicode="&#xf9;" horiz-adv-x="599" 
d="M68 494h137v-297q0 -84 76 -84q60 0 94 58q12 22 12 51v272h137v-482l-137 -27v84q-66 -82 -163 -82q-77 0 -116.5 44.5t-39.5 128.5v334zM295 591l-153 179h142l71 -179h-60z" />
    <glyph glyph-name="uacute" unicode="&#xfa;" horiz-adv-x="599" 
d="M68 494h137v-297q0 -84 76 -84q60 0 94 58q12 22 12 51v272h137v-482l-137 -27v84q-66 -82 -163 -82q-77 0 -116.5 44.5t-39.5 128.5v334zM449 770l-153 -179h-60l71 179h142z" />
    <glyph glyph-name="ucircumflex" unicode="&#xfb;" horiz-adv-x="599" 
d="M68 494h137v-297q0 -84 76 -84q60 0 94 58q12 22 12 51v272h137v-482l-137 -27v84q-66 -82 -163 -82q-77 0 -116.5 44.5t-39.5 128.5v334zM380 591l-84 97l-84 -97h-66l106 179h88l106 -179h-66z" />
    <glyph glyph-name="udieresis" unicode="&#xfc;" horiz-adv-x="599" 
d="M68 494h137v-297q0 -84 76 -84q60 0 94 58q12 22 12 51v272h137v-482l-137 -27v84q-66 -82 -163 -82q-77 0 -116.5 44.5t-39.5 128.5v334zM191 743q30 0 49 -18.5t19 -48.5q0 -29 -18.5 -48t-48.5 -19q-31 0 -49.5 18t-18.5 49q0 30 18.5 48.5t48.5 18.5zM400 743
q30 0 49 -18.5t19 -48.5q0 -29 -18.5 -48t-48.5 -19q-31 0 -49.5 18t-18.5 49q0 30 18.5 48.5t48.5 18.5z" />
    <glyph glyph-name="yacute" unicode="&#xfd;" horiz-adv-x="547" 
d="M55 -234q91 94 151 232l-206 496h148l124 -335l135 335h140l-217 -507q-65 -152 -114 -224h-161v3zM432 770l-153 -179h-60l71 179h142z" />
    <glyph glyph-name="thorn" unicode="&#xfe;" horiz-adv-x="613" 
d="M76 752l137 28v-291q49 18 103 18q112 0 185 -69t73 -186q0 -123 -72.5 -196t-195.5 -73q-54 0 -93 19v-211l-137 -28v989zM285 404q-47 0 -72 -19v-281q25 -19 72 -19q68 0 107.5 43.5t39.5 119.5q0 71 -40 113.5t-107 42.5z" />
    <glyph glyph-name="ydieresis" unicode="&#xff;" horiz-adv-x="547" 
d="M55 -234q91 94 151 232l-206 496h148l124 -335l135 335h140l-217 -507q-65 -152 -114 -224h-161v3zM173 743q30 0 49 -18.5t19 -48.5q0 -29 -18.5 -48t-48.5 -19q-31 0 -49.5 18t-18.5 49q0 30 18.5 48.5t48.5 18.5zM382 743q30 0 49 -18.5t19 -48.5q0 -29 -18.5 -48
t-48.5 -19q-31 0 -49.5 18t-18.5 49q0 30 18.5 48.5t48.5 18.5z" />
    <glyph glyph-name="Amacron" unicode="&#x100;" horiz-adv-x="789" 
d="M2 0l347 768l107 16l331 -784h-164l-79 201h-299l-79 -201h-164zM397 585l-113 -274h220zM565 931v-88h-316v88h316z" />
    <glyph glyph-name="amacron" unicode="&#x101;" horiz-adv-x="519" 
d="M89 346v116q71 47 169 47q193 0 193 -187v-310l-133 -27v62q-75 -60 -157 -60q-62 0 -96.5 30.5t-34.5 85.5q0 100 123 153q71 31 165 43v23q0 35 -21.5 55t-63.5 20q-84 0 -141 -51h-3zM318 139v98q-64 -10 -105 -33q-43 -26 -43 -65q0 -49 54 -49q57 0 94 49zM402 724
v-96h-285v96h285z" />
    <glyph glyph-name="Abreve" unicode="&#x102;" horiz-adv-x="789" 
d="M2 0l347 768l107 16l331 -784h-164l-79 201h-299l-79 -201h-164zM397 585l-113 -274h220zM407 896q77 0 82 75h55q0 -66 -33.5 -111t-103.5 -45q-72 0 -104.5 44.5t-32.5 111.5h55q5 -75 82 -75z" />
    <glyph glyph-name="abreve" unicode="&#x103;" horiz-adv-x="519" 
d="M89 346v116q71 47 169 47q193 0 193 -187v-310l-133 -27v62q-75 -60 -157 -60q-62 0 -96.5 30.5t-34.5 85.5q0 100 123 153q71 31 165 43v23q0 35 -21.5 55t-63.5 20q-84 0 -141 -51h-3zM318 139v98q-64 -10 -105 -33q-43 -26 -43 -65q0 -49 54 -49q57 0 94 49zM260 682
q82 0 82 86h55q0 -175 -137 -175t-137 175h55q0 -86 82 -86z" />
    <glyph glyph-name="Aogonek" unicode="&#x104;" horiz-adv-x="789" 
d="M2 0l347 768l107 16l331 -784q-72 -11 -108.5 -42.5t-36.5 -69.5q0 -16 10.5 -26.5t30.5 -10.5q42 0 71 33h3l-7 -97q-38 -24 -97 -24q-57 0 -90.5 26.5t-33.5 73.5q0 35 21.5 66.5t72.5 70.5l-79 201h-299l-79 -201h-164zM397 585l-113 -274h220z" />
    <glyph glyph-name="aogonek" unicode="&#x105;" horiz-adv-x="519" 
d="M89 346v116q71 47 169 47q193 0 193 -187v-310q-63 -30 -90 -59.5t-27 -64.5q0 -16 10.5 -26.5t30.5 -10.5q42 0 71 33h3l-7 -97q-38 -24 -97 -24q-58 0 -91 26t-33 74q0 35 22.5 66.5t74.5 70.5v47q-75 -60 -157 -60q-62 0 -96.5 30.5t-34.5 85.5q0 100 123 153
q71 31 165 43v23q0 35 -21.5 55t-63.5 20q-84 0 -141 -51h-3zM318 139v98q-64 -10 -105 -33q-43 -26 -43 -65q0 -49 54 -49q57 0 94 49z" />
    <glyph glyph-name="Cacute" unicode="&#x106;" horiz-adv-x="743" 
d="M684 716l-14 -171h-3q-35 47 -92.5 74t-127.5 27q-111 0 -180.5 -74.5t-69.5 -185.5q0 -115 69 -187t180 -72q145 0 244 127h3l-15 -191q-102 -76 -245 -76q-172 0 -279.5 110t-107.5 291q0 163 110.5 280t279.5 117q148 0 248 -69zM573 964l-143 -149h-72l73 149h142z
" />
    <glyph glyph-name="cacute" unicode="&#x107;" horiz-adv-x="503" 
d="M469 172l-18 -148q-63 -41 -156 -41q-117 0 -186 69t-69 188q0 120 74 195.5t205 75.5q85 0 141 -34l-15 -133q-51 45 -121 45q-67 0 -105 -40t-38 -109q0 -60 36 -97.5t98 -37.5q90 0 151 67h3zM441 770l-153 -179h-60l71 179h142z" />
    <glyph glyph-name="Ccircumflex" unicode="&#x108;" horiz-adv-x="743" 
d="M684 716l-14 -171h-3q-35 47 -92.5 74t-127.5 27q-111 0 -180.5 -74.5t-69.5 -185.5q0 -115 69 -187t180 -72q145 0 244 127h3l-15 -191q-102 -76 -245 -76q-172 0 -279.5 110t-107.5 291q0 163 110.5 280t279.5 117q148 0 248 -69zM508 815l-89 80l-88 -80h-67l100 149
h112l100 -149h-68z" />
    <glyph glyph-name="ccircumflex" unicode="&#x109;" horiz-adv-x="503" 
d="M469 172l-18 -148q-63 -41 -156 -41q-117 0 -186 69t-69 188q0 120 74 195.5t205 75.5q85 0 141 -34l-15 -133q-51 45 -121 45q-67 0 -105 -40t-38 -109q0 -60 36 -97.5t98 -37.5q90 0 151 67h3zM372 591l-84 97l-84 -97h-66l106 179h88l106 -179h-66z" />
    <glyph glyph-name="Cdotaccent" unicode="&#x10a;" horiz-adv-x="743" 
d="M684 716l-14 -171h-3q-35 47 -92.5 74t-127.5 27q-111 0 -180.5 -74.5t-69.5 -185.5q0 -115 69 -187t180 -72q145 0 244 127h3l-15 -191q-102 -76 -245 -76q-172 0 -279.5 110t-107.5 291q0 163 110.5 280t279.5 117q148 0 248 -69zM419 966q33 0 53.5 -20.5t20.5 -53.5
q0 -32 -20 -52.5t-53 -20.5q-34 0 -54 20t-20 53t20 53.5t53 20.5z" />
    <glyph glyph-name="cdotaccent" unicode="&#x10b;" horiz-adv-x="503" 
d="M469 172l-18 -148q-63 -41 -156 -41q-117 0 -186 69t-69 188q0 120 74 195.5t205 75.5q85 0 141 -34l-15 -133q-51 45 -121 45q-67 0 -105 -40t-38 -109q0 -60 36 -97.5t98 -37.5q90 0 151 67h3zM287 760q35 0 56.5 -22t21.5 -56t-21.5 -56t-55.5 -22q-36 0 -57.5 21.5
t-21.5 56.5q0 34 21.5 56t56.5 22z" />
    <glyph glyph-name="Ccaron" unicode="&#x10c;" horiz-adv-x="743" 
d="M684 716l-14 -171h-3q-35 47 -92.5 74t-127.5 27q-111 0 -180.5 -74.5t-69.5 -185.5q0 -115 69 -187t180 -72q145 0 244 127h3l-15 -191q-102 -76 -245 -76q-172 0 -279.5 110t-107.5 291q0 163 110.5 280t279.5 117q148 0 248 -69zM263 964h67l89 -80l88 80h68
l-100 -149h-112z" />
    <glyph glyph-name="ccaron" unicode="&#x10d;" horiz-adv-x="503" 
d="M469 172l-18 -148q-63 -41 -156 -41q-117 0 -186 69t-69 188q0 120 74 195.5t205 75.5q85 0 141 -34l-15 -133q-51 45 -121 45q-67 0 -105 -40t-38 -109q0 -60 36 -97.5t98 -37.5q90 0 151 67h3zM138 770h66l84 -98l84 98h66l-106 -179h-88z" />
    <glyph glyph-name="Dcaron" unicode="&#x10e;" horiz-adv-x="776" 
d="M303 0h-212v772h214q200 0 312.5 -103t112.5 -273q0 -190 -110 -293t-317 -103zM235 640v-507h74q133 0 202.5 67.5t69.5 195.5q0 106 -71.5 175t-198.5 69h-76zM180 964h67l89 -80l88 80h68l-100 -149h-112z" />
    <glyph glyph-name="dcaron" unicode="&#x10f;" horiz-adv-x="621" 
d="M419 -16l3 51q-61 -52 -150 -52q-107 0 -169.5 72t-62.5 181q0 118 75.5 196.5t188.5 78.5q58 0 104 -23v265l137 27v-768zM314 94q61 0 94 32v255q-32 20 -82 20q-65 0 -105 -44t-40 -119q0 -67 35 -105.5t98 -38.5zM697 781q13 -27 13 -61q0 -60 -78 -142h-52
q31 78 31 127q0 27 -12 54z" />
    <glyph glyph-name="Dcroat" unicode="&#x110;" horiz-adv-x="776" 
d="M303 0h-212v337h-63v111h63v324h214q200 0 312.5 -103t112.5 -273q0 -190 -110 -293t-317 -103zM235 640v-192h153v-111h-153v-204h74q133 0 202.5 67.5t69.5 195.5q0 106 -71.5 175t-198.5 69h-76z" />
    <glyph glyph-name="dcroat" unicode="&#x111;" horiz-adv-x="621" 
d="M419 -16l3 51q-61 -52 -150 -52q-107 0 -169.5 72t-62.5 181q0 118 75.5 196.5t188.5 78.5q58 0 104 -23v107h-154v80h154v78l137 27v-105h53v-80h-53v-583zM314 94q61 0 94 32v255q-32 20 -82 20q-65 0 -105 -44t-40 -119q0 -67 35 -105.5t98 -38.5z" />
    <glyph glyph-name="Emacron" unicode="&#x112;" horiz-adv-x="591" 
d="M235 645v-185h256v-119h-256v-214h302v-127h-446v772h443v-127h-299zM469 931v-88h-316v88h316z" />
    <glyph glyph-name="emacron" unicode="&#x113;" horiz-adv-x="520" 
d="M317 221q-81 -23 -155 -33q10 -41 42.5 -65.5t87.5 -24.5q100 0 168 78h3l-11 -138q-66 -55 -170 -55q-118 0 -181.5 68.5t-63.5 168.5q0 115 80.5 204t198.5 89q75 0 118 -37.5t43 -96.5q0 -115 -160 -158zM281 414q-45 0 -81.5 -47t-41.5 -115q53 10 107 28
q76 27 76 78q0 26 -16 41t-44 15zM423 724v-96h-285v96h285z" />
    <glyph glyph-name="Ebreve" unicode="&#x114;" horiz-adv-x="591" 
d="M235 645v-185h256v-119h-256v-214h302v-127h-446v772h443v-127h-299zM311 896q77 0 82 75h55q0 -66 -33.5 -111t-103.5 -45q-72 0 -104.5 44.5t-32.5 111.5h55q5 -75 82 -75z" />
    <glyph glyph-name="ebreve" unicode="&#x115;" horiz-adv-x="520" 
d="M317 221q-81 -23 -155 -33q10 -41 42.5 -65.5t87.5 -24.5q100 0 168 78h3l-11 -138q-66 -55 -170 -55q-118 0 -181.5 68.5t-63.5 168.5q0 115 80.5 204t198.5 89q75 0 118 -37.5t43 -96.5q0 -115 -160 -158zM281 414q-45 0 -81.5 -47t-41.5 -115q53 10 107 28
q76 27 76 78q0 26 -16 41t-44 15zM281 682q82 0 82 86h55q0 -175 -137 -175t-137 175h55q0 -86 82 -86z" />
    <glyph glyph-name="Edotaccent" unicode="&#x116;" horiz-adv-x="591" 
d="M235 645v-185h256v-119h-256v-214h302v-127h-446v772h443v-127h-299zM310 966q33 0 53.5 -20.5t20.5 -53.5q0 -32 -20 -52.5t-53 -20.5q-34 0 -54 20t-20 53t20 53.5t53 20.5z" />
    <glyph glyph-name="edotaccent" unicode="&#x117;" horiz-adv-x="520" 
d="M317 221q-81 -23 -155 -33q10 -41 42.5 -65.5t87.5 -24.5q100 0 168 78h3l-11 -138q-66 -55 -170 -55q-118 0 -181.5 68.5t-63.5 168.5q0 115 80.5 204t198.5 89q75 0 118 -37.5t43 -96.5q0 -115 -160 -158zM281 414q-45 0 -81.5 -47t-41.5 -115q53 10 107 28
q76 27 76 78q0 26 -16 41t-44 15zM281 760q35 0 56.5 -22t21.5 -56t-21.5 -56t-55.5 -22q-36 0 -57.5 21.5t-21.5 56.5q0 34 21.5 56t56.5 22z" />
    <glyph glyph-name="Eogonek" unicode="&#x118;" horiz-adv-x="591" 
d="M400 0h-309v772h443v-127h-299v-185h256v-119h-256v-214h302v-127q-118 -41 -118 -112q0 -16 10.5 -26.5t30.5 -10.5q42 0 71 33h3l-7 -97q-38 -24 -97 -24q-58 0 -91 26t-33 74q0 35 21.5 66.5t72.5 70.5z" />
    <glyph glyph-name="eogonek" unicode="&#x119;" horiz-adv-x="520" 
d="M223 -145q0 73 87 130q-18 -2 -28 -2q-118 0 -181.5 68.5t-63.5 168.5q0 115 80.5 204t198.5 89q75 0 118 -37.5t43 -95.5q0 -116 -160 -159q-81 -23 -155 -33q10 -41 42.5 -65.5t87.5 -24.5q100 0 168 78h3l-11 -138q-69 -58 -92.5 -88.5t-23.5 -61.5q0 -16 10 -26.5
t28 -10.5q44 0 74 33h3l-7 -97q-38 -24 -97 -24q-58 0 -91 24t-33 68zM281 414q-45 0 -81.5 -47t-41.5 -115q63 12 107 28q76 28 76 79q0 26 -16 40.5t-44 14.5z" />
    <glyph glyph-name="Ecaron" unicode="&#x11a;" horiz-adv-x="591" 
d="M235 645v-185h256v-119h-256v-214h302v-127h-446v772h443v-127h-299zM154 964h67l89 -80l88 80h68l-100 -149h-112z" />
    <glyph glyph-name="ecaron" unicode="&#x11b;" horiz-adv-x="520" 
d="M317 221q-81 -23 -155 -33q10 -41 42.5 -65.5t87.5 -24.5q100 0 168 78h3l-11 -138q-66 -55 -170 -55q-118 0 -181.5 68.5t-63.5 168.5q0 115 80.5 204t198.5 89q75 0 118 -37.5t43 -96.5q0 -115 -160 -158zM281 414q-45 0 -81.5 -47t-41.5 -115q53 10 107 28
q76 27 76 78q0 26 -16 41t-44 15zM131 770h66l84 -98l84 98h66l-106 -179h-88z" />
    <glyph glyph-name="Gcircumflex" unicode="&#x11c;" horiz-adv-x="769" 
d="M713 366v-286q-129 -93 -282 -93q-172 0 -278.5 107.5t-106.5 286.5q0 168 108 286t290 118q136 0 240 -65l-15 -166h-3q-38 45 -95.5 71.5t-124.5 26.5q-114 0 -181.5 -74.5t-67.5 -196.5q0 -120 65.5 -192t174.5 -72q79 0 125 38v211h151zM514 815l-89 80l-88 -80h-67
l100 149h112l100 -149h-68z" />
    <glyph glyph-name="gcircumflex" unicode="&#x11d;" horiz-adv-x="535" 
d="M255 509q62 0 114 -27q28 38 60.5 54.5t78.5 16.5v-111q-41 0 -71 -18q30 -41 30 -86q0 -122 -164 -163q-20 -5 -55 -11.5t-40 -7.5q-29 -7 -29 -21t46 -23q18 -3 75 -11.5t76 -12.5q66 -13 95.5 -44t29.5 -84q0 -84 -78.5 -140.5t-190.5 -56.5q-87 0 -140 43.5
t-53 104.5q0 71 75 114q-37 12 -57.5 32.5t-20.5 44.5q0 53 111 103q-98 46 -98 133q0 71 59 121t147 50zM317 -14q-16 3 -64 10t-75 12q-39 -24 -39 -65q0 -33 28 -53t77 -20q53 0 88 20.5t35 48.5q0 35 -50 47zM167 329q0 -53 59 -82q10 -4 16 -4q9 0 21 4q73 24 73 81
q0 33 -23.5 56.5t-62.5 23.5q-36 0 -59.5 -22t-23.5 -57zM342 591l-84 97l-84 -97h-66l106 179h88l106 -179h-66z" />
    <glyph glyph-name="Gbreve" unicode="&#x11e;" horiz-adv-x="769" 
d="M713 366v-286q-129 -93 -282 -93q-172 0 -278.5 107.5t-106.5 286.5q0 168 108 286t290 118q136 0 240 -65l-15 -166h-3q-38 45 -95.5 71.5t-124.5 26.5q-114 0 -181.5 -74.5t-67.5 -196.5q0 -120 65.5 -192t174.5 -72q79 0 125 38v211h151zM426 896q77 0 82 75h55
q0 -66 -33.5 -111t-103.5 -45q-72 0 -104.5 44.5t-32.5 111.5h55q5 -75 82 -75z" />
    <glyph glyph-name="gbreve" unicode="&#x11f;" horiz-adv-x="535" 
d="M255 509q62 0 114 -27q28 38 60.5 54.5t78.5 16.5v-111q-41 0 -71 -18q30 -41 30 -86q0 -122 -164 -163q-20 -5 -55 -11.5t-40 -7.5q-29 -7 -29 -21t46 -23q18 -3 75 -11.5t76 -12.5q66 -13 95.5 -44t29.5 -84q0 -84 -78.5 -140.5t-190.5 -56.5q-87 0 -140 43.5
t-53 104.5q0 71 75 114q-37 12 -57.5 32.5t-20.5 44.5q0 53 111 103q-98 46 -98 133q0 71 59 121t147 50zM317 -14q-16 3 -64 10t-75 12q-39 -24 -39 -65q0 -33 28 -53t77 -20q53 0 88 20.5t35 48.5q0 35 -50 47zM167 329q0 -53 59 -82q10 -4 16 -4q9 0 21 4q73 24 73 81
q0 33 -23.5 56.5t-62.5 23.5q-36 0 -59.5 -22t-23.5 -57zM258 682q82 0 82 86h55q0 -175 -137 -175t-137 175h55q0 -86 82 -86z" />
    <glyph glyph-name="Gdotaccent" unicode="&#x120;" horiz-adv-x="769" 
d="M713 366v-286q-129 -93 -282 -93q-172 0 -278.5 107.5t-106.5 286.5q0 168 108 286t290 118q136 0 240 -65l-15 -166h-3q-38 45 -95.5 71.5t-124.5 26.5q-114 0 -181.5 -74.5t-67.5 -196.5q0 -120 65.5 -192t174.5 -72q79 0 125 38v211h151zM425 966q33 0 53.5 -20.5
t20.5 -53.5q0 -32 -20 -52.5t-53 -20.5q-34 0 -54 20t-20 53t20 53.5t53 20.5z" />
    <glyph glyph-name="gdotaccent" unicode="&#x121;" horiz-adv-x="535" 
d="M255 509q62 0 114 -27q28 38 60.5 54.5t78.5 16.5v-111q-41 0 -71 -18q30 -41 30 -86q0 -122 -164 -163q-20 -5 -55 -11.5t-40 -7.5q-29 -7 -29 -21t46 -23q18 -3 75 -11.5t76 -12.5q66 -13 95.5 -44t29.5 -84q0 -84 -78.5 -140.5t-190.5 -56.5q-87 0 -140 43.5
t-53 104.5q0 71 75 114q-37 12 -57.5 32.5t-20.5 44.5q0 53 111 103q-98 46 -98 133q0 71 59 121t147 50zM317 -14q-16 3 -64 10t-75 12q-39 -24 -39 -65q0 -33 28 -53t77 -20q53 0 88 20.5t35 48.5q0 35 -50 47zM167 329q0 -53 59 -82q10 -4 16 -4q9 0 21 4q73 24 73 81
q0 33 -23.5 56.5t-62.5 23.5q-36 0 -59.5 -22t-23.5 -57zM257 760q35 0 56.5 -22t21.5 -56t-21.5 -56t-55.5 -22q-36 0 -57.5 21.5t-21.5 56.5q0 34 21.5 56t56.5 22z" />
    <glyph glyph-name="Gcommaaccent" unicode="&#x122;" horiz-adv-x="769" 
d="M713 366v-286q-129 -93 -282 -93q-172 0 -278.5 107.5t-106.5 286.5q0 168 108 286t290 118q136 0 240 -65l-15 -166h-3q-38 45 -95.5 71.5t-124.5 26.5q-114 0 -181.5 -74.5t-67.5 -196.5q0 -120 65.5 -192t174.5 -72q79 0 125 38v211h151zM481 -54q14 -25 14 -59
q0 -31 -19.5 -58t-72.5 -66h-66q54 69 54 117q0 19 -15 45z" />
    <glyph glyph-name="gcommaaccent" unicode="&#x123;" horiz-adv-x="535" 
d="M255 509q62 0 114 -27q28 38 60.5 54.5t78.5 16.5v-111q-41 0 -71 -18q30 -41 30 -86q0 -122 -164 -163q-20 -5 -55 -11.5t-40 -7.5q-29 -7 -29 -21t46 -23q18 -3 75 -11.5t76 -12.5q66 -13 95.5 -44t29.5 -84q0 -84 -78.5 -140.5t-190.5 -56.5q-87 0 -140 43.5
t-53 104.5q0 71 75 114q-37 12 -57.5 32.5t-20.5 44.5q0 53 111 103q-98 46 -98 133q0 71 59 121t147 50zM317 -14q-16 3 -64 10t-75 12q-39 -24 -39 -65q0 -33 28 -53t77 -20q53 0 88 20.5t35 48.5q0 35 -50 47zM167 329q0 -53 59 -82q10 -4 16 -4q9 0 21 4q73 24 73 81
q0 33 -23.5 56.5t-62.5 23.5q-36 0 -59.5 -22t-23.5 -57zM192 586q-15 27 -15 58q0 53 92 125h67q-54 -67 -54 -117q0 -24 15 -45z" />
    <glyph glyph-name="Hcircumflex" unicode="&#x124;" horiz-adv-x="807" 
d="M235 0h-144v772h144v-305h337v305h144v-772h-144v335h-337v-335zM492 815l-89 80l-88 -80h-67l100 149h112l100 -149h-68z" />
    <glyph glyph-name="hcircumflex" unicode="&#x125;" horiz-adv-x="607" 
d="M76 0v753l137 27v-355q42 44 81 63.5t86 19.5q78 0 118.5 -43t40.5 -126v-339h-137v292q0 91 -77 91q-53 0 -84 -39q-28 -31 -28 -82v-262h-137zM379 815l-89 80l-88 -80h-67l100 149h112l100 -149h-68z" />
    <glyph glyph-name="Hbar" unicode="&#x126;" horiz-adv-x="815" 
d="M235 0h-144v590h-63v80h63v102h144v-102h337v102h144v-102h63v-80h-63v-590h-144v335h-337v-335zM235 467h337v123h-337v-123z" />
    <glyph glyph-name="hbar" unicode="&#x127;" horiz-adv-x="607" 
d="M76 0v595h-53v80h53v78l137 27v-105h155v-80h-155v-170q42 44 81 63.5t86 19.5q78 0 118.5 -43t40.5 -126v-339h-137v292q0 91 -77 91q-53 0 -84 -39q-28 -31 -28 -82v-262h-137z" />
    <glyph glyph-name="Itilde" unicode="&#x128;" horiz-adv-x="326" 
d="M235 0h-144v772h144v-772zM94 853q-21 0 -36 -14t-17 -35l-48 10q6 66 34 104t68 38q26 0 73 -17t65 -17q22 0 36 14t17 36l48 -10q-6 -66 -34 -104.5t-68 -38.5q-26 0 -73 17t-65 17z" />
    <glyph glyph-name="itilde" unicode="&#x129;" horiz-adv-x="288" 
d="M90 633q-21 0 -35.5 -14t-17.5 -36l-48 11q7 65 37 103.5t73 38.5q19 0 54 -17t48 -17q21 0 35.5 14t18.5 36l48 -11q-7 -65 -37 -103.5t-73 -38.5q-19 0 -54 17t-49 17zM76 481l137 28v-509h-137v481z" />
    <glyph glyph-name="Imacron" unicode="&#x12a;" horiz-adv-x="326" 
d="M235 0h-144v772h144v-772zM321 931v-88h-316v88h316z" />
    <glyph glyph-name="imacron" unicode="&#x12b;" horiz-adv-x="288" 
d="M76 481l137 28v-509h-137v481zM286 724v-96h-285v96h285z" />
    <glyph glyph-name="Ibreve" unicode="&#x12c;" horiz-adv-x="326" 
d="M235 0h-144v772h144v-772zM162 896q77 0 82 75h55q0 -66 -33.5 -111t-103.5 -45q-72 0 -104.5 44.5t-32.5 111.5h55q5 -75 82 -75z" />
    <glyph glyph-name="ibreve" unicode="&#x12d;" horiz-adv-x="288" 
d="M76 481l137 28v-509h-137v481zM144 682q82 0 82 86h55q0 -175 -137 -175t-137 175h55q0 -86 82 -86z" />
    <glyph glyph-name="Iogonek" unicode="&#x12e;" horiz-adv-x="326" 
d="M235 0q-107 -38 -107 -112q0 -16 10 -26.5t28 -10.5q44 0 73 33h3l-6 -97q-38 -24 -97 -24q-58 0 -91 26t-33 74q0 64 76 137v772h144v-772z" />
    <glyph glyph-name="iogonek" unicode="&#x12f;" horiz-adv-x="288" 
d="M76 481l137 28v-509q-95 -36 -95 -112q0 -16 10 -26.5t27 -10.5q45 0 74 33h3l-7 -97q-37 -24 -97 -24q-57 0 -90.5 26.5t-33.5 73.5q0 65 72 137v481zM144 751q35 0 57 -22t22 -57q0 -34 -21.5 -55.5t-56.5 -21.5t-56.5 21t-21.5 56t21.5 57t55.5 22z" />
    <glyph glyph-name="Idotaccent" unicode="&#x130;" horiz-adv-x="326" 
d="M235 0h-144v772h144v-772zM162 966q33 0 53.5 -20.5t20.5 -53.5q0 -32 -20 -52.5t-53 -20.5q-34 0 -54 20t-20 53t20 53.5t53 20.5z" />
    <glyph glyph-name="dotlessi" unicode="&#x131;" horiz-adv-x="288" 
d="M76 481l137 28v-509h-137v481z" />
    <glyph glyph-name="IJ" unicode="&#x132;" horiz-adv-x="627" 
d="M235 0h-144v772h144v-772zM392 772h145v-633q0 -130 -19 -206.5t-63 -125.5l-192 -44l-4 11q76 59 104.5 131t28.5 224v643z" />
    <glyph glyph-name="ij" unicode="&#x133;" horiz-adv-x="538" 
d="M76 481l137 28v-509h-137v481zM144 751q35 0 57 -22t22 -57q0 -34 -21.5 -55.5t-56.5 -21.5t-56.5 21t-21.5 56t21.5 57t55.5 22zM326 481l137 28v-515q0 -135 -48 -191l-179 -40l-6 15q96 59 96 209v494zM393 751q35 0 57 -22t22 -57q0 -34 -22 -55.5t-56 -21.5
q-36 0 -57.5 21t-21.5 56t21.5 57t56.5 22z" />
    <glyph glyph-name="Jcircumflex" unicode="&#x134;" horiz-adv-x="326" 
d="M91 772h145v-633q0 -130 -19 -206.5t-63 -125.5l-192 -44l-4 11q76 59 104.5 131t28.5 224v643zM252 815l-89 80l-88 -80h-67l100 149h112l100 -149h-68z" />
    <glyph glyph-name="jcircumflex" unicode="&#x135;" horiz-adv-x="286" 
d="M76 481l137 28v-515q0 -135 -48 -191l-179 -40l-6 15q96 59 96 209v494zM228 591l-84 97l-84 -97h-66l106 179h88l106 -179h-66z" />
    <glyph glyph-name="Kcommaaccent" unicode="&#x136;" horiz-adv-x="756" 
d="M235 0h-144v772h144v-354l304 354h191l-343 -376l370 -396h-198l-324 368v-368zM434 -54q14 -25 14 -59q0 -31 -19.5 -58t-72.5 -66h-66q54 69 54 117q0 19 -15 45z" />
    <glyph glyph-name="kcommaaccent" unicode="&#x137;" horiz-adv-x="588" 
d="M213 780v-499l179 213h174l-218 -226l261 -268h-193l-203 248v-248h-137v752zM352 -54q14 -25 14 -59q0 -31 -19.5 -58t-72.5 -66h-66q54 69 54 117q0 19 -15 45z" />
    <glyph glyph-name="kgreenlandic" unicode="&#x138;" horiz-adv-x="588" 
d="M213 494v-213l179 213h174l-218 -226l261 -268h-193l-203 248v-248h-137v494h137z" />
    <glyph glyph-name="Lacute" unicode="&#x139;" horiz-adv-x="608" 
d="M91 0v772h144v-639h357v-133h-501zM339 964l-143 -149h-72l73 149h142z" />
    <glyph glyph-name="lacute" unicode="&#x13a;" horiz-adv-x="288" 
d="M213 780v-780h-137v752zM293 964l-143 -149h-72l73 149h142z" />
    <glyph glyph-name="Lcommaaccent" unicode="&#x13b;" horiz-adv-x="608" 
d="M91 0v772h144v-639h357v-133h-501zM390 -54q14 -25 14 -59q0 -31 -19.5 -58t-72.5 -66h-66q54 69 54 117q0 19 -15 45z" />
    <glyph glyph-name="lcommaaccent" unicode="&#x13c;" horiz-adv-x="288" 
d="M213 780v-780h-137v752zM193 -54q14 -25 14 -59q0 -31 -19.5 -58t-72.5 -66h-66q54 69 54 117q0 19 -15 45z" />
    <glyph glyph-name="Lcaron" unicode="&#x13d;" horiz-adv-x="608" 
d="M91 0v772h144v-639h357v-133h-501zM408 781q13 -27 13 -61q0 -60 -78 -142h-52q31 78 31 127q0 27 -12 54z" />
    <glyph glyph-name="lcaron" unicode="&#x13e;" horiz-adv-x="288" 
d="M213 780v-780h-137v752zM365 781q13 -27 13 -61q0 -60 -78 -142h-52q31 78 31 127q0 27 -12 54z" />
    <glyph glyph-name="Ldot" unicode="&#x13f;" horiz-adv-x="608" 
d="M91 0v772h144v-639h357v-133h-501zM465 555q33 0 53.5 -20.5t20.5 -53.5q0 -32 -20 -52.5t-53 -20.5q-34 0 -54 20t-20 53t20 53.5t53 20.5z" />
    <glyph glyph-name="ldot" unicode="&#x140;" horiz-adv-x="424" 
d="M213 780v-780h-137v752zM352 483q34 0 56 -21.5t22 -56.5q0 -34 -21.5 -56t-55.5 -22q-36 0 -57.5 21.5t-21.5 56.5t22 56.5t56 21.5z" />
    <glyph glyph-name="Lslash" unicode="&#x141;" horiz-adv-x="608" 
d="M91 0v294l-63 -41v111l63 41v367h144v-273l147 96v-110l-147 -96v-256h357v-133h-501z" />
    <glyph glyph-name="lslash" unicode="&#x142;" horiz-adv-x="316" 
d="M227 780v-294l63 42v-110l-63 -42v-376h-137v287l-63 -41v110l63 41v355z" />
    <glyph glyph-name="Nacute" unicode="&#x143;" horiz-adv-x="886" 
d="M655 772h141v-772h-117l-447 539v-539h-141v772h117l447 -537v537zM596 964l-143 -149h-72l73 149h142z" />
    <glyph glyph-name="nacute" unicode="&#x144;" horiz-adv-x="607" 
d="M76 0v494h137v-69q42 44 81 63.5t86 19.5q76 0 117.5 -43t41.5 -126v-339h-137v292q0 91 -77 91q-53 0 -84 -39q-28 -31 -28 -82v-262h-137zM456 770l-153 -179h-60l71 179h142z" />
    <glyph glyph-name="Ncommaaccent" unicode="&#x145;" horiz-adv-x="886" 
d="M655 772h141v-772h-117l-447 539v-539h-141v772h117l447 -537v537zM492 -54q14 -25 14 -59q0 -31 -19.5 -58t-72.5 -66h-66q54 69 54 117q0 19 -15 45z" />
    <glyph glyph-name="ncommaaccent" unicode="&#x146;" horiz-adv-x="607" 
d="M76 0v494h137v-69q42 44 81 63.5t86 19.5q76 0 117.5 -43t41.5 -126v-339h-137v292q0 91 -77 91q-53 0 -84 -39q-28 -31 -28 -82v-262h-137zM356 -54q14 -25 14 -59q0 -31 -19.5 -58t-72.5 -66h-66q54 69 54 117q0 19 -15 45z" />
    <glyph glyph-name="Ncaron" unicode="&#x147;" horiz-adv-x="886" 
d="M655 772h141v-772h-117l-447 539v-539h-141v772h117l447 -537v537zM286 964h67l89 -80l88 80h68l-100 -149h-112z" />
    <glyph glyph-name="ncaron" unicode="&#x148;" horiz-adv-x="607" 
d="M76 0v494h137v-69q42 44 81 63.5t86 19.5q76 0 117.5 -43t41.5 -126v-339h-137v292q0 91 -77 91q-53 0 -84 -39q-28 -31 -28 -82v-262h-137zM152 770h66l84 -98l84 98h66l-106 -179h-88z" />
    <glyph glyph-name="napostrophe" unicode="&#x149;" horiz-adv-x="607" 
d="M76 0v494h137v-69q42 44 81 63.5t86 19.5q76 0 117.5 -43t41.5 -126v-339h-137v292q0 91 -77 91q-53 0 -84 -39q-28 -31 -28 -82v-262h-137zM142 781q13 -27 13 -61q0 -60 -78 -142h-52q31 78 31 127q0 27 -12 54z" />
    <glyph glyph-name="Eng" unicode="&#x14a;" horiz-adv-x="886" 
d="M796 772v-806q0 -95 -51.5 -149t-142.5 -54q-54 0 -100 22l-17 135q31 -30 83 -30q38 0 60.5 26t22.5 74v43l-419 506v-539h-141v772h117l447 -537v537h141z" />
    <glyph glyph-name="eng" unicode="&#x14b;" horiz-adv-x="607" 
d="M76 0v494h137v-69q42 44 81 63.5t86 19.5q76 0 117.5 -43t41.5 -126v-378q0 -93 -48 -145.5t-134 -52.5q-41 0 -67 14l-13 106q22 -16 53 -16q33 0 52.5 25t19.5 70v330q0 91 -77 91q-53 0 -84 -39q-28 -31 -28 -82v-262h-137z" />
    <glyph glyph-name="Omacron" unicode="&#x14c;" horiz-adv-x="854" 
d="M659 386q0 116 -66 192t-166 76q-102 0 -167.5 -76t-65.5 -192t66 -192t167 -76t166.5 76t65.5 192zM808 386q0 -175 -107.5 -288t-273.5 -113q-168 0 -274.5 113t-106.5 288t107 288t274 113t274 -113t107 -288zM585 931v-88h-316v88h316z" />
    <glyph glyph-name="omacron" unicode="&#x14d;" horiz-adv-x="606" 
d="M303 94q57 0 89.5 40.5t32.5 117.5q0 67 -33 108.5t-89 41.5t-89 -40.5t-33 -109.5q0 -72 32 -115t90 -43zM303 -17q-116 0 -189.5 72.5t-73.5 196.5q0 119 74.5 189.5t188.5 70.5q116 0 190 -69.5t74 -190.5q0 -129 -76 -199t-188 -70zM445 724v-96h-285v96h285z" />
    <glyph glyph-name="Obreve" unicode="&#x14e;" horiz-adv-x="854" 
d="M659 386q0 116 -66 192t-166 76q-102 0 -167.5 -76t-65.5 -192t66 -192t167 -76t166.5 76t65.5 192zM808 386q0 -175 -107.5 -288t-273.5 -113q-168 0 -274.5 113t-106.5 288t107 288t274 113t274 -113t107 -288zM427 896q77 0 82 75h55q0 -66 -33.5 -111t-103.5 -45
q-72 0 -104.5 44.5t-32.5 111.5h55q5 -75 82 -75z" />
    <glyph glyph-name="obreve" unicode="&#x14f;" horiz-adv-x="606" 
d="M303 94q57 0 89.5 40.5t32.5 117.5q0 67 -33 108.5t-89 41.5t-89 -40.5t-33 -109.5q0 -72 32 -115t90 -43zM303 -17q-116 0 -189.5 72.5t-73.5 196.5q0 119 74.5 189.5t188.5 70.5q116 0 190 -69.5t74 -190.5q0 -129 -76 -199t-188 -70zM303 682q82 0 82 86h55
q0 -175 -137 -175t-137 175h55q0 -86 82 -86z" />
    <glyph glyph-name="Ohungarumlaut" unicode="&#x150;" horiz-adv-x="854" 
d="M659 386q0 116 -66 192t-166 76q-102 0 -167.5 -76t-65.5 -192t66 -192t167 -76t166.5 76t65.5 192zM808 386q0 -175 -107.5 -288t-273.5 -113q-168 0 -274.5 113t-106.5 288t107 288t274 113t274 -113t107 -288zM374 964h134l-141 -149h-65zM530 964h133l-140 -149h-65z
" />
    <glyph glyph-name="ohungarumlaut" unicode="&#x151;" horiz-adv-x="606" 
d="M303 94q57 0 89.5 40.5t32.5 117.5q0 67 -33 108.5t-89 41.5t-89 -40.5t-33 -109.5q0 -72 32 -115t90 -43zM303 -17q-116 0 -189.5 72.5t-73.5 196.5q0 119 74.5 189.5t188.5 70.5q116 0 190 -69.5t74 -190.5q0 -129 -76 -199t-188 -70zM235 770h131l-121 -179h-58z
M390 770h132l-121 -179h-58z" />
    <glyph glyph-name="OE" unicode="&#x152;" horiz-adv-x="1000" 
d="M649 644v-184h252v-119h-252v-214h298v-127h-515q-166 0 -276 109t-110 277t110.5 277t275.5 109h515v-128h-298zM194 386q0 -112 69.5 -185.5t170.5 -73.5h70v518h-70q-102 0 -171 -72.5t-69 -186.5z" />
    <glyph glyph-name="oe" unicode="&#x153;" horiz-adv-x="866" 
d="M281 512q124 0 185 -103q77 104 196 104q75 0 118 -38t43 -96t-38 -96.5t-119 -61.5q-66 -20 -155 -33q22 -90 127 -90q100 0 168 78h3l-11 -138q-66 -55 -170 -55q-116 0 -177 83q-62 -83 -170 -83q-106 0 -173.5 72t-67.5 196q0 118 68.5 189.5t172.5 71.5zM289 94
q50 0 78.5 42t28.5 118q0 62 -29.5 105t-77.5 43q-46 0 -77 -42t-31 -109q0 -70 28.5 -113.5t79.5 -43.5zM627 414q-44 0 -79.5 -47t-40.5 -115q56 9 107 28q73 27 73 78q0 26 -16 41t-44 15z" />
    <glyph glyph-name="Racute" unicode="&#x154;" horiz-adv-x="691" 
d="M90 0v772h224q135 0 210.5 -60t75.5 -169q0 -76 -45 -131.5t-125 -83.5l262 -328h-183l-228 301h-47v-301h-144zM234 648v-251h14q101 0 152 34t51 97q0 59 -40 89.5t-114 30.5h-63zM466 964l-143 -149h-72l73 149h142z" />
    <glyph glyph-name="racute" unicode="&#x155;" horiz-adv-x="401" 
d="M390 501v-143q-20 4 -51 4q-66 0 -99 -24q-27 -20 -27 -61v-277h-137v494h137v-77q59 87 144 87q19 0 33 -3zM377 770l-153 -179h-60l71 179h142z" />
    <glyph glyph-name="Rcommaaccent" unicode="&#x156;" horiz-adv-x="691" 
d="M90 0v772h224q135 0 210.5 -60t75.5 -169q0 -76 -45 -131.5t-125 -83.5l262 -328h-183l-228 301h-47v-301h-144zM234 648v-251h14q101 0 152 34t51 97q0 59 -40 89.5t-114 30.5h-63zM403 -54q14 -25 14 -59q0 -31 -19.5 -58t-72.5 -66h-66q54 69 54 117q0 19 -15 45z" />
    <glyph glyph-name="rcommaaccent" unicode="&#x157;" horiz-adv-x="401" 
d="M390 501v-143q-20 4 -51 4q-66 0 -99 -24q-27 -20 -27 -61v-277h-137v494h137v-77q59 87 144 87q19 0 33 -3zM193 -54q14 -25 14 -59q0 -31 -19.5 -58t-72.5 -66h-66q54 69 54 117q0 19 -15 45z" />
    <glyph glyph-name="Rcaron" unicode="&#x158;" horiz-adv-x="691" 
d="M90 0v772h224q135 0 210.5 -60t75.5 -169q0 -76 -45 -131.5t-125 -83.5l262 -328h-183l-228 301h-47v-301h-144zM234 648v-251h14q101 0 152 34t51 97q0 59 -40 89.5t-114 30.5h-63zM156 964h67l89 -80l88 80h68l-100 -149h-112z" />
    <glyph glyph-name="rcaron" unicode="&#x159;" horiz-adv-x="401" 
d="M390 501v-143q-20 4 -51 4q-66 0 -99 -24q-27 -20 -27 -61v-277h-137v494h137v-77q59 87 144 87q19 0 33 -3zM73 770h66l84 -98l84 98h66l-106 -179h-88z" />
    <glyph glyph-name="Sacute" unicode="&#x15a;" horiz-adv-x="561" 
d="M61 201q101 -86 201 -86q52 0 81.5 24t29.5 67q0 39 -31 70.5t-116 79.5q-98 54 -133.5 105.5t-35.5 130.5q0 84 64 139.5t164 55.5q93 0 182 -35v-158q-103 66 -172 66q-43 0 -67.5 -21.5t-24.5 -52.5q0 -37 27 -63.5t119 -75.5q96 -52 134.5 -107t38.5 -136
q0 -99 -74.5 -159.5t-194.5 -60.5q-108 0 -180 42l-15 175h3zM437 964l-143 -149h-72l73 149h142z" />
    <glyph glyph-name="sacute" unicode="&#x15b;" horiz-adv-x="453" 
d="M49 31l7 127q33 -33 78.5 -52.5t89.5 -19.5q65 0 65 40q0 28 -34 46q-15 8 -55 24t-60 26q-52 26 -73.5 60.5t-21.5 85.5q0 62 47.5 102.5t125.5 40.5q99 0 170 -38l-28 -122q-26 25 -65 41t-71 16q-54 0 -54 -36q0 -30 33 -45q13 -6 53 -22.5t57 -24.5q55 -26 78 -62
t23 -86q0 -68 -50 -108.5t-138 -40.5q-107 0 -177 48zM385 770l-153 -179h-60l71 179h142z" />
    <glyph glyph-name="Scircumflex" unicode="&#x15c;" horiz-adv-x="561" 
d="M61 201q101 -86 201 -86q52 0 81.5 24t29.5 67q0 39 -31 70.5t-116 79.5q-98 54 -133.5 105.5t-35.5 130.5q0 84 64 139.5t164 55.5q93 0 182 -35v-158q-103 66 -172 66q-43 0 -67.5 -21.5t-24.5 -52.5q0 -37 27 -63.5t119 -75.5q96 -52 134.5 -107t38.5 -136
q0 -99 -74.5 -159.5t-194.5 -60.5q-108 0 -180 42l-15 175h3zM372 815l-89 80l-88 -80h-67l100 149h112l100 -149h-68z" />
    <glyph glyph-name="scircumflex" unicode="&#x15d;" horiz-adv-x="453" 
d="M49 31l7 127q33 -33 78.5 -52.5t89.5 -19.5q65 0 65 40q0 28 -34 46q-15 8 -55 24t-60 26q-52 26 -73.5 60.5t-21.5 85.5q0 62 47.5 102.5t125.5 40.5q99 0 170 -38l-28 -122q-26 25 -65 41t-71 16q-54 0 -54 -36q0 -30 33 -45q13 -6 53 -22.5t57 -24.5q55 -26 78 -62
t23 -86q0 -68 -50 -108.5t-138 -40.5q-107 0 -177 48zM316 591l-84 97l-84 -97h-66l106 179h88l106 -179h-66z" />
    <glyph glyph-name="Scedilla" unicode="&#x15e;" horiz-adv-x="561" 
d="M61 201q101 -86 201 -86q52 0 81.5 24t29.5 67q0 39 -31 70.5t-116 79.5q-98 54 -133.5 105.5t-35.5 130.5q0 84 64 139.5t164 55.5q93 0 182 -35v-158q-103 66 -172 66q-43 0 -67.5 -21.5t-24.5 -52.5q0 -37 27 -63.5t119 -75.5q96 -52 134.5 -107t38.5 -136
q0 -91 -63 -149.5t-168 -68.5l-20 -40q6 3 18 3q43 0 68.5 -22t25.5 -58q0 -41 -35 -68t-90 -27q-56 0 -86 25l6 60q24 -25 72 -25q22 0 33.5 9t11.5 22q0 33 -51 33q-27 0 -44 -5l-2 3l41 88q-100 3 -166 42l-15 175h3z" />
    <glyph glyph-name="scedilla" unicode="&#x15f;" horiz-adv-x="453" 
d="M49 31l7 127q33 -33 78.5 -52.5t89.5 -19.5q65 0 65 40q0 28 -34 46q-15 8 -55 24t-60 26q-52 26 -73.5 60.5t-21.5 85.5q0 62 47.5 102.5t125.5 40.5q99 0 170 -38l-28 -122q-26 25 -65 41t-71 16q-54 0 -54 -36q0 -30 33 -45q13 -6 53 -22.5t57 -24.5q55 -26 78 -62
t23 -86q0 -64 -45 -104t-125 -44l-19 -38q6 3 18 3q43 0 68.5 -22t25.5 -58q0 -41 -35 -68t-90 -27q-56 0 -86 25l6 60q24 -25 72 -25q22 0 33.5 9t11.5 22q0 33 -51 33q-27 0 -44 -5l-2 3l41 89q-87 7 -144 46z" />
    <glyph glyph-name="Scaron" unicode="&#x160;" horiz-adv-x="561" 
d="M61 201q101 -86 201 -86q52 0 81.5 24t29.5 67q0 39 -31 70.5t-116 79.5q-98 54 -133.5 105.5t-35.5 130.5q0 84 64 139.5t164 55.5q93 0 182 -35v-158q-103 66 -172 66q-43 0 -67.5 -21.5t-24.5 -52.5q0 -37 27 -63.5t119 -75.5q96 -52 134.5 -107t38.5 -136
q0 -99 -74.5 -159.5t-194.5 -60.5q-108 0 -180 42l-15 175h3zM127 964h67l89 -80l88 80h68l-100 -149h-112z" />
    <glyph glyph-name="scaron" unicode="&#x161;" horiz-adv-x="453" 
d="M49 31l7 127q33 -33 78.5 -52.5t89.5 -19.5q65 0 65 40q0 28 -34 46q-15 8 -55 24t-60 26q-52 26 -73.5 60.5t-21.5 85.5q0 62 47.5 102.5t125.5 40.5q99 0 170 -38l-28 -122q-26 25 -65 41t-71 16q-54 0 -54 -36q0 -30 33 -45q13 -6 53 -22.5t57 -24.5q55 -26 78 -62
t23 -86q0 -68 -50 -108.5t-138 -40.5q-107 0 -177 48zM82 770h66l84 -98l84 98h66l-106 -179h-88z" />
    <glyph glyph-name="uni0162" unicode="&#x162;" horiz-adv-x="689" 
d="M417 0h-145v639h-254v133h653v-133h-254v-639zM395 -54q14 -25 14 -59q0 -31 -19.5 -58t-72.5 -66h-66q54 69 54 117q0 19 -15 45z" />
    <glyph glyph-name="uni0163" unicode="&#x163;" horiz-adv-x="391" 
d="M15 494h91v138l136 26v-164h133v-113h-133v-215q0 -68 16 -99t62 -56v-9l-147 -16q-35 17 -51 53t-16 107v235h-91v113zM254 -54q14 -25 14 -59q0 -31 -19.5 -58t-72.5 -66h-66q54 69 54 117q0 19 -15 45z" />
    <glyph glyph-name="Tcaron" unicode="&#x164;" horiz-adv-x="689" 
d="M417 0h-145v639h-254v133h653v-133h-254v-639zM187 964h67l89 -80l88 80h68l-100 -149h-112z" />
    <glyph glyph-name="tcaron" unicode="&#x165;" horiz-adv-x="391" 
d="M15 494h91v138l136 26v-164h133v-113h-133v-215q0 -68 16 -99t62 -56v-9l-147 -16q-35 17 -51 53t-16 107v235h-91v113zM408 781q13 -27 13 -61q0 -60 -78 -142h-52q31 78 31 127q0 27 -12 54z" />
    <glyph glyph-name="Tbar" unicode="&#x166;" horiz-adv-x="689" 
d="M417 0h-145v360h-105v111h105v168h-254v133h653v-133h-254v-168h104v-111h-104v-360z" />
    <glyph glyph-name="tbar" unicode="&#x167;" horiz-adv-x="391" 
d="M15 494h91v138l136 26v-164h133v-113h-133v-108h114v-80h-114v-27q0 -68 16 -99t62 -56v-9l-147 -16q-35 17 -51 53t-16 107v47h-79v80h79v108h-91v113z" />
    <glyph glyph-name="Utilde" unicode="&#x168;" horiz-adv-x="777" 
d="M84 772h145v-471q0 -86 45 -129.5t115 -43.5t114.5 43.5t44.5 129.5v471h145v-479q0 -153 -83.5 -230t-220.5 -77q-138 0 -221.5 74.5t-83.5 225.5v486zM320 853q-21 0 -36 -14t-17 -35l-48 10q6 66 34 104t68 38q26 0 73 -17t65 -17q22 0 36 14t17 36l48 -10
q-6 -66 -34 -104.5t-68 -38.5q-26 0 -73 17t-65 17z" />
    <glyph glyph-name="utilde" unicode="&#x169;" horiz-adv-x="599" 
d="M68 494h137v-297q0 -84 76 -84q60 0 94 58q12 22 12 51v272h137v-482l-137 -27v84q-66 -82 -163 -82q-77 0 -116.5 44.5t-39.5 128.5v334zM236 648q-21 0 -35 -14t-18 -36l-48 11q7 65 37 103.5t73 38.5q23 0 64.5 -17t57.5 -17q21 0 35.5 14t17.5 36l49 -11
q-7 -65 -37 -103.5t-73 -38.5q-23 0 -65 17t-58 17z" />
    <glyph glyph-name="Umacron" unicode="&#x16a;" horiz-adv-x="777" 
d="M84 772h145v-471q0 -86 45 -129.5t115 -43.5t114.5 43.5t44.5 129.5v471h145v-479q0 -153 -83.5 -230t-220.5 -77q-138 0 -221.5 74.5t-83.5 225.5v486zM547 931v-88h-316v88h316z" />
    <glyph glyph-name="umacron" unicode="&#x16b;" horiz-adv-x="599" 
d="M68 494h137v-297q0 -84 76 -84q60 0 94 58q12 22 12 51v272h137v-482l-137 -27v84q-66 -82 -163 -82q-77 0 -116.5 44.5t-39.5 128.5v334zM438 724v-96h-285v96h285z" />
    <glyph glyph-name="Ubreve" unicode="&#x16c;" horiz-adv-x="777" 
d="M84 772h145v-471q0 -86 45 -129.5t115 -43.5t114.5 43.5t44.5 129.5v471h145v-479q0 -153 -83.5 -230t-220.5 -77q-138 0 -221.5 74.5t-83.5 225.5v486zM389 896q77 0 82 75h55q0 -66 -33.5 -111t-103.5 -45q-72 0 -104.5 44.5t-32.5 111.5h55q5 -75 82 -75z" />
    <glyph glyph-name="ubreve" unicode="&#x16d;" horiz-adv-x="599" 
d="M68 494h137v-297q0 -84 76 -84q60 0 94 58q12 22 12 51v272h137v-482l-137 -27v84q-66 -82 -163 -82q-77 0 -116.5 44.5t-39.5 128.5v334zM296 682q82 0 82 86h55q0 -175 -137 -175t-137 175h55q0 -86 82 -86z" />
    <glyph glyph-name="Uring" unicode="&#x16e;" horiz-adv-x="777" 
d="M84 772h145v-471q0 -86 45 -129.5t115 -43.5t114.5 43.5t44.5 129.5v471h145v-479q0 -153 -83.5 -230t-220.5 -77q-138 0 -221.5 74.5t-83.5 225.5v486zM283 906q0 43 31 74t74 31t74.5 -31t31.5 -74t-31.5 -74t-74.5 -31t-74 31t-31 74zM330 906q0 -23 17.5 -40.5
t40.5 -17.5q24 0 41 17.5t17 40.5t-17 40.5t-41 17.5q-23 0 -40.5 -17.5t-17.5 -40.5z" />
    <glyph glyph-name="uring" unicode="&#x16f;" horiz-adv-x="599" 
d="M68 494h137v-297q0 -84 76 -84q60 0 94 58q12 22 12 51v272h137v-482l-137 -27v84q-66 -82 -163 -82q-77 0 -116.5 44.5t-39.5 128.5v334zM187 681q0 44 32 76.5t76 32.5t76.5 -32.5t32.5 -76.5t-32.5 -76t-76.5 -32q-43 0 -75.5 32.5t-32.5 75.5zM240 681q0 -23 16 -39
t39 -16t39 16t16 39t-16 39t-39 16t-39 -16t-16 -39z" />
    <glyph glyph-name="Uhungarumlaut" unicode="&#x170;" horiz-adv-x="777" 
d="M84 772h145v-471q0 -86 45 -129.5t115 -43.5t114.5 43.5t44.5 129.5v471h145v-479q0 -153 -83.5 -230t-220.5 -77q-138 0 -221.5 74.5t-83.5 225.5v486zM336 964h134l-141 -149h-65zM492 964h133l-140 -149h-65z" />
    <glyph glyph-name="uhungarumlaut" unicode="&#x171;" horiz-adv-x="599" 
d="M68 494h137v-297q0 -84 76 -84q60 0 94 58q12 22 12 51v272h137v-482l-137 -27v84q-66 -82 -163 -82q-77 0 -116.5 44.5t-39.5 128.5v334zM227 770h131l-121 -179h-58zM382 770h132l-121 -179h-58z" />
    <glyph glyph-name="Uogonek" unicode="&#x172;" horiz-adv-x="777" 
d="M600 -213q-38 -24 -97 -24q-58 0 -91 26t-33 74q0 66 80 129q-31 -6 -70 -6q-138 0 -221.5 74.5t-83.5 225.5v486h145v-471q0 -86 45 -129.5t115 -43.5t114.5 43.5t44.5 129.5v471h145v-479q0 -148 -84 -232q-75 -74 -96 -106t-21 -67q0 -16 10.5 -26.5t30.5 -10.5
q42 0 71 33h3z" />
    <glyph glyph-name="uogonek" unicode="&#x173;" horiz-adv-x="599" 
d="M387 0v69q-66 -82 -163 -82q-77 0 -116.5 44.5t-39.5 128.5v334h137v-297q0 -84 76 -84q60 0 94 58q12 22 12 51v272h137v-494q-118 -41 -118 -112q0 -16 10.5 -26.5t30.5 -10.5q42 0 71 33h3l-7 -97q-38 -24 -97 -24q-58 0 -91 26t-33 74q0 35 21.5 66.5t72.5 70.5z" />
    <glyph glyph-name="Wcircumflex" unicode="&#x174;" horiz-adv-x="1198" 
d="M759 0l-162 392l-166 -392h-110l-319 772h167l215 -573l149 348l-92 225h167l206 -554l227 554h155l-331 -772h-106zM648 815l-89 80l-88 -80h-67l100 149h112l100 -149h-68z" />
    <glyph glyph-name="wcircumflex" unicode="&#x175;" horiz-adv-x="835" 
d="M356 494h125l87 -349l127 349h140l-207 -494h-135l-80 288l-100 -288h-136l-177 494h140l106 -350zM502 591l-84 97l-84 -97h-66l106 179h88l106 -179h-66z" />
    <glyph glyph-name="Ycircumflex" unicode="&#x176;" horiz-adv-x="724" 
d="M421 0h-145v365l-278 407h177l179 -287l195 287h177l-305 -407v-365zM450 815l-89 80l-88 -80h-67l100 149h112l100 -149h-68z" />
    <glyph glyph-name="ycircumflex" unicode="&#x177;" horiz-adv-x="547" 
d="M55 -234q91 94 151 232l-206 496h148l124 -335l135 335h140l-217 -507q-65 -152 -114 -224h-161v3zM362 591l-84 97l-84 -97h-66l106 179h88l106 -179h-66z" />
    <glyph glyph-name="Ydieresis" unicode="&#x178;" horiz-adv-x="724" 
d="M421 0h-145v365l-278 407h177l179 -287l195 287h177l-305 -407v-365zM248 965q32 0 51.5 -19.5t19.5 -51.5q0 -30 -19.5 -49.5t-50.5 -19.5q-32 0 -51.5 19t-19.5 50t19.5 51t50.5 20zM476 965q31 0 50.5 -19.5t19.5 -51.5q0 -30 -19 -49.5t-50 -19.5q-32 0 -51.5 19
t-19.5 50q0 32 19.5 51.5t50.5 19.5z" />
    <glyph glyph-name="Zacute" unicode="&#x179;" horiz-adv-x="727" 
d="M669 0h-677l460 631h-384l12 141h640l-469 -632h443zM511 964l-143 -149h-72l73 149h142z" />
    <glyph glyph-name="zacute" unicode="&#x17a;" horiz-adv-x="525" 
d="M475 0h-477l290 372h-239l13 122h451l-292 -371h275zM416 770l-153 -179h-60l71 179h142z" />
    <glyph glyph-name="Zdotaccent" unicode="&#x17b;" horiz-adv-x="727" 
d="M669 0h-677l460 631h-384l12 141h640l-469 -632h443zM357 966q33 0 53.5 -20.5t20.5 -53.5q0 -32 -20 -52.5t-53 -20.5q-34 0 -54 20t-20 53t20 53.5t53 20.5z" />
    <glyph glyph-name="zdotaccent" unicode="&#x17c;" horiz-adv-x="525" 
d="M475 0h-477l290 372h-239l13 122h451l-292 -371h275zM262 760q34 0 56 -22t22 -56t-21.5 -56t-55.5 -22q-36 0 -57.5 21.5t-21.5 56.5q0 34 22 56t56 22z" />
    <glyph glyph-name="Zcaron" unicode="&#x17d;" horiz-adv-x="727" 
d="M669 0h-677l460 631h-384l12 141h640l-469 -632h443zM201 964h67l89 -80l88 80h68l-100 -149h-112z" />
    <glyph glyph-name="zcaron" unicode="&#x17e;" horiz-adv-x="525" 
d="M475 0h-477l290 372h-239l13 122h451l-292 -371h275zM112 770h66l84 -98l84 98h66l-106 -179h-88z" />
    <glyph glyph-name="florin" unicode="&#x192;" 
d="M41 24q20 -19 64 -19q42 0 65.5 40.5t38.5 138.5l29 179h-98v116h116l13 79q18 111 70 162.5t137 51.5q62 0 103 -29l-25 -122q-23 28 -58 28q-42 0 -64 -27t-32 -93l-8 -50h135v-116h-153l-32 -201q-23 -148 -76.5 -214t-138.5 -66q-49 0 -76 16z" />
    <glyph glyph-name="uni0218" unicode="&#x218;" horiz-adv-x="561" 
d="M61 201q101 -86 201 -86q52 0 81.5 24t29.5 67q0 39 -31 70.5t-116 79.5q-98 54 -133.5 105.5t-35.5 130.5q0 84 64 139.5t164 55.5q93 0 182 -35v-158q-103 66 -172 66q-43 0 -67.5 -21.5t-24.5 -52.5q0 -37 27 -63.5t119 -75.5q96 -52 134.5 -107t38.5 -136
q0 -99 -74.5 -159.5t-194.5 -60.5q-108 0 -180 42l-15 175h3zM323 -54q14 -25 14 -59q0 -31 -19.5 -58t-72.5 -66h-66q54 69 54 117q0 19 -15 45z" />
    <glyph glyph-name="uni0219" unicode="&#x219;" horiz-adv-x="453" 
d="M49 31l7 127q33 -33 78.5 -52.5t89.5 -19.5q65 0 65 40q0 28 -34 46q-15 8 -55 24t-60 26q-52 26 -73.5 60.5t-21.5 85.5q0 62 47.5 102.5t125.5 40.5q99 0 170 -38l-28 -122q-26 25 -65 41t-71 16q-54 0 -54 -36q0 -30 33 -45q13 -6 53 -22.5t57 -24.5q55 -26 78 -62
t23 -86q0 -68 -50 -108.5t-138 -40.5q-107 0 -177 48zM278 -54q14 -25 14 -59q0 -31 -19.5 -58t-72.5 -66h-66q54 69 54 117q0 19 -15 45z" />
    <glyph glyph-name="uni021A" unicode="&#x21a;" horiz-adv-x="689" 
d="M417 0h-145v639h-254v133h653v-133h-254v-639zM395 -54q14 -25 14 -59q0 -31 -19.5 -58t-72.5 -66h-66q54 69 54 117q0 19 -15 45z" />
    <glyph glyph-name="uni021B" unicode="&#x21b;" horiz-adv-x="391" 
d="M15 494h91v138l136 26v-164h133v-113h-133v-215q0 -68 16 -99t62 -56v-9l-147 -16q-35 17 -51 53t-16 107v235h-91v113zM254 -54q14 -25 14 -59q0 -31 -19.5 -58t-72.5 -66h-66q54 69 54 117q0 19 -15 45z" />
    <glyph glyph-name="dotlessj" unicode="&#x237;" horiz-adv-x="288" 
d="M76 481l137 28v-515q0 -135 -48 -191l-179 -40l-6 15q96 59 96 209v494z" />
    <glyph glyph-name="circumflex" unicode="&#x2c6;" horiz-adv-x="314" 
d="M241 576l-84 97l-84 -97h-66l106 179h88l106 -179h-66z" />
    <glyph glyph-name="caron" unicode="&#x2c7;" horiz-adv-x="314" 
d="M7 755h66l84 -98l84 98h66l-106 -179h-88z" />
    <glyph glyph-name="uni02C9" unicode="&#x2c9;" horiz-adv-x="334" 
d="M295 709v-96h-285v96h285z" />
    <glyph glyph-name="breve" unicode="&#x2d8;" horiz-adv-x="294" 
d="M147 667q82 0 82 86h55q0 -175 -137 -175t-137 175h55q0 -86 82 -86z" />
    <glyph glyph-name="dotaccent" unicode="&#x2d9;" horiz-adv-x="176" 
d="M88 745q34 0 56 -21.5t22 -56.5q0 -34 -21.5 -56t-55.5 -22q-36 0 -57.5 21.5t-21.5 56.5t22 56.5t56 21.5z" />
    <glyph glyph-name="ring" unicode="&#x2da;" horiz-adv-x="237" 
d="M10 666q0 44 32 76.5t76 32.5t76.5 -32.5t32.5 -76.5t-32.5 -76t-76.5 -32t-76 32t-32 76zM63 666q0 -22 16.5 -38.5t38.5 -16.5q23 0 39 16t16 39t-16 39t-39 16t-39 -16t-16 -39z" />
    <glyph glyph-name="ogonek" unicode="&#x2db;" horiz-adv-x="251" 
d="M104 0v21h137v-21q-118 -41 -118 -112q0 -16 10.5 -26.5t30.5 -10.5q42 0 71 33h3l-7 -97q-38 -24 -97 -24q-58 0 -91 26t-33 74q0 35 21.5 66.5t72.5 70.5z" />
    <glyph glyph-name="tilde" unicode="&#x2dc;" horiz-adv-x="354" 
d="M111 633q-21 0 -35 -14t-18 -36l-48 11q7 65 37 103.5t73 38.5q23 0 64.5 -17t57.5 -17q21 0 35.5 14t17.5 36l49 -11q-7 -65 -37 -103.5t-73 -38.5q-23 0 -65 17t-58 17z" />
    <glyph glyph-name="hungarumlaut" unicode="&#x2dd;" horiz-adv-x="350" 
d="M57 755h131l-121 -179h-58zM212 755h132l-121 -179h-58z" />
    <glyph glyph-name="uni0394" unicode="&#x394;" horiz-adv-x="771" 
d="M764 0h-757l337 751l90 8zM390 588l-212 -477h416z" />
    <glyph glyph-name="uni03A9" unicode="&#x3a9;" horiz-adv-x="796" 
d="M34 0l-17 120h197q-48 54 -83 116q-68 116 -68 230q0 142 89 231.5t246 89.5q158 0 246.5 -89.5t88.5 -231.5q0 -113 -67 -230q-38 -64 -84 -116h197l-17 -120h-314v120q58 54 107 148q43 87 43 187q0 90 -51.5 146.5t-148.5 56.5q-100 0 -154 -56.5t-54 -146.5
q0 -100 45 -187q47 -90 113 -148v-120h-314z" />
    <glyph glyph-name="uni03BC" unicode="&#x3bc;" horiz-adv-x="578" 
d="M268 -13q-53 0 -68 47v-244l-134 -27v731h134v-287q0 -86 73 -86q49 0 80 40q26 28 26 71v262h133v-482l-133 -27v76q-39 -74 -111 -74z" />
    <glyph glyph-name="pi" unicode="&#x3c0;" 
d="M27 494h568v-108h-110v-201q0 -47 13 -65t43 -18q28 0 54 18l-9 -108q-36 -19 -87 -19q-71 0 -102.5 33t-31.5 113v247h-127v-208q0 -113 -50 -178h-130q32 39 46 80t14 98v208h-91v108z" />
    <glyph glyph-name="Wgrave" unicode="&#x1e80;" horiz-adv-x="1198" 
d="M759 0l-162 392l-166 -392h-110l-319 772h167l215 -573l149 348l-92 225h167l206 -554l227 554h155l-331 -772h-106zM549 815l-142 149h142l73 -149h-73z" />
    <glyph glyph-name="wgrave" unicode="&#x1e81;" horiz-adv-x="835" 
d="M356 494h125l87 -349l127 349h140l-207 -494h-135l-80 288l-100 -288h-136l-177 494h140l106 -350zM417 591l-153 179h142l71 -179h-60z" />
    <glyph glyph-name="Wacute" unicode="&#x1e82;" horiz-adv-x="1198" 
d="M759 0l-162 392l-166 -392h-110l-319 772h167l215 -573l149 348l-92 225h167l206 -554l227 554h155l-331 -772h-106zM713 964l-143 -149h-72l73 149h142z" />
    <glyph glyph-name="wacute" unicode="&#x1e83;" horiz-adv-x="835" 
d="M356 494h125l87 -349l127 349h140l-207 -494h-135l-80 288l-100 -288h-136l-177 494h140l106 -350zM572 770l-153 -179h-60l71 179h142z" />
    <glyph glyph-name="Wdieresis" unicode="&#x1e84;" horiz-adv-x="1198" 
d="M759 0l-162 392l-166 -392h-110l-319 772h167l215 -573l149 348l-92 225h167l206 -554l227 554h155l-331 -772h-106zM445 965q31 0 51 -19.5t20 -51.5q0 -30 -19.5 -49.5t-50.5 -19.5q-32 0 -51.5 19t-19.5 50t19.5 51t50.5 20zM673 965q31 0 50.5 -19.5t19.5 -51.5
q0 -30 -19 -49.5t-50 -19.5q-32 0 -51.5 19t-19.5 50q0 32 19.5 51.5t50.5 19.5z" />
    <glyph glyph-name="wdieresis" unicode="&#x1e85;" horiz-adv-x="835" 
d="M356 494h125l87 -349l127 349h140l-207 -494h-135l-80 288l-100 -288h-136l-177 494h140l106 -350zM313 743q30 0 49 -18.5t19 -48.5q0 -29 -18.5 -48t-48.5 -19q-31 0 -49.5 18t-18.5 49q0 30 18.5 48.5t48.5 18.5zM522 743q30 0 49 -18.5t19 -48.5q0 -29 -18.5 -48
t-48.5 -19q-31 0 -49.5 18t-18.5 49q0 30 18.5 48.5t48.5 18.5z" />
    <glyph glyph-name="germandblS" unicode="&#x1e9e;" horiz-adv-x="763" 
d="M694 701l-165 -252q93 -17 142 -77t49 -143q0 -116 -72.5 -181t-189.5 -65q-90 0 -140 26l-15 153h3q49 -52 139 -52q65 0 101 32t36 87q0 54 -43.5 88.5t-127.5 34.5q-51 0 -87 -12l-2 2l192 292q-45 21 -100 21q-87 0 -140 -51t-53 -142v-462h-145v465
q0 144 95.5 231.5t250.5 87.5t272 -83z" />
    <glyph glyph-name="Ygrave" unicode="&#x1ef2;" horiz-adv-x="724" 
d="M421 0h-145v365l-278 407h177l179 -287l195 287h177l-305 -407v-365zM351 815l-142 149h142l73 -149h-73z" />
    <glyph glyph-name="ygrave" unicode="&#x1ef3;" horiz-adv-x="547" 
d="M55 -234q91 94 151 232l-206 496h148l124 -335l135 335h140l-217 -507q-65 -152 -114 -224h-161v3zM277 591l-153 179h142l71 -179h-60z" />
    <glyph glyph-name="endash" unicode="&#x2013;" horiz-adv-x="600" 
d="M575 312v-87h-550v87h550z" />
    <glyph glyph-name="emdash" unicode="&#x2014;" horiz-adv-x="1000" 
d="M975 312v-87h-950v87h950z" />
    <glyph glyph-name="quoteleft" unicode="&#x2018;" horiz-adv-x="222" 
d="M85 497q-52 44 -52 122q0 63 40.5 105t106.5 62l13 -24q-58 -27 -58 -91q0 -59 61 -101z" />
    <glyph glyph-name="quoteright" unicode="&#x2019;" horiz-adv-x="222" 
d="M137 786q52 -44 52 -122q0 -63 -40.5 -105t-106.5 -62l-13 24q58 27 58 91q0 60 -62 102z" />
    <glyph glyph-name="quotesinglbase" unicode="&#x201a;" horiz-adv-x="267" 
d="M158 147q52 -44 52 -122q0 -63 -40.5 -105t-106.5 -62l-13 24q58 27 58 91q0 60 -62 102z" />
    <glyph glyph-name="quotedblleft" unicode="&#x201c;" horiz-adv-x="411" 
d="M277 497q-52 44 -52 122q0 63 40.5 105t106.5 62l13 -24q-58 -27 -58 -91q0 -59 61 -101zM85 497q-52 44 -52 122q0 63 40.5 105t106.5 62l13 -24q-58 -27 -58 -91q0 -59 61 -101z" />
    <glyph glyph-name="quotedblright" unicode="&#x201d;" horiz-adv-x="411" 
d="M327 786q52 -44 52 -122q0 -63 -40.5 -105t-106.5 -62l-13 24q58 27 58 91q0 60 -62 102zM134 786q52 -44 52 -122q0 -63 -40.5 -105t-106.5 -62l-13 24q58 27 58 91q0 60 -62 102z" />
    <glyph glyph-name="quotedblbase" unicode="&#x201e;" horiz-adv-x="459" 
d="M350 147q52 -44 52 -122q0 -63 -40.5 -105t-106.5 -62l-13 24q58 27 58 91q0 60 -62 102zM158 147q52 -44 52 -122q0 -63 -40.5 -105t-106.5 -62l-13 24q58 27 58 91q0 60 -62 102z" />
    <glyph glyph-name="dagger" unicode="&#x2020;" horiz-adv-x="482" 
d="M173 735h137l-24 -208l177 18v-124l-177 19l22 -146q-26 -206 -26 -406h-82q0 207 -25 406l21 146l-176 -19v124l176 -18z" />
    <glyph glyph-name="daggerdbl" unicode="&#x2021;" horiz-adv-x="504" 
d="M321 -112h-137l23 201l-176 -19v124l176 -19l-21 137l21 136l-176 -19v124l176 -19l-23 201h137l-24 -201l177 19v-124l-177 19l22 -136l-22 -137l177 19v-124l-177 19z" />
    <glyph glyph-name="bullet" unicode="&#x2022;" horiz-adv-x="323" 
d="M38 400q0 50 36 86.5t88 36.5q50 0 86.5 -36.5t36.5 -86.5q0 -51 -36.5 -87t-86.5 -36q-52 0 -88 35.5t-36 87.5z" />
    <glyph glyph-name="ellipsis" unicode="&#x2026;" horiz-adv-x="808" 
d="M404 140q34 0 56 -22t22 -56t-21.5 -56t-55.5 -22q-36 0 -57.5 21.5t-21.5 56.5q0 34 22 56t56 22zM677 140q35 0 56.5 -22t21.5 -56t-21.5 -56t-55.5 -22q-36 0 -57.5 21.5t-21.5 56.5q0 34 21.5 56t56.5 22zM131 140q35 0 56.5 -22t21.5 -56t-21.5 -56t-55.5 -22
q-36 0 -57.5 21.5t-21.5 56.5q0 34 21.5 56t56.5 22z" />
    <glyph glyph-name="perthousand" unicode="&#x2030;" horiz-adv-x="1165" 
d="M676 752l-459 -752h-90l458 752h91zM194 375q-65 0 -103.5 41.5t-38.5 114.5q0 80 54 143t130 63q65 0 103 -41.5t38 -114.5q0 -80 -54 -143t-129 -63zM233 657q-41 0 -68.5 -39.5t-27.5 -93.5q0 -69 60 -69q41 0 68.5 39.5t27.5 93.5q0 33 -15.5 51t-44.5 18zM562 15
q-65 0 -103.5 41.5t-38.5 114.5q0 80 54 143t130 63q65 0 103 -41.5t38 -114.5q0 -80 -54 -143t-129 -63zM601 297q-41 0 -68.5 -39.5t-27.5 -93.5q0 -69 60 -69q41 0 68.5 39.5t27.5 93.5q0 33 -15.5 51t-44.5 18zM929 15q-65 0 -103 41.5t-38 114.5q0 80 54 143t129 63
q65 0 103.5 -41.5t38.5 -114.5q0 -80 -54 -143t-130 -63zM968 297q-41 0 -68.5 -39.5t-27.5 -93.5q0 -33 15.5 -51t44.5 -18q41 0 68.5 39.5t27.5 93.5q0 69 -60 69z" />
    <glyph glyph-name="guilsinglleft" unicode="&#x2039;" horiz-adv-x="321" 
d="M165 82l-130 165l130 165h112l-99 -165l99 -165h-112z" />
    <glyph glyph-name="guilsinglright" unicode="&#x203a;" horiz-adv-x="321" 
d="M157 412l130 -165l-130 -165h-112l99 165l-99 165h112z" />
    <glyph glyph-name="fraction" unicode="&#x2044;" horiz-adv-x="150" 
d="M380 780l-519 -810h-92l518 810h93z" />
    <glyph glyph-name="zero.superior" unicode="&#x2070;" horiz-adv-x="398" 
d="M199 448q-75 0 -121 54t-46 152t46 152t121 54t121 -54t46 -152t-46 -152t-121 -54zM199 525q34 0 53.5 33.5t19.5 95.5t-19.5 95t-53.5 33t-53.5 -33t-19.5 -95t19.5 -95.5t53.5 -33.5z" />
    <glyph glyph-name="four.superior" unicode="&#x2074;" horiz-adv-x="379" 
d="M212 458v94h-201v50l190 248h96v-229h64v-69h-64v-94h-85zM89 621h123v159z" />
    <glyph glyph-name="five.superior" unicode="&#x2075;" horiz-adv-x="356" 
d="M313 850l-11 -72h-163l-9 -61q7 1 25 1q72 0 113.5 -34.5t41.5 -87.5q0 -71 -57.5 -111.5t-165.5 -40.5q-25 0 -47 3l11 82q23 -5 60 -5q52 0 80.5 18.5t28.5 49.5q0 27 -24.5 44t-71.5 17q-36 0 -74 -10l26 207h237z" />
    <glyph glyph-name="six.superior" unicode="&#x2076;" horiz-adv-x="359" 
d="M286 779q-122 -9 -162 -91q29 15 66 15q62 0 100 -33t38 -89t-40 -94.5t-104 -38.5q-73 0 -113 43t-40 121q0 100 66.5 169.5t203.5 80.5zM178 649q-43 0 -69 -22q-1 -6 -1 -19q0 -84 78 -84q27 0 44.5 17.5t17.5 43.5q0 28 -19.5 46t-50.5 18z" />
    <glyph glyph-name="seven.superior" unicode="&#x2077;" horiz-adv-x="336" 
d="M73 458q47 143 129 313l-190 -4l31 83h276q-106 -240 -141 -392h-105z" />
    <glyph glyph-name="eight.superior" unicode="&#x2078;" horiz-adv-x="382" 
d="M345 567q0 -51 -41.5 -85t-114.5 -34q-72 0 -112 31.5t-40 84.5q0 63 71 95q-59 29 -59 90q0 46 40 78.5t100 32.5q63 0 99 -30.5t36 -76.5q0 -53 -55 -84q76 -31 76 -102zM256 571q0 47 -75 64q-27 -8 -42 -26t-15 -39q0 -22 17.5 -37t47.5 -15q32 0 49.5 15t17.5 38z
M134 749q0 -23 14.5 -36.5t48.5 -24.5q45 18 45 57q0 19 -15 32.5t-38 13.5t-39 -12.5t-16 -29.5z" />
    <glyph glyph-name="nine.superior" unicode="&#x2079;" horiz-adv-x="367" 
d="M121 441l-55 69q103 35 146 87q-6 -1 -17 -1q-73 0 -118.5 35.5t-45.5 95.5q0 57 38.5 95t102.5 38q73 0 114.5 -43.5t41.5 -117.5q0 -181 -207 -258zM213 653q10 0 28 2q5 23 5 43q0 41 -20 65t-54 24q-29 0 -46.5 -18t-17.5 -44q0 -33 29 -52.5t76 -19.5z" />
    <glyph glyph-name="n.superior" unicode="&#x207f;" horiz-adv-x="422" 
d="M53 350v344h95v-48q54 58 116 58q53 0 82 -30t29 -88v-236h-94v204q0 64 -54 64q-39 0 -60 -28q-19 -20 -19 -57v-183h-95z" />
    <glyph glyph-name="zero.inferior" unicode="&#x2080;" horiz-adv-x="398" 
d="M199 -152q-75 0 -121 54t-46 152t46 152t121 54t121 -54t46 -152t-46 -152t-121 -54zM199 -75q34 0 53.5 33.5t19.5 95.5t-19.5 95t-53.5 33t-53.5 -33t-19.5 -95t19.5 -95.5t53.5 -33.5z" />
    <glyph glyph-name="one.inferior" unicode="&#x2081;" horiz-adv-x="280" 
d="M196 -142h-95v315l-89 -3l12 80h172v-392z" />
    <glyph glyph-name="two.inferior" unicode="&#x2082;" horiz-adv-x="362" 
d="M239 3q-40 -39 -85 -67h176l-10 -78h-282v71q61 40 115 91q61 61 61 107q0 22 -16 35.5t-45 13.5q-57 0 -106 -41l10 97q44 28 114 28q68 0 103.5 -32t35.5 -83q0 -74 -71 -142z" />
    <glyph glyph-name="three.inferior" unicode="&#x2083;" horiz-adv-x="355" 
d="M296 165q0 -31 -19 -56.5t-52 -37.5q89 -25 89 -97q0 -58 -44.5 -92t-117.5 -34q-70 0 -109 16l-4 91q44 -26 111 -26q33 0 51.5 13.5t18.5 34.5t-19 34t-53 13q-46 0 -83 -10l17 82q24 -2 47 -2q73 0 73 47q0 17 -16 28.5t-45 11.5q-53 0 -85 -23l18 89q36 13 93 13
q60 0 94.5 -27t34.5 -68z" />
    <glyph glyph-name="four.inferior" unicode="&#x2084;" horiz-adv-x="377" 
d="M210 -142v94h-201v50l190 248h96v-229h64v-69h-64v-94h-85zM87 21h123v159z" />
    <glyph glyph-name="five.inferior" unicode="&#x2085;" horiz-adv-x="356" 
d="M313 250l-11 -72h-163l-9 -61q7 1 25 1q72 0 113.5 -34.5t41.5 -87.5q0 -71 -57.5 -111.5t-165.5 -40.5q-25 0 -47 3l11 82q22 -5 60 -5q52 0 80.5 18.5t28.5 49.5q0 27 -24.5 44t-71.5 17q-36 0 -74 -10l26 207h237z" />
    <glyph glyph-name="six.inferior" unicode="&#x2086;" horiz-adv-x="359" 
d="M286 179q-122 -9 -162 -91q28 15 66 15q62 0 100 -33t38 -89t-40 -94.5t-104 -38.5q-73 0 -113 43t-40 121q0 100 66.5 169.5t203.5 80.5zM178 49q-43 0 -69 -22q-1 -6 -1 -19q0 -84 78 -84q27 0 44.5 17.5t17.5 43.5q0 28 -19.5 46t-50.5 18z" />
    <glyph glyph-name="seven.inferior" unicode="&#x2087;" horiz-adv-x="336" 
d="M73 -142q47 143 129 313l-190 -4l31 83h276q-106 -240 -141 -392h-105z" />
    <glyph glyph-name="eight.inferior" unicode="&#x2088;" horiz-adv-x="382" 
d="M345 -33q0 -51 -41.5 -85t-114.5 -34q-72 0 -112 31.5t-40 84.5q0 63 71 95q-59 29 -59 90q0 46 40 78.5t100 32.5q63 0 99 -30.5t36 -76.5q0 -53 -55 -84q76 -31 76 -102zM256 -29q0 47 -75 64q-27 -8 -42 -26t-15 -39q0 -22 17.5 -37t47.5 -15q32 0 49.5 15t17.5 38z
M134 149q0 -23 14.5 -36.5t48.5 -24.5q45 18 45 57q0 19 -15 32.5t-38 13.5t-39 -12.5t-16 -29.5z" />
    <glyph glyph-name="nine.inferior" unicode="&#x2089;" horiz-adv-x="367" 
d="M121 -159l-55 69q103 35 146 87q-6 -1 -17 -1q-73 0 -118.5 35.5t-45.5 95.5q0 57 38.5 95t102.5 38q73 0 114.5 -43.5t41.5 -117.5q0 -181 -207 -258zM213 53q10 0 28 2q5 23 5 43q0 41 -20 65t-54 24q-29 0 -46.5 -18t-17.5 -44q0 -33 29 -52.5t76 -19.5z" />
    <glyph glyph-name="Euro" unicode="&#x20ac;" 
d="M30 425l19 82h41q32 124 122 191t229 67q85 0 143 -26l-27 -114q-47 27 -120 27q-161 0 -214 -145h305l-19 -82h-304q-2 -32 -2 -51v-29h287l-19 -82h-254q47 -153 227 -153q88 0 148 44l-16 -139q-55 -26 -137 -26q-307 0 -356 274h-63l20 82h34v26q0 18 2 54h-46z" />
    <glyph glyph-name="uni20B9" unicode="&#x20b9;" 
d="M35 470l36 90h276q-24 102 -163 102h-149l36 90h501l-35 -90h-112q43 -41 53 -102h94l-35 -90h-60q-25 -134 -187 -187l223 -283h-182l-248 335v4q123 14 184.5 45.5t77.5 85.5h-310z" />
    <glyph glyph-name="uni20BA" unicode="&#x20ba;" 
d="M44 413v103l65 34v202h139v-137l145 77v-103l-145 -77v-91l145 77v-103l-145 -77v-191q10 -3 24 -3q70 0 122.5 50.5t74.5 145.5l124 -72q-35 -123 -124 -192t-212 -69q-87 0 -148 24v243l-65 -34v103l65 34v90z" />
    <glyph glyph-name="afii61289" unicode="&#x2113;" horiz-adv-x="407" 
d="M358 31q-19 -21 -55 -33.5t-68 -12.5q-83 0 -120 36.5t-37 126.5v39l-36 -34l-20 83l56 56v293q0 97 44 146t118 49q65 0 101 -43.5t36 -119.5q0 -75 -47.5 -153t-162.5 -191v-95q0 -55 18.5 -76t62.5 -21q64 0 115 57h3zM167 585v-202q67 73 94 124.5t27 101.5
q0 39 -14.5 61t-41.5 22q-65 0 -65 -107z" />
    <glyph glyph-name="trademark" unicode="&#x2122;" horiz-adv-x="955" 
d="M239 350h-97v313h-126v89h349v-89h-126v-313zM419 350v402h107l136 -269l138 269h107v-402h-93v247l-126 -247h-50l-125 246v-246h-94z" />
    <glyph glyph-name="Omega" unicode="&#x2126;" horiz-adv-x="796" 
d="M34 0l-17 120h197q-48 54 -83 116q-68 116 -68 230q0 142 89 231.5t246 89.5q158 0 246.5 -89.5t88.5 -231.5q0 -113 -67 -230q-38 -64 -84 -116h197l-17 -120h-314v120q58 54 107 148q43 87 43 187q0 90 -51.5 146.5t-148.5 56.5q-100 0 -154 -56.5t-54 -146.5
q0 -100 45 -187q47 -90 113 -148v-120h-314z" />
    <glyph glyph-name="estimated" unicode="&#x212e;" horiz-adv-x="830" 
d="M415 671q156 0 267 -99.5t111 -247.5h-608q-10 0 -10 -11v-197q47 -51 110 -78.5t130 -27.5q73 0 139 32.5t113 88.5h57q-56 -68 -138 -105t-171 -37q-100 0 -186 42.5t-139.5 121.5t-53.5 177q0 145 110.5 243t268.5 98zM415 650q-70 0 -133 -28.5t-107 -78.5v-185
q0 -11 10 -11h461q9 0 9 11v184q-44 51 -108 79.5t-132 28.5z" />
    <glyph glyph-name="partialdiff" unicode="&#x2202;" horiz-adv-x="569" 
d="M284 478q82 0 137 -57q-5 115 -50.5 178t-125.5 63t-133 -60h-3l-11 115q59 55 164 55q124 0 197 -98t73 -272q0 -194 -80 -306.5t-210 -112.5q-97 0 -155.5 60t-58.5 158q0 127 70.5 202t185.5 75zM257 101q61 0 104 55t56 154q-50 68 -125 68q-64 0 -103 -42.5
t-39 -111.5q0 -56 28 -89.5t79 -33.5z" />
    <glyph glyph-name="Delta" unicode="&#x2206;" horiz-adv-x="771" 
d="M764 0h-757l337 751l90 8zM390 588l-212 -477h416z" />
    <glyph glyph-name="product" unicode="&#x220f;" horiz-adv-x="705" 
d="M196 -220h-120v952h553v-952h-118v841h-315v-841z" />
    <glyph glyph-name="summation" unicode="&#x2211;" horiz-adv-x="538" 
d="M516 -220h-501l293 476l-293 476h501v-104h-309l230 -372l-230 -372h309v-104z" />
    <glyph glyph-name="minus" unicode="&#x2212;" horiz-adv-x="598" 
d="M553 317v-118h-508v118h508z" />
    <glyph glyph-name="uni2215" unicode="&#x2215;" horiz-adv-x="150" 
d="M380 780l-519 -810h-92l518 810h93z" />
    <glyph glyph-name="uni2219" unicode="&#x2219;" horiz-adv-x="262" 
d="M131 338q35 0 56.5 -22t21.5 -56t-21.5 -56t-55.5 -22q-36 0 -57.5 21.5t-21.5 56.5q0 34 21.5 56t56.5 22z" />
    <glyph glyph-name="radical" unicode="&#x221a;" horiz-adv-x="598" 
d="M263 -99l-129 387l-97 -36l-35 99l184 67l119 -359l202 831h87l-240 -989h-91z" />
    <glyph glyph-name="infinity" unicode="&#x221e;" horiz-adv-x="598" 
d="M174 400q78 0 130 -81q22 35 53.5 58t68.5 23q64 0 102 -40t38 -103q0 -65 -38 -102t-98 -37q-78 0 -131 81q-50 -81 -121 -81q-64 0 -102 40t-38 103q0 65 38 102t98 37zM430 324q-58 0 -93 -63q38 -69 89 -69q29 0 48 18t19 47q0 31 -16.5 49t-46.5 18zM174 194
q56 0 93 62q-38 70 -89 70q-29 0 -48 -18t-19 -47q0 -31 16.5 -49t46.5 -18z" />
    <glyph glyph-name="integral" unicode="&#x222b;" horiz-adv-x="472" 
d="M183 28v479q0 126 45 185.5t140 59.5q54 0 90 -21l-17 -115q-30 28 -67 28q-45 0 -65 -31.5t-20 -103.5v-461q0 -140 -46.5 -204t-146.5 -64q-51 0 -81 26l21 107q28 -28 65 -28q44 0 63 32.5t19 110.5z" />
    <glyph glyph-name="approxequal" unicode="&#x2248;" horiz-adv-x="598" 
d="M557 367q-49 -86 -136 -86q-46 0 -122 41t-118 41q-60 0 -93 -49l-46 90q45 70 136 70q46 0 122 -41.5t117 -41.5q56 0 92 57zM557 133q-45 -70 -136 -70q-46 0 -122 41.5t-118 41.5q-55 0 -91 -58l-48 82q49 86 136 86q46 0 122 -41t117 -41q59 0 94 49z" />
    <glyph glyph-name="notequal" unicode="&#x2260;" horiz-adv-x="598" 
d="M553 207v-103h-301l-42 -69h-103l42 69h-104v103h167l63 103h-230v103h293l43 69h104l-43 -69h111v-103h-174l-63 -103h237z" />
    <glyph glyph-name="lessequal" unicode="&#x2264;" horiz-adv-x="598" 
d="M553 415l-404 -90l404 -89v-97l-508 129v114l508 130v-97zM553 110v-95h-508v95h508z" />
    <glyph glyph-name="greaterequal" unicode="&#x2265;" horiz-adv-x="598" 
d="M45 139v97l405 89l-405 90v97l508 -130v-114zM553 110v-95h-508v95h508z" />
    <glyph glyph-name="lozenge" unicode="&#x25ca;" horiz-adv-x="521" 
d="M37 390l187 390h73l187 -390l-187 -390h-73zM135 391l125 -260l125 261l-125 258z" />
    <glyph glyph-name="commaaccent" unicode="&#xf6c3;" horiz-adv-x="174" 
d="M150 -54q14 -25 14 -59q0 -31 -19.5 -58t-72.5 -66h-66q54 69 54 117q0 19 -15 45z" />
    <glyph glyph-name="uniF8FF" unicode="&#xf8ff;" horiz-adv-x="587" 
d="M217 115q28 0 46 -17.5t18 -45.5t-17.5 -46.5t-45.5 -18.5q-30 0 -48 18t-18 47q0 28 18 45.5t47 17.5zM264 184l-100 -20v170q85 4 132 33t47 79q0 39 -28.5 62t-79.5 23q-50 0 -87 -15l17 105q37 10 89 10q91 0 147.5 -46.5t56.5 -129.5q0 -74 -52.5 -125t-141.5 -67
v-79zM0 -128v870h587v-870h-587zM72 671v-728h443v728h-443z" />
    <glyph glyph-name="fi" unicode="&#xfb01;" horiz-adv-x="667" 
d="M238 532v-38h130v-113h-130v-381h-137v381h-85v113h85v64q0 155 106 197l168 25v-59q-79 -17 -108 -60.5t-29 -128.5zM455 481l137 28v-509h-137v481zM523 751q35 0 57 -22t22 -57q0 -34 -21.5 -55.5t-56.5 -21.5t-56.5 21t-21.5 56t21.5 57t55.5 22z" />
    <glyph glyph-name="fl" unicode="&#xfb02;" horiz-adv-x="667" 
d="M238 532v-38h130v-113h-130v-381h-137v381h-85v113h85v64q0 155 106 197l168 25v-59q-79 -17 -108 -60.5t-29 -128.5zM592 780v-780h-137v752z" />
    <glyph glyph-name="NULL" horiz-adv-x="0" 
 />
    <glyph glyph-name="caron.alt" horiz-adv-x="150" 
d="M127 781q13 -27 13 -61q0 -60 -78 -142h-52q31 78 31 127q0 27 -12 54z" />
    <glyph glyph-name="commaaccent.alt" horiz-adv-x="174" 
d="M25 571q-15 27 -15 58q0 53 92 125h67q-54 -67 -54 -117q0 -24 15 -45z" />
    <glyph glyph-name="grave.cap" horiz-adv-x="227" 
d="M147 815l-142 149h142l73 -149h-73z" />
    <glyph glyph-name="acute.cap" horiz-adv-x="227" 
d="M222 964l-143 -149h-72l73 149h142z" />
    <glyph glyph-name="circumflex.cap" horiz-adv-x="328" 
d="M252 815l-89 80l-88 -80h-67l100 149h112l100 -149h-68z" />
    <glyph glyph-name="tilde.cap" horiz-adv-x="361" 
d="M111 853q-21 0 -36 -14t-17 -35l-48 10q6 66 34 104t68 38q26 0 73 -17t65 -17q22 0 36 14t17 36l48 -10q-6 -66 -34 -104.5t-68 -38.5q-26 0 -73 17t-65 17z" />
    <glyph glyph-name="dieresis.cap" horiz-adv-x="388" 
d="M80 965q32 0 51.5 -19.5t19.5 -51.5q0 -30 -19.5 -49.5t-50.5 -19.5q-32 0 -51.5 19t-19.5 50t19.5 51t50.5 20zM308 965q31 0 50.5 -19.5t19.5 -51.5q0 -30 -19 -49.5t-50 -19.5q-32 0 -51.5 19t-19.5 50q0 32 19.5 51.5t50.5 19.5z" />
    <glyph glyph-name="macron.cap" horiz-adv-x="336" 
d="M326 931v-88h-316v88h316z" />
    <glyph glyph-name="breve.cap" horiz-adv-x="294" 
d="M147 896q77 0 82 75h55q0 -66 -33.5 -111t-103.5 -45q-72 0 -104.5 44.5t-32.5 111.5h55q5 -75 82 -75z" />
    <glyph glyph-name="ring.cap" horiz-adv-x="231" 
d="M10 906q0 43 31 74t74 31t74.5 -31t31.5 -74t-31.5 -74t-74.5 -31t-74 31t-31 74zM57 906q0 -23 17.5 -40.5t40.5 -17.5q24 0 41 17.5t17 40.5t-17 40.5t-41 17.5q-23 0 -40.5 -17.5t-17.5 -40.5z" />
    <glyph glyph-name="hungarumlaut.cap" horiz-adv-x="373" 
d="M79 964h134l-141 -149h-65zM235 964h133l-140 -149h-65z" />
    <glyph glyph-name="dotaccent.cap" horiz-adv-x="167" 
d="M83 966q33 0 53.5 -20.5t20.5 -53.5q0 -32 -20 -52.5t-53 -20.5q-34 0 -54 20t-20 53t20 53.5t53 20.5z" />
    <glyph glyph-name="caron.cap" horiz-adv-x="328" 
d="M8 964h67l89 -80l88 80h68l-100 -149h-112z" />
    <glyph glyph-name="questiondown.cap" horiz-adv-x="483" 
d="M364 627q-34 0 -56 21.5t-22 56.5t21.5 56.5t55.5 21.5q36 0 57.5 -21.5t21.5 -56.5t-22 -56.5t-56 -21.5zM307 536l120 25v-204q-106 -5 -165.5 -42.5t-59.5 -100.5q0 -50 37 -80t102 -30q58 0 105 18l-20 -125q-46 -13 -109 -13q-113 0 -183 57.5t-70 161.5
q0 92 66 155.5t177 83.5v94z" />
    <glyph glyph-name="exclamdown.cap" horiz-adv-x="315" 
d="M162 626q-34 0 -56 22t-22 56q0 35 21.5 56.5t55.5 21.5q36 0 57.5 -21.5t21.5 -56.5q0 -34 -22 -56t-56 -22zM241 6l-170 -22q14 311 78 569l29 -5q26 -111 43.5 -261.5t19.5 -280.5z" />
    <glyph glyph-name="periodcenterd.cap" horiz-adv-x="262" 
d="M131 464q35 0 56.5 -22t21.5 -56t-21.5 -56t-55.5 -22q-36 0 -57.5 21.5t-21.5 56.5q0 34 21.5 56t56.5 22z" />
    <glyph glyph-name="hyphen.cap" horiz-adv-x="324" 
d="M289 445v-118h-254v118h254z" />
    <glyph glyph-name="endash.cap" horiz-adv-x="600" 
d="M575 429v-87h-550v87h550z" />
    <glyph glyph-name="emdash.cap" horiz-adv-x="1000" 
d="M975 429v-87h-950v87h950z" />
    <glyph glyph-name="uni00AD.cap" horiz-adv-x="324" 
d="M289 445v-118h-254v118h254z" />
    <glyph glyph-name="parenleft.cap" horiz-adv-x="364" 
d="M65 386q0 137 38.5 237.5t119.5 185.5h92q-74 -100 -106 -197.5t-32 -225.5t32 -225.5t106 -197.5h-92q-81 85 -119.5 185.5t-38.5 237.5z" />
    <glyph glyph-name="parenright.cap" horiz-adv-x="364" 
d="M299 386q0 -137 -38.5 -237.5t-119.5 -185.5h-93q75 99 107 197t32 226t-32 226t-107 197h93q81 -85 119.5 -185.5t38.5 -237.5z" />
    <glyph glyph-name="bracketleft.cap" horiz-adv-x="364" 
d="M75 -37v846h251v-70h-142v-707h142v-69h-251z" />
    <glyph glyph-name="bracketright.cap" horiz-adv-x="364" 
d="M289 809v-846h-251v69h142v707h-142v70h251z" />
    <glyph glyph-name="braceleft.cap" horiz-adv-x="364" 
d="M22 353v66q100 8 100 115v120q0 82 48 118.5t150 36.5v-66q-48 0 -69.5 -23.5t-21.5 -78.5v-125q0 -108 -106 -130q106 -22 106 -130v-125q0 -57 21.5 -79.5t69.5 -22.5v-66q-102 0 -150 36.5t-48 118.5v120q0 107 -100 115z" />
    <glyph glyph-name="braceright.cap" horiz-adv-x="364" 
d="M342 419v-66q-100 -8 -100 -115v-120q0 -82 -48 -118.5t-151 -36.5v66q49 0 70.5 23.5t21.5 78.5v125q0 108 106 130q-106 22 -106 130v125q0 57 -21.5 79.5t-70.5 22.5v66q103 0 151 -36.5t48 -118.5v-120q0 -107 100 -115z" />
    <glyph glyph-name="guilsinglleft.cap" horiz-adv-x="321" 
d="M165 221l-130 165l130 165h112l-99 -165l99 -165h-112z" />
    <glyph glyph-name="guilsinglright.cap" horiz-adv-x="321" 
d="M157 551l130 -165l-130 -165h-112l99 165l-99 165h112z" />
    <glyph glyph-name="guillemotleft.cap" horiz-adv-x="500" 
d="M165 221l-130 165l130 165h96l-99 -165l99 -165h-96zM358 221l-130 165l130 165h97l-99 -165l99 -165h-97z" />
    <glyph glyph-name="guillemotright.cap" horiz-adv-x="500" 
d="M141 551l130 -165l-130 -165h-96l99 165l-99 165h96zM335 551l130 -165l-130 -165h-97l99 165l-99 165h97z" />
    <glyph glyph-name="A.superior" horiz-adv-x="432" 
d="M4 350l181 400l70 10l172 -410h-109l-31 80h-144l-29 -80h-110zM215 631l-50 -129h99z" />
    <glyph glyph-name="B.superior" horiz-adv-x="361" 
d="M317 657q0 -61 -54 -87q73 -26 73 -101q0 -53 -43.5 -86t-115.5 -33h-129v402h136q64 0 98.5 -26.5t34.5 -68.5zM142 524v-98h36q62 0 62 52q0 20 -15.5 33t-43.5 13h-39zM142 676v-88h32q52 0 52 47q0 18 -13 29.5t-36 11.5h-35z" />
    <glyph glyph-name="C.superior" horiz-adv-x="397" 
d="M361 723l-8 -110h-3q-40 53 -112 53q-51 0 -81.5 -32t-30.5 -83q0 -50 31 -82t83 -32q71 0 122 65h3l-9 -120q-51 -39 -126 -39q-91 0 -148 57.5t-57 152.5q0 84 57.5 145t147.5 61q78 0 131 -36z" />
    <glyph glyph-name="D.superior" horiz-adv-x="419" 
d="M172 350h-124v402h125q104 0 162.5 -53.5t58.5 -142.5q0 -99 -57 -152.5t-165 -53.5zM145 663v-224h32q58 0 88 30t30 87q0 46 -30.5 76.5t-86.5 30.5h-33z" />
    <glyph glyph-name="E.superior" horiz-adv-x="325" 
d="M145 668v-71h121v-79h-121v-84h145v-84h-242v402h240v-84h-143z" />
    <glyph glyph-name="F.superior" horiz-adv-x="311" 
d="M290 752v-84h-145v-83h132v-83h-132v-152h-97v402h242z" />
    <glyph glyph-name="G.superior" horiz-adv-x="407" 
d="M377 545v-158q-67 -44 -149 -44q-91 0 -147 55t-56 149q0 86 57 149t156 63q68 0 124 -32l-10 -106h-3q-42 49 -110 49q-52 0 -82.5 -33t-30.5 -89q0 -54 28.5 -86.5t78.5 -32.5q29 0 47 13v103h97z" />
    <glyph glyph-name="H.superior" horiz-adv-x="439" 
d="M145 350h-97v402h97v-149h149v149h97v-402h-97v164h-149v-164z" />
    <glyph glyph-name="I.superior" horiz-adv-x="193" 
d="M145 350h-97v402h97v-402z" />
    <glyph glyph-name="J.superior" horiz-adv-x="193" 
d="M47 752h98v-327q0 -126 -43 -173l-122 -25l-2 5q40 33 54.5 70t14.5 117v333z" />
    <glyph glyph-name="K.superior" horiz-adv-x="424" 
d="M145 350h-97v402h97v-177l139 177h127l-167 -195l179 -207h-130l-148 185v-185z" />
    <glyph glyph-name="L.superior" horiz-adv-x="329" 
d="M48 350v402h97v-313h171v-89h-268z" />
    <glyph glyph-name="M.superior" horiz-adv-x="584" 
d="M48 350v402h107l136 -269l138 269h107v-402h-93v247l-126 -247h-50l-125 246v-246h-94z" />
    <glyph glyph-name="N.superior" horiz-adv-x="476" 
d="M334 752h94v-402h-76l-210 246v-246h-94v402h75l211 -244v244z" />
    <glyph glyph-name="O.superior" horiz-adv-x="456" 
d="M331 551q0 52 -29 86t-74 34t-74 -34t-29 -86t29 -86t74 -34t74 34t29 86zM431 551q0 -91 -57.5 -150t-145.5 -59q-89 0 -146 59t-57 150t57.5 150t145.5 59q89 0 146 -59t57 -150z" />
    <glyph glyph-name="P.superior" horiz-adv-x="351" 
d="M145 350h-97v402h126q73 0 115 -34.5t42 -95.5q0 -144 -168 -144h-18v-128zM145 670v-110h23q69 0 69 56q0 54 -66 54h-26z" />
    <glyph glyph-name="Q.superior" horiz-adv-x="460" 
d="M230 351q-22 0 -45 6v-2q59 -20 101 -28q59 -9 100 -9l-29 -94q-49 3 -96 19q-31 11 -80.5 32.5t-57.5 24.5q-32 12 -53 16l38 77q-83 64 -83 157q0 92 57.5 151t147.5 59t147.5 -59t57.5 -150q0 -87 -58 -143.5t-147 -56.5zM331 551q0 51 -28.5 84.5t-72.5 33.5
t-72.5 -33.5t-28.5 -85.5t28 -86t73 -34q44 0 72.5 35t28.5 86z" />
    <glyph glyph-name="R.superior" horiz-adv-x="381" 
d="M49 350v402h127q74 0 115.5 -33t41.5 -93q0 -77 -77 -111l124 -165h-115l-102 146h-18v-146h-96zM145 670v-112h5q84 0 84 57q0 55 -70 55h-19z" />
    <glyph glyph-name="S.superior" horiz-adv-x="301" 
d="M36 476q58 -47 106 -47q40 0 40 32q0 16 -13.5 29t-56.5 39q-49 30 -65.5 57t-16.5 68q0 47 34.5 76.5t89.5 29.5q53 0 100 -18v-103q-62 37 -94 37q-33 0 -33 -27q0 -13 12.5 -24.5t58.5 -37.5q48 -27 66 -55t18 -72q0 -53 -40 -85.5t-104 -32.5q-57 0 -96 20l-9 114h3z
" />
    <glyph glyph-name="T.superior" horiz-adv-x="381" 
d="M239 350h-97v313h-126v89h349v-89h-126v-313z" />
    <glyph glyph-name="U.superior" horiz-adv-x="421" 
d="M44 752h97v-241q0 -36 19 -54.5t51 -18.5q31 0 50 18.5t19 54.5v241h97v-246q0 -82 -45.5 -122.5t-120.5 -40.5t-121 40.5t-46 122.5v246z" />
    <glyph glyph-name="V.superior" horiz-adv-x="435" 
d="M4 752h114l96 -267l103 267h114l-178 -402h-81z" />
    <glyph glyph-name="W.superior" horiz-adv-x="654" 
d="M402 350l-77 179l-79 -179h-70l-172 402h113l101 -269l65 145l-53 124h112l97 -255l107 255h104l-177 -402h-71z" />
    <glyph glyph-name="X.superior" horiz-adv-x="432" 
d="M9 350l146 207l-146 195h127l80 -121l74 121h122l-140 -188l157 -214h-127l-92 142l-90 -142h-111z" />
    <glyph glyph-name="Y.superior" horiz-adv-x="397" 
d="M239 350h-97v178l-140 224h119l74 -136l82 136h117l-155 -223v-179z" />
    <glyph glyph-name="Z.superior" horiz-adv-x="392" 
d="M358 350h-361l216 308h-176l8 94h346l-222 -309h205z" />
    <glyph glyph-name="b.superior" horiz-adv-x="431" 
d="M203 338q-54 0 -89 23l-61 -20v504l95 19v-185q36 27 88 27q72 0 120 -47t48 -126q0 -89 -54.5 -142t-146.5 -53zM210 632q-38 0 -62 -24v-188q19 -11 48 -11q52 0 81 30t29 85q0 49 -26.5 78.5t-69.5 29.5z" />
    <glyph glyph-name="c.superior" horiz-adv-x="350" 
d="M327 468l-13 -101q-44 -29 -109 -29q-81 0 -129 48.5t-48 130.5q0 84 51.5 136.5t142.5 52.5q60 0 98 -24l-11 -91q-34 32 -84 32q-46 0 -73.5 -28.5t-27.5 -77.5q0 -42 25.5 -68.5t69.5 -26.5q63 0 105 46h3z" />
    <glyph glyph-name="d.superior" horiz-adv-x="432" 
d="M292 339l2 36q-40 -37 -105 -37q-74 0 -117.5 50.5t-43.5 125.5q0 82 52.5 137t131.5 55q40 0 73 -16v155l94 19v-505zM218 414q42 0 67 22v181q-22 13 -58 13q-46 0 -74 -30.5t-28 -83.5q0 -48 24.5 -75t68.5 -27z" />
    <glyph glyph-name="e.superior" horiz-adv-x="363" 
d="M220 504q-61 -16 -108 -23q17 -64 91 -64q69 0 116 53h3l-8 -94q-46 -38 -118 -38q-81 0 -125.5 47.5t-44.5 117.5q0 80 55.5 142t137.5 62q53 0 83 -26t30 -67q0 -80 -112 -110zM196 639q-32 0 -57.5 -33.5t-29.5 -81.5q39 7 76 21q53 19 53 54q0 19 -11 29.5t-31 10.5z
" />
    <glyph glyph-name="f.superior" horiz-adv-x="263" 
d="M165 700v-6h90v-77h-90v-267h-94v267h-60v77h60v15q0 108 74 137l115 18v-41q-55 -12 -75 -40t-20 -83z" />
    <glyph glyph-name="g.superior" horiz-adv-x="372" 
d="M177 705q45 0 80 -19q37 49 96 49v-76q-28 0 -49 -14q21 -29 21 -59q0 -85 -114 -114q-11 -3 -34.5 -7t-32.5 -7q-20 -4 -20 -14t33 -16q8 -1 49 -8t56 -10q87 -16 87 -88q0 -58 -54.5 -97.5t-133.5 -39.5q-61 0 -97.5 30.5t-36.5 72.5q0 50 53 79q-55 19 -55 54
q0 39 78 71q-68 32 -68 93q0 50 41 85t101 35zM221 340q-12 2 -45 7t-52 9q-28 -18 -28 -46q0 -23 19.5 -37.5t54.5 -14.5q38 0 62.5 15t24.5 35q0 25 -36 32zM116 579q0 -38 41 -57q8 -2 12 -2q5 0 15 2q51 15 51 57q0 23 -17 39.5t-44 16.5q-25 0 -41.5 -15.5t-16.5 -40.5
z" />
    <glyph glyph-name="h.superior" horiz-adv-x="422" 
d="M53 350v495l95 19v-218q54 58 116 58q53 0 82 -30t29 -88v-236h-94v204q0 64 -54 64q-39 0 -60 -28q-19 -20 -19 -57v-183h-95z" />
    <glyph glyph-name="i.superior" horiz-adv-x="200" 
d="M53 685l94 19v-354h-94v335zM100 873q24 0 39 -15t15 -39q0 -23 -14.5 -38t-38.5 -15q-25 0 -39.5 14.5t-14.5 38.5q0 23 15 38.5t38 15.5z" />
    <glyph glyph-name="j.superior" horiz-adv-x="200" 
d="M52 685l95 19v-358q0 -96 -34 -133l-123 -28l-4 11q66 40 66 145v344zM99 873q24 0 39 -15.5t15 -38.5t-15 -38t-38 -15q-25 0 -39.5 14.5t-14.5 38.5q0 23 15 38.5t38 15.5z" />
    <glyph glyph-name="k.superior" horiz-adv-x="408" 
d="M148 864v-316l125 146h119l-146 -158l177 -186h-131l-144 172v-172h-95v495z" />
    <glyph glyph-name="l.superior" horiz-adv-x="201" 
d="M148 864v-514h-95v495z" />
    <glyph glyph-name="m.superior" horiz-adv-x="621" 
d="M480 350v208q0 60 -51 60q-36 0 -56 -31q-12 -16 -12 -46v-191h-94v208q0 28 -13.5 44t-37.5 16q-36 0 -57 -32q-11 -16 -11 -45v-191h-95v344h95v-43q33 53 100 53q72 0 101 -61q42 61 112 61q54 0 83 -32t29 -83v-239h-93z" />
    <glyph glyph-name="p.superior" horiz-adv-x="427" 
d="M53 694h102q32 9 65 9q78 0 128.5 -48t50.5 -129q0 -86 -50.5 -137t-135.5 -51q-38 0 -65 13v-147l-95 -19v509zM199 632q-34 0 -51 -13v-197q19 -13 50 -13q48 0 76 30t28 84q0 50 -28 79.5t-75 29.5z" />
    <glyph glyph-name="q.superior" horiz-adv-x="431" 
d="M377 694v-490l-93 -19v179q-39 -25 -89 -25q-76 0 -121.5 49t-45.5 131q0 85 51.5 136t137.5 51q39 0 72 -12h88zM222 417q41 0 62 18v188q-22 12 -56 12q-49 0 -76 -30.5t-27 -83.5q0 -49 25 -76.5t72 -27.5z" />
    <glyph glyph-name="r.superior" horiz-adv-x="279" 
d="M271 699v-98q-14 2 -26 2q-31 0 -55 -6q-42 -11 -42 -54v-193h-95v344h95v-53q39 60 96 60q19 0 27 -2z" />
    <glyph glyph-name="s.superior" horiz-adv-x="315" 
d="M34 372l6 85q47 -50 116 -50q46 0 46 31q0 20 -24 33q-10 5 -38 16.5t-42 18.5q-66 33 -66 101q0 43 33 71t87 28q68 0 118 -26l-18 -82q-41 39 -97 39q-38 0 -38 -28q0 -21 24 -32q6 -3 35 -15t42 -18q70 -34 70 -102q0 -47 -35 -75.5t-96 -28.5q-74 0 -123 34z" />
    <glyph glyph-name="t.superior" horiz-adv-x="271" 
d="M11 694h63v96l95 19v-115h92v-77h-92v-151q0 -48 11 -69t43 -39v-7l-101 -11q-25 12 -36.5 37t-11.5 75v165h-63v77z" />
    <glyph glyph-name="u.superior" horiz-adv-x="417" 
d="M47 694h95v-207q0 -60 53 -60q40 0 66 41q9 16 9 36v190h94v-335l-94 -20v60q-47 -58 -114 -58q-109 0 -109 120v233z" />
    <glyph glyph-name="v.superior" horiz-adv-x="375" 
d="M0 694h101l79 -245l93 245h102l-149 -344h-97z" />
    <glyph glyph-name="w.superior" horiz-adv-x="580" 
d="M248 694h85l61 -246l90 246h96l-144 -344h-93l-56 220l-70 -220h-94l-123 344h96l74 -246z" />
    <glyph glyph-name="x.superior" horiz-adv-x="394" 
d="M383 694l-137 -163l139 -181h-112l-80 113l-88 -113h-106l144 172l-132 172h117l70 -103l79 103h106z" />
    <glyph glyph-name="y.superior" horiz-adv-x="380" 
d="M38 188q66 67 105 160l-143 346h101l88 -234l94 234h96l-151 -353q-47 -109 -79 -156h-111v3z" />
    <glyph glyph-name="z.superior" horiz-adv-x="366" 
d="M332 350h-333l202 260h-166l8 84h314l-204 -260h192z" />
    <glyph glyph-name="zero.numerator" horiz-adv-x="398" 
d="M199 350q-75 0 -121 54t-46 152t46 152t121 54t121 -54t46 -152t-46 -152t-121 -54zM199 427q34 0 53.5 33.5t19.5 95.5t-19.5 95t-53.5 33t-53.5 -33t-19.5 -95t19.5 -95.5t53.5 -33.5z" />
    <glyph glyph-name="one.numerator" horiz-adv-x="280" 
d="M196 360h-95v315l-89 -3l12 80h172v-392z" />
    <glyph glyph-name="two.numerator" horiz-adv-x="362" 
d="M239 505q-40 -39 -85 -67h176l-10 -78h-282v71q61 40 115 91q61 61 61 107q0 22 -16 35.5t-45 13.5q-57 0 -106 -41l10 97q44 28 114 28q68 0 103.5 -32t35.5 -83q0 -74 -71 -142z" />
    <glyph glyph-name="three.numerator" horiz-adv-x="355" 
d="M296 667q0 -31 -19 -56.5t-52 -37.5q89 -25 89 -97q0 -58 -44.5 -92t-117.5 -34q-70 0 -109 16l-4 91q44 -26 111 -26q33 0 51.5 13.5t18.5 34.5t-19 34t-53 13q-46 0 -83 -10l17 82q24 -2 47 -2q73 0 73 47q0 17 -16 28.5t-45 11.5q-53 0 -85 -23l18 89q36 13 93 13
q60 0 94.5 -27t34.5 -68z" />
    <glyph glyph-name="four.numerator" horiz-adv-x="377" 
d="M210 360v94h-201v50l190 248h96v-229h64v-69h-64v-94h-85zM87 523h123v159z" />
    <glyph glyph-name="five.numerator" horiz-adv-x="356" 
d="M313 752l-11 -72h-163l-9 -61q7 1 25 1q72 0 113.5 -34.5t41.5 -87.5q0 -71 -57.5 -111.5t-165.5 -40.5q-25 0 -47 3l11 82q22 -5 60 -5q52 0 80.5 18.5t28.5 49.5q0 27 -24.5 44t-71.5 17q-36 0 -74 -10l26 207h237z" />
    <glyph glyph-name="six.numerator" horiz-adv-x="359" 
d="M286 681q-122 -9 -162 -91q29 15 66 15q62 0 100 -33t38 -89t-40 -94.5t-104 -38.5q-73 0 -113 43t-40 121q0 100 66.5 169.5t203.5 80.5zM178 551q-43 0 -69 -22q-1 -6 -1 -19q0 -84 78 -84q27 0 44.5 17.5t17.5 43.5q0 28 -19.5 46t-50.5 18z" />
    <glyph glyph-name="seven.numerator" horiz-adv-x="336" 
d="M73 360q47 143 129 313l-190 -4l31 83h276q-106 -240 -141 -392h-105z" />
    <glyph glyph-name="eight.numerator" horiz-adv-x="382" 
d="M345 469q0 -51 -41.5 -85t-114.5 -34q-72 0 -112 31.5t-40 84.5q0 63 71 95q-59 29 -59 90q0 46 40 78.5t100 32.5q63 0 99 -30.5t36 -76.5q0 -53 -55 -84q76 -31 76 -102zM256 473q0 47 -75 64q-27 -8 -42 -26t-15 -39q0 -22 17.5 -37t47.5 -15q32 0 49.5 15t17.5 38z
M134 651q0 -23 14.5 -36.5t48.5 -24.5q45 18 45 57q0 19 -15 32.5t-38 13.5t-39 -12.5t-16 -29.5z" />
    <glyph glyph-name="nine.numerator" horiz-adv-x="367" 
d="M121 343l-55 69q103 35 146 87q-6 -1 -17 -1q-73 0 -118.5 35.5t-45.5 95.5q0 57 38.5 95t102.5 38q73 0 114.5 -43.5t41.5 -117.5q0 -181 -207 -258zM213 555q10 0 28 2q5 23 5 43q0 41 -20 65t-54 24q-29 0 -46.5 -18t-17.5 -44q0 -33 29 -52.5t76 -19.5z" />
    <glyph glyph-name="zero.denominator" horiz-adv-x="398" 
d="M199 -10q-75 0 -121 54t-46 152t46 152t121 54t121 -54t46 -152t-46 -152t-121 -54zM199 67q34 0 53.5 33.5t19.5 95.5t-19.5 95t-53.5 33t-53.5 -33t-19.5 -95t19.5 -95.5t53.5 -33.5z" />
    <glyph glyph-name="one.denominator" horiz-adv-x="280" 
d="M196 0h-95v315l-89 -3l12 80h172v-392z" />
    <glyph glyph-name="two.denominator" horiz-adv-x="362" 
d="M239 145q-40 -39 -85 -67h176l-10 -78h-282v71q61 40 115 91q61 61 61 107q0 22 -16 35.5t-45 13.5q-57 0 -106 -41l10 97q44 28 114 28q68 0 103.5 -32t35.5 -83q0 -74 -71 -142z" />
    <glyph glyph-name="three.denominator" horiz-adv-x="355" 
d="M296 307q0 -31 -19 -56.5t-52 -37.5q89 -25 89 -97q0 -58 -44.5 -92t-117.5 -34q-70 0 -109 16l-4 91q44 -26 111 -26q33 0 51.5 13.5t18.5 34.5t-19 34t-53 13q-46 0 -83 -10l17 82q24 -2 47 -2q73 0 73 47q0 17 -16 28.5t-45 11.5q-53 0 -85 -23l18 89q36 13 93 13
q60 0 94.5 -27t34.5 -68z" />
    <glyph glyph-name="four.denominator" horiz-adv-x="377" 
d="M210 0v94h-201v50l190 248h96v-229h64v-69h-64v-94h-85zM87 163h123v159z" />
    <glyph glyph-name="five.denominator" horiz-adv-x="356" 
d="M313 392l-11 -72h-163l-9 -61q7 1 25 1q72 0 113.5 -34.5t41.5 -87.5q0 -71 -57.5 -111.5t-165.5 -40.5q-25 0 -47 3l11 82q22 -5 60 -5q52 0 80.5 18.5t28.5 49.5q0 27 -24.5 44t-71.5 17q-36 0 -74 -10l26 207h237z" />
    <glyph glyph-name="six.denominator" horiz-adv-x="359" 
d="M286 321q-122 -9 -162 -91q28 15 66 15q62 0 100 -33t38 -89t-40 -94.5t-104 -38.5q-73 0 -113 43t-40 121q0 100 66.5 169.5t203.5 80.5zM178 191q-43 0 -69 -22q-1 -6 -1 -19q0 -84 78 -84q27 0 44.5 17.5t17.5 43.5q0 28 -19.5 46t-50.5 18z" />
    <glyph glyph-name="seven.denominator" horiz-adv-x="336" 
d="M73 0q47 143 129 313l-190 -4l31 83h276q-106 -240 -141 -392h-105z" />
    <glyph glyph-name="eight.denominator" horiz-adv-x="382" 
d="M345 109q0 -51 -41.5 -85t-114.5 -34q-72 0 -112 31.5t-40 84.5q0 63 71 95q-59 29 -59 90q0 46 40 78.5t100 32.5q63 0 99 -30.5t36 -76.5q0 -53 -55 -84q76 -31 76 -102zM256 113q0 47 -75 64q-27 -8 -42 -26t-15 -39q0 -22 17.5 -37t47.5 -15q32 0 49.5 15t17.5 38z
M134 291q0 -23 14.5 -36.5t48.5 -24.5q45 18 45 57q0 19 -15 32.5t-38 13.5t-39 -12.5t-16 -29.5z" />
    <glyph glyph-name="nine.denominator" horiz-adv-x="367" 
d="M121 -17l-55 69q103 35 146 87q-6 -1 -17 -1q-73 0 -118.5 35.5t-45.5 95.5q0 57 38.5 95t102.5 38q73 0 114.5 -43.5t41.5 -117.5q0 -181 -207 -258zM213 195q10 0 28 2q5 23 5 43q0 41 -20 65t-54 24q-29 0 -46.5 -18t-17.5 -44q0 -33 29 -52.5t76 -19.5z" />
    <glyph glyph-name="zero.scprop" horiz-adv-x="588" 
d="M294 -14q-114 0 -182.5 72.5t-68.5 205.5t68 204.5t183 71.5t183 -71.5t68 -204.5t-68.5 -205.5t-182.5 -72.5zM294 96q50 0 78.5 43.5t28.5 124.5t-28.5 123.5t-78.5 42.5t-78.5 -42.5t-28.5 -123.5t28.5 -124.5t78.5 -43.5z" />
    <glyph glyph-name="one.scprop" horiz-adv-x="366" 
d="M280 0h-141v402l-125 -7l17 132h249v-527z" />
    <glyph glyph-name="two.scprop" horiz-adv-x="497" 
d="M324 201q-38 -35 -100 -81h225l-12 -120h-388v104q95 66 162 130q68 65 68 117q0 34 -22 54t-60 20q-79 0 -143 -46l20 129q63 33 160 33q88 0 135.5 -45t47.5 -114q0 -94 -93 -181z" />
    <glyph glyph-name="three.scprop" horiz-adv-x="475" 
d="M397 408q0 -92 -95 -128q113 -38 113 -132q0 -73 -56 -117.5t-146 -44.5q-104 0 -155 25l-5 121q59 -34 135 -34q42 0 65.5 17.5t23.5 44.5q0 28 -24 45.5t-68 17.5q-61 0 -105 -9l20 106q18 -3 65 -3q94 0 94 59q0 23 -19 38t-53 15q-72 0 -122 -34l25 125q51 20 132 20
q82 0 128.5 -37.5t46.5 -94.5z" />
    <glyph glyph-name="four.scprop" horiz-adv-x="562" 
d="M299 0v116h-269v75l248 336h148v-307h80v-104h-80v-116h-127zM146 220h153v209z" />
    <glyph glyph-name="five.scprop" horiz-adv-x="472" 
d="M402 527l-14 -99h-185l-12 -93q4 1 19 1q96 0 149.5 -45t53.5 -115q0 -103 -80.5 -156.5t-235.5 -53.5q-20 0 -50 2l16 116q21 -5 64 -5q75 0 115.5 25t40.5 69q0 33 -31 54.5t-87 21.5q-53 0 -99 -9l35 287h301z" />
    <glyph glyph-name="six.scprop" horiz-adv-x="526" 
d="M409 435q-169 -7 -224 -124q41 23 95 23q88 0 143 -45.5t55 -121.5t-60.5 -128.5t-155.5 -52.5q-109 0 -166.5 59.5t-57.5 164.5q0 66 25 126t72 109t123 79.5t170 33.5zM242 254q-44 0 -77 -22q-1 -8 -1 -24q0 -119 95 -119q33 0 57 23t24 56q0 38 -27 62t-71 24z" />
    <glyph glyph-name="seven.scprop" horiz-adv-x="444" 
d="M55 527h369q-132 -321 -169 -527h-150q56 201 163 415l-255 -4z" />
    <glyph glyph-name="eight.scprop" horiz-adv-x="519" 
d="M466 145q0 -68 -55 -113t-150 -45q-98 0 -153 42.5t-55 112.5q0 82 98 122q-81 43 -81 130q0 62 54.5 104t136.5 42q87 0 137 -40t50 -102q0 -77 -79 -122q97 -42 97 -131zM339 157q0 29 -19.5 47.5t-63.5 30.5q-38 -9 -58 -29t-20 -46q0 -31 21.5 -50.5t61.5 -19.5
q38 0 58 18.5t20 48.5zM192 379q0 -28 17.5 -44.5t61.5 -29.5q57 25 57 70q0 28 -18.5 46t-48.5 18t-49.5 -17t-19.5 -43z" />
    <glyph glyph-name="nine.scprop" horiz-adv-x="500" 
d="M195 -27l-97 91q124 52 182 126q-18 -3 -40 -3q-93 0 -149.5 45t-56.5 122t58 132t149 55q100 0 157.5 -57.5t57.5 -160.5q0 -116 -68 -205.5t-193 -144.5zM273 264q28 0 48 7q6 24 6 50q0 52 -24 81t-65 29q-32 0 -50.5 -20t-18.5 -55q0 -41 29 -66.5t75 -25.5z" />
    <glyph glyph-name="zero.sctab" horiz-adv-x="506" 
d="M253 -14q-107 0 -171.5 72.5t-64.5 204.5q0 134 64.5 205.5t171.5 71.5t171.5 -71.5t64.5 -205.5q0 -132 -64.5 -204.5t-171.5 -72.5zM253 96q45 0 70 43t25 124t-25 124t-70 43q-44 0 -69.5 -42.5t-25.5 -124.5q0 -80 25.5 -123.5t69.5 -43.5z" />
    <glyph glyph-name="one.sctab" horiz-adv-x="506" 
d="M85 0v119h122v283l-125 -7l17 132h249v-408h116v-119h-379z" />
    <glyph glyph-name="two.sctab" horiz-adv-x="506" 
d="M327 201q-38 -35 -100 -81h225l-12 -120h-388v104q95 66 162 130q68 65 68 117q0 34 -22 54t-60 20q-79 0 -143 -46l20 129q63 33 160 33q88 0 135.5 -45t47.5 -114q0 -94 -93 -181z" />
    <glyph glyph-name="three.sctab" horiz-adv-x="506" 
d="M415 408q0 -92 -95 -128q113 -38 113 -132q0 -73 -56 -117.5t-146 -44.5q-104 0 -155 25l-5 121q59 -34 135 -34q42 0 65.5 17.5t23.5 44.5q0 28 -24 45.5t-68 17.5q-61 0 -105 -9l20 106q18 -3 65 -3q94 0 94 59q0 23 -19 38t-53 15q-72 0 -122 -34l25 125q51 20 132 20
q82 0 128.5 -37.5t46.5 -94.5z" />
    <glyph glyph-name="four.sctab" horiz-adv-x="506" 
d="M282 0v116h-269v75l248 336h148v-307h80v-104h-80v-116h-127zM129 220h153v209z" />
    <glyph glyph-name="five.sctab" horiz-adv-x="506" 
d="M425 527l-14 -99h-185l-12 -93q4 1 19 1q96 0 149.5 -45t53.5 -115q0 -103 -80.5 -156.5t-235.5 -53.5q-20 0 -50 2l16 116q21 -5 64 -5q75 0 115.5 25t40.5 69q0 33 -31 54.5t-87 21.5q-52 0 -99 -9l35 287h301z" />
    <glyph glyph-name="six.sctab" horiz-adv-x="506" 
d="M404 435q-169 -7 -224 -124q41 23 95 23q88 0 143 -45.5t55 -121.5t-60.5 -128.5t-155.5 -52.5q-109 0 -166.5 59.5t-57.5 164.5q0 66 25 126t72 109t123 79.5t170 33.5zM237 254q-44 0 -77 -22q-1 -8 -1 -24q0 -119 95 -119q33 0 57 23t24 56q0 38 -27 62t-71 24z" />
    <glyph glyph-name="seven.sctab" horiz-adv-x="506" 
d="M72 527h384q-132 -321 -169 -527h-150q56 201 163 415l-270 -4z" />
    <glyph glyph-name="eight.sctab" horiz-adv-x="506" 
d="M459 145q0 -68 -55 -113t-150 -45q-98 0 -153 42.5t-55 112.5q0 82 98 122q-81 43 -81 130q0 62 54.5 104t136.5 42q87 0 137 -40t50 -102q0 -77 -79 -122q97 -42 97 -131zM332 157q0 29 -19.5 47.5t-63.5 30.5q-38 -9 -58 -29t-20 -46q0 -31 21.5 -50.5t61.5 -19.5
q38 0 58 18.5t20 48.5zM185 379q0 -28 17.5 -44.5t61.5 -29.5q57 25 57 70q0 28 -18.5 46t-48.5 18t-49.5 -17t-19.5 -43z" />
    <glyph glyph-name="nine.sctab" horiz-adv-x="506" 
d="M202 -27l-97 91q124 52 182 126q-18 -3 -40 -3q-93 0 -149.5 45t-56.5 122t58 132t149 55q100 0 157.5 -57.5t57.5 -160.5q0 -116 -68 -205.5t-193 -144.5zM280 264q28 0 48 7q6 24 6 50q0 52 -24 81t-65 29q-32 0 -50.5 -20t-18.5 -55q0 -41 29 -66.5t75 -25.5z" />
    <glyph glyph-name="a.sc" horiz-adv-x="614" 
d="M467 0l-53 128h-209l-58 -128h-146l246 518l126 20l239 -538h-145zM313 385l-75 -161h144z" />
    <glyph glyph-name="b.sc" horiz-adv-x="552" 
d="M403 283q107 -32 107 -134q0 -70 -57 -109.5t-155 -39.5h-217v527h219q90 0 137 -35t47 -93q0 -38 -21.5 -69.5t-59.5 -46.5zM222 232v-140h61q39 0 60.5 20.5t21.5 49.5q0 30 -22 50t-60 20h-61zM222 436v-126h59q32 0 50 19t18 46q0 26 -18.5 43.5t-49.5 17.5h-59z" />
    <glyph glyph-name="c.sc" horiz-adv-x="540" 
d="M501 181l-17 -154q-69 -40 -166 -40q-123 0 -200.5 75.5t-77.5 199.5q0 122 78.5 200t199.5 78q104 0 175 -41l-17 -139h-3q-43 55 -139 55q-68 0 -109 -42t-41 -111q0 -70 44.5 -109.5t112.5 -39.5q90 0 157 68h3z" />
    <glyph glyph-name="d.sc" horiz-adv-x="621" 
d="M286 0h-205v527h207q139 0 216 -70t77 -185q0 -133 -75.5 -202.5t-219.5 -69.5zM222 421v-313h51q163 0 163 161q0 67 -42.5 109.5t-118.5 42.5h-53z" />
    <glyph glyph-name="e.sc" horiz-adv-x="485" 
d="M222 424v-103h179v-102h-179v-116h210v-103h-351v527h341v-103h-200z" />
    <glyph glyph-name="f.sc" horiz-adv-x="453" 
d="M214 417v-124h185v-108h-185v-185h-133v527h349v-110h-216z" />
    <glyph glyph-name="g.sc" horiz-adv-x="585" 
d="M538 263v-195q-89 -81 -222 -81q-122 0 -199 74t-77 201q0 121 78.5 199.5t211.5 78.5q111 0 185 -47l-24 -131h-3q-60 62 -154 62q-68 0 -110.5 -46t-42.5 -118q0 -74 41.5 -117t109.5 -43q38 0 65 21v142h141z" />
    <glyph glyph-name="h.sc" horiz-adv-x="670" 
d="M222 0h-141v527h141v-190h226v190h141v-527h-141v215h-226v-215z" />
    <glyph glyph-name="i.sc" horiz-adv-x="303" 
d="M222 0h-141v527h141v-527z" />
    <glyph glyph-name="j.sc" horiz-adv-x="303" 
d="M83 527h141v-405q0 -113 -17.5 -178t-59.5 -108l-190 -43l-4 11q74 43 102 107.5t28 197.5v418z" />
    <glyph glyph-name="k.sc" horiz-adv-x="646" 
d="M222 0h-141v527h141v-233l215 233h184l-256 -252l283 -275h-187l-239 249v-249z" />
    <glyph glyph-name="l.sc" horiz-adv-x="486" 
d="M81 0v527h141v-405h254v-122h-395z" />
    <glyph glyph-name="m.sc" horiz-adv-x="810" 
d="M729 0h-120v312l-177 -312h-60l-171 308v-308h-120v527h122l200 -358l204 358h122v-527z" />
    <glyph glyph-name="n.sc" horiz-adv-x="701" 
d="M81 527h113l293 -330v330h133v-527h-110l-296 334v-334h-133v527z" />
    <glyph glyph-name="o.sc" horiz-adv-x="637" 
d="M456 263q0 71 -38.5 117.5t-98.5 46.5q-61 0 -99.5 -46.5t-38.5 -117.5q0 -72 38.5 -118.5t99.5 -46.5q60 0 98.5 46.5t38.5 118.5zM597 263q0 -125 -76 -201.5t-202 -76.5q-127 0 -203 76t-76 202q0 127 76 202t203 75t202.5 -75t75.5 -202z" />
    <glyph glyph-name="p.sc" horiz-adv-x="526" 
d="M222 0h-141v527h192q109 0 169 -45t60 -130q0 -95 -62 -143.5t-178 -48.5h-40v-160zM222 427v-161h35q101 0 101 82q0 79 -105 79h-31z" />
    <glyph glyph-name="q.sc" horiz-adv-x="620" 
d="M310 -1q-31 0 -52 5v-2q131 -60 267 -65l-42 -123q-112 12 -278 98q-42 22 -96 42l53 91q-56 38 -89 98.5t-33 131.5q0 114 77 189.5t193 75.5q117 0 194 -75.5t77 -189.5q0 -120 -77 -198t-194 -78zM439 275q0 67 -36 109.5t-93 42.5q-58 0 -93.5 -42t-35.5 -110
q0 -70 36.5 -116.5t92.5 -46.5q58 0 93.5 45t35.5 118z" />
    <glyph glyph-name="r.sc" horiz-adv-x="568" 
d="M81 0v527h228q92 0 141.5 -41.5t49.5 -122.5q0 -111 -105 -154l167 -209h-175l-128 185h-37v-185h-141zM222 426v-155h18q62 0 91.5 18.5t29.5 62.5q0 35 -22.5 54.5t-63.5 19.5h-53z" />
    <glyph glyph-name="s.sc" horiz-adv-x="469" 
d="M45 162q82 -60 177 -60q72 0 72 46q0 21 -19 35t-67 31q-84 28 -120.5 67t-36.5 102q0 70 51.5 113.5t138.5 43.5q83 0 150 -25v-133q-74 52 -145 52q-65 0 -65 -44q0 -20 17.5 -33.5t66.5 -30.5q87 -31 123 -69.5t36 -99.5q0 -83 -57 -126.5t-151 -43.5q-100 0 -157 27z
" />
    <glyph glyph-name="t.sc" horiz-adv-x="536" 
d="M338 0h-141v405h-183v122h508v-122h-184v-405z" />
    <glyph glyph-name="u.sc" horiz-adv-x="643" 
d="M74 527h141v-304q0 -56 30 -84.5t76 -28.5t76 28.5t30 84.5v304h141v-304q0 -119 -69.5 -179t-177.5 -60t-177.5 60t-69.5 179v304z" />
    <glyph glyph-name="v.sc" horiz-adv-x="605" 
d="M0 527h155l144 -357l151 357h156l-252 -527h-115z" />
    <glyph glyph-name="w.sc" horiz-adv-x="876" 
d="M530 0l-94 230l-101 -230h-113l-222 527h149l135 -355l90 209l-60 146h147l128 -349l140 349h147l-231 -527h-115z" />
    <glyph glyph-name="x.sc" horiz-adv-x="626" 
d="M-2 0l230 277l-192 250h166l109 -158l115 158h167l-201 -249l227 -278h-167l-143 187l-144 -187h-167z" />
    <glyph glyph-name="y.sc" horiz-adv-x="592" 
d="M597 527l-237 -309v-218h-141v219l-224 308h163l134 -214l141 214h164z" />
    <glyph glyph-name="z.sc" horiz-adv-x="561" 
d="M528 0h-523l300 401h-273l13 126h498l-299 -400h305z" />
    <glyph glyph-name="agrave.sc" horiz-adv-x="614" 
d="M467 0l-53 128h-209l-58 -128h-146l246 518l126 20l239 -538h-145zM313 385l-75 -161h144zM313 624l-153 179h142l71 -179h-60z" />
    <glyph glyph-name="aacute.sc" horiz-adv-x="614" 
d="M467 0l-53 128h-209l-58 -128h-146l246 518l126 20l239 -538h-145zM313 385l-75 -161h144zM467 803l-153 -179h-60l71 179h142z" />
    <glyph glyph-name="acircumflex.sc" horiz-adv-x="614" 
d="M467 0l-53 128h-209l-58 -128h-146l246 518l126 20l239 -538h-145zM313 385l-75 -161h144zM398 624l-84 97l-84 -97h-66l106 179h88l106 -179h-66z" />
    <glyph glyph-name="atilde.sc" horiz-adv-x="614" 
d="M467 0l-53 128h-209l-58 -128h-146l246 518l126 20l239 -538h-145zM313 385l-75 -161h144zM254 681q-21 0 -35 -14t-18 -36l-48 11q7 65 37 103.5t73 38.5q23 0 64.5 -17t57.5 -17q21 0 35.5 14t17.5 36l49 -11q-7 -65 -37 -103.5t-73 -38.5q-23 0 -65 17t-58 17z" />
    <glyph glyph-name="adieresis.sc" horiz-adv-x="614" 
d="M467 0l-53 128h-209l-58 -128h-146l246 518l126 20l239 -538h-145zM313 385l-75 -161h144zM209 776q30 0 49 -18.5t19 -48.5q0 -29 -18.5 -48t-48.5 -19q-31 0 -49.5 18t-18.5 49q0 30 18.5 48.5t48.5 18.5zM418 776q30 0 49 -18.5t19 -48.5q0 -29 -18.5 -48t-48.5 -19
q-31 0 -49.5 18t-18.5 49q0 30 18.5 48.5t48.5 18.5z" />
    <glyph glyph-name="amacron.sc" horiz-adv-x="614" 
d="M467 0l-53 128h-209l-58 -128h-146l246 518l126 20l239 -538h-145zM313 385l-75 -161h144zM455 757v-96h-285v96h285z" />
    <glyph glyph-name="abreve.sc" horiz-adv-x="614" 
d="M467 0l-53 128h-209l-58 -128h-146l246 518l126 20l239 -538h-145zM313 385l-75 -161h144zM314 715q82 0 82 86h55q0 -175 -137 -175t-137 175h55q0 -86 82 -86z" />
    <glyph glyph-name="aring.sc" horiz-adv-x="614" 
d="M467 0l-53 128h-209l-58 -128h-146l246 518l126 20l239 -538h-145zM313 385l-75 -161h144zM205 714q0 44 32 76.5t76 32.5t76.5 -32.5t32.5 -76.5t-32.5 -76t-76.5 -32q-43 0 -75.5 32t-32.5 76zM258 714q0 -22 16 -38.5t39 -16.5t39 16t16 39t-16 39t-39 16t-39 -16
t-16 -39z" />
    <glyph glyph-name="aogonek.sc" horiz-adv-x="614" 
d="M373 -137q0 35 21.5 66.5t72.5 70.5l-53 128h-209l-58 -128h-146l246 518l126 20l239 -538q-125 -38 -125 -112q0 -16 10.5 -26.5t30.5 -10.5q42 0 70 33h3l-6 -97q-38 -24 -97 -24q-58 0 -91.5 26.5t-33.5 73.5zM313 385l-75 -161h144z" />
    <glyph glyph-name="ae.sc" horiz-adv-x="788" 
d="M525 424v-103h179v-102h-179v-116h210v-103h-351v145h-175l-84 -145h-149l308 527h441v-103h-200zM374 430l-110 -190h120v190h-10z" />
    <glyph glyph-name="cacute.sc" horiz-adv-x="540" 
d="M501 181l-17 -154q-69 -40 -166 -40q-123 0 -200.5 75.5t-77.5 199.5q0 122 78.5 200t199.5 78q104 0 175 -41l-17 -139h-3q-43 55 -139 55q-68 0 -109 -42t-41 -111q0 -70 44.5 -109.5t112.5 -39.5q90 0 157 68h3zM458 803l-153 -179h-60l71 179h142z" />
    <glyph glyph-name="ccircumflex.sc" horiz-adv-x="540" 
d="M501 181l-17 -154q-69 -40 -166 -40q-123 0 -200.5 75.5t-77.5 199.5q0 122 78.5 200t199.5 78q104 0 175 -41l-17 -139h-3q-43 55 -139 55q-68 0 -109 -42t-41 -111q0 -70 44.5 -109.5t112.5 -39.5q90 0 157 68h3zM388 624l-84 97l-84 -97h-66l106 179h88l106 -179h-66z
" />
    <glyph glyph-name="ccaron.sc" horiz-adv-x="540" 
d="M501 181l-17 -154q-69 -40 -166 -40q-123 0 -200.5 75.5t-77.5 199.5q0 122 78.5 200t199.5 78q104 0 175 -41l-17 -139h-3q-43 55 -139 55q-68 0 -109 -42t-41 -111q0 -70 44.5 -109.5t112.5 -39.5q90 0 157 68h3zM154 803h66l84 -98l84 98h66l-106 -179h-88z" />
    <glyph glyph-name="ccedilla.sc" horiz-adv-x="540" 
d="M501 181l-17 -154q-59 -35 -150 -40l-21 -41q6 3 18 3q43 0 68.5 -22t25.5 -58q0 -41 -35 -68t-90 -27q-56 0 -86 25l6 60q24 -25 72 -25q22 0 33.5 9t11.5 22q0 33 -51 33q-27 0 -44 -5l-2 3l43 93q-109 11 -176 84.5t-67 188.5q0 122 78.5 200t199.5 78q104 0 175 -41
l-17 -139h-3q-43 55 -139 55q-68 0 -109 -42t-41 -111q0 -70 44.5 -109.5t112.5 -39.5q90 0 157 68h3z" />
    <glyph glyph-name="cdotaccent.sc" horiz-adv-x="540" 
d="M501 181l-17 -154q-69 -40 -166 -40q-123 0 -200.5 75.5t-77.5 199.5q0 122 78.5 200t199.5 78q104 0 175 -41l-17 -139h-3q-43 55 -139 55q-68 0 -109 -42t-41 -111q0 -70 44.5 -109.5t112.5 -39.5q90 0 157 68h3zM304 793q34 0 56 -21.5t22 -56.5q0 -34 -21.5 -56
t-55.5 -22q-36 0 -57.5 21.5t-21.5 56.5t22 56.5t56 21.5z" />
    <glyph glyph-name="dcaron.sc" horiz-adv-x="621" 
d="M286 0h-205v527h207q139 0 216 -70t77 -185q0 -133 -75.5 -202.5t-219.5 -69.5zM222 421v-313h51q163 0 163 161q0 67 -42.5 109.5t-118.5 42.5h-53zM143 803h66l84 -98l84 98h66l-106 -179h-88z" />
    <glyph glyph-name="dcroat.sc" horiz-adv-x="621" 
d="M286 0h-205v228h-62v80h62v219h207q139 0 216 -70t77 -185q0 -133 -75.5 -202.5t-219.5 -69.5zM222 421v-113h85v-80h-85v-120h51q163 0 163 161q0 67 -42.5 109.5t-118.5 42.5h-53z" />
    <glyph glyph-name="eth.sc" horiz-adv-x="621" 
d="M286 0h-205v228h-62v80h62v219h207q139 0 216 -70t77 -185q0 -133 -75.5 -202.5t-219.5 -69.5zM222 421v-113h85v-80h-85v-120h51q163 0 163 161q0 67 -42.5 109.5t-118.5 42.5h-53z" />
    <glyph glyph-name="egrave.sc" horiz-adv-x="485" 
d="M222 424v-103h179v-102h-179v-116h210v-103h-351v527h341v-103h-200zM252 624l-153 179h142l71 -179h-60z" />
    <glyph glyph-name="eacute.sc" horiz-adv-x="485" 
d="M222 424v-103h179v-102h-179v-116h210v-103h-351v527h341v-103h-200zM407 803l-153 -179h-60l71 179h142z" />
    <glyph glyph-name="ecircumflex.sc" horiz-adv-x="485" 
d="M222 424v-103h179v-102h-179v-116h210v-103h-351v527h341v-103h-200zM337 624l-84 97l-84 -97h-66l106 179h88l106 -179h-66z" />
    <glyph glyph-name="edieresis.sc" horiz-adv-x="485" 
d="M222 424v-103h179v-102h-179v-116h210v-103h-351v527h341v-103h-200zM148 776q30 0 49 -18.5t19 -48.5q0 -29 -18.5 -48t-48.5 -19q-31 0 -49.5 18t-18.5 49q0 30 18.5 48.5t48.5 18.5zM357 776q30 0 49 -18.5t19 -48.5q0 -29 -18.5 -48t-48.5 -19q-31 0 -49.5 18
t-18.5 49q0 30 18.5 48.5t48.5 18.5z" />
    <glyph glyph-name="emacron.sc" horiz-adv-x="485" 
d="M222 424v-103h179v-102h-179v-116h210v-103h-351v527h341v-103h-200zM395 757v-96h-285v96h285z" />
    <glyph glyph-name="ebreve.sc" horiz-adv-x="485" 
d="M222 424v-103h179v-102h-179v-116h210v-103h-351v527h341v-103h-200zM253 715q82 0 82 86h55q0 -175 -137 -175t-137 175h55q0 -86 82 -86z" />
    <glyph glyph-name="edotaccent.sc" horiz-adv-x="485" 
d="M222 424v-103h179v-102h-179v-116h210v-103h-351v527h341v-103h-200zM253 793q35 0 56.5 -21.5t21.5 -56.5q0 -34 -21.5 -56t-55.5 -22q-36 0 -57.5 21.5t-21.5 56.5t21.5 56.5t56.5 21.5z" />
    <glyph glyph-name="ecaron.sc" horiz-adv-x="485" 
d="M222 424v-103h179v-102h-179v-116h210v-103h-351v527h341v-103h-200zM103 803h66l84 -98l84 98h66l-106 -179h-88z" />
    <glyph glyph-name="eogonek.sc" horiz-adv-x="485" 
d="M295 0h-214v527h341v-103h-200v-103h179v-102h-179v-116h210v-103q-118 -41 -118 -112q0 -16 10.5 -26.5t30.5 -10.5q42 0 71 33h3l-7 -97q-38 -24 -97 -24q-58 0 -91 26t-33 74q0 35 21.5 66.5t72.5 70.5z" />
    <glyph glyph-name="gcircumflex.sc" horiz-adv-x="585" 
d="M538 263v-195q-89 -81 -222 -81q-122 0 -199 74t-77 201q0 121 78.5 199.5t211.5 78.5q111 0 185 -47l-24 -131h-3q-60 62 -154 62q-68 0 -110.5 -46t-42.5 -118q0 -74 41.5 -117t109.5 -43q38 0 65 21v142h141zM400 624l-84 97l-84 -97h-66l106 179h88l106 -179h-66z
" />
    <glyph glyph-name="gbreve.sc" horiz-adv-x="585" 
d="M538 263v-195q-89 -81 -222 -81q-122 0 -199 74t-77 201q0 121 78.5 199.5t211.5 78.5q111 0 185 -47l-24 -131h-3q-60 62 -154 62q-68 0 -110.5 -46t-42.5 -118q0 -74 41.5 -117t109.5 -43q38 0 65 21v142h141zM316 715q82 0 82 86h55q0 -175 -137 -175t-137 175h55
q0 -86 82 -86z" />
    <glyph glyph-name="gdotaccent.sc" horiz-adv-x="585" 
d="M538 263v-195q-89 -81 -222 -81q-122 0 -199 74t-77 201q0 121 78.5 199.5t211.5 78.5q111 0 185 -47l-24 -131h-3q-60 62 -154 62q-68 0 -110.5 -46t-42.5 -118q0 -74 41.5 -117t109.5 -43q38 0 65 21v142h141zM315 793q35 0 56.5 -21.5t21.5 -56.5q0 -34 -21.5 -56
t-55.5 -22q-36 0 -57.5 21.5t-21.5 56.5t21.5 56.5t56.5 21.5z" />
    <glyph glyph-name="gcommaaccent.sc" horiz-adv-x="585" 
d="M538 263v-195q-89 -81 -222 -81q-122 0 -199 74t-77 201q0 121 78.5 199.5t211.5 78.5q111 0 185 -47l-24 -131h-3q-60 62 -154 62q-68 0 -110.5 -46t-42.5 -118q0 -74 41.5 -117t109.5 -43q38 0 65 21v142h141zM366 -54q14 -25 14 -59q0 -31 -19.5 -58t-72.5 -66h-66
q54 69 54 117q0 19 -15 45z" />
    <glyph glyph-name="hcircumflex.sc" horiz-adv-x="670" 
d="M222 0h-141v527h141v-190h226v190h141v-527h-141v215h-226v-215zM420 624l-84 97l-84 -97h-66l106 179h88l106 -179h-66z" />
    <glyph glyph-name="hbar.sc" horiz-adv-x="670" 
d="M222 0h-141v389h-62v80h62v58h141v-58h226v58h141v-58h62v-80h-62v-389h-141v215h-226v-215zM222 337h226v52h-226v-52z" />
    <glyph glyph-name="igrave.sc" horiz-adv-x="303" 
d="M222 0h-141v527h141v-527zM151 624l-153 179h142l71 -179h-60z" />
    <glyph glyph-name="iacute.sc" horiz-adv-x="303" 
d="M222 0h-141v527h141v-527zM305 803l-153 -179h-60l71 179h142z" />
    <glyph glyph-name="icircumflex.sc" horiz-adv-x="303" 
d="M222 0h-141v527h141v-527zM236 624l-84 97l-84 -97h-66l106 179h88l106 -179h-66z" />
    <glyph glyph-name="itilde.sc" horiz-adv-x="303" 
d="M102 666q-21 0 -35.5 -14t-17.5 -36l-48 11q7 65 37 103.5t73 38.5q18 0 53.5 -17t48.5 -17q21 0 35 14t18 36l48 -11q-7 -65 -37 -103.5t-73 -38.5q-18 0 -53.5 17t-48.5 17zM222 0h-141v527h141v-527z" />
    <glyph glyph-name="idieresis.sc" horiz-adv-x="303" 
d="M56 761q31 0 49.5 -18.5t18.5 -48.5t-18.5 -48.5t-48.5 -18.5q-31 0 -49 18t-18 49q0 30 18.5 48.5t47.5 18.5zM246 761q30 0 48.5 -18.5t18.5 -48.5t-18 -48.5t-48 -18.5q-31 0 -49.5 18t-18.5 49q0 30 18.5 48.5t48.5 18.5zM222 0h-141v527h141v-527z" />
    <glyph glyph-name="imacron.sc" horiz-adv-x="303" 
d="M282 742v-96h-261v96h261zM222 0h-141v527h141v-527z" />
    <glyph glyph-name="ibreve.sc" horiz-adv-x="303" 
d="M222 0h-141v527h141v-527zM151 715q82 0 82 86h55q0 -175 -137 -175t-137 175h55q0 -86 82 -86z" />
    <glyph glyph-name="idotaccent.sc" horiz-adv-x="303" 
d="M222 0h-141v527h141v-527zM151 793q35 0 56.5 -21.5t21.5 -56.5q0 -34 -21.5 -56t-55.5 -22q-36 0 -57.5 21.5t-21.5 56.5t21.5 56.5t56.5 21.5z" />
    <glyph glyph-name="iogonek.sc" horiz-adv-x="303" 
d="M81 0v527h141v-527q-99 -37 -99 -112q0 -16 10 -26.5t28 -10.5q44 0 73 33h3l-6 -97q-38 -24 -97 -24q-58 0 -91 26t-33 74q0 65 71 137z" />
    <glyph glyph-name="ij.sc" horiz-adv-x="589" 
d="M222 0h-141v527h141v-527zM369 527h141v-405q0 -113 -17.5 -178t-59.5 -108l-190 -43l-4 11q74 43 102 107.5t28 197.5v418z" />
    <glyph glyph-name="jcircumflex.sc" horiz-adv-x="300" 
d="M81 527h141v-405q0 -113 -17.5 -178t-59.5 -108l-190 -43l-4 11q74 43 102 107.5t28 197.5v418zM236 624l-84 97l-84 -97h-66l106 179h88l106 -179h-66z" />
    <glyph glyph-name="kcommaaccent.sc" horiz-adv-x="646" 
d="M222 0h-141v527h141v-233l215 233h184l-256 -252l283 -275h-187l-239 249v-249zM387 -54q14 -25 14 -59q0 -31 -19.5 -58t-72.5 -66h-66q54 69 54 117q0 19 -15 45z" />
    <glyph glyph-name="lacute.sc" horiz-adv-x="486" 
d="M81 0v527h141v-405h254v-122h-395zM341 803l-153 -179h-60l71 179h142z" />
    <glyph glyph-name="lcaron.sc" horiz-adv-x="486" 
d="M81 0v527h141v-405h254v-122h-395zM391 536q13 -27 13 -61q0 -60 -78 -142h-52q31 77 31 127q0 27 -12 54z" />
    <glyph glyph-name="lcommaaccent.sc" horiz-adv-x="486" 
d="M81 0v527h141v-405h254v-122h-395zM324 -54q14 -25 14 -59q0 -31 -19.5 -58t-72.5 -66h-66q54 69 54 117q0 19 -15 45z" />
    <glyph glyph-name="ldot.sc" horiz-adv-x="486" 
d="M81 0v527h141v-405h254v-122h-395zM392 428q34 0 56 -22t22 -56t-21.5 -56t-55.5 -22q-36 0 -57.5 21.5t-21.5 56.5q0 34 22 56t56 22z" />
    <glyph glyph-name="lslash.sc" horiz-adv-x="486" 
d="M81 0v185l-62 -41v110l62 41v232h141v-140l124 82v-110l-124 -82v-155h254v-122h-395z" />
    <glyph glyph-name="nacute.sc" horiz-adv-x="701" 
d="M81 527h113l293 -330v330h133v-527h-110l-296 334v-334h-133v527zM504 803l-153 -179h-60l71 179h142z" />
    <glyph glyph-name="ncaron.sc" horiz-adv-x="701" 
d="M81 527h113l293 -330v330h133v-527h-110l-296 334v-334h-133v527zM201 803h66l84 -98l84 98h66l-106 -179h-88z" />
    <glyph glyph-name="ntilde.sc" horiz-adv-x="701" 
d="M81 527h113l293 -330v330h133v-527h-110l-296 334v-334h-133v527zM291 681q-21 0 -35 -14t-18 -36l-48 11q7 65 37 103.5t73 38.5q23 0 64.5 -17t57.5 -17q21 0 35.5 14t17.5 36l49 -11q-7 -65 -37 -103.5t-73 -38.5q-23 0 -65 17t-58 17z" />
    <glyph glyph-name="ncommaaccent.sc" horiz-adv-x="701" 
d="M81 527h113l293 -330v330h133v-527h-110l-296 334v-334h-133v527zM400 -54q14 -25 14 -59q0 -31 -19.5 -58t-72.5 -66h-66q54 69 54 117q0 19 -15 45z" />
    <glyph glyph-name="eng.sc" horiz-adv-x="701" 
d="M620 527v-567q0 -92 -46.5 -144.5t-130.5 -52.5q-52 0 -94 20l-11 117q27 -26 71 -26q37 0 58 25t21 71v54l-274 310v-334h-133v527h113l293 -330v330h133z" />
    <glyph glyph-name="ograve.sc" horiz-adv-x="637" 
d="M456 263q0 71 -38.5 117.5t-98.5 46.5q-61 0 -99.5 -46.5t-38.5 -117.5q0 -72 38.5 -118.5t99.5 -46.5q60 0 98.5 46.5t38.5 118.5zM597 263q0 -125 -76 -201.5t-202 -76.5q-127 0 -203 76t-76 202q0 127 76 202t203 75t202.5 -75t75.5 -202zM318 624l-153 179h142
l71 -179h-60z" />
    <glyph glyph-name="oacute.sc" horiz-adv-x="637" 
d="M456 263q0 71 -38.5 117.5t-98.5 46.5q-61 0 -99.5 -46.5t-38.5 -117.5q0 -72 38.5 -118.5t99.5 -46.5q60 0 98.5 46.5t38.5 118.5zM597 263q0 -125 -76 -201.5t-202 -76.5q-127 0 -203 76t-76 202q0 127 76 202t203 75t202.5 -75t75.5 -202zM472 803l-153 -179h-60
l71 179h142z" />
    <glyph glyph-name="ocircumflex.sc" horiz-adv-x="637" 
d="M456 263q0 71 -38.5 117.5t-98.5 46.5q-61 0 -99.5 -46.5t-38.5 -117.5q0 -72 38.5 -118.5t99.5 -46.5q60 0 98.5 46.5t38.5 118.5zM597 263q0 -125 -76 -201.5t-202 -76.5q-127 0 -203 76t-76 202q0 127 76 202t203 75t202.5 -75t75.5 -202zM403 624l-84 97l-84 -97h-66
l106 179h88l106 -179h-66z" />
    <glyph glyph-name="otilde.sc" horiz-adv-x="637" 
d="M456 263q0 71 -38.5 117.5t-98.5 46.5q-61 0 -99.5 -46.5t-38.5 -117.5q0 -72 38.5 -118.5t99.5 -46.5q60 0 98.5 46.5t38.5 118.5zM597 263q0 -125 -76 -201.5t-202 -76.5q-127 0 -203 76t-76 202q0 127 76 202t203 75t202.5 -75t75.5 -202zM259 681q-21 0 -35 -14
t-18 -36l-48 11q7 65 37 103.5t73 38.5q23 0 64.5 -17t57.5 -17q21 0 35.5 14t17.5 36l49 -11q-7 -65 -37 -103.5t-73 -38.5q-23 0 -65 17t-58 17z" />
    <glyph glyph-name="odieresis.sc" horiz-adv-x="637" 
d="M456 263q0 71 -38.5 117.5t-98.5 46.5q-61 0 -99.5 -46.5t-38.5 -117.5q0 -72 38.5 -118.5t99.5 -46.5q60 0 98.5 46.5t38.5 118.5zM597 263q0 -125 -76 -201.5t-202 -76.5q-127 0 -203 76t-76 202q0 127 76 202t203 75t202.5 -75t75.5 -202zM214 776q30 0 49 -18.5
t19 -48.5q0 -29 -18.5 -48t-48.5 -19q-31 0 -49.5 18t-18.5 49q0 30 18.5 48.5t48.5 18.5zM423 776q30 0 49 -18.5t19 -48.5q0 -29 -18.5 -48t-48.5 -19q-31 0 -49.5 18t-18.5 49q0 30 18.5 48.5t48.5 18.5z" />
    <glyph glyph-name="omacron.sc" horiz-adv-x="637" 
d="M456 263q0 71 -38.5 117.5t-98.5 46.5q-61 0 -99.5 -46.5t-38.5 -117.5q0 -72 38.5 -118.5t99.5 -46.5q60 0 98.5 46.5t38.5 118.5zM597 263q0 -125 -76 -201.5t-202 -76.5q-127 0 -203 76t-76 202q0 127 76 202t203 75t202.5 -75t75.5 -202zM461 757v-96h-285v96h285z
" />
    <glyph glyph-name="obreve.sc" horiz-adv-x="637" 
d="M456 263q0 71 -38.5 117.5t-98.5 46.5q-61 0 -99.5 -46.5t-38.5 -117.5q0 -72 38.5 -118.5t99.5 -46.5q60 0 98.5 46.5t38.5 118.5zM597 263q0 -125 -76 -201.5t-202 -76.5q-127 0 -203 76t-76 202q0 127 76 202t203 75t202.5 -75t75.5 -202zM319 715q82 0 82 86h55
q0 -175 -137 -175t-137 175h55q0 -86 82 -86z" />
    <glyph glyph-name="ohungarumlaut.sc" horiz-adv-x="637" 
d="M456 263q0 71 -38.5 117.5t-98.5 46.5q-61 0 -99.5 -46.5t-38.5 -117.5q0 -72 38.5 -118.5t99.5 -46.5q60 0 98.5 46.5t38.5 118.5zM597 263q0 -125 -76 -201.5t-202 -76.5q-127 0 -203 76t-76 202q0 127 76 202t203 75t202.5 -75t75.5 -202zM250 803h131l-121 -179h-58z
M405 803h132l-121 -179h-58z" />
    <glyph glyph-name="oslash.sc" horiz-adv-x="637" 
d="M597 263q0 -125 -76 -201.5t-202 -76.5q-84 0 -147 34l-21 -26l-75 20l39 49q-75 77 -75 201q0 127 76 202t203 75q84 0 147 -34l28 35l76 -20l-47 -58q74 -76 74 -200zM181 263q0 -54 22 -95l187 237q-31 22 -71 22q-61 0 -99.5 -46.5t-38.5 -117.5zM456 263
q0 51 -22 92l-187 -236q34 -21 72 -21q60 0 98.5 46.5t38.5 118.5z" />
    <glyph glyph-name="oe.sc" horiz-adv-x="788" 
d="M525 424v-103h179v-102h-179v-116h210v-103h-411q-127 0 -205.5 72t-78.5 192q0 119 79 191t205 72h401v-103h-200zM182 264q0 -75 44.5 -118t120.5 -43h37v321h-37q-76 0 -120.5 -42.5t-44.5 -117.5z" />
    <glyph glyph-name="racute.sc" horiz-adv-x="568" 
d="M81 0v527h228q92 0 141.5 -41.5t49.5 -122.5q0 -111 -105 -154l167 -209h-175l-128 185h-37v-185h-141zM222 426v-155h18q62 0 91.5 18.5t29.5 62.5q0 35 -22.5 54.5t-63.5 19.5h-53zM427 803l-153 -179h-60l71 179h142z" />
    <glyph glyph-name="rcaron.sc" horiz-adv-x="568" 
d="M81 0v527h228q92 0 141.5 -41.5t49.5 -122.5q0 -111 -105 -154l167 -209h-175l-128 185h-37v-185h-141zM222 426v-155h18q62 0 91.5 18.5t29.5 62.5q0 35 -22.5 54.5t-63.5 19.5h-53zM124 803h66l84 -98l84 98h66l-106 -179h-88z" />
    <glyph glyph-name="rcommaaccent.sc" horiz-adv-x="568" 
d="M81 0v527h228q92 0 141.5 -41.5t49.5 -122.5q0 -111 -105 -154l167 -209h-175l-128 185h-37v-185h-141zM222 426v-155h18q62 0 91.5 18.5t29.5 62.5q0 35 -22.5 54.5t-63.5 19.5h-53zM342 -54q14 -25 14 -59q0 -31 -19.5 -58t-72.5 -66h-66q54 69 54 117q0 19 -15 45z
" />
    <glyph glyph-name="sacute.sc" horiz-adv-x="469" 
d="M45 162q82 -60 177 -60q72 0 72 46q0 21 -19 35t-67 31q-84 28 -120.5 67t-36.5 102q0 70 51.5 113.5t138.5 43.5q83 0 150 -25v-133q-74 52 -145 52q-65 0 -65 -44q0 -20 17.5 -33.5t66.5 -30.5q87 -31 123 -69.5t36 -99.5q0 -83 -57 -126.5t-151 -43.5q-100 0 -157 27z
M391 803l-153 -179h-60l71 179h142z" />
    <glyph glyph-name="scaron.sc" horiz-adv-x="469" 
d="M45 162q82 -60 177 -60q72 0 72 46q0 21 -19 35t-67 31q-84 28 -120.5 67t-36.5 102q0 70 51.5 113.5t138.5 43.5q83 0 150 -25v-133q-74 52 -145 52q-65 0 -65 -44q0 -20 17.5 -33.5t66.5 -30.5q87 -31 123 -69.5t36 -99.5q0 -83 -57 -126.5t-151 -43.5q-100 0 -157 27z
M87 803h66l84 -98l84 98h66l-106 -179h-88z" />
    <glyph glyph-name="scircumflex.sc" horiz-adv-x="469" 
d="M45 162q82 -60 177 -60q72 0 72 46q0 21 -19 35t-67 31q-84 28 -120.5 67t-36.5 102q0 70 51.5 113.5t138.5 43.5q83 0 150 -25v-133q-74 52 -145 52q-65 0 -65 -44q0 -20 17.5 -33.5t66.5 -30.5q87 -31 123 -69.5t36 -99.5q0 -83 -57 -126.5t-151 -43.5q-100 0 -157 27z
M321 624l-84 97l-84 -97h-66l106 179h88l106 -179h-66z" />
    <glyph glyph-name="scedilla.sc" horiz-adv-x="469" 
d="M45 162q82 -60 177 -60q72 0 72 46q0 21 -19 35t-67 31q-84 28 -120.5 67t-36.5 102q0 70 51.5 113.5t138.5 43.5q83 0 150 -25v-133q-74 52 -145 52q-65 0 -65 -44q0 -20 17.5 -33.5t66.5 -30.5q87 -31 123 -69.5t36 -99.5q0 -74 -45.5 -116.5t-122.5 -51.5l-22 -43
q6 3 18 3q43 0 68.5 -22t25.5 -58q0 -41 -35 -68t-90 -27q-56 0 -86 25l6 60q24 -25 72 -25q22 0 33.5 9t11.5 22q0 33 -51 33q-27 0 -44 -5l-2 3l42 91q-92 2 -144 27z" />
    <glyph glyph-name="uni0219.sc" horiz-adv-x="469" 
d="M45 162q82 -60 177 -60q72 0 72 46q0 21 -19 35t-67 31q-84 28 -120.5 67t-36.5 102q0 70 51.5 113.5t138.5 43.5q83 0 150 -25v-133q-74 52 -145 52q-65 0 -65 -44q0 -20 17.5 -33.5t66.5 -30.5q87 -31 123 -69.5t36 -99.5q0 -83 -57 -126.5t-151 -43.5q-100 0 -157 27z
M287 -54q14 -25 14 -59q0 -31 -19.5 -58t-72.5 -66h-66q54 69 54 117q0 19 -15 45z" />
    <glyph glyph-name="tcaron.sc" horiz-adv-x="536" 
d="M338 0h-141v405h-183v122h508v-122h-184v-405zM118 803h66l84 -98l84 98h66l-106 -179h-88z" />
    <glyph glyph-name="uni0163.sc" horiz-adv-x="536" 
d="M338 0h-141v405h-183v122h508v-122h-184v-405zM319 -54q14 -25 14 -59q0 -31 -19.5 -58t-72.5 -66h-66q54 69 54 117q0 19 -15 45z" />
    <glyph glyph-name="uni021B.sc" horiz-adv-x="536" 
d="M338 0h-141v405h-183v122h508v-122h-184v-405zM319 -54q14 -25 14 -59q0 -31 -19.5 -58t-72.5 -66h-66q54 69 54 117q0 19 -15 45z" />
    <glyph glyph-name="tbar.sc" horiz-adv-x="536" 
d="M338 0h-141v204h-84v80h84v121h-183v122h508v-122h-184v-121h85v-80h-85v-204z" />
    <glyph glyph-name="ugrave.sc" horiz-adv-x="643" 
d="M74 527h141v-304q0 -56 30 -84.5t76 -28.5t76 28.5t30 84.5v304h141v-304q0 -119 -69.5 -179t-177.5 -60t-177.5 60t-69.5 179v304zM321 624l-153 179h142l71 -179h-60z" />
    <glyph glyph-name="uacute.sc" horiz-adv-x="643" 
d="M74 527h141v-304q0 -56 30 -84.5t76 -28.5t76 28.5t30 84.5v304h141v-304q0 -119 -69.5 -179t-177.5 -60t-177.5 60t-69.5 179v304zM475 803l-153 -179h-60l71 179h142z" />
    <glyph glyph-name="ucircumflex.sc" horiz-adv-x="643" 
d="M74 527h141v-304q0 -56 30 -84.5t76 -28.5t76 28.5t30 84.5v304h141v-304q0 -119 -69.5 -179t-177.5 -60t-177.5 60t-69.5 179v304zM406 624l-84 97l-84 -97h-66l106 179h88l106 -179h-66z" />
    <glyph glyph-name="utilde.sc" horiz-adv-x="643" 
d="M74 527h141v-304q0 -56 30 -84.5t76 -28.5t76 28.5t30 84.5v304h141v-304q0 -119 -69.5 -179t-177.5 -60t-177.5 60t-69.5 179v304zM262 681q-21 0 -35 -14t-18 -36l-48 11q7 65 37 103.5t73 38.5q23 0 64.5 -17t57.5 -17q21 0 35.5 14t17.5 36l49 -11q-7 -65 -37 -103.5
t-73 -38.5q-23 0 -65 17t-58 17z" />
    <glyph glyph-name="udieresis.sc" horiz-adv-x="643" 
d="M74 527h141v-304q0 -56 30 -84.5t76 -28.5t76 28.5t30 84.5v304h141v-304q0 -119 -69.5 -179t-177.5 -60t-177.5 60t-69.5 179v304zM216 776q30 0 49 -18.5t19 -48.5q0 -29 -18.5 -48t-48.5 -19q-31 0 -49.5 18t-18.5 49q0 30 18.5 48.5t48.5 18.5zM425 776
q30 0 49 -18.5t19 -48.5q0 -29 -18.5 -48t-48.5 -19q-31 0 -49.5 18t-18.5 49q0 30 18.5 48.5t48.5 18.5z" />
    <glyph glyph-name="umacron.sc" horiz-adv-x="643" 
d="M74 527h141v-304q0 -56 30 -84.5t76 -28.5t76 28.5t30 84.5v304h141v-304q0 -119 -69.5 -179t-177.5 -60t-177.5 60t-69.5 179v304zM463 757v-96h-285v96h285z" />
    <glyph glyph-name="ubreve.sc" horiz-adv-x="643" 
d="M74 527h141v-304q0 -56 30 -84.5t76 -28.5t76 28.5t30 84.5v304h141v-304q0 -119 -69.5 -179t-177.5 -60t-177.5 60t-69.5 179v304zM321 715q82 0 82 86h55q0 -175 -137 -175t-137 175h55q0 -86 82 -86z" />
    <glyph glyph-name="uring.sc" horiz-adv-x="643" 
d="M74 527h141v-304q0 -56 30 -84.5t76 -28.5t76 28.5t30 84.5v304h141v-304q0 -119 -69.5 -179t-177.5 -60t-177.5 60t-69.5 179v304zM213 714q0 44 32 76.5t76 32.5t76.5 -32.5t32.5 -76.5t-32.5 -76t-76.5 -32q-43 0 -75.5 32t-32.5 76zM266 714q0 -22 16 -38.5t39 -16.5
t39 16t16 39t-16 39t-39 16t-39 -16t-16 -39z" />
    <glyph glyph-name="uhungarumlaut.sc" horiz-adv-x="643" 
d="M74 527h141v-304q0 -56 30 -84.5t76 -28.5t76 28.5t30 84.5v304h141v-304q0 -119 -69.5 -179t-177.5 -60t-177.5 60t-69.5 179v304zM253 803h131l-121 -179h-58zM408 803h132l-121 -179h-58z" />
    <glyph glyph-name="uogonek.sc" horiz-adv-x="643" 
d="M500 -213q-38 -24 -97 -24q-58 0 -91 26t-33 74q0 65 85 124q-16 -3 -43 -3q-108 0 -177.5 60t-69.5 179v304h141v-304q0 -56 30 -84.5t76 -28.5t76 28.5t30 84.5v304h141v-304q0 -121 -77 -185q-57 -51 -78 -83.5t-21 -66.5q0 -16 10.5 -26.5t30.5 -10.5q42 0 71 33h3z
" />
    <glyph glyph-name="wgrave.sc" horiz-adv-x="876" 
d="M530 0l-94 230l-101 -230h-113l-222 527h149l135 -355l90 209l-60 146h147l128 -349l140 349h147l-231 -527h-115zM429 624l-153 179h142l71 -179h-60z" />
    <glyph glyph-name="wacute.sc" horiz-adv-x="876" 
d="M530 0l-94 230l-101 -230h-113l-222 527h149l135 -355l90 209l-60 146h147l128 -349l140 349h147l-231 -527h-115zM584 803l-153 -179h-60l71 179h142z" />
    <glyph glyph-name="wcircumflex.sc" horiz-adv-x="876" 
d="M530 0l-94 230l-101 -230h-113l-222 527h149l135 -355l90 209l-60 146h147l128 -349l140 349h147l-231 -527h-115zM514 624l-84 97l-84 -97h-66l106 179h88l106 -179h-66z" />
    <glyph glyph-name="wdieresis.sc" horiz-adv-x="876" 
d="M530 0l-94 230l-101 -230h-113l-222 527h149l135 -355l90 209l-60 146h147l128 -349l140 349h147l-231 -527h-115zM325 776q30 0 49 -18.5t19 -48.5q0 -29 -18.5 -48t-48.5 -19q-31 0 -49.5 18t-18.5 49q0 30 18.5 48.5t48.5 18.5zM534 776q30 0 49 -18.5t19 -48.5
q0 -29 -18.5 -48t-48.5 -19q-31 0 -49.5 18t-18.5 49q0 30 18.5 48.5t48.5 18.5z" />
    <glyph glyph-name="ygrave.sc" horiz-adv-x="592" 
d="M597 527l-237 -309v-218h-141v219l-224 308h163l134 -214l141 214h164zM295 624l-153 179h142l71 -179h-60z" />
    <glyph glyph-name="yacute.sc" horiz-adv-x="592" 
d="M597 527l-237 -309v-218h-141v219l-224 308h163l134 -214l141 214h164zM449 803l-153 -179h-60l71 179h142z" />
    <glyph glyph-name="ycircumflex.sc" horiz-adv-x="592" 
d="M597 527l-237 -309v-218h-141v219l-224 308h163l134 -214l141 214h164zM380 624l-84 97l-84 -97h-66l106 179h88l106 -179h-66z" />
    <glyph glyph-name="ydieresis.sc" horiz-adv-x="592" 
d="M597 527l-237 -309v-218h-141v219l-224 308h163l134 -214l141 214h164zM191 776q30 0 49 -18.5t19 -48.5q0 -29 -18.5 -48t-48.5 -19q-31 0 -49.5 18t-18.5 49q0 30 18.5 48.5t48.5 18.5zM400 776q30 0 49 -18.5t19 -48.5q0 -29 -18.5 -48t-48.5 -19q-31 0 -49.5 18
t-18.5 49q0 30 18.5 48.5t48.5 18.5z" />
    <glyph glyph-name="zacute.sc" horiz-adv-x="561" 
d="M528 0h-523l300 401h-273l13 126h498l-299 -400h305zM433 803l-153 -179h-60l71 179h142z" />
    <glyph glyph-name="zcaron.sc" horiz-adv-x="561" 
d="M528 0h-523l300 401h-273l13 126h498l-299 -400h305zM130 803h66l84 -98l84 98h66l-106 -179h-88z" />
    <glyph glyph-name="zdotaccent.sc" horiz-adv-x="561" 
d="M528 0h-523l300 401h-273l13 126h498l-299 -400h305zM279 793q35 0 56.5 -21.5t21.5 -56.5q0 -34 -21.5 -56t-55.5 -22q-36 0 -57.5 21.5t-21.5 56.5t21.5 56.5t56.5 21.5z" />
    <glyph glyph-name="germandbls.sc" horiz-adv-x="641" 
d="M557 481l-86 -165q63 -13 97 -55t34 -105q0 -71 -53.5 -119.5t-141.5 -48.5q-74 0 -120 22l-11 123h3q40 -32 108 -32q40 0 62.5 19t22.5 47q0 68 -102 68q-38 0 -65 -8l-1 3l99 186q-28 11 -60 11q-55 0 -90.5 -35t-35.5 -97v-295h-141v306q0 105 74.5 169.5t192.5 64.5
q121 0 214 -59z" />
    <glyph glyph-name="thorn.sc" horiz-adv-x="526" 
d="M222 0h-141v527h141v-84h51q109 0 169 -43.5t60 -127.5q0 -92 -62 -138.5t-178 -46.5h-40v-87zM222 347v-157h34q101 0 101 82q0 75 -105 75h-30z" />
    <glyph glyph-name="fi.sc" horiz-adv-x="756" 
d="M214 417v-124h185v-108h-185v-185h-133v527h349v-110h-216zM675 0h-141v527h141v-527z" />
    <glyph glyph-name="fl.sc" horiz-adv-x="938" 
d="M214 417v-124h185v-108h-185v-185h-133v527h349v-110h-216zM534 0v527h141v-405h254v-122h-395z" />
    <glyph glyph-name="ampersand.sc" horiz-adv-x="617" 
d="M317 207l3 116q138 7 264 46l-4 -113q-26 -2 -80 -8q6 -24 6 -48q0 -101 -62.5 -159t-171.5 -58q-99 0 -158 53t-59 132q0 102 98 143q-46 37 -46 97q0 56 52 93t132 37q60 0 107 -14l-13 -116q-37 22 -96 22q-38 0 -59.5 -17t-21.5 -44q0 -40 40 -75q-41 -22 -58.5 -46
t-17.5 -58q0 -41 28 -67.5t82 -26.5q58 0 90 27.5t32 75.5q0 18 -4 31q-43 -9 -83 -23z" />
    <glyph glyph-name="exclam.sc" horiz-adv-x="288" 
d="M141 116q30 0 48.5 -18t18.5 -48q0 -29 -18.5 -47t-47.5 -18q-30 0 -48 18t-18 47q0 30 18 48t47 18zM62 520l170 17q-6 -90 -26 -195.5t-44 -176.5l-44 4q-22 67 -38 167.5t-18 183.5z" />
    <glyph glyph-name="question.sc" horiz-adv-x="357" 
d="M119 116q29 0 47.5 -18t18.5 -48q0 -29 -18 -47t-47 -18q-31 0 -49 18t-18 47q0 30 18 48t48 18zM165 171l-98 -17v133q70 3 107.5 25.5t37.5 62.5q0 32 -24.5 49.5t-68.5 17.5q-45 0 -78 -15l16 103q37 10 82 10q87 0 139.5 -39.5t52.5 -115.5q0 -68 -44 -109.5
t-122 -55.5v-49z" />
    <glyph glyph-name="exclamdown.sc" horiz-adv-x="288" 
d="M147 409q-30 0 -48 18t-18 48q0 29 18 47t47 18q30 0 48 -18t18 -47q0 -30 -17.5 -48t-47.5 -18zM226 4l-170 -18q7 91 27 197t43 176l45 -5q22 -65 37.5 -165.5t17.5 -184.5z" />
    <glyph glyph-name="questiondown.sc" horiz-adv-x="357" 
d="M238 409q-30 0 -48 18t-18 48q0 29 18 47t47 18q31 0 48.5 -18t17.5 -47q0 -30 -17.5 -48t-47.5 -18zM191 355l99 17v-134q-70 -3 -108 -26t-38 -62q0 -32 25 -49.5t68 -17.5q48 0 79 15l-16 -104q-43 -10 -82 -10q-87 0 -139.5 39.5t-52.5 116.5q0 68 43.5 109t121.5 56
v50z" />
    <glyph glyph-name="percent.sc" horiz-adv-x="707" 
d="M569 527l-343 -527h-88l342 527h89zM157 240q-57 0 -89.5 31.5t-32.5 91.5q0 63 45.5 113.5t108.5 50.5q57 0 89.5 -31t32.5 -91q0 -63 -45.5 -114t-108.5 -51zM189 461q-34 0 -57 -29t-23 -70q0 -56 49 -56q33 0 55.5 29t22.5 70q0 56 -47 56zM518 0q-58 0 -90.5 31.5
t-32.5 91.5q0 63 46 113.5t109 50.5q57 0 89.5 -31t32.5 -91q0 -63 -45.5 -114t-108.5 -51zM550 221q-34 0 -57 -28.5t-23 -70.5q0 -56 49 -56q33 0 55.5 29t22.5 70q0 56 -47 56z" />
    <glyph glyph-name="perthousand.sc" horiz-adv-x="1015" 
d="M570 527l-343 -527h-89l342 527h90zM157 240q-57 0 -89.5 31.5t-32.5 91.5q0 63 45.5 113.5t108.5 50.5q57 0 89.5 -31t32.5 -91q0 -63 -45.5 -114t-108.5 -51zM189 461q-34 0 -57 -29t-23 -70q0 -56 49 -56q33 0 55.5 29t22.5 70q0 56 -47 56zM518 0q-57 0 -89.5 31.5
t-32.5 91.5q0 63 45.5 113.5t108.5 50.5q57 0 90 -31t33 -91q0 -63 -46 -114t-109 -51zM550 221q-34 0 -56.5 -29t-22.5 -70q0 -56 48 -56q34 0 56.5 29t22.5 70q0 56 -48 56zM826 0q-57 0 -89.5 31.5t-32.5 91.5q0 63 45.5 113.5t108.5 50.5q57 0 89.5 -31t32.5 -91
q0 -63 -45.5 -114t-108.5 -51zM858 221q-34 0 -56.5 -29t-22.5 -70q0 -56 48 -56q33 0 56 29t23 70q0 56 -48 56z" />
    <glyph glyph-name="dollar.sc" horiz-adv-x="506" 
d="M284 617v-77q68 -4 130 -28v-125q-56 42 -130 54v-128q94 -29 131 -68.5t37 -102.5q0 -66 -45.5 -106t-122.5 -49v-77h-67v75q-99 3 -157 37l-6 131q75 -59 163 -68v142q-89 28 -125 65t-36 100q0 56 44.5 98.5t116.5 49.5v77h67zM347 140q0 40 -63 65v-121q63 9 63 56z
M160 394q0 -37 57 -59v108q-57 -7 -57 -49z" />
    <glyph glyph-name="Euro.sc" horiz-adv-x="506" 
d="M14 292l20 63h48q23 88 91.5 136.5t169.5 48.5q87 0 147 -26l-32 -99q-42 24 -107 24q-110 0 -144 -84h232l-20 -63h-227q-1 -9 -1 -27q0 -19 1 -28h209l-20 -63h-173q38 -86 151 -86q75 0 129 50h3l-14 -122q-53 -29 -126 -29q-106 0 -176 48.5t-93 138.5h-80l21 63h49
q-1 9 -1 28q0 18 1 27h-58z" />
    <glyph glyph-name="cent.sc" horiz-adv-x="506" 
d="M414 609l-26 -107q47 -12 85 -36l-30 -115q-38 29 -82 40l-65 -265q101 1 170 75h3l-22 -140q-65 -46 -167 -46h-11l-25 -105h-78l28 116q-76 22 -118 82t-42 148q0 114 71.5 184.5t199.5 70.5h8l24 98h77zM148 256q0 -86 74 -118l64 262q-67 -2 -102.5 -40t-35.5 -104z
" />
    <glyph glyph-name="sterling.sc" horiz-adv-x="506" 
d="M387 310l-27 -85q-96 5 -124 6q5 -28 5 -50q0 -32 -6 -56q74 -36 119 -36q54 0 100 50h3l-10 -120q-39 -35 -90 -35q-31 0 -60 10.5t-59.5 28.5t-41.5 23q-46 -54 -98 -54q-29 0 -46.5 17.5t-17.5 44.5q0 37 36 65t89 28h1q0 3 0.5 9t0.5 10q0 23 -11 63q-45 -3 -96 -11
l23 89l44 4q-16 48 -16 82q0 65 48.5 106t129.5 41q76 0 146 -40l-26 -115q-57 49 -117 49q-36 0 -54.5 -17t-18.5 -45t6 -57h6q90 0 162 -5z" />
    <glyph glyph-name="florin.sc" horiz-adv-x="506" 
d="M14 -46l5 115q26 -22 63 -22q38 0 59.5 33t30.5 110l6 54h-104v85h113l1 5q22 206 207 206q58 0 98 -28l-14 -97q-26 23 -63 23q-40 0 -60.5 -24t-27.5 -83v-2h135v-85h-146l-9 -75q-27 -233 -206 -233q-52 0 -88 18z" />
    <glyph glyph-name="yen.sc" horiz-adv-x="506" 
d="M489 224v-79h-172v-145h-140v145h-160v79h160l-40 69h-120v79h74l-90 155h133l114 -221l123 221h136l-97 -155h79v-79h-129l-43 -69h172z" />
    <glyph glyph-name="uni20B9.sc" horiz-adv-x="506" 
d="M23 302l33 79h214q-23 68 -133 68h-114l33 78h419l-33 -78h-90q31 -31 39 -68h84l-33 -79h-53q-21 -84 -124 -127l161 -175h-183l-189 218v4q176 18 210 80h-241z" />
    <glyph glyph-name="uni20BA.sc" horiz-adv-x="506" 
d="M27 286v83l58 28v130h131v-76l112 51v-84l-112 -51v-64l112 51v-84l-112 -51v-108q8 -2 14 -2q54 0 96 34t62 102l107 -72q-29 -88 -101.5 -136t-171.5 -48q-79 0 -137 21v155l-58 -28v84l58 28v65z" />
    <glyph glyph-name="zero.onumprop" horiz-adv-x="660" 
d="M330 -14q-130 0 -207.5 72.5t-77.5 204.5q0 134 77.5 205.5t207.5 71.5t207.5 -71.5t77.5 -205.5q0 -132 -77.5 -204.5t-207.5 -72.5zM330 96q65 0 102.5 43.5t37.5 123.5q0 82 -37.5 124.5t-102.5 42.5t-102.5 -43t-37.5 -124t37.5 -124t102.5 -43z" />
    <glyph glyph-name="one.onumprop" horiz-adv-x="379" 
d="M285 0h-145v402l-121 -7l17 132h249v-527z" />
    <glyph glyph-name="two.onumprop" horiz-adv-x="501" 
d="M329 201q-38 -37 -103 -81h238l-12 -120h-415v104q100 61 180 133q67 64 67 113q0 32 -22.5 50.5t-61.5 18.5q-79 0 -145 -47l20 135q65 33 162 33q89 0 136.5 -44.5t47.5 -113.5q0 -49 -21 -90.5t-71 -90.5z" />
    <glyph glyph-name="three.onumprop" horiz-adv-x="523" 
d="M346 198q128 -47 128 -164q0 -104 -71 -162t-198 -58q-88 0 -163 27l-7 131q67 -35 156 -35q66 0 103 26.5t37 73.5q0 43 -34.5 68t-93.5 25q-77 0 -123 -13l23 133q35 -3 82 -3q64 0 99 24.5t35 70.5q0 35 -26.5 57t-70.5 22q-87 0 -150 -44l24 141q63 22 141 22
q104 0 162.5 -48t58.5 -131q0 -107 -112 -163z" />
    <glyph glyph-name="four.onumprop" horiz-adv-x="616" 
d="M355 -187v187h-330v95l311 432h153v-411h100v-116h-100v-187h-134zM146 116h209v289z" />
    <glyph glyph-name="five.onumprop" horiz-adv-x="497" 
d="M449 527l-18 -124h-224l-17 -131q1 0 6.5 0.5t8.5 0.5q116 0 183 -56t67 -150q0 -120 -94.5 -190.5t-262.5 -70.5q-40 0 -67 5l18 136q35 -6 73 -6q98 0 147 32.5t49 91.5q0 45 -38 73.5t-113 28.5q-63 0 -112 -13l47 373h347z" />
    <glyph glyph-name="six.onumprop" horiz-adv-x="615" 
d="M508 637q-127 -2 -207.5 -58.5t-113.5 -155.5q61 43 140 43q110 0 176 -62.5t66 -165.5q0 -107 -71.5 -179.5t-186.5 -72.5q-127 0 -196.5 82t-69.5 207q0 221 127 357t357 143zM294 368q-78 0 -126 -53q-1 -10 -1 -32q0 -78 37 -125t100 -47q53 0 86.5 36t33.5 93
q0 58 -35.5 93t-94.5 35z" />
    <glyph glyph-name="seven.onumprop" horiz-adv-x="531" 
d="M45 527h462q-155 -420 -222 -714h-168q87 289 220 577l-328 -10z" />
    <glyph glyph-name="eight.onumprop" horiz-adv-x="614" 
d="M564 197q0 -88 -73.5 -149t-183.5 -61q-116 0 -186 56t-70 147q0 139 158 199q-72 38 -101.5 81t-29.5 101q0 80 66 140.5t172 60.5q109 0 172 -56.5t63 -134.5q0 -121 -133 -181q74 -38 110 -86t36 -117zM422 210q0 79 -124 127q-115 -46 -115 -126q0 -42 33.5 -72
t82.5 -30q55 0 89 28t34 73zM217 565q0 -75 111 -116q92 45 92 114q0 41 -28 66.5t-73 25.5q-46 0 -74 -25.5t-28 -64.5z" />
    <glyph glyph-name="nine.onumprop" horiz-adv-x="596" 
d="M206 -220l-97 120q190 74 261 178q-30 -6 -60 -6q-123 0 -198 61.5t-75 166.5q0 100 71 170t178 70q129 0 201 -79t72 -204q0 -160 -85.5 -275t-267.5 -202zM338 162q44 0 76 11q9 37 9 79q0 74 -38 119t-97 45q-50 0 -82 -32.5t-32 -84.5q0 -60 43.5 -98.5t120.5 -38.5z
" />
    <glyph glyph-name="zero.onumtab" 
d="M311 -14q-117 0 -187 72.5t-70 204.5q0 134 70 205.5t187 71.5t187.5 -71.5t70.5 -205.5q0 -132 -70.5 -204.5t-187.5 -72.5zM311 96q56 0 88.5 43t32.5 124q0 82 -32 124.5t-89 42.5q-56 0 -88 -43.5t-32 -123.5t32 -123.5t88 -43.5z" />
    <glyph glyph-name="one.onumtab" 
d="M521 0h-414v120h135v282l-143 -7l17 132h270v-407h135v-120z" />
    <glyph glyph-name="two.onumtab" 
d="M387 188q-41 -34 -99 -68h252l-13 -120h-445v104q110 55 193 120q48 36 67.5 64.5t19.5 61.5q0 32 -24 50.5t-67 18.5q-87 0 -163 -48l19 128q70 41 181 41q93 0 142.5 -44.5t49.5 -113.5q0 -53 -26.5 -98.5t-86.5 -95.5z" />
    <glyph glyph-name="three.onumtab" 
d="M397 198q128 -47 128 -164q0 -104 -73 -162t-204 -58q-86 0 -163 27l-7 131q68 -35 156 -35q70 0 109 26.5t39 73.5q0 43 -36.5 68t-98.5 25q-79 0 -123 -13l23 133q33 -3 82 -3q68 0 104.5 24.5t36.5 70.5q0 35 -28.5 57t-76.5 22q-87 0 -150 -44l24 141q63 22 141 22
q108 0 169 -48.5t61 -130.5q0 -107 -113 -163z" />
    <glyph glyph-name="four.onumtab" 
d="M348 -187v187h-315v95l311 432h138v-411h100v-116h-100v-187h-134zM147 116h201v278z" />
    <glyph glyph-name="five.onumtab" 
d="M510 527l-18 -124h-244l-17 -132q16 2 33 2q116 0 184 -56t68 -150q0 -120 -97 -190.5t-270 -70.5q-47 0 -77 5l18 137q38 -7 83 -7q103 0 154.5 32.5t51.5 91.5q0 45 -40.5 73.5t-120.5 28.5q-69 0 -122 -13l46 373h368z" />
    <glyph glyph-name="six.onumtab" 
d="M512 637q-126 -2 -205.5 -58.5t-112.5 -155.5q59 43 137 43q109 0 174.5 -62.5t65.5 -165.5q0 -107 -71 -179.5t-185 -72.5q-126 0 -195 82t-69 207q0 221 126.5 357t356.5 143zM298 368q-75 0 -123 -53q-1 -10 -1 -32q0 -78 36.5 -125t98.5 -47q52 0 84.5 36t32.5 93
q0 58 -35 93t-93 35z" />
    <glyph glyph-name="seven.onumtab" 
d="M75 527h477q-155 -420 -222 -714h-168q87 289 220 577l-343 -10z" />
    <glyph glyph-name="eight.onumtab" 
d="M566 197q0 -88 -72.5 -149t-181.5 -61q-115 0 -185 56t-70 147q0 141 157 199q-71 38 -100.5 81t-29.5 101q0 80 66 140.5t170 60.5q108 0 170.5 -56.5t62.5 -134.5q0 -122 -132 -181q73 -38 109 -86t36 -117zM423 210q0 79 -121 128q-112 -45 -112 -127q0 -42 32.5 -72
t80.5 -30q54 0 87 28t33 73zM223 565q0 -38 26 -66t83 -50q90 45 90 114q0 41 -27.5 66.5t-71.5 25.5q-45 0 -72.5 -25t-27.5 -65z" />
    <glyph glyph-name="nine.onumtab" 
d="M219 -220l-97 120q190 74 261 178q-30 -6 -60 -6q-123 0 -198 61.5t-75 166.5q0 100 71 170t178 70q129 0 201 -79t72 -204q0 -160 -85.5 -275t-267.5 -202zM351 162q44 0 76 11q9 37 9 79q0 74 -38 119t-97 45q-50 0 -82 -32.5t-32 -84.5q0 -60 43.5 -98.5t120.5 -38.5z
" />
    <glyph glyph-name="zero.prop" horiz-adv-x="709" 
d="M349 -16q-137 0 -213 104t-76 292q0 187 81.5 287.5t217.5 100.5q142 0 216 -98.5t74 -292.5q0 -184 -81 -288.5t-219 -104.5zM349 107q80 0 118.5 67.5t38.5 209.5q0 131 -39 199.5t-112 68.5q-72 0 -112 -68.5t-40 -198.5q0 -135 38 -206.5t108 -71.5z" />
    <glyph glyph-name="one.prop" horiz-adv-x="453" 
d="M319 0h-144v627l-130 -16l25 141h249v-752z" />
    <glyph glyph-name="two.prop" horiz-adv-x="602" 
d="M99 720q90 45 202 45q102 0 164 -57.5t62 -147.5q0 -68 -24 -123t-82 -124q-77 -91 -180 -187h322l-14 -126h-510v60q165 162 281 314q64 85 64 148q0 49 -31 78t-91 29q-100 0 -193 -68z" />
    <glyph glyph-name="three.prop" horiz-adv-x="577" 
d="M388 396q133 -51 133 -182q0 -107 -75 -167t-209 -60q-88 0 -163 27l-8 140q65 -35 156 -35q73 0 114 27.5t41 77.5q0 48 -38 76.5t-104 28.5q-69 0 -132 -13l33 135q35 -3 81 -3q71 0 109.5 27.5t38.5 78.5q0 39 -29.5 63.5t-79.5 24.5q-89 0 -156 -45l25 145
q67 23 144 23q110 0 173 -50.5t63 -136.5q0 -120 -117 -182z" />
    <glyph glyph-name="four.prop" horiz-adv-x="693" 
d="M405 0v202h-371v114l355 436h150v-431h100v-119h-100v-202h-134zM153 321h252v309z" />
    <glyph glyph-name="five.prop" horiz-adv-x="614" 
d="M542 752l-17 -124h-289l-19 -141q2 0 8 0.5t9 0.5q139 0 221 -66t82 -175q0 -138 -103.5 -216t-290.5 -78q-34 0 -76 7l12 133q38 -7 87 -7q113 0 173.5 40.5t60.5 114.5q0 60 -52 97t-153 37q-61 0 -114 -12l49 389h412z" />
    <glyph glyph-name="six.prop" horiz-adv-x="644" 
d="M531 641q-130 -3 -213 -59.5t-117 -155.5q64 43 148 43q110 0 177.5 -65t67.5 -171q0 -107 -75.5 -177t-190.5 -70q-131 0 -201.5 82t-70.5 212q0 221 130.5 357t367.5 143zM316 369q-82 0 -136 -51q-1 -13 -1 -38q0 -76 39.5 -122t107.5 -46q57 0 92.5 34.5t35.5 90.5
q0 60 -37.5 96t-100.5 36z" />
    <glyph glyph-name="seven.prop" horiz-adv-x="570" 
d="M57 752h485q-148 -427 -216 -752h-174q105 354 220 615l-359 -11z" />
    <glyph glyph-name="eight.prop" horiz-adv-x="625" 
d="M569 197q0 -88 -73.5 -149t-183.5 -61q-116 0 -186 56t-70 147q0 139 158 199q-72 38 -101.5 81t-29.5 101q0 80 66 140.5t172 60.5q109 0 172 -56.5t63 -134.5q0 -121 -133 -181q74 -38 110 -86t36 -117zM427 210q0 79 -124 127q-115 -46 -115 -126q0 -42 33.5 -72
t82.5 -30q55 0 89 28t34 73zM222 565q0 -75 111 -116q92 45 92 114q0 41 -28 66.5t-73 25.5q-46 0 -74 -25.5t-28 -64.5z" />
    <glyph glyph-name="nine.prop" horiz-adv-x="642" 
d="M237 -28l-102 119q209 79 281 212q-38 -12 -80 -12q-128 0 -207 63.5t-79 171.5q0 102 73 173.5t184 71.5q131 0 205 -83.5t74 -216.5q0 -168 -84.5 -289t-264.5 -210zM364 381q48 0 85 14q8 38 8 75q0 79 -43 127.5t-110 48.5q-52 0 -84.5 -33.5t-32.5 -87.5
q0 -62 47.5 -103t129.5 -41z" />
    <glyph glyph-name="ampersand.salt" horiz-adv-x="780" 
d="M606 361l124 -44q-41 -107 -103 -179l125 -138h-169l-49 54q-101 -67 -225 -67q-120 0 -187 58t-67 159q0 64 34.5 114t119.5 101q-79 96 -79 180q0 74 57 127.5t147 53.5q92 0 145 -49t53 -121q0 -59 -33.5 -105.5t-115.5 -97.5l159 -175q43 54 64 129zM321 111
q66 0 129 37l-174 195q-45 -32 -64 -60t-19 -61q0 -52 33 -81.5t95 -29.5zM257 602q0 -30 12.5 -56.5t48.5 -66.5q54 33 73 60.5t19 64.5q0 30 -21.5 51.5t-53.5 21.5q-36 0 -57 -21t-21 -54z" />
    <glyph glyph-name="comma.salt" horiz-adv-x="267" 
d="M232 128l-125 -250h-97l95 250h127z" />
    <glyph glyph-name="semicolon.salt" horiz-adv-x="262" 
d="M131 492q35 0 56.5 -22t21.5 -56t-21.5 -56t-55.5 -22q-36 0 -57.5 21.5t-21.5 56.5q0 34 21.5 56t56.5 22zM202 128l-125 -250h-97l95 250h127z" />
    <glyph glyph-name="quoteleft.salt" horiz-adv-x="252" 
d="M27 516l125 250h96l-95 -250h-126z" />
    <glyph glyph-name="quoteright.salt" horiz-adv-x="252" 
d="M248 766l-125 -250h-97l95 250h127z" />
    <glyph glyph-name="quotesinglbase.salt" horiz-adv-x="267" 
d="M232 128l-125 -250h-97l95 250h127z" />
    <glyph glyph-name="quotedblleft.salt" horiz-adv-x="411" 
d="M205 516l125 250h96l-95 -250h-126zM18 516l125 250h96l-95 -250h-126z" />
    <glyph glyph-name="quotedblright.salt" horiz-adv-x="411" 
d="M429 766l-125 -250h-97l95 250h127zM242 766l-125 -250h-97l95 250h127z" />
    <glyph glyph-name="quotedblbase.salt" horiz-adv-x="459" 
d="M419 128l-125 -250h-97l95 250h127zM232 128l-125 -250h-97l95 250h127z" />
    <glyph glyph-name="A.salt" horiz-adv-x="789" 
d="M626 0l-83 178h-303l-77 -178h-161l390 795h4l391 -795h-161zM387 530l-106 -243h218z" />
    <glyph glyph-name="G.salt" horiz-adv-x="769" 
d="M446 652q-114 0 -181.5 -74.5t-67.5 -196.5q0 -121 66.5 -193t176.5 -72q77 0 122 33v138h-153v135h304v-353q-114 -82 -280 -82q-172 0 -279.5 107.5t-107.5 286.5q0 168 108 286t290 118q136 0 240 -65l-15 -166h-3q-38 45 -95.5 71.5t-124.5 26.5z" />
    <glyph glyph-name="J.salt" horiz-adv-x="475" 
d="M391 772v-505q0 -132 -72 -202.5t-195 -70.5q-60 0 -103 18l-9 152q44 -40 106 -40q60 0 94 38.5t34 113.5v496h145z" />
    <glyph glyph-name="M.salt" horiz-adv-x="1001" 
d="M808 799l151 -799h-146l-69 407l-236 -436h-5l-243 439l-72 -410h-145l153 797h4l305 -559l299 561h4z" />
    <glyph glyph-name="N.salt" horiz-adv-x="869" 
d="M91 0v795h4l539 -503v480h145v-799h-4l-539 503v-476h-145z" />
    <glyph glyph-name="V.salt" horiz-adv-x="742" 
d="M2 772h168l195 -476l207 476h168l-375 -802h-4z" />
    <glyph glyph-name="W.salt" horiz-adv-x="1118" 
d="M2 772h161l179 -459l219 488h4l199 -491l191 462h161l-345 -805h-4l-206 486l-230 -486h-4z" />
    <glyph glyph-name="a.sc.salt" horiz-adv-x="590" 
d="M440 0l-49 110h-190l-51 -110h-149l300 558h4l284 -558h-149zM299 339l-62 -134h121z" />
    <glyph glyph-name="g.sc.salt" horiz-adv-x="589" 
d="M338 424q-70 0 -113.5 -46t-43.5 -118q0 -74 42.5 -117t112.5 -43q40 0 69 21v80h-92v96h229v-237q-89 -73 -222 -73q-124 0 -202 74t-78 201q0 121 79.5 199.5t214.5 78.5q111 0 185 -47l-24 -131h-3q-60 62 -154 62z" />
    <glyph glyph-name="j.sc.salt" horiz-adv-x="412" 
d="M340 527v-303q0 -108 -57.5 -169.5t-159.5 -61.5q-64 0 -103 19l-9 142q35 -34 86 -34q47 0 74.5 31t27.5 89v287h141z" />
    <glyph glyph-name="m.sc.salt" horiz-adv-x="733" 
d="M601 557l96 -557h-136l-35 219l-155 -248h-3l-160 252l-36 -223h-136l98 557h3l232 -367l228 367h4z" />
    <glyph glyph-name="n.sc.salt" horiz-adv-x="685" 
d="M601 -29l-379 306v-277h-141v549h3l379 -308v286h141v-556h-3z" />
    <glyph glyph-name="v.sc.salt" horiz-adv-x="544" 
d="M0 527h148l122 -283l126 283h148l-274 -557h-4z" />
    <glyph glyph-name="w.sc.salt" horiz-adv-x="801" 
d="M553 -32l-153 312l-166 -312h-4l-230 559h140l110 -279l151 300h4l139 -302l117 281h140l-244 -559h-4z" />
    <glyph glyph-name="a.salt" horiz-adv-x="618" 
d="M553 15l-135 -34q-8 23 -10 48q-61 -44 -140 -44q-105 0 -166.5 72t-61.5 182q0 124 73 198.5t191 74.5q73 0 126 -32l112 17v-374q0 -64 11 -108zM303 97q70 0 102 39v236q-31 28 -86 28q-64 0 -101 -43t-37 -116q0 -65 33 -104.5t89 -39.5z" />
    <glyph glyph-name="e.salt" horiz-adv-x="555" 
d="M507 230l-343 -9q8 -61 49.5 -93t106.5 -32q102 0 172 66h3l-11 -124q-64 -55 -181 -55t-190 66t-73 195q0 113 69 190t178 77q103 0 163.5 -59.5t60.5 -157.5q0 -40 -4 -64zM284 409q-48 0 -80 -31.5t-40 -87.5l226 6q0 52 -27 82.5t-79 30.5z" />
    <glyph glyph-name="g.salt" horiz-adv-x="619" 
d="M86 -194l-5 135q69 -67 183 -67q143 0 143 124v29q-58 -40 -133 -40q-106 0 -170 69t-64 186q0 120 73.5 195t192.5 75q74 0 130 -29l108 17v-500q0 -107 -72.5 -172t-199.5 -65q-117 0 -186 43zM312 99q61 0 95 35v247q-30 19 -80 19q-69 0 -107.5 -42t-38.5 -114
q0 -68 35 -106.5t96 -38.5z" />
    <glyph glyph-name="v.salt" horiz-adv-x="509" 
d="M0 494h145l103 -265l118 265h143l-268 -526h-4z" />
    <glyph glyph-name="w.salt" horiz-adv-x="797" 
d="M0 494h144l97 -263l153 291h4l141 -292l116 264h143l-251 -534h-4l-152 305l-164 -312h-4z" />
    <glyph glyph-name="ae.salt" horiz-adv-x="825" 
d="M778 232l-331 -9q7 -61 47 -93t103 -32q100 0 166 65h3l-11 -123q-63 -55 -178 -55q-131 0 -198 90q-93 -88 -218 -88q-62 0 -96.5 31t-34.5 85q0 116 153 165q58 19 135 26v27q0 76 -87 76q-84 0 -139 -52h-3v117q68 47 167 47q113 0 153 -71q61 72 156 72
q101 0 159 -60t58 -159q0 -25 -4 -59zM562 407q-44 0 -75 -32t-39 -88l213 6q0 53 -25.5 83.5t-73.5 30.5zM318 129v103q-57 -6 -102 -27q-46 -22 -46 -64q0 -51 53 -51q58 0 95 39z" />
    <glyph glyph-name="oe.salt" horiz-adv-x="918" 
d="M870 232l-331 -9q7 -61 47 -94t104 -33q100 0 165 66h3l-11 -124q-61 -55 -177 -55q-133 0 -194 89q-65 -89 -184 -89q-111 0 -181.5 73.5t-70.5 197.5q0 117 71.5 187.5t180.5 70.5q121 0 188 -93q62 92 178 92q100 0 158 -60t58 -159q0 -39 -4 -60zM292 94
q52 0 81.5 41.5t29.5 118.5q0 64 -30.5 106t-80.5 42q-49 0 -80 -40t-31 -108q0 -73 29 -116.5t82 -43.5zM654 409q-44 0 -75 -32.5t-39 -89.5l213 6q0 54 -25 85t-74 31z" />
    <glyph glyph-name="Agrave.salt" horiz-adv-x="789" 
d="M626 0l-83 178h-303l-77 -178h-161l390 795h4l391 -795h-161zM387 530l-106 -243h218zM384 819l-142 149h142l73 -149h-73z" />
    <glyph glyph-name="Aacute.salt" horiz-adv-x="789" 
d="M626 0l-83 178h-303l-77 -178h-161l390 795h4l391 -795h-161zM387 530l-106 -243h218zM549 968l-143 -149h-72l73 149h142z" />
    <glyph glyph-name="Acircumflex.salt" horiz-adv-x="789" 
d="M626 0l-83 178h-303l-77 -178h-161l390 795h4l391 -795h-161zM387 530l-106 -243h218zM484 819l-89 80l-88 -80h-67l100 149h112l100 -149h-68z" />
    <glyph glyph-name="Atilde.salt" horiz-adv-x="789" 
d="M626 0l-83 178h-303l-77 -178h-161l390 795h4l391 -795h-161zM387 530l-106 -243h218zM327 857q-21 0 -36 -14t-17 -35l-48 10q6 66 34 104t68 38q26 0 73 -17t65 -17q22 0 36 14t17 36l48 -10q-6 -66 -34 -104.5t-68 -38.5q-26 0 -73 17t-65 17z" />
    <glyph glyph-name="Adieresis.salt" horiz-adv-x="789" 
d="M626 0l-83 178h-303l-77 -178h-161l390 795h4l391 -795h-161zM387 530l-106 -243h218zM281 969q31 0 51 -19.5t20 -51.5q0 -30 -19.5 -49.5t-50.5 -19.5q-32 0 -51.5 19t-19.5 50t19.5 51t50.5 20zM509 969q31 0 50.5 -19.5t19.5 -51.5q0 -30 -19 -49.5t-50 -19.5
q-32 0 -51.5 19t-19.5 50q0 32 19.5 51.5t50.5 19.5z" />
    <glyph glyph-name="Amacron.salt" horiz-adv-x="789" 
d="M626 0l-83 178h-303l-77 -178h-161l390 795h4l391 -795h-161zM387 530l-106 -243h218zM554 935v-88h-316v88h316z" />
    <glyph glyph-name="Abreve.salt" horiz-adv-x="789" 
d="M626 0l-83 178h-303l-77 -178h-161l390 795h4l391 -795h-161zM387 530l-106 -243h218zM395 900q77 0 82 75h55q0 -66 -33.5 -111t-103.5 -45q-72 0 -104.5 44.5t-32.5 111.5h55q5 -75 82 -75z" />
    <glyph glyph-name="Aring.salt" horiz-adv-x="789" 
d="M626 0l-83 178h-303l-77 -178h-161l390 795h4l391 -795h-161zM387 530l-106 -243h218zM290 910q0 43 31 74t74 31t74.5 -31t31.5 -74t-31.5 -74t-74.5 -31t-74 31t-31 74zM337 910q0 -23 17.5 -40.5t40.5 -17.5q24 0 41 17.5t17 40.5t-17 40.5t-41 17.5
q-23 0 -40.5 -17.5t-17.5 -40.5z" />
    <glyph glyph-name="Aogonek.salt" horiz-adv-x="789" 
d="M532 -137q0 35 21.5 66.5t72.5 70.5l-83 178h-303l-77 -178h-161l390 795h4l391 -795q-71 -11 -106.5 -42.5t-35.5 -69.5q0 -16 11 -26.5t31 -10.5q41 0 70 33h3l-7 -97q-37 -24 -97 -24q-57 0 -90.5 26.5t-33.5 73.5zM387 530l-106 -243h218z" />
    <glyph glyph-name="Gcircumflex.salt" horiz-adv-x="769" 
d="M446 652q-114 0 -181.5 -74.5t-67.5 -196.5q0 -121 66.5 -193t176.5 -72q77 0 122 33v138h-153v135h304v-353q-114 -82 -280 -82q-172 0 -279.5 107.5t-107.5 286.5q0 168 108 286t290 118q136 0 240 -65l-15 -166h-3q-38 45 -95.5 71.5t-124.5 26.5zM514 815l-89 80
l-88 -80h-67l100 149h112l100 -149h-68z" />
    <glyph glyph-name="Gbreve.salt" horiz-adv-x="769" 
d="M446 652q-114 0 -181.5 -74.5t-67.5 -196.5q0 -121 66.5 -193t176.5 -72q77 0 122 33v138h-153v135h304v-353q-114 -82 -280 -82q-172 0 -279.5 107.5t-107.5 286.5q0 168 108 286t290 118q136 0 240 -65l-15 -166h-3q-38 45 -95.5 71.5t-124.5 26.5zM426 896q77 0 82 75
h55q0 -66 -33.5 -111t-103.5 -45q-72 0 -104.5 44.5t-32.5 111.5h55q5 -75 82 -75z" />
    <glyph glyph-name="Gdotaccent.salt" horiz-adv-x="769" 
d="M446 652q-114 0 -181.5 -74.5t-67.5 -196.5q0 -121 66.5 -193t176.5 -72q77 0 122 33v138h-153v135h304v-353q-114 -82 -280 -82q-172 0 -279.5 107.5t-107.5 286.5q0 168 108 286t290 118q136 0 240 -65l-15 -166h-3q-38 45 -95.5 71.5t-124.5 26.5zM425 966
q33 0 53.5 -20.5t20.5 -53.5q0 -32 -20 -52.5t-53 -20.5q-34 0 -54 20t-20 53t20 53.5t53 20.5z" />
    <glyph glyph-name="Gcommaaccent.salt" horiz-adv-x="769" 
d="M446 652q-114 0 -181.5 -74.5t-67.5 -196.5q0 -121 66.5 -193t176.5 -72q77 0 122 33v138h-153v135h304v-353q-114 -82 -280 -82q-172 0 -279.5 107.5t-107.5 286.5q0 168 108 286t290 118q136 0 240 -65l-15 -166h-3q-38 45 -95.5 71.5t-124.5 26.5zM482 -54
q14 -25 14 -59q0 -31 -19.5 -58t-72.5 -66h-66q54 69 54 117q0 19 -15 45z" />
    <glyph glyph-name="IJ.salt" horiz-adv-x="777" 
d="M235 0h-144v772h144v-772zM693 772v-505q0 -132 -72 -202.5t-195 -70.5q-60 0 -103 18l-9 152q44 -40 106 -40q60 0 94 38.5t34 113.5v496h145z" />
    <glyph glyph-name="Jcircumflex.salt" horiz-adv-x="475" 
d="M391 772v-505q0 -132 -72 -202.5t-195 -70.5q-60 0 -103 18l-9 152q44 -40 106 -40q60 0 94 38.5t34 113.5v496h145zM406 815l-89 80l-88 -80h-67l100 149h112l100 -149h-68z" />
    <glyph glyph-name="Nacute.salt" horiz-adv-x="869" 
d="M91 0v795h4l539 -503v480h145v-799h-4l-539 503v-476h-145zM566 964l-143 -149h-72l73 149h142z" />
    <glyph glyph-name="Ncaron.salt" horiz-adv-x="869" 
d="M91 0v795h4l539 -503v480h145v-799h-4l-539 503v-476h-145zM256 964h67l89 -80l88 80h68l-100 -149h-112z" />
    <glyph glyph-name="Ntilde.salt" horiz-adv-x="869" 
d="M91 0v795h4l539 -503v480h145v-799h-4l-539 503v-476h-145zM344 853q-21 0 -36 -14t-17 -35l-48 10q6 66 34 104t68 38q26 0 73 -17t65 -17q22 0 36 14t17 36l48 -10q-6 -66 -34 -104.5t-68 -38.5q-26 0 -73 17t-65 17z" />
    <glyph glyph-name="Ncommaaccent.salt" horiz-adv-x="869" 
d="M91 0v795h4l539 -503v480h145v-799h-4l-539 503v-476h-145zM497 -54q14 -25 14 -59q0 -31 -19.5 -58t-72.5 -66h-66q54 69 54 117q0 19 -15 45z" />
    <glyph glyph-name="Eng.salt" horiz-adv-x="869" 
d="M91 0v795h4l539 -503v480h145v-806q0 -95 -51.5 -149t-142.5 -54q-54 0 -100 22l-17 135q31 -30 83 -30q38 0 60.5 26t22.5 74v114l-398 372v-476h-145z" />
    <glyph glyph-name="Wgrave.salt" horiz-adv-x="1118" 
d="M2 772h161l179 -459l219 488h4l199 -491l191 462h161l-345 -805h-4l-206 486l-230 -486h-4zM551 819l-142 149h142l73 -149h-73z" />
    <glyph glyph-name="Wacute.salt" horiz-adv-x="1118" 
d="M2 772h161l179 -459l219 488h4l199 -491l191 462h161l-345 -805h-4l-206 486l-230 -486h-4zM715 968l-143 -149h-72l73 149h142z" />
    <glyph glyph-name="Wcircumflex.salt" horiz-adv-x="1118" 
d="M2 772h161l179 -459l219 488h4l199 -491l191 462h161l-345 -805h-4l-206 486l-230 -486h-4zM651 819l-89 80l-88 -80h-67l100 149h112l100 -149h-68z" />
    <glyph glyph-name="Wdieresis.salt" horiz-adv-x="1118" 
d="M2 772h161l179 -459l219 488h4l199 -491l191 462h161l-345 -805h-4l-206 486l-230 -486h-4zM448 969q32 0 51.5 -19.5t19.5 -51.5q0 -30 -19.5 -49.5t-50.5 -19.5q-32 0 -51.5 19t-19.5 50t19.5 51t50.5 20zM676 969q31 0 50.5 -19.5t19.5 -51.5q0 -30 -19 -49.5
t-50 -19.5q-32 0 -51.5 19t-19.5 50q0 32 19.5 51.5t50.5 19.5z" />
    <glyph glyph-name="agrave.sc.salt" horiz-adv-x="590" 
d="M440 0l-49 110h-190l-51 -110h-149l300 558h4l284 -558h-149zM299 339l-62 -134h121zM302 624l-153 179h142l71 -179h-60z" />
    <glyph glyph-name="aacute.sc.salt" horiz-adv-x="590" 
d="M440 0l-49 110h-190l-51 -110h-149l300 558h4l284 -558h-149zM299 339l-62 -134h121zM456 803l-153 -179h-60l71 179h142z" />
    <glyph glyph-name="acircumflex.sc.salt" horiz-adv-x="590" 
d="M440 0l-49 110h-190l-51 -110h-149l300 558h4l284 -558h-149zM299 339l-62 -134h121zM387 624l-84 97l-84 -97h-66l106 179h88l106 -179h-66z" />
    <glyph glyph-name="atilde.sc.salt" horiz-adv-x="590" 
d="M440 0l-49 110h-190l-51 -110h-149l300 558h4l284 -558h-149zM299 339l-62 -134h121zM243 681q-21 0 -35 -14t-18 -36l-48 11q7 65 37 103.5t73 38.5q23 0 64.5 -17t57.5 -17q21 0 35.5 14t17.5 36l49 -11q-7 -65 -37 -103.5t-73 -38.5q-23 0 -65 17t-58 17z" />
    <glyph glyph-name="adieresis.sc.salt" horiz-adv-x="590" 
d="M440 0l-49 110h-190l-51 -110h-149l300 558h4l284 -558h-149zM299 339l-62 -134h121zM198 776q30 0 49 -18.5t19 -48.5q0 -29 -18.5 -48t-48.5 -19q-31 0 -49.5 18t-18.5 49q0 30 18.5 48.5t48.5 18.5zM407 776q30 0 49 -18.5t19 -48.5q0 -29 -18.5 -48t-48.5 -19
q-31 0 -49.5 18t-18.5 49q0 30 18.5 48.5t48.5 18.5z" />
    <glyph glyph-name="amacron.sc.salt" horiz-adv-x="590" 
d="M440 0l-49 110h-190l-51 -110h-149l300 558h4l284 -558h-149zM299 339l-62 -134h121zM445 757v-96h-285v96h285z" />
    <glyph glyph-name="abreve.sc.salt" horiz-adv-x="590" 
d="M440 0l-49 110h-190l-51 -110h-149l300 558h4l284 -558h-149zM299 339l-62 -134h121zM303 715q82 0 82 86h55q0 -175 -137 -175t-137 175h55q0 -86 82 -86z" />
    <glyph glyph-name="aring.sc.salt" horiz-adv-x="590" 
d="M440 0l-49 110h-190l-51 -110h-149l300 558h4l284 -558h-149zM299 339l-62 -134h121zM194 714q0 44 32 76.5t76 32.5t76.5 -32.5t32.5 -76.5t-32.5 -76t-76.5 -32t-76 32t-32 76zM247 714q0 -22 16.5 -38.5t38.5 -16.5q23 0 39 16t16 39t-16 39t-39 16t-39 -16t-16 -39z
" />
    <glyph glyph-name="aogonek.sc.salt" horiz-adv-x="590" 
d="M346 -137q0 35 21.5 66.5t72.5 70.5l-49 110h-190l-51 -110h-149l300 558h4l284 -558q-130 -38 -130 -112q0 -16 10.5 -26.5t30.5 -10.5q42 0 71 33h3l-7 -97q-38 -24 -97 -24q-58 0 -91 26t-33 74zM299 339l-62 -134h121z" />
    <glyph glyph-name="gcircumflex.sc.salt" horiz-adv-x="589" 
d="M338 424q-70 0 -113.5 -46t-43.5 -118q0 -74 42.5 -117t112.5 -43q40 0 69 21v80h-92v96h229v-237q-89 -73 -222 -73q-124 0 -202 74t-78 201q0 121 79.5 199.5t214.5 78.5q111 0 185 -47l-24 -131h-3q-60 62 -154 62zM400 624l-84 97l-84 -97h-66l106 179h88l106 -179
h-66z" />
    <glyph glyph-name="gbreve.sc.salt" horiz-adv-x="589" 
d="M338 424q-70 0 -113.5 -46t-43.5 -118q0 -74 42.5 -117t112.5 -43q40 0 69 21v80h-92v96h229v-237q-89 -73 -222 -73q-124 0 -202 74t-78 201q0 121 79.5 199.5t214.5 78.5q111 0 185 -47l-24 -131h-3q-60 62 -154 62zM316 715q82 0 82 86h55q0 -175 -137 -175t-137 175
h55q0 -86 82 -86z" />
    <glyph glyph-name="gdotaccent.sc.salt" horiz-adv-x="589" 
d="M338 424q-70 0 -113.5 -46t-43.5 -118q0 -74 42.5 -117t112.5 -43q40 0 69 21v80h-92v96h229v-237q-89 -73 -222 -73q-124 0 -202 74t-78 201q0 121 79.5 199.5t214.5 78.5q111 0 185 -47l-24 -131h-3q-60 62 -154 62zM315 793q35 0 56.5 -21.5t21.5 -56.5
q0 -34 -21.5 -56t-55.5 -22q-36 0 -57.5 21.5t-21.5 56.5t21.5 56.5t56.5 21.5z" />
    <glyph glyph-name="gcommaaccent.sc.salt" horiz-adv-x="589" 
d="M338 424q-70 0 -113.5 -46t-43.5 -118q0 -74 42.5 -117t112.5 -43q40 0 69 21v80h-92v96h229v-237q-89 -73 -222 -73q-124 0 -202 74t-78 201q0 121 79.5 199.5t214.5 78.5q111 0 185 -47l-24 -131h-3q-60 62 -154 62zM366 -54q14 -25 14 -59q0 -31 -19.5 -58t-72.5 -66
h-66q54 69 54 117q0 19 -15 45z" />
    <glyph glyph-name="ij.sc.salt" horiz-adv-x="684" 
d="M218 0h-141v527h141v-527zM612 527v-303q0 -108 -57.5 -169.5t-159.5 -61.5q-64 0 -103 19l-9 142q35 -34 86 -34q47 0 74.5 31t27.5 89v287h141z" />
    <glyph glyph-name="jcircumflex.sc.salt" horiz-adv-x="412" 
d="M340 527v-303q0 -108 -57.5 -169.5t-159.5 -61.5q-64 0 -103 19l-9 142q35 -34 86 -34q47 0 74.5 31t27.5 89v287h141zM354 624l-84 97l-84 -97h-66l106 179h88l106 -179h-66z" />
    <glyph glyph-name="nacute.sc.salt" horiz-adv-x="685" 
d="M601 -29l-379 306v-277h-141v549h3l379 -308v286h141v-556h-3zM480 803l-153 -179h-60l71 179h142z" />
    <glyph glyph-name="ncaron.sc.salt" horiz-adv-x="685" 
d="M601 -29l-379 306v-277h-141v549h3l379 -308v286h141v-556h-3zM177 803h66l84 -98l84 98h66l-106 -179h-88z" />
    <glyph glyph-name="ntilde.sc.salt" horiz-adv-x="685" 
d="M601 -29l-379 306v-277h-141v549h3l379 -308v286h141v-556h-3zM267 681q-21 0 -35 -14t-18 -36l-48 11q7 65 37 103.5t73 38.5q23 0 64.5 -17t57.5 -17q21 0 35.5 14t17.5 36l49 -11q-7 -65 -37 -103.5t-73 -38.5q-23 0 -65 17t-58 17z" />
    <glyph glyph-name="ncommaaccent.sc.salt" horiz-adv-x="685" 
d="M601 -29l-379 306v-277h-141v549h3l379 -308v286h141v-556h-3zM407 -54q14 -25 14 -59q0 -31 -19.5 -58t-72.5 -66h-66q54 69 54 117q0 19 -15 45z" />
    <glyph glyph-name="eng.sc.salt" horiz-adv-x="685" 
d="M463 -30v112l-241 195v-277h-141v549h3l379 -308v286h141v-567q0 -92 -49 -144.5t-136 -52.5q-52 0 -95 20l-10 117q25 -26 71 -26q36 0 57 25t21 71z" />
    <glyph glyph-name="wgrave.sc.salt" horiz-adv-x="801" 
d="M553 -32l-153 312l-166 -312h-4l-230 559h140l110 -279l151 300h4l139 -302l117 281h140l-244 -559h-4zM402 624l-153 179h142l71 -179h-60z" />
    <glyph glyph-name="wacute.sc.salt" horiz-adv-x="801" 
d="M553 -32l-153 312l-166 -312h-4l-230 559h140l110 -279l151 300h4l139 -302l117 281h140l-244 -559h-4zM556 803l-153 -179h-60l71 179h142z" />
    <glyph glyph-name="wcircumflex.sc.salt" horiz-adv-x="801" 
d="M553 -32l-153 312l-166 -312h-4l-230 559h140l110 -279l151 300h4l139 -302l117 281h140l-244 -559h-4zM487 624l-84 97l-84 -97h-66l106 179h88l106 -179h-66z" />
    <glyph glyph-name="wdieresis.sc.salt" horiz-adv-x="801" 
d="M553 -32l-153 312l-166 -312h-4l-230 559h140l110 -279l151 300h4l139 -302l117 281h140l-244 -559h-4zM298 776q30 0 49 -18.5t19 -48.5q0 -29 -18.5 -48t-48.5 -19q-31 0 -49.5 18t-18.5 49q0 30 18.5 48.5t48.5 18.5zM507 776q30 0 49 -18.5t19 -48.5q0 -29 -18.5 -48
t-48.5 -19q-31 0 -49.5 18t-18.5 49q0 30 18.5 48.5t48.5 18.5z" />
    <glyph glyph-name="agrave.salt" horiz-adv-x="618" 
d="M553 15l-135 -34q-8 23 -10 48q-61 -44 -140 -44q-105 0 -166.5 72t-61.5 182q0 124 73 198.5t191 74.5q73 0 126 -32l112 17v-374q0 -64 11 -108zM303 97q70 0 102 39v236q-31 28 -86 28q-64 0 -101 -43t-37 -116q0 -65 33 -104.5t89 -39.5zM303 591l-153 179h142
l71 -179h-60z" />
    <glyph glyph-name="aacute.salt" horiz-adv-x="618" 
d="M553 15l-135 -34q-8 23 -10 48q-61 -44 -140 -44q-105 0 -166.5 72t-61.5 182q0 124 73 198.5t191 74.5q73 0 126 -32l112 17v-374q0 -64 11 -108zM303 97q70 0 102 39v236q-31 28 -86 28q-64 0 -101 -43t-37 -116q0 -65 33 -104.5t89 -39.5zM457 770l-153 -179h-60
l71 179h142z" />
    <glyph glyph-name="acircumflex.salt" horiz-adv-x="618" 
d="M553 15l-135 -34q-8 23 -10 48q-61 -44 -140 -44q-105 0 -166.5 72t-61.5 182q0 124 73 198.5t191 74.5q73 0 126 -32l112 17v-374q0 -64 11 -108zM303 97q70 0 102 39v236q-31 28 -86 28q-64 0 -101 -43t-37 -116q0 -65 33 -104.5t89 -39.5zM388 591l-84 97l-84 -97h-66
l106 179h88l106 -179h-66z" />
    <glyph glyph-name="atilde.salt" horiz-adv-x="618" 
d="M553 15l-135 -34q-8 23 -10 48q-61 -44 -140 -44q-105 0 -166.5 72t-61.5 182q0 124 73 198.5t191 74.5q73 0 126 -32l112 17v-374q0 -64 11 -108zM303 97q70 0 102 39v236q-31 28 -86 28q-64 0 -101 -43t-37 -116q0 -65 33 -104.5t89 -39.5zM244 648q-21 0 -35 -14
t-18 -36l-48 11q7 65 37 103.5t73 38.5q23 0 64.5 -17t57.5 -17q21 0 35.5 14t17.5 36l49 -11q-7 -65 -37 -103.5t-73 -38.5q-23 0 -65 17t-58 17z" />
    <glyph glyph-name="adieresis.salt" horiz-adv-x="618" 
d="M553 15l-135 -34q-8 23 -10 48q-61 -44 -140 -44q-105 0 -166.5 72t-61.5 182q0 124 73 198.5t191 74.5q73 0 126 -32l112 17v-374q0 -64 11 -108zM303 97q70 0 102 39v236q-31 28 -86 28q-64 0 -101 -43t-37 -116q0 -65 33 -104.5t89 -39.5zM199 743q30 0 49 -18.5
t19 -48.5q0 -29 -18.5 -48t-48.5 -19q-31 0 -49.5 18t-18.5 49q0 30 18.5 48.5t48.5 18.5zM408 743q30 0 49 -18.5t19 -48.5q0 -29 -18.5 -48t-48.5 -19q-31 0 -49.5 18t-18.5 49q0 30 18.5 48.5t48.5 18.5z" />
    <glyph glyph-name="amacron.salt" horiz-adv-x="618" 
d="M553 15l-135 -34q-8 23 -10 48q-61 -44 -140 -44q-105 0 -166.5 72t-61.5 182q0 124 73 198.5t191 74.5q73 0 126 -32l112 17v-374q0 -64 11 -108zM303 97q70 0 102 39v236q-31 28 -86 28q-64 0 -101 -43t-37 -116q0 -65 33 -104.5t89 -39.5zM446 724v-96h-285v96h285z
" />
    <glyph glyph-name="abreve.salt" horiz-adv-x="618" 
d="M553 15l-135 -34q-8 23 -10 48q-61 -44 -140 -44q-105 0 -166.5 72t-61.5 182q0 124 73 198.5t191 74.5q73 0 126 -32l112 17v-374q0 -64 11 -108zM303 97q70 0 102 39v236q-31 28 -86 28q-64 0 -101 -43t-37 -116q0 -65 33 -104.5t89 -39.5zM304 682q82 0 82 86h55
q0 -175 -137 -175t-137 175h55q0 -86 82 -86z" />
    <glyph glyph-name="aring.salt" horiz-adv-x="618" 
d="M553 15l-135 -34q-8 23 -10 48q-61 -44 -140 -44q-105 0 -166.5 72t-61.5 182q0 124 73 198.5t191 74.5q73 0 126 -32l112 17v-374q0 -64 11 -108zM303 97q70 0 102 39v236q-31 28 -86 28q-64 0 -101 -43t-37 -116q0 -65 33 -104.5t89 -39.5zM195 681q0 44 32 76.5
t76 32.5t76.5 -32.5t32.5 -76.5t-32.5 -76t-76.5 -32q-43 0 -75.5 32.5t-32.5 75.5zM248 681q0 -23 16 -39t39 -16t39 16t16 39t-16 39t-39 16t-39 -16t-16 -39z" />
    <glyph glyph-name="aogonek.salt" horiz-adv-x="618" 
d="M553 15q-119 -60 -119 -127q0 -16 10.5 -26.5t30.5 -10.5q42 0 71 33h3l-7 -97q-38 -24 -97 -24q-58 0 -91 26t-33 74q0 35 21 66t70 70q-4 20 -4 30q-61 -44 -140 -44q-105 0 -166.5 72t-61.5 182q0 124 73 198.5t191 74.5q73 0 126 -32l112 17v-374q0 -64 11 -108z
M303 97q70 0 102 39v236q-31 28 -86 28q-64 0 -101 -43t-37 -116q0 -65 33 -104.5t89 -39.5z" />
    <glyph glyph-name="egrave.salt" horiz-adv-x="555" 
d="M507 230l-343 -9q8 -61 49.5 -93t106.5 -32q102 0 172 66h3l-11 -124q-64 -55 -181 -55t-190 66t-73 195q0 113 69 190t178 77q103 0 163.5 -59.5t60.5 -157.5q0 -40 -4 -64zM284 409q-48 0 -80 -31.5t-40 -87.5l226 6q0 52 -27 82.5t-79 30.5zM282 591l-153 179h142
l71 -179h-60z" />
    <glyph glyph-name="eacute.salt" horiz-adv-x="555" 
d="M507 230l-343 -9q8 -61 49.5 -93t106.5 -32q102 0 172 66h3l-11 -124q-64 -55 -181 -55t-190 66t-73 195q0 113 69 190t178 77q103 0 163.5 -59.5t60.5 -157.5q0 -40 -4 -64zM284 409q-48 0 -80 -31.5t-40 -87.5l226 6q0 52 -27 82.5t-79 30.5zM436 770l-153 -179h-60
l71 179h142z" />
    <glyph glyph-name="ecircumflex.salt" horiz-adv-x="555" 
d="M507 230l-343 -9q8 -61 49.5 -93t106.5 -32q102 0 172 66h3l-11 -124q-64 -55 -181 -55t-190 66t-73 195q0 113 69 190t178 77q103 0 163.5 -59.5t60.5 -157.5q0 -40 -4 -64zM284 409q-48 0 -80 -31.5t-40 -87.5l226 6q0 52 -27 82.5t-79 30.5zM367 591l-84 97l-84 -97
h-66l106 179h88l106 -179h-66z" />
    <glyph glyph-name="edieresis.salt" horiz-adv-x="555" 
d="M507 230l-343 -9q8 -61 49.5 -93t106.5 -32q102 0 172 66h3l-11 -124q-64 -55 -181 -55t-190 66t-73 195q0 113 69 190t178 77q103 0 163.5 -59.5t60.5 -157.5q0 -40 -4 -64zM284 409q-48 0 -80 -31.5t-40 -87.5l226 6q0 52 -27 82.5t-79 30.5zM178 743q30 0 49 -18.5
t19 -48.5q0 -29 -18.5 -48t-48.5 -19q-31 0 -49.5 18t-18.5 49q0 30 18.5 48.5t48.5 18.5zM387 743q30 0 49 -18.5t19 -48.5q0 -29 -18.5 -48t-48.5 -19q-31 0 -49.5 18t-18.5 49q0 30 18.5 48.5t48.5 18.5z" />
    <glyph glyph-name="emacron.salt" horiz-adv-x="555" 
d="M507 230l-343 -9q8 -61 49.5 -93t106.5 -32q102 0 172 66h3l-11 -124q-64 -55 -181 -55t-190 66t-73 195q0 113 69 190t178 77q103 0 163.5 -59.5t60.5 -157.5q0 -40 -4 -64zM284 409q-48 0 -80 -31.5t-40 -87.5l226 6q0 52 -27 82.5t-79 30.5zM424 724v-96h-285v96h285z
" />
    <glyph glyph-name="ebreve.salt" horiz-adv-x="555" 
d="M507 230l-343 -9q8 -61 49.5 -93t106.5 -32q102 0 172 66h3l-11 -124q-64 -55 -181 -55t-190 66t-73 195q0 113 69 190t178 77q103 0 163.5 -59.5t60.5 -157.5q0 -40 -4 -64zM284 409q-48 0 -80 -31.5t-40 -87.5l226 6q0 52 -27 82.5t-79 30.5zM283 682q82 0 82 86h55
q0 -175 -137 -175t-137 175h55q0 -86 82 -86z" />
    <glyph glyph-name="edotaccent.salt" horiz-adv-x="555" 
d="M507 230l-343 -9q8 -61 49.5 -93t106.5 -32q102 0 172 66h3l-11 -124q-64 -55 -181 -55t-190 66t-73 195q0 113 69 190t178 77q103 0 163.5 -59.5t60.5 -157.5q0 -40 -4 -64zM284 409q-48 0 -80 -31.5t-40 -87.5l226 6q0 52 -27 82.5t-79 30.5zM282 760q34 0 56 -22
t22 -56t-21.5 -56t-55.5 -22q-36 0 -57.5 21.5t-21.5 56.5q0 34 22 56t56 22z" />
    <glyph glyph-name="ecaron.salt" horiz-adv-x="555" 
d="M507 230l-343 -9q8 -61 49.5 -93t106.5 -32q102 0 172 66h3l-11 -124q-64 -55 -181 -55t-190 66t-73 195q0 113 69 190t178 77q103 0 163.5 -59.5t60.5 -157.5q0 -40 -4 -64zM284 409q-48 0 -80 -31.5t-40 -87.5l226 6q0 52 -27 82.5t-79 30.5zM133 770h66l84 -98l84 98
h66l-106 -179h-88z" />
    </font>
</defs>
</svg>
